<?xml version="1.0" encoding="UTF-8" standalone="no"?>
<svg
   width="43.007805mm"
   height="88.00853mm"
   enable-background="new"
   version="1.1"
   viewBox="0 0 152.39099 311.84028"
   id="svg20076"
   sodipodi:docname="Mazzo.svg"
   inkscape:version="1.2.1 (9c6d41e410, 2022-07-14)"
   xmlns:inkscape="http://www.inkscape.org/namespaces/inkscape"
   xmlns:sodipodi="http://sodipodi.sourceforge.net/DTD/sodipodi-0.dtd"
   xmlns="http://www.w3.org/2000/svg"
   xmlns:svg="http://www.w3.org/2000/svg"
   xmlns:rdf="http://www.w3.org/1999/02/22-rdf-syntax-ns#"
   xmlns:cc="http://creativecommons.org/ns#"
   xmlns:dc="http://purl.org/dc/elements/1.1/">
  <sodipodi:namedview
     id="namedview20078"
     pagecolor="#ffffff"
     bordercolor="#000000"
     borderopacity="0.25"
     inkscape:showpageshadow="2"
     inkscape:pageopacity="0.0"
     inkscape:pagecheckerboard="0"
     inkscape:deskcolor="#d1d1d1"
     inkscape:document-units="mm"
     showgrid="false"
     inkscape:zoom="8"
     inkscape:cx="81.25"
     inkscape:cy="148.1875"
     inkscape:window-width="2560"
     inkscape:window-height="1409"
     inkscape:window-x="0"
     inkscape:window-y="31"
     inkscape:window-maximized="1"
     inkscape:current-layer="svg20076" />
  <title
     id="title2">Bresciane</title>
  <defs
     id="defs191">
    <pattern
       id="c"
       width="3.542969"
       height="4.72461"
       patternTransform="translate(-52.264 805.51)"
       patternUnits="userSpaceOnUse">
      <path
         d="m0 0v0.53906l0.48242 0.64258-0.48242 0.64453v1.0742l0.48242 0.64258-0.48242 0.64258v0.53906h0.40625l-0.001953-0.00195 0.48047-0.64258 0.48438 0.64453h0.80664l0.48242-0.64258 0.48242 0.64258h0.40234v-0.53711l-0.48242-0.64258 0.48242-0.64453v-1.0762l-0.48242-0.64258 0.48242-0.64453v-0.53711h-0.40234l-0.48242 0.64258-0.48242-0.64258h-0.80664l-0.48242 0.64453-0.48242-0.64258 0.001953-0.00195h-0.40625zm1.7715 0.53711 0.48242 0.64453-0.48242 0.64258-0.48242-0.64258 0.48242-0.64453zm-0.88476 1.1816 0.48242 0.64258-0.48438 0.64453-0.48242-0.64258 0.48438-0.64453zm1.7715 0 0.48242 0.64453-0.48242 0.64258-0.48438-0.64258 0.48438-0.64453zm-0.88672 1.1816 0.48242 0.64258-0.48242 0.64453-0.48242-0.64453 0.48242-0.64258z"
         color="#000000"
         color-rendering="auto"
         enable-background="accumulate"
         fill-rule="evenodd"
         image-rendering="auto"
         shape-rendering="auto"
         solid-color="#000000"
         style="block-progression:tb;isolation:auto;mix-blend-mode:normal;text-decoration-color:#000000;text-decoration-line:none;text-decoration-style:solid;text-indent:0;text-transform:none;white-space:normal"
         id="path37" />
    </pattern>
  </defs>
  <metadata
     id="metadata193">
    <rdf:RDF>
      <cc:Work
         rdf:about="">
        <dc:format>image/svg+xml</dc:format>
        <dc:type
           rdf:resource="http://purl.org/dc/dcmitype/StillImage" />
        <dc:title>Bresciane</dc:title>
        <dc:date>2020</dc:date>
        <dc:creator>
          <cc:Agent>
            <dc:title>ZZandro</dc:title>
          </cc:Agent>
        </dc:creator>
        <dc:rights>
          <cc:Agent>
            <dc:title />
          </cc:Agent>
        </dc:rights>
        <cc:license
           rdf:resource="http://creativecommons.org/licenses/by-sa/4.0/" />
      </cc:Work>
      <cc:License
         rdf:about="http://creativecommons.org/licenses/by-sa/4.0/">
        <cc:permits
           rdf:resource="http://creativecommons.org/ns#Reproduction" />
        <cc:permits
           rdf:resource="http://creativecommons.org/ns#Distribution" />
        <cc:requires
           rdf:resource="http://creativecommons.org/ns#Notice" />
        <cc:requires
           rdf:resource="http://creativecommons.org/ns#Attribution" />
        <cc:permits
           rdf:resource="http://creativecommons.org/ns#DerivativeWorks" />
        <cc:requires
           rdf:resource="http://creativecommons.org/ns#ShareAlike" />
      </cc:License>
    </rdf:RDF>
  </metadata>
  <g
     id="g18792"
     style="display:inline"
     transform="translate(-1598.0001,-7.0656861)">
    <g
       transform="matrix(0.97008,0,0,0.9964,632.11,-1740.4)"
       enable-background="new"
       fill="#f4f2ef"
       id="g18580">
      <g
         transform="matrix(0.70046,0,0,1.0004,298.31,-0.79223)"
         fill="#f4f2ef"
         id="g18578">
        <rect
           x="996.13"
           y="1754.4"
           width="223.23"
           height="311.81"
           rx="10.63"
           ry="10.63"
           fill="#f4f2ef"
           stroke="#000000"
           stroke-width="0.99673"
           id="rect18576" />
      </g>
    </g>
    <g
       transform="matrix(0.76704,0,0,0.8945,850.22,-1545.5)"
       enable-background="new"
       fill="none"
       id="g18586">
      <g
         transform="matrix(0.70046,0,0,1.0004,298.31,-0.79223)"
         fill="none"
         id="g18584">
        <rect
           x="996.13"
           y="1754.4"
           width="223.23"
           height="311.81"
           rx="10.63"
           ry="10.63"
           fill="none"
           stroke="#000000"
           stroke-width="0.99673"
           id="rect18582" />
      </g>
    </g>
    <g
       transform="translate(1598,-733.49)"
       id="g18790">
      <path
         d="m 20.189,1006.8 c 1.0341,-1.2954 -0.23907,-4.2512 2.4361,-3.0227 0.23054,-0.4044 0.05453,-1.0676 1.125,-0.9375 -0.20892,-3.4004 2.9451,-2.315 2.5,-0.3125 0.40884,0.8491 -0.24143,1.6686 1.375,1.6875 1.4638,-0.3861 1.181,1.5381 -0.3125,1.9375 l -0.45674,1.419 -3.3558,0.581 -3.3183,-1.3522"
         fill="#287028"
         fill-rule="evenodd"
         stroke="#000000"
         stroke-linecap="round"
         stroke-linejoin="round"
         stroke-width="0.29055"
         id="path18588" />
      <path
         d="m 80.099,1010.2 c 0.24363,-2.2576 0.56495,-4.218 0.5887,-7.1261 -0.03848,-1.7747 0.74403,-2.3573 1.375,-0.6875 0.21657,1.528 0.1879,3.2331 0.57048,4.6412 0.44404,-0.9022 0.62163,0.099 0.8212,1.6715 l -0.57919,2.1873 z"
         fill="#287028"
         fill-rule="evenodd"
         stroke="#000000"
         stroke-linecap="round"
         stroke-linejoin="round"
         stroke-width="0.29055"
         id="path18590" />
      <path
         d="m 83.454,1008.7 c 0.33256,-3.1655 0.22891,-6.3311 3.1001,-9.4966 0.1136,-0.87041 0.45578,-0.64363 0.86179,-0.11049 0.25597,0.62375 0.54494,1.18979 0.57452,2.20969 -0.29447,1.0428 -0.22779,1.6522 0.06629,1.9888 0.77118,0.3743 1.2022,0.2141 1.149,-0.7071 -0.08243,-0.8513 0.15328,-0.7481 0.28726,-0.9502 0.42533,0.099 0.49054,-0.2345 0.70711,-0.3315 0.51695,-0.071 1.1511,0.047 0.53033,1.569 -0.06196,1.2355 -0.12392,1.9668 -0.18588,2.3189 l -0.07929,1.4596 -7.0113,2.0499"
         fill="#287028"
         fill-rule="evenodd"
         stroke="#000000"
         stroke-linecap="round"
         stroke-linejoin="round"
         stroke-width="0.29055"
         id="path18592" />
      <path
         d="m 110.92,996.46 c -2.203,-3.8713 4.3941,-7.5353 3.374,-0.82852 l -0.25148,0.0546 z"
         fill="#287028"
         fill-rule="evenodd"
         stroke="#000000"
         stroke-width="0.29055"
         id="path18594" />
      <path
         d="m 116.03,995.29 c -0.34988,-0.89983 -0.8183,-1.8903 0.77505,-1.3041 -0.0333,-5.8035 1.6551,-4.992 3.8449,-2.2539 0.0828,-2.3198 2.1949,-1.4846 2.0771,-1.0607 -0.87557,-1.7317 0.78832,-1.8229 1.1932,-1.9004 -0.6034,-4.0535 4.1807,-2.1119 2.2981,0.66291 1.5544,-0.39014 2.0819,0.46662 1.9887,2.0771 0.22332,-1.6079 0.71743,-2.8999 2.3423,-2.8726 0.16461,-2.4399 2.3243,-1.2313 1.9887,0.48613 l -0.0442,1.7236 c 1.1459,-0.52715 2.3812,-0.56929 1.3258,1.1049 2.0222,0.081 1.2424,1.4892 1.1684,2.5631 l -3.1571,1.8122 -14.363,0.13258 z"
         fill="#287028"
         fill-rule="evenodd"
         stroke="#000000"
         stroke-width="0.29055"
         id="path18596" />
      <g
         id="g18780">
        <path
           d="m 136.15,994.61 c -39.875,-3.6855 -44.722,20.225 -85.962,22.438 v 18.707 h 85.962 z"
           fill="#e9c13a"
           fill-rule="evenodd"
           stroke="#000000"
           stroke-width="1px"
           id="path18598" />
        <path
           d="m 50.188,1017 30.061,0.8561 0.8683,2.8602 45.133,-1.0913 9.8995,5.0625 -6.0245,0.875 1.5277,10.146 -94.148,-7e-4 c 0.42837,-8.6672 3.9338,-15.365 12.682,-18.707 z"
           fill="#dd1d1d"
           fill-rule="evenodd"
           stroke="#000000"
           stroke-linecap="round"
           stroke-linejoin="round"
           stroke-width="1px"
           id="path18600" />
        <path
           d="m 94.045,1010.1 c -1.1538,2.854 -1.0163,5.7706 -0.6702,8.6246 l 1.075,1.7064 c 1.2284,0.3793 6.2536,-7e-4 10.665,-0.2579 7.1726,3.4032 13.643,2.4298 14.385,2.364 1.5856,-0.093 4.6921,-2.1198 5.3043,-3.8193 -0.38369,-0.5811 -3.5236,-1.1621 -5.3043,-1.7432 -2.3106,-0.4849 -8.4348,-5.0558 -12.815,-7.7585 z"
           fill-rule="evenodd"
           stroke="#000000"
           stroke-width="1px"
           id="path18602" />
        <path
           d="m 113.52,1013.7 -3.3008,3.0598 -2.8105,-1.8633 3.3009,-3.0598 z"
           fill-rule="evenodd"
           stroke="#f4f2ef"
           stroke-linecap="round"
           stroke-linejoin="round"
           stroke-width="1px"
           id="path18604" />
        <path
           d="m 31.5,1011.5 c 16.552,0.088 13.381,3.5504 18.688,5.5625 -4.381,3.9935 -8.8473,6.4785 -12.75,18.922 l -21.225,-0.2144 v -29.364 c 5.0787,1.3646 9.9132,-2.0334 15.287,5.0937 z"
           fill="#e9c13a"
           fill-rule="evenodd"
           stroke="#000000"
           stroke-width="1px"
           id="path18606" />
        <g
           stroke="#000000"
           id="g18636">
          <path
             d="m 82.377,802.65 -11.369,1.8223 9.1426,49.885 24.352,-49.076 -4.3262,-1.123 c -2.7318,1.945 -11.992,4.4757 -17.799,0.0137 v -1.5215 z"
             fill="#e9c13a"
             fill-rule="evenodd"
             stroke-linecap="round"
             stroke-linejoin="round"
             stroke-width="1px"
             id="path18608" />
          <path
             d="m 72.959,815.12 c 0,0 7.124,2.0533 11.327,2.6051 4.203,0.5518 13.802,0.48378 13.802,0.48378"
             fill="none"
             stroke-width="1px"
             id="path18610" />
          <path
             d="m 72.959,817.6 c 0,0 7.124,2.0533 11.327,2.6051 4.203,0.5518 13.802,0.48378 13.802,0.48378"
             fill="none"
             stroke-width="1px"
             id="path18612" />
          <path
             d="m 72.959,820.08 c 0,0 7.124,2.0533 11.327,2.6051 4.203,0.5518 13.802,0.48378 13.802,0.48378"
             fill="none"
             stroke-width="1px"
             id="path18614" />
          <path
             d="m 72.959,822.56 c 0,0 7.124,2.0533 11.327,2.6051 4.203,0.5518 13.802,0.48378 13.802,0.48378"
             fill="none"
             stroke-width="1px"
             id="path18616" />
          <path
             d="m 72.959,825.04 c 0,0 7.124,2.0533 11.327,2.6051 4.203,0.5518 13.802,0.48378 13.802,0.48378"
             fill="none"
             stroke-width="1px"
             id="path18618" />
          <path
             d="m 72.959,827.52 c 0,0 7.124,2.0533 11.327,2.6051 4.203,0.5518 13.802,0.48378 13.802,0.48378"
             fill="none"
             stroke-width="1px"
             id="path18620" />
          <path
             d="m 72.959,830 c 0,0 7.124,2.0533 11.327,2.6051 4.203,0.5518 13.802,0.48378 13.802,0.48378"
             fill="none"
             stroke-width="1px"
             id="path18622" />
          <path
             d="m 72.959,832.48 c 0,0 7.124,2.0533 11.327,2.6051 4.203,0.5518 13.802,0.48378 13.802,0.48378"
             fill="none"
             stroke-width="1px"
             id="path18624" />
          <path
             d="m 72.959,834.96 c 0,0 7.124,2.0533 11.327,2.6051 4.203,0.5518 13.802,0.48378 13.802,0.48378"
             fill="none"
             stroke-width="1px"
             id="path18626" />
          <path
             d="m 72.959,837.44 c 0,0 7.124,2.0533 11.327,2.6051 4.203,0.5518 13.802,0.48378 13.802,0.48378"
             fill="none"
             stroke-width="1px"
             id="path18628" />
          <path
             d="m 99.95,804.1 4.5509,1.1821"
             fill="none"
             stroke-width="1px"
             id="path18630" />
          <path
             d="m 82.377,802.65 c -2.279,0.10777 -3.7772,0.60731 -5.666,0.91016 7.5594,10.889 23.659,6.8621 27.791,1.7226 l -3.5625,-0.92578 c -0.18464,-0.0809 -0.28019,-0.33359 -0.41601,-0.50976 l -0.0703,0.11328 c -2.3496,1.9608 -12.07,4.8276 -18.076,0.21289 v -1.5234 z"
             fill="#e9c13a"
             fill-rule="evenodd"
             stroke-linecap="round"
             stroke-linejoin="round"
             stroke-width="0.99921"
             id="path18632" />
          <path
             d="m 83.228,808.96 2.0404,8.8736 5.5078,-7.373 4.4953,7.7433 -10.003,-0.37032 -9.8387,-2.0372 z"
             fill-rule="evenodd"
             stroke-linecap="round"
             stroke-linejoin="round"
             stroke-width="1px"
             id="path18634" />
        </g>
        <g
           fill-rule="evenodd"
           stroke="#000000"
           stroke-linejoin="round"
           stroke-width="1px"
           id="g18642">
          <path
             d="m 44.765,827.71 5.1751,31.264 14.948,2.4449 -9.9935,-47.453 -2.0668,3.076 c -1.9835,3.6736 -5.1282,7.1536 -8.063,10.669 z"
             fill="#e9c13a"
             id="path18638" />
          <path
             d="m 44.765,827.71 5.1751,31.264 14.948,2.4449 -9.9935,-47.453 -2.0668,3.076 c -1.9835,3.6736 -5.1282,7.1536 -8.063,10.669 z"
             fill="url(#c)"
             id="path18640" />
        </g>
        <path
           d="m 64.332,856.47 -3.2095,-0.23773 c -1.114,-13.79 -4.0217,-27.376 -8.6495,-40.414 0.2723,-1.158 0.8801,-2.1901 2.0934,-2.9952 2.7342,-4.4508 6.2707,-5.9216 9.8103,-7.3805 7.1794,16.465 11.519,34.026 12.836,51.94 z"
           fill="#dd1d1d"
           fill-rule="evenodd"
           stroke="#000000"
           stroke-linecap="round"
           stroke-linejoin="round"
           stroke-width="1px"
           id="path18644" />
        <path
           d="m 30.782,815.85 c 0.07297,-1.2182 0.4649,-2.2237 0.09277,-3.7386 1.5995,0.94993 -1.5878,-1.5362 -6.625,-9.6875 -1.9458,-3.6276 -5.323,-8.0015 -3.2424,-10.39 -0.94919,-2.2521 -0.18411,-3.2185 0.93938,-3.3041 0,0 14.013,10.179 20.178,13.757 0.83062,0.48206 3.2879,-1.5852 3.2879,-1.5852 2.004,-1.3704 1.6825,-2.6977 3.3798,-3.6629 1.6973,-0.96523 4.5295,-2.2818 4.8323,0.31067 -2.1651,2.3062 -4.612,5.7396 -7,8.9375 -1.1718,5.4902 -3.1044,1.2458 -3.2099,10.206 l -12.633,-0.84215"
           fill="#f4f2ef"
           fill-rule="evenodd"
           stroke="#000000"
           stroke-width="0.99921"
           id="path18646" />
        <path
           d="m 54.567,812.82 a 159.13,159.13 0 0 1 9.7655,43.647"
           fill="none"
           stroke="#000000"
           stroke-linecap="round"
           stroke-linejoin="round"
           stroke-width="0.99921"
           id="path18648" />
        <path
           d="m 106.28,805.91 9.1696,5.2331 c -11.64,13.523 -20.469,29.229 -25.972,46.201 l -8.9223,-0.11476 c 4.7233,-18.78 13.504,-36.297 25.725,-51.319 z"
           fill="#dd1d1d"
           stroke="#000000"
           stroke-linecap="round"
           stroke-linejoin="round"
           stroke-width="0.99921"
           id="path18650" />
        <path
           d="m 80.56,857.08 c 4.7233,-18.78 13.34,-35.822 25.561,-50.844 -0.46689,-0.71925 -1.036,-0.87603 -1.6192,-0.95604 -12.282,15.244 -21.084,32.797 -25.789,51.8 z"
           fill="#f4f2ef"
           stroke="#000000"
           stroke-linecap="round"
           stroke-linejoin="round"
           stroke-width="0.99921"
           id="path18652" />
        <g
           fill-rule="evenodd"
           stroke="#000000"
           stroke-width="1px"
           id="g18658">
          <path
             d="m 104.59,825.62 10.049,24.024 -24.644,6.118 z"
             fill="#e9c13a"
             id="path18654" />
          <path
             d="m 104.59,825.62 10.049,24.024 -24.644,6.118 z"
             fill="url(#c)"
             id="path18656" />
        </g>
        <path
           d="m 79.986,969.15 c -0.57873,0.48972 -1.2034,0.92718 -1.8984,1.25 -0.79362,0.3686 -1.623,0.6065 -2.4609,0.71875 -0.83794,0.11226 -1.6854,0.0998 -2.5117,-0.0352 -0.82628,-0.13497 -1.632,-0.39257 -2.3906,-0.76563 -0.75867,-0.37305 -1.4704,-0.86283 -2.1055,-1.4648 -0.4391,0.72503 -0.98098,1.378 -1.6055,1.9375 -0.62449,0.55946 -1.3308,1.0258 -2.0996,1.3828 -0.79362,0.3686 -1.623,0.6065 -2.4609,0.71875 -0.8379,0.11225 -1.6854,0.0998 -2.5117,-0.0352 -0.17892,-0.0292 -0.3408,-0.12546 -0.51758,-0.16602 3.6538,19.395 9.3233,32.00095 6.6016,35.39295 3.221,2.2954 7.1267,2.9934 12.463,0.3536 -1.2948,-22.34905 8.8482,-14.77305 1.5098,-39.23805 0.005,0.016 -0.01646,-0.0638 -0.01172,-0.0488 z"
           fill="#1780ce"
           fill-rule="evenodd"
           stroke="#000000"
           stroke-linecap="round"
           stroke-linejoin="round"
           stroke-width="1px"
           id="path18660" />
        <path
           d="m 79.453,966.46 c -0.53854,0.4346 -1.1,0.846 -1.7344,1.1406 -0.79362,0.3686 -1.6229,0.60844 -2.4609,0.7207 -0.83801,0.11226 -1.6832,0.0978 -2.5098,-0.0371 -0.8266,-0.13495 -1.6352,-0.39066 -2.3945,-0.76367 -0.75937,-0.37302 -1.4711,-0.8629 -2.1074,-1.4648 -0.44159,0.72517 -0.98426,1.376 -1.6094,1.9356 -0.62511,0.5595 -1.3328,1.0277 -2.1016,1.3848 -0.79362,0.3686 -1.623,0.60649 -2.4609,0.71875 -0.83794,0.11225 -1.6835,0.0978 -2.5098,-0.0371 -0.32397,-0.0529 -0.62131,-0.20889 -0.9375,-0.29883 l 0.02734,0.0996 c -0.30351,2.0689 0.6222,2.3344 0.76953,2.8262 0.17678,0.0406 0.33866,0.13679 0.51758,0.16602 0.82629,0.13496 1.6738,0.14735 2.5117,0.0352 0.83794,-0.11225 1.6673,-0.35015 2.4609,-0.71875 0.76877,-0.35706 1.4751,-0.82335 2.0996,-1.3828 0.62449,-0.55947 1.1664,-1.2125 1.6055,-1.9375 0.63508,0.60201 1.3468,1.0918 2.1055,1.4648 0.75867,0.37306 1.5643,0.63066 2.3906,0.76563 0.82629,0.13496 1.6738,0.14736 2.5117,0.0352 0.83794,-0.11225 1.6673,-0.35015 2.4609,-0.71875 0.69506,-0.32282 1.3197,-0.76028 1.8984,-1.25 0.10741,0.33846 -0.08411,-1.0419 -0.52344,-2.623 l -0.0098,-0.0606 z"
           fill="#dd1d1d"
           fill-rule="evenodd"
           stroke="#000000"
           stroke-linecap="round"
           stroke-linejoin="round"
           stroke-width="1px"
           id="path18662" />
        <path
           d="m 78.596,960.58 c -1.3078,0.64796 -2.5902,1.356 -3.9668,1.832 -2.1547,0.74502 -4.3836,1.2745 -6.6543,1.5801 -2.2612,0.30426 -4.541,0.3828 -6.8066,0.23633 -1.4269,-0.0922 -2.8254,-0.4296 -4.2324,-0.69922 0.05799,0.0713 0.01642,0.10185 0.08594,0.17774 l 1.6055,6.0508 c 0.31619,0.0899 0.61353,0.24591 0.9375,0.29883 0.82629,0.13496 1.6718,0.14936 2.5098,0.0371 0.83794,-0.11226 1.6673,-0.35015 2.4609,-0.71875 0.76877,-0.35706 1.4764,-0.82527 2.1016,-1.3848 0.62511,-0.5595 1.1678,-1.2104 1.6094,-1.9356 0.63634,0.60195 1.348,1.0918 2.1074,1.4648 0.75937,0.37301 1.5679,0.62872 2.3945,0.76367 0.8266,0.13495 1.6718,0.14937 2.5098,0.0371 0.83802,-0.11226 1.6673,-0.3521 2.4609,-0.7207 0.63435,-0.29463 1.1958,-0.70603 1.7344,-1.1406 l -0.86914,-5.6973 0.01172,-0.18164 z"
           fill-rule="evenodd"
           stroke="#000000"
           stroke-linecap="round"
           stroke-linejoin="round"
           stroke-width="1px"
           id="path18664" />
        <path
           d="m 78.793,957.49 c -1.4661,0.81809 -2.9301,1.6497 -4.502,2.2246 -2.151,0.7867 -4.3867,1.3412 -6.6699,1.6484 -2.2759,0.30625 -4.5723,0.36375 -6.8477,0.17578 -1.5226,-0.12578 -3.0076,-0.52257 -4.5,-0.86718 0.0442,0.13016 0.07462,0.25447 0.11914,0.38476 0.03077,0.68835 -0.41401,1.3004 0.54297,2.4766 1.407,0.26962 2.8056,0.60698 4.2324,0.69922 2.2657,0.14647 4.5454,0.0679 6.8066,-0.23633 2.2707,-0.30554 4.4996,-0.83505 6.6543,-1.5801 1.3766,-0.476 2.659,-1.1841 3.9668,-1.832 0.33823,-1.0312 0.55872,-2.0625 0.19727,-3.0938 z"
           fill="#dd1d1d"
           fill-rule="evenodd"
           stroke="#000000"
           stroke-linecap="round"
           stroke-linejoin="round"
           stroke-width="1px"
           id="path18666" />
        <path
           d="m 45.166,912.36 c 2.3083,15.548 5.3602,31.393 11.107,48.316 1.4924,0.34462 2.9774,0.7414 4.5,0.86718 2.2753,0.18797 4.5717,0.13047 6.8477,-0.17578 2.2832,-0.30723 4.5189,-0.86174 6.6699,-1.6484 1.5719,-0.57489 3.0358,-1.4065 4.502,-2.2246 l 5.4414,-17.822 v -23.246 z"
           fill="#e9c13a"
           fill-rule="evenodd"
           stroke="#000000"
           stroke-linecap="round"
           stroke-linejoin="round"
           stroke-width="1px"
           id="path18668" />
        <path
           d="m 112.67,970.46 c -0.29179,0.1586 -0.54695,0.37571 -0.85743,0.5 -0.81236,0.32521 -1.6553,0.51715 -2.498,0.58399 -0.84278,0.0668 -1.6861,0.008 -2.5039,-0.17188 -0.81779,-0.17938 -1.6102,-0.47714 -2.3477,-0.89062 -0.73741,-0.41348 -1.4198,-0.9427 -2.0215,-1.5781 -0.4776,0.70027 -1.0532,1.3227 -1.707,1.8477 -0.65379,0.52492 -1.3849,0.95255 -2.1719,1.2676 -0.81237,0.32521 -1.6553,0.5191 -2.498,0.58594 -0.84278,0.0668 -1.6861,0.008 -2.5039,-0.17188 -0.77775,-0.1706 -1.5261,-0.46701 -2.2324,-0.84961 -0.79756,4.0768 -1.3622,6.3026 -1.0352,11.125 1.7866,18.05596 1.8544,2.3819 3.7559,27.39996 3.3314,1.6049 8.981,3.4689 12.641,-0.8848 -0.17852,-11.58196 3.2993,-15.84996 4.9492,-23.77496 0.74872,-6.4357 0.20802,-0.60368 1.0312,-14.988 z"
           fill="#1780ce"
           fill-rule="evenodd"
           stroke="#000000"
           stroke-linecap="round"
           stroke-linejoin="round"
           stroke-width="0.99921"
           id="path18670" />
        <path
           d="m 112.96,967.36 c -0.44587,0.28411 -0.87167,0.60047 -1.3672,0.79883 -0.81237,0.32521 -1.6552,0.5191 -2.498,0.58594 -0.84285,0.0668 -1.6858,0.008 -2.5039,-0.17188 -0.8181,-0.17939 -1.6115,-0.4791 -2.3496,-0.89258 -0.73812,-0.41347 -1.4225,-0.94074 -2.0254,-1.5762 -0.48011,0.70026 -1.0565,1.3208 -1.7109,1.8457 -0.65442,0.52492 -1.3869,0.95255 -2.1738,1.2676 -0.81237,0.32521 -1.6533,0.5191 -2.4961,0.58594 -0.84278,0.0668 -1.6861,0.008 -2.5039,-0.17187 -0.74351,-0.1631 -1.4556,-0.45351 -2.1348,-0.81055 -0.11076,0.82098 -0.55566,1.4336 0.12891,2.7695 0.70628,0.3826 1.4547,0.67901 2.2324,0.84961 0.81779,0.17939 1.6611,0.23871 2.5039,0.17188 0.84278,-0.0668 1.6857,-0.26073 2.498,-0.58594 0.78693,-0.31503 1.5181,-0.74266 2.1719,-1.2676 0.65379,-0.52493 1.2294,-1.1474 1.707,-1.8477 0.60165,0.63543 1.2841,1.1646 2.0215,1.5781 0.73742,0.41348 1.5299,0.71124 2.3477,0.89062 0.81779,0.17939 1.6611,0.23872 2.5039,0.17188 0.84277,-0.0668 1.6857,-0.25878 2.498,-0.58399 0.31048,-0.12429 0.56564,-0.3414 0.85743,-0.5 0.0554,-0.9679 0.20193,-0.5521 0.27148,-1.7285 0.10897,-0.47572 0.005,-0.84218 0.0215,-1.3789 z"
           fill="#dd1d1d"
           fill-rule="evenodd"
           stroke="#000000"
           stroke-linecap="round"
           stroke-linejoin="round"
           stroke-width="0.99921"
           id="path18672" />
        <path
           d="m 113,961.13 c -1.3899,0.60554 -2.7624,1.2613 -4.2168,1.6777 -2.1918,0.62759 -4.4466,1.0363 -6.7305,1.2188 -2.2743,0.18171 -4.5541,0.13775 -6.8086,-0.13086 -1.4334,-0.17077 -2.8252,-0.58535 -4.2285,-0.93554 l 0.33789,4.5586 c -0.11643,0.41236 -0.18191,0.84059 -0.16016,1.2988 0.67915,0.35704 1.3913,0.64745 2.1348,0.81055 0.81779,0.17938 1.6611,0.23871 2.5039,0.17187 0.84278,-0.0668 1.6837,-0.26073 2.4961,-0.58594 0.78693,-0.31502 1.5194,-0.74265 2.1738,-1.2676 0.65441,-0.52493 1.2308,-1.1454 1.7109,-1.8457 0.60291,0.63543 1.2873,1.1627 2.0254,1.5762 0.73813,0.41348 1.5315,0.71319 2.3496,0.89258 0.81811,0.17939 1.6611,0.23872 2.5039,0.17188 0.84285,-0.0668 1.6857,-0.26073 2.498,-0.58594 0.49551,-0.19836 0.92131,-0.51472 1.3672,-0.79883 0,0 0.32499,-2.067 0.33204,-3.1094 0.007,-1.039 -0.28907,-3.1035 -0.28907,-3.1035 0.002,-0.007 -0.002,-0.007 0,-0.0137 z"
           fill-rule="evenodd"
           stroke="#000000"
           stroke-linecap="round"
           stroke-linejoin="round"
           stroke-width="0.99921"
           id="path18674" />
        <path
           d="m 113.21,958.12 c -1.5072,0.73703 -3.0118,1.4877 -4.6113,1.9766 -2.1903,0.6694 -4.4535,1.1017 -6.75,1.2852 -2.2892,0.18289 -4.5838,0.11719 -6.8457,-0.19336 -1.4861,-0.20405 -2.9213,-0.67667 -4.3672,-1.0898 0,0 -0.30718,1.0145 -0.23529,1.5232 0.06899,0.4882 0.62201,1.342 0.62201,1.342 1.4033,0.35019 2.7951,0.76477 4.2285,0.93554 2.2545,0.26861 4.5343,0.31257 6.8086,0.13086 2.2839,-0.18248 4.5387,-0.59116 6.7305,-1.2188 1.4543,-0.41642 2.8269,-1.0722 4.2168,-1.6777 0.39259,-1.5072 0.30237,-2.2664 0.20313,-3.0137 z"
           fill="#dd1d1d"
           fill-rule="evenodd"
           stroke="#000000"
           stroke-linecap="round"
           stroke-linejoin="round"
           stroke-width="0.99921"
           id="path18676" />
        <path
           d="m 115.75,913.92 -28.375,0.0625 -7.9375,2.6875 c 3.2047,25.799 7.798,25.21 11.312,42.688 -0.03453,0.24728 -0.07184,0.49376 -0.11914,0.73437 1.4459,0.41318 2.8811,0.8858 4.3672,1.0898 2.2619,0.31055 4.5565,0.37625 6.8457,0.19336 2.2965,-0.18349 4.5597,-0.61576 6.75,-1.2852 1.5995,-0.48884 3.1042,-1.2395 4.6113,-1.9766 -0.0323,-0.24312 -0.0631,-0.48909 -0.0801,-0.75586 0.875,-14.479 2.8637,-1.6726 2.625,-43.438 z"
           fill="#e9c13a"
           fill-rule="evenodd"
           stroke="#000000"
           stroke-linecap="round"
           stroke-linejoin="round"
           stroke-width="0.99921"
           id="path18678" />
        <path
           d="M 127.61,911.65 A 159.13,159.13 0 0 1 28.167,907.1493"
           fill="none"
           stroke="#e9c13a"
           stroke-linecap="round"
           stroke-linejoin="round"
           stroke-width="0.64488"
           id="path18680" />
        <path
           d="m 41.895,883.86 -13.729,23.295 a 159.13,159.13 0 0 0 99.443,4.5 L 114.91,887.411 Z"
           fill="#dd1d1d"
           stroke="#000000"
           stroke-linecap="round"
           stroke-linejoin="round"
           stroke-width="0.99921"
           id="path18682" />
        <path
           d="M 125.07,906.84 A 153.81,153.81 0 0 1 30.908,902.5067"
           fill="none"
           stroke="#000000"
           stroke-linecap="round"
           stroke-linejoin="round"
           stroke-width="0.99921"
           id="path18684" />
        <path
           d="M 122.6,902 A 148.5,148.5 0 0 1 33.623,897.8463"
           fill="none"
           stroke="#000000"
           stroke-linecap="round"
           stroke-linejoin="round"
           stroke-width="0.99921"
           id="path18686" />
        <path
           d="M 117.48,892.33 A 137.87,137.87 0 0 1 39.165,888.5322"
           fill="none"
           stroke="#000000"
           stroke-linecap="round"
           stroke-linejoin="round"
           stroke-width="0.99921"
           id="path18688" />
        <path
           d="m 114.95,887.47 c -24.198,5.6689 -49.503,4.4203 -73.026,-3.6032 3.222,-5.5906 6.1327,-11.493 8.1823,-18.256 17.762,3.9616 37.978,4.4026 58.34,1.2729 1.3534,6.4978 3.4561,13.317 6.4591,20.521"
           fill="#e9c13a"
           stroke="#000000"
           stroke-linecap="round"
           stroke-linejoin="round"
           stroke-width="0.99921"
           id="path18690" />
        <path
           d="m 117.48,892.33 -1.1715,11.18 -8.1461,-9.2391 -4.5796,11.434 -7.3126,-9.9119 -5.5557,10.993 -6.4238,-10.51 -6.4899,10.469 -5.4864,-11.028 -7.3749,9.8657 -4.5075,-11.463 -8.2041,9.1876 -3.4946,-11.811 -8.9713,8.4401 -0.59707,-11.405"
           fill="none"
           stroke="#000000"
           stroke-linecap="round"
           stroke-linejoin="round"
           id="path18692" />
        <g
           transform="matrix(0.84286,0,0,0.84286,-1818.5,825.55)"
           enable-background="new"
           id="g18700">
          <circle
             cx="2205.7"
             cy="-54.921001"
             r="24.802999"
             id="circle18694" />
          <path
             d="m 2192,-68.419 8.0825,0.2114 5.4756,-5.949 5.5657,5.8647 8.0784,-0.33476 -0.2114,8.0825 5.9489,5.4756 -5.8647,5.5657 0.3348,8.0784 -8.0825,-0.2114 -5.4756,5.949 -5.5657,-5.8647 -8.0784,0.33476 0.2114,-8.0825 -5.9489,-5.4756 5.8646,-5.5657 z"
             fill="none"
             stroke="#dd1d1d"
             stroke-linejoin="round"
             stroke-width="3.3631"
             id="path18696" />
          <circle
             cx="2205.7"
             cy="-54.921001"
             fill="none"
             stroke="#f4f2ef"
             stroke-linejoin="round"
             stroke-width="2.102"
             id="ellipse18698"
             r="23.031" />
        </g>
        <path
           d="m 57.356,867.01 c -1.5158,6.6771 -2.4386,13.473 -5.0235,19.936"
           fill="none"
           stroke="#000000"
           stroke-width="1px"
           id="path18702" />
        <path
           d="m 64.62,868.01 c -1.0541,6.9631 -1.4641,14.034 -3.8114,20.781"
           fill="none"
           stroke="#000000"
           stroke-width="1px"
           id="path18704" />
        <path
           d="m 71.884,868.64 c -0.70139,7.1893 -0.53315,14.668 -2.4966,21.437"
           fill="none"
           stroke="#000000"
           stroke-width="1px"
           id="path18706" />
        <path
           d="m 79.136,868.92 c -0.27085,7.3494 0.21427,15.152 -1.1053,21.872"
           fill="none"
           stroke="#000000"
           stroke-width="1px"
           id="path18708" />
        <path
           d="m 86.373,868.89 0.33006,22.064"
           fill="none"
           stroke="#000000"
           stroke-width="1px"
           id="path18710" />
        <path
           d="m 93.595,868.54 c 0.46671,7.3573 0.2494,14.851 1.7726,21.997"
           fill="none"
           stroke="#000000"
           stroke-width="1px"
           id="path18712" />
        <path
           d="m 100.8,867.89 c 0.77957,7.1811 0.88247,14.266 3.1824,21.664"
           fill="none"
           stroke="#000000"
           stroke-width="1px"
           id="path18714" />
        <path
           d="m 108.45,867.02 c -20.362,2.9217 -40.578,2.51 -58.34,-1.1883 -0.41789,-3.9514 0.02125,-8.2584 -1.3455,-11.816 17.762,3.6982 37.978,4.11 58.34,1.1883 l 1.3455,11.816"
           fill="#dd1d1d"
           stroke="#000000"
           stroke-linecap="round"
           stroke-linejoin="round"
           stroke-width="0.99921"
           id="path18716" />
        <path
           d="m 49.644,857.92 c 17.762,3.6982 37.978,4.11 58.34,1.1883"
           fill="none"
           stroke="#000000"
           stroke-linecap="round"
           stroke-linejoin="round"
           stroke-width="0.99921"
           id="path18718" />
        <path
           d="m 49.871,861.54 c 17.762,3.6982 37.978,4.11 58.34,1.1883"
           fill="none"
           stroke="#000000"
           stroke-linecap="round"
           stroke-linejoin="round"
           stroke-width="0.99921"
           id="path18720" />
        <path
           d="m 29.75,823.11 c -5.9998,21.333 -7.5647,41.083 5,44.25 0.73174,0.18441 1.4267,0.21247 2.1719,0.0937 0.49719,-0.0792 0.98888,-0.27395 1.4531,-0.46875 3.1304,-1.3135 7.9882,-5.447 11.195,-9.6669 -3.841,-29.783 -4.3234,-26.897 -5.7578,-33.271 z"
           fill="#1780ce"
           fill-rule="evenodd"
           stroke="#000000"
           stroke-width="1px"
           id="path18722" />
        <path
           d="m 99.349,850.31 c 2.7854,5.7999 3.3426,11.377 1.4142,16.705 0,0 17.561,0.11564 25.862,-2.3371 0.42898,-0.12675 0.83839,-0.34534 1.1875,-0.625 0.4268,-0.34189 0.77355,-0.78572 1.0625,-1.25 0.35992,-0.5783 0.59507,-1.2295 0.8125,-1.875 8.9927,-26.698 -11.304,-51.577 -11.818,-49.305 -5.8772,5.9204 -10.507,12.581 -14.409,20.455 1.5862,5.1163 3.496,10.632 5.7161,13.846 -3.7316,0.86455 -7.1678,2.6827 -9.8283,4.3862 z"
           fill="#1780ce"
           fill-rule="evenodd"
           stroke="#000000"
           stroke-width="1px"
           id="path18724" />
        <path
           d="m 109.18,845.92 c 1.4007,-0.24693 2.7227,-0.52249 5.9048,-0.12163"
           fill="none"
           stroke="#000000"
           stroke-linecap="round"
           stroke-linejoin="round"
           stroke-width="0.99921"
           id="path18726" />
        <g
           transform="matrix(0.94186,-0.3161,0.31381,0.94873,-314.11,101.62)"
           stroke="#000000"
           id="g18736">
          <path
             d="m 193.83,826.44 c -8.6231,-0.6397 -17.133,-0.65661 -25.52,10e-6 -0.33665,0.67545 -0.33,1.3938 0,2.1526 l -1e-5,8.872 c -0.23793,0.70641 -0.41791,1.4201 0,2.2085 8.9389,-0.55563 17.406,-0.50453 25.52,-10e-6 0.26043,-0.63409 0.62318,-1.231 0,-2.1864 l 1e-5,-8.9162 c 0.19365,-0.66714 0.5228,-1.3042 0,-2.1305 z"
             fill="#e9c13a"
             fill-rule="evenodd"
             stroke-linecap="round"
             stroke-linejoin="round"
             stroke-width="1.0029"
             id="path18728" />
          <path
             d="m 168.31,828.59 c 8.3916,-0.63325 16.893,-0.66297 25.52,0"
             fill="none"
             stroke-width="1.0036px"
             id="path18730" />
          <path
             d="m 168.31,837.48 c 8.4492,-0.57568 16.953,-0.6027 25.52,0"
             fill="none"
             stroke-width="1.0036px"
             id="path18732" />
          <path
             d="m 168.31,837.48 3.6458,-9.1195 3.6458,8.7613 3.6458,-9.0004 3.6458,8.9247 3.6458,-8.8475 3.6458,9.0625 3.6458,-8.6641"
             fill="none"
             stroke-linecap="round"
             stroke-linejoin="round"
             stroke-width="1.0036px"
             id="path18734" />
        </g>
        <path
           d="m 77.193,857.11 c -1.3165,-17.914 -5.6364,-35.204 -12.816,-51.669 0.92895,-0.85971 1.9488,-0.81095 3.0021,-0.42693 7.2498,16.494 11.646,34.1 13,52.066 z"
           fill="#dd1d1d"
           stroke="#000000"
           stroke-linecap="round"
           stroke-linejoin="round"
           stroke-width="0.99921"
           id="path18738" />
        <path
           d="m 67.379,805.02 c 1.1167,0.37675 2.346,0.0775 3.6288,-0.54278 7.2729,16.816 11.659,34.333 12.961,52.609 h -3.5894 c -1.3546,-17.966 -5.7506,-35.572 -13,-52.066 z"
           fill="#f4f2ef"
           stroke="#000000"
           stroke-linecap="round"
           stroke-linejoin="round"
           stroke-width="0.99921"
           id="path18740" />
        <path
           d="m 89.559,856.82 c 5.503,-16.972 14.245,-32.158 25.885,-45.68 0.97829,-0.0672 1.7998,0.0745 2.4247,0.47855 -11.342,13.302 -19.978,28.591 -25.425,45.202 h -2.8852"
           fill="#dd1d1d"
           stroke="#000000"
           stroke-linecap="round"
           stroke-linejoin="round"
           stroke-width="0.99921"
           id="path18742" />
        <path
           d="m 106.12,806.24 4.4786,10.845 -11.677,-1.1488 5.3248,10.105 -11.402,-0.17791 6.0205,9.2307 -10.949,0.66815 6.5443,8.2771 -10.383,1.3628 6.895,7.2987"
           fill="none"
           stroke="#000000"
           stroke-linecap="round"
           stroke-linejoin="round"
           id="path18744" />
        <path
           d="m 59.483,807.81 6.1068,0.49209 -9.1621,9.7223 13.172,1.0798 -10.186,8.7838 13.229,1.5944 -11.023,7.768 13.241,2.0634 -11.703,6.7278 13.023,2.5155 -12.043,5.6705 13.207,2.8744"
           fill="none"
           stroke="#000000"
           stroke-linecap="round"
           stroke-linejoin="round"
           stroke-width="1px"
           id="path18746" />
        <path
           d="m 93.179,853.47 c -2.4068,0.30074 -4.5625,-2.3078 -6.0278,-2.7704 -2.4486,-0.34669 -4.8161,-1.0512 -5.7658,-1.1588 -1.6728,-0.18959 -6.3964,0.0974 -6.4394,1.0758 0.91324,2.9991 5.0109,1.6486 5.0015,1.6298 1.4437,1.2505 2.578,1.3504 4.0217,1.6352 0.21842,0.26476 -4.7456,1.1872 -8.9689,-0.55521 -1.8091,-0.74637 -4.1524,-1.2701 -6.125,-1.9062 -0.21811,-0.0703 -0.48545,-0.10813 -0.6875,0 -0.26491,0.14178 -0.44446,0.45471 -0.5,0.75 -0.09402,0.49991 0.11018,1.0305 0.32733,1.4905 0.11197,0.23718 0.48614,0.61872 0.48614,0.61872 0,0 -0.36391,-0.11461 -0.55243,-0.13258 -0.16148,-0.0154 -0.35133,-0.0681 -0.48614,0.0221 -0.10133,0.0678 -0.12671,0.21279 -0.15468,0.33146 -0.06423,0.27253 -0.05561,0.56171 -0.0221,0.83969 0.03015,0.25013 0.06977,0.51285 0.19887,0.7292 0.32838,0.55029 1.3921,1.3258 1.3921,1.3258 0,0 -0.32938,-0.0411 -0.48614,0 -0.1308,0.0343 -0.27637,0.0879 -0.35355,0.19887 -0.08088,0.11633 -0.06525,0.27817 -0.06629,0.41985 -0.0015,0.20833 -0.01633,0.43862 0.08839,0.61872 0.93687,1.6112 4.4194,3.425 4.4194,3.425 0,0 -0.42476,-0.0345 -0.57452,0.0884 -0.13328,0.1094 -0.20334,0.13291 -0.22476,0.304 -0.09505,0.30554 0.21695,0.58897 0.39774,0.72273 2.6348,1.9493 4.9599,3.6485 7.9587,3.6578 5.0545,0.0158 7.4509,-0.0557 11.225,-0.97226 1.3543,-0.51266 2.4605,-1.396 3.5206,-1.685 1.5916,-2.8656 0.92302,-8.9283 -1.6029,-10.703 z"
           fill="#f4f2ef"
           fill-rule="evenodd"
           stroke="#000000"
           stroke-linecap="round"
           stroke-linejoin="round"
           stroke-width="0.99921"
           id="path18748" />
        <path
           d="m 68.501,854.28 c 3.7361,2.2285 5.8042,2.6222 8.7063,3.9333"
           fill="none"
           stroke="#000000"
           stroke-linecap="round"
           stroke-linejoin="round"
           stroke-width="0.64488"
           id="path18750" />
        <path
           d="m 99.349,850.31 -6.5985,2.3058 c 2.3839,4.4922 2.4039,9.0501 1.8125,13.625 l 6.2002,0.77463 c 1.9048,-5.6109 1.3474,-11.178 -1.4142,-16.705"
           fill="#f4f2ef"
           fill-rule="evenodd"
           stroke="#000000"
           stroke-linecap="round"
           stroke-linejoin="round"
           stroke-width="1px"
           id="path18752" />
        <path
           d="m 68.877,857.4 c 3.5197,2.7102 5.2177,2.8396 7.8265,4.2595"
           fill="none"
           stroke="#000000"
           stroke-linecap="round"
           stroke-linejoin="round"
           stroke-width="0.64488"
           id="path18754" />
        <path
           d="m 96.049,851.46 c 2.4872,4.8982 2.517,10.022 1.6134,15.165"
           fill="none"
           stroke="#000000"
           stroke-width="1px"
           id="path18756" />
        <path
           d="m 72.478,862.06 c 1.9692,1.1896 2.6597,1.4203 3.9775,2.1213"
           fill="none"
           stroke="#000000"
           stroke-linecap="round"
           stroke-linejoin="round"
           stroke-width="0.64488"
           id="path18758" />
        <path
           d="m 29.75,823.11 14.063,0.93745 c 0.95061,-1.7936 0.47591,-2.922 0.23326,-4.1587 l -13.708,-0.91381 c -0.85791,1.3048 -1.2257,2.6641 -0.58782,4.1351 z"
           fill="#f4f2ef"
           fill-rule="evenodd"
           stroke="#000000"
           stroke-width="1px"
           id="path18760" />
        <path
           d="m 30.338,818.98 13.708,0.91381 c 0.46229,-0.9724 1.0069,-1.9294 0.17635,-3.1442 l -13.44,-0.89594 c -0.71272,1.0824 -0.89811,2.1272 -0.44442,3.1263 z"
           fill="#f4f2ef"
           fill-rule="evenodd"
           stroke="#000000"
           stroke-width="1px"
           id="path18762" />
        <path
           d="m 21.008,792.03 c 2.1437,4.362 3.6082,6.2811 4.9497,7.6898"
           fill="#f4f2ef"
           fill-rule="evenodd"
           stroke="#000000"
           stroke-linecap="round"
           stroke-linejoin="round"
           stroke-width="0.64488"
           id="path18764" />
        <path
           d="m 21.965,788.7 c 3.7148,6.2966 5.2308,7.096 7.6898,10.253"
           fill="#f4f2ef"
           fill-rule="evenodd"
           stroke="#000000"
           stroke-linecap="round"
           stroke-linejoin="round"
           stroke-width="0.64488"
           id="path18766" />
        <path
           d="m 44.506,810.43 c -0.48088,0.76757 -1.7859,1.1076 -3.3493,1.277"
           fill="#f4f2ef"
           fill-rule="evenodd"
           stroke="#000000"
           stroke-linecap="round"
           stroke-linejoin="round"
           stroke-width="0.64488"
           id="path18768" />
        <ellipse
           transform="rotate(-4.5359)"
           cx="25.490999"
           cy="979.92999"
           rx="2.5625"
           ry="3.9375"
           fill="#dd1d1d"
           stroke="#000000"
           stroke-linecap="round"
           stroke-linejoin="round"
           stroke-width="0.64488"
           id="ellipse18770" />
        <path
           d="m 46.149,1016.2 c -0.66032,2.7815 0.50948,2.5092 6.4135,3.4192 6.6799,-0.041 10.703,0 17.967,-1.9832 0,0 0.38842,1.3422 0.9608,1.4971 4.4832,1.2135 7.7112,-0.3094 7.3996,-0.3094 l -0.40131,-10.384 -12.463,-0.3536 c -14.743,9.8326 -11.694,6.9257 -19.877,8.1134 z"
           fill-rule="evenodd"
           stroke="#000000"
           stroke-width="1px"
           id="path18772" />
        <path
           d="m 62.12,1015 2.6511,-1.7945 -3.5181,-2.1022 -2.651,1.7945 z"
           fill-rule="evenodd"
           stroke="#f4f2ef"
           stroke-linecap="round"
           stroke-linejoin="round"
           stroke-width="1px"
           id="path18774" />
        <ellipse
           transform="rotate(-7.613)"
           cx="-60.341"
           cy="975.33002"
           rx="2.5625"
           ry="3.9375"
           fill="#dd1d1d"
           stroke="#000000"
           stroke-linecap="round"
           stroke-linejoin="round"
           stroke-width="0.64488"
           id="ellipse18776" />
        <path
           d="m 7.6259,740.96 c -3.9978,0 -7.2148,4.7281 -7.2148,10.602 v 289.79 c 0,5.8734 3.2171,10.602 7.2148,10.602 h 137.11 c 3.9978,0 7.2168,-4.7282 7.2168,-10.602 v -289.79 c 0,-5.8735 -3.219,-10.602 -7.2168,-10.602 z m 14.369,15.879 h 108.37 c 3.1599,0 5.7031,4.2459 5.7031,9.5195 v 260.19 c 0,5.2737 -2.5432,9.5195 -5.7031,9.5195 h -108.37 c -3.1599,0 -5.7051,-4.2458 -5.7051,-9.5195 v -260.19 c 0,-5.2736 2.5452,-9.5195 5.7051,-9.5195 z"
           fill="#f4f2ef"
           fill-rule="evenodd"
           stroke="#000000"
           stroke-width="0.82205"
           id="path18778" />
      </g>
      <path
         d="m 107.85,791.59 c -0.48206,0.0211 -0.95335,0.18523 -1.4043,0.33984 -0.4164,0.14945 -0.83032,0.17809 -1.2637,0.15039 -0.2503,-0.0158 -1.413,0.19914 -0.77343,0.58985 0.20843,0.129 0.53998,0.0726 0.77343,0.0723 0.71186,-10e-4 2.5992,-0.24356 2.668,-1.1523 z m 0.90821,-2.7266 c -0.8517,0.30992 -1.6428,0.74997 -2.5449,0.92383 -0.36027,0.0694 -0.75626,0.11036 -0.78906,0.53125 1.0015,0 1.6488,-0.31006 2.5469,-0.69336 0.34835,-0.14878 0.86121,-0.2975 0.78711,-0.76172 z m 1.1543,-0.67188 c -0.28143,0.0407 -0.28653,0.47177 -0.36523,0.67188 -0.15154,0.38466 -0.52353,0.80469 -0.84961,1.0527 -1.3579,1.0334 -3.1156,0.79034 -4.666,1.082 -0.27559,0.0519 -0.49251,0.46085 -0.16406,0.61719 0.45344,0.21699 1.2182,-0.0346 1.6797,-0.11719 1.5601,-0.27575 2.8968,-0.45565 4.0469,-1.6387 0.27982,-0.28774 0.53157,-0.83628 0.57618,-1.2383 0.0172,-0.15527 -0.0392,-0.46079 -0.25782,-0.42969 z m -33.678,-2.3301 c -0.06652,-0.01 -0.13014,-0.007 -0.18555,0.0137 -0.40489,0.15532 0.16006,0.81544 0.31055,0.95117 0.47462,0.4288 1.9055,1.433 2.5762,1.1367 0.42415,-0.18743 0.11534,-0.66264 -0.13086,-0.86328 -0.56734,-0.46265 -1.3048,-0.76845 -1.9863,-1.0156 -0.15287,-0.0561 -0.38442,-0.19336 -0.58398,-0.22266 z m -0.60742,-2.209 c -0.36269,0.0524 -0.6114,0.52417 -0.30469,0.81641 0.49111,0.46815 1.2794,0.52922 1.8594,0.81836 0.43618,0.21739 0.87233,0.63867 1.3926,0.63867 0.60529,-0.007 0.09757,-0.72498 -0.12109,-0.88477 -0.73668,-0.53997 -1.7528,-1.1967 -2.666,-1.3848 -0.05519,-0.011 -0.10835,-0.0109 -0.16016,-0.004 z m 36.949,-0.0625 c -0.76211,0.0242 -0.87551,0.78524 -1.207,1.334 -0.36317,0.60092 -0.95348,1.177 -1.5195,1.5898 -1.2818,0.93492 -2.5813,1.9404 -4.1816,2.2402 -0.49664,0.0924 -0.95544,0.1048 -1.4551,0.0586 -0.16201,-0.0154 -0.42306,-0.0459 -0.50976,0.13086 -0.24232,0.49613 0.29029,0.58578 0.63086,0.58593 0.79053,3.2e-4 1.6015,-0.13359 2.3633,-0.35742 1.8877,-0.55456 3.546,-1.7311 4.7188,-3.2793 0.53484,-0.70614 1.0684,-1.3783 1.1602,-2.3027 z m -35.9,-1.4277 c -0.04681,-0.007 -0.0943,-0.004 -0.14062,0.0137 -0.32039,0.1249 -0.17428,0.73237 0.002,0.90625 0.28007,0.27625 1.5978,0.82018 1.9688,0.625 0.26957,-0.14186 0.19519,-0.52458 -0.0039,-0.68946 -0.36951,-0.3058 -1.0179,-0.38263 -1.4414,-0.65234 -0.10764,-0.0692 -0.24433,-0.18142 -0.38477,-0.20312 z m -0.14062,-1.4922 c -0.31837,0.0849 -0.01634,0.54629 0.10547,0.65625 0.40842,0.36967 1.6909,1.3125 2.2793,1.0059 0.2952,-0.15373 -0.08029,-0.51248 -0.22461,-0.61914 -0.46686,-0.34561 -1.0713,-0.49757 -1.5742,-0.79102 -0.1508,-0.0888 -0.3971,-0.30205 -0.58594,-0.25195 z m 30.404,-0.0273 c -0.35955,0.0279 -1.0026,0.53422 -1.252,0.79102 -0.2232,0.22989 -0.0779,0.49657 0.22266,0.51367 0.42,0.0126 0.90329,-0.32823 1.1289,-0.66015 0.14139,-0.2079 0.33903,-0.67884 -0.0996,-0.64454 z m -1.2754,-0.70507 c -0.49711,-0.0519 -0.81049,0.60972 -0.17774,0.66992 0.45608,0.0438 0.66067,-0.61982 0.17774,-0.66992 z m 3.0957,-0.30274 c -0.58525,0.1347 -0.48152,1.2338 -0.70899,1.6524 -0.29544,0.54388 -0.72553,1.1739 -1.2324,1.5371 -0.34934,0.25013 -1.0263,0.37068 -1.2695,0.73438 -0.21916,0.32762 0.1446,0.52932 0.42188,0.51172 1.1757,-0.0459 1.9507,-1.2297 2.4688,-2.1172 0.16055,-0.27504 0.40107,-0.48579 0.51757,-0.78711 0.10029,-0.2596 0.48045,-1.6875 -0.19726,-1.5312 z m -32.104,-0.26562 c -0.04511,-0.003 -0.08551,0.003 -0.12109,0.0176 -0.21192,0.0876 -0.08798,0.36829 0.01563,0.49024 0.17116,0.20002 0.75572,0.63662 1.0371,0.52148 0.16971,-0.0699 0.13886,-0.29338 0.04297,-0.41015 -0.14829,-0.18023 -0.65883,-0.59614 -0.97461,-0.61914 z m 33.928,-1.0078 c -0.32286,0.0174 -0.25646,0.58639 -0.28516,0.80274 -0.11351,0.8648 -0.25246,1.6838 -0.625,2.4863 -0.60539,1.3041 -1.8427,3.0379 -3.1582,3.6973 -0.37272,0.18726 -0.91803,0.31818 -1.334,0.30078 -0.2052,-3.7e-4 -0.57691,-0.15466 -0.75,0 -0.29679,0.26456 0.12265,0.71552 0.38672,0.76172 0.61286,0.10913 1.2531,-0.11602 1.8184,-0.33984 1.8368,-0.72771 3.2953,-2.7665 3.8945,-4.5938 0.24965,-0.76141 0.46675,-1.5576 0.46875,-2.3652 2.8e-4,-0.27847 -0.004,-0.76448 -0.41601,-0.74218 v -0.008 z m 1.6894,-1.5527 c -0.2123,0.67451 -0.18693,1.3706 -0.33398,2.0606 -0.52791,2.4751 -1.3712,5.7038 -3.7266,7.0664 -0.8851,0.51215 -1.6422,1.1189 -2.666,1.3418 -0.38104,0.0842 -0.71969,-10e-4 -1.0918,0.0312 -0.24303,0.0215 -0.39623,0.23118 -0.33203,0.4707 0.13872,0.51811 0.80244,0.30274 1.1816,0.30274 0.88437,-0.0148 1.5001,-0.39602 2.2422,-0.80078 0.35958,-0.19623 0.77866,-0.32338 1.084,-0.60352 2.1916,-2.0113 3.4437,-4.2438 3.834,-7.2012 0.1214,-0.91948 0.3372,-1.7481 0.0508,-2.666 v -0.002 h -0.24219 z m -36.275,-0.0411 c -0.04259,-0.005 -0.08499,2.4e-4 -0.12891,0.0195 -0.45773,0.20208 0.10973,0.97094 0.25781,1.1738 0.58867,0.80642 1.4536,1.2676 2.207,1.8887 0.23,0.18966 0.68062,0.63342 1.0117,0.41406 0.3828,-0.25378 -0.16556,-0.63769 -0.3457,-0.78711 -0.79649,-0.65772 -1.6214,-1.1173 -2.2949,-1.9414 -0.14859,-0.18187 -0.40895,-0.73554 -0.70703,-0.76754 z m 0.05078,-1.9726 c -0.41992,0.12474 0.04573,1.1362 0.14453,1.3496 0.3817,0.82478 1.5212,1.6358 2.2676,2.1289 0.234,0.1546 0.63767,0.52324 0.94531,0.37891 0.40897,-0.19189 -0.12297,-0.65021 -0.28516,-0.77734 -0.81776,-0.64326 -1.7374,-1.2823 -2.3945,-2.0957 -0.15478,-0.19157 -0.37482,-1.0736 -0.67774,-0.98437 z m 35.742,-0.86328 c -0.36602,0.0769 -0.76056,1.2784 -0.95508,1.6055 -0.5256,0.88393 -1.6049,1.9244 -2.623,2.209 -1.7566,0.49067 -3.5545,0.11501 -4.8105,-1.2285 -0.44022,-0.47083 -0.69127,-0.95179 -1.0781,-1.4629 -0.12081,-0.15888 -0.34226,-0.39845 -0.5625,-0.24218 -0.22544,0.16083 -0.15379,0.57677 -0.0586,0.78515 0.26551,0.58257 0.83473,1.3655 1.2949,1.8086 1.3763,1.3262 2.7817,1.5248 4.6094,1.2832 0.36633,-0.0482 0.73262,-1.4e-4 1.0898,-0.11524 1.4156,-0.45593 2.3557,-1.6579 3.0508,-2.916 0.23447,-0.42432 0.42524,-0.77045 0.40234,-1.2715 -0.01,-0.21505 -0.0747,-0.51477 -0.35937,-0.45507 z m -35.016,-0.4336 c -0.03678,-10e-4 -0.07685,0.005 -0.11914,0.0215 -0.33252,0.12594 0.0032,0.84532 0.08398,1.0488 0.28618,0.72207 0.98576,1.4937 1.5938,1.9629 0.16942,0.13079 0.52787,0.49421 0.76758,0.38086 0.29357,-0.13852 -0.11186,-0.58051 -0.22852,-0.69727 -0.66601,-0.66202 -1.1587,-1.3028 -1.6113,-2.1309 -0.10022,-0.1835 -0.22886,-0.57694 -0.48633,-0.58594 z m 26.098,-1.3379 c -0.12052,-0.0115 -0.24095,-0.01 -0.35742,0.008 -0.24992,0.0376 -0.56477,0.34291 -0.36133,0.60546 0.17941,0.23155 0.87482,0.30274 1.1504,0.44532 0.69254,0.3566 1.0415,0.79948 1.4238,1.457 0.0985,0.17603 0.32065,0.22758 0.50586,0.17578 0.48406,-0.13589 -0.033,-1.0372 -0.18555,-1.2539 -0.42824,-0.60817 -1.3321,-1.3545 -2.1758,-1.4375 z m -25.441,-0.082 c -0.0517,-9e-4 -0.10834,0.0122 -0.16992,0.041 -0.36,0.16871 0.12316,1.2411 0.25391,1.4785 0.6237,1.1325 1.4762,2.181 2.4551,3.0312 0.23971,0.20822 0.77165,0.79722 1.1328,0.62891 0.4765,-0.22249 -0.24426,-0.9954 -0.41211,-1.1758 -0.95396,-1.0258 -2.0254,-1.788 -2.6445,-3.0898 -0.11811,-0.24834 -0.25334,-0.90806 -0.61523,-0.91406 z m 27.518,-0.31641 c -0.10109,-0.003 -0.20007,0.0133 -0.29297,0.0547 -0.18278,0.0814 -0.10997,0.29223 0,0.40039 0.66958,0.65645 1.2374,0.99598 1.5234,1.9238 0.0475,0.15469 0.1718,0.25539 0.33398,0.17969 0.35691,-0.16719 0.26061,-0.72987 0.16211,-1.0254 -0.16907,-0.50719 -1.0189,-1.5118 -1.7266,-1.5332 z m 5.5059,-0.64843 c -0.34481,1.8573 -0.25929,3.6927 -2.1816,4.7324 -0.68893,0.37262 -1.5498,0.38629 -2.3027,0.24023 -0.34987,-0.0675 -0.8221,-0.3483 -1.0215,0.125 -0.33683,0.7999 1.3032,0.96289 1.8086,0.96289 1.3963,0.0165 2.7459,-0.82151 3.5371,-1.9394 0.64915,-0.91754 0.85389,-1.9942 0.72265,-3.0918 -0.0506,-0.42242 -0.0408,-0.94169 -0.5625,-1.0293 z m -32.305,-1.6934 c -0.06809,-0.0121 -0.14579,-0.003 -0.23242,0.0332 -0.4037,0.16871 -0.21467,1.2224 -0.10352,1.5391 0.42722,1.217 1.0484,2.538 1.9746,3.4531 0.19908,0.19691 0.81239,0.82852 1.1328,0.66016 0.41239,-0.21699 0.02477,-0.81929 -0.16602,-1.0234 -1.1604,-1.242 -2.0117,-2.4741 -2.25,-4.1816 -0.03099,-0.22266 -0.15121,-0.44427 -0.35547,-0.48047 z m 0.85742,-0.85742 c -0.24411,0.037 -0.19438,0.44336 0.05078,0.44336 0.29181,-0.008 0.21723,-0.48476 -0.05078,-0.44336 z m 5.3789,-0.61914 c -0.14722,-0.008 -0.30538,0.004 -0.47656,0.041 -0.71212,0.15389 -1.3632,0.88067 -1.7832,1.4316 -0.14568,0.191 -0.49157,0.73469 -0.03125,0.80469 0.87964,0.13661 1.2737,-1.741 2.3594,-1.2988 0.75743,0.30842 0.14073,1.1999 0.08008,1.707 -0.02844,0.23793 0.12219,0.56919 0.40625,0.52149 0.46182,-0.0795 0.48364,-0.71669 0.59375,-1.0684 0.31617,-1.0091 -0.11793,-2.084 -1.1484,-2.1387 z m -0.41602,-1.6582 c -0.70558,0.0312 -1.2404,0.60212 -1.7246,1.041 -0.29055,0.26341 -0.64579,0.42367 -0.91992,0.7207 -0.51062,0.55352 -0.91798,1.3512 -1.2207,2.0352 -0.31212,0.7051 0.07362,1.9732 1.0156,1.9062 0.67061,-0.0472 1.5117,-0.27624 2.0605,-0.67188 0.24939,-0.17987 0.66695,-0.70308 0.17578,-0.89258 -0.68286,-0.26333 -1.8433,1.447 -2.459,0.37891 -0.20503,-0.35564 0.05362,-0.74777 0.16992,-1.084 0.49287,-1.426 1.8844,-1.8453 2.9512,-2.6484 0.273,-0.20551 0.48687,-0.80906 -0.04883,-0.78516 z m 9.6973,-0.83008 c -0.32198,0 -0.25118,0.60071 -0.27734,0.8086 -0.1057,0.84266 0.20543,1.8122 0.60742,2.5469 0.88427,1.6159 2.0742,2.7716 3.8516,3.3223 0.50164,0.15555 1.0628,0.12998 1.5762,0.25195 0.39844,-0.30155 1.2594,-0.23553 1.7578,-0.4082 1.8486,-0.64113 3.4157,-1.6654 5.3926,-0.58203 0.52913,0.29019 0.89082,1.0272 1.1797,1.5371 0.12168,0.21475 0.16114,0.54016 0.40235,0.66211 0.32288,0.16321 0.96799,-0.16054 1.3281,-0.17774 -0.0361,-0.77401 -0.7019,-0.29931 -1.0039,-0.84961 -0.31127,-0.56706 -0.38653,-1.2584 -0.9375,-1.6777 -1.0146,-0.77201 -2.933,-1.2344 -4.1797,-0.82031 -1.9608,0.65125 -4.1033,2.2482 -6.1816,0.95898 -1.3773,-0.85437 -2.4175,-2.2494 -2.8809,-3.793 -0.11254,-0.37501 -0.0088,-1.7793 -0.63477,-1.7793 z m -9.668,-0.62695 c -0.19329,0.0163 -0.3861,0.0627 -0.57422,0.11328 -1.3849,0.36975 -2.1755,1.2776 -3.0918,2.293 -0.42255,0.46812 -0.93918,1.2127 -0.24219,1.6367 0.50019,-0.66903 0.90034,-1.3597 1.5156,-1.9356 0.53654,-0.50219 1.1656,-1.0156 1.8789,-1.248 0.37292,-0.12147 1.0231,0.0545 1.3066,-0.23633 0.2228,-0.22852 0.02915,-0.47455 -0.2168,-0.56055 -0.18994,-0.0655 -0.38288,-0.0788 -0.57617,-0.0625 z m 2.3398,-0.31055 c -0.21189,0.0228 -0.1855,0.32518 -0.1875,0.47461 -0.0053,0.46558 -0.10439,0.92673 -0.05078,1.3945 0.01902,0.16547 0.07249,0.42189 0.29297,0.39649 0.39055,-0.0448 0.18854,-1.5281 0.18164,-1.8516 -0.0029,-0.15087 -0.01016,-0.43797 -0.23633,-0.41407 z m 16.41,-0.20117 c -0.22039,-0.014 -0.42381,-0.006 -0.5957,0.0312 v -0.002 c -0.3741,0.0801 -0.52168,0.70872 -0.16992,0.91406 0.37065,0.21689 0.8112,0.0244 1.1992,0.0234 0.55051,-0.002 1.2925,0.55082 1.8105,0.33984 0.65309,-0.26591 0.0304,-0.72032 -0.29687,-0.8457 -0.48356,-0.18593 -1.2861,-0.41904 -1.9473,-0.46094 z m -17.871,-0.81054 c -1.2963,0.27417 -2.6474,0.24995 -3.8184,1 -0.38321,0.2455 -0.71476,0.64124 -1.0234,0.97265 -0.42327,0.45443 -0.83136,1.0162 -1.1074,1.5742 -0.08611,0.17405 -0.21272,0.58643 0.08008,0.64453 0.25988,0.0512 0.40566,-0.22831 0.53125,-0.40234 0.32285,-0.44719 0.64638,-0.92269 1.0449,-1.3066 0.73922,-0.71227 1.9352,-1.4994 2.9609,-1.7031 0.55886,-0.11095 1.7281,0.15608 2.1582,-0.24609 0.43959,-0.41057 -0.58737,-0.5834 -0.82617,-0.5332 z m 13.521,-0.40625 c -0.35069,0.0845 -0.43568,1.0532 -0.42578,1.3476 0.03511,1.0823 0.88639,2.1483 2.0566,1.7793 0.27056,-0.0854 0.55014,-0.37871 0.44532,-0.68555 -0.0768,-0.22517 -0.3722,-0.36651 -0.52149,-0.54687 -0.33645,-0.40629 -0.56625,-0.83757 -0.85547,-1.2734 -0.13441,-0.20272 -0.39558,-0.69519 -0.69922,-0.62109 z m -10.252,-0.47657 c -0.44673,0 -0.57712,0.90922 -0.61914,1.2207 -0.14568,1.0784 -0.11551,2.0153 -0.10352,3.0918 0.0056,0.46765 -0.06041,1.1321 0.60547,1.0859 0.4531,-0.0318 0.3027,-0.53692 0.22461,-0.84375 -0.30822,-1.2083 -0.35273,-2.5133 0.06836,-3.6973 0.07054,-0.19845 0.18744,-0.85743 -0.17578,-0.85743 z m 4.6699,-0.0176 c -0.44711,0.10839 -0.59422,0.5463 -0.68945,0.93359 -0.23062,0.93869 -0.24169,2.126 -0.14844,3.0898 0.02217,0.22954 0.07975,1.3705 0.4668,1.252 0.35416,-0.10841 0.25,-0.8598 0.25,-1.1309 0,-0.94629 -0.20126,-1.9054 0.01172,-2.8477 0.07109,-0.31479 0.38056,-0.48324 0.45508,-0.78906 0.05872,-0.24124 -0.03382,-0.58351 -0.3457,-0.50781 z m 6.6074,-0.98633 c -1.3767,0.15752 -0.20495,1.4712 0.28906,2.0781 0.23294,0.28625 0.29505,0.6063 0.74023,0.5586 0.68288,-0.0726 0.74007,-0.70141 0.61328,-1.2598 -0.17056,-0.75111 -0.80892,-1.4718 -1.6426,-1.377 z m -8.7207,-0.31055 c -0.06431,-0.003 -0.12963,0.004 -0.1875,0.0215 -0.70455,0.2072 -1.0076,0.9122 -1.1699,1.5449 -0.35285,1.3747 0.24993,2.6702 0.05078,4.0605 -0.07157,0.49959 -0.34021,0.95681 -0.38867,1.4531 -0.02024,0.20683 0.13619,0.3682 0.35352,0.3164 0.5044,-0.12097 0.5703,-1.005 0.61914,-1.4062 0.0732,-0.60165 0.2524,-1.205 0.22852,-1.8184 -0.02666,-0.68169 -0.22769,-1.512 -0.0918,-2.1816 0.06606,-0.3254 0.15495,-0.69927 0.35156,-0.9707 0.13551,-0.18708 0.52694,-0.45287 0.56836,-0.67383 0.04358,-0.23001 -0.14107,-0.3357 -0.33398,-0.3457 z m 2.375,-0.0469 c -1.0515,0.0335 -1.8459,0.86964 -2.1465,1.916 -0.35684,1.242 -0.04346,2.6107 -0.18555,3.8789 -0.06268,0.56005 -0.18784,1.1535 -0.33594,1.6973 -0.07452,0.27364 -0.17958,0.63297 0.04102,0.86524 0.3654,0.38504 0.71035,-0.15801 0.77734,-0.50196 0.18189,-0.9356 0.18137,-1.9033 0.19336,-2.8496 0.0115,-0.91789 -0.07254,-1.8845 0.13672,-2.7871 0.12698,-0.5474 0.35575,-1.0609 0.83398,-1.3887 0.40801,-0.27972 1.0395,-0.23858 1.1523,-0.79297 -0.15996,-0.0301 -0.31658,-0.0421 -0.4668,-0.0371 z m 5.1934,-0.78515 c -0.72656,0.0942 -1.2972,1.0516 -1.543,1.6699 -0.64911,1.6331 -0.65576,3.6647 0.58789,5.0664 0.80402,0.90606 1.6545,0.94776 2.7734,0.88086 1.8801,-0.11096 3.5976,-1.171 5.5156,-1.0762 0.6375,0.0316 1.4812,0.34879 1.9941,0.73829 0.15713,0.11921 0.44394,0.65755 0.69726,0.45898 0.28239,-0.22128 -0.12494,-0.68709 -0.26758,-0.85547 -0.54937,-0.6468 -1.1224,-0.91387 -1.9394,-1.084 -0.98832,-0.2058 -2.2324,-0.11816 -3.2109,0.14453 -1.3142,0.35287 -2.8876,1.2793 -4.2441,0.55664 -0.30702,-0.16353 -0.5975,-0.47653 -0.83984,-0.72461 -1.042,-1.0667 -0.54918,-3.4092 0.15234,-4.5273 0.18504,-0.2948 0.58735,-0.33515 0.74609,-0.61914 0.15951,-0.28553 -0.10544,-0.66836 -0.42188,-0.62696 v -0.002 z m -1.6973,-0.10352 c -0.84795,1.6e-4 -1.3442,1.3863 -1.5762,2.0176 -0.83728,2.2792 -0.3288,4.9493 1.3535,6.7246 0.38866,0.41029 0.77427,0.7253 1.3145,0.87305 0.9023,0.24707 1.4986,0.5157 2.4746,0.26367 1.8037,-0.46537 3.6099,-1.7538 5.5254,-1.2539 0.91791,0.23933 2.1497,0.66156 2.8398,1.3438 0.18969,0.18762 0.48978,1.0755 0.83789,0.97266 0.37823,-0.11201 -0.0233,-0.90367 -0.15039,-1.0703 -0.67273,-0.87946 -1.35,-1.3276 -2.377,-1.7676 -0.81016,-0.34604 -1.8889,-0.63539 -2.7773,-0.43164 -2.0862,0.47829 -4.8157,2.4261 -6.7676,0.42969 -1.7482,-1.7881 -2.2251,-4.4226 -1.0508,-6.6309 0.11921,-0.22406 1.0644,-1.4709 0.35352,-1.4707 z"
         fill="#1780ce"
         fill-rule="evenodd"
         id="path18782" />
      <path
         d="m 97.287,759.57 c -0.80373,-0.004 -1.5971,0.20068 -2.3457,0.51758 -0.35419,0.15119 -0.65584,0.47618 -1.0293,0.57617 -0.42831,0.1151 -1.075,-0.092 -1.5156,-0.13477 -0.81303,-0.0773 -1.8074,-0.0355 -2.6055,0.13282 -0.89122,0.1895 -2.1978,0.64872 -2.9023,1.2344 -0.36698,0.30496 -0.34364,0.81517 -0.79492,1.0586 -0.5352,0.28861 -1.4594,0.0469 -2.0605,0.0469 -1.1766,0 -2.1769,0.17719 -3.2129,0.77539 -0.97353,0.56244 -1.998,1.5808 -2.4316,2.6191 -0.18402,0.44049 -0.1431,0.98388 -0.36328,1.3926 -0.3188,0.59152 -0.86738,1.0632 -1.2227,1.6367 -1.0483,1.6917 -2.1419,4.0534 -2.2793,6.0606 -0.08671,1.2668 0.68494,2.3162 0.66016,3.5762 -0.0099,0.48778 -0.15644,0.96702 -0.17774,1.4551 -0.03756,0.86073 0.08558,1.7496 -0.0098,2.6055 -0.05718,0.51384 -0.52681,0.8204 -0.4707,1.3945 0.05034,0.51524 0.37767,1.1543 0.57617,1.6367 0.20318,0.49394 0.37546,1.1314 0.67188,1.5703 0.90947,1.3469 2.1001,2.2672 3.3496,3.2422 0.2362,0.0347 0.45701,0.24546 0.6582,0.49024 0.63361,2.1916 1.5484,4.3576 2.4668,6.0566 l 0.87891,-0.47656 c -1.2866,-2.3801 -2.5912,-5.7967 -3.0176,-8.7148 -0.08636,-1.4683 -0.0506,-2.9717 0.11719,-4.4102 0.07493,-0.64336 0.29916,-1.2988 0.33789,-1.9395 0.03488,-0.57708 -0.5722,-1.076 -0.42383,-1.6973 0.29121,-1.2198 1.5767,-1.8362 2.1895,-2.8496 0.29498,-0.48793 0.45941,-1.0582 0.69141,-1.5762 0.12146,-0.27129 0.35837,-0.55198 0.40625,-0.84766 0.05153,-0.31853 -0.33633,-0.53392 -0.20898,-0.8457 0.16235,-0.3974 0.74194,-0.60536 1.0508,-0.8711 0.69984,-0.6025 1.1908,-1.7138 1.959,-2.1797 0.28298,-0.17182 0.59764,0.35957 0.83594,0.47656 0.77959,0.38223 1.6645,1.0676 2.6055,0.97851 1.1018,-0.10496 2.1551,-0.85245 2.8945,-1.6367 0.27072,-0.28707 0.56666,-0.9934 0.98438,-1.0879 0.24346,-0.055 0.32804,0.21774 0.42773,0.37696 0.21411,0.34172 0.55225,0.64838 0.83984,0.92773 0.76909,0.74734 1.5188,1.6688 2.6719,1.8438 0.65304,0.0996 1.4035,9.4e-4 2.0605,-0.0488 0.26479,-0.0223 0.60434,-0.2052 0.82423,0.0332 0.23813,0.25753 -0.14605,0.76671 -0.16993,1.0644 -0.0348,0.43619 0.0762,0.53427 0.16211,0.72517 l 0.45508,0.42917 c 0.0415,0.31214 0.2142,0.78647 0.54688,0.84765 0.28952,1.0632 1.4395,2.1862 2.2226,2.9219 0.35907,0.33708 1.1526,0.53292 1.1445,1.0801 -0.009,0.73958 -0.29523,1.9454 -0.61524,2.6035 -0.16097,0.33123 -0.52928,0.47611 -0.62305,0.84961 -0.52823,2.1037 -0.22311,4.367 -0.73632,6.4844 -0.17944,0.74082 -0.22854,0.73151 -0.50782,1.4453 -0.008,0.0205 -0.36035,0.85533 -0.36914,0.87891 -0.73303,1.4838 -1.6379,2.9644 -3.1875,5.1758 l 0.82031,0.57422 c 1.3807,-1.9704 2.2756,-3.3956 2.9922,-4.7637 0.53556,-0.0735 1.0975,0.081 1.6465,0.084 0.73548,0 1.4511,0.13555 2.1816,-0.0566 1.7431,-0.45715 3.6574,-2.2259 4.3398,-3.8848 0.24722,-0.60097 0.0913,-1.3845 0.38672,-1.9394 0.22232,-0.41797 0.63885,-0.71573 0.91797,-1.0918 0.49916,-0.67295 0.95684,-1.6561 1.1211,-2.4824 0.15046,-0.75731 0.0956,-1.5951 0.14844,-2.3652 0.15445,-2.242 0.15354,-4.6674 -0.47657,-6.8477 -0.11732,-0.4058 -0.44097,-0.66529 -0.58203,-1.0352 -0.22336,-0.5855 -0.21126,-1.2833 -0.50196,-1.875 -0.2342,-0.47675 -0.60271,-0.8754 -0.86522,-1.332 -0.85398,-1.4864 -1.6098,-3.0007 -2.9121,-4.1758 -0.86443,-0.77998 -1.9942,-1.623 -3.0918,-2.041 -0.48742,-0.18553 -1.0088,-0.42578 -1.5137,-0.54687 -0.39966,-0.0964 -0.84222,-0.11449 -1.207,-0.33594 -0.44837,-0.27281 -0.67041,-1.0257 -0.95703,-1.4473 -0.64534,-0.9492 -1.8986,-2.0486 -3.0488,-2.2656 -0.26899,-0.0507 -0.53873,-0.0749 -0.80664,-0.0762 z m -0.70898,0.80859 c 0.71092,-1.6e-4 -0.2343,1.2466 -0.35352,1.4707 -1.1744,2.2082 -0.69743,4.8428 1.0508,6.6309 1.9519,1.9964 4.6814,0.0486 6.7676,-0.42969 0.88844,-0.20375 1.9672,0.0856 2.7773,0.43164 1.027,0.44 1.7042,0.88812 2.377,1.7676 0.12713,0.16664 0.52862,0.9583 0.15039,1.0703 -0.34811,0.10286 -0.6482,-0.78504 -0.83789,-0.97266 -0.69019,-0.68219 -1.9219,-1.1044 -2.8398,-1.3438 -1.9155,-0.49994 -3.7217,0.78854 -5.5254,1.2539 -0.97602,0.25203 -1.5723,-0.0166 -2.4746,-0.26367 -0.54018,-0.14775 -0.9258,-0.46276 -1.3145,-0.87305 -1.6823,-1.7753 -2.1908,-4.4454 -1.3535,-6.7246 0.23196,-0.63124 0.72822,-2.0174 1.5762,-2.0176 z m 1.6973,0.10352 v 0.002 c 0.31644,-0.0414 0.58139,0.34144 0.42188,0.62696 -0.15874,0.28399 -0.56105,0.32434 -0.74609,0.61914 -0.70153,1.1181 -1.1944,3.4607 -0.15234,4.5273 0.24235,0.24808 0.53282,0.56108 0.83984,0.72461 1.3565,0.72262 2.9299,-0.20377 4.2441,-0.55664 0.97858,-0.26269 2.2226,-0.35033 3.2109,-0.14453 0.817,0.17011 1.3901,0.43718 1.9394,1.084 0.14264,0.16838 0.54997,0.63419 0.26758,0.85547 -0.25332,0.19857 -0.54013,-0.33977 -0.69726,-0.45898 -0.51289,-0.3895 -1.3566,-0.70667 -1.9941,-0.73829 -1.918,-0.0948 -3.6356,0.96522 -5.5156,1.0762 -1.119,0.0669 -1.9694,0.0252 -2.7734,-0.88086 -1.2437,-1.4017 -1.237,-3.4333 -0.58789,-5.0664 0.24575,-0.61834 0.81641,-1.5758 1.543,-1.6699 z m -5.1934,0.78515 c 0.15022,-0.005 0.30683,0.007 0.4668,0.0371 -0.11286,0.55439 -0.74434,0.51325 -1.1523,0.79297 -0.47824,0.32778 -0.707,0.84128 -0.83398,1.3887 -0.20926,0.90264 -0.12521,1.8692 -0.13672,2.7871 -0.01199,0.94628 -0.01147,1.914 -0.19336,2.8496 -0.06699,0.34395 -0.41195,0.887 -0.77734,0.50196 -0.2206,-0.23227 -0.11554,-0.5916 -0.04102,-0.86524 0.1481,-0.54379 0.27326,-1.1372 0.33594,-1.6973 0.14208,-1.2682 -0.17129,-2.637 0.18555,-3.8789 0.30059,-1.0464 1.0949,-1.8825 2.1465,-1.916 z m -2.375,0.0469 c 0.19292,0.01 0.37757,0.11569 0.33398,0.3457 -0.04142,0.22096 -0.43285,0.48675 -0.56836,0.67383 -0.19661,0.27143 -0.28551,0.6453 -0.35156,0.9707 -0.13589,0.66967 0.06514,1.5 0.0918,2.1816 0.02388,0.61333 -0.15531,1.2167 -0.22852,1.8184 -0.04884,0.4013 -0.11475,1.2853 -0.61914,1.4062 -0.21732,0.0518 -0.37376,-0.10957 -0.35352,-0.3164 0.04846,-0.49632 0.3171,-0.95354 0.38867,-1.4531 0.19915,-1.3904 -0.40363,-2.6858 -0.05078,-4.0605 0.16236,-0.63273 0.46537,-1.3377 1.1699,-1.5449 0.05787,-0.0171 0.12319,-0.0247 0.1875,-0.0215 z m 8.7207,0.31055 c 0.83366,-0.0948 1.472,0.62584 1.6426,1.377 0.12679,0.55836 0.0696,1.1871 -0.61328,1.2598 -0.44518,0.0477 -0.50729,-0.27235 -0.74023,-0.5586 -0.49401,-0.60696 -1.6657,-1.9206 -0.28906,-2.0781 z m -6.6074,0.98633 c 0.31188,-0.0757 0.40443,0.26657 0.3457,0.50781 -0.07452,0.30582 -0.38399,0.47427 -0.45508,0.78906 -0.21298,0.94231 -0.01172,1.9014 -0.01172,2.8477 0,0.27106 0.10416,1.0224 -0.25,1.1309 -0.38704,0.11853 -0.44463,-1.0224 -0.4668,-1.252 -0.09325,-0.96381 -0.08218,-2.1512 0.14844,-3.0898 0.09523,-0.38729 0.24234,-0.82519 0.68945,-0.93359 z m -4.6699,0.0176 c 0.36322,0 0.24633,0.65898 0.17578,0.85743 -0.42109,1.184 -0.37658,2.489 -0.06836,3.6973 0.07809,0.30683 0.22849,0.81197 -0.22461,0.84375 -0.66588,0.0462 -0.59988,-0.61829 -0.60547,-1.0859 -0.01199,-1.0765 -0.04216,-2.0134 0.10352,-3.0918 0.04202,-0.31149 0.17241,-1.2207 0.61914,-1.2207 z m 10.252,0.47657 c 0.30363,-0.0741 0.56481,0.41837 0.69922,0.62109 0.28922,0.43587 0.51902,0.86715 0.85547,1.2734 0.14929,0.18036 0.44465,0.3217 0.52149,0.54687 0.10482,0.30684 -0.17476,0.60016 -0.44532,0.68555 -1.1703,0.36904 -2.0215,-0.69701 -2.0566,-1.7793 -0.0099,-0.29445 0.07509,-1.2631 0.42578,-1.3476 z m -13.521,0.40625 c 0.2388,-0.0502 1.2658,0.12263 0.82617,0.5332 -0.43006,0.40217 -1.5993,0.13514 -2.1582,0.24609 -1.0258,0.20376 -2.2217,0.99086 -2.9609,1.7031 -0.39854,0.38395 -0.72207,0.85945 -1.0449,1.3066 -0.12559,0.17403 -0.27137,0.45356 -0.53125,0.40234 -0.29279,-0.0581 -0.16619,-0.47048 -0.08008,-0.64453 0.27606,-0.55798 0.68415,-1.1198 1.1074,-1.5742 0.30868,-0.33141 0.64023,-0.72715 1.0234,-0.97265 1.171,-0.75005 2.522,-0.72583 3.8184,-1 z m 17.871,0.81054 c 0.66117,0.0419 1.4637,0.27501 1.9473,0.46094 0.32727,0.12538 0.94996,0.57979 0.29687,0.8457 -0.51802,0.21098 -1.26,-0.34135 -1.8105,-0.33984 -0.38802,9.8e-4 -0.82857,0.19349 -1.1992,-0.0234 -0.35176,-0.20534 -0.20418,-0.83398 0.16992,-0.91406 v 0.002 c 0.17189,-0.0369 0.37531,-0.0452 0.5957,-0.0312 z m -16.41,0.20117 c 0.22617,-0.0239 0.23347,0.2632 0.23633,0.41407 0.0069,0.32347 0.20891,1.8067 -0.18164,1.8516 -0.22048,0.0254 -0.27394,-0.23103 -0.29297,-0.39649 -0.05361,-0.4678 0.04543,-0.92895 0.05078,-1.3945 0.002,-0.14943 -0.02439,-0.45176 0.1875,-0.47461 z m -2.3398,0.31055 c 0.19329,-0.0163 0.38623,-0.003 0.57617,0.0625 0.24594,0.086 0.4396,0.33203 0.2168,0.56055 -0.28352,0.29082 -0.93373,0.11486 -1.3066,0.23633 -0.71327,0.23243 -1.3424,0.74585 -1.8789,1.248 -0.61528,0.57585 -1.0154,1.2665 -1.5156,1.9356 -0.69699,-0.42399 -0.18036,-1.1686 0.24219,-1.6367 0.91626,-1.0154 1.7069,-1.9232 3.0918,-2.293 0.18812,-0.0506 0.38093,-0.097 0.57422,-0.11328 z m 9.668,0.62695 c 0.62595,0 0.52222,1.4043 0.63477,1.7793 0.46334,1.5436 1.5036,2.9386 2.8809,3.793 2.0783,1.2892 4.2208,-0.30773 6.1816,-0.95898 1.2467,-0.41404 3.1651,0.0483 4.1797,0.82031 0.55097,0.41938 0.62624,1.1107 0.9375,1.6777 0.302,0.5503 0.96783,0.0756 1.0039,0.84961 -0.36013,0.0172 -1.0052,0.34095 -1.3281,0.17774 -0.24121,-0.12195 -0.28067,-0.44736 -0.40235,-0.66211 -0.28887,-0.50987 -0.65057,-1.2469 -1.1797,-1.5371 -1.9768,-1.0834 -3.5439,-0.0591 -5.3926,0.58203 -0.49844,0.17267 -1.3594,0.10665 -1.7578,0.4082 -0.51333,-0.12197 -1.0745,-0.0964 -1.5762,-0.25195 -1.7774,-0.55064 -2.9673,-1.7064 -3.8516,-3.3223 -0.40199,-0.73463 -0.71313,-1.7042 -0.60742,-2.5469 0.02616,-0.20789 -0.04464,-0.8086 0.27734,-0.8086 z m -9.6973,0.83008 c 0.5357,-0.0239 0.32183,0.57965 0.04883,0.78516 -1.0668,0.80316 -2.4583,1.2224 -2.9512,2.6484 -0.1163,0.33621 -0.37495,0.72834 -0.16992,1.084 0.61564,1.0681 1.7761,-0.64224 2.459,-0.37891 0.49117,0.1895 0.07361,0.71271 -0.17578,0.89258 -0.54885,0.39564 -1.3899,0.62465 -2.0605,0.67188 -0.942,0.0669 -1.3277,-1.2012 -1.0156,-1.9062 0.30273,-0.68391 0.71009,-1.4816 1.2207,-2.0352 0.27413,-0.29703 0.62937,-0.45729 0.91992,-0.7207 0.48418,-0.4389 1.019,-1.0099 1.7246,-1.041 z m 0.41602,1.6582 c 1.0305,0.0547 1.4646,1.1296 1.1484,2.1387 -0.11012,0.35167 -0.13193,0.98883 -0.59375,1.0684 -0.28406,0.0477 -0.43468,-0.28356 -0.40625,-0.52149 0.06065,-0.50716 0.67735,-1.3986 -0.08008,-1.707 -1.0857,-0.44216 -1.4797,1.4354 -2.3594,1.2988 -0.46032,-0.07 -0.11443,-0.61369 0.03125,-0.80469 0.41999,-0.55097 1.0711,-1.2778 1.7832,-1.4316 0.17118,-0.037 0.32935,-0.0488 0.47656,-0.041 z m -5.3789,0.61914 c 0.26801,-0.0414 0.34259,0.43498 0.05078,0.44336 -0.24516,0 -0.29489,-0.40639 -0.05078,-0.44336 z m -0.85742,0.85742 c 0.20426,0.0362 0.32448,0.25781 0.35547,0.48047 0.23831,1.7075 1.0896,2.9396 2.25,4.1816 0.19078,0.20415 0.5784,0.80645 0.16602,1.0234 -0.32042,0.16836 -0.93373,-0.46325 -1.1328,-0.66016 -0.92621,-0.91515 -1.5474,-2.2361 -1.9746,-3.4531 -0.11115,-0.31662 -0.30018,-1.3704 0.10352,-1.5391 0.08663,-0.0361 0.16434,-0.0453 0.23242,-0.0332 z m 32.305,1.6934 c 0.52174,0.0876 0.51193,0.60687 0.5625,1.0293 0.13124,1.0976 -0.0735,2.1743 -0.72265,3.0918 -0.79117,1.1179 -2.1408,1.956 -3.5371,1.9394 -0.50538,0 -2.1454,-0.16299 -1.8086,-0.96289 0.19939,-0.4733 0.67162,-0.19249 1.0215,-0.125 0.75297,0.14606 1.6138,0.13239 2.3027,-0.24023 1.9224,-1.0397 1.8368,-2.8751 2.1816,-4.7324 z m -5.5059,0.64843 c 0.70763,0.0214 1.5575,1.026 1.7266,1.5332 0.0985,0.29552 0.19479,0.8582 -0.16211,1.0254 -0.16218,0.0757 -0.28646,-0.025 -0.33398,-0.17969 -0.28607,-0.92785 -0.85386,-1.2674 -1.5234,-1.9238 -0.10997,-0.10816 -0.18278,-0.31896 0,-0.40039 0.0929,-0.0414 0.19188,-0.0577 0.29297,-0.0547 z m -27.518,0.31641 c 0.36189,0.006 0.49713,0.66572 0.61523,0.91406 0.6191,1.3019 1.6906,2.064 2.6445,3.0898 0.16785,0.18038 0.88861,0.95329 0.41211,1.1758 -0.36116,0.16831 -0.8931,-0.42069 -1.1328,-0.62891 -0.97885,-0.85023 -1.8314,-1.8988 -2.4551,-3.0312 -0.13074,-0.23745 -0.61391,-1.3098 -0.25391,-1.4785 0.06158,-0.0288 0.11822,-0.0419 0.16992,-0.041 z m 25.441,0.082 c 0.84366,0.083 1.7475,0.82933 2.1758,1.4375 0.15254,0.21666 0.66961,1.118 0.18555,1.2539 -0.18521,0.0518 -0.40737,2.5e-4 -0.50586,-0.17578 -0.38237,-0.65755 -0.73129,-1.1004 -1.4238,-1.457 -0.27557,-0.14258 -0.97098,-0.21377 -1.1504,-0.44532 -0.20344,-0.26255 0.11141,-0.56788 0.36133,-0.60546 0.11647,-0.0176 0.2369,-0.0195 0.35742,-0.008 z m -26.098,1.3379 c 0.25747,0.009 0.38611,0.40244 0.48633,0.58594 0.45268,0.82809 0.94532,1.4688 1.6113,2.1309 0.11665,0.11676 0.52208,0.55875 0.22852,0.69727 -0.23971,0.11335 -0.59816,-0.25007 -0.76758,-0.38086 -0.60798,-0.46916 -1.3076,-1.2408 -1.5938,-1.9629 -0.08076,-0.20351 -0.4165,-0.92289 -0.08398,-1.0488 0.04229,-0.0161 0.08236,-0.0228 0.11914,-0.0215 z m 35.016,0.4336 c 0.28462,-0.0597 0.34949,0.24001 0.35937,0.45507 0.0229,0.50104 -0.16787,0.84717 -0.40234,1.2715 -0.69509,1.2581 -1.6352,2.4601 -3.0508,2.916 -0.35722,0.1151 -0.72351,0.067 -1.0898,0.11524 -1.8277,0.24159 -3.2331,0.043 -4.6094,-1.2832 -0.46019,-0.44307 -1.0294,-1.226 -1.2949,-1.8086 -0.0952,-0.20838 -0.16684,-0.62432 0.0586,-0.78515 0.22024,-0.15627 0.44169,0.0833 0.5625,0.24218 0.38686,0.5111 0.63791,0.99206 1.0781,1.4629 1.256,1.3435 3.054,1.7192 4.8105,1.2285 1.0182,-0.28453 2.0974,-1.325 2.623,-2.209 0.19452,-0.32705 0.58906,-1.5285 0.95508,-1.6055 z m -35.742,0.86328 c 0.30292,-0.0892 0.52295,0.7928 0.67774,0.98437 0.65711,0.81342 1.5768,1.4524 2.3945,2.0957 0.16218,0.12713 0.69412,0.58545 0.28516,0.77734 -0.30764,0.14433 -0.71131,-0.22431 -0.94531,-0.37891 -0.74637,-0.49306 -1.8859,-1.3041 -2.2676,-2.1289 -0.0988,-0.2134 -0.56446,-1.2249 -0.14453,-1.3496 z m -0.05078,1.9726 c 0.29808,0.032 0.55844,0.58567 0.70703,0.76758 0.67352,0.82411 1.4984,1.2837 2.2949,1.9414 0.18014,0.14942 0.7285,0.53333 0.3457,0.78711 -0.3311,0.21936 -0.78171,-0.2244 -1.0117,-0.41406 -0.75339,-0.62106 -1.6184,-1.0823 -2.207,-1.8887 -0.14808,-0.20288 -0.71554,-0.97174 -0.25781,-1.1738 0.04392,-0.0193 0.08632,-0.0241 0.12891,-0.0195 z m 36.275,0.041 h 0.24219 v 0.002 c 0.28642,0.91794 0.0706,1.7465 -0.0508,2.666 -0.39025,2.9573 -1.6424,5.1899 -3.834,7.2012 -0.30532,0.28014 -0.7244,0.40729 -1.084,0.60352 -0.74213,0.40476 -1.3578,0.78601 -2.2422,0.80078 -0.3792,0 -1.0429,0.21537 -1.1816,-0.30274 -0.0642,-0.23952 0.089,-0.44918 0.33203,-0.4707 0.37211,-0.0326 0.71076,0.053 1.0918,-0.0312 1.0238,-0.22294 1.7809,-0.82965 2.666,-1.3418 2.3554,-1.3626 3.1987,-4.5913 3.7266,-7.0664 0.14705,-0.68996 0.12168,-1.386 0.33398,-2.0606 z m -1.6894,1.5527 v 0.008 c 0.41244,-0.0223 0.41629,0.46371 0.41601,0.74218 -0.002,0.80761 -0.2191,1.6038 -0.46875,2.3652 -0.59921,1.8272 -2.0577,3.866 -3.8945,4.5938 -0.56529,0.22382 -1.2055,0.44897 -1.8184,0.33984 -0.26407,-0.0462 -0.68351,-0.49716 -0.38672,-0.76172 0.17309,-0.15466 0.5448,-3.7e-4 0.75,0 0.41596,0.0174 0.96127,-0.11352 1.334,-0.30078 1.3155,-0.65938 2.5528,-2.3931 3.1582,-3.6973 0.37254,-0.80248 0.51149,-1.6215 0.625,-2.4863 0.0287,-0.21635 -0.0377,-0.78538 0.28516,-0.80274 z m -33.928,1.0078 c 0.31578,0.023 0.82632,0.43891 0.97461,0.61914 0.09589,0.11677 0.12674,0.34029 -0.04297,0.41015 -0.28138,0.11514 -0.86595,-0.32146 -1.0371,-0.52148 -0.1036,-0.12195 -0.22755,-0.40261 -0.01563,-0.49024 0.03558,-0.0146 0.07598,-0.0209 0.12109,-0.0176 z m 32.104,0.26562 c 0.67771,-0.15627 0.29755,1.2716 0.19726,1.5312 -0.1165,0.30132 -0.35702,0.51207 -0.51757,0.78711 -0.51802,0.88751 -1.293,2.0713 -2.4688,2.1172 -0.27728,0.0176 -0.64104,-0.1841 -0.42188,-0.51172 0.24321,-0.3637 0.92019,-0.48426 1.2695,-0.73438 0.50689,-0.36323 0.93698,-0.99322 1.2324,-1.5371 0.22747,-0.4185 0.12374,-1.5176 0.70899,-1.6524 z m -3.0957,0.30274 c 0.48293,0.0501 0.27834,0.71373 -0.17774,0.66992 -0.63275,-0.0602 -0.31937,-0.72182 0.17774,-0.66992 z m 1.2754,0.70507 c 0.43864,-0.0343 0.24099,0.43664 0.0996,0.64454 -0.22562,0.33192 -0.70891,0.67274 -1.1289,0.66015 -0.30054,-0.0171 -0.44586,-0.28378 -0.22266,-0.51367 0.2494,-0.2568 0.89241,-0.76316 1.252,-0.79102 z m -30.404,0.0273 c 0.18884,-0.0501 0.43514,0.16314 0.58594,0.25195 0.5029,0.29345 1.1074,0.44541 1.5742,0.79102 0.14432,0.10666 0.51981,0.46541 0.22461,0.61914 -0.58838,0.30667 -1.8709,-0.63619 -2.2793,-1.0059 -0.12181,-0.10996 -0.42384,-0.57138 -0.10547,-0.65625 z m 0.14062,1.4922 c 0.14043,0.0217 0.27713,0.13396 0.38477,0.20312 0.42348,0.26971 1.0719,0.34654 1.4414,0.65234 0.19909,0.16488 0.27347,0.5476 0.0039,0.68946 -0.37092,0.19518 -1.6887,-0.34875 -1.9688,-0.625 -0.17624,-0.17388 -0.32239,-0.78135 -0.002,-0.90625 0.04633,-0.0181 0.09381,-0.0209 0.14062,-0.0137 z m 35.9,1.4277 c -0.0917,0.92439 -0.62531,1.5966 -1.1602,2.3027 -1.1727,1.5482 -2.831,2.7247 -4.7188,3.2793 -0.76182,0.22383 -1.5728,0.35774 -2.3633,0.35742 -0.34057,-1.5e-4 -0.87318,-0.0898 -0.63086,-0.58593 0.0867,-0.17675 0.34775,-0.14631 0.50976,-0.13086 0.49964,0.0462 0.95844,0.0338 1.4551,-0.0586 1.6003,-0.29982 2.8999,-1.3053 4.1816,-2.2402 0.56605,-0.41284 1.1564,-0.98893 1.5195,-1.5898 0.33152,-0.54874 0.44492,-1.3098 1.207,-1.334 z m -36.949,0.0625 c 0.05181,-0.007 0.10497,-0.007 0.16016,0.004 0.91317,0.18805 1.9293,0.84479 2.666,1.3848 0.21866,0.15979 0.72639,0.87761 0.12109,0.88477 -0.52025,0 -0.9564,-0.42128 -1.3926,-0.63867 -0.58002,-0.28914 -1.3683,-0.35021 -1.8594,-0.81836 -0.30671,-0.29224 -0.058,-0.764 0.30469,-0.81641 z m 0.60742,2.209 c 0.19957,0.0293 0.43112,0.16659 0.58398,0.22266 0.68153,0.24718 1.419,0.55298 1.9863,1.0156 0.24619,0.20064 0.55501,0.67585 0.13086,0.86328 -0.67066,0.29631 -2.1016,-0.70792 -2.5762,-1.1367 -0.15049,-0.13573 -0.71544,-0.79585 -0.31055,-0.95117 0.05541,-0.0211 0.11902,-0.0235 0.18555,-0.0137 z m 33.678,2.3301 c 0.2186,-0.0311 0.27506,0.27442 0.25782,0.42969 -0.0446,0.402 -0.29636,0.95054 -0.57618,1.2383 -1.1501,1.183 -2.4868,1.3629 -4.0469,1.6387 -0.46153,0.0826 -1.2262,0.33418 -1.6797,0.11719 -0.32845,-0.15634 -0.11153,-0.56529 0.16406,-0.61719 1.5504,-0.29169 3.3081,-0.0486 4.666,-1.082 0.32608,-0.24804 0.69807,-0.66807 0.84961,-1.0527 0.0787,-0.20011 0.0838,-0.63114 0.36523,-0.67188 z m -1.1543,0.67188 c 0.0741,0.46422 -0.43876,0.61294 -0.78711,0.76172 -0.89811,0.3833 -1.5454,0.69336 -2.5469,0.69336 0.0328,-0.42089 0.42879,-0.46184 0.78906,-0.53125 0.90208,-0.17386 1.6932,-0.61391 2.5449,-0.92383 z m -0.90821,2.7266 c -0.0688,0.90878 -1.9561,1.1511 -2.668,1.1523 -0.23345,3.2e-4 -0.565,0.0567 -0.77343,-0.0723 -0.63958,-0.39071 0.52313,-0.60564 0.77343,-0.58985 0.43336,0.0277 0.84728,-9.4e-4 1.2637,-0.15039 0.45094,-0.15461 0.92223,-0.31874 1.4043,-0.33984 z m -16.547,7.2109 0.06055,0.0605 z"
         id="path18784" />
      <path
         d="m 87.951,795.06 c -0.1187,0.0261 -0.22117,0.0892 -0.27149,0.2168 -0.2941,0.75331 1.4216,1.4216 1.9531,1.4688 0.72292,0.0637 1.1692,-0.72308 1.4336,-1.2793 -0.89894,-0.20905 -1.8388,-0.20675 -2.748,-0.39844 -0.11338,-0.0231 -0.24848,-0.0339 -0.36718,-0.008 z m 2.5176,-3.4453 -1.1953,0.18164 -1.1953,-0.10352 -2.748,1.502 c 0.48331,0.87591 1.4971,0.11278 2.2695,0.12695 0.65799,0 1.2593,0.32285 1.9141,0.34766 0.64028,0.0354 1.2768,-0.22701 1.9121,-0.0781 1.013,0.24094 2.0845,0.81089 3.1074,0.32227 l -1.6738,-1.0996 -2.3906,-1.1992 z m 2.748,-3.2012 c -1.3624,0.55701 -3.0857,1.0962 -4.4219,0.35351 -0.3189,-0.17716 -1.0414,-0.5411 -1.2969,-0.0762 -0.31535,0.57366 0.80249,0.99207 1.1777,1.0977 1.1498,0.32599 4.8376,0.44945 4.541,-1.375 z m 4.1914,-5.6211 c 0.69444,-0.11872 0.32398,0.826 -0.36524,0.125 0.14484,-0.0682 0.26603,-0.10804 0.36524,-0.125 z m -13.365,-1.0469 c 0.41988,-3.5e-4 0.60419,0.82655 0.10352,0.84179 -0.47267,0 -0.57939,-0.84143 -0.10352,-0.84179 z m 15.176,-0.93753 c -0.30827,-0.0354 -0.74264,0.24182 -0.38867,0.55469 0.42095,0.37063 1.2074,0.40745 1.6992,0.78906 0.47834,0.37134 0.67612,0.83409 1.3164,0.88476 -0.0354,-0.97583 -1.6656,-2.1658 -2.6269,-2.2285 z m -1.875,-0.37891 c -2.1838,0.13517 -4.4311,2.6324 -1.832,4.0391 h 0.002 l -0.1211,-0.95507 c 0.59032,0.17716 0.88174,0.77162 1.4394,0.91796 1.5477,0.40535 1.6993,-1.2379 2.8633,-1.6348 0.085,0.3189 0.0992,1.6641 0.58398,1.5117 1.3287,-0.41705 -0.0492,-1.6684 -0.54883,-2.0274 -0.95953,-0.69095 -2.3235,-0.25494 -3.3809,-0.32226 0.34371,-1.0116 1.0412,-0.93736 1.9121,-1.1953 v -0.23829 c -0.29511,-0.0873 -0.60599,-0.11501 -0.91797,-0.0957 z m -13.623,-0.61719 c -0.85677,0.0673 -1.8117,0.63741 -2.1582,1.3106 -0.35079,0.68386 -0.59295,1.7414 0.32618,2.0312 h 0.002 c 0.61157,-0.70866 1.5907,0.60893 2.6289,0.32227 0.67394,-0.18779 0.90166,-0.92435 1.5547,-1.1582 l -0.12109,1.5527 c 1.0896,-0.0602 2.1593,-0.76156 1.0644,-1.7363 -0.97157,-0.86527 -2.0317,-1.0909 -3.2148,-1.4902 v -0.12109 l 0.71679,-0.35742 v -0.23828 c -0.23757,-0.104 -0.51323,-0.13766 -0.79882,-0.11524 z m 13.217,-2.1074 c -0.78653,-0.0201 -1.5301,0.0426 -2.1387,0.16797 -0.66485,0.13807 -1.2588,0.5314 -1.9102,0.74024 0.35726,0.63983 1.6244,0.46403 2.2695,0.2832 1.7458,-0.49288 3.8187,-0.54887 5.4961,0.39258 0.73382,0.41174 1.2655,1.1107 2.0312,1.4746 -0.64338,-2.1829 -3.3884,-2.9982 -5.748,-3.0586 z m -12.064,-0.5508 c -1.3592,0.0198 -2.6208,0.49467 -2.9824,1.6973 1.9311,-0.71114 2.8765,-1.0687 4.9004,-0.4961 0.92799,0.2622 1.838,0.96277 1.1602,2.0293 -0.64099,1.0074 -2.447,-1.6474 -2.9512,-0.21875 1.372,0.26929 2.8716,1.0109 3.418,2.3906 0.24094,0.61335 -0.76625,2.1888 0.0664,2.4688 0.32952,0.10985 0.48483,-0.31694 0.53515,-0.55859 0.16654,-0.8015 0.0367,-1.6893 0.12891,-2.5078 0.13819,-1.1817 0.31079,-2.9425 -0.70508,-3.7734 -0.75383,-0.61653 -2.2111,-1.051 -3.5703,-1.0312 z"
         id="path18786" />
      <path
         d="m 82.46,802.67 v 1.6171 c 6.0059,4.6147 15.727,1.7479 18.076,-0.21289 l 0.0703,-0.11328 c -0.89685,-1.1633 -0.85358,-3.806 -0.57227,-7.2695 -7.9304,9.4095 -14.89,5.0882 -17.574,-0.0664 z"
         fill="#f4f2ef"
         fill-rule="evenodd"
         stroke="#000000"
         stroke-linecap="square"
         stroke-width="0.99921"
         id="path18788" />
    </g>
  </g>
</svg>
