<?xml version="1.0" encoding="UTF-8" standalone="no"?>
<svg
   width="42.999779mm"
   height="87.997711mm"
   enable-background="new"
   version="1.1"
   viewBox="0 0 152.36255 311.80195"
   id="svg20076"
   sodipodi:docname="Mazzo.svg"
   inkscape:version="1.2.1 (9c6d41e410, 2022-07-14)"
   xmlns:inkscape="http://www.inkscape.org/namespaces/inkscape"
   xmlns:sodipodi="http://sodipodi.sourceforge.net/DTD/sodipodi-0.dtd"
   xmlns="http://www.w3.org/2000/svg"
   xmlns:svg="http://www.w3.org/2000/svg"
   xmlns:rdf="http://www.w3.org/1999/02/22-rdf-syntax-ns#"
   xmlns:cc="http://creativecommons.org/ns#"
   xmlns:dc="http://purl.org/dc/elements/1.1/">
  <sodipodi:namedview
     id="namedview20078"
     pagecolor="#ffffff"
     bordercolor="#000000"
     borderopacity="0.25"
     inkscape:showpageshadow="2"
     inkscape:pageopacity="0.0"
     inkscape:pagecheckerboard="0"
     inkscape:deskcolor="#d1d1d1"
     inkscape:document-units="mm"
     showgrid="false"
     inkscape:zoom="2.8284271"
     inkscape:cx="196.57568"
     inkscape:cy="470.75634"
     inkscape:window-width="2560"
     inkscape:window-height="1409"
     inkscape:window-x="0"
     inkscape:window-y="31"
     inkscape:window-maximized="1"
     inkscape:current-layer="svg20076" />
  <title
     id="title2">Bresciane</title>
  <defs
     id="defs191" />
  <metadata
     id="metadata193">
    <rdf:RDF>
      <cc:Work
         rdf:about="">
        <dc:format>image/svg+xml</dc:format>
        <dc:type
           rdf:resource="http://purl.org/dc/dcmitype/StillImage" />
        <dc:title>Bresciane</dc:title>
        <dc:date>2020</dc:date>
        <dc:creator>
          <cc:Agent>
            <dc:title>ZZandro</dc:title>
          </cc:Agent>
        </dc:creator>
        <dc:rights>
          <cc:Agent>
            <dc:title />
          </cc:Agent>
        </dc:rights>
        <cc:license
           rdf:resource="http://creativecommons.org/licenses/by-sa/4.0/" />
      </cc:Work>
      <cc:License
         rdf:about="http://creativecommons.org/licenses/by-sa/4.0/">
        <cc:permits
           rdf:resource="http://creativecommons.org/ns#Reproduction" />
        <cc:permits
           rdf:resource="http://creativecommons.org/ns#Distribution" />
        <cc:requires
           rdf:resource="http://creativecommons.org/ns#Notice" />
        <cc:requires
           rdf:resource="http://creativecommons.org/ns#Attribution" />
        <cc:permits
           rdf:resource="http://creativecommons.org/ns#DerivativeWorks" />
        <cc:requires
           rdf:resource="http://creativecommons.org/ns#ShareAlike" />
      </cc:License>
    </rdf:RDF>
  </metadata>
  <g
     transform="translate(-800.77844,-1158.694)"
     id="g16242"
     style="display:inline">
    <g
       transform="matrix(0.97008,0,0,0.9964,-165.14,-588.81)"
       fill="#f4f2ef"
       id="g15938">
      <g
         transform="matrix(0.70046,0,0,1.0004,298.31,-0.79223)"
         fill="#f4f2ef"
         id="g15936">
        <rect
           x="996.13"
           y="1754.4"
           width="223.23"
           height="311.81"
           rx="10.63"
           ry="10.63"
           fill="#f4f2ef"
           stroke="#000000"
           stroke-width="0.99673"
           id="rect15934" />
      </g>
    </g>
    <g
       transform="matrix(0.76704,0,0,0.8945,52.975,-394.15)"
       fill="none"
       id="g15944">
      <g
         transform="matrix(0.70046,0,0,1.0004,298.31,-0.79223)"
         fill="none"
         id="g15942">
        <rect
           x="996.13"
           y="1754.4"
           width="223.23"
           height="311.81"
           rx="10.63"
           ry="10.63"
           fill="none"
           stroke="#000000"
           stroke-width="0.99673"
           id="rect15940" />
      </g>
    </g>
    <g
       transform="translate(-1745.2,1340.5)"
       id="g16198">
      <path
         d="m 2629.1,-37.232 -11.98,25.691"
         fill="none"
         stroke="#dd1d1d"
         stroke-width="6.0236"
         id="path15946" />
      <path
         d="m 2625.6,-38.879 -11.98,25.691"
         fill="none"
         stroke="#000000"
         stroke-width="5.315"
         id="path15948" />
      <path
         d="m 2632,-35.884 -11.98,25.691"
         fill="none"
         stroke="#000000"
         stroke-width="0.99921"
         id="path15950" />
      <path
         d="m 2617.9,-38.606 11.98,25.691"
         fill="none"
         stroke="#1780ce"
         stroke-width="6.0236"
         id="path15952" />
      <ellipse
         transform="rotate(-25)"
         cx="2387.3"
         cy="1004.1"
         rx="8.8583002"
         ry="19.488001"
         fill="#1780ce"
         stroke="#00000f"
         stroke-linejoin="round"
         stroke-opacity="0.94118"
         stroke-width="0.99921"
         id="ellipse15954" />
      <path
         d="m 2594,-89.988 23.96,51.381"
         fill="none"
         stroke="#1780ce"
         stroke-width="6.0236"
         id="path15956" />
      <ellipse
         transform="rotate(-25)"
         cx="2387.2"
         cy="1167.1"
         rx="8.8583002"
         ry="19.488001"
         fill="#1780ce"
         stroke="#00000f"
         stroke-linejoin="round"
         stroke-opacity="0.94118"
         stroke-width="0.99921"
         id="ellipse15958" />
      <path
         d="m 2629.9,-12.916 23.96,51.381"
         fill="none"
         stroke="#1780ce"
         stroke-width="6.0236"
         id="path15960" />
      <path
         d="m 2632.8,-14.264 23.96,51.381"
         fill="none"
         stroke="#000000"
         stroke-width="0.99921"
         id="path15962" />
      <path
         d="m 2596.8,-91.336 23.959,51.381"
         fill="none"
         stroke="#000000"
         stroke-width="0.99921"
         id="path15964" />
      <path
         d="m 2626.4,-11.269 23.96,51.381"
         fill="none"
         stroke="#000000"
         stroke-width="5.315"
         id="path15966" />
      <path
         d="m 2590.4,-88.341 23.959,51.381"
         fill="none"
         stroke="#000000"
         stroke-width="5.315"
         id="path15968" />
      <ellipse
         transform="rotate(25)"
         cx="2345.5"
         cy="-1079.1"
         rx="8.8583002"
         ry="19.488001"
         fill="#dd1d1d"
         stroke="#00000f"
         stroke-linejoin="round"
         stroke-opacity="0.94118"
         stroke-width="0.99921"
         id="ellipse15970" />
      <ellipse
         transform="rotate(25)"
         cx="2345.6001"
         cy="-1242.1"
         rx="8.8583002"
         ry="19.488001"
         fill="#dd1d1d"
         stroke="#00000f"
         stroke-linejoin="round"
         stroke-opacity="0.94118"
         stroke-width="0.99921"
         id="ellipse15972" />
      <path
         d="m 2647.8,-124.05 -23.96,51.381"
         fill="none"
         stroke="#dd1d1d"
         stroke-width="6.0236"
         id="path15974" />
      <path
         d="m 2623.8,-72.665 -11.98,25.691"
         fill="none"
         stroke="#dd1d1d"
         stroke-width="6.0236"
         id="path15976" />
      <path
         d="M 2611.8,-46.975 2587.84,4.406"
         fill="none"
         stroke="#dd1d1d"
         stroke-width="6.0236"
         id="path15978" />
      <path
         d="m 2585.8,-86.757 -4.6006,-5.6739 c -0.55,-1.0423 -1.0798,-2.9137 0.1082,-3.96 0.3474,-0.2172 0.3001,-0.36693 1.6057,-0.74876 1.0872,-0.14218 1.6744,0.42299 2.3544,0.857 l 5.3493,7.2795 -5.3493,-7.2795 c -0.9565,-1.4765 -1.2093,-2.6571 0.1082,-3.9601 1.4747,-1.5624 2.3226,-1.336 3.2113,-1.4975 2.3661,-0.017 2.725,1.8962 3.1031,2.4626 l 2.138,8.777 -2.138,-8.777 c -0.093,-1.3005 0.4137,-1.7826 0.857,-2.3545 0.716,-0.48418 1.3564,-0.78522 1.6056,-0.74871 2.4096,0.0981 2.221,1.5617 3.1031,2.4626 l 1.3893,7.1714"
         fill="none"
         stroke="#000000"
         stroke-width="1px"
         id="path15980" />
      <path
         d="m 2646,42.667 1.3893,7.1714 c 0.4449,1.0913 1.5379,2.7001 3.1031,2.4626 0.3897,-0.12656 0.474,0.006 1.6057,-0.74875 0.8077,-0.74152 0.7523,-1.5546 0.8569,-2.3544 l -2.138,-8.777 2.138,8.777 c 0.5163,1.6818 1.2581,2.6343 3.1031,2.4626 2.1448,-0.12545 2.5163,-0.92058 3.2114,-1.4975 1.5339,-1.8017 0.299,-3.3063 0.1081,-3.96 l -5.3492,-7.2796 5.3492,7.2796 c 0.9367,0.90689 1.6315,0.82887 2.3545,0.85695 0.8311,-0.2374 1.4733,-0.53445 1.6056,-0.74871 1.4737,-1.9089 0.2312,-2.7053 0.1082,-3.9601 l -4.6006,-5.6739"
         fill="none"
         stroke="#000000"
         stroke-width="1px"
         id="path15982" />
      <ellipse
         transform="rotate(-25)"
         cx="2387.3"
         cy="1016.5"
         rx="9.7440996"
         ry="4.4291"
         fill="#e9c13a"
         opacity="0.99"
         stroke="#00000f"
         stroke-linejoin="round"
         stroke-opacity="0.94118"
         stroke-width="0.99921"
         id="ellipse15984" />
      <ellipse
         transform="rotate(-25)"
         cx="2387.3"
         cy="1016.5"
         rx="6.2007999"
         ry="0.88582999"
         fill="#e9c13a"
         opacity="0.99"
         stroke="#00000f"
         stroke-linejoin="round"
         stroke-opacity="0.94118"
         stroke-width="0.99921"
         id="ellipse15986" />
      <ellipse
         transform="rotate(-25)"
         cx="2387.2"
         cy="1154.7"
         rx="9.7440996"
         ry="4.4291"
         fill="#e9c13a"
         opacity="0.99"
         stroke="#00000f"
         stroke-linejoin="round"
         stroke-opacity="0.94118"
         stroke-width="0.99921"
         id="ellipse15988" />
      <ellipse
         transform="rotate(-25)"
         cx="2387.2"
         cy="1154.7"
         rx="6.2007999"
         ry="0.88582999"
         fill="#e9c13a"
         opacity="0.99"
         stroke="#00000f"
         stroke-linejoin="round"
         stroke-opacity="0.94118"
         stroke-width="0.99921"
         id="ellipse15990" />
      <path
         d="m 2579.2,-96.797 c -0.2175,-1.8559 -1.8119,-3.9472 -0.6406,-5.5657 3.7041,-3.2354 7.9739,-5.2577 12.845,-5.9899 1.2891,-0.1139 2.5682,2.6444 3.8519,4.0683 -6.6361,0.451 -11.785,3.2704 -16.057,7.4873"
         fill="#dd1d1d"
         fill-rule="evenodd"
         stroke="#000000"
         stroke-linejoin="round"
         stroke-width="0.99921"
         id="path15992" />
      <path
         d="m 2649.6,54.537 c 1.2819,1.3595 1.8591,3.9252 3.8519,4.0683 4.8594,-0.75787 9.1531,-2.7288 12.845,-5.9898 0.9159,-0.91425 -0.375,-3.6671 -0.6405,-5.5658 -4.6112,4.7937 -10.081,6.9258 -16.057,7.4873"
         fill="#dd1d1d"
         fill-rule="evenodd"
         stroke="#000000"
         stroke-linejoin="round"
         stroke-width="0.99921"
         id="path15994" />
      <circle
         transform="rotate(-25)"
         cx="2387.3"
         cy="982.79999"
         r="1.7717"
         fill="#00000f"
         fill-opacity="0.94118"
         stroke="#00000f"
         stroke-linejoin="round"
         stroke-opacity="0.94118"
         stroke-width="0.99921"
         id="circle15996" />
      <circle
         transform="rotate(-25)"
         cx="2387.2"
         cy="1188.3"
         r="1.7717"
         fill="#00000f"
         fill-opacity="0.94118"
         stroke="#00000f"
         stroke-linejoin="round"
         stroke-opacity="0.94118"
         stroke-width="0.99921"
         id="circle15998" />
      <path
         d="m 2614.4,-36.959 11.98,25.691"
         fill="none"
         stroke="#000000"
         stroke-width="5.315"
         id="path16000" />
      <path
         d="m 2650.7,-122.7 -23.96,51.381"
         fill="none"
         stroke="#000000"
         stroke-width="0.99921"
         id="path16002" />
      <path
         d="m 2620.3,-74.312 -11.98,25.691"
         fill="none"
         stroke="#000000"
         stroke-width="5.315"
         id="path16004" />
      <path
         d="M 2614.7,-45.627 2590.74,5.754"
         fill="none"
         stroke="#000000"
         stroke-width="0.99921"
         id="path16006" />
      <path
         d="m 2620.8,-39.954 11.98,25.691"
         fill="none"
         stroke="#000000"
         stroke-width="0.99921"
         id="path16008" />
      <path
         d="m 2644.2,-125.69 -23.959,51.381"
         fill="none"
         stroke="#000000"
         stroke-width="5.315"
         id="path16010" />
      <path
         d="m 2626.7,-71.317 -11.98,25.691"
         fill="none"
         stroke="#000000"
         stroke-width="0.99921"
         id="path16012" />
      <path
         d="m 2623.2,-74.04 11.98,25.691"
         fill="none"
         stroke="#1780ce"
         stroke-width="6.0236"
         id="path16014" />
      <ellipse
         transform="rotate(-25)"
         cx="2407.1001"
         cy="974.20001"
         rx="8.8583002"
         ry="19.488001"
         fill="#dd1d1d"
         stroke="#00000f"
         stroke-linejoin="round"
         stroke-opacity="0.94118"
         stroke-width="0.99921"
         id="ellipse16016" />
      <path
         d="m 2599.3,-125.42 23.959,51.381"
         fill="none"
         stroke="#1780ce"
         stroke-width="6.0236"
         id="path16018" />
      <ellipse
         transform="rotate(-25)"
         cx="2407"
         cy="1137.2"
         rx="8.8583002"
         ry="19.488001"
         fill="#dd1d1d"
         stroke="#00000f"
         stroke-linejoin="round"
         stroke-opacity="0.94118"
         stroke-width="0.99921"
         id="ellipse16020" />
      <path
         d="m 2602.2,-126.77 23.96,51.381"
         fill="none"
         stroke="#000000"
         stroke-width="0.99921"
         id="path16022" />
      <path
         d="m 2595.7,-123.77 23.96,51.381"
         fill="none"
         stroke="#000000"
         stroke-width="5.315"
         id="path16024" />
      <path
         d="m 2591.2,-122.19 -4.6005,-5.6739 c -0.55,-1.0423 -1.0799,-2.9137 0.1081,-3.96 0.3475,-0.2172 0.3002,-0.3669 1.6058,-0.7488 1.0871,-0.1422 1.6744,0.423 2.3543,0.857 l 5.3494,7.2795 -5.3494,-7.2795 c -0.9564,-1.4765 -1.2092,-2.6571 0.1083,-3.96 1.4746,-1.5625 2.3226,-1.336 3.2113,-1.4975 2.3661,-0.017 2.725,1.8962 3.1031,2.4626 l 2.138,8.777 -2.138,-8.777 c -0.093,-1.3005 0.4136,-1.7827 0.8569,-2.3545 0.7161,-0.4841 1.3564,-0.7852 1.6056,-0.7487 2.4096,0.098 2.221,1.5617 3.1032,2.4626 l 1.3892,7.1714"
         fill="none"
         stroke="#000000"
         stroke-width="1px"
         id="path16026" />
      <path
         d="m 2651.3,7.2337 1.3893,7.1714 c 0.4449,1.0913 1.5379,2.7001 3.1031,2.4626 0.3897,-0.12656 0.4739,0.006 1.6057,-0.74875 0.8077,-0.74152 0.7523,-1.5546 0.8568,-2.3544 l -2.1379,-8.777 2.1379,8.777 c 0.5163,1.6818 1.2582,2.6343 3.1032,2.4626 2.1447,-0.12545 2.5163,-0.92058 3.2113,-1.4975 1.5339,-1.8017 0.299,-3.3063 0.1082,-3.96 l -5.3493,-7.2796 5.3493,7.2796 c 0.9367,0.90689 1.6314,0.82887 2.3544,0.85695 0.8312,-0.2374 1.4734,-0.53445 1.6056,-0.74871 1.4738,-1.9089 0.2313,-2.7053 0.1083,-3.9601 l -4.6006,-5.6739"
         fill="none"
         stroke="#000000"
         stroke-width="1px"
         id="path16028" />
      <ellipse
         transform="rotate(-25)"
         cx="2407.1001"
         cy="986.59998"
         rx="9.7440996"
         ry="4.4291"
         fill="#e9c13a"
         opacity="0.99"
         stroke="#00000f"
         stroke-linejoin="round"
         stroke-opacity="0.94118"
         stroke-width="0.99921"
         id="ellipse16030" />
      <ellipse
         transform="rotate(-25)"
         cx="2407.1001"
         cy="986.59998"
         rx="6.2007999"
         ry="0.88582999"
         fill="#e9c13a"
         opacity="0.99"
         stroke="#00000f"
         stroke-linejoin="round"
         stroke-opacity="0.94118"
         stroke-width="0.99921"
         id="ellipse16032" />
      <path
         d="m 2584.5,-132.23 c -0.2175,-1.8559 -1.8119,-3.9472 -0.6406,-5.5658 3.7041,-3.2353 7.9739,-5.2577 12.845,-5.9898 1.2892,-0.114 2.5682,2.6444 3.852,4.0682 -6.6362,0.4511 -11.785,3.2704 -16.057,7.4874"
         fill="#287028"
         fill-rule="evenodd"
         stroke="#000000"
         stroke-linejoin="round"
         stroke-width="0.99921"
         id="path16034" />
      <path
         d="m 2654.9,19.104 c 1.2819,1.3595 1.859,3.9252 3.8518,4.0683 4.8594,-0.75787 9.1532,-2.7288 12.845,-5.9898 0.916,-0.91425 -0.3749,-3.6671 -0.6405,-5.5658 -4.6111,4.7937 -10.081,6.9258 -16.057,7.4873"
         fill="#287028"
         fill-rule="evenodd"
         stroke="#000000"
         stroke-linejoin="round"
         stroke-width="0.99921"
         id="path16036" />
      <circle
         transform="rotate(-25)"
         cx="2407.1001"
         cy="952.94"
         r="1.7717"
         fill="#00000f"
         fill-opacity="0.94118"
         stroke="#00000f"
         stroke-linejoin="round"
         stroke-opacity="0.94118"
         stroke-width="0.99921"
         id="circle16038" />
      <circle
         transform="rotate(-25)"
         cx="2407"
         cy="1158.4"
         r="1.7717"
         fill="#00000f"
         fill-opacity="0.94118"
         stroke="#00000f"
         stroke-linejoin="round"
         stroke-opacity="0.94118"
         stroke-width="0.99921"
         id="circle16040" />
      <path
         d="m 2619.7,-72.392 11.98,25.691"
         fill="none"
         stroke="#000000"
         stroke-width="5.315"
         id="path16042" />
      <path
         d="m 2626.1,-75.387 11.98,25.691"
         fill="none"
         stroke="#000000"
         stroke-width="0.99921"
         id="path16044" />
      <ellipse
         transform="rotate(-25)"
         cx="2368.3"
         cy="1032.3"
         rx="8.8583002"
         ry="19.488001"
         fill="#dd1d1d"
         stroke="#00000f"
         stroke-linejoin="round"
         stroke-opacity="0.94118"
         stroke-width="0.99921"
         id="ellipse16046" />
      <path
         d="M 2608.3,-48.622 2584.34,2.759"
         fill="none"
         stroke="#000000"
         stroke-width="5.315"
         id="path16048" />
      <path
         d="m 2588.6,-56.326 23.96,51.381"
         fill="none"
         stroke="#1780ce"
         stroke-width="6.0236"
         id="path16050" />
      <path
         d="m 2579.6,1.1145 -4.6005,5.6739 c -0.5501,1.0423 -1.0799,2.9137 0.1081,3.96 0.3475,0.2172 0.3002,0.36684 1.6057,0.74876 1.0872,0.14209 1.6745,-0.42298 2.3544,-0.857 l 5.3493,-7.2795 -5.3493,7.2795 c -0.9564,1.4765 -1.2092,2.6571 0.1082,3.9601 1.4747,1.5623 2.3227,1.3358 3.2114,1.4975 2.3661,0.017 2.7249,-1.8962 3.103,-2.4626 l 2.1381,-8.777 -2.1381,8.777 c -0.093,1.3005 0.4138,1.7826 0.857,2.3545 0.7161,0.48409 1.3565,0.78513 1.6056,0.74871 2.4096,-0.0981 2.221,-1.5618 3.1032,-2.4626 l 1.3892,-7.1714"
         fill="none"
         stroke="#000000"
         stroke-width="1px"
         id="path16052" />
      <ellipse
         transform="rotate(25)"
         cx="2345.5"
         cy="-1091.5"
         rx="9.7440996"
         ry="4.4291"
         fill="#e9c13a"
         opacity="0.99"
         stroke="#00000f"
         stroke-linejoin="round"
         stroke-opacity="0.94118"
         stroke-width="0.99921"
         id="ellipse16054" />
      <ellipse
         transform="rotate(-25)"
         cx="2368.1001"
         cy="1195.3"
         rx="8.8583002"
         ry="19.488001"
         fill="#dd1d1d"
         stroke="#00000f"
         stroke-linejoin="round"
         stroke-opacity="0.94118"
         stroke-width="0.99921"
         id="ellipse16056" />
      <path
         d="m 2591.5,-57.674 23.96,51.381"
         fill="none"
         stroke="#000000"
         stroke-width="0.99921"
         id="path16058" />
      <ellipse
         transform="rotate(25)"
         cx="2345.5"
         cy="-1091.5"
         rx="6.2007999"
         ry="0.88582999"
         fill="#e9c13a"
         opacity="0.99"
         stroke="#00000f"
         stroke-linejoin="round"
         stroke-opacity="0.94118"
         stroke-width="0.99921"
         id="ellipse16060" />
      <path
         d="m 2585.1,-54.679 23.96,51.381"
         fill="none"
         stroke="#000000"
         stroke-width="5.315"
         id="path16062" />
      <path
         d="m 2580.5,-53.096 -4.6005,-5.6739 c -0.5501,-1.0423 -1.0799,-2.9137 0.1081,-3.96 0.3475,-0.2172 0.3002,-0.36693 1.6057,-0.74876 1.0872,-0.14218 1.6745,0.42299 2.3544,0.857 l 5.3493,7.2795 -5.3493,-7.2795 c -0.9564,-1.4765 -1.2092,-2.6571 0.1082,-3.9601 1.4747,-1.5624 2.3227,-1.336 3.2114,-1.4975 2.366,-0.017 2.725,1.8962 3.103,2.4626 l 2.1381,8.777 -2.1381,-8.777 c -0.093,-1.3005 0.4137,-1.7826 0.857,-2.3545 0.7161,-0.48418 1.3564,-0.78522 1.6056,-0.74871 2.4096,0.0981 2.221,1.5617 3.1032,2.4626 l 1.3892,7.1714"
         fill="none"
         stroke="#000000"
         stroke-width="1px"
         id="path16064" />
      <path
         d="m 2640.7,76.328 1.3894,7.1714 c 0.4449,1.0913 1.5379,2.7001 3.103,2.4626 0.3898,-0.12656 0.474,0.006 1.6057,-0.74875 0.8077,-0.74152 0.7523,-1.5546 0.8569,-2.3544 l -2.1379,-8.777 2.1379,8.777 c 0.5163,1.6818 1.2582,2.6343 3.1032,2.4626 2.1447,-0.12545 2.5163,-0.92058 3.2113,-1.4975 1.5339,-1.8017 0.299,-3.3063 0.1081,-3.96 l -5.3492,-7.2796 5.3492,7.2796 c 0.9368,0.90689 1.6315,0.82887 2.3545,0.85695 0.8311,-0.2374 1.4734,-0.53445 1.6056,-0.74871 1.4738,-1.9089 0.2313,-2.7053 0.1083,-3.9601 l -4.6007,-5.6739"
         fill="none"
         stroke="#000000"
         stroke-width="1px"
         id="path16066" />
      <ellipse
         transform="rotate(-25)"
         cx="2368.3"
         cy="1044.7"
         rx="9.7440996"
         ry="4.4291"
         fill="#e9c13a"
         opacity="0.99"
         stroke="#00000f"
         stroke-linejoin="round"
         stroke-opacity="0.94118"
         stroke-width="0.99921"
         id="ellipse16068" />
      <ellipse
         transform="rotate(-25)"
         cx="2368.3"
         cy="1044.7"
         rx="6.2007999"
         ry="0.88582999"
         fill="#e9c13a"
         opacity="0.99"
         stroke="#00000f"
         stroke-linejoin="round"
         stroke-opacity="0.94118"
         stroke-width="0.99921"
         id="ellipse16070" />
      <path
         d="m 2573.9,-63.135 c -0.2174,-1.8559 -1.8119,-3.9472 -0.6406,-5.5657 3.7042,-3.2354 7.9739,-5.2577 12.845,-5.9898 1.2891,-0.11398 2.5682,2.6444 3.852,4.0683 -6.6362,0.45102 -11.785,3.2703 -16.057,7.4873"
         fill="#287028"
         fill-rule="evenodd"
         stroke="#000000"
         stroke-linejoin="round"
         stroke-width="0.99921"
         id="path16072" />
      <path
         d="m 2644.3,88.198 c 1.2819,1.3595 1.859,3.9252 3.8518,4.0683 4.8594,-0.75787 9.1532,-2.7288 12.845,-5.9898 0.9159,-0.91425 -0.3749,-3.6671 -0.6405,-5.5658 -4.6111,4.7937 -10.081,6.9258 -16.057,7.4873"
         fill="#287028"
         fill-rule="evenodd"
         stroke="#000000"
         stroke-linejoin="round"
         stroke-width="0.99921"
         id="path16074" />
      <circle
         transform="rotate(-25)"
         cx="2368.3"
         cy="1011.1"
         r="1.7717"
         fill="#00000f"
         fill-opacity="0.94118"
         stroke="#00000f"
         stroke-linejoin="round"
         stroke-opacity="0.94118"
         stroke-width="0.99921"
         id="circle16076" />
      <circle
         transform="rotate(-25)"
         cx="2368.1001"
         cy="1216.6"
         r="1.7717"
         fill="#00000f"
         fill-opacity="0.94118"
         stroke="#00000f"
         stroke-linejoin="round"
         stroke-opacity="0.94118"
         stroke-width="0.99921"
         id="circle16078" />
      <path
         d="m 2640.1,-128.19 1.3893,-7.1714 c 0.4449,-1.0913 1.538,-2.7001 3.1031,-2.4626 0.3897,0.1266 0.474,-0.01 1.6057,0.7488 0.8078,0.7414 0.7523,1.5546 0.8569,2.3544 l -2.1379,8.777 2.1379,-8.777 c 0.5163,-1.6818 1.2582,-2.6343 3.1032,-2.4626 2.1447,0.1254 2.5163,0.9205 3.2113,1.4975 1.5339,1.8016 0.299,3.3063 0.1081,3.96 l -5.3492,7.2796 5.3492,-7.2796 c 0.9368,-0.9069 1.6315,-0.829 2.3545,-0.8569 0.8312,0.2373 1.4734,0.5343 1.6056,0.7487 1.4737,1.9089 0.2313,2.7052 0.1082,3.96 l -4.6006,5.6739"
         fill="none"
         stroke="#000000"
         stroke-width="1px"
         id="path16080" />
      <ellipse
         transform="rotate(25)"
         cx="2345.6001"
         cy="-1229.7"
         rx="9.7440996"
         ry="4.4291"
         fill="#e9c13a"
         opacity="0.99"
         stroke="#00000f"
         stroke-linejoin="round"
         stroke-opacity="0.94118"
         stroke-width="0.99921"
         id="ellipse16082" />
      <ellipse
         transform="rotate(25)"
         cx="2345.6001"
         cy="-1229.7"
         rx="6.2007999"
         ry="0.88582999"
         fill="#e9c13a"
         opacity="0.99"
         stroke="#00000f"
         stroke-linejoin="round"
         stroke-opacity="0.94118"
         stroke-width="0.99921"
         id="ellipse16084" />
      <path
         d="m 2643.5,-139.72 c 1.2818,-1.3595 1.859,-3.9252 3.8518,-4.0683 4.8594,0.7579 9.1532,2.7288 12.845,5.9899 0.9159,0.9142 -0.3749,3.6671 -0.6405,5.5658 -4.6112,-4.7937 -10.081,-6.9259 -16.057,-7.4874"
         fill="#1780ce"
         fill-rule="evenodd"
         stroke="#000000"
         stroke-linejoin="round"
         stroke-width="0.99921"
         id="path16086" />
      <path
         d="m 2572.8,11.483 c -0.2175,1.8559 -1.8119,3.9472 -0.6406,5.5657 3.7042,3.2354 7.9739,5.2577 12.845,5.9899 1.2891,0.11398 2.5682,-2.6444 3.8519,-4.0683 -6.6361,-0.45101 -11.785,-3.2703 -16.057,-7.4873"
         fill="#1780ce"
         fill-rule="evenodd"
         stroke="#000000"
         stroke-linejoin="round"
         stroke-width="0.99921"
         id="path16088" />
      <circle
         transform="rotate(25)"
         cx="2345.6001"
         cy="-1263.3"
         r="1.7717"
         fill="#00000f"
         fill-opacity="0.94118"
         stroke="#00000f"
         stroke-linejoin="round"
         stroke-opacity="0.94118"
         stroke-width="0.99921"
         id="circle16090" />
      <circle
         transform="rotate(25)"
         cx="2345.5"
         cy="-1057.8"
         r="1.7717"
         fill="#00000f"
         fill-opacity="0.94118"
         stroke="#00000f"
         stroke-linejoin="round"
         stroke-opacity="0.94118"
         stroke-width="0.99921"
         id="circle16092" />
      <ellipse
         transform="rotate(25)"
         cx="2365.3999"
         cy="-1212.2"
         rx="8.8583002"
         ry="19.488001"
         fill="#1780ce"
         stroke="#00000f"
         stroke-linejoin="round"
         stroke-opacity="0.94118"
         stroke-width="0.99921"
         id="ellipse16094" />
      <ellipse
         transform="rotate(25)"
         cx="2365.3"
         cy="-1049.2"
         rx="8.8583002"
         ry="19.488001"
         fill="#1780ce"
         stroke="#00000f"
         stroke-linejoin="round"
         stroke-opacity="0.94118"
         stroke-width="0.99921"
         id="ellipse16096" />
      <path
         d="m 2645.4,-92.753 1.3893,-7.1714 c 0.4449,-1.0913 1.5379,-2.7001 3.1031,-2.4626 0.3897,0.12656 0.474,-0.006 1.6057,0.74875 0.8077,0.74143 0.7523,1.5546 0.8568,2.3544 l -2.1379,8.777 2.1379,-8.777 c 0.5164,-1.6818 1.2582,-2.6343 3.1032,-2.4626 2.1448,0.12536 2.5164,0.92049 3.2113,1.4975 1.534,1.8016 0.299,3.3063 0.1082,3.96 l -5.3493,7.2796 5.3493,-7.2796 c 0.9367,-0.90689 1.6315,-0.82897 2.3544,-0.85695 0.8312,0.23731 1.4735,0.53436 1.6057,0.74871 1.4737,1.9089 0.2313,2.7052 0.1082,3.9601 l -4.6006,5.6739"
         fill="none"
         stroke="#000000"
         stroke-width="1px"
         id="path16098" />
      <path
         d="m 2584.9,36.548 -4.6006,5.6739 c -0.55,1.0423 -1.0798,2.9137 0.1082,3.96 0.3474,0.2172 0.3002,0.36684 1.6057,0.74876 1.0872,0.14209 1.6744,-0.42298 2.3543,-0.857 l 5.3494,-7.2795 -5.3494,7.2795 c -0.9564,1.4765 -1.2092,2.6571 0.1083,3.9601 1.4747,1.5623 2.3226,1.3358 3.2113,1.4975 2.3661,0.017 2.725,-1.8962 3.1031,-2.4626 l 2.138,-8.777 -2.138,8.777 c -0.093,1.3005 0.4137,1.7826 0.8569,2.3545 0.7161,0.48409 1.3565,0.78513 1.6057,0.74871 2.4096,-0.0981 2.221,-1.5618 3.1031,-2.4626 l 1.3892,-7.1714"
         fill="none"
         stroke="#000000"
         stroke-width="1px"
         id="path16100" />
      <path
         d="m 2648.8,-104.28 c 1.2819,-1.3595 1.8591,-3.9252 3.8519,-4.0683 4.8594,0.7579 9.1531,2.7288 12.845,5.9899 0.916,0.91425 -0.3749,3.6671 -0.6405,5.5658 -4.6111,-4.7937 -10.081,-6.9258 -16.057,-7.4873"
         fill="#f4f2ef"
         fill-rule="evenodd"
         stroke="#000000"
         stroke-linejoin="round"
         stroke-width="0.99921"
         id="path16102" />
      <path
         d="m 2578.1,46.916 c -0.2175,1.8559 -1.8119,3.9472 -0.6406,5.5657 3.7041,3.2354 7.9739,5.2577 12.845,5.9899 1.2891,0.11398 2.5682,-2.6444 3.8519,-4.0683 -6.6362,-0.45101 -11.785,-3.2703 -16.057,-7.4873"
         fill="#f4f2ef"
         fill-rule="evenodd"
         stroke="#000000"
         stroke-linejoin="round"
         stroke-width="0.99921"
         id="path16104" />
      <circle
         transform="rotate(25)"
         cx="2365.3999"
         cy="-1233.4"
         r="1.7717"
         fill="#00000f"
         fill-opacity="0.94118"
         stroke="#00000f"
         stroke-linejoin="round"
         stroke-opacity="0.94118"
         stroke-width="0.99921"
         id="circle16106" />
      <circle
         transform="rotate(25)"
         cx="2365.3"
         cy="-1027.9"
         r="1.7717"
         fill="#00000f"
         fill-opacity="0.94118"
         stroke="#00000f"
         stroke-linejoin="round"
         stroke-opacity="0.94118"
         stroke-width="0.99921"
         id="circle16108" />
      <path
         d="m 2634.4,-3.5709 -11.98,25.691"
         fill="none"
         stroke="#dd1d1d"
         stroke-width="6.0236"
         id="path16110" />
      <ellipse
         transform="rotate(25)"
         cx="2384.5"
         cy="-1183.9"
         rx="8.8583002"
         ry="19.488001"
         fill="#dd1d1d"
         stroke="#00000f"
         stroke-linejoin="round"
         stroke-opacity="0.94118"
         stroke-width="0.99921"
         id="ellipse16112" />
      <path
         d="m 2658.4,-54.952 -23.96,51.381"
         fill="none"
         stroke="#dd1d1d"
         stroke-width="6.0236"
         id="path16114" />
      <ellipse
         transform="rotate(25)"
         cx="2384.3"
         cy="-1020.9"
         rx="8.8583002"
         ry="19.488001"
         fill="#dd1d1d"
         stroke="#00000f"
         stroke-linejoin="round"
         stroke-opacity="0.94118"
         stroke-width="0.99921"
         id="ellipse16116" />
      <path
         d="m 2622.5,22.12 -23.96,51.381"
         fill="none"
         stroke="#dd1d1d"
         stroke-width="6.0236"
         id="path16118" />
      <path
         d="m 2625.4,23.468 -23.96,51.381"
         fill="none"
         stroke="#000000"
         stroke-width="0.99921"
         id="path16120" />
      <path
         d="m 2661.3,-53.604 -23.96,51.381"
         fill="none"
         stroke="#000000"
         stroke-width="0.99921"
         id="path16122" />
      <path
         d="m 2618.9,20.473 -23.96,51.381"
         fill="none"
         stroke="#000000"
         stroke-width="5.315"
         id="path16124" />
      <path
         d="m 2654.9,-56.599 -23.96,51.381"
         fill="none"
         stroke="#000000"
         stroke-width="5.315"
         id="path16126" />
      <path
         d="m 2635.2,-48.349 23.96,51.381"
         fill="none"
         stroke="#1780ce"
         stroke-width="6.0236"
         id="path16128" />
      <path
         d="m 2650.7,-59.092 1.3894,-7.1714 c 0.4449,-1.0913 1.5379,-2.7001 3.103,-2.4626 0.3898,0.12656 0.4741,-0.006 1.6057,0.74875 0.8078,0.74143 0.7523,1.5546 0.8569,2.3544 l -2.1379,8.777 2.1379,-8.777 c 0.5163,-1.6818 1.2582,-2.6343 3.1032,-2.4626 2.1447,0.12536 2.5163,0.92049 3.2113,1.4975 1.5339,1.8016 0.299,3.3063 0.1081,3.96 l -5.3492,7.2796 5.3492,-7.2796 c 0.9368,-0.90689 1.6315,-0.82897 2.3545,-0.85695 0.8312,0.23731 1.4734,0.53436 1.6056,0.74871 1.4738,1.9089 0.2313,2.7052 0.1083,3.9601 l -4.6007,5.6739"
         fill="none"
         stroke="#000000"
         stroke-width="1px"
         id="path16130" />
      <path
         d="m 2590.3,70.209 -4.6005,5.6739 c -0.55,1.0423 -1.0799,2.9137 0.1081,3.96 0.3475,0.2172 0.3002,0.36684 1.6057,0.74876 1.0873,0.14209 1.6745,-0.42298 2.3544,-0.857 l 5.3494,-7.2795 -5.3494,7.2795 c -0.9564,1.4765 -1.2092,2.6571 0.1083,3.9601 1.4747,1.5623 2.3226,1.3358 3.2113,1.4975 2.3661,0.017 2.725,-1.8962 3.1031,-2.4626 l 2.138,-8.777 -2.138,8.777 c -0.093,1.3005 0.4137,1.7826 0.8569,2.3545 0.7161,0.48409 1.3565,0.78513 1.6056,0.74871 2.4096,-0.0981 2.221,-1.5618 3.1032,-2.4626 l 1.3892,-7.1714"
         fill="none"
         stroke="#000000"
         stroke-width="1px"
         id="path16132" />
      <ellipse
         transform="rotate(25)"
         cx="2384.5"
         cy="-1171.5"
         rx="9.7440996"
         ry="4.4291"
         fill="#e9c13a"
         opacity="0.99"
         stroke="#00000f"
         stroke-linejoin="round"
         stroke-opacity="0.94118"
         stroke-width="0.99921"
         id="ellipse16134" />
      <path
         d="m 2638.1,-49.697 23.959,51.381"
         fill="none"
         stroke="#000000"
         stroke-width="0.99921"
         id="path16136" />
      <ellipse
         transform="rotate(25)"
         cx="2384.5"
         cy="-1171.5"
         rx="6.2007999"
         ry="0.88582999"
         fill="#e9c13a"
         opacity="0.99"
         stroke="#00000f"
         stroke-linejoin="round"
         stroke-opacity="0.94118"
         stroke-width="0.99921"
         id="ellipse16138" />
      <ellipse
         transform="rotate(25)"
         cx="2384.3"
         cy="-1033.3"
         rx="9.7440996"
         ry="4.4291"
         fill="#e9c13a"
         opacity="0.99"
         stroke="#00000f"
         stroke-linejoin="round"
         stroke-opacity="0.94118"
         stroke-width="0.99921"
         id="ellipse16140" />
      <ellipse
         transform="rotate(25)"
         cx="2384.3"
         cy="-1033.3"
         rx="6.2007999"
         ry="0.88582999"
         fill="#e9c13a"
         opacity="0.99"
         stroke="#00000f"
         stroke-linejoin="round"
         stroke-opacity="0.94118"
         stroke-width="0.99921"
         id="ellipse16142" />
      <path
         d="m 2654.1,-70.623 c 1.2819,-1.3595 1.859,-3.9252 3.8518,-4.0683 4.8594,0.75787 9.1532,2.7288 12.845,5.9898 0.9159,0.91425 -0.3749,3.6671 -0.6405,5.5658 -4.6111,-4.7937 -10.081,-6.9258 -16.057,-7.4873"
         fill="#1780ce"
         fill-rule="evenodd"
         stroke="#000000"
         stroke-linejoin="round"
         stroke-width="0.99921"
         id="path16144" />
      <path
         d="m 2583.5,80.577 c -0.2174,1.8559 -1.8119,3.9472 -0.6406,5.5657 3.7042,3.2354 7.9739,5.2577 12.845,5.9899 1.2891,0.11398 2.5682,-2.6444 3.852,-4.0683 -6.6362,-0.45101 -11.785,-3.2703 -16.057,-7.4873"
         fill="#1780ce"
         fill-rule="evenodd"
         stroke="#000000"
         stroke-linejoin="round"
         stroke-width="0.99921"
         id="path16146" />
      <circle
         transform="rotate(25)"
         cx="2384.5"
         cy="-1205.2"
         r="1.7717"
         fill="#00000f"
         fill-opacity="0.94118"
         stroke="#00000f"
         stroke-linejoin="round"
         stroke-opacity="0.94118"
         stroke-width="0.99921"
         id="circle16148" />
      <circle
         transform="rotate(25)"
         cx="2384.3"
         cy="-999.66998"
         r="1.7717"
         fill="#00000f"
         fill-opacity="0.94118"
         stroke="#00000f"
         stroke-linejoin="round"
         stroke-opacity="0.94118"
         stroke-width="0.99921"
         id="circle16150" />
      <path
         d="m 2630.9,-5.2181 -11.98,25.691"
         fill="none"
         stroke="#000000"
         stroke-width="5.315"
         id="path16152" />
      <path
         d="m 2631.7,-46.702 23.96,51.381"
         fill="none"
         stroke="#000000"
         stroke-width="5.315"
         id="path16154" />
      <path
         d="m 2653.1,-88.614 -23.959,51.381"
         fill="none"
         stroke="#dd1d1d"
         stroke-width="6.0236"
         id="path16156" />
      <path
         d="m 2656,-87.266 -23.96,51.381"
         fill="none"
         stroke="#000000"
         stroke-width="0.99921"
         id="path16158" />
      <path
         d="m 2649.6,-90.261 -23.96,51.381"
         fill="none"
         stroke="#000000"
         stroke-width="5.315"
         id="path16160" />
      <ellipse
         transform="rotate(25)"
         cx="2365.3999"
         cy="-1199.8"
         rx="9.7440996"
         ry="4.4291"
         fill="#e9c13a"
         opacity="0.99"
         stroke="#00000f"
         stroke-linejoin="round"
         stroke-opacity="0.94118"
         stroke-width="0.99921"
         id="ellipse16162" />
      <ellipse
         transform="rotate(25)"
         cx="2365.3999"
         cy="-1199.8"
         rx="6.2007999"
         ry="0.88582999"
         fill="#e9c13a"
         opacity="0.99"
         stroke="#00000f"
         stroke-linejoin="round"
         stroke-opacity="0.94118"
         stroke-width="0.99921"
         id="ellipse16164" />
      <path
         d="m 2637.3,-2.223 -11.98,25.691"
         fill="none"
         stroke="#000000"
         stroke-width="0.99921"
         id="path16166" />
      <path
         d="m 2612.6,-4.945 11.98,25.691"
         fill="none"
         stroke="#1780ce"
         stroke-width="6.0236"
         id="path16168" />
      <path
         d="m 2624.6,20.746 23.96,51.381"
         fill="none"
         stroke="#1780ce"
         stroke-width="6.0236"
         id="path16170" />
      <path
         d="m 2627.5,19.398 23.96,51.381"
         fill="none"
         stroke="#000000"
         stroke-width="0.99921"
         id="path16172" />
      <path
         d="m 2609.1,-3.2979 11.98,25.691"
         fill="none"
         stroke="#000000"
         stroke-width="5.315"
         id="path16174" />
      <path
         d="m 2621,22.393 23.96,51.381"
         fill="none"
         stroke="#000000"
         stroke-width="5.315"
         id="path16176" />
      <path
         d="m 2615.5,-6.293 11.98,25.691"
         fill="none"
         stroke="#000000"
         stroke-width="0.99921"
         id="path16178" />
      <path
         d="m 2617.2,-11.542 -23.96,51.381"
         fill="none"
         stroke="#dd1d1d"
         stroke-width="6.0236"
         id="path16180" />
      <path
         d="m 2620,-10.194 -23.96,51.381"
         fill="none"
         stroke="#000000"
         stroke-width="0.99921"
         id="path16182" />
      <path
         d="m 2613.6,-13.189 -23.96,51.381"
         fill="none"
         stroke="#000000"
         stroke-width="5.315"
         id="path16184" />
      <ellipse
         transform="rotate(25)"
         cx="2365.3"
         cy="-1061.6"
         rx="9.7440996"
         ry="4.4291"
         fill="#e9c13a"
         opacity="0.99"
         stroke="#00000f"
         stroke-linejoin="round"
         stroke-opacity="0.94118"
         stroke-width="0.99921"
         id="ellipse16186" />
      <ellipse
         transform="rotate(25)"
         cx="2365.3"
         cy="-1061.6"
         rx="6.2007999"
         ry="0.88582999"
         fill="#e9c13a"
         opacity="0.99"
         stroke="#00000f"
         stroke-linejoin="round"
         stroke-opacity="0.94118"
         stroke-width="0.99921"
         id="ellipse16188" />
      <ellipse
         transform="rotate(-25)"
         cx="2368.1001"
         cy="1182.9"
         rx="9.7440996"
         ry="4.4291"
         fill="#e9c13a"
         opacity="0.99"
         stroke="#00000f"
         stroke-linejoin="round"
         stroke-opacity="0.94118"
         stroke-width="0.99921"
         id="ellipse16190" />
      <ellipse
         transform="rotate(-25)"
         cx="2368.1001"
         cy="1182.9"
         rx="6.2007999"
         ry="0.88582999"
         fill="#e9c13a"
         opacity="0.99"
         stroke="#00000f"
         stroke-linejoin="round"
         stroke-opacity="0.94118"
         stroke-width="0.99921"
         id="ellipse16192" />
      <ellipse
         transform="rotate(-25)"
         cx="2407"
         cy="1124.8"
         rx="9.7440996"
         ry="4.4291"
         fill="#e9c13a"
         opacity="0.99"
         stroke="#00000f"
         stroke-linejoin="round"
         stroke-opacity="0.94118"
         stroke-width="0.99921"
         id="ellipse16194" />
      <ellipse
         transform="rotate(-25)"
         cx="2407"
         cy="1124.8"
         rx="6.2007999"
         ry="0.88582999"
         fill="#e9c13a"
         opacity="0.99"
         stroke="#00000f"
         stroke-linejoin="round"
         stroke-opacity="0.94118"
         stroke-width="0.99921"
         id="ellipse16196" />
    </g>
    <g
       transform="translate(-159.75,3.5445)"
       fill-rule="evenodd"
       stroke-linejoin="round"
       id="g16210">
      <path
         d="m 1036.7,1274.5 -5.513,12.752 5.513,12.752 5.513,-12.752 z"
         stroke="#000000"
         stroke-width="0.29055"
         id="path16200" />
      <path
         d="m 1036.9,1280.3 -0.7811,3.7053 0.7811,3.7054 0.7815,-3.7054 -0.7815,-3.7053"
         fill="#e9c13a"
         stroke="#e9c13a"
         stroke-linecap="round"
         stroke-width="0.99921"
         id="path16202" />
      <path
         d="m 1036.9,1287.2 -0.7811,3.7054 0.7811,3.7054 0.7815,-3.7054 -0.7815,-3.7054"
         fill="#e9c13a"
         stroke="#e9c13a"
         stroke-linecap="round"
         stroke-width="0.99921"
         id="path16204" />
      <path
         d="m 1036.6,1287.2 -1.7643,-0.6554 -1.7644,0.6554 1.7644,0.6556 1.7643,-0.6556"
         fill="#e9c13a"
         stroke="#e9c13a"
         stroke-linecap="round"
         stroke-width="0.99921"
         id="path16206" />
      <path
         d="m 1040.7,1287.2 -1.7643,-0.6554 -1.7644,0.6554 1.7644,0.6556 1.7643,-0.6556"
         fill="#e9c13a"
         stroke="#e9c13a"
         stroke-linecap="round"
         stroke-width="0.99921"
         id="path16208" />
    </g>
    <path
       d="m 866.23,1301.4 -5.513,12.752 5.513,12.752 5.513,-12.752 z"
       fill-rule="evenodd"
       stroke="#000000"
       stroke-linejoin="round"
       stroke-width="0.29055"
       id="path16212" />
    <path
       d="m 866.41,1307.2 -0.7811,3.7053 0.7811,3.7054 0.7815,-3.7054 -0.7815,-3.7053"
       fill="#e9c13a"
       fill-rule="evenodd"
       stroke="#e9c13a"
       stroke-linecap="round"
       stroke-linejoin="round"
       stroke-width="0.99921"
       id="path16214" />
    <path
       d="m 866.41,1314.2 -0.7811,3.7054 0.7811,3.7054 0.7815,-3.7054 -0.7815,-3.7054"
       fill="#e9c13a"
       fill-rule="evenodd"
       stroke="#e9c13a"
       stroke-linecap="round"
       stroke-linejoin="round"
       stroke-width="0.99921"
       id="path16216" />
    <path
       d="m 866.09,1314.2 -1.7643,-0.6554 -1.7644,0.6554 1.7644,0.6556 1.7643,-0.6556"
       fill="#e9c13a"
       fill-rule="evenodd"
       stroke="#e9c13a"
       stroke-linecap="round"
       stroke-linejoin="round"
       stroke-width="0.99921"
       id="path16218" />
    <path
       d="m 870.2,1314.2 -1.7643,-0.6554 -1.7644,0.6554 1.7644,0.6556 1.7643,-0.6556"
       fill="#e9c13a"
       fill-rule="evenodd"
       stroke="#e9c13a"
       stroke-linecap="round"
       stroke-linejoin="round"
       stroke-width="0.99921"
       id="path16220" />
    <path
       d="m 876.97,1324.1 -5.513,12.752 5.513,12.752 5.513,-12.752 z"
       fill-rule="evenodd"
       stroke="#000000"
       stroke-linejoin="round"
       stroke-width="0.29055"
       id="path16222" />
    <path
       d="m 877.15,1329.9 -0.7811,3.7053 0.7811,3.7054 0.7815,-3.7054 -0.7815,-3.7053"
       fill="#e9c13a"
       fill-rule="evenodd"
       stroke="#e9c13a"
       stroke-linecap="round"
       stroke-linejoin="round"
       stroke-width="0.99921"
       id="path16224" />
    <path
       d="m 877.15,1336.8 -0.7811,3.7054 0.7811,3.7054 0.7815,-3.7054 -0.7815,-3.7054"
       fill="#e9c13a"
       fill-rule="evenodd"
       stroke="#e9c13a"
       stroke-linecap="round"
       stroke-linejoin="round"
       stroke-width="0.99921"
       id="path16226" />
    <path
       d="m 876.84,1336.8 -1.7643,-0.6554 -1.7644,0.6554 1.7644,0.6556 1.7643,-0.6556"
       fill="#e9c13a"
       fill-rule="evenodd"
       stroke="#e9c13a"
       stroke-linecap="round"
       stroke-linejoin="round"
       stroke-width="0.99921"
       id="path16228" />
    <path
       d="m 880.95,1336.8 -1.7643,-0.6554 -1.7644,0.6554 1.7644,0.6556 1.7643,-0.6556"
       fill="#e9c13a"
       fill-rule="evenodd"
       stroke="#e9c13a"
       stroke-linecap="round"
       stroke-linejoin="round"
       stroke-width="0.99921"
       id="path16230" />
    <path
       d="m 887.99,1301.4 -5.513,12.752 5.513,12.752 5.513,-12.752 z"
       fill-rule="evenodd"
       stroke="#000000"
       stroke-linejoin="round"
       stroke-width="0.29055"
       id="path16232" />
    <path
       d="m 888.17,1307.2 -0.7811,3.7053 0.7811,3.7054 0.7815,-3.7054 -0.7815,-3.7053"
       fill="#e9c13a"
       fill-rule="evenodd"
       stroke="#e9c13a"
       stroke-linecap="round"
       stroke-linejoin="round"
       stroke-width="0.99921"
       id="path16234" />
    <path
       d="m 888.17,1314.2 -0.7811,3.7054 0.7811,3.7054 0.7815,-3.7054 -0.7815,-3.7054"
       fill="#e9c13a"
       fill-rule="evenodd"
       stroke="#e9c13a"
       stroke-linecap="round"
       stroke-linejoin="round"
       stroke-width="0.99921"
       id="path16236" />
    <path
       d="m 887.86,1314.2 -1.7643,-0.6554 -1.7644,0.6554 1.7644,0.6556 1.7643,-0.6556"
       fill="#e9c13a"
       fill-rule="evenodd"
       stroke="#e9c13a"
       stroke-linecap="round"
       stroke-linejoin="round"
       stroke-width="0.99921"
       id="path16238" />
    <path
       d="m 891.97,1314.2 -1.7643,-0.6554 -1.7644,0.6554 1.7644,0.6556 1.7643,-0.6556"
       fill="#e9c13a"
       fill-rule="evenodd"
       stroke="#e9c13a"
       stroke-linecap="round"
       stroke-linejoin="round"
       stroke-width="0.99921"
       id="path16240" />
  </g>
</svg>
