<?xml version="1.0" encoding="UTF-8" standalone="no"?>
<svg
   width="43.004944mm"
   height="88.005722mm"
   enable-background="new"
   version="1.1"
   viewBox="0 0 152.38085 311.83033"
   id="svg20076"
   sodipodi:docname="Mazzo.svg"
   inkscape:version="1.2.1 (9c6d41e410, 2022-07-14)"
   xmlns:inkscape="http://www.inkscape.org/namespaces/inkscape"
   xmlns:sodipodi="http://sodipodi.sourceforge.net/DTD/sodipodi-0.dtd"
   xmlns:xlink="http://www.w3.org/1999/xlink"
   xmlns="http://www.w3.org/2000/svg"
   xmlns:svg="http://www.w3.org/2000/svg"
   xmlns:rdf="http://www.w3.org/1999/02/22-rdf-syntax-ns#"
   xmlns:cc="http://creativecommons.org/ns#"
   xmlns:dc="http://purl.org/dc/elements/1.1/">
  <sodipodi:namedview
     id="namedview20078"
     pagecolor="#ffffff"
     bordercolor="#000000"
     borderopacity="0.25"
     inkscape:showpageshadow="2"
     inkscape:pageopacity="0.0"
     inkscape:pagecheckerboard="0"
     inkscape:deskcolor="#d1d1d1"
     inkscape:document-units="mm"
     showgrid="false"
     inkscape:zoom="2.8284271"
     inkscape:cx="196.57568"
     inkscape:cy="470.75634"
     inkscape:window-width="2560"
     inkscape:window-height="1409"
     inkscape:window-x="0"
     inkscape:window-y="31"
     inkscape:window-maximized="1"
     inkscape:current-layer="svg20076" />
  <title
     id="title2">Bresciane</title>
  <defs
     id="defs191">
    <pattern
       id="t"
       xlink:href="#m"
       patternTransform="translate(79.153 820.6)" />
    <pattern
       id="m"
       width="3.542969"
       height="4.72461"
       patternTransform="translate(-52.264 805.51)"
       patternUnits="userSpaceOnUse">
      <path
         d="m0 0v0.53906l0.48242 0.64258-0.48242 0.64453v1.0742l0.48242 0.64258-0.48242 0.64258v0.53906h0.40625l-0.001953-0.00195 0.48047-0.64258 0.48438 0.64453h0.80664l0.48242-0.64258 0.48242 0.64258h0.40234v-0.53711l-0.48242-0.64258 0.48242-0.64453v-1.0762l-0.48242-0.64258 0.48242-0.64453v-0.53711h-0.40234l-0.48242 0.64258-0.48242-0.64258h-0.80664l-0.48242 0.64453-0.48242-0.64258 0.001953-0.00195h-0.40625zm1.7715 0.53711 0.48242 0.64453-0.48242 0.64258-0.48242-0.64258 0.48242-0.64453zm-0.88476 1.1816 0.48242 0.64258-0.48438 0.64453-0.48242-0.64258 0.48438-0.64453zm1.7715 0 0.48242 0.64453-0.48242 0.64258-0.48438-0.64258 0.48438-0.64453zm-0.88672 1.1816 0.48242 0.64258-0.48242 0.64453-0.48242-0.64453 0.48242-0.64258z"
         color="#000000"
         color-rendering="auto"
         enable-background="accumulate"
         fill-rule="evenodd"
         image-rendering="auto"
         shape-rendering="auto"
         solid-color="#000000"
         style="block-progression:tb;isolation:auto;mix-blend-mode:normal;text-decoration-color:#000000;text-decoration-line:none;text-decoration-style:solid;text-indent:0;text-transform:none;white-space:normal"
         id="path182" />
    </pattern>
  </defs>
  <metadata
     id="metadata193">
    <rdf:RDF>
      <cc:Work
         rdf:about="">
        <dc:format>image/svg+xml</dc:format>
        <dc:type
           rdf:resource="http://purl.org/dc/dcmitype/StillImage" />
        <dc:title>Bresciane</dc:title>
        <dc:date>2020</dc:date>
        <dc:creator>
          <cc:Agent>
            <dc:title>ZZandro</dc:title>
          </cc:Agent>
        </dc:creator>
        <dc:rights>
          <cc:Agent>
            <dc:title />
          </cc:Agent>
        </dc:rights>
        <cc:license
           rdf:resource="http://creativecommons.org/licenses/by-sa/4.0/" />
      </cc:Work>
      <cc:License
         rdf:about="http://creativecommons.org/licenses/by-sa/4.0/">
        <cc:permits
           rdf:resource="http://creativecommons.org/ns#Reproduction" />
        <cc:permits
           rdf:resource="http://creativecommons.org/ns#Distribution" />
        <cc:requires
           rdf:resource="http://creativecommons.org/ns#Notice" />
        <cc:requires
           rdf:resource="http://creativecommons.org/ns#Attribution" />
        <cc:permits
           rdf:resource="http://creativecommons.org/ns#DerivativeWorks" />
        <cc:requires
           rdf:resource="http://creativecommons.org/ns#ShareAlike" />
      </cc:License>
    </rdf:RDF>
  </metadata>
  <g
     id="g1339"
     style="display:inline"
     transform="translate(-1916.9001,-953.12569)">
    <g
       transform="translate(9.9997e-5,1.3528e-5)"
       enable-background="new"
       id="g1337">
      <g
         transform="matrix(0.97008,0,0,0.9964,951,-794.35)"
         enable-background="new"
         fill="#f4f2ef"
         id="g1003">
        <g
           transform="matrix(0.70046,0,0,1.0004,298.31,-0.79223)"
           fill="#f4f2ef"
           id="g1001">
          <rect
             x="996.13"
             y="1754.4"
             width="223.23"
             height="311.81"
             rx="10.63"
             ry="10.63"
             fill="#f4f2ef"
             stroke="#000000"
             stroke-width="0.99673"
             id="rect999" />
        </g>
      </g>
      <g
         transform="matrix(0.76704,0,0,0.8945,1169.1,-599.69)"
         enable-background="new"
         fill="none"
         id="g1009">
        <g
           transform="matrix(0.70046,0,0,1.0004,298.31,-0.79223)"
           fill="none"
           id="g1007">
          <rect
             x="996.13"
             y="1754.4"
             width="223.23"
             height="311.81"
             rx="10.63"
             ry="10.63"
             fill="none"
             stroke="#000000"
             stroke-width="0.99673"
             id="rect1005" />
        </g>
      </g>
      <g
         transform="translate(1916.9,212.57)"
         id="g1335">
        <path
           transform="scale(0.9375)"
           d="m 95.467,847.12 c -0.04917,-0.0173 -0.11238,-0.0182 -0.19336,0.002 -0.2749,0.0685 -0.46823,0.54032 -0.64063,0.74609 -0.32276,0.38534 -0.82277,0.71778 -1.248,0.98438 -0.46609,0.29231 -1.3252,0.48971 -1.873,0.48437 -0.31473,-0.002 -0.91592,-0.17679 -1.1797,0.0352 -0.38869,0.31257 0.20709,0.57564 0.44141,0.6582 0.61747,0.21568 1.4077,0.15482 2.0352,-0.0117 0.85799,-0.22776 1.9912,-0.93436 2.5059,-1.6641 0.12885,-0.18278 0.49655,-1.1129 0.15234,-1.2344 z m 0.16211,-3.8926 c -0.24104,0.0262 -0.27022,0.29699 -0.31445,0.48437 -0.12604,0.53376 -0.15416,1.0312 -0.46094,1.5 -0.61666,0.94252 -1.4747,1.7957 -2.5293,2.2246 -0.4307,0.17526 -1.0892,0.18052 -1.4668,0.40235 -0.20336,0.11943 -0.25869,0.60162 0.01563,0.66797 0.60589,0.14889 1.3257,-0.12159 1.8555,-0.38477 1.1396,-0.56591 2.3143,-1.4016 2.8457,-2.6152 0.24531,-0.56027 0.36583,-1.0845 0.39844,-1.6934 0.01238,-0.23776 0.005,-0.62327 -0.34375,-0.58594 z m -2.4688,-1.5449 c -0.06901,-0.0111 -0.15029,-0.01 -0.24219,0.008 -0.24448,0.0474 -0.38872,0.26977 -0.53516,0.45117 -0.36027,0.44657 -1.0427,1.0354 -1.2129,1.5801 -0.13129,0.42003 -0.17657,1.1007 0.42383,1.0137 0.79667,-0.11545 1.6737,-1.0792 1.8867,-1.8301 0.11634,-0.41036 0.16279,-1.1422 -0.32031,-1.2226 z m -31.223,-0.85157 c -0.26256,0.077 -0.32525,0.40328 -0.35352,0.63868 -0.08167,0.69248 0.35774,1.2456 0.75391,1.7598 0.16114,0.20926 0.37797,0.57248 0.69336,0.49024 0.27475,-0.0712 0.32014,-0.39449 0.23242,-0.625 -0.1378,-0.36254 -0.44317,-0.64919 -0.61914,-0.99219 -0.18283,-0.35652 -0.17818,-0.73476 -0.31445,-1.0898 -0.06117,-0.16423 -0.22912,-0.22974 -0.39258,-0.18164 z m -1.4629,-0.13281 c -0.76915,0.0617 -0.39801,1.86 -0.2793,2.2774 0.43164,1.5177 1.5508,2.509 2.959,3.0449 0.39563,0.15006 0.99483,0.48311 1.4336,0.33594 0.37951,-0.12672 0.15214,-0.71713 -0.08398,-0.87891 -0.79703,-0.54289 -1.8202,-0.65333 -2.5703,-1.3496 -0.40447,-0.37538 -0.66024,-0.98942 -0.89453,-1.4824 -0.24304,-0.51133 -0.13486,-1.0215 -0.25391,-1.543 -0.03401,-0.1491 -0.11148,-0.41976 -0.31055,-0.4043 z m 34.223,-0.043 c -0.34636,0.049 -0.34469,0.44258 -0.36133,0.71094 -0.04446,0.73269 -0.03163,1.5036 -0.26758,2.207 -0.2761,0.82324 -1.3793,1.8873 -2.1562,2.2383 -0.39365,0.1778 -0.99671,0.14948 -1.3398,0.40235 -0.35338,0.26059 -0.07888,0.62804 0.25976,0.66601 1.912,0.19566 3.8306,-1.9322 4.1484,-3.6953 0.10743,-0.59289 0.22582,-1.363 0.17188,-1.9629 -0.02301,-0.2568 -0.12502,-0.61355 -0.45508,-0.56641 z m -35.945,-0.043 c -0.24127,0.0222 -0.43668,0.29516 -0.48438,0.53516 -0.12837,0.64574 0.03197,1.6647 0.21094,2.3008 0.85148,3.026 3.8031,6.522 7.2676,6.0879 0.07378,-1.2676 -1.6443,-1.3656 -2.5645,-1.8125 -0.50332,-0.24455 -0.9365,-0.65895 -1.3379,-1.041 -1.0621,-1.011 -2.0708,-2.1295 -2.5039,-3.5645 -0.12949,-0.42891 -0.19735,-1.0258 -0.16016,-1.4726 0.02604,-0.31971 0.15244,-0.73896 -0.17578,-0.96094 -0.08664,-0.0587 -0.17153,-0.0797 -0.25195,-0.0723 z m 4.4785,-0.0762 c -0.4513,0.003 -0.29912,1.0038 -0.11914,1.2774 0.1441,0.21906 0.34946,0.39435 0.50977,0.60156 0.7391,-0.24052 0.30406,-0.71198 0.10352,-1.2012 -0.08158,-0.19897 -0.04019,-0.50294 -0.25976,-0.61328 -0.09071,-0.0454 -0.16991,-0.0648 -0.23438,-0.0645 z m -0.32031,-8.7715 c -0.81304,0.0231 -1.6073,1.9581 -0.29883,1.8984 0.67813,-0.031 0.53379,-0.8843 0.58203,-1.3848 0.01886,-0.19573 -0.01489,-0.52114 -0.2832,-0.51367 z m -4.6406,-1.0098 c -0.51255,0.14502 -0.82058,1.1306 -1.0449,1.5547 -1.1365,2.1486 -0.30621,5.1404 1.5117,6.6953 0.52775,0.45134 1.2236,0.68436 1.8496,0.9668 0.20602,0.0915 0.51211,0.25919 0.73828,0.14453 0.76239,-0.38481 -0.24434,-0.98855 -0.55078,-1.1562 -2.13,-1.1672 -3.5595,-3.2521 -3.0059,-5.7305 0.15704,-0.703 0.56502,-1.235 0.88867,-1.8555 0.14678,-0.2816 -0.0034,-0.72814 -0.38672,-0.61914 z m 35.9,-0.56054 c -0.66518,0.0952 0.04396,1.271 0.13086,1.627 0.34651,1.4168 0.52543,3.2566 -0.49023,4.4805 -0.39632,0.47761 -1.1451,0.65912 -1.4902,1.1973 -0.20836,0.3243 0.23838,0.51327 0.49609,0.52735 0.67456,0.0236 1.4243,-0.73103 1.7852,-1.2246 0.98619,-1.3487 1.2065,-2.8836 0.86133,-4.5293 -0.11611,-0.5536 -0.4982,-2.1917 -1.293,-2.0781 z m -33.662,-0.23047 c -0.08457,-0.0179 -0.18238,-0.0184 -0.28516,0.004 -0.66408,0.14364 -1.0861,1.4978 -1.2949,2.0586 -0.95319,2.5596 -0.37692,4.8994 2.0723,6.3066 0.44074,0.25332 1.5637,1.0729 2.0977,0.85742 0.36725,-0.1476 0.4052,-0.84564 0.07031,-1.0312 -0.63471,-0.3525 -1.3766,-0.45635 -1.9766,-0.91016 -1.6581,-1.2542 -2.3258,-3.0691 -1.5391,-5.0527 0.24989,-0.6301 0.72636,-1.0816 1.0664,-1.6543 0.17964,-0.302 0.04277,-0.52362 -0.21094,-0.57812 z m 35.465,-0.11133 c -0.31847,0.0436 -0.52446,0.41436 -0.43164,0.70703 0.45312,1.4282 0.96456,2.5622 0.8418,4.1211 -0.12184,1.5477 -1.26,3.0832 -2.5176,3.9277 -0.40864,0.27445 -1.7503,0.40479 -1.9043,0.83594 -0.18017,0.50459 0.83901,0.74816 1.1719,0.76757 0.96286,0.0431 1.7005,-0.69934 2.3164,-1.3203 1.633,-1.6468 2.2344,-3.6401 2.0332,-5.9277 -0.07569,-0.86038 -0.30208,-1.7196 -0.73242,-2.4707 -0.15206,-0.26531 -0.41298,-0.68969 -0.77734,-0.64062 z m -3.748,-0.0195 c -0.48042,0.14563 -0.18312,0.81436 -0.03906,1.1016 0.64737,1.2909 1.0414,2.7663 0.37891,4.1562 -0.17446,0.36594 -0.63646,0.4995 -0.78516,0.84766 -0.12416,0.29051 0.13447,0.56435 0.42969,0.5332 0.58599,-0.0637 1.1083,-0.6413 1.3633,-1.1309 0.58642,-1.126 0.41075,-2.8091 -0.0625,-3.9453 -0.15627,-0.37517 -0.76928,-1.7187 -1.2852,-1.5625 z m -29.756,-0.21869 c -0.60147,0.0878 -0.93608,0.90299 -1.2383,1.3398 -0.92126,1.3311 -1.7814,2.8955 -0.73047,4.4727 0.35723,0.53613 1.391,1.7926 2.1641,1.5332 0.37604,-0.12621 0.37365,-0.73733 0.11914,-0.97266 -0.39179,-0.36199 -0.84748,-0.57678 -1.1973,-1.0039 -1.0186,-1.2437 -0.45052,-2.6697 0.45703,-3.791 0.27719,-0.3424 0.69872,-0.64216 0.91406,-1.0273 0.16991,-0.30399 -0.19049,-0.5943 -0.48828,-0.55078 z"
           fill="#1780ce"
           fill-rule="evenodd"
           id="path1011" />
        <path
           d="m 78.594,776.43 c -1.5438,-0.0572 -6.5951,0.14875 -3.082,0.084 1.9273,0.11394 3.8354,0.28501 5.7598,0.39844 0.65024,0.0381 1.8765,-0.12105 2.4297,0.23438 1.0364,0.66696 1.7905,2.2632 1.8164,3.4746 0.01928,0.90332 0.03145,2.0982 -0.20898,2.9688 -0.10549,0.38213 -0.40265,0.57726 -0.55664,0.91992 -0.1531,0.34075 -0.13418,0.86976 -0.18164,1.2422 -0.34812,2.7289 0.02445,5.5446 -1.0176,8.168 -0.44674,1.1248 -0.93764,2.2179 -1.4492,3.3125 l -0.60156,0.87109 c -2.4749,3.8169 -4.7585,5.7006 -6.75,6.4043 -1.9915,0.70371 -3.7336,0.28315 -5.3125,-0.66602 -1.5789,-0.94916 -2.952,-2.4465 -4.0215,-3.8262 -0.84688,-1.0925 -1.4646,-2.0604 -1.9395,-2.7012 -0.23637,-0.4376 -0.32815,-0.55382 -0.46484,-0.88868 -0.32704,-0.80071 -0.68221,-1.6765 -0.89258,-2.5195 -0.45131,-1.8084 -0.92793,-3.6051 -1.2812,-5.4414 -0.13212,-0.68667 -0.10609,-1.4242 -0.25586,-2.1016 -0.21657,-0.9795 -0.71397,-1.9381 -0.88281,-2.9141 -0.16626,-0.96134 -0.03557,-2.1289 0.08789,-3.0938 0.15199,-1.1871 0.73617,-2.7951 1.9414,-3.2832 -1.9363,0.14627 -3.8595,0.31283 -5.8008,0.51367 -0.09068,0.0663 -0.18016,0.13382 -0.28711,0.17383 -0.52807,0.19754 -0.93362,0.1088 -1.377,0.54883 -1.6017,1.5873 -2.199,4.0516 -1.3711,6.1699 0.30874,0.79006 1.1307,1.5906 1.291,2.4004 0.08688,0.43846 -0.10192,1.0413 -0.16992,1.4805 -0.13278,0.85714 -0.18676,1.8383 0.0039,2.6836 0.55012,2.4401 2.6805,5.1387 5.082,5.9277 0.84837,0.2787 1.7824,0.2605 2.6641,0.3125 0.17562,0.0103 0.34004,0.036 0.50781,0.0586 0.0218,0.0727 0.05988,0.13951 0.11133,0.19531 0.30463,0.3378 1.1349,1.6633 2.2422,3.0918 1.1073,1.4285 2.5422,3.0154 4.2969,4.0703 1.7547,1.0549 3.8721,1.5592 6.1621,0.75 2.2493,-0.79484 4.6252,-2.8122 7.1211,-6.6035 0.05241,0.007 0.11042,-0.26832 0.16992,-0.25782 l 0.43555,-0.67773 c 0.10818,-0.16385 0.25583,-0.36774 0.43945,-0.46484 0.41195,-0.14311 1.0278,-0.1265 1.3926,0.0859 0.04172,0.0242 0.30736,0.15315 0.35156,0.18555 0.50623,0.18012 1.0562,0.21457 1.5352,0.17187 0.14932,-0.0133 0.45248,-0.0544 0.66602,-0.14062 0.21353,-0.0863 0.94945,-0.46753 1.3574,-0.79688 1.229,-0.99237 1.6333,-2.3646 1.7637,-3.8848 0.07686,-0.89654 0.15069,-2.0423 -0.05273,-2.9238 -0.21058,-0.91218 -0.74347,-1.8616 -0.46875,-2.8301 0.10109,-0.35677 0.42331,-0.63565 0.64648,-0.91601 0.41978,-0.52762 0.88493,-1.1793 1.1934,-1.7774 0.75529,-1.4643 0.57789,-3.7588 0.16406,-5.2969 -0.14172,-0.52669 -0.304,-1.1412 -0.65234,-1.5762 -0.29068,-0.36278 -0.83763,-0.59367 -1.2207,-0.57227 -0.35815,0.0214 -0.70572,0.0185 -1.0586,-0.0449 -0.82105,-0.14651 -1.674,0.27803 -2.4922,0.12695 -0.50065,-0.0919 -0.84008,-0.46375 -1.3359,-0.57226 -0.50985,-0.1117 -1.045,-0.16351 -1.584,-0.19727 -1.605,-0.0342 -3.2165,-0.0566 -4.8633,-0.0566 z m -20.029,1.334 c 0.27918,-0.0408 0.61632,0.23259 0.45703,0.51758 -0.20188,0.3611 -0.5956,0.64189 -0.85547,0.96289 -0.85083,1.0513 -1.3846,2.3868 -0.42969,3.5527 0.32792,0.40043 0.75574,0.60203 1.123,0.9414 0.2386,0.22062 0.24121,0.79378 -0.11133,0.91211 -0.72479,0.24322 -1.6944,-0.93488 -2.0293,-1.4375 -0.98523,-1.4786 -0.17814,-2.9455 0.68555,-4.1934 0.28332,-0.40954 0.59628,-1.1736 1.1602,-1.2559 z m 27.896,0.20508 c 0.48364,-0.14642 1.0586,1.1131 1.2051,1.4648 0.44367,1.0652 0.60836,2.6436 0.05859,3.6992 -0.23901,0.45897 -0.72993,1.0008 -1.2793,1.0605 -0.27676,0.0292 -0.51874,-0.22765 -0.40234,-0.5 0.1394,-0.3264 0.57277,-0.45185 0.73633,-0.79492 0.62112,-1.3031 0.25144,-2.6863 -0.35547,-3.8965 -0.13506,-0.26925 -0.41329,-0.89668 0.03711,-1.0332 z m 3.5137,0.0195 c 0.3416,-0.046 0.58596,0.35089 0.72852,0.59961 0.40345,0.70421 0.61654,1.5098 0.6875,2.3164 0.18866,2.1446 -0.37532,4.0128 -1.9062,5.5566 -0.57742,0.58216 -1.2692,1.2787 -2.1719,1.2383 -0.31206,-0.0182 -1.2685,-0.2457 -1.0996,-0.71875 0.14433,-0.40421 1.4021,-0.52785 1.7852,-0.78515 1.179,-0.79173 2.2471,-2.2307 2.3613,-3.6816 0.11509,-1.4615 -0.36426,-2.5244 -0.78906,-3.8633 -0.08702,-0.27437 0.10573,-0.62121 0.4043,-0.66211 z m -33.248,0.10352 c 0.23786,0.0511 0.36568,0.25984 0.19727,0.54297 -0.3188,0.53687 -0.76573,0.96006 -1,1.5508 -0.73757,1.8597 -0.1111,3.5605 1.4434,4.7363 0.56248,0.42544 1.2585,0.52304 1.8535,0.85351 0.31396,0.17401 0.27789,0.82842 -0.06641,0.9668 -0.50063,0.20203 -1.5536,-0.5672 -1.9668,-0.80469 -2.2961,-1.3192 -2.837,-3.5125 -1.9434,-5.9121 0.19578,-0.52573 0.59226,-1.795 1.2148,-1.9297 0.09635,-0.0213 0.1883,-0.0207 0.26758,-0.004 z m 31.559,0.2168 c 0.7451,-0.10652 1.1021,1.4283 1.2109,1.9473 0.32358,1.5428 0.11791,2.9817 -0.80664,4.2461 -0.33833,0.46273 -1.0414,1.1705 -1.6738,1.1484 -0.24161,-0.0132 -0.66018,-0.19011 -0.46484,-0.49414 0.32357,-0.50451 1.0249,-0.67528 1.3965,-1.123 0.95218,-1.1474 0.78383,-2.871 0.45898,-4.1992 -0.08147,-0.33372 -0.7447,-1.4362 -0.12109,-1.5254 z m -33.658,0.52539 c 0.35935,-0.10219 0.50089,0.31608 0.36328,0.58008 -0.30342,0.58174 -0.68676,1.0812 -0.83398,1.7402 -0.51904,2.3235 0.82151,4.2769 2.8184,5.3711 0.28728,0.15722 1.2323,0.72323 0.51758,1.084 -0.21203,0.1075 -0.50022,-0.049 -0.69336,-0.13477 -0.58691,-0.26479 -1.2396,-0.48312 -1.7344,-0.90625 -1.7043,-1.4578 -2.4814,-4.2631 -1.416,-6.2773 0.21032,-0.39761 0.498,-1.3211 0.97852,-1.457 z m 12.119,0.53711 c -1.3631,-0.0409 -2.7991,0.14532 -3.8242,0.67968 -0.67181,0.35079 -1.5753,0.74393 -1.4336,1.6074 v 0.002 c 1.4577,-0.33661 2.7695,-1.1756 4.3027,-1.2422 0.96697,-0.0425 1.897,0.54823 2.8672,0.61133 0.38445,0.0354 2.1955,0.75773 2.2812,0.23437 0.1063,-0.65018 -1.4201,-1.4774 -1.9219,-1.5996 -0.66158,-0.16118 -1.4536,-0.26837 -2.2715,-0.29297 z m 11.879,0.0508 c -0.69023,-0.014 -1.3636,0.0462 -1.959,0.20508 -0.86953,0.23386 -1.6419,0.56981 -1.6738,1.5527 1.0134,-0.12756 1.9809,-0.65587 2.9883,-0.80859 1.3429,-0.20551 3.5599,0.21786 4.7812,0.78125 0.28701,0.13119 1.3421,0.67624 1.2578,-0.0859 -0.0957,-0.85464 -1.5065,-0.8632 -2.0957,-1.0644 -0.95271,-0.32555 -2.1485,-0.55688 -3.2988,-0.58008 z m -19.646,0.35742 c 0.25154,-0.007 0.2833,0.29893 0.26562,0.48242 -0.04523,0.4692 0.08887,1.2697 -0.54688,1.2988 -1.2267,0.0559 -0.48098,-1.7596 0.28125,-1.7812 z m 7.3965,1.9531 c -1.4319,-0.0825 -5.4348,1.7895 -3.3418,3.4609 1.1331,0.90353 0.75165,-0.84509 1.416,-0.72461 0.6261,0.11197 0.71939,1.0601 1.5684,1.1133 0.61264,0.0372 1.2098,-0.0369 1.5684,-0.5957 0.17079,-0.26574 0.20343,-0.92324 0.58008,-0.99414 0.72745,-0.1382 -0.1468,1.8012 0.83398,1.3477 0.97406,-0.45035 0.93061,-2.2604 0.22656,-2.8809 -0.62575,-0.55205 -2.0263,-0.68046 -2.8516,-0.72656 z m 12.443,0.0156 c -0.82524,0.0461 -2.2258,0.17647 -2.8516,0.72852 -0.70405,0.62043 -0.7475,2.4286 0.22656,2.8789 0.98078,0.45356 0.10654,-1.4858 0.83398,-1.3476 0.37665,0.0709 0.40929,0.72839 0.58008,0.99414 0.35858,0.55873 0.95767,0.63485 1.5703,0.59765 0.84897,-0.0532 0.94031,-1.0013 1.5664,-1.1133 0.66437,-0.12048 0.28286,1.6262 1.416,0.72266 2.093,-1.6714 -1.9099,-3.5435 -3.3418,-3.4609 z m -13.162,0.25586 c 0.54599,-0.0393 1.28,0.42865 0.54688,0.91797 -0.44894,0.30015 -1.4003,0.11285 -1.8613,-0.082 0.57048,-0.19525 1.0274,-0.2605 1.3145,-0.83594 z m 13.881,0.0176 c 0.28701,0.57544 0.74397,0.6407 1.3145,0.83594 -0.46099,0.1948 -1.4124,0.38218 -1.8613,0.082 -0.73311,-0.48933 8.54e-4,-0.95727 0.54688,-0.91797 z m -5.1406,1.3144 c -0.86952,0.287 -0.63965,1.833 -0.35938,2.5098 h 0.23828 c 0.41386,-0.84508 0.54629,-1.6604 0.12109,-2.5098 z m -8.7383,1.0566 0.59766,0.12305 v 0.24023 l -0.59766,0.1211 v -0.47852 z m 13.877,0.0176 v 0.48251 l -0.59766,-0.12109 v -0.24024 z m -20.256,3.5938 c 0.06044,-2e-4 0.13371,0.018 0.21875,0.0606 0.20585,0.10345 0.16766,0.38769 0.24414,0.57421 0.18801,0.45862 0.59525,0.90147 -0.09766,1.127 -0.15029,-0.19426 -0.34342,-0.35908 -0.47852,-0.56446 -0.16873,-0.25644 -0.30982,-1.1943 0.11328,-1.1973 z m -4.1992,0.0703 c 0.0754,-0.007 0.1551,0.0134 0.23633,0.0684 0.30771,0.20811 0.18847,0.60066 0.16406,0.90039 -0.03487,0.41894 0.02899,0.97876 0.15039,1.3809 0.406,1.3452 1.352,2.394 2.3477,3.3418 0.37631,0.35818 0.78204,0.74729 1.2539,0.97656 0.86264,0.41894 2.4735,0.5108 2.4043,1.6992 -3.248,0.40696 -6.0142,-2.8702 -6.8125,-5.707 -0.16778,-0.59632 -0.31957,-1.5528 -0.19922,-2.1582 0.04471,-0.225 0.22889,-0.48115 0.45508,-0.50195 z m 33.699,0.041 c 0.30943,-0.0442 0.40421,0.2905 0.42578,0.53125 0.05057,0.56239 -0.05944,1.284 -0.16016,1.8398 -0.29802,1.6529 -2.0981,3.6483 -3.8906,3.4648 -0.31748,-0.0356 -0.57348,-0.3807 -0.24219,-0.625 0.32169,-0.23705 0.88681,-0.21026 1.2559,-0.37695 0.72836,-0.32905 1.7626,-1.3259 2.0215,-2.0976 0.2212,-0.65945 0.20832,-1.3834 0.25,-2.0703 0.0156,-0.25159 0.01513,-0.62011 0.33984,-0.66601 z m -32.084,0.041 c 0.18662,-0.0145 0.25913,0.23913 0.29102,0.37891 0.11161,0.48892 0.01043,0.96594 0.23828,1.4453 0.21965,0.46219 0.4587,1.0387 0.83789,1.3906 0.70325,0.65276 1.6629,0.75666 2.4102,1.2656 0.22136,0.15167 0.43391,0.70541 0.07813,0.82422 -0.41134,0.13795 -0.97285,-0.17573 -1.3438,-0.31641 -1.3202,-0.50238 -2.3688,-1.4306 -2.7734,-2.8535 -0.11129,-0.39124 -0.45936,-2.077 0.26172,-2.1348 z m 1.3711,0.12305 c 0.15324,-0.0451 0.30984,0.016 0.36719,0.16992 0.12776,0.3329 0.12352,0.68921 0.29492,1.0234 0.16497,0.32157 0.45284,0.58981 0.58203,0.92969 0.08224,0.21611 0.03883,0.51913 -0.21875,0.58593 -0.29568,0.0771 -0.49932,-0.2628 -0.65039,-0.45898 -0.37141,-0.48207 -0.7836,-1.0012 -0.70703,-1.6504 0.0265,-0.22069 0.08588,-0.52741 0.33203,-0.59961 z m 29.271,0.79883 c 0.45291,0.0754 0.40985,0.76177 0.30078,1.1465 -0.19969,0.70397 -1.0227,1.6086 -1.7695,1.7168 -0.56287,0.0816 -0.51957,-0.5574 -0.39648,-0.95117 0.15956,-0.51064 0.79896,-1.0618 1.1367,-1.4805 0.13729,-0.17006 0.27276,-0.37943 0.50195,-0.42383 0.08615,-0.017 0.16186,-0.0182 0.22656,-0.008 z m -11.385,0.11328 c -0.38091,0.33661 -0.41605,0.81308 -0.75586,1.166 -0.33307,0.34724 -2.2234,1.0193 -2.7109,0.94921 -0.54248,-0.0779 -1.868,-0.55573 -2.2422,-0.94336 -0.24449,-0.25157 -0.30107,-1.2768 -0.83398,-1.0312 -1.2097,0.55594 0.28825,1.7724 0.80664,2.041 0.62717,0.32597 1.1921,0.70686 1.9121,0.78516 1.5073,0.16299 4.8932,-0.96342 3.8242,-2.9668 z m 13.699,1.3359 c 0.32697,-0.035 0.33388,0.32593 0.32226,0.54882 -0.03057,0.57079 -0.14307,1.0626 -0.37305,1.5879 -0.4982,1.1378 -1.5996,1.9206 -2.668,2.4512 -0.49664,0.24674 -1.1722,0.50091 -1.7402,0.36133 -0.25717,-0.0622 -0.20432,-0.51499 -0.01367,-0.62696 0.35396,-0.20796 0.97122,-0.21264 1.375,-0.37695 0.98868,-0.40207 1.793,-1.2023 2.3711,-2.0859 0.2876,-0.43952 0.31348,-0.90585 0.43164,-1.4062 0.04147,-0.17567 0.06895,-0.42852 0.29492,-0.45312 z m -18.121,3.1289 c -0.1601,-0.009 -0.32022,0.003 -0.47852,0.0449 -0.82169,0.21969 -1.3834,0.94113 -2.1523,1.2168 -0.42484,0.15234 -0.88669,-0.2138 -1.2754,0.10156 -0.40996,0.32953 -0.10188,0.90007 0.23828,1.1524 0.35433,0.26219 0.77446,0.0561 1.1543,0.22265 0.66898,0.29409 1.2655,0.97366 1.916,1.3496 0.84083,0.48544 1.5453,1.463 2.5098,1.4863 v -0.002 c -0.10629,-0.21614 -0.55493,-0.62377 -0.50391,-0.86328 0.0567,-0.26221 0.54199,-0.38341 0.74219,-0.49219 0.66579,-0.36248 1.244,-1.308 1.9141,-1.5039 0.68988,-0.20196 2.617,0.42312 2.2109,-1.1855 -0.18071,-0.72283 -1.1521,0.0438 -1.6152,-0.21485 -0.45567,-0.25512 -0.70847,-0.75596 -1.1992,-0.9707 -0.66083,-0.29059 -1.3474,-0.0434 -2.0273,-0.0859 -0.46904,-0.0319 -0.95329,-0.22956 -1.4336,-0.25586 z m 17.969,0.51956 c 0.32269,0.11392 -0.02178,0.98686 -0.14258,1.1582 -0.48249,0.6841 -1.5452,1.3451 -2.3496,1.5586 -0.58821,0.15614 -1.3293,0.21392 -1.9082,0.0117 -0.21967,-0.0774 -0.77846,-0.32416 -0.41406,-0.61719 0.24729,-0.19874 0.81236,-0.0352 1.1074,-0.0332 0.51364,0.005 1.3189,-0.17909 1.7559,-0.45313 0.3987,-0.24994 0.86734,-0.56257 1.1699,-0.92382 0.16162,-0.19291 0.34189,-0.63502 0.59961,-0.69922 0.07592,-0.0191 0.13554,-0.0182 0.18164,-0.002 z m -17.033,1.582 c 0.84065,0.0189 1.6112,0.21924 1.7051,0.8457 0.0461,0.30474 -0.36179,0.68862 -0.48828,0.95508 -1.3004,0 -2.94,-10e-4 -3.3457,-1.5547 0.37701,-0.10277 1.2883,-0.26489 2.1289,-0.24609 z"
           fill-rule="evenodd"
           id="path1013" />
        <g
           stroke="#000000"
           id="g1091">
          <path
             d="m 98.994,1038.2 v -13.82 H 39.156 v 13.82 z"
             fill="#1780ce"
             fill-rule="evenodd"
             stroke-width="1px"
             id="path1015" />
          <path
             d="m 14.174,1012 v 26.221 h 24.982 v -13.82 h 59.838 v 13.82 h 39.195 V 1012 Z"
             fill="#e9c13a"
             fill-rule="evenodd"
             stroke-width="1px"
             id="path1017" />
          <path
             d="M 138.19,971.22 H 14.17 v 40.748 h 124.02 z"
             fill="#dd1d1d"
             fill-rule="evenodd"
             stroke-width="1px"
             id="path1019" />
          <path
             d="m 14.174,938.98 v 32.244 h 124.02 V 938.98 Z"
             fill="#e9c13a"
             fill-rule="evenodd"
             stroke-width="1px"
             id="path1021" />
          <path
             d="m 14.173,941.46 h 124.02"
             fill="none"
             stroke-width="0.64488"
             id="path1023" />
          <path
             d="m 14.173,943.94 h 124.02"
             fill="none"
             stroke-width="0.64488"
             id="path1025" />
          <path
             d="m 14.173,946.42 h 124.02"
             fill="none"
             stroke-width="0.64488"
             id="path1027" />
          <path
             d="m 14.173,948.9 h 124.02"
             fill="none"
             stroke-width="0.64488"
             id="path1029" />
          <path
             d="m 14.173,951.38 h 124.02"
             fill="none"
             stroke-width="0.64488"
             id="path1031" />
          <path
             d="m 14.173,953.86 h 124.02"
             fill="none"
             stroke-width="0.64488"
             id="path1033" />
          <path
             d="m 14.173,956.34 h 124.02"
             fill="none"
             stroke-width="0.64488"
             id="path1035" />
          <path
             d="m 14.173,958.82 h 124.02"
             fill="none"
             stroke-width="0.64488"
             id="path1037" />
          <path
             d="m 14.173,961.3 h 124.02"
             fill="none"
             stroke-width="0.64488"
             id="path1039" />
          <path
             d="m 14.173,963.78 h 124.02"
             fill="none"
             stroke-width="0.64488"
             id="path1041" />
          <path
             d="m 14.173,966.26 h 124.02"
             fill="none"
             stroke-width="0.64488"
             id="path1043" />
          <path
             d="m 14.173,968.74 h 124.02"
             fill="none"
             stroke-width="0.64488"
             id="path1045" />
          <path
             d="m 14.173,1014.4 h 124.02"
             fill="none"
             stroke-width="0.64488"
             id="path1047" />
          <path
             d="m 14.173,1016.9 h 124.02"
             fill="none"
             stroke-width="0.64488"
             id="path1049" />
          <path
             d="m 14.173,1019.4 h 124.02"
             fill="none"
             stroke-width="0.64488"
             id="path1051" />
          <path
             d="m 14.173,1021.9 h 124.02"
             fill="none"
             stroke-width="0.64488"
             id="path1053" />
          <path
             d="m 14.173,1024.4 h 124.02"
             fill="none"
             stroke-width="0.64488"
             id="path1055" />
          <path
             d="m 14.173,1026.9 h 124.02"
             fill="none"
             stroke-width="0.64488"
             id="path1057" />
          <path
             d="m 14.173,1029.3 h 124.02"
             fill="none"
             stroke-width="0.64488"
             id="path1059" />
          <path
             d="m 14.173,1031.8 h 124.02"
             fill="none"
             stroke-width="0.64488"
             id="path1061" />
          <path
             d="m 14.173,1034.3 h 124.02"
             fill="none"
             stroke-width="0.64488"
             id="path1063" />
          <path
             d="m 14.173,1036.8 h 124.02"
             fill="none"
             stroke-width="1px"
             id="path1065" />
          <path
             d="m 27.785,977.04 h -4.1055 l 0.03906,8.2129 h 4.0762 l -0.0098,-8.2129 z"
             fill="none"
             stroke-width="0.64488"
             id="path1067" />
          <path
             d="m 27.785,977.04 0.0098,8.2129 h 4.0957 V 977.04 Z"
             fill-rule="evenodd"
             stroke-width="0.64488"
             id="path1069" />
          <path
             d="m 72.055,977.04 h -4.1055 l 0.03906,8.2129 h 4.0762 l -0.0098,-8.2129 z"
             fill="none"
             stroke-width="0.64488"
             id="path1071" />
          <path
             d="m 72.055,977.04 0.0098,8.2129 h 4.0957 V 977.04 Z"
             fill-rule="evenodd"
             stroke-width="0.64488"
             id="path1073" />
          <path
             d="m 72.045,997.93 h -4.1055 l 0.03906,8.2129 h 4.0762 l -0.0098,-8.2129 z"
             fill="none"
             stroke-width="0.64488"
             id="path1075" />
          <path
             d="m 72.045,997.93 0.0098,8.2129 h 4.0957 V 997.93 Z"
             fill-rule="evenodd"
             stroke-width="0.64488"
             id="path1077" />
          <path
             d="m 120.46,997.93 h -4.1055 l 0.0391,8.2129 h 4.0762 l -0.01,-8.2129 z"
             fill="none"
             stroke-width="0.64488"
             id="path1079" />
          <path
             d="m 120.46,997.93 0.01,8.2129 h 4.0957 V 997.93 h -4.1055 z"
             fill-rule="evenodd"
             stroke-width="0.64488"
             id="path1081" />
          <path
             d="m 120.47,977.04 h -4.1055 l 0.0391,8.2129 h 4.0762 l -0.01,-8.2129 z"
             fill="none"
             stroke-width="0.64488"
             id="path1083" />
          <path
             d="m 120.47,977.04 0.01,8.2129 h 4.0957 V 977.04 h -4.1055 z"
             fill-rule="evenodd"
             stroke-width="0.64488"
             id="path1085" />
          <path
             d="m 23.68,997.94 0.03906,8.2128 h 8.1719 V 997.94 h -8.2109 z"
             fill="none"
             stroke-width="0.64488"
             id="path1087" />
          <path
             d="m 26.158,1000.4 0.01545,3.2541 h 3.2373 V 1000.4 h -3.2528 z"
             fill-rule="evenodd"
             stroke-width="0.64488"
             id="path1089" />
        </g>
        <g
           transform="translate(-131.38,-15.087)"
           stroke="#000000"
           stroke-linecap="round"
           stroke-linejoin="round"
           stroke-width="0.99921"
           id="g1097">
          <path
             d="m 189.38,895.83 c 5.45,-0.37013 10.905,-0.639 16.369,-0.68945 8.7945,0.0253 17.583,0.46523 26.336,1.3184 l 11.943,-59.962 c -0.0121,-0.005 -0.025,-0.008 -0.0371,-0.0137 -1.6689,1.0323 -2.861,-0.37271 -4.5949,0.54629 -2.6282,1.3376 -5.3217,2.5429 -8.0703,3.6113 -2.748,1.0683 -5.5477,1.9985 -8.3887,2.7871 -2.8409,0.78855 -5.7195,1.4345 -8.625,1.9356 -2.9056,0.50088 -5.8343,0.85614 -8.7754,1.0644 -2.082,0.14802 -4.1686,0.22229 -6.2559,0.22266 -2.9489,1.7e-4 -5.8959,-0.14715 -8.8301,-0.44141 -0.76189,-0.10531 -1.5224,-0.22055 -2.2812,-0.3457 l 1.2109,49.967 z"
             fill="#e9c13a"
             opacity="0.97"
             id="path1093" />
          <path
             d="m 189.38,895.83 c 5.45,-0.37013 10.905,-0.639 16.369,-0.68944 8.7945,0.0253 17.583,0.46523 26.336,1.3184 l 11.943,-59.962 c -0.0121,-0.005 -0.025,-0.008 -0.0371,-0.0137 -1.6689,1.0323 -2.861,-0.37271 -4.5949,0.54629 -2.6282,1.3376 -5.3217,2.5428 -8.0703,3.6113 -2.748,1.0683 -5.5477,1.9985 -8.3887,2.7871 -2.8409,0.78855 -5.7195,1.4345 -8.625,1.9356 -2.9056,0.50088 -5.8343,0.85614 -8.7754,1.0644 -2.082,0.14802 -4.1686,0.22229 -6.2559,0.22266 -2.9489,1.7e-4 -5.8959,-0.14715 -8.8301,-0.44141 -0.76189,-0.10531 -1.5224,-0.22055 -2.2812,-0.3457 l 1.2109,49.967 z"
             fill="url(#t)"
             opacity="0.97"
             id="path1095" />
        </g>
        <path
           d="m 84.352,835.15 c -1.3563,2.6058 -3.9345,4.3527 -6.8574,4.6465 -2.9247,0.2896 -5.7983,-0.91477 -7.6426,-3.2031 -1.7446,2.3637 -4.5628,3.6892 -7.4961,3.5254 -2.9344,-0.1681 -5.5863,-1.8043 -7.0527,-4.3516 l 2.6484,44.916 0.01563,0.25391 a 279.78,279.78 0 0 1 16.365,-0.88477 279.78,279.78 0 0 1 12.156,0.6543 l -0.01953,-0.35547 5.9316,-43.227 c -2.8443,0.74158 -5.8707,-9e-4 -8.0488,-1.9746 z"
           fill="#1780ce"
           fill-rule="evenodd"
           stroke="#000000"
           stroke-linecap="round"
           stroke-linejoin="round"
           stroke-width="0.99921"
           id="path1099" />
        <g
           transform="translate(-0.88649)"
           stroke="#000000"
           stroke-linecap="round"
           stroke-linejoin="round"
           stroke-width="0.99921"
           id="g1107">
          <path
             transform="translate(2.0877e-6)"
             d="m 93.947,774.5 a 224.32,224.32 0 0 0 -14.467,-0.72265 224.32,224.32 0 0 0 -15.869,0.56054 224.32,224.32 0 0 0 -11.033,1.3398 c 0.36448,0.87932 0.86244,1.6861 1.1328,2.6113 4.5442,-0.53662 8.857,-0.90429 13.426,-1.1582 2.0553,-0.11423 4.1125,-0.1992 6.1699,-0.25586 2.0574,-0.0572 4.1153,-0.0859 6.1738,-0.0859 4.5758,0 8.9017,0.12653 13.469,0.41015 0.22107,-0.94941 0.6783,-1.7914 0.99805,-2.6992 z"
             fill="#e9c13a"
             opacity="0.97"
             id="path1101" />
          <path
             transform="translate(2.0877e-6)"
             d="m 80.832,756.41 -3.9785,6.2129 -4.1133,-6.123 -3.7676,6.3398 -4.3164,-5.9805 -3.5547,6.4629 -4.5156,-5.834 -3.4277,6.6035 c -4.6542,-2.7447 -9.9491,-4.0676 -15.277,-3.7715 -0.66093,0.0367 -1.3192,0.0978 -1.9336,0.1289 7.6647,2.2565 13.618,7.9522 16.631,15.221 a 224.32,224.32 0 0 1 11.033,-1.3398 224.32,224.32 0 0 1 15.869,-0.56054 224.32,224.32 0 0 1 14.467,0.72265 c 2.61,-7.4104 8.2306,-13.415 15.748,-16.09 -0.61518,0.003 -1.2756,-0.0235 -1.9375,-0.0234 -5.3365,0 -10.548,1.6165 -15.043,4.6152 l -3.791,-6.4024 -4.1836,6.0742 -3.9082,-6.2559 z"
             fill="#e9c13a"
             opacity="0.97"
             id="path1103" />
          <path
             transform="matrix(-0.99846,0.055492,0.055492,0.99846,103.39,-2.8712)"
             d="m 79.48,770.76 c 5.2339,0 10.466,0.18075 15.647,0.5387 1.3262,-2.7153 3.1458,-5.1622 5.3278,-7.2415 -3.0708,1.0827 -5.8617,2.8298 -8.1773,5.1147 l -3.5966,-6.3817 -4.0801,6.0782 -3.8046,-6.2544 -3.8743,6.2114 -4.01,-6.1233 -3.6641,6.3368 -4.213,-5.9868 -3.4517,6.4558 -4.4111,-5.8424 -3.2369,6.5714 c -2.4388,-2.1529 -5.3223,-3.7425 -8.4485,-4.6531 2.294,1.955 4.2467,4.2972 5.7215,6.9347 5.1533,-0.64491 10.368,-1.1157 15.593,-1.4062 2.1117,-0.11737 4.2249,-0.20527 6.3366,-0.26381 2.1116,-0.0591 4.2265,-0.0886 6.3415,-0.0886 z"
             opacity="0.97"
             id="path1105" />
        </g>
        <path
           d="m 57.963,880.74 -1.2109,-49.967 a 88.437,88.437 0 0 1 -6.459,-0.97656 88.437,88.437 0 0 1 -8.5645,-2.1875 88.437,88.437 0 0 1 -8.3047,-3.0313 88.437,88.437 0 0 1 -7.6016,-3.6719 l 12.887,28.883 9.8027,31.695 c 3.1444,-0.32089 6.2985,-0.53003 9.4512,-0.74415 z"
           fill="#e9c13a"
           opacity="0.97"
           stroke="#000000"
           stroke-linecap="round"
           stroke-linejoin="round"
           stroke-width="0.99921"
           id="path1109" />
        <path
           d="m 76.935,840.05 -2.0832,40.002"
           fill="none"
           stroke="#000000"
           stroke-width="1px"
           id="path1111" />
        <path
           d="m 84.027,835.72 -3.65,44.415"
           fill="none"
           stroke="#000000"
           stroke-width="1px"
           id="path1113" />
        <path
           d="m 62.355,840.12 0.95217,40.253"
           fill="none"
           stroke="#000000"
           stroke-width="1px"
           id="path1115" />
        <path
           d="m 69.407,836.59 -0.55549,43.568"
           fill="none"
           stroke="#000000"
           stroke-width="1px"
           id="path1117" />
        <path
           d="m 29.162,927.29 a 97.65,97.65 0 0 0 4.041,1.9512 97.65,97.65 0 0 0 9.1699,3.3476 97.65,97.65 0 0 0 9.457,2.4141 97.65,97.65 0 0 0 9.6523,1.459 97.65,97.65 0 0 0 9.748,0.48828 97.65,97.65 0 0 0 6.9062,-0.24414 97.65,97.65 0 0 0 9.6914,-1.1777 97.65,97.65 0 0 0 9.5234,-2.1367 97.65,97.65 0 0 0 9.2637,-3.0781 97.65,97.65 0 0 0 8.9082,-3.9863 97.65,97.65 0 0 0 5.9726,-3.4258 265.6,265.6 0 0 0 -16.115,-26.869 265.6,265.6 0 0 0 -29.639,-1.7988 265.6,265.6 0 0 0 -29.912,2.0156 265.6,265.6 0 0 0 -16.668,31.041 z"
           fill="#e9c13a"
           opacity="0.97"
           stroke="#000000"
           stroke-linecap="round"
           stroke-linejoin="round"
           stroke-width="0.99921"
           id="path1119" />
        <path
           d="M 47.973,934.03 A 132.73,132.73 0 0 1 59.299,895.156"
           fill="none"
           opacity="0.97"
           stroke="#000000"
           stroke-linecap="round"
           stroke-linejoin="round"
           stroke-width="0.64488"
           id="path1121" />
        <path
           d="m 57.997,935.94 a 132.73,132.73 0 0 1 7.451,-41.15"
           fill="none"
           opacity="0.97"
           stroke="#000000"
           stroke-linecap="round"
           stroke-linejoin="round"
           stroke-width="0.64488"
           id="path1123" />
        <path
           d="m 72.637,894.3 v 42.634"
           fill="none"
           stroke="#000000"
           stroke-width="0.64488"
           id="path1125" />
        <path
           d="m 82.06,894.33 c 0,0 0.75305,13.955 0.953,20.934 0.19996,6.979 0.24691,20.934 0.24691,20.934"
           fill="none"
           stroke="#000000"
           stroke-width="0.64488"
           id="path1127" />
        <g
           transform="rotate(-4.1136,88.222,894.85)"
           fill="none"
           stroke="#000000"
           stroke-linecap="round"
           stroke-linejoin="round"
           stroke-width="0.64488"
           id="g1141">
          <path
             d="m 88.222,894.85 a 265.6,265.6 0 0 1 4.2229,39.669"
             opacity="0.97"
             id="path1129" />
          <path
             d="m 89.639,894.85 a 265.6,265.6 0 0 1 4.2229,39.669"
             opacity="0.97"
             id="path1131" />
          <path
             d="m 91.057,894.85 a 265.6,265.6 0 0 1 4.2229,39.669"
             opacity="0.97"
             id="path1133" />
          <path
             d="m 92.474,894.85 a 265.6,265.6 0 0 1 4.2229,39.669"
             opacity="0.97"
             id="path1135" />
          <path
             d="m 93.891,894.85 a 265.6,265.6 0 0 1 4.2229,39.669"
             opacity="0.97"
             id="path1137" />
          <path
             d="m 95.309,894.85 a 265.6,265.6 0 0 1 4.2229,39.669"
             opacity="0.97"
             id="path1139" />
        </g>
        <g
           transform="rotate(-10.291,94.546,845.74)"
           fill="none"
           stroke="#000000"
           stroke-linecap="round"
           stroke-linejoin="round"
           stroke-width="0.64488"
           id="g1155">
          <path
             d="m 88.222,894.85 a 265.6,265.6 0 0 1 4.2229,39.669"
             opacity="0.97"
             id="path1143" />
          <path
             d="m 89.639,894.85 a 265.6,265.6 0 0 1 4.2229,39.669"
             opacity="0.97"
             id="path1145" />
          <path
             d="m 91.057,894.85 a 265.6,265.6 0 0 1 4.2229,39.669"
             opacity="0.97"
             id="path1147" />
          <path
             d="m 92.474,894.85 a 265.6,265.6 0 0 1 4.2229,39.669"
             opacity="0.97"
             id="path1149" />
          <path
             d="m 93.891,894.85 a 265.6,265.6 0 0 1 4.2229,39.669"
             opacity="0.97"
             id="path1151" />
          <path
             d="m 95.309,894.85 a 265.6,265.6 0 0 1 4.2229,39.669"
             opacity="0.97"
             id="path1153" />
        </g>
        <path
           d="m 74.332,880.05 a 279.78,279.78 0 0 0 -18.293,0.98828 v 13.98 l 0.32422,0.25586 a 265.6,265.6 0 0 1 19.379,-1.0469 265.6,265.6 0 0 1 29.063,1.7383 l -0.0117,-0.11719 c -2.1007,-4.9208 -3.6338,-9.7421 -4.1113,-14.379 a 279.78,279.78 0 0 0 -26.35,-1.4199 z"
           fill="#dd1d1d"
           fill-rule="evenodd"
           stroke="#000000"
           stroke-width="0.99921"
           id="path1157" />
        <path
           d="m 56.035,892.3 a 268.26,268.26 0 0 1 19.708,-0.72492 268.26,268.26 0 0 1 28.057,1.4713"
           fill="none"
           opacity="0.97"
           stroke="#000000"
           stroke-linecap="round"
           stroke-linejoin="round"
           stroke-width="0.99921"
           id="path1159" />
        <path
           d="m 56.037,883.31 a 277.12,277.12 0 0 1 18.296,-0.60462 277.12,277.12 0 0 1 26.879,1.3067"
           fill="none"
           opacity="0.97"
           stroke="#000000"
           stroke-linecap="round"
           stroke-linejoin="round"
           stroke-width="0.99921"
           id="path1161" />
        <path
           d="M 39.471,931.54 A 102.61,102.61 0 0 1 53.489,895.511"
           fill="none"
           opacity="0.97"
           stroke="#000000"
           stroke-linecap="round"
           stroke-linejoin="round"
           stroke-width="0.64488"
           id="path1163" />
        <g
           id="g1209">
          <path
             d="m 96.879,1007.9 -0.16211,-0.084 c -1.1031,0.8178 -2.2001,1.3761 -3.291,1.6953 -1.091,0.3193 -2.1759,0.4009 -3.2559,0.2696 -1.08,-0.1314 -2.1545,-0.4759 -3.2246,-1.0098 -1.0702,-0.5339 -2.1358,-1.2579 -3.1973,-2.1465 -3.8982,11.968 -7.3598,11.794 1.3691,14.494 -0.10805,-0.4989 -0.03573,-0.8537 0.44336,-0.8829 0.79662,-0.5747 6.2298,3.9212 12.109,5.3907 5.5708,1.9393 9.8413,1.4182 14.717,0.5761 1.2041,-0.4861 1.4177,-1.0607 1.4141,-1.5468 0.11295,-0.8285 -0.44651,-1.2751 -1.1504,-1.6368 -7.8633,-3.0644 -8.3217,-5.01 -9.5898,-6.8496 l -4.2422,-4.2871 c -1.2042,-1.0287 -1.7096,-2.4382 -1.9395,-3.9824 z"
             fill-rule="evenodd"
             stroke="#000000"
             stroke-linecap="round"
             stroke-linejoin="round"
             stroke-width="0.99921"
             id="path1165" />
          <path
             d="m 107.38,983.95 c -0.3142,-0.1847 -0.5996,-0.41609 -0.91993,-0.58984 -1.3559,-0.73548 -2.7665,-1.3724 -4.2188,-1.9043 -1.4522,-0.5319 -2.9479,-0.9589 -4.4746,-1.2754 -1.5264,-0.31642 -3.0657,-0.52011 -4.6094,-0.60937 -1.5437,-0.0893 -3.0907,-0.0654 -4.627,0.0703 -0.93831,0.0829 -1.8609,0.28696 -2.7891,0.45312 -0.0143,0.20516 -0.03183,0.38973 -0.04297,0.61524 -0.05291,1.0711 -0.17905,1.3028 -0.20508,2.791 -0.0015,0.0237 -3.74e-4,0.0544 -0.002,0.0781 -0.4964,7.9259 0.221,19.14705 -1.7422,23.09195 1.0615,0.8886 2.1271,1.6127 3.1973,2.1465 1.0702,0.5339 2.1446,0.8784 3.2246,1.0098 1.08,0.1313 2.1649,0.05 3.2559,-0.2696 1.091,-0.3192 2.1879,-0.8775 3.291,-1.6952 l 0.16211,0.084 c -1.2551,-8.43115 9.7728,-22.73195 10.449,-23.91995 0.002,-0.003 0.02,-0.0286 0.0215,-0.0312 0.012,-0.0155 0.0174,-0.0295 0.0293,-0.0449 z"
             fill="#1780ce"
             fill-rule="evenodd"
             stroke="#000000"
             stroke-linecap="round"
             stroke-linejoin="round"
             stroke-width="0.99921"
             id="path1167" />
          <path
             d="m 108.86,981.75 c -0.6314,-0.37517 -1.2368,-0.79703 -1.8906,-1.1309 -1.363,-0.69594 -2.7721,-1.3012 -4.2188,-1.8106 -1.4466,-0.50937 -2.9295,-0.92289 -4.4414,-1.2363 -1.5119,-0.31344 -3.0385,-0.52319 -4.5684,-0.63086 -1.5299,-0.10768 -3.0645,-0.1124 -4.5918,-0.0156 -1.0232,0.0648 -2.0345,0.24233 -3.0488,0.39844 -0.07505,0.66287 -0.24319,0.68472 -0.30002,1.4614 -0.0256,0.34989 -0.03254,0.94738 -0.0574,1.3043 0.92812,-0.16616 1.8508,-0.37023 2.7891,-0.45312 1.5363,-0.13572 3.0833,-0.15957 4.627,-0.0703 1.5437,0.0893 3.083,0.29295 4.6094,0.60937 1.5267,0.31649 3.0224,0.74349 4.4746,1.2754 1.4522,0.53191 2.8628,1.1688 4.2188,1.9043 0.32033,0.17375 0.60573,0.40514 0.91993,0.58984 0.91225,-0.61791 1.3248,-1.3171 1.4492,-2.1426 0.0118,-0.0185 0.0175,-0.0343 0.0293,-0.0527 z"
             fill-rule="evenodd"
             stroke="#000000"
             stroke-linecap="round"
             stroke-linejoin="round"
             stroke-width="0.99921"
             id="path1169" />
          <path
             d="m 112.24,974.49 c -1.2593,-0.67805 -2.4481,-1.4937 -3.7637,-2.0508 -2.76,-1.1687 -5.635,-2.0664 -8.584,-2.6777 -2.9458,-0.61066 -5.9377,-0.92967 -8.9316,-0.95508 -0.94,-0.008 -1.8694,0.20219 -2.8086,0.25196 l -0.07422,0.14062 c -1.803,2.8358 -2.0208,6.1956 -1.9805,8.1289 1.0143,-0.15611 2.0257,-0.33361 3.0488,-0.39844 1.5273,-0.0968 3.0619,-0.0921 4.5918,0.0156 1.5299,0.10767 3.0564,0.31742 4.5684,0.63086 1.5119,0.31343 2.9948,0.72695 4.4414,1.2363 1.4466,0.50938 2.8558,1.1146 4.2188,1.8106 0.65378,0.33383 1.2592,0.75569 1.8906,1.1309 1.6539,-2.5954 2.5747,-4.9355 3.3535,-7.2246 0.009,-0.0133 0.02,-0.026 0.0293,-0.0391 z"
             fill="#dd1d1d"
             fill-rule="evenodd"
             stroke="#000000"
             stroke-linecap="round"
             stroke-linejoin="round"
             stroke-width="0.99921"
             id="path1171" />
          <path
             d="m 91.523,966.15 c -0.64154,-0.0126 -1.2783,0.12776 -1.9199,0.14062 -1.0719,0.73896 -1.4609,1.688 -1.4512,2.7598 0.93916,-0.0498 1.8686,-0.25993 2.8086,-0.25196 2.9939,0.0254 5.9859,0.34442 8.9316,0.95508 2.949,0.61135 5.824,1.5091 8.584,2.6777 1.3156,0.55708 2.5044,1.3727 3.7637,2.0508 0.45932,-0.64348 1.195,-1.075 0.87891,-2.4922 0.006,-0.0187 0.0128,-0.0378 0.0195,-0.0566 -1.379,-0.7272 -2.6998,-1.5714 -4.1406,-2.1621 -2.7624,-1.1324 -5.6306,-2.0105 -8.5664,-2.6191 -2.9386,-0.60919 -5.9205,-0.9434 -8.9082,-1.002 z"
             fill="#dd1d1d"
             fill-rule="evenodd"
             stroke="#000000"
             stroke-linecap="round"
             stroke-linejoin="round"
             stroke-width="0.99921"
             id="path1173" />
          <path
             d="m 113.94,940.36 -37.361,4.4531 c 5.9905,6.4452 17.524,12.891 14.154,19.336 l -1.127,2.1445 c 0.64166,-0.0129 1.2784,-0.1532 1.9199,-0.14062 2.9877,0.0585 5.9696,0.39276 8.9082,1.002 2.9358,0.60861 5.804,1.4867 8.5664,2.6191 1.4409,0.59069 2.7616,1.4349 4.1406,2.1621 0.0137,-0.0385 0.0279,-0.0771 0.041,-0.11523 7.5631,-15.36 3.3703,-22.885 0.75781,-31.461 z"
             fill="#1780ce"
             fill-rule="evenodd"
             stroke="#000000"
             stroke-linecap="round"
             stroke-linejoin="round"
             stroke-width="0.99921"
             id="path1175" />
          <path
             d="m 57.211,979.94 c -0.71055,-0.10093 -1.4136,-0.25998 -2.1289,-0.3125 -1.5384,-0.11297 -3.0845,-0.11415 -4.627,-0.002 -1.5425,0.11219 -3.0798,0.33662 -4.6016,0.67578 -1.5215,0.3391 -3.0112,0.7885 -4.4551,1.3418 -1.4439,0.5533 -2.8429,1.2115 -4.1875,1.9668 -0.15117,0.0849 -0.28383,0.19972 -0.43359,0.28711 l 0.09766,0.33789 c 1.5266,8.0552 7.4353,17.26502 5.3965,23.36102 l 0.11133,-0.025 c 0.80112,1.0204 1.7,1.794 2.6992,2.3242 0.99927,0.5302 2.0977,0.8169 3.2949,0.8574 1.1973,0.04 2.4936,-0.1643 3.8887,-0.6133 1.3951,-0.4489 2.8896,-1.1421 4.4824,-2.0801 l 0.04687,0.01 c -0.80405,-9.95402 0.06457,-18.42502 0.42383,-27.64302 -0.0077,-0.16482 -0.0026,-0.323 -0.0078,-0.48632 z"
             fill="#1780ce"
             fill-rule="evenodd"
             stroke="#000000"
             stroke-linecap="round"
             stroke-linejoin="round"
             stroke-width="0.99921"
             id="path1177" />
          <path
             d="m 57.162,977.24 c -0.91262,-0.11802 -1.8218,-0.27192 -2.7402,-0.31641 -1.5285,-0.074 -3.0617,-0.0464 -4.5898,0.084 -1.5281,0.13043 -3.0495,0.36332 -4.5566,0.69921 -1.5071,0.33589 -2.9849,0.77191 -4.4238,1.3027 -1.4389,0.53083 -2.839,1.1569 -4.1914,1.873 -0.2211,0.11707 -0.42017,0.27265 -0.63867,0.39453 l 0.75586,2.6191 c 0.14976,-0.0874 0.28242,-0.20219 0.43359,-0.28711 1.3446,-0.75534 2.7436,-1.4135 4.1875,-1.9668 1.4439,-0.5533 2.9336,-1.0027 4.4551,-1.3418 1.5218,-0.33916 3.0591,-0.56359 4.6016,-0.67578 1.5425,-0.11219 3.0885,-0.11101 4.627,0.002 0.71535,0.0525 1.4184,0.21157 2.1289,0.3125 -0.02894,-0.90546 -0.04898,-1.8105 -0.04883,-2.6992 z"
             fill-rule="evenodd"
             stroke="#000000"
             stroke-linecap="round"
             stroke-linejoin="round"
             stroke-width="0.99921"
             id="path1179" />
          <path
             d="m 56.16,969.12 c -1.2338,-0.0711 -2.4589,-0.30593 -3.6934,-0.27734 -2.9964,0.0694 -5.9863,0.4308 -8.9258,1.0859 -2.9363,0.65443 -5.7956,1.595 -8.5352,2.8027 -0.43694,0.19262 -0.81727,0.49694 -1.248,0.70312 l 2.2637,7.8457 c 0.2185,-0.12188 0.41758,-0.27746 0.63867,-0.39453 1.3524,-0.71613 2.7525,-1.3422 4.1914,-1.873 1.4389,-0.53083 2.9167,-0.96685 4.4238,-1.3027 1.5071,-0.33589 3.0285,-0.56878 4.5566,-0.69921 1.5281,-0.13043 3.0613,-0.15803 4.5898,-0.084 0.91842,0.0445 1.8276,0.19839 2.7402,0.31641 4.12e-4,-2.4852 -0.10838,-5.0455 -1.002,-8.123 z"
             fill="#dd1d1d"
             fill-rule="evenodd"
             stroke="#000000"
             stroke-linecap="round"
             stroke-linejoin="round"
             stroke-width="0.99921"
             id="path1181" />
          <path
             d="m 51.846,966.2 c -2.9837,0.10341 -5.9564,0.4806 -8.8828,1.1328 -2.9292,0.65284 -5.7856,1.575 -8.5332,2.75 -0.49494,0.21166 -0.93223,0.54151 -1.4199,0.76954 0.04742,0.14032 -0.12792,0.8779 -0.0098,1.4297 0.11816,0.55178 0.7551,1.1504 0.75781,1.1504 0.43078,-0.20618 0.8111,-0.5105 1.248,-0.70312 2.7396,-1.2077 5.5988,-2.1483 8.5352,-2.8027 2.9395,-0.65513 5.9294,-1.0166 8.9258,-1.0859 1.2345,-0.0286 2.4596,0.20627 3.6934,0.27734 -0.19777,-0.68115 0.16869,-0.91775 -0.09858,-1.6687 -0.06161,-0.17309 -0.6588,-0.84359 -0.70611,-1.0462 -1.1716,-0.0442 -2.3388,-0.24371 -3.5098,-0.20313 z"
             fill="#dd1d1d"
             fill-rule="evenodd"
             stroke="#000000"
             stroke-linecap="round"
             stroke-linejoin="round"
             stroke-width="0.99921"
             id="path1183" />
          <path
             d="m 35.5,939.86 c -3.9388,9.8175 -8.7983,12.327 -2.4902,30.992 0.4877,-0.22803 0.92498,-0.55788 1.4199,-0.76954 2.7476,-1.175 5.604,-2.0972 8.5332,-2.75 2.9264,-0.65221 5.8991,-1.0294 8.8828,-1.1328 1.1709,-0.0406 2.3382,0.1589 3.5098,0.20313 -0.32247,-1.381 -0.84057,-3.1566 -1.7793,-4.6758 -0.48562,-0.78588 -0.37316,-1.6085 0.2793,-2.709 3.0919,-4.5265 11.727,-9.3961 14.145,-16.033 z"
             fill="#1780ce"
             fill-rule="evenodd"
             stroke="#000000"
             stroke-linecap="round"
             stroke-linejoin="round"
             stroke-width="0.99921"
             id="path1185" />
          <g
             transform="rotate(-12.564,42.993,982.47)"
             id="g1189">
            <path
               d="M 28.724,989.8"
               fill="none"
               stroke="#e9c13a"
               stroke-linecap="round"
               stroke-linejoin="round"
               stroke-width="0.29055"
               id="path1187" />
          </g>
          <path
             d="m 56.795,1008.1 -0.04687,-0.01 c -1.5928,0.938 -3.0873,1.6312 -4.4824,2.0801 -1.3951,0.449 -2.6914,0.6538 -3.8887,0.6133 -1.1973,-0.041 -2.2957,-0.3272 -3.2949,-0.8574 -0.99927,-0.5302 -1.8981,-1.3038 -2.6992,-2.3242 l -0.11133,0.025 c -0.52849,1.5802 -1.4597,3.0039 -3.2949,4.082 l -4.9766,5.4361 c -5.2421,4.525 -9.7813,4.0021 -10.941,5.3106 -0.70954,0.7302 -0.658,1.4592 -0.43359,2.1894 0.55082,0.6956 1.1149,1.3714 2.875,1.375 7.6719,-0.021 14.786,-0.4356 18.5,-3.25 20.858,-2.6627 13.971,-5.7152 12.875,-13.25 -0.04753,-0.4917 -0.04096,-0.9357 -0.08008,-1.4199 z"
             fill-rule="evenodd"
             stroke="#000000"
             stroke-linecap="round"
             stroke-linejoin="round"
             stroke-width="0.99921"
             id="path1191" />
          <g
             transform="rotate(3.5802,101.81,989.59)"
             id="g1195">
            <path
               d="M 79.724,990.95"
               fill="none"
               stroke="#e9c13a"
               stroke-linecap="round"
               stroke-linejoin="round"
               stroke-width="0.29055"
               id="path1193" />
          </g>
          <path
             d="m 57.171,975.94 -4.3576,-7.1076 -1.5379,8.0826 -5.0306,-7.5067 -1.4633,8.4123 -4.8995,-6.9189 -1.3209,9.0474 -4.8343,-6.6292 2.2832,7.9152 2.5511,-1.286 6.2205,-2.1285 6.4939,-0.90559 5.9015,0.25297 z"
             fill-rule="evenodd"
             stroke="#000000"
             stroke-linecap="round"
             stroke-linejoin="round"
             stroke-width="0.99921"
             id="path1197" />
          <path
             d="m 35.1,1015.9 c 0,0 1.4331,0.2265 2.1033,0.4891 0.75049,0.2941 2.1005,1.198 2.1005,1.198 l 3.1422,-3.4324 c 0,0 -1.35,-0.9039 -2.1005,-1.1979 -0.67022,-0.2625 -2.1033,-0.4891 -2.1033,-0.4891 l -1.5711,1.7161 L 35.1,1015.9"
             fill="none"
             stroke="#f4f2ef"
             stroke-linecap="round"
             stroke-linejoin="round"
             stroke-width="0.99921"
             id="path1199" />
          <path
             d="m 99.203,1012.3 c 0,0 -1.4196,0.6113 -2.061,1.0351 -0.75091,0.4962 -2.061,1.7444 -2.061,1.7444 l 2.8251,2.855 c 0,0 1.3101,-1.2482 2.061,-1.7444 0.6414,-0.4239 2.061,-1.0352 2.061,-1.0352 l -1.4125,-1.4274 z"
             fill="none"
             stroke="#f4f2ef"
             stroke-linecap="round"
             stroke-linejoin="round"
             stroke-width="1px"
             id="path1201" />
          <g
             transform="rotate(12.236,-441.6,645.49)"
             id="g1205">
            <path
               d="M 137.37,851.29"
               fill="none"
               stroke="#e9c13a"
               stroke-linecap="round"
               stroke-linejoin="round"
               stroke-width="0.29055"
               id="path1203" />
          </g>
          <path
             d="m 91.079,968.8 1.7361,8.0841 4.9181,-7.5251 1.6611,8.4529 4.8003,-6.9476 1.5205,9.1425 4.7218,-6.5631 0.82922,3.6345 -2.493,4.5277 -3.0581,-1.5991 -6.3208,-2.1949 -6.5791,-0.92785 -6.7766,0.376 z"
             fill-rule="evenodd"
             stroke="#000000"
             stroke-linecap="round"
             stroke-linejoin="round"
             stroke-width="1px"
             id="path1207" />
        </g>
        <path
           d="m 29.162,927.29 a 265.6,265.6 0 0 0 -5.6699,12.588 111.47,111.47 0 0 0 47.738,10.891 111.47,111.47 0 0 0 56.762,-15.682 265.6,265.6 0 0 0 -6.4961,-12.186 97.65,97.65 0 0 1 -5.9726,3.4258 97.65,97.65 0 0 1 -8.9082,3.9863 97.65,97.65 0 0 1 -9.2637,3.0781 97.65,97.65 0 0 1 -9.5234,2.1367 97.65,97.65 0 0 1 -9.6914,1.1777 97.65,97.65 0 0 1 -6.9062,0.24414 97.65,97.65 0 0 1 -9.748,-0.48828 97.65,97.65 0 0 1 -9.6523,-1.459 97.65,97.65 0 0 1 -9.457,-2.4141 97.65,97.65 0 0 1 -9.1699,-3.3476 97.65,97.65 0 0 1 -4.041,-1.9512 z"
           fill="#dd1d1d"
           opacity="0.97"
           stroke="#000000"
           stroke-linecap="round"
           stroke-linejoin="round"
           stroke-width="0.99921"
           id="path1211" />
        <path
           d="M 126.8,932.84 A 108.81,108.81 0 0 1 71.226,948.102 108.81,108.81 0 0 1 24.52,937.568"
           fill="none"
           opacity="0.97"
           stroke="#000000"
           stroke-linecap="round"
           stroke-linejoin="round"
           stroke-width="0.99921"
           id="path1213" />
        <path
           d="M 122.8,925.33 A 100.31,100.31 0 0 1 71.231,939.601 100.31,100.31 0 0 1 28.02,929.8162"
           fill="none"
           opacity="0.97"
           stroke="#000000"
           stroke-linecap="round"
           stroke-linejoin="round"
           stroke-width="0.99921"
           id="path1215" />
        <path
           d="m 101.22,884.94 -3.9256,7.4941 -3.0065,-9.0099 -4.1834,8.5275 -3.246,-8.9637 -3.9544,8.6746 -3.4851,-8.9112 -3.7208,8.8155 -3.7233,-8.8522 -3.4818,8.9501 -3.9617,-8.7869 -3.2386,9.0783 -4.1988,-8.715"
           fill="none"
           stroke="#000000"
           stroke-linecap="round"
           stroke-linejoin="round"
           stroke-width="0.99921"
           id="path1217" />
        <path
           d="m 24.525,937.57 7.724,-5.8554 1.198,9.6184 7.1726,-6.519 2.0487,9.474 6.5643,-7.1309 2.8832,9.2544 5.9041,-7.6863 3.6949,8.9615 5.1971,-8.1808 4.4775,8.5975 4.4489,-8.6104 5.2245,8.1654 3.6656,-8.9718 5.9302,7.6685 2.8532,-9.2621 6.5889,7.1108 2.0183,-9.4791 7.1954,6.4966 1.1674,-9.621 7.7449,5.831 0.30725,-9.6866 8.233,5.119"
           fill="none"
           stroke="#000000"
           stroke-linecap="round"
           stroke-linejoin="round"
           stroke-width="0.99921"
           id="path1219" />
        <path
           d="m 16.289,854.42 v 39.688 c 3.1979,2.1725 6.8957,4.3157 19.885,5.0195 -0.51847,-1.5978 -0.86028,-3.3043 -1.0801,-4.9707 -0.2198,-1.6664 -0.31661,-3.2937 -0.34375,-4.7324 -0.05428,-2.8775 0.16977,-5.0024 0.25,-5.1914 -1.0266,-2.9326 -5.7072,-6.2499 -9.75,-9.5 2.9847,-2.8446 5.603,-5.8547 8.1152,-8.9141 z"
           fill="#1780ce"
           fill-rule="evenodd"
           stroke="#000000"
           stroke-linecap="round"
           stroke-linejoin="round"
           stroke-width="0.99921"
           id="path1221" />
        <path
           d="m 42.768,853.67 -0.02734,-0.0195 -26.451,-17.658 v 18.436 l 17.076,11.398 c 3.2746,-3.9878 6.3613,-8.0623 9.4023,-12.156 z"
           fill="#dd1d1d"
           fill-rule="evenodd"
           stroke="#000000"
           stroke-linecap="round"
           stroke-linejoin="round"
           stroke-width="0.99921"
           id="path1223" />
        <path
           d="m 26.123,824.35 c -1.8522,0.0807 -3.7704,2.2661 -6.0527,3.3203 l -3.7812,3.7539 v 4.5644 l 26.451,17.658 0.02734,0.0195 c 1.5821,-2.1298 3.1436,-4.2688 4.7949,-6.3672 l -7.25,-18.062 c -4.6421,-1.8277 -8.6327,-5.129 -14.189,-4.8867 z"
           fill="#e9c13a"
           fill-rule="evenodd"
           stroke="#000000"
           stroke-linecap="round"
           stroke-linejoin="round"
           stroke-width="0.99921"
           id="path1225" />
        <path
           d="m 103.9,899.52 c -3.1175,3.1192 -6.6498,4.6568 -9.105,11.152 -0.93281,2.835 -3.3536,2.849 -2.2539,4.4194 2.3663,1.5159 3.7113,-0.76139 5.3033,-2.1213 0.31708,8.1108 -1.5002,8.3237 -3.3588,10.076 -1.0181,1.1966 0.85372,2.7872 2.5191,1.6794 0.47867,2.6986 2.6078,0.89566 3.7123,0.35355 0.99402,1.7987 3.3733,0.83296 5.1265,-0.44194 0.73367,0.63726 1.7892,0.48774 3.5797,-1.4584 4.9676,-5.3902 3.4009,-12.647 5.1013,-18.971 -2.0442,-2.8772 -2.151,-7.4556 -10.625,-4.6874 z"
           fill="#f4f2ef"
           fill-rule="evenodd"
           stroke="#000000"
           stroke-linecap="round"
           stroke-linejoin="round"
           stroke-width="0.99921"
           id="path1227" />
        <g
           id="g1249">
          <path
             d="m 117.73,903.7 c -1.0375,-1.0676 -2.0909,-2.0536 -3.168,-2.9199 -1.0771,-0.86629 -2.1788,-1.6126 -3.3106,-2.2012 -1.1317,-0.58857 -2.2927,-1.0195 -3.4941,-1.2539 -1.2014,-0.23439 -2.4424,-0.27241 -3.7285,-0.0762 l -1.0579,2.2881 c 6.9126,-0.2526 9.2643,2.6654 13.32,6.2734 z"
             fill="#f4f2ef"
             fill-rule="evenodd"
             stroke="#000000"
             stroke-linecap="round"
             stroke-linejoin="round"
             stroke-width="0.99921"
             id="path1229" />
          <path
             d="m 132.73,850.93 c -1.5466,-0.007 -3.09,0.0989 -4.6172,0.31641 -1.5272,0.2175 -3.0383,0.54602 -4.5215,0.98437 -1.4832,0.43835 -2.937,0.98689 -4.3516,1.6426 -1.4142,0.65557 -2.7736,1.4115 -4.0664,2.2598 -1.2928,0.8483 -2.5191,1.7899 -3.6719,2.8144 -0.69785,0.62023 -1.312,1.3278 -1.9531,2.0078 0.61881,0.53604 1.1952,1.1034 1.8203,1.6348 -2.4378,11.583 -2.6775,22.484 -7.3386,34.659 1.2861,-0.19624 2.5271,-0.15822 3.7285,0.0762 1.2014,0.23439 2.3624,0.66534 3.4941,1.2539 1.1317,0.58856 2.2334,1.3349 3.3106,2.2012 1.0771,0.86629 2.1305,1.8524 3.168,2.9199 6.6355,-8.6507 13.003,-17.148 18.337,-30.681 v -21.83 c -1.112,-0.12266 -2.225,-0.25484 -3.3379,-0.25977 z"
             fill="#1780ce"
             fill-rule="evenodd"
             stroke="#000000"
             stroke-linecap="round"
             stroke-linejoin="round"
             stroke-width="0.99921"
             id="path1231" />
          <path
             d="m 136,848.34 0.0684,0.14453 v -0.0352 c -0.0238,-0.0423 -0.0446,-0.0673 -0.0684,-0.10937 z"
             fill="none"
             stroke="#e9c13a"
             stroke-width="0.29055"
             id="path1233" />
          <path
             d="m 136.05,848.45 c -1.5297,-0.15465 -3.0635,-0.20831 -4.5898,-0.1582 -1.5329,0.0503 -3.0592,0.20166 -4.5684,0.45508 -1.5092,0.25342 -3.0016,0.60744 -4.4668,1.0605 -1.4652,0.45311 -2.9038,1.0069 -4.3047,1.6562 -1.4009,0.64937 -2.7503,1.3896 -4.043,2.2148 -1.2927,0.8253 -2.5285,1.7347 -3.6973,2.7226 -0.99716,0.84288 -1.9201,1.7704 -2.8164,2.7227 0.66687,0.60661 1.2994,1.2387 1.9844,1.832 0.64107,-0.67997 1.2553,-1.3876 1.9531,-2.0078 1.1528,-1.0246 2.3791,-1.9662 3.6719,-2.8144 1.2928,-0.8482 2.6522,-1.6042 4.0664,-2.2598 1.4146,-0.65569 2.8684,-1.2042 4.3516,-1.6426 1.4832,-0.4384 2.9943,-0.76687 4.5215,-0.98437 1.5272,-0.2175 3.0706,-0.32326 4.6172,-0.31641 1.1129,0.005 2.2259,0.13711 3.3379,0.25977 v -2.7051 l -0.0176,-0.0352 z"
             fill="#dd1d1d"
             fill-rule="evenodd"
             stroke="#000000"
             stroke-linecap="round"
             stroke-linejoin="round"
             stroke-width="0.99921"
             id="path1235" />
          <path
             d="m 130.82,840.2 c -2.5492,0.18215 -5.0912,0.46613 -7.5664,1.0664 -2.9128,0.7064 -5.7559,1.6983 -8.4883,2.9648 -2.7294,1.2652 -5.3229,2.7928 -7.7422,4.5566 -1.8711,1.3642 -3.537,2.9856 -5.1855,4.6211 1.8035,1.9826 3.7118,3.8877 5.7226,5.7168 0.89631,-0.95226 1.8192,-1.8798 2.8164,-2.7227 1.1687,-0.98791 2.4046,-1.8974 3.6973,-2.7226 1.2927,-0.8253 2.6421,-1.5655 4.043,-2.2148 1.4009,-0.64937 2.8395,-1.2031 4.3047,-1.6562 1.4652,-0.4531 2.9576,-0.80712 4.4668,-1.0605 1.5092,-0.25342 3.0355,-0.40476 4.5684,-0.45508 1.5264,-0.0501 3.0601,0.004 4.5898,0.1582 l -0.0508,-0.10937 c -1.8521,-3.2884 -3.5407,-5.8289 -5.1758,-8.1426 z"
             fill="#dd1d1d"
             fill-rule="evenodd"
             stroke="#000000"
             stroke-linecap="round"
             stroke-linejoin="round"
             stroke-width="0.99921"
             id="path1237" />
          <path
             d="m 129.07,837.71 c -2.3481,0.24477 -4.6948,0.52427 -6.9766,1.1055 -2.8931,0.73692 -5.7192,1.7391 -8.4394,3 -2.7228,1.2621 -5.3159,2.7723 -7.75,4.5059 -2.116,1.507 -4.0506,3.2541 -5.9043,5.0859 0.58109,0.69151 1.236,1.3278 1.8457,1.998 1.6486,-1.6355 3.3144,-3.2569 5.1855,-4.6211 2.4193,-1.7638 5.0128,-3.2914 7.7422,-4.5566 2.7324,-1.2665 5.5755,-2.2584 8.4883,-2.9648 2.4752,-0.60027 5.0172,-0.88425 7.5664,-1.0664 -0.5862,-0.82948 -1.1902,-1.7322 -1.7578,-2.4863 z"
             fill="#dd1d1d"
             fill-rule="evenodd"
             stroke="#000000"
             stroke-linecap="round"
             stroke-linejoin="round"
             stroke-width="0.99921"
             id="path1239" />
          <path
             d="m 109.57,825.09 c -7.9624,0.35149 -11.675,5.0522 -18.707,6.2117 0.90068,8.2884 4.493,14.586 9.1328,20.107 1.8537,-1.8319 3.7883,-3.5789 5.9043,-5.0859 2.4341,-1.7336 5.0272,-3.2438 7.75,-4.5059 2.7202,-1.2609 5.5463,-2.2631 8.4394,-3 2.2818,-0.5812 4.6285,-0.8607 6.9766,-1.1055 -3.6565,-4.858 -6.7836,-9.7645 -9.5254,-12.355 -3.7668,-0.84915 -7.3169,-0.38355 -9.971,-0.26639 z"
             fill="#e9c13a"
             fill-rule="evenodd"
             stroke="#000000"
             stroke-linecap="round"
             stroke-linejoin="round"
             stroke-width="0.99921"
             id="path1241" />
          <path
             d="M 105.55,866.04"
             fill="none"
             stroke="#e9c13a"
             stroke-linecap="round"
             stroke-linejoin="round"
             stroke-width="0.29055"
             id="path1243" />
          <path
             d="m 111.37,862.59 1.9447,1.5032"
             fill="none"
             stroke="#000000"
             stroke-linecap="round"
             stroke-linejoin="round"
             stroke-width="1px"
             id="path1245" />
          <path
             d="m 104.07,851.26 5.6833,5.6977 -0.96556,-9.3873 5.7419,5.8305 -0.6757,-8.7296 5.8952,6.0925 -0.53135,-8.3163 6.085,6.609 -0.41502,-8.1382 6.4257,7.382 -0.48519,-8.099 5.21,8.2148 -4.7248,-0.11579 -6.0107,0.7562 -5.5536,1.7072 -5.2195,2.6371 -4.7763,3.5567 -2.2365,2.1224 -2.6495,-2.5172 z"
             fill-rule="evenodd"
             stroke="#000000"
             stroke-linecap="round"
             stroke-linejoin="round"
             stroke-width="0.99921"
             id="path1247" />
        </g>
        <path
           d="M 40.811,856.25 16.29,839.879"
           fill="none"
           stroke="#000000"
           stroke-linecap="round"
           stroke-linejoin="round"
           stroke-width="1px"
           id="path1251" />
        <path
           d="M 35.751,862.94 16.29,849.948"
           fill="none"
           stroke="#000000"
           stroke-linecap="round"
           stroke-linejoin="round"
           stroke-width="1px"
           id="path1253" />
        <path
           d="M 17.453,830.27 46,849.328"
           fill="none"
           stroke="#000000"
           stroke-linecap="round"
           stroke-linejoin="round"
           stroke-width="1px"
           id="path1255" />
        <path
           d="m 20.884,842.94 -2.5119,8.3926 7.49,-5.0692 -2.5119,8.3926 7.49,-5.0691 -2.5119,8.3926 7.49,-5.0691 -2.5119,8.3926 7.5049,-5.0592 -5.0994,6.6652 -19.422,-12.966 -8.68e-4,-5.0106 z"
           fill-rule="evenodd"
           stroke="#000000"
           stroke-linecap="round"
           stroke-linejoin="round"
           stroke-width="1px"
           id="path1257" />
        <path
           d="m 25.25,874.74 c -2.292,-1.2589 -3.3808,-1.3269 -6.1875,-0.40538"
           fill="none"
           stroke="#000000"
           stroke-linecap="round"
           stroke-linejoin="round"
           stroke-width="1px"
           id="path1259" />
        <path
           d="m 44.094,884.27 -1.4531,0.12505"
           fill="none"
           stroke="#000000"
           stroke-linecap="round"
           stroke-linejoin="round"
           stroke-width="0.99921"
           id="path1261" />
        <path
           d="m 62.756,797.21 v 5.4707 c 0,0 0.03082,1.6387 -0.35352,2.3203 -0.33298,0.59054 -1.5625,1.3047 -1.5625,1.3047 l -4.5469,2.0352 c 0,3.8763 6.5814,7.8736 10.459,8.0268 5.7022,0.18347 18.008,-1.973 18.008,-9.1772 l -2.4121,-1.6875 c 0,0 -0.22328,-0.23516 -0.29297,-0.37891 -0.07939,-0.16377 -0.13281,-0.53125 -0.13281,-0.53125 v -6.2101 c -10.041,15.486 -17.544,0.62601 -19.166,-1.1728 z"
           fill="#f4f2ef"
           fill-rule="evenodd"
           stroke="#000000"
           stroke-linecap="round"
           stroke-linejoin="round"
           stroke-width="1px"
           id="path1263" />
        <g
           stroke="#000000"
           id="g1283">
          <path
             d="m 113.13,818.98 a 88.437,88.437 0 0 1 -5.1504,2.9551 88.437,88.437 0 0 1 -8.0703,3.6113 88.437,88.437 0 0 1 -8.3887,2.7871 88.437,88.437 0 0 1 -8.625,1.9356 88.437,88.437 0 0 1 -8.7754,1.0644 88.437,88.437 0 0 1 -6.2559,0.22266 88.437,88.437 0 0 1 -8.8301,-0.44141 88.437,88.437 0 0 1 -8.7402,-1.3223 88.437,88.437 0 0 1 -8.5645,-2.1875 88.437,88.437 0 0 1 -8.3047,-3.0313 88.437,88.437 0 0 1 -7.6016,-3.6719 111.47,111.47 0 0 0 -5.752,6.7637 8.713,8.713 0 0 0 7.4629,0.0215 8.713,8.713 0 0 0 5.3105,6.0508 8.713,8.713 0 0 0 8.2148,-1.0527 8.713,8.713 0 0 0 6.293,5.3945 8.713,8.713 0 0 0 7.9512,-2.3184 8.713,8.713 0 0 0 7.0527,4.3516 8.713,8.713 0 0 0 7.4961,-3.5254 8.713,8.713 0 0 0 7.6426,3.2031 8.713,8.713 0 0 0 6.8574,-4.6465 8.713,8.713 0 0 0 8.0488,1.9746 8.713,8.713 0 0 0 6.0508,-5.6543 8.713,8.713 0 0 0 8.2578,0.70117 8.713,8.713 0 0 0 5.0996,-6.5293 8.713,8.713 0 0 0 7.7324,-0.2832 111.47,111.47 0 0 0 -6.4121,-6.373 z"
             fill="#dd1d1d"
             opacity="0.97"
             stroke-linecap="round"
             stroke-linejoin="round"
             stroke-width="0.99921"
             id="path1265" />
          <path
             d="m 113.13,818.98 a 88.437,88.437 0 0 1 -5.1504,2.9551 88.437,88.437 0 0 1 -8.0703,3.6113 88.437,88.437 0 0 1 -8.3887,2.7871 88.437,88.437 0 0 1 -8.625,1.9356 88.437,88.437 0 0 1 -8.7754,1.0644 88.437,88.437 0 0 1 -6.2559,0.22266 88.437,88.437 0 0 1 -8.8301,-0.44141 88.437,88.437 0 0 1 -8.7402,-1.3223 88.437,88.437 0 0 1 -8.5645,-2.1875 88.437,88.437 0 0 1 -8.3047,-3.0313 88.437,88.437 0 0 1 -7.6016,-3.6719 111.47,111.47 0 0 0 -4.2812,4.8301 6.4098,6.4098 0 0 0 2.0117,0.33203 6.4098,6.4098 0 0 0 5.498,-3.1289 c 0.30997,0.15074 0.62402,0.29241 0.93555,0.43946 a 6.4098,6.4098 0 0 0 -0.41211,2.2363 6.4098,6.4098 0 0 0 6.4102,6.4082 6.4098,6.4098 0 0 0 5.9473,-4.0274 c 0.32572,0.0996 0.64975,0.20299 0.97656,0.29883 a 6.4098,6.4098 0 0 0 -0.12695,1.2695 6.4098,6.4098 0 0 0 6.4102,6.4102 6.4098,6.4098 0 0 0 6.2383,-4.9707 c 0.34043,0.0482 0.68234,0.0885 1.0234,0.13281 a 6.4098,6.4098 0 0 0 -0.01367,0.2793 6.4098,6.4098 0 0 0 6.4102,6.4102 6.4098,6.4098 0 0 0 6.3887,-5.9688 c 0.34318,-0.005 0.68646,-0.008 1.0293,-0.0176 a 6.4098,6.4098 0 0 0 6.3633,5.6934 6.4098,6.4098 0 0 0 6.4102,-6.4102 6.4098,6.4098 0 0 0 -0.02734,-0.55078 c 0.33566,-0.0581 0.67099,-0.1177 1.0059,-0.17969 a 6.4098,6.4098 0 0 0 6.1797,4.7109 6.4098,6.4098 0 0 0 6.4102,-6.4102 6.4098,6.4098 0 0 0 -0.19531,-1.5391 c 0.32582,-0.11069 0.65005,-0.22536 0.97461,-0.33985 a 6.4098,6.4098 0 0 0 5.8359,3.7774 6.4098,6.4098 0 0 0 6.4102,-6.4082 6.4098,6.4098 0 0 0 -0.50977,-2.4883 c 0.30333,-0.15928 0.61047,-0.30977 0.91211,-0.47265 a 6.4098,6.4098 0 0 0 5.3535,2.8887 6.4098,6.4098 0 0 0 2.5781,-0.54492 111.47,111.47 0 0 0 -4.8398,-4.582 z"
             opacity="0.97"
             stroke-linecap="round"
             stroke-linejoin="round"
             stroke-width="0.99921"
             id="path1267" />
          <path
             d="m 25.822,820.91 a 88.437,88.437 0 0 0 7.6016,3.6719 88.437,88.437 0 0 0 8.3047,3.0313 88.437,88.437 0 0 0 8.5645,2.1875 88.437,88.437 0 0 0 8.7402,1.3223 88.437,88.437 0 0 0 8.8301,0.44141 88.437,88.437 0 0 0 6.2559,-0.22266 88.437,88.437 0 0 0 8.7754,-1.0644 88.437,88.437 0 0 0 8.625,-1.9356 88.437,88.437 0 0 0 8.3887,-2.7871 88.437,88.437 0 0 0 8.0703,-3.6113 88.437,88.437 0 0 0 5.1055,-2.9277 c -6.7417,-2.996 -13.77,-5.243 -20.959,-6.7246 a 73.378,73.378 0 0 1 -24.262,4.2148 73.378,73.378 0 0 1 -22.303,-3.5039 c -0.02016,0.005 -0.03402,0.008 -0.05469,0.0137 -6.1951,1.7342 -13.887,5.0084 -19.686,7.8926 l 0.002,0.002 z"
             fill="#dd1d1d"
             opacity="0.97"
             stroke-linecap="round"
             stroke-linejoin="round"
             stroke-width="0.99921"
             id="path1269" />
          <path
             d="m 84.76,807.19 a 66.292,66.292 0 0 1 -16.896,2.2285 66.292,66.292 0 0 1 -11.57,-1.0781 l -10.732,4.6621 c 7.209,2.3115 14.732,3.4934 22.303,3.5039 8.2669,-0.0282 16.47,-1.4532 24.262,-4.2148 z"
             fill="#f4f2ef"
             fill-rule="evenodd"
             stroke-width="1px"
             id="path1271" />
          <path
             d="m 109.93,817.88 a 85.78,85.78 0 0 1 -42.065,11.022 85.78,85.78 0 0 1 -38.93,-9.3427"
             fill="none"
             opacity="0.97"
             stroke-linecap="round"
             stroke-linejoin="round"
             stroke-width="0.99921"
             id="path1273" />
          <path
             d="M 100.73,814.62 A 78.693,78.693 0 0 1 67.862,821.8129 78.693,78.693 0 0 1 37.66,815.7866"
             fill="none"
             opacity="0.97"
             stroke-linecap="round"
             stroke-linejoin="round"
             stroke-width="0.99921"
             id="path1275" />
          <path
             d="m 96.619,813.51 a 76.036,76.036 0 0 1 -28.755,5.6471 76.036,76.036 0 0 1 -26.285,-4.6876"
             fill="none"
             opacity="0.97"
             stroke-linecap="round"
             stroke-linejoin="round"
             stroke-width="0.99921"
             id="path1277" />
          <path
             d="m 39.015,823.91 7.284,-5.1025 3.5006,8.1754 6.556,-6.0091 4.5371,7.6489 5.7162,-6.813 5.4961,6.9917 4.7785,-7.5004 6.3612,6.215 3.7593,-8.0596 7.1175,5.3321 2.6759,-8.4812 7.7523,4.358 1.0018,-4.645"
             fill="none"
             stroke-linecap="round"
             stroke-linejoin="round"
             stroke-width="1px"
             id="path1279" />
          <path
             d="m 45.561,813 6.7489,-2.9079 1.5851,5.0503 5.2044,-6.3538 3.3448,7.5074 4.4136,-6.8871 4.2024,7.0145 3.5742,-7.3692 4.9991,6.4989 2.6874,-7.7322 5.7044,5.7873 0.80869,-3.5989 3.2908,2.2801 -4.0808,1.3843 -8.4168,1.8406 -8.5666,0.9193 -8.6164,-0.13749 -8.5491,-1.1536 -8.334,-2.1424"
             fill-rule="evenodd"
             stroke-linecap="round"
             stroke-linejoin="round"
             stroke-width="1px"
             id="path1281" />
        </g>
        <g
           stroke="#000000"
           id="g1313">
          <path
             d="m 21.776,764.67 22.143,114.24 11.983,-2.3228 -25.7,-113.55 -5.3268,-4.4867 z"
             fill="#1780ce"
             fill-rule="evenodd"
             stroke-linecap="round"
             stroke-linejoin="round"
             stroke-width="0.99921"
             id="path1285" />
          <path
             d="m 25.629,762.14 -1.4473,2.8809 21.988,113.45 3.7402,-0.72461 3.7168,-0.83984 -25.512,-112.71 z"
             fill-rule="evenodd"
             stroke-width="1px"
             id="path1287" />
          <g
             transform="matrix(1.1345,-0.19392,0.21991,1.0004,-231.02,8.044)"
             stroke-linecap="round"
             stroke-linejoin="round"
             id="g1297">
            <path
               d="m 71,883.99 v 14.688 H 81.562 V 883.99 H 71"
               fill="#f4f2ef"
               fill-rule="evenodd"
               stroke-width="0.92078"
               id="path1289" />
            <path
               d="m 72.597,883.99 v 14.688 h 7.3735 V 883.99 H 72.597"
               fill="none"
               stroke-width="0.59426"
               id="path1291" />
            <path
               d="m 74.016,883.99 v 14.688 h 4.5389 V 883.99 H 74.016"
               fill="none"
               stroke-width="0.59426"
               id="path1293" />
            <path
               d="m 75.436,883.99 v 14.688 h 1.7042 V 883.99 H 75.436"
               fill="none"
               stroke-width="0.59426"
               id="path1295" />
          </g>
          <path
             d="m 60.443,867.92 c -2.7093,-0.17482 -5.3971,2.3617 -2.3145,6.0644 -3.3863,0.50046 -6.6414,-0.82251 -9.7852,-3.7051 -1.7184,3.9038 -4.1673,6.4239 -7.4688,7.3281 2.1319,-7.4081 -8.0594,-6.1376 -6.4688,0.125 3.9145,8.6917 13.499,1.8361 15.656,0.73828 2.4167,0.13713 13.952,2.5575 14.039,-6.9746 -0.39876,-2.39 -2.0326,-3.4713 -3.6582,-3.5762 z"
             fill="#e9c13a"
             fill-rule="evenodd"
             stroke-width="0.99921"
             id="path1299" />
          <g
             transform="rotate(-11.861,52.788,987.05)"
             stroke-linecap="round"
             stroke-linejoin="round"
             id="g1309">
            <ellipse
               cx="72.438004"
               cy="909.98999"
               rx="6.8125"
               ry="17"
               fill="#dd1d1d"
               opacity="0.97"
               stroke-width="0.99921"
               id="ellipse1301" />
            <ellipse
               cx="72.438004"
               cy="909.98999"
               rx="4.6859999"
               ry="13.113"
               fill="none"
               opacity="0.97"
               stroke-width="0.64488"
               id="ellipse1303" />
            <ellipse
               cx="72.438004"
               cy="909.98999"
               rx="2.0285001"
               ry="9.1782999"
               fill="none"
               opacity="0.97"
               stroke-width="0.64488"
               id="ellipse1305" />
            <path
               d="m 72.438,892.99 v 30.113"
               fill="none"
               stroke-width="0.99921"
               id="path1307" />
          </g>
          <path
             d="m 62.685,927.26 a 2.375,2.375 0 0 1 -2.375,2.375 2.375,2.375 0 0 1 -2.375,-2.375 2.375,2.375 0 0 1 2.375,-2.375 2.375,2.375 0 0 1 2.375,2.375 z"
             opacity="0.97"
             stroke-linecap="round"
             stroke-linejoin="round"
             stroke-width="0.99921"
             id="path1311" />
        </g>
        <path
           d="m 37.697,886.21 c 1.52,-0.68351 1.4139,-2.4314 3.5213,-3.4684 0.74652,-0.29613 1.7735,-0.26152 2.875,-5e-5 0.69358,0.15907 0.68321,1.2561 0,1.5312 3.5526,-0.22123 4.0709,0.22358 6.1525,0.58238 1.7932,-1.3048 3.5262,-1.8434 5.5625,-2.5 -0.05144,-2.2869 0.91382,-2.3578 1.8788,-2.2699 1.1123,0.5206 0.7986,2.4299 0.78125,3.9375 0.6217,-1.6983 1.9676,-0.57194 1.9375,0.71875 -0.10168,1.6543 -0.78748,3.036 -1.4062,4.4688 1.8021,0.75163 0.33342,2.6393 -0.75,4.1562 1.1525,-0.10515 1.2536,0.49065 0.40625,1.7188 -1.4167,2.387 -2.2192,2.3687 -4.25,3.1875 -2.7853,1.1514 -5.2253,0.92195 -7.6875,0.78125 -4.8138,-0.008 -3.0279,-0.91925 -7.7769,-1.0331 -3.6617,-4.6281 -3.4856,-8.4454 -1.2431,-11.826"
           fill="#f4f2ef"
           fill-rule="evenodd"
           stroke="#000000"
           stroke-linecap="round"
           stroke-linejoin="round"
           stroke-width="0.99921"
           id="path1315" />
        <path
           d="m 35,884.24 c -0.08023,0.18899 -0.30428,2.3139 -0.25,5.1914 0.02714,1.4387 0.12395,3.066 0.34375,4.7324 0.2198,1.6664 0.5616,3.3729 1.0801,4.9707 1.0639,0.33856 2.0676,0.28293 3.0137,-0.14453 -1.2541,-4.8397 -2.1397,-9.7571 -1.1875,-15.062 -0.89849,-0.45415 -1.8667,-0.52469 -3,0.3125 z"
           fill="#f4f2ef"
           fill-rule="evenodd"
           stroke="#000000"
           stroke-linecap="round"
           stroke-linejoin="round"
           stroke-width="0.99921"
           id="path1317" />
        <path
           d="m 97.006,924.73 c 0.87627,-0.77496 1.5205,-0.94142 2.1226,-1.4995 3.143,-2.9133 2.8937,-4.0526 3.711,-8.2232"
           fill="none"
           stroke="#000000"
           stroke-linecap="round"
           stroke-linejoin="round"
           stroke-width="0.64488"
           id="path1319" />
        <path
           d="m 100.72,925.08 c 1.0207,-0.68158 1.5121,-0.82944 2.1455,-1.4806 2.3754,-2.4419 2.6794,-4.3254 3.3841,-6.6618"
           fill="none"
           stroke="#000000"
           stroke-linecap="round"
           stroke-linejoin="round"
           stroke-width="0.64488"
           id="path1321" />
        <path
           d="m 105.85,924.64 c 0.79776,-0.90249 1.5005,-1.5465 1.8292,-2.2779 0.64248,-1.4295 1.1491,-2.4276 1.7979,-4.224"
           fill="none"
           stroke="#000000"
           stroke-linecap="round"
           stroke-linejoin="round"
           stroke-width="0.64488"
           id="path1323" />
        <path
           d="m 97.846,912.97 0.08839,-2.5191"
           fill="none"
           stroke="#000000"
           stroke-linecap="round"
           stroke-linejoin="round"
           stroke-width="0.99921"
           id="path1325" />
        <path
           d="m 58.469,884.02 c -0.49643,2.3589 -2.0701,2.7291 -5.9375,4.75"
           fill="none"
           stroke="#000000"
           stroke-linecap="round"
           stroke-linejoin="round"
           stroke-width="0.64488"
           id="path1327" />
        <path
           d="m 59,889.21 c -1.1492,1.2642 -2.8085,2.153 -5.1875,3.0313"
           fill="none"
           stroke="#000000"
           stroke-linecap="round"
           stroke-linejoin="round"
           stroke-width="0.64488"
           id="path1329" />
        <path
           d="m 58.25,893.36 c -1.4556,1.7314 -1.83,1.6309 -3.8125,2.3126"
           fill="none"
           stroke="#000000"
           stroke-linecap="round"
           stroke-linejoin="round"
           stroke-width="0.64488"
           id="path1331" />
        <path
           d="m 7.6259,740.96 c -3.9978,0 -7.2148,4.7281 -7.2148,10.602 v 289.79 c 0,5.8734 3.2171,10.602 7.2148,10.602 h 137.11 c 3.9978,0 7.2168,-4.7282 7.2168,-10.602 v -289.79 c 0,-5.8735 -3.219,-10.602 -7.2168,-10.602 z m 14.369,15.879 h 108.37 c 3.1599,0 5.7031,4.2459 5.7031,9.5195 v 260.19 c 0,5.2737 -2.5432,9.5195 -5.7031,9.5195 h -108.37 c -3.1599,0 -5.7051,-4.2458 -5.7051,-9.5195 v -260.19 c 0,-5.2736 2.5452,-9.5195 5.7051,-9.5195 z"
           fill="#f4f2ef"
           fill-rule="evenodd"
           stroke="#000000"
           stroke-width="0.82205"
           id="path1333" />
      </g>
    </g>
  </g>
</svg>
