<?xml version="1.0" encoding="UTF-8" standalone="no"?>
<svg
   width="43.005013mm"
   height="88.006874mm"
   enable-background="new"
   version="1.1"
   viewBox="0 0 152.38109 311.83441"
   id="svg20076"
   sodipodi:docname="Mazzo.svg"
   inkscape:version="1.2.1 (9c6d41e410, 2022-07-14)"
   xmlns:inkscape="http://www.inkscape.org/namespaces/inkscape"
   xmlns:sodipodi="http://sodipodi.sourceforge.net/DTD/sodipodi-0.dtd"
   xmlns="http://www.w3.org/2000/svg"
   xmlns:svg="http://www.w3.org/2000/svg"
   xmlns:rdf="http://www.w3.org/1999/02/22-rdf-syntax-ns#"
   xmlns:cc="http://creativecommons.org/ns#"
   xmlns:dc="http://purl.org/dc/elements/1.1/">
  <sodipodi:namedview
     id="namedview20078"
     pagecolor="#ffffff"
     bordercolor="#000000"
     borderopacity="0.25"
     inkscape:showpageshadow="2"
     inkscape:pageopacity="0.0"
     inkscape:pagecheckerboard="0"
     inkscape:deskcolor="#d1d1d1"
     inkscape:document-units="mm"
     showgrid="false"
     inkscape:zoom="2.8284271"
     inkscape:cx="196.57568"
     inkscape:cy="470.75634"
     inkscape:window-width="2560"
     inkscape:window-height="1409"
     inkscape:window-x="0"
     inkscape:window-y="31"
     inkscape:window-maximized="1"
     inkscape:current-layer="svg20076" />
  <title
     id="title2">Bresciane</title>
  <defs
     id="defs191">
    <pattern
       id="b"
       width="3.542969"
       height="4.72461"
       patternTransform="translate(-52.264 805.51)"
       patternUnits="userSpaceOnUse">
      <path
         d="m0 0v0.53906l0.48242 0.64258-0.48242 0.64453v1.0742l0.48242 0.64258-0.48242 0.64258v0.53906h0.40625l-0.001953-0.00195 0.48047-0.64258 0.48438 0.64453h0.80664l0.48242-0.64258 0.48242 0.64258h0.40234v-0.53711l-0.48242-0.64258 0.48242-0.64453v-1.0762l-0.48242-0.64258 0.48242-0.64453v-0.53711h-0.40234l-0.48242 0.64258-0.48242-0.64258h-0.80664l-0.48242 0.64453-0.48242-0.64258 0.001953-0.00195h-0.40625zm1.7715 0.53711 0.48242 0.64453-0.48242 0.64258-0.48242-0.64258 0.48242-0.64453zm-0.88476 1.1816 0.48242 0.64258-0.48438 0.64453-0.48242-0.64258 0.48438-0.64453zm1.7715 0 0.48242 0.64453-0.48242 0.64258-0.48438-0.64258 0.48438-0.64453zm-0.88672 1.1816 0.48242 0.64258-0.48242 0.64453-0.48242-0.64453 0.48242-0.64258z"
         color="#000000"
         color-rendering="auto"
         enable-background="accumulate"
         fill-rule="evenodd"
         image-rendering="auto"
         shape-rendering="auto"
         solid-color="#000000"
         style="block-progression:tb;isolation:auto;mix-blend-mode:normal;text-decoration-color:#000000;text-decoration-line:none;text-decoration-style:solid;text-indent:0;text-transform:none;white-space:normal"
         id="path29" />
    </pattern>
  </defs>
  <metadata
     id="metadata193">
    <rdf:RDF>
      <cc:Work
         rdf:about="">
        <dc:format>image/svg+xml</dc:format>
        <dc:type
           rdf:resource="http://purl.org/dc/dcmitype/StillImage" />
        <dc:title>Bresciane</dc:title>
        <dc:date>2020</dc:date>
        <dc:creator>
          <cc:Agent>
            <dc:title>ZZandro</dc:title>
          </cc:Agent>
        </dc:creator>
        <dc:rights>
          <cc:Agent>
            <dc:title />
          </cc:Agent>
        </dc:rights>
        <cc:license
           rdf:resource="http://creativecommons.org/licenses/by-sa/4.0/" />
      </cc:Work>
      <cc:License
         rdf:about="http://creativecommons.org/licenses/by-sa/4.0/">
        <cc:permits
           rdf:resource="http://creativecommons.org/ns#Reproduction" />
        <cc:permits
           rdf:resource="http://creativecommons.org/ns#Distribution" />
        <cc:requires
           rdf:resource="http://creativecommons.org/ns#Notice" />
        <cc:requires
           rdf:resource="http://creativecommons.org/ns#Attribution" />
        <cc:permits
           rdf:resource="http://creativecommons.org/ns#DerivativeWorks" />
        <cc:requires
           rdf:resource="http://creativecommons.org/ns#ShareAlike" />
      </cc:License>
    </rdf:RDF>
  </metadata>
  <g
     id="g13442"
     style="display:inline"
     transform="translate(-1916.9001,-322.40399)">
    <g
       transform="matrix(0.97008,0,0,0.9964,951,-1425.1)"
       enable-background="new"
       fill="#f4f2ef"
       id="g12982">
      <g
         transform="matrix(0.70046,0,0,1.0004,298.31,-0.79223)"
         fill="#f4f2ef"
         id="g12980">
        <rect
           x="996.13"
           y="1754.4"
           width="223.23"
           height="311.81"
           rx="10.63"
           ry="10.63"
           fill="#f4f2ef"
           stroke="#000000"
           stroke-width="0.99673"
           id="rect12978" />
      </g>
    </g>
    <g
       transform="matrix(0.76704,0,0,0.8945,1169.1,-1230.4)"
       enable-background="new"
       fill="none"
       id="g12988">
      <g
         transform="matrix(0.70046,0,0,1.0004,298.31,-0.79223)"
         fill="none"
         id="g12986">
        <rect
           x="996.13"
           y="1754.4"
           width="223.23"
           height="311.81"
           rx="10.63"
           ry="10.63"
           fill="none"
           stroke="#000000"
           stroke-width="0.99673"
           id="rect12984" />
      </g>
    </g>
    <g
       transform="translate(1916.9,-418.13)"
       id="g13440">
      <g
         id="g13432">
        <g
           fill-rule="evenodd"
           stroke="#000000"
           stroke-linecap="round"
           stroke-linejoin="round"
           stroke-width="0.99921"
           id="g12994">
          <path
             d="m 93.4,827.57 a 79.402,79.402 0 0 0 -2.6816,3.5273 79.402,79.402 0 0 0 -4.1484,6.7656 79.402,79.402 0 0 0 -3.4531,7.1484 79.402,79.402 0 0 0 -2.7207,7.4551 79.402,79.402 0 0 0 -1.9629,7.6895 79.402,79.402 0 0 0 -1.1875,7.8476 79.402,79.402 0 0 0 -0.04883,0.97071 252.14,252.14 0 0 0 14.588,-0.51563 252.14,252.14 0 0 0 9.2754,-1.125 79.402,79.402 0 0 1 -0.67774,-5.584 79.402,79.402 0 0 1 -0.19922,-5.6172 79.402,79.402 0 0 1 0.39844,-7.9277 79.402,79.402 0 0 1 1.1856,-7.8476 79.402,79.402 0 0 1 1.9629,-7.6894 79.402,79.402 0 0 1 2.7226,-7.457 79.402,79.402 0 0 1 1.7363,-3.5957 61.685,61.685 0 0 1 -2.1445,1.2305 61.685,61.685 0 0 1 -5.6289,2.5195 61.685,61.685 0 0 1 -5.8516,1.9434 61.685,61.685 0 0 1 -1.1641,0.26172 z"
             fill="#e9c13a"
             id="path12990" />
          <path
             d="m 93.4,827.57 a 79.402,79.402 0 0 0 -2.6816,3.5273 79.402,79.402 0 0 0 -4.1484,6.7656 79.402,79.402 0 0 0 -3.4531,7.1484 79.402,79.402 0 0 0 -2.7207,7.4551 79.402,79.402 0 0 0 -1.9629,7.6895 79.402,79.402 0 0 0 -1.1875,7.8476 79.402,79.402 0 0 0 -0.04883,0.97071 252.14,252.14 0 0 0 14.588,-0.51563 252.14,252.14 0 0 0 9.2754,-1.125 79.402,79.402 0 0 1 -0.67774,-5.584 79.402,79.402 0 0 1 -0.19922,-5.6172 79.402,79.402 0 0 1 0.39844,-7.9277 79.402,79.402 0 0 1 1.1856,-7.8476 79.402,79.402 0 0 1 1.9629,-7.6894 79.402,79.402 0 0 1 2.7226,-7.457 79.402,79.402 0 0 1 1.7363,-3.5957 61.685,61.685 0 0 1 -2.1445,1.2305 61.685,61.685 0 0 1 -5.6289,2.5195 61.685,61.685 0 0 1 -5.8516,1.9434 61.685,61.685 0 0 1 -1.1641,0.26172 z"
             fill="url(#b)"
             id="path12992" />
        </g>
        <g
           fill-rule="evenodd"
           stroke="#000000"
           stroke-linecap="round"
           stroke-linejoin="round"
           stroke-width="0.99921"
           id="g13000">
          <path
             d="m 74.986,869.06 a 79.402,79.402 0 0 0 -0.14062,-3.959 79.402,79.402 0 0 0 -0.95703,-7.8789 79.402,79.402 0 0 0 -1.7383,-7.7441 79.402,79.402 0 0 0 -2.502,-7.5332 79.402,79.402 0 0 0 -3.2422,-7.2441 79.402,79.402 0 0 0 -3.9492,-6.8848 79.402,79.402 0 0 0 -0.29688,-0.41406 61.685,61.685 0 0 1 -2.3242,-0.59375 61.685,61.685 0 0 1 -4.418,-1.6113 l -11.814,41.859 a 252.14,252.14 0 0 0 5.1758,0.78125 252.14,252.14 0 0 0 25.172,1.2598 252.14,252.14 0 0 0 1.0352,-0.0371 z"
             fill="#e9c13a"
             id="path12996" />
          <path
             d="m 74.986,869.06 a 79.402,79.402 0 0 0 -0.14062,-3.959 79.402,79.402 0 0 0 -0.95703,-7.8789 79.402,79.402 0 0 0 -1.7383,-7.7441 79.402,79.402 0 0 0 -2.502,-7.5332 79.402,79.402 0 0 0 -3.2422,-7.2441 79.402,79.402 0 0 0 -3.9492,-6.8848 79.402,79.402 0 0 0 -0.29688,-0.41406 61.685,61.685 0 0 1 -2.3242,-0.59375 61.685,61.685 0 0 1 -4.418,-1.6113 l -11.814,41.859 a 252.14,252.14 0 0 0 5.1758,0.78125 252.14,252.14 0 0 0 25.172,1.2598 252.14,252.14 0 0 0 1.0352,-0.0371 z"
             fill="url(#b)"
             id="path12998" />
        </g>
        <path
           d="m 62.16,827.4 a 79.402,79.402 0 0 1 0.29688,0.41406 79.402,79.402 0 0 1 3.9492,6.8848 79.402,79.402 0 0 1 3.2422,7.2441 79.402,79.402 0 0 1 2.502,7.5332 79.402,79.402 0 0 1 1.7383,7.7441 79.402,79.402 0 0 1 0.95703,7.8789 79.402,79.402 0 0 1 0.0293,0.83398 79.402,79.402 0 0 1 0.11133,3.125 252.14,252.14 0 0 0 2.2109,-0.0781 79.402,79.402 0 0 1 0.04883,-0.97071 79.402,79.402 0 0 1 1.1875,-7.8476 79.402,79.402 0 0 1 1.9629,-7.6895 79.402,79.402 0 0 1 2.7207,-7.4551 79.402,79.402 0 0 1 3.4531,-7.1484 79.402,79.402 0 0 1 4.1484,-6.7656 79.402,79.402 0 0 1 2.6816,-3.5273 61.685,61.685 0 0 1 -4.0195,0.90039 82.059,82.059 0 0 0 -0.85547,1.127 82.059,82.059 0 0 0 -4.2871,6.9922 82.059,82.059 0 0 0 -3.5684,7.3867 82.059,82.059 0 0 0 -2.8125,7.7051 82.059,82.059 0 0 0 -1.332,5.2188 82.059,82.059 0 0 0 -0.01758,-0.13672 82.059,82.059 0 0 0 -1.7969,-8.0039 82.059,82.059 0 0 0 -2.5859,-7.7852 82.059,82.059 0 0 0 -3.3496,-7.4863 82.059,82.059 0 0 0 -2.9609,-5.1621 61.685,61.685 0 0 1 -0.0059,0 61.685,61.685 0 0 1 -3.6484,-0.93164 z"
           fill="#f4f2ef"
           fill-rule="evenodd"
           stroke="#000000"
           stroke-width="0.99921"
           id="path13002" />
        <path
           d="m 76.525,856.91 a 82.059,82.059 0 0 1 1.332,-5.2207 82.059,82.059 0 0 1 2.8125,-7.7051 82.059,82.059 0 0 1 3.5684,-7.3867 82.059,82.059 0 0 1 4.2871,-6.9922 82.059,82.059 0 0 1 0.85547,-1.127 61.685,61.685 0 0 1 -0.83203,0.1875 61.685,61.685 0 0 1 -6.1211,0.74414 61.685,61.685 0 0 1 -4.3633,0.1543 61.685,61.685 0 0 1 -6.1582,-0.3086 61.685,61.685 0 0 1 -6.0918,-0.92187 82.059,82.059 0 0 1 2.9609,5.1621 82.059,82.059 0 0 1 3.3496,7.4863 82.059,82.059 0 0 1 2.5859,7.7852 82.059,82.059 0 0 1 1.7969,8.0039 82.059,82.059 0 0 1 0.01758,0.13867 z"
           fill="#1780ce"
           fill-rule="evenodd"
           stroke="#000000"
           stroke-linecap="round"
           stroke-linejoin="round"
           stroke-width="0.99921"
           id="path13004" />
        <path
           d="M 138.19,993.67 H 14.17 v 44.518 h 124.02 z"
           fill="#e9c13a"
           fill-rule="evenodd"
           stroke="#000000"
           stroke-linecap="round"
           stroke-linejoin="round"
           stroke-width="1px"
           id="path13006" />
        <path
           d="m 14.174,968.04 v 25.633 h 124.02 V 968.04 Z"
           fill="#dd1d1d"
           fill-rule="evenodd"
           stroke="#000000"
           stroke-linecap="round"
           stroke-linejoin="round"
           stroke-width="1px"
           id="path13008" />
        <path
           d="M 138.19,957.86 H 14.17 v 10.178 h 124.02 z"
           fill="#1780ce"
           fill-rule="evenodd"
           stroke="#000000"
           stroke-linecap="round"
           stroke-linejoin="round"
           stroke-width="1px"
           id="path13010" />
        <path
           d="m 133.45,920.51 a 145.84,145.84 0 0 1 -10.363,4.6387 145.84,145.84 0 0 1 -13.836,4.5977 145.84,145.84 0 0 1 -14.223,3.1914 145.84,145.84 0 0 1 -14.473,1.7578 145.84,145.84 0 0 1 -10.316,0.36523 145.84,145.84 0 0 1 -14.559,-0.72852 145.84,145.84 0 0 1 -14.414,-2.1797 145.84,145.84 0 0 1 -14.125,-3.6055 145.84,145.84 0 0 1 -12.971,-4.7363 v 34.055 h 124.02 v -34.084 a 79.402,79.402 0 0 1 -4.7363,-3.2715 z"
           fill="#1780ce"
           fill-rule="evenodd"
           stroke="#000000"
           stroke-linecap="round"
           stroke-linejoin="round"
           stroke-width="1px"
           id="path13012" />
        <g
           fill-rule="evenodd"
           stroke="#000000"
           stroke-linecap="round"
           stroke-linejoin="round"
           stroke-width="0.99921"
           id="g13018">
          <path
             d="m 104.14,880.66 -21.765,1.4226 0.2207,0.98047 c 0.89745,3.2338 1.9561,6.4208 3.1719,9.5488 1.2164,3.1285 2.5886,6.1942 4.1113,9.1856 1.5221,2.9905 3.1928,5.903 5.0059,8.7266 1.6971,2.6236 3.5155,5.1667 5.4492,7.6211 1.7979,-0.3645 3.588,-0.76628 5.3691,-1.2051 4.2578,-1.1828 8.4538,-2.5778 12.572,-4.1797 1.3814,-0.59058 2.7527,-1.2046 4.1133,-1.8418 -8.2739,-8.5974 -14.526,-18.922 -18.249,-30.259 z"
             fill="#1780ce"
             id="path13014" />
          <path
             d="m 104.14,880.66 -21.765,1.4226 0.2207,0.98047 c 0.89745,3.2338 1.9561,6.4208 3.1719,9.5488 1.2164,3.1285 2.5886,6.1942 4.1113,9.1856 1.5221,2.9905 3.1928,5.903 5.0059,8.7266 1.6971,2.6236 3.5155,5.1667 5.4492,7.6211 1.7979,-0.3645 3.588,-0.76628 5.3691,-1.2051 4.2578,-1.1828 8.4538,-2.5778 12.572,-4.1797 1.3814,-0.59058 2.7527,-1.2046 4.1133,-1.8418 -8.2739,-8.5974 -14.526,-18.922 -18.249,-30.259 z"
             fill="url(#b)"
             id="path13016" />
        </g>
        <path
           d="m 14.174,923.81 a 145.84,145.84 0 0 0 12.971,4.7363 145.84,145.84 0 0 0 14.125,3.6055 145.84,145.84 0 0 0 14.414,2.1797 145.84,145.84 0 0 0 14.559,0.72852 145.84,145.84 0 0 0 10.316,-0.36523 145.84,145.84 0 0 0 14.473,-1.7578 145.84,145.84 0 0 0 14.223,-3.1914 145.84,145.84 0 0 0 13.836,-4.5977 145.84,145.84 0 0 0 10.363,-4.6387 79.402,79.402 0 0 1 -11.066,-9.5879 132.55,132.55 0 0 1 -4.1133,1.8418 132.55,132.55 0 0 1 -12.572,4.1797 132.55,132.55 0 0 1 -12.93,2.9004 132.55,132.55 0 0 1 -13.152,1.5977 132.55,132.55 0 0 1 -9.377,0.33203 132.55,132.55 0 0 1 -13.232,-0.66211 132.55,132.55 0 0 1 -13.102,-1.9805 132.55,132.55 0 0 1 -12.836,-3.2773 132.55,132.55 0 0 1 -5.9512,-2.1738 79.402,79.402 0 0 1 -10.947,9.916 z"
           fill="#dd1d1d"
           fill-rule="evenodd"
           stroke="#000000"
           stroke-linecap="round"
           stroke-linejoin="round"
           stroke-width="1px"
           id="path13020" />
        <path
           d="m 62.123,881.79 c -0.0046,0.0172 -0.05548,0.27154 -0.05664,0.27149 -0.48572,2.2207 -1.0486,4.4239 -1.6875,6.6055 -0.96566,3.1218 -2.0869,6.1933 -3.3594,9.2031 -1.272,3.0093 -2.6937,5.953 -4.2598,8.8203 -1.5667,2.8675 -3.2759,5.6548 -5.1211,8.3516 -1.0193,1.418 -2.0763,2.8084 -3.1699,4.1699 4.1495,0.8228 8.3316,1.474 12.541,1.8965 4.397,0.44114 8.8133,0.66212 13.232,0.66211 3.1286,2e-5 6.2562,-0.11073 9.377,-0.33203 4.408,-0.31298 8.7976,-0.8462 13.152,-1.5977 2.5362,-0.49131 5.0574,-1.0566 7.5605,-1.6953 -1.9337,-2.4544 -3.7521,-4.9975 -5.4492,-7.6211 -1.813,-2.8236 -3.4837,-5.7361 -5.0059,-8.7266 -1.5227,-2.9914 -2.8949,-6.0571 -4.1113,-9.1856 -1.2158,-3.1281 -2.2744,-6.315 -3.1719,-9.5488 -0.07531,-0.32643 -0.14866,-0.6533 -0.2207,-0.98047 -6.6513,-0.17662 -15.245,0.0559 -20.25,-0.29297 z"
           fill="#dd1d1d"
           fill-rule="evenodd"
           stroke="#000000"
           stroke-linecap="round"
           stroke-linejoin="round"
           stroke-width="0.99921"
           id="path13022" />
        <path
           d="m 43.562,880.66 c -3.3683,12.331 -9.7537,23.639 -18.441,33.016 1.9661,0.77192 3.9504,1.4967 5.9512,2.1738 4.2213,1.3057 8.5053,2.3995 12.836,3.2773 0.18528,0.0376 0.37512,0.0472 0.56055,0.084 1.0936,-1.3615 2.1506,-2.752 3.1699,-4.1699 1.8452,-2.6967 3.5544,-5.4841 5.1211,-8.3516 1.5661,-2.8673 2.9877,-5.811 4.2598,-8.8203 1.2725,-3.0098 2.3937,-6.0813 3.3594,-9.2031 0.63894,-2.1816 1.2018,-4.3847 1.6875,-6.6055 -0.01003,-0.11263 -0.04163,-0.16573 -0.05273,-0.27539 -6.8282,-0.19398 -12.051,-0.47245 -18.451,-1.125 z"
           fill="#1780ce"
           fill-rule="evenodd"
           stroke="#000000"
           stroke-linecap="round"
           stroke-linejoin="round"
           stroke-width="0.99921"
           id="path13024" />
        <path
           d="m 104.18,867.28 c -10.03,1.2112 -20.124,1.8184 -30.227,1.8184 -10.167,0 -20.325,-0.61495 -30.403,-1.8397 l 0.0036,13.392 c 10.084,1.1511 20.237,1.7347 30.399,1.7347 10.1,0 20.192,-0.5765 30.226,-1.7267 z"
           fill="#e9c13a"
           stroke="#000000"
           stroke-linecap="round"
           stroke-linejoin="round"
           stroke-width="0.99921"
           id="path13026" />
        <path
           d="m 131.13,918.78 c -19.058,8.9613 -39.83,13.603 -60.89,13.603 -18.471,0 -36.768,-3.5745 -53.882,-10.526"
           fill="none"
           stroke="#000000"
           stroke-linecap="round"
           stroke-linejoin="round"
           stroke-width="0.99921"
           id="path13028" />
        <path
           d="M 124.52,913.05 A 135.21,135.21 0 0 1 70.239,924.424 135.21,135.21 0 0 1 22.971,915.8925"
           fill="none"
           stroke="#000000"
           stroke-linecap="round"
           stroke-linejoin="round"
           stroke-width="0.99921"
           id="path13030" />
        <path
           d="M 46.063,880.77 A 82.059,82.059 0 0 1 27.698,914.657"
           fill="none"
           stroke="#000000"
           stroke-linecap="round"
           stroke-linejoin="round"
           stroke-width="0.64488"
           id="path13032" />
        <path
           d="M 48.966,881 A 84.717,84.717 0 0 1 30.639,915.714"
           fill="none"
           stroke="#000000"
           stroke-linecap="round"
           stroke-linejoin="round"
           stroke-width="0.64488"
           id="path13034" />
        <path
           d="M 51.652,881.23 A 87.374,87.374 0 0 1 33.494,916.482"
           fill="none"
           stroke="#000000"
           stroke-linecap="round"
           stroke-linejoin="round"
           stroke-width="0.64488"
           id="path13036" />
        <path
           d="m 54.336,881.44 a 90.032,90.032 0 0 1 -17.99,35.767"
           fill="none"
           stroke="#000000"
           stroke-linecap="round"
           stroke-linejoin="round"
           stroke-width="0.64488"
           id="path13038" />
        <path
           d="M 57.018,881.66 A 92.689,92.689 0 0 1 39.172,917.946"
           fill="none"
           stroke="#000000"
           stroke-linecap="round"
           stroke-linejoin="round"
           stroke-width="0.64488"
           id="path13040" />
        <path
           d="M 59.698,881.88 A 95.347,95.347 0 0 1 41.985,918.676"
           fill="none"
           stroke="#000000"
           stroke-linecap="round"
           stroke-linejoin="round"
           stroke-width="0.64488"
           id="path13042" />
        <path
           d="m 14.174,998.98 h 124.02"
           fill="none"
           stroke="#000000"
           stroke-width="1px"
           id="path13044" />
        <path
           d="m 14.174,1002.5 h 124.02"
           fill="none"
           stroke="#000000"
           stroke-width="1px"
           id="path13046" />
        <path
           d="m 14.174,1006.1 h 124.02"
           fill="none"
           stroke="#000000"
           stroke-width="1px"
           id="path13048" />
        <path
           d="m 14.174,1029.1 h 124.02"
           fill="none"
           stroke="#000000"
           stroke-width="1px"
           id="path13050" />
        <path
           d="m 14.174,1032.6 h 124.02"
           fill="none"
           stroke="#000000"
           stroke-width="1px"
           id="path13052" />
        <path
           d="m 17.717,968.04 v 25.632"
           fill="none"
           stroke="#000000"
           stroke-width="0.64567"
           id="path13054" />
        <path
           d="m 19.488,968.04 v 25.632"
           fill="none"
           stroke="#000000"
           stroke-width="0.64567"
           id="path13056" />
        <path
           d="m 21.26,968.04 v 25.632"
           fill="none"
           stroke="#000000"
           stroke-width="0.64567"
           id="path13058" />
        <path
           d="m 23.032,968.04 v 25.632"
           fill="none"
           stroke="#000000"
           stroke-width="0.64567"
           id="path13060" />
        <path
           d="m 24.803,968.04 v 25.632"
           fill="none"
           stroke="#000000"
           stroke-width="0.64567"
           id="path13062" />
        <path
           d="m 26.575,968.04 v 25.632"
           fill="none"
           stroke="#000000"
           stroke-width="0.64567"
           id="path13064" />
        <path
           d="m 28.347,968.04 v 25.632"
           fill="none"
           stroke="#000000"
           stroke-width="0.64567"
           id="path13066" />
        <path
           d="m 30.119,968.04 v 25.632"
           fill="none"
           stroke="#000000"
           stroke-width="0.64567"
           id="path13068" />
        <path
           d="m 31.89,968.04 v 25.632"
           fill="none"
           stroke="#000000"
           stroke-width="0.64567"
           id="path13070" />
        <path
           d="m 33.662,968.04 v 25.632"
           fill="none"
           stroke="#000000"
           stroke-width="0.64567"
           id="path13072" />
        <path
           d="m 35.433,968.04 v 25.632"
           fill="none"
           stroke="#000000"
           stroke-width="0.64567"
           id="path13074" />
        <path
           d="m 37.205,968.04 v 25.632"
           fill="none"
           stroke="#000000"
           stroke-width="0.64567"
           id="path13076" />
        <path
           d="m 38.977,968.04 v 25.632"
           fill="none"
           stroke="#000000"
           stroke-width="0.64567"
           id="path13078" />
        <path
           d="m 40.748,968.04 v 25.632"
           fill="none"
           stroke="#000000"
           stroke-width="0.64567"
           id="path13080" />
        <path
           d="m 42.52,968.04 v 25.632"
           fill="none"
           stroke="#000000"
           stroke-width="0.64567"
           id="path13082" />
        <path
           d="m 44.292,968.04 v 25.632"
           fill="none"
           stroke="#000000"
           stroke-width="0.64567"
           id="path13084" />
        <path
           d="m 46.063,968.04 v 25.632"
           fill="none"
           stroke="#000000"
           stroke-width="0.64567"
           id="path13086" />
        <path
           d="m 47.835,968.04 v 25.632"
           fill="none"
           stroke="#000000"
           stroke-width="0.64567"
           id="path13088" />
        <path
           d="m 49.607,968.04 v 25.632"
           fill="none"
           stroke="#000000"
           stroke-width="0.64567"
           id="path13090" />
        <path
           d="m 51.379,968.04 v 25.632"
           fill="none"
           stroke="#000000"
           stroke-width="0.64567"
           id="path13092" />
        <path
           d="m 53.15,968.04 v 25.632"
           fill="none"
           stroke="#000000"
           stroke-width="0.64567"
           id="path13094" />
        <path
           d="m 54.922,968.04 v 25.632"
           fill="none"
           stroke="#000000"
           stroke-width="0.64567"
           id="path13096" />
        <path
           d="m 56.694,968.04 v 25.632"
           fill="none"
           stroke="#000000"
           stroke-width="0.64567"
           id="path13098" />
        <path
           d="m 58.465,968.04 v 25.632"
           fill="none"
           stroke="#000000"
           stroke-width="0.64567"
           id="path13100" />
        <path
           d="m 60.237,968.04 v 25.632"
           fill="none"
           stroke="#000000"
           stroke-width="0.64567"
           id="path13102" />
        <path
           d="m 62.008,968.04 v 25.632"
           fill="none"
           stroke="#000000"
           stroke-width="0.64567"
           id="path13104" />
        <path
           d="m 63.78,968.04 v 25.632"
           fill="none"
           stroke="#000000"
           stroke-width="0.64567"
           id="path13106" />
        <path
           d="m 65.552,968.04 v 25.632"
           fill="none"
           stroke="#000000"
           stroke-width="0.64567"
           id="path13108" />
        <path
           d="m 67.323,968.04 v 25.632"
           fill="none"
           stroke="#000000"
           stroke-width="0.64567"
           id="path13110" />
        <path
           d="m 69.095,968.04 v 25.632"
           fill="none"
           stroke="#000000"
           stroke-width="0.64567"
           id="path13112" />
        <path
           d="m 70.867,968.04 v 25.632"
           fill="none"
           stroke="#000000"
           stroke-width="0.64567"
           id="path13114" />
        <path
           d="m 72.639,968.04 v 25.632"
           fill="none"
           stroke="#000000"
           stroke-width="0.64567"
           id="path13116" />
        <path
           d="m 74.41,968.04 v 25.632"
           fill="none"
           stroke="#000000"
           stroke-width="0.64567"
           id="path13118" />
        <path
           d="m 76.182,968.04 v 25.632"
           fill="none"
           stroke="#000000"
           stroke-width="0.64567"
           id="path13120" />
        <path
           d="m 77.954,968.04 v 25.632"
           fill="none"
           stroke="#000000"
           stroke-width="0.64567"
           id="path13122" />
        <path
           d="m 79.725,968.04 v 25.632"
           fill="none"
           stroke="#000000"
           stroke-width="0.64567"
           id="path13124" />
        <path
           d="m 81.497,968.04 v 25.632"
           fill="none"
           stroke="#000000"
           stroke-width="0.64567"
           id="path13126" />
        <path
           d="m 83.269,968.04 v 25.632"
           fill="none"
           stroke="#000000"
           stroke-width="0.64567"
           id="path13128" />
        <path
           d="m 85.04,968.04 v 25.632"
           fill="none"
           stroke="#000000"
           stroke-width="0.64567"
           id="path13130" />
        <path
           d="m 86.812,968.04 v 25.632"
           fill="none"
           stroke="#000000"
           stroke-width="0.64567"
           id="path13132" />
        <path
           d="m 88.583,968.04 v 25.632"
           fill="none"
           stroke="#000000"
           stroke-width="0.64567"
           id="path13134" />
        <path
           d="m 90.355,968.04 v 25.632"
           fill="none"
           stroke="#000000"
           stroke-width="0.64567"
           id="path13136" />
        <path
           d="m 92.127,968.04 v 25.632"
           fill="none"
           stroke="#000000"
           stroke-width="0.64567"
           id="path13138" />
        <path
           d="m 93.899,968.04 v 25.632"
           fill="none"
           stroke="#000000"
           stroke-width="0.64567"
           id="path13140" />
        <path
           d="m 95.67,968.04 v 25.632"
           fill="none"
           stroke="#000000"
           stroke-width="0.64567"
           id="path13142" />
        <path
           d="m 97.442,968.04 v 25.632"
           fill="none"
           stroke="#000000"
           stroke-width="0.64567"
           id="path13144" />
        <path
           d="m 99.214,968.04 v 25.632"
           fill="none"
           stroke="#000000"
           stroke-width="0.64567"
           id="path13146" />
        <path
           d="m 100.99,968.04 v 25.632"
           fill="none"
           stroke="#000000"
           stroke-width="0.64567"
           id="path13148" />
        <path
           d="m 102.76,968.04 v 25.632"
           fill="none"
           stroke="#000000"
           stroke-width="0.64567"
           id="path13150" />
        <path
           d="m 104.53,968.04 v 25.632"
           fill="none"
           stroke="#000000"
           stroke-width="0.64567"
           id="path13152" />
        <path
           d="m 106.3,968.04 v 25.632"
           fill="none"
           stroke="#000000"
           stroke-width="0.64567"
           id="path13154" />
        <path
           d="m 108.07,968.04 v 25.632"
           fill="none"
           stroke="#000000"
           stroke-width="0.64567"
           id="path13156" />
        <path
           d="m 109.84,968.04 v 25.632"
           fill="none"
           stroke="#000000"
           stroke-width="0.64567"
           id="path13158" />
        <path
           d="m 111.61,968.04 v 25.632"
           fill="none"
           stroke="#000000"
           stroke-width="0.64567"
           id="path13160" />
        <path
           d="m 113.39,968.04 v 25.632"
           fill="none"
           stroke="#000000"
           stroke-width="0.64567"
           id="path13162" />
        <path
           d="m 115.16,968.04 v 25.632"
           fill="none"
           stroke="#000000"
           stroke-width="0.64567"
           id="path13164" />
        <path
           d="m 116.93,968.04 v 25.632"
           fill="none"
           stroke="#000000"
           stroke-width="0.64567"
           id="path13166" />
        <path
           d="m 118.7,968.04 v 25.632"
           fill="none"
           stroke="#000000"
           stroke-width="0.64567"
           id="path13168" />
        <path
           d="m 120.47,968.04 v 25.632"
           fill="none"
           stroke="#000000"
           stroke-width="0.64567"
           id="path13170" />
        <path
           d="m 122.24,968.04 v 25.632"
           fill="none"
           stroke="#000000"
           stroke-width="0.64567"
           id="path13172" />
        <path
           d="m 124.02,968.04 v 25.632"
           fill="none"
           stroke="#000000"
           stroke-width="0.64567"
           id="path13174" />
        <path
           d="m 125.79,968.04 v 25.632"
           fill="none"
           stroke="#000000"
           stroke-width="0.64567"
           id="path13176" />
        <path
           d="m 127.56,968.04 v 25.632"
           fill="none"
           stroke="#000000"
           stroke-width="0.64567"
           id="path13178" />
        <path
           d="m 129.33,968.04 v 25.632"
           fill="none"
           stroke="#000000"
           stroke-width="0.64567"
           id="path13180" />
        <path
           d="m 131.1,968.04 v 25.632"
           fill="none"
           stroke="#000000"
           stroke-width="0.64567"
           id="path13182" />
        <path
           d="m 132.87,968.04 v 25.632"
           fill="none"
           stroke="#000000"
           stroke-width="0.64567"
           id="path13184" />
        <path
           d="m 134.65,968.04 v 25.632"
           fill="none"
           stroke="#000000"
           stroke-width="0.64567"
           id="path13186" />
        <path
           d="m 43.756,964.57 v 3.4712 H 14.174 v -4.4446 l 3.2195,-5.7332 3.7661,6.7065 3.7661,-6.7065 3.7661,6.7065 3.7661,-6.7065 3.7661,6.7065 3.7661,-6.7065 3.7661,6.7065"
           fill-rule="evenodd"
           stroke="#000000"
           stroke-linecap="round"
           stroke-linejoin="round"
           stroke-width="1px"
           id="path13188" />
        <path
           d="m 108.61,964.57 v 3.4712 h 29.582 v -4.4446 l -3.2195,-5.7332 -3.7661,6.7065 -3.7661,-6.7065 -3.7661,6.7065 -3.7661,-6.7065 -3.7661,6.7065 -3.7661,-6.7065 -3.7661,6.7065"
           fill-rule="evenodd"
           stroke="#000000"
           stroke-linecap="round"
           stroke-linejoin="round"
           stroke-width="1px"
           id="path13190" />
        <path
           d="m 14.535,957.99 a 177.73,177.73 0 0 1 -0.4107,-0.13612"
           fill="none"
           stroke="#e9c13a"
           stroke-linecap="round"
           stroke-linejoin="round"
           stroke-width="0.64488"
           id="path13192" />
        <path
           d="m 138.25,953.42 a 177.73,177.73 0 0 1 -12.548,4.6516"
           fill="none"
           stroke="#000000"
           stroke-linecap="round"
           stroke-linejoin="round"
           stroke-width="0.64488"
           id="path13194" />
        <path
           d="M 136.04,922.34 A 148.5,148.5 0 0 1 70.242,937.713 148.5,148.5 0 0 1 14.144,926.709"
           fill="none"
           stroke="#000000"
           stroke-linecap="round"
           stroke-linejoin="round"
           stroke-width="0.64488"
           id="path13196" />
        <path
           d="M 138.2,924.23 A 151.15,151.15 0 0 1 70.24,940.369 151.15,151.15 0 0 1 14.129,929.568"
           fill="none"
           stroke="#000000"
           stroke-linecap="round"
           stroke-linejoin="round"
           stroke-width="0.64488"
           id="path13198" />
        <path
           d="M 138.23,927.19 A 153.81,153.81 0 0 1 70.248,943.029 153.81,153.81 0 0 1 14.126,932.425"
           fill="none"
           stroke="#000000"
           stroke-linecap="round"
           stroke-linejoin="round"
           stroke-width="0.64488"
           id="path13200" />
        <path
           d="M 138.24,930.14 A 156.47,156.47 0 0 1 70.239,945.689 156.47,156.47 0 0 1 14.11,935.275"
           fill="none"
           stroke="#000000"
           stroke-linecap="round"
           stroke-linejoin="round"
           stroke-width="0.64488"
           id="path13202" />
        <path
           d="M 138.26,933.08 A 159.13,159.13 0 0 1 70.245,948.348 159.13,159.13 0 0 1 14.11,938.118"
           fill="none"
           stroke="#000000"
           stroke-linecap="round"
           stroke-linejoin="round"
           stroke-width="0.64488"
           id="path13204" />
        <path
           d="M 138.27,936.01 A 161.78,161.78 0 0 1 70.246,951.006 161.78,161.78 0 0 1 14.107,940.953"
           fill="none"
           stroke="#000000"
           stroke-linecap="round"
           stroke-linejoin="round"
           stroke-width="0.64488"
           id="path13206" />
        <path
           d="M 138.27,938.93 A 164.44,164.44 0 0 1 70.24,953.662 164.44,164.44 0 0 1 14.101,943.7824"
           fill="none"
           stroke="#000000"
           stroke-linecap="round"
           stroke-linejoin="round"
           stroke-width="0.64488"
           id="path13208" />
        <path
           d="M 138.27,941.84 A 167.1,167.1 0 0 1 70.239,956.316 167.1,167.1 0 0 1 14.101,946.6036"
           fill="none"
           stroke="#000000"
           stroke-linecap="round"
           stroke-linejoin="round"
           stroke-width="0.64488"
           id="path13210" />
        <path
           d="M 51.541,957.94 A 169.76,169.76 0 0 1 14.108,949.4232"
           fill="none"
           stroke="#000000"
           stroke-linecap="round"
           stroke-linejoin="round"
           stroke-width="0.64488"
           id="path13212" />
        <path
           d="M 138.27,944.75 A 169.76,169.76 0 0 1 87.933,958.053"
           fill="none"
           stroke="#000000"
           stroke-linecap="round"
           stroke-linejoin="round"
           stroke-width="0.64488"
           id="path13214" />
        <path
           d="M 34.669,957.92 A 172.41,172.41 0 0 1 14.112,952.2369"
           fill="none"
           stroke="#000000"
           stroke-linecap="round"
           stroke-linejoin="round"
           stroke-width="0.64488"
           id="path13216" />
        <path
           d="m 138.27,947.64 a 172.41,172.41 0 0 1 -33.061,10.404"
           fill="none"
           stroke="#000000"
           stroke-linecap="round"
           stroke-linejoin="round"
           stroke-width="0.64488"
           id="path13218" />
        <path
           d="m 23.911,958.05 a 175.07,175.07 0 0 1 -9.7942,-2.9986"
           fill="none"
           stroke="#000000"
           stroke-linecap="round"
           stroke-linejoin="round"
           stroke-width="0.64488"
           id="path13220" />
        <path
           d="m 138.26,950.54 a 175.07,175.07 0 0 1 -21.043,7.3335"
           fill="none"
           stroke="#000000"
           stroke-linecap="round"
           stroke-linejoin="round"
           stroke-width="0.64488"
           id="path13222" />
        <path
           d="m 83.111,884.77 a 268.08,268.08 0 0 1 -9.1604,0.15655 268.08,268.08 0 0 1 -12.473,-0.29034"
           fill="none"
           stroke="#000000"
           stroke-linecap="round"
           stroke-linejoin="round"
           stroke-width="0.64488"
           id="path13224" />
        <path
           d="M 83.984,887.4 A 270.74,270.74 0 0 1 73.95,887.586 270.74,270.74 0 0 1 60.806,887.26677"
           fill="none"
           stroke="#000000"
           stroke-linecap="round"
           stroke-linejoin="round"
           stroke-width="0.64488"
           id="path13226" />
        <path
           d="M 84.856,890.02 A 273.4,273.4 0 0 1 73.951,890.23759 273.4,273.4 0 0 1 60.04,889.88343"
           fill="none"
           stroke="#000000"
           stroke-linecap="round"
           stroke-linejoin="round"
           stroke-width="0.64488"
           id="path13228" />
        <path
           d="M 85.728,892.65 A 276.06,276.06 0 0 1 73.95,892.90136 276.06,276.06 0 0 1 59.087,892.50097"
           fill="none"
           stroke="#000000"
           stroke-linecap="round"
           stroke-linejoin="round"
           stroke-width="0.64488"
           id="path13230" />
        <path
           d="M 86.884,895.26 A 278.71,278.71 0 0 1 73.95,895.56028 278.71,278.71 0 0 1 58.134,895.11117"
           fill="none"
           stroke="#000000"
           stroke-linecap="round"
           stroke-linejoin="round"
           stroke-width="0.64488"
           id="path13232" />
        <path
           d="M 88.056,897.86 A 281.37,281.37 0 0 1 73.95,898.21382 281.37,281.37 0 0 1 57.181,897.71368"
           fill="none"
           stroke="#000000"
           stroke-linecap="round"
           stroke-linejoin="round"
           stroke-width="0.64488"
           id="path13234" />
        <path
           d="M 89.226,900.46 A 284.03,284.03 0 0 1 73.95,900.8711 284.03,284.03 0 0 1 55.985,900.30236"
           fill="none"
           stroke="#000000"
           stroke-linecap="round"
           stroke-linejoin="round"
           stroke-width="0.64488"
           id="path13236" />
        <path
           d="m 90.537,903.05 a 286.69,286.69 0 0 1 -16.587,0.48022 286.69,286.69 0 0 1 -19.219,-0.6449"
           fill="none"
           stroke="#000000"
           stroke-linecap="round"
           stroke-linejoin="round"
           stroke-width="0.64488"
           id="path13238" />
        <path
           d="m 92.03,905.62 a 289.34,289.34 0 0 1 -18.08,0.56542 289.34,289.34 0 0 1 -20.47,-0.72498"
           fill="none"
           stroke="#000000"
           stroke-linecap="round"
           stroke-linejoin="round"
           stroke-width="0.64488"
           id="path13240" />
        <path
           d="m 19.624,919.12 0.1199,4.0616 5.8962,-6.3228 0.67487,8.619 5.5819,-6.6019 1.093,8.576 5.2544,-6.8654 1.5086,8.5128 -6.763,-1.6474 -6.6749,-1.9741 -6.5711,-2.2962 -3.1612,-1.466 z"
           fill-rule="evenodd"
           stroke="#000000"
           stroke-linecap="round"
           stroke-linejoin="round"
           stroke-width="0.64488"
           id="path13242" />
        <path
           d="m 125.1,921.46 -6.0997,-6.1266 -0.39271,8.6365 -5.7948,-6.4159 -0.81204,8.6072 6.6068,-2.1913 6.4924,-2.5098 6.0572,-2.6783 c -2.3027,-1.6838 -4.2789,-3.4218 -6.0823,-5.1938 z"
           fill-rule="evenodd"
           stroke="#000000"
           stroke-linecap="round"
           stroke-linejoin="round"
           stroke-width="0.64488"
           id="path13244" />
        <circle
           cx="76.184998"
           cy="943.5"
           r="42.02"
           fill="#e9c13a"
           stroke="#000000"
           stroke-linecap="round"
           stroke-linejoin="round"
           stroke-width="0.99921"
           id="circle13246" />
        <circle
           cx="76.184998"
           cy="943.5"
           r="21.646"
           fill="#dd1d1d"
           stroke="#000000"
           stroke-linecap="round"
           stroke-linejoin="round"
           stroke-width="0.99921"
           id="circle13248" />
        <circle
           cx="76.184998"
           cy="943.5"
           r="2.875"
           fill="#e9c13a"
           stroke="#000000"
           stroke-linecap="round"
           stroke-linejoin="round"
           stroke-width="0.99921"
           id="circle13250" />
        <path
           d="m 76.186,969.11 c -1.5878,0 -2.875,1.2872 -2.875,2.875 0.0013,0.094 0.0071,0.18784 0.01758,0.28125 -0.12999,-0.0194 -0.26116,-0.0298 -0.39258,-0.0312 -1.5878,0 -2.875,1.2872 -2.875,2.875 0,1.5878 1.2872,2.875 2.875,2.875 0.12612,-8.4e-4 0.25204,-0.01 0.37695,-0.0273 l -0.002,0.0273 c 0,1.5878 1.2872,2.875 2.875,2.875 1.5878,0 2.875,-1.2872 2.875,-2.875 v -0.0117 c 0.08312,0.008 0.16654,0.0114 0.25,0.0117 1.5878,0 2.875,-1.2872 2.875,-2.875 0,-1.5878 -1.2872,-2.875 -2.875,-2.875 -0.08743,10e-4 -0.17476,0.006 -0.26172,0.0156 0.008,-0.0883 0.01191,-0.17695 0.01172,-0.26562 0,-1.5878 -1.2872,-2.875 -2.875,-2.875 z"
           fill="#e9c13a"
           stroke="#000000"
           stroke-linecap="round"
           stroke-linejoin="round"
           stroke-width="0.99921"
           id="path13252" />
        <g
           stroke="#000000"
           stroke-linecap="round"
           stroke-linejoin="round"
           stroke-width="1.4173"
           id="g13268">
          <path
             d="m 41.795,931.1 c -0.0092,0.0206 0.03194,0.0389 0.0411,0.0183 l 2.1529,-4.8293 0.35963,0.16032 7.26,9.272 0.39046,0.17407 c 0.01028,0.005 0.02055,0.009 0.02971,-0.0114 l 2.3224,-5.2095 c 0.0092,-0.0205 -0.03194,-0.0389 -0.04568,-0.008 l -2.3133,5.189 -0.35963,-0.16032 -7.2554,-9.2823 -0.39046,-0.17406 c -0.01028,-0.005 -0.02513,0.001 -0.02971,0.0114 l -2.1621,4.8499 z"
             id="path13254" />
          <path
             d="m 47.453,920.89 c -0.01519,0.0166 0.01801,0.047 0.0332,0.0304 l 3.5691,-3.9012 0.29051,0.26578 3.9568,11.091 0.31541,0.28857 c 0.0083,0.008 0.0166,0.0152 0.03179,-10e-4 l 3.8501,-4.2083 c 0.01519,-0.0166 -0.01801,-0.047 -0.04079,-0.0221 l -3.8349,4.1917 -0.29051,-0.26578 -3.9492,-11.1 -0.31541,-0.28856 c -0.0083,-0.008 -0.0242,-0.007 -0.03179,10e-4 l -3.5843,3.9178 z"
             id="path13256" />
          <path
             d="m 61.369,922.8 c 0.0055,0.0352 0.05064,0.0245 0.05031,-6.7e-4 l -2.1312,-11.549 0.38978,-0.20142 8.1878,8.4196 c 0.02032,0.0148 0.05514,-0.0158 0.02965,-0.0407 l -8.203,-8.4244 c 0,0 -0.01516,-0.005 -0.02515,3.4e-4 l -0.40977,0.21175 c -0.01,0.005 -0.01482,0.0203 -0.01482,0.0203 l 2.1264,11.564 z m -0.55526,-3.1575 c -0.02998,0.0155 -0.0093,0.0555 0.02066,0.04 l 4.8373,-2.4997 c 0.02998,-0.0155 0.0093,-0.0555 -0.02066,-0.04 z"
             id="path13258" />
          <path
             d="m 71.427,918.6 c 0.0026,0.0337 0.04748,0.0302 0.04486,-0.003 l -0.88135,-11.193 0.3477,-0.027 5.6827,10.831 c 0,0 0.01209,0.0103 0.0233,0.009 l 0.40378,-0.0314 c 0.01122,-8.7e-4 0.01035,-0.0121 0.0095,-0.0233 l -0.87188,-11.216 c -0.0026,-0.0337 -0.04748,-0.0302 -0.04486,0.003 l 0.87013,11.194 -0.35892,0.0279 -5.6827,-10.831 -0.01209,-0.0103 -0.39257,0.0305 c -0.02243,0.002 -0.03278,0.0138 -0.03191,0.0251 l 0.89431,11.214 z"
             id="path13260" />
          <path
             d="m 88.442,909.16 -2.9523,-1.0322 c -0.01062,-0.004 -0.01433,0.007 -0.01805,0.0175 l -3.7129,10.62 c -0.0037,0.0106 -0.0074,0.0212 0.01381,0.0287 l 2.9416,1.0285 c 1.3275,0.46411 2.6668,-0.12831 3.1457,-1.4982 l 2.1089,-6.032 c 0.47897,-1.3699 -0.19945,-2.6678 -1.5269,-3.1319 z m -0.01485,0.0425 c 1.3062,0.45668 1.9708,1.7259 1.4956,3.0852 l -2.1052,6.0213 c -0.47154,1.3487 -1.7822,1.9273 -3.0884,1.4706 l -2.931,-1.0248 3.6981,-10.577 z"
             id="path13262" />
          <path
             d="m 97.284,920.76 c 0.01447,-0.0325 -0.03392,-0.0463 -0.0408,-0.0221 l -1.7987,6.2517 c -0.0069,0.0242 0.04151,0.038 0.04839,0.0138 l 1.7911,-6.2434 z m -5.9997,2.4104 c -0.02277,0.0249 0.01874,0.0629 0.04151,0.038 l 7.5764,-8.2858 2.142,1.9586 c 1.0876,0.9945 1.2024,2.6695 0.16989,3.7987 -1.0324,1.1291 -2.7111,1.1644 -3.7987,0.16989 l -2.1503,-1.9662 -0.0166,-0.0152 c -0.0166,-0.0152 -0.04697,0.018 -0.02206,0.0408 l 2.1586,1.9738 c 1.1042,1.0097 2.807,0.9813 3.8622,-0.17273 1.0552,-1.154 0.93149,-2.8526 -0.17273,-3.8622 l -2.1669,-1.9814 c -0.0083,-0.008 -0.01589,7.1e-4 -0.02349,0.009 z"
             id="path13264" />
          <path
             d="m 109.41,928.21 c -0.5699,-1.2362 -2.163,-2.1122 -3.7568,-1.3775 l -5.3126,2.4492 c -1.5938,0.73475 -1.9623,2.5151 -1.3924,3.7513 0.56519,1.226 2.1536,2.0918 3.7474,1.357 l 5.3126,-2.4492 c 1.5938,-0.73475 1.967,-2.5048 1.3971,-3.741 l 0.005,0.0102 z m -0.0456,0.009 c 0.56048,1.2158 0.19828,2.956 -1.3751,3.6813 l -5.3126,2.4492 c -1.5734,0.72533 -3.1319,-0.12945 -3.6924,-1.3452 -0.55577,-1.2056 -0.19828,-2.956 1.3751,-3.6813 l 5.3126,-2.4492 c 1.5734,-0.72533 3.1366,0.13967 3.6971,1.3554 l -0.005,-0.0102 z"
             id="path13266" />
        </g>
        <g
           stroke="#000000"
           stroke-width="1.7717"
           id="g13284">
          <path
             d="m 36.535,1017.2 c -0.045,0 -0.045,0.06 0,0.06 h 3.585 c 2.04,0 3.69,-1.65 3.69,-3.72 0,-2.07 -1.65,-3.72 -3.69,-3.72 h -3.6 c -0.015,0 -0.015,0.015 -0.015,0.03 v 15 c 0,0.015 0,0.03 0.03,0.03 h 3.585 c 2.04,0 3.9,-1.455 3.9,-3.84 0,-2.28 -1.86,-3.84 -3.9,-3.84 -0.045,0 -0.045,0.06 0,0.06 2.01,0 3.84,1.53 3.84,3.78 0,2.355 -1.83,3.78 -3.84,3.78 h -3.57 v -14.94 h 3.57 c 2.01,0 3.63,1.62 3.63,3.66 0,2.04 -1.62,3.66 -3.63,3.66 h -3.57 z"
             id="path13270" />
          <path
             d="m 53.995,1017.1 c -0.015,-0.045 -0.075,-0.015 -0.06,0.015 l 3.855,7.77 c 0.015,0.03 0.075,0 0.06,-0.03 z m -3.735,7.77 c 0,0.045 0.075,0.045 0.075,0 v -14.97 h 3.87 c 1.965,0 3.585,1.545 3.585,3.585 0,2.04 -1.62,3.585 -3.585,3.585 H 50.29 c -0.03,0 -0.03,0.06 0.015,0.06 h 3.9 c 1.995,0 3.645,-1.56 3.645,-3.645 0,-2.085 -1.65,-3.645 -3.645,-3.645 H 50.29 c -0.015,0 -0.015,0.015 -0.015,0.03 z"
             id="path13272" />
          <path
             d="m 70.571,1024.9 c 0.03,0 0.03,-0.06 -0.015,-0.06 h -7.17 v -14.94 h 7.185 c 0.03,0 0.03,-0.06 -0.015,-0.06 h -7.2 c -0.015,0 -0.015,0.015 -0.015,0.03 v 15 c 0,0.015 0,0.03 0.03,0.03 z m -7.2,-7.755 c -0.045,0 -0.045,0.06 0,0.06 h 5.55 c 0.03,0 0.03,-0.06 -0.015,-0.06 z"
             id="path13274" />
          <path
             d="m 82.538,1013.3 c 0,0.045 0.06,0.03 0.045,0 -0.27,-2.475 -1.65,-3.615 -3.645,-3.615 -1.965,0 -3.72,1.53 -3.72,3.555 0,1.575 0.69,2.085 1.95,2.85 l 3.375,2.01 c 1.455,0.855 2.19,1.53 2.19,3.33 0,1.995 -1.8,3.555 -3.795,3.555 -2.16,0 -3.81,-1.56 -3.81,-3.63 0,-0.03 -0.06,-0.03 -0.06,0.015 0,2.085 1.68,3.675 3.885,3.675 1.995,0 3.84,-1.59 3.84,-3.615 0,-1.83 -0.765,-2.52 -2.205,-3.39 l -3.375,-2.01 c -1.275,-0.75 -1.935,-1.245 -1.935,-2.79 0,-1.98 1.71,-3.495 3.675,-3.495 1.935,0 3.315,1.11 3.585,3.555 z"
             id="path13276" />
          <path
             d="m 95.761,1021.7 c 0,-0.045 -0.06,-0.045 -0.06,-0.015 -0.195,1.875 -1.8,3.24 -3.84,3.24 -1.77,0 -3.69,-1.41 -3.69,-3.72 v -7.8 c 0,-2.31 1.92,-3.72 3.705,-3.72 2.025,0 3.63,1.275 3.825,3.15 0,0.045 0.06,0.03 0.06,0 -0.195,-1.905 -1.83,-3.21 -3.9,-3.21 -1.8,0 -3.75,1.44 -3.75,3.78 v 7.8 c 0,2.34 1.95,3.78 3.765,3.78 2.055,0 3.69,-1.38 3.885,-3.285 z"
             id="path13278" />
          <path
             d="m 101.31,1009.8 c 0,-0.045 -0.075,-0.045 -0.075,0 v 15 c 0,0.045 0.075,0.045 0.075,0 z"
             id="path13280" />
          <path
             d="m 106.06,1024.8 c -0.015,0.045 0.045,0.06 0.06,0.03 l 4.545,-14.985 h 0.585 l 4.545,14.985 c 0.015,0.03 0.075,0.015 0.06,-0.03 l -4.56,-15 c 0,0 -0.015,-0.015 -0.03,-0.015 h -0.615 c -0.015,0 -0.03,0.015 -0.03,0.015 z m 1.275,-4.08 c -0.045,0 -0.045,0.06 0,0.06 h 7.26 c 0.045,0 0.045,-0.06 0,-0.06 z"
             id="path13282" />
        </g>
        <path
           d="m 42.029,814.54 -1.8262,1.9453 a 61.685,61.685 0 0 0 3.0312,2.3047 61.685,61.685 0 0 0 5.2559,3.2227 61.685,61.685 0 0 0 5.5527,2.6816 61.685,61.685 0 0 0 5.793,2.1133 61.685,61.685 0 0 0 5.9727,1.5254 61.685,61.685 0 0 0 6.0977,0.92187 61.685,61.685 0 0 0 6.1582,0.3086 61.685,61.685 0 0 0 4.3633,-0.1543 61.685,61.685 0 0 0 6.1211,-0.74414 61.685,61.685 0 0 0 6.0156,-1.3496 61.685,61.685 0 0 0 5.8516,-1.9434 61.685,61.685 0 0 0 5.6289,-2.5195 61.685,61.685 0 0 0 4.9512,-2.8418 l -2.1738,-1.8125 a 59.028,59.028 0 0 1 -3.9824,2.2852 59.028,59.028 0 0 1 -5.3867,2.4102 59.028,59.028 0 0 1 -5.5996,1.8613 59.028,59.028 0 0 1 -5.7559,1.293 59.028,59.028 0 0 1 -5.8574,0.71094 59.028,59.028 0 0 1 -4.1758,0.14648 59.028,59.028 0 0 1 -5.8926,-0.29492 59.028,59.028 0 0 1 -5.834,-0.88086 59.028,59.028 0 0 1 -5.7168,-1.459 59.028,59.028 0 0 1 -5.543,-2.0234 59.028,59.028 0 0 1 -5.3125,-2.5664 59.028,59.028 0 0 1 -5.0312,-3.084 59.028,59.028 0 0 1 -2.7051,-2.0566 z"
           fill="#f4f2ef"
           fill-rule="evenodd"
           stroke="#000000"
           stroke-linecap="round"
           stroke-linejoin="round"
           stroke-width="1px"
           id="path13286" />
        <path
           d="m 58.221,809.02 -13.627,2.7812 -2.5645,2.7324 c 0.88177,0.71136 1.7838,1.3972 2.7051,2.0566 1.6246,1.1112 3.3038,2.1405 5.0312,3.084 1.7269,0.94349 3.5,1.8 5.3125,2.5664 1.8128,0.76647 3.6627,1.4418 5.543,2.0234 1.8801,0.58132 3.7881,1.0682 5.7168,1.459 1.9288,0.39069 3.8759,0.68467 5.834,0.88086 1.958,0.19647 3.9247,0.2949 5.8926,0.29492 1.3932,4.7e-4 2.786,-0.0484 4.1758,-0.14648 1.9631,-0.13919 3.918,-0.37646 5.8574,-0.71094 1.939,-0.33479 3.86,-0.76632 5.7559,-1.293 1.8964,-0.5267 3.7653,-1.1479 5.5996,-1.8613 1.8346,-0.71307 3.6325,-1.5175 5.3867,-2.4102 1.3566,-0.70978 2.6851,-1.4721 3.9824,-2.2852 l -2.1309,-1.7773 -11.852,-6 c -0.06699,0.0301 -0.13404,0.06 -0.20117,0.0898 -1.421,0.55247 -2.8688,1.0335 -4.3379,1.4414 -1.4694,0.40748 -2.9582,0.74123 -4.4609,1 -1.5029,0.2598 -3.0178,0.44428 -4.5391,0.55273 -1.0771,0.076 -2.1566,0.11373 -3.2363,0.11328 -1.525,0 -3.049,-0.0763 -4.5664,-0.22851 -1.5176,-0.15234 -3.0267,-0.38049 -4.5215,-0.6836 -1.4945,-0.30288 -2.9729,-0.6803 -4.4297,-1.1308 -1.4569,-0.45022 -2.8903,-0.97301 -4.2949,-1.5664 -0.68506,-0.31072 -1.3623,-0.63829 -2.0312,-0.98242 z"
           fill="#dd1d1d"
           fill-rule="evenodd"
           stroke="#000000"
           stroke-linecap="round"
           stroke-linejoin="round"
           stroke-width="1px"
           id="path13288" />
        <path
           d="m 58.221,809.02 a 45.741,45.741 0 0 0 2.0312,0.98242 45.741,45.741 0 0 0 4.2949,1.5664 45.741,45.741 0 0 0 4.4297,1.1308 45.741,45.741 0 0 0 4.5215,0.6836 45.741,45.741 0 0 0 4.5664,0.22851 45.741,45.741 0 0 0 3.2363,-0.11328 45.741,45.741 0 0 0 4.5391,-0.55273 45.741,45.741 0 0 0 4.4609,-1 45.741,45.741 0 0 0 4.3379,-1.4414 45.741,45.741 0 0 0 0.20117,-0.0898 l -3.3086,-1.6758 a 43.083,43.083 0 0 1 -1.9414,0.64648 43.083,43.083 0 0 1 -4.2031,0.94336 43.083,43.083 0 0 1 -4.2754,0.51758 43.083,43.083 0 0 1 -3.0469,0.10937 43.083,43.083 0 0 1 -4.3008,-0.21679 43.083,43.083 0 0 1 -4.2578,-0.64258 43.083,43.083 0 0 1 -4.1738,-1.0664 43.083,43.083 0 0 1 -2.5664,-0.9375 l -4.5449,0.92774 z"
           fill="#f4f2ef"
           fill-rule="evenodd"
           stroke="#000000"
           stroke-linecap="round"
           stroke-linejoin="round"
           stroke-width="1px"
           id="path13290" />
        <path
           d="M 76.525,856.9 V 829.673"
           fill="none"
           stroke="#000000"
           stroke-linecap="round"
           stroke-linejoin="round"
           stroke-width="0.64488"
           id="path13292" />
        <path
           d="m 50.752,817.19 6.674,-6.5162 -1.3562,9.1069 5.5999,-7.3085 -0.46767,9.1953 4.8654,-7.8167 0.42543,9.1974 4.0852,-8.2513 1.3146,9.1129 3.2665,-8.6083 2.1913,8.9427 2.4171,-8.8843 3.0474,8.6883 1.545,-9.0767 3.8749,8.3521 0.65827,-9.1837 4.6659,7.9374 -0.23462,-9.2042 5.413,7.448 v 0 l -0.74983,-8.3064 1.4531,0.73404 4.2804,5.3228 -0.79345,-3.5559 3.753,1.9207 c -8.6793,5.1202 -18.556,7.8124 -28.616,7.8124 -9.556,0 -18.955,-2.4293 -27.314,-7.0597"
           fill-rule="evenodd"
           stroke="#000000"
           stroke-linecap="round"
           stroke-linejoin="round"
           stroke-width="1px"
           id="path13294" />
        <path
           d="m 78.869,879.68 2.7093,-8.0406 3.1857,7.864 2.5282,-8.0994 3.3614,7.7906 2.3458,-8.1541 3.5354,7.7132 -5.8812,0.44093 -5.8896,0.30882 -5.8951,0.17656"
           fill-rule="evenodd"
           stroke="#000000"
           stroke-linecap="round"
           stroke-linejoin="round"
           stroke-width="0.64488"
           id="path13296" />
        <path
           d="m 104.22,869.95 a 254.8,254.8 0 0 1 -30.265,1.8038 254.8,254.8 0 0 1 -30.432,-1.8239"
           fill="none"
           stroke="#000000"
           stroke-linecap="round"
           stroke-linejoin="round"
           stroke-width="0.99921"
           id="path13298" />
        <path
           d="m 43.55,877.96 3.7644,-7.604 2.101,8.2206 3.5928,-7.6866 2.285,8.1713 3.4193,-7.7653 2.4678,8.118 3.2442,-7.8401 2.6494,8.0606 3.0674,-7.9109 2.8296,7.9991 -5.897,-0.0882 -5.8936,-0.22048 -5.8871,-0.35269 -5.8777,-0.48473 z"
           fill-rule="evenodd"
           stroke="#000000"
           stroke-linecap="round"
           stroke-linejoin="round"
           stroke-width="0.64488"
           id="path13300" />
        <path
           d="m 104.22,877.98 a 262.77,262.77 0 0 1 -30.265,1.7487 262.77,262.77 0 0 1 -30.423,-1.7672"
           fill="none"
           stroke="#000000"
           stroke-linecap="round"
           stroke-linejoin="round"
           stroke-width="0.99921"
           id="path13302" />
        <g
           transform="rotate(-22.723,-213.14,694.64)"
           stroke="#000000"
           id="g13358">
          <g
             transform="rotate(13.13,-371.96,587.95)"
             id="g13310">
            <path
               d="m 58.708,878.46 3.3438,-0.77039"
               fill="none"
               stroke-width="1px"
               id="path13304" />
            <path
               d="m 32.427,796.38 13.828,-3.2076 15.797,84.519 -6.6875,1.5408 z"
               fill="#e9c13a"
               fill-rule="evenodd"
               stroke-linecap="round"
               stroke-linejoin="round"
               stroke-width="1px"
               id="path13306" />
            <path
               d="m 35.769,795.6 22.94,82.861 -15.675,-84.555 -7.2651,1.6946"
               fill-rule="evenodd"
               stroke-linecap="round"
               stroke-linejoin="round"
               stroke-width="2.7709"
               id="path13308" />
          </g>
          <ellipse
             transform="rotate(0.053449,-106987,132792.94)"
             cx="-141.83"
             cy="766.06"
             rx="8.2516003"
             ry="17.641001"
             fill="#dd1d1d"
             stroke-linecap="round"
             stroke-linejoin="round"
             stroke-width="0.99921"
             id="ellipse13312" />
          <path
             transform="rotate(13.13,-371.96,587.95)"
             d="m 27.127,780.16 c 0,0 2.9108,-3.3184 7.4746,-4.2908 4.5638,-0.97243 8.6006,0.55704 8.6006,0.55704"
             fill="none"
             stroke-width="1px"
             id="path13314" />
          <path
             transform="rotate(13.13,-371.96,587.95)"
             d="m 26.37,777.02 c 0,0 2.9108,-3.3184 7.4746,-4.2908 4.5638,-0.97243 8.6006,0.55704 8.6006,0.55704"
             fill="none"
             stroke-width="1px"
             id="path13316" />
          <path
             transform="rotate(13.13,-371.96,587.95)"
             d="m 27.83,783.3 c 0,0 2.9108,-3.3184 7.4746,-4.2908 4.5638,-0.97243 8.6006,0.55704 8.6006,0.55704"
             fill="none"
             stroke-width="1px"
             id="path13318" />
          <path
             transform="rotate(13.13,-371.96,587.95)"
             d="m 35.304,779.01 3.852,16.459"
             fill="none"
             stroke-width="1px"
             id="path13320" />
          <path
             transform="rotate(13.13,-371.96,587.95)"
             d="m 29.94,781.01 c 2.2635,6.6835 4.6574,12.865 8.1815,14.699"
             fill="none"
             stroke-width="1px"
             id="path13322" />
          <path
             transform="rotate(13.13,-371.96,587.95)"
             d="m 41.057,778.43 c 0.91405,6.997 1.4899,13.601 -0.86522,16.8"
             fill="none"
             stroke-width="1px"
             id="path13324" />
          <g
             transform="rotate(0.053471,-94324,-61018.012)"
             fill="#1780ce"
             stroke-linecap="round"
             stroke-linejoin="round"
             stroke-width="0.99921"
             id="g13330">
            <ellipse
               cx="39.402"
               cy="794.73999"
               rx="11.375"
               ry="5.9375"
               id="ellipse13326" />
            <ellipse
               cx="39.308998"
               cy="794.76001"
               rx="7.1230001"
               ry="3.6326001"
               id="ellipse13328" />
          </g>
          <path
             transform="rotate(13.13,-371.96,587.95)"
             d="m 26.227,773.79 c 0,0 2.3292,-3.1985 6.8929,-4.1709 4.5638,-0.97243 8.081,0.67795 8.081,0.67795"
             fill="none"
             stroke-width="1px"
             id="path13332" />
          <path
             transform="rotate(13.13,-371.96,587.95)"
             d="m 32.596,779.91 3.0864,9.7438"
             fill="none"
             stroke-width="1px"
             id="path13334" />
          <path
             transform="rotate(13.13,-371.96,587.95)"
             d="m 38.12,778.62 1.5431,10.104"
             fill="none"
             stroke-width="1px"
             id="path13336" />
          <path
             transform="rotate(13.13,-371.96,587.95)"
             d="m 32.377,796.39 13.874,-3.236"
             fill="none"
             stroke-width="0.99921"
             id="path13338" />
          <circle
             cx="-18.698"
             cy="846.38"
             r="1.5026"
             stroke-linecap="round"
             stroke-linejoin="round"
             stroke-width="0.99921"
             id="circle13340" />
          <g
             transform="rotate(-23.118,-24.874,1013.2)"
             stroke-linecap="round"
             stroke-linejoin="round"
             id="g13350">
            <ellipse
               transform="rotate(22.723)"
               cx="375.78"
               cy="908.37"
               rx="4.7287998"
               ry="8.2643003"
               fill="#f4f2ef"
               stroke-width="0.99921"
               id="ellipse13342" />
            <ellipse
               transform="rotate(22.723)"
               cx="375.78"
               cy="908.37"
               rx="3.2704"
               ry="5.8196998"
               fill="none"
               stroke-width="0.64488"
               id="ellipse13344" />
            <ellipse
               transform="rotate(22.723)"
               cx="375.78"
               cy="908.37"
               rx="1.8530999"
               ry="3.9556"
               fill="none"
               stroke-width="0.64488"
               id="ellipse13346" />
            <path
               d="m -3.4152,980.97 -1.7242,4.1171"
               fill="none"
               stroke-width="0.64488"
               id="path13348" />
          </g>
          <g
             transform="rotate(-22.568,-92.117,1022.9)"
             stroke-linecap="round"
             stroke-linejoin="round"
             stroke-width="0.64488"
             id="g13356">
            <ellipse
               transform="rotate(22.723)"
               cx="384.28"
               cy="924.67999"
               rx="5.9061999"
               ry="3.1561999"
               fill="#f4f2ef"
               id="ellipse13352" />
            <ellipse
               transform="rotate(22.723)"
               cx="384.28"
               cy="924.67999"
               rx="4.1346002"
               ry="1.698"
               id="ellipse13354" />
          </g>
        </g>
        <g
           stroke="#000000"
           stroke-linecap="round"
           stroke-linejoin="round"
           id="g13386">
          <path
             d="m 51.35,868.63 c -0.41517,-2.0356 -1.1171,-4.1633 -1.4531,-6.1738 -0.168,-1.0053 -0.24428,-1.981 -0.14648,-2.9024 0.0978,-0.92133 0.36889,-1.7866 0.89648,-2.5723 -0.35922,-0.33702 -0.76272,-0.58717 -1.2285,-0.71094 -0.46578,-0.12377 -0.99479,-0.12106 -1.6035,0.041 -0.26728,-0.53798 -0.60688,-0.83955 -1.0098,-1.0098 -0.40289,-0.17021 -0.86804,-0.20896 -1.3828,-0.22266 -0.72822,0.96663 -1.146,2.0267 -1.3555,3.1504 -0.20944,1.1237 -0.21006,2.3103 -0.10352,3.5254 0.2131,2.4302 0.85492,4.977 1.1152,7.3789 1.1208,0.84103 2.2249,1.4702 3.1816,0.17774 1.1531,0.40043 1.4647,1.4355 3.0898,-0.68164 z"
             fill="#f4f2ef"
             fill-rule="evenodd"
             stroke-width="0.99921"
             id="path13360" />
          <path
             d="m 57.984,849.84 c -0.93889,0.1069 -1.3227,0.33206 -1.6055,0.67578 -0.28281,0.34372 -0.46497,0.80506 -1.0039,1.3848 -1.0068,1.0333 -1.6085,1.8482 -2,2.5059 -0.3915,0.6577 -0.57194,1.1589 -0.74023,1.5645 -0.16829,0.4056 -0.32301,0.71536 -0.66016,0.99218 -0.30074,0.24694 -0.83619,0.46958 -1.5664,0.70704 -0.29109,0.60621 -0.58646,1.2109 -0.6582,1.8867 -0.0978,0.92134 -0.02151,1.8971 0.14648,2.9024 0.336,2.0105 1.038,4.1383 1.4531,6.1738 7.304,-0.2207 14.54,-1.2193 20.525,-7.7051 1.401,-2.0322 0.2905,-2.727 -0.15625,-3.0938 0.58442,-1.3766 1.497,-4.9139 -0.21875,-4.625 0.37264,-1.9987 1.1053,-4.3673 -1.0938,-4.2812 0.11948,-1.7983 0.22231,-2.3273 -1.5938,-3.3125 -0.46114,-0.21875 -1.0077,-0.5625 -1.6875,-0.75 -0.72111,-0.23256 -1.0674,0.15126 -0.90625,0.75 l 0.90625,1.6562 c -1.1022,0.63621 -1.4489,1.8996 -1.7812,2.8438 -2.1965,0.44015 -3.3324,1.4588 -4.6562,2.375 -0.31938,-0.21277 -0.76133,-0.38977 -1.4961,-0.11133 z"
             fill="#f4f2ef"
             fill-rule="evenodd"
             stroke-width="0.99921"
             id="path13362" />
          <path
             d="m 18.189,835.66 c -0.01828,0.035 -0.02378,0.0252 -0.04297,0.0625 l -1.8566,2.4758 -8.69e-4,29.081 c 8.7101,4.8514 18.591,4.1151 28.789,1.8555 -0.26031,-2.4019 -0.90214,-4.9487 -1.1152,-7.3789 -0.10655,-1.2151 -0.10593,-2.4017 0.10352,-3.5254 0.16398,-0.87977 0.59216,-1.6793 1.0605,-2.4668 -1.0163,-0.46919 -2.0243,-0.95625 -3.0234,-1.4609 -2.7897,-1.5243 -5.5014,-3.1872 -8.125,-4.9824 -2.6239,-1.7948 -5.1563,-3.7198 -7.5879,-5.7676 -2.4317,-2.0477 -4.7595,-4.2158 -6.9746,-6.4961 -0.41338,-0.4615 -0.82226,-0.92702 -1.2266,-1.3965 z"
             fill="#dd1d1d"
             fill-rule="evenodd"
             stroke-width="0.99921"
             id="path13364" />
          <path
             d="m 30.674,825.74 -0.0098,0.01 c -1.901,0.16402 -1.5608,0.62586 -2.0527,1.6992 l -8.3027,6.6934 c -1.354,0.39681 -1.4475,0.23077 -2.1191,1.5176 a 95.347,95.347 0 0 0 1.2266,1.3965 95.347,95.347 0 0 0 6.9746,6.4961 95.347,95.347 0 0 0 7.5879,5.7676 95.347,95.347 0 0 0 8.125,4.9824 95.347,95.347 0 0 0 3.0234,1.4609 c 0.12987,-0.21834 0.13684,-0.47376 0.29492,-0.6836 0.51477,0.0137 0.97992,0.0525 1.3828,0.22266 0.40289,0.17022 0.74249,0.47179 1.0098,1.0098 0.60872,-0.16208 1.1377,-0.16481 1.6035,-0.041 0.46579,0.12377 0.8693,0.37392 1.2285,0.71094 -0.14057,0.20931 -0.13255,0.46536 -0.23828,0.68555 0.73022,-0.23746 1.2657,-0.4601 1.5664,-0.70704 0.33715,-0.27682 0.49186,-0.58666 0.66016,-0.99218 0.1683,-0.40552 0.34872,-0.90679 0.74023,-1.5645 0.39151,-0.65771 0.99321,-1.4726 2,-2.5059 0.53894,-0.5797 0.7211,-1.041 1.0039,-1.3848 0.28281,-0.34372 0.66658,-0.56888 1.6055,-0.67578 l -2.5859,-5.4414 -0.83789,-1.7617 a 79.402,79.402 0 0 1 -4.8125,-2.3262 79.402,79.402 0 0 1 -6.7676,-4.1484 79.402,79.402 0 0 1 -6.3184,-4.8027 79.402,79.402 0 0 1 -5.8066,-5.4102 79.402,79.402 0 0 1 -0.18164,-0.20703 z"
             fill="#1780ce"
             fill-rule="evenodd"
             stroke-width="0.99921"
             id="path13366" />
          <path
             d="m 30.674,825.74 a 79.402,79.402 0 0 0 0.18164,0.20703 79.402,79.402 0 0 0 5.8066,5.4102 79.402,79.402 0 0 0 6.3184,4.8027 79.402,79.402 0 0 0 6.7676,4.1484 79.402,79.402 0 0 0 4.8125,2.3262 l -11.326,-23.846 -3.0312,-2.3047 z"
             fill="#dd1d1d"
             fill-rule="evenodd"
             stroke-width="0.99921"
             id="path13368" />
          <path
             d="m 47.814,856.31 c -1.7136,2.5261 -0.59968,7.7965 0.44531,13"
             fill="none"
             stroke-width="0.99921"
             id="path13370" />
          <path
             d="m 70.406,848.92 c -0.69867,3.9061 -1.9394,4.4942 -6.125,6.9384"
             fill="none"
             stroke-width="0.64488"
             id="path13372" />
          <path
             d="m 71.5,853.21 c -0.97044,3.6157 -1.2069,3.2538 -5.125,5.8759"
             fill="none"
             stroke-width="0.64488"
             id="path13374" />
          <path
             d="m 71.719,857.83 c -0.77304,2.4316 -1.5074,2.3735 -4.25,4.1884"
             fill="none"
             stroke-width="0.64488"
             id="path13376" />
          <path
             d="M 52.428,856.29 A 92.689,92.689 0 0 1 20.311,834.14"
             fill="none"
             stroke-width="0.99921"
             id="path13378" />
          <path
             d="M 56.335,846.41 A 82.059,82.059 0 0 1 28.603,827.443"
             fill="none"
             stroke-width="0.99921"
             id="path13380" />
          <path
             d="m 35.409,850.28 c -6.8414,-2.6183 -15.342,-1.7846 -19.12,1.663"
             fill="none"
             stroke-width="0.64488"
             id="path13382" />
          <path
             d="m 27.833,828.07 -4.7601,8.8824 9.9765,-5.2205 -4.0997,10.487 9.4963,-6.0502 -3.1929,10.798 8.9472,-6.836 -2.2629,11.03 8.3333,-7.5723 -1.3165,11.183 7.5646,-8.0217"
             fill="none"
             stroke-width="0.99921"
             id="path13384" />
        </g>
        <g
           stroke="#000000"
           id="g13412">
          <path
             d="m 101.17,885.41 c -0.19211,-1.3052 -0.37686,-2.6133 -0.64258,-3.8789 -0.26573,-1.2656 -0.61191,-2.4882 -1.1309,-3.6211 -0.51895,-1.1329 -1.2103,-2.1768 -2.1621,-3.084 -0.95179,-0.90718 -2.1643,-1.6772 -3.7285,-2.2656 l -5.5605,5.2324 c 6.6868,2.5748 7.3473,7.7574 7.6094,10.482 z"
             fill="#f4f2ef"
             fill-rule="evenodd"
             stroke-linecap="round"
             stroke-linejoin="round"
             stroke-width="0.99921"
             id="path13388" />
          <path
             d="m 120.22,834.71 c -1.4474,1.6656 -2.9522,3.2806 -4.5117,4.8418 -2.2804,2.2151 -4.67,4.3147 -7.1602,6.291 -2.49,1.9757 -5.0772,3.8257 -7.752,5.543 -0.61449,0.36174 -1.233,0.71658 -1.8555,1.0644 0.01868,0.0208 0.03797,0.0457 0.05664,0.0664 1.979,2.1904 3.9378,3.7713 5.9219,4.418 -3.3969,3.4007 -6.657,5.9194 -10.959,15.203 l -0.44922,0.42383 c 1.5642,0.58843 2.7767,1.3584 3.7285,2.2656 0.95179,0.90719 1.6432,1.9511 2.1621,3.084 0.51895,1.1329 0.86513,2.3555 1.1309,3.6211 0.26572,1.2656 0.45047,2.5737 0.64258,3.8789 1.8169,-1.7444 6.1957,-0.60417 20.893,-12.744 9.8611,-9.3872 9.8798,-13.594 -1.7676,-37.83 l -0.0801,-0.12695 z"
             fill="#dd1d1d"
             fill-rule="evenodd"
             stroke-linecap="round"
             stroke-linejoin="round"
             stroke-width="0.99921"
             id="path13390" />
          <path
             d="m 98.938,852.45 c 0.62245,-0.34787 1.241,-0.70271 1.8555,-1.0644 2.6748,-1.7173 5.262,-3.5672 7.752,-5.543 2.4901,-1.9763 4.8798,-4.076 7.1602,-6.291 1.5595,-1.5612 3.0643,-3.1761 4.5117,-4.8418 0.15268,-0.94847 -0.23644,-1.7276 -1.416,-2.2598 l -5.9199,-9.4375 c -0.18968,-1.0535 -0.19493,-1.8476 -1.4961,-2.3867 l -0.0449,-0.0723 c -0.4359,0.59011 -0.87995,1.1742 -1.332,1.752 -1.7054,2.0252 -3.511,3.9638 -5.4102,5.8086 -1.8991,1.8444 -3.8892,3.5927 -5.9629,5.2383 -2.074,1.6458 -4.2291,3.1867 -6.457,4.6172 -0.83351,0.49849 -1.6761,0.98164 -2.5273,1.4492 0.01474,0.0226 0.03019,0.0457 0.04492,0.0684 0.1158,0.99604 0.49563,1.7967 1.4336,2.1953 2.1034,3.2162 4.1269,6.2415 6.1152,8.7539 0.13304,0.93445 0.56839,1.6684 1.6934,2.0137 z"
             fill="#1780ce"
             fill-rule="evenodd"
             stroke-width="0.99921"
             id="path13392" />
          <path
             d="m 89.65,839.42 c 0.85124,-0.46758 1.6938,-0.95073 2.5273,-1.4492 2.228,-1.4304 4.383,-2.9714 6.457,-4.6172 2.0737,-1.6456 4.0638,-3.3939 5.9629,-5.2383 1.8991,-1.8448 3.7047,-3.7834 5.4102,-5.8086 0.45208,-0.5778 0.89613,-1.1618 1.332,-1.752 0.13492,-0.34863 -0.14261,-0.42229 -0.34375,-0.54688 -1.6056,1.0232 -3.2578,1.9714 -4.9512,2.8418 -1.8331,0.93317 -3.7118,1.7741 -5.6289,2.5195 -1.9169,0.74493 -3.8699,1.3935 -5.8516,1.9434 -0.38717,0.091 -0.77521,0.17823 -1.1641,0.26172 -0.92652,1.1506 -1.8207,2.3268 -2.6816,3.5273 -1.1155,1.6724 -2.167,3.3865 -3.1523,5.1387 0.70546,1.0649 1.3987,2.1285 2.084,3.1797 z"
             fill="#dd1d1d"
             fill-rule="evenodd"
             stroke-linecap="round"
             stroke-linejoin="round"
             stroke-width="0.99921"
             id="path13394" />
          <path
             d="M 118.82,832.44 A 92.689,92.689 0 0 1 97.256,850.465"
             fill="none"
             stroke-linecap="round"
             stroke-linejoin="round"
             stroke-width="0.99921"
             id="path13396" />
          <path
             d="M 112.89,822.99 A 82.059,82.059 0 0 1 91.151,841.724"
             fill="none"
             stroke-linecap="round"
             stroke-linejoin="round"
             stroke-width="0.99921"
             id="path13398" />
          <path
             d="m 97.26,850.46 -2.8654,-10.76 8.7498,6.8865 -3.6743,-10.511 9.2476,6.2021 -4.462,-10.202 9.6919,5.4818 -5.224,-9.8333 9.6304,4.0152 0.44984,0.71473"
             fill="none"
             stroke-linecap="round"
             stroke-linejoin="round"
             stroke-width="0.99921"
             id="path13400" />
          <path
             d="m 87.947,877.79 c -2.5189,0.28219 -6.1005,0.0682 -7.0391,1.0879 l 0.72852,3.2148 c 0.86812,-0.51387 0.97349,-0.32309 1.0957,-0.14844 -1.1574,1.4575 -3.7691,2.2934 -4.8613,3.9336 -2.5815,-0.31519 -3.5903,0.0571 -4.6641,0.13281 0.2225,-0.47217 0.42064,-1.1677 0.16016,-1.582 l -0.83789,-1.332 c -0.2928,0.2471 -1.2493,1.6552 -1.5527,2.6934 -0.10152,0.67177 -0.30534,1.0652 0.48633,2.8711 -0.21948,1.9062 0.21547,2.5952 3.0918,3.5371 -0.91606,1.2334 1.1279,2.8859 4.332,2.6504 -0.24181,-0.0229 -1.1376,1.1446 0.57422,1.3711 4.0737,-0.0936 6.3015,1.6402 15.951,-9.1582 -0.40556,-2.8517 -1.6681,-7.0394 -7.4648,-9.2715 z"
             fill="#f4f2ef"
             fill-rule="evenodd"
             stroke-linecap="round"
             stroke-linejoin="round"
             stroke-width="0.99921"
             id="path13402" />
          <path
             d="m 71.462,888.67 c 3.9809,1.7164 4.0831,1.3946 8.883,0.75131"
             fill="none"
             stroke-linecap="round"
             stroke-linejoin="round"
             stroke-width="0.64488"
             id="path13404" />
          <path
             d="m 74.556,892.2 c 3.4494,0.69378 3.6922,0.41913 6.8059,-0.13258"
             fill="none"
             stroke-linecap="round"
             stroke-linejoin="round"
             stroke-width="0.64488"
             id="path13406" />
          <path
             d="m 78.887,894.85 c 1.3236,0.0134 2.411,-0.11491 3.5355,-0.22097"
             fill="none"
             stroke-linecap="round"
             stroke-linejoin="round"
             stroke-width="0.64488"
             id="path13408" />
          <path
             d="m 90.952,874.97 c 6.9268,3.6357 6.7635,7.7744 7.4121,11.878"
             fill="none"
             stroke-width="0.99921"
             id="path13410" />
        </g>
        <g
           transform="translate(-0.70866,0.70866)"
           stroke="#000000"
           stroke-linecap="round"
           stroke-linejoin="round"
           stroke-width="0.99921"
           id="g13422">
          <path
             d="m 72.927,763.88 -3.5788,8.3245 -5.3615,-7.3047 -2.7705,8.6272 c -3.1234,-3.1754 -7.2048,-5.4354 -11.534,-6.0242 -0.99612,-0.6826 -2.0231,-1.3115 -3.0806,-1.8856 -1.0342,-0.56138 -2.0976,-1.0703 -3.1899,-1.5256 0.92765,-0.14955 1.8825,-0.24266 2.8404,-0.27956 0.13186,-0.005 0.26367,-0.009 0.39544,-0.0122 4.6641,-0.10417 9.2643,1.1281 13.269,3.6062 l 3.0742,-8.6268 5.6541,7.2642 3.873,-8.3509 4.9373,7.7693 h 3e-6 l 4.6346,-7.9535 4.1915,8.1957 5.3704,-7.4764 3.404,8.5021 c 3.9067,-2.6304 8.455997,-4.0387 13.120997,-4.1141 0.13179,-0.002 0.26366,-0.003 0.39562,-0.003 0.9586,0 1.9164,0.0563 2.8491,0.17004 -1.074,0.49702 -2.117,1.0465 -3.1288,1.6472 -1.0346,0.61432 -2.0367,1.2823 -3.0058,2.0027 -4.303,0.75497 -8.294397,3.1704 -11.292997,6.4636 l -3.1004,-8.5142 -5.0764,7.5056 -3.8965,-8.1806 -4.3452,7.9547 z"
             fill="#e9c13a"
             fill-rule="evenodd"
             id="path13414" />
          <path
             d="m 94.324,780.19 a 79.402,79.402 0 0 0 -7.0684,-1.0684 79.402,79.402 0 0 0 -7.9258,-0.39844 79.402,79.402 0 0 0 -5.6172,0.19922 79.402,79.402 0 0 0 -7.8789,0.95703 79.402,79.402 0 0 0 -4.6348,1.041 c 0.39504,0.78745 0.85057,1.5407 1.1836,2.3613 5.5645,-1.2649 11.248,-1.9004 16.947,-1.9004 4.636,0 9.2612,0.42112 13.85,1.2852 0.31447,-0.85833 0.76183,-1.651 1.1445,-2.4766 z"
             fill="#e9c13a"
             id="path13416" />
          <path
             d="m 79.33,776.07 a 82.059,82.059 0 0 0 -5.8047,0.20508 82.059,82.059 0 0 0 -8.1445,0.98828 82.059,82.059 0 0 0 -5.4082,1.2148 c 0.46665,0.78117 0.81741,1.6297 1.2266,2.4453 a 79.402,79.402 0 0 1 4.6348,-1.041 79.402,79.402 0 0 1 7.8789,-0.95703 79.402,79.402 0 0 1 5.6172,-0.19922 79.402,79.402 0 0 1 7.9258,0.39844 79.402,79.402 0 0 1 7.0684,1.0684 c 0.38798,-0.83701 0.71216,-1.7066 1.1582,-2.5117 a 82.059,82.059 0 0 0 -7.9609,-1.2012 82.059,82.059 0 0 0 -8.1914,-0.41016 z"
             fill="#e9c13a"
             id="path13418" />
          <path
             d="m 81.939,763.69 -4.3379,7.9551 -0.02734,-0.0352 -0.02539,0.0352 -4.6426,-7.7812 -3.5801,8.3242 -5.3613,-7.3047 -2.7695,8.627 c -3.1234,-3.1754 -7.205,-5.4345 -11.523,-6.0156 4.2086,2.883 7.707,6.6442 10.301,10.986 a 82.059,82.059 0 0 1 5.4082,-1.2148 82.059,82.059 0 0 1 8.1445,-0.98828 82.059,82.059 0 0 1 5.8047,-0.20508 82.059,82.059 0 0 1 8.1914,0.41016 82.059,82.059 0 0 1 7.9609,1.2012 c 2.429,-4.3846 5.7534,-8.2418 9.8145,-11.26 -4.2929,0.7469 -8.2843,3.1618 -11.283,6.4551 l -3.0996,-8.5137 -5.0781,7.5059 -3.8965,-8.1816 z"
             id="path13420" />
        </g>
        <g
           id="g13428">
          <g
             transform="translate(-142.55,-62.625)"
             id="g13424" />
          <path
             d="m 68.843,800.15 7.6e-4,6.493 c 0,0 -0.61416,0.234 -0.928,0.33062 -0.4185,0.12885 -1.2711,0.33146 -1.2711,0.33146 l -3.8789,0.79101 c 0.84534,0.33955 1.7012,0.65221 2.5664,0.9375 1.3726,0.42485 2.7656,0.78076 4.1738,1.0664 1.4077,0.28503 2.8287,0.49949 4.2578,0.64258 1.4291,0.14391 2.8645,0.21626 4.3008,0.21679 1.0166,-5e-4 2.0329,-0.037 3.0469,-0.10937 1.4329,-0.10115 2.8598,-0.27389 4.2754,-0.51758 1.4159,-0.24417 2.8187,-0.55902 4.2031,-0.94336 0.65216,-0.20009 1.2995,-0.41565 1.9414,-0.64648 l -2.9965,-0.90717 c 0,0 -1.0196,-0.34914 -1.573,-0.54143 -0.45992,-0.15982 -0.99506,-0.22319 -1.37,-0.67314 v -5.8331 c -9.7988,15.204 -16.728,-0.63268 -16.749,-0.63779 z"
             fill="#f4f2ef"
             fill-rule="evenodd"
             stroke="#000000"
             stroke-linecap="round"
             stroke-linejoin="round"
             stroke-width="0.99921"
             id="path13426" />
        </g>
        <path
           d="m 7.6259,740.96 c -3.9978,0 -7.2148,4.7281 -7.2148,10.602 v 289.79 c 0,5.8734 3.2171,10.602 7.2148,10.602 h 137.11 c 3.9978,0 7.2168,-4.7282 7.2168,-10.602 v -289.79 c 0,-5.8735 -3.219,-10.602 -7.2168,-10.602 z m 14.369,15.879 h 108.37 c 3.1599,0 5.7031,4.2459 5.7031,9.5195 v 260.19 c 0,5.2737 -2.5432,9.5195 -5.7031,9.5195 h -108.37 c -3.1599,0 -5.7051,-4.2458 -5.7051,-9.5195 v -260.19 c 0,-5.2736 2.5452,-9.5195 5.7051,-9.5195 z"
           fill="#f4f2ef"
           fill-rule="evenodd"
           stroke="#000000"
           stroke-width="0.82205"
           id="path13430" />
      </g>
      <path
         d="m 91.914,796.73 c -0.30348,0.0574 -0.39223,0.43301 -0.50781,0.67187 -0.25939,0.53595 -0.55177,1.1265 -1.0469,1.4844 -0.24988,0.1806 -0.94575,0.33891 -1.0879,0.58008 -0.14678,0.24913 0.15444,0.42483 0.36133,0.42383 1.1324,-0.005 1.8466,-1.0727 2.2734,-1.9902 0.09448,-0.20406 0.57216,-1.276 0.0078,-1.1699 z m -30.9,-1.7188 -0.002,0.002 c -0.2003,0.0657 -0.21274,0.44038 -0.22656,0.60937 -0.04843,0.59329 -0.18275,1.1955 -0.05273,1.7871 0.3862,1.7576 1.7197,3.1953 3.5723,3.1953 0.33108,-2e-5 0.82883,0.0499 1.125,-0.12696 0.17926,-0.10668 0.24855,-0.43386 0.0059,-0.50586 -0.60369,-0.17905 -1.3206,0.0211 -1.9414,-0.15625 -1.1208,-0.32035 -1.7184,-1.6202 -2.0605,-2.623 -0.19123,-0.56091 0.07152,-1.1596 -0.0078,-1.7324 -0.02378,-0.17162 -0.17752,-0.52591 -0.41211,-0.44922 z m 30.477,-0.7832 c -0.05181,-0.0128 -0.10782,-0.009 -0.16602,0.0156 v -0.006 c -0.21534,0.0924 -0.26514,0.55454 -0.33594,0.7539 -0.25444,0.7166 -0.5137,1.3396 -0.92773,1.9824 -0.36382,0.56475 -0.96858,1.0856 -1.5977,1.3379 -0.27309,0.11003 -0.82752,0.13341 -1.0371,0.30664 -0.16686,0.13778 -0.1076,0.48158 0.0957,0.55468 0.22467,0.0883 0.62446,-0.003 0.84961,-0.0586 1.6517,-0.40668 2.3969,-1.7681 3.0098,-3.2266 0.16073,-0.38254 0.41052,-0.85765 0.38867,-1.2852 -0.0083,-0.15679 -0.12386,-0.3368 -0.2793,-0.375 z m -1.3984,-0.16601 c -0.05368,-0.008 -0.11898,6.9e-4 -0.19727,0.0254 -0.27639,0.0872 -0.30017,0.58775 -0.38086,0.82031 -0.20052,0.57784 -0.3611,1.1147 -0.69727,1.6367 -0.18134,0.28172 -0.50904,0.5064 -0.63476,0.8164 -0.07914,0.19502 -0.0011,0.38291 0.23047,0.34571 1.0568,-0.17079 1.5592,-1.7296 1.8047,-2.5879 0.07032,-0.24584 0.25074,-1.0038 -0.125,-1.0566 z m -28.434,-0.41211 c -0.2289,0.0543 -0.23632,0.32618 -0.20312,0.51562 0.08194,0.46832 0.48637,0.81448 0.56055,1.3008 0.23664,1.5516 0.95841,4.214 3.1562,3.418 0.23892,-0.0866 1.155,-0.77389 0.53516,-1 -0.28683,-0.10453 -0.63671,0.2804 -0.91406,0.3418 -0.69336,0.15272 -1.308,-0.46214 -1.6211,-1.0274 -0.4729,-0.85361 -0.40826,-1.9529 -0.72461,-2.8691 -0.09542,-0.27615 -0.44532,-0.76108 -0.78906,-0.67968 z m 27.08,-0.45703 c -0.05975,-0.0152 -0.13211,-0.004 -0.21875,0.041 -0.18756,0.0975 -0.17295,0.40391 -0.21875,0.58399 -0.13768,0.54108 -0.51792,1.1851 -0.54492,1.7324 -0.01326,0.26817 0.21177,0.56247 0.50391,0.44922 0.21507,-0.0831 0.26848,-0.37475 0.30664,-0.57422 0.10813,-0.56716 0.39158,-1.1416 0.41016,-1.7207 0.0063,-0.19689 -0.05903,-0.46601 -0.23828,-0.51171 z m -26.182,-0.75391 c -0.0625,-0.007 -0.12857,-10e-4 -0.19727,0.0176 -0.65835,0.18252 0.19858,0.92989 0.375,1.168 0.82002,1.1068 1.3083,2.3905 2.0625,3.5195 0.17318,0.25927 0.86241,0.61945 1.1836,0.50586 0.30311,-0.10667 0.23381,-0.49409 0.04687,-0.66602 -1.1016,-1.0131 -1.5536,-2.4282 -2.4941,-3.5801 -0.24634,-0.3018 -0.53906,-0.91724 -0.97656,-0.96484 z m -3.5586,-3.4199 c -0.35431,0.0681 -0.44292,0.54463 -0.54883,0.82031 -0.37479,0.97533 0.07242,2.4658 0.75,3.2051 0.21663,0.23637 0.59149,0.75183 0.98438,0.63672 0.2528,-0.0746 0.16539,-0.41865 0.03906,-0.56446 -0.92564,-1.0633 -1.2167,-2.2868 -0.93164,-3.6543 0.0406,-0.19465 -0.02569,-0.49546 -0.29297,-0.44336 z m 4.875,-0.0156 c -0.31023,0.0915 -0.4543,0.45956 -0.57617,0.72266 -0.58132,1.2549 0.36643,2.3567 1.1406,3.248 0.18444,0.21228 0.81512,1.063 1.1465,0.90429 0.36039,-0.17254 0.09051,-0.78425 -0.04687,-1.0117 -0.44718,-0.74049 -1.3248,-1.1843 -1.4375,-2.1133 -0.06015,-0.49657 0.24816,-0.83853 0.25586,-1.2969 0.0045,-0.25451 -0.19466,-0.53753 -0.48242,-0.45313 z m 25.084,-2.3359 c -0.04483,-0.005 -0.09305,-8e-5 -0.14453,0.0156 -0.21005,0.0637 -0.32888,0.2287 -0.21094,0.42969 0.65474,1.1156 1.3338,1.9808 1.5742,3.2871 0.04669,0.25372 0.0466,1.155 0.46289,1.0742 0.45814,-0.089 0.32247,-0.94105 0.25195,-1.2441 -0.23344,-1.0014 -0.66559,-2.0038 -1.2891,-2.8242 -0.1696,-0.22321 -0.33069,-0.70509 -0.64453,-0.73828 z M 65.281,786.4429 c -0.32978,0.0775 -0.37221,0.64662 -0.37891,0.90625 -0.02318,0.931 -0.06563,1.7544 0.25391,2.6523 0.08627,0.24236 0.18784,0.75491 0.50391,0.78711 0.40495,0.0416 0.22882,-0.62677 0.20117,-0.83985 -0.12128,-0.9342 -0.41962,-1.9257 -0.20117,-2.8711 0.04972,-0.2149 0.0741,-0.57786 -0.2207,-0.63476 -0.0596,-0.0113 -0.11109,-0.0111 -0.1582,0 z m -3.5742,-0.2461 c -0.33769,0.0418 -0.63752,0.67858 -0.80664,0.93555 -0.67019,1.018 -1.1174,2.234 -0.95703,3.4668 0.04975,0.38253 0.15445,1.5039 0.72852,1.5039 0.35928,0 0.22,-1.0193 0.18359,-1.2344 -0.25562,-1.5081 0.4612,-2.5795 1.0664,-3.9004 0.09996,-0.21813 0.20825,-0.82359 -0.21484,-0.77149 z m 2.7051,-1.1758 c -0.44138,-0.0866 -0.68631,1.2063 -0.86328,1.5098 -0.82343,1.4117 -2.1127,2.288 -2.1133,4.0625 -1.74e-4,0.49458 0.08038,1.4402 0.75781,1.4863 0.25222,0.0169 0.28216,-0.26956 0.26172,-0.45898 -0.05013,-0.46526 -0.37998,-0.86354 -0.28711,-1.3535 0.28301,-1.4929 1.7211,-2.3984 2.168,-3.8438 0.08087,-0.26127 0.55145,-1.3087 0.07617,-1.4023 z m 24.854,-0.31641 c -0.06591,-0.0143 -0.12812,-0.0147 -0.1875,0.002 -0.75519,0.21205 0.44411,1.2154 0.60352,1.4414 1.0154,1.4392 2.1672,2.9823 2.6055,4.7188 0.1492,0.59115 -0.05409,1.104 -0.06836,1.6914 -0.0043,0.17943 0.05216,0.42825 0.28906,0.37695 0.23148,-0.0497 0.31615,-0.30502 0.4082,-0.49023 0.26965,-0.5424 0.27439,-1.1104 0.21484,-1.7051 -0.16871,-1.7045 -1.6014,-3.5709 -2.6035,-4.8789 -0.21388,-0.27921 -0.80035,-1.056 -1.2617,-1.1562 z m 3.9336,-0.0625 c -0.20549,0.0481 -0.24224,0.34284 -0.22461,0.51172 0.04684,0.42673 0.47808,0.80647 0.72461,1.1348 1.1365,1.5136 2.8581,3.5456 2.0273,5.5312 -0.25381,0.60651 -0.78656,1.154 -1.3359,1.5039 -0.43659,0.27805 -0.92346,0.4341 -1.1758,0.94141 -0.25192,0.50648 -0.10824,1.2583 -0.11914,1.8047 -0.02589,1.3 -0.28997,2.9366 -1.4004,3.7793 -1.2339,0.93662 -2.4867,0.47223 -3.8613,0.59179 -0.28552,0.0233 -1.2883,0.0285 -1.2969,0.44141 -0.0052,0.25222 0.30984,0.25762 0.49024,0.26562 0.28986,0.018 0.57669,-0.0647 0.86523,-0.0312 0.38206,0.0449 0.70881,0.20427 1.1035,0.19727 2.274,-0.041 4.3203,-1.2358 4.6465,-3.6621 0.08781,-0.65385 0.14585,-1.307 0.125,-1.9668 -0.0102,-0.32035 -0.14279,-0.78297 0.03125,-1.0742 0.25968,-0.43461 1.0748,-0.74804 1.4785,-1.0566 0.82246,-0.62871 1.4932,-1.9098 1.4277,-2.9629 -0.10868,-1.7515 -1.516,-3.2252 -2.4199,-4.627 -0.22838,-0.35408 -0.46701,-0.68759 -0.72266,-1.0234 -0.08003,-0.10505 -0.19914,-0.33773 -0.36328,-0.29883 z m -2.1152,-0.58593 c -0.04811,-0.0166 -0.10188,-0.0171 -0.16211,0.006 -0.68722,0.2607 0.16046,1.3677 0.35352,1.6719 1.043,1.6427 2.2746,2.985 2.7988,4.918 0.15036,0.55407 0.09816,1.0541 0.11914,1.6211 0.0057,0.15313 0.06373,0.43523 0.28516,0.35743 0.16048,-0.056 0.24131,-0.31691 0.28516,-0.46094 0.13524,-0.4455 0.2731,-1.0201 0.20508,-1.4863 -0.26823,-1.8382 -1.6595,-3.5426 -2.7324,-4.9805 -0.30777,-0.41252 -0.53934,-0.86316 -0.83203,-1.2852 -0.0814,-0.1175 -0.17598,-0.31113 -0.32031,-0.36133 z"
         fill="#1780ce"
         fill-rule="evenodd"
         id="path13434" />
      <path
         d="m 82.01,786.24 c -1.1465,0.0296 -2.3132,0.288 -2.8535,0.6875 -0.50315,0.36815 -0.69567,1.5786 -0.03516,1.8008 l 0.002,-0.008 c 1.2426,-1.6869 3.1065,-1.3461 4.8691,-1.627 0.55705,-0.0193 0.9871,0.0208 1.4414,0.15234 0.09209,0.036 0.12863,0.0527 0.19726,0.082 0.44815,0.38772 1.1279,0.61489 1.2559,-0.15039 h -0.71094 c -0.0276,-0.0284 0.0016,-0.007 -0.05664,-0.0606 -0.26134,-0.2979 -1.2895,-0.52841 -2.3828,-0.70312 -0.50494,-0.13174 -1.1075,-0.18983 -1.7266,-0.17383 z m -6.7402,15.344 c -0.39862,0.0673 -0.25408,0.70394 -0.08398,0.91016 0.60271,0.72496 2.1772,0.96341 2.6758,0.0566 -0.44752,0 -0.91335,0.0499 -1.3145,-0.1875 -0.34724,-0.20551 -0.82911,-0.8569 -1.2773,-0.7793 z m 1.3047,-2.0723 c -0.33605,-0.0112 -0.66646,0.0242 -0.98633,0.13476 v 0.0195 c -0.37417,0.12756 -0.66762,0.43564 -1.0762,0.47071 -0.30472,0.0354 -0.83291,-0.27283 -1.0703,0 -0.48119,0.58536 0.63688,0.74555 0.95117,0.74023 1.1119,-0.0354 2.5097,-0.21924 3.584,-0.0527 0.74977,0.11693 1.6389,0.6335 2.3887,0.30078 0.27637,-0.12401 0.89456,-0.62946 0.50586,-0.95899 -0.29765,-0.25512 -0.97275,0.0357 -1.3398,-0.0351 -0.89902,-0.13022 -1.9489,-0.58569 -2.957,-0.61914 z m -1.707,-3.6367 c -1.1955,0.67854 0.77887,1.8799 1.5527,1.8594 0.82523,-0.0354 0.27257,-0.82529 -0.11719,-1.0684 -0.62681,-0.3887 -1.0931,0.0495 -1.4336,-0.79101 h -0.002 z m 4.9004,-0.35938 -0.68555,1.0039 -1.7051,0.78906 v 0.23828 c 1.2891,0.287 2.7194,-0.63341 2.3906,-2.0312 z m -8.2852,-7.1445 a 2.2031,0.75 0 0 0 -2.0879,0.51563 c -0.53754,0.13912 -1.118,0.76312 -1.1543,1.2422 -0.0779,1.0389 0.86297,0.6013 1.1309,0 0.67889,0.36106 0.68178,1.0414 1.2285,1.4648 1.428,1.1052 2.1724,-1.0745 3.0742,-1.584 0.0709,0.30118 0.03471,0.8828 0.24023,1.1152 0.30826,0.34371 0.69584,-0.27362 0.77734,-0.51953 0.15236,-0.4585 -0.12112,-0.93996 -0.45312,-1.25 -0.16335,-0.15272 -0.4594,-0.37778 -0.78516,-0.56836 -0.0024,-10e-4 -0.0035,-0.004 -0.0059,-0.006 a 2.2031,0.75 0 0 0 -0.33203,-0.16211 c -0.22376,-0.10234 -0.44627,-0.18305 -0.63476,-0.18555 -0.02148,-2.7e-4 -0.03813,0.008 -0.05859,0.01 a 2.2031,0.75 0 0 0 -0.93945,-0.0723 z m 10.637,-0.10352 a 1.4997,0.7292 0 0 0 -0.98438,0.18165 c -0.6776,0.19016 -1.8844,1.3263 -1.7949,1.9121 0.10276,0.6725 0.70296,0.37994 0.78516,-0.11329 h 0.002 c 0.97795,0.0354 0.96392,1.1741 1.9121,1.3828 1.4297,0.31535 1.6142,-2.2203 2.748,-0.66407 h 0.35938 c 0.89998,-1.4309 -0.89823,-2.4689 -2.2969,-2.6055 a 1.4997,0.7292 0 0 0 -0.73047,-0.0938 z m -8.9551,-2.0801 c -1.697,-0.0658 -3.7007,0.4584 -4.7422,0.86523 -0.65445,0.25511 -1.6236,1.2609 -0.72852,1.7598 0.99842,-1.4854 3.7958,-1.6408 5.375,-1.4531 0.58996,0.0709 1.4168,0.0572 1.8516,0.53516 0.80964,0.88937 0.64014,2.5819 0.89844,3.668 h 0.24024 c 0.15944,-0.54497 0.12109,-1.1064 0.12109,-1.6719 0,-0.87556 0.0423,-2.0783 -0.56641,-2.7969 -0.52259,-0.61534 -1.431,-0.86676 -2.4492,-0.90625 z"
         id="path13436" />
      <path
         d="m 86.512,782.44 c 0.02127,0.0275 0.04624,0.0488 0.06641,0.0781 0.20639,0.30008 0.99948,2.92 1.0781,3.2617 0.23175,1.0062 0.19024,2.0051 0.25195,3.0234 0.18165,2.9912 -0.34445,5.9726 -1.3184,8.8106 -0.28936,0.84319 -0.67814,1.8368 -1.1823,2.574 -0.18598,0.27213 -0.55781,0.66402 -0.45843,1.0204 0.13393,0.48031 0.7402,0.51124 1.1404,0.65379 1.0886,0.3874 2.5104,0.23965 3.6214,0.15609 0.61614,-0.0536 1.228,6e-5 1.832,-0.17578 1.7427,-0.50938 3.0604,-2.72 3.1934,-4.4473 0.04975,-0.64673 -0.39738,-1.6272 -0.16016,-2.2148 0.20253,-0.50173 0.86162,-0.63963 1.25,-0.95508 0.70927,-0.57633 1.2641,-1.3491 1.5469,-2.2227 0.42469,-1.3123 0.0065,-2.6236 -0.58008,-3.8887 -0.51256,-1.1055 -2.2715,-3.6112 -3.3984,-3.957 -0.40783,-0.17832 -0.95619,-0.51332 -0.92351,-0.77759 -2.1797,-0.40713 -3.7659,-0.72952 -5.9593,-0.93921 z m 4.5723,1.6211 c 0.14434,0.0502 0.23892,0.24384 0.32031,0.36133 0.29269,0.42199 0.52426,0.87263 0.83203,1.2852 1.073,1.4379 2.4642,3.1422 2.7324,4.9805 0.06802,0.4662 -0.06984,1.0408 -0.20508,1.4863 -0.04385,0.14403 -0.12467,0.40491 -0.28516,0.46094 -0.22143,0.0778 -0.27949,-0.2043 -0.28516,-0.35743 -0.02098,-0.56702 0.03122,-1.067 -0.11914,-1.6211 -0.52423,-1.9329 -1.7558,-3.2753 -2.7988,-4.918 -0.19306,-0.30415 -1.0407,-1.4112 -0.35352,-1.6719 0.06023,-0.023 0.114,-0.0226 0.16211,-0.006 z m 2.1152,0.58593 c 0.16415,-0.0389 0.28325,0.19378 0.36328,0.29883 0.25565,0.33585 0.49428,0.66936 0.72266,1.0234 0.90396,1.4018 2.3112,2.8754 2.4199,4.627 0.06543,1.0531 -0.60528,2.3342 -1.4277,2.9629 -0.4037,0.3086 -1.2188,0.62203 -1.4785,1.0566 -0.17404,0.29125 -0.04145,0.75387 -0.03125,1.0742 0.02085,0.65982 -0.03719,1.313 -0.125,1.9668 -0.32617,2.4263 -2.3725,3.6211 -4.6465,3.6621 -0.39471,0.007 -0.72145,-0.15239 -1.1035,-0.19727 -0.28855,-0.0334 -0.57538,0.0492 -0.86523,0.0312 -0.1804,-0.008 -0.49547,-0.0134 -0.49024,-0.26562 0.0086,-0.41291 1.0114,-0.41811 1.2969,-0.44141 1.3747,-0.11956 2.6274,0.34483 3.8613,-0.59179 1.1104,-0.84265 1.3745,-2.4793 1.4004,-3.7793 0.0109,-0.5464 -0.13278,-1.2982 0.11914,-1.8047 0.25232,-0.50731 0.73919,-0.66336 1.1758,-0.94141 0.54938,-0.34992 1.0821,-0.89739 1.3359,-1.5039 0.83079,-1.9856 -0.89086,-4.0177 -2.0273,-5.5312 -0.24653,-0.3283 -0.67777,-0.70804 -0.72461,-1.1348 -0.01763,-0.16888 0.01912,-0.46365 0.22461,-0.51172 z m -3.9336,0.0625 c 0.46137,0.10024 1.0478,0.87704 1.2617,1.1562 1.0021,1.308 2.4348,3.1744 2.6035,4.8789 0.05955,0.59467 0.05481,1.1627 -0.21484,1.7051 -0.09205,0.18521 -0.17673,0.44051 -0.4082,0.49023 -0.2369,0.0513 -0.29341,-0.19752 -0.28906,-0.37695 0.01427,-0.58737 0.21756,-1.1003 0.06836,-1.6914 -0.43827,-1.7364 -1.5901,-3.2795 -2.6055,-4.7188 -0.15941,-0.22604 -1.3587,-1.2294 -0.60352,-1.4414 0.05938,-0.0167 0.12159,-0.0163 0.1875,-0.002 z m -0.30859,1.9629 c 0.31384,0.0332 0.47493,0.51507 0.64453,0.73828 0.62347,0.82047 1.0556,1.8228 1.2891,2.8242 0.07052,0.3031 0.20619,1.1551 -0.25195,1.2441 -0.41629,0.0808 -0.4162,-0.8205 -0.46289,-1.0742 -0.24045,-1.3063 -0.91948,-2.1715 -1.5742,-3.2871 -0.11794,-0.20099 8.9e-4,-0.36597 0.21094,-0.42969 0.05148,-0.0157 0.0997,-0.0204 0.14453,-0.0156 z m -0.21875,6.5254 c 0.17925,0.0457 0.24455,0.31482 0.23828,0.51171 -0.01858,0.57909 -0.30202,1.1536 -0.41016,1.7207 -0.03816,0.19947 -0.09157,0.49109 -0.30664,0.57422 -0.29214,0.11325 -0.51716,-0.18105 -0.50391,-0.44922 0.027,-0.54733 0.40725,-1.1913 0.54492,-1.7324 0.0458,-0.18008 0.03119,-0.48648 0.21875,-0.58399 0.08664,-0.0453 0.159,-0.0562 0.21875,-0.041 z m 1.3535,0.86914 c 0.37574,0.0528 0.19532,0.8108 0.125,1.0566 -0.24554,0.85831 -0.74792,2.4171 -1.8047,2.5879 -0.23155,0.0372 -0.3096,-0.15069 -0.23047,-0.34571 0.12573,-0.31 0.45342,-0.53468 0.63476,-0.8164 0.33617,-0.52199 0.49674,-1.0589 0.69727,-1.6367 0.08069,-0.23256 0.10447,-0.7331 0.38086,-0.82031 0.07829,-0.0247 0.14359,-0.0329 0.19727,-0.0254 z m 1.3984,0.16601 c 0.15544,0.0382 0.27103,0.21821 0.2793,0.375 0.02185,0.42751 -0.22794,0.90262 -0.38867,1.2852 -0.61284,1.4585 -1.3581,2.8199 -3.0098,3.2266 -0.22515,0.0551 -0.62494,0.14691 -0.84961,0.0586 -0.2033,-0.0731 -0.26256,-0.4169 -0.0957,-0.55468 0.20959,-0.17323 0.76402,-0.19661 1.0371,-0.30664 0.62908,-0.25225 1.2338,-0.77314 1.5977,-1.3379 0.41403,-0.64279 0.6733,-1.2658 0.92773,-1.9824 0.0708,-0.19936 0.12059,-0.66151 0.33594,-0.7539 v 0.006 c 0.0582,-0.0251 0.1142,-0.0284 0.16602,-0.0156 z m 0.42383,2.502 c 0.56435,-0.10606 0.08668,0.96586 -0.0078,1.1699 -0.42688,0.91753 -1.141,1.9856 -2.2734,1.9902 -0.20689,10e-4 -0.50811,-0.1747 -0.36133,-0.42383 0.14214,-0.24117 0.83801,-0.39948 1.0879,-0.58008 0.4951,-0.35785 0.78748,-0.94842 1.0469,-1.4844 0.11558,-0.23886 0.20434,-0.61451 0.50781,-0.67187 z m -23.953,-13.785 c -1.4024,0.21074 -2.7991,0.46105 -4.1895,0.75 -0.04963,0.37949 -0.24071,0.0979 -0.45736,0.014 -0.35394,-0.13714 -3.3614,2.0395 -3.6403,2.654 -1.5697,1.8776 -2.7573,4.2532 -1.4629,6.6113 0.38683,0.7047 1.2197,1.0998 1.7422,1.6797 0.09748,0.10746 0.33638,0.2095 0.38281,0.34766 0.05695,0.16931 -0.34665,0.43191 -0.39063,0.63086 -0.11389,0.51529 -0.13785,1.3802 -0.04492,1.8965 0.29285,1.6283 1.6635,3.2329 3.2695,3.7109 0.44771,0.13355 0.94412,0.0801 1.4062,0.0801 0.54347,0 1.1212,0.027 1.627,-0.21289 0.61262,-0.28995 0.85958,-1.0544 1.4629,-1.3301 0.0614,-0.0282 0.14022,-0.0407 0.22266,-0.0488 l 0.4707,1.082 1.125,-0.49218 -0.19783,-0.41402 -0.87332,-1.4934 c -0.03795,-0.091 -0.10147,-0.20684 -0.16716,-0.34051 -0.3907,-0.79528 -0.66701,-1.6344 -0.87695,-2.4922 -0.57097,-2.3324 -0.26031,-4.7381 -0.52344,-7.0938 -0.03562,-0.31883 -0.31719,-0.51506 -0.41992,-0.81055 -0.17648,-0.50762 -0.1296,-1.5491 0.0293,-2.0586 0.21442,-0.68714 0.79283,-1.6911 1.5059,-2.6699 z m -3.5488,2.0762 c 0.47528,0.0936 0.0047,1.1411 -0.07617,1.4023 -0.44691,1.4454 -1.885,2.3508 -2.168,3.8438 -0.09287,0.48998 0.23698,0.88826 0.28711,1.3535 0.02044,0.18942 -0.0095,0.47585 -0.26172,0.45898 -0.67743,-0.0461 -0.75799,-0.99174 -0.75781,-1.4863 6.05e-4,-1.7744 1.2898,-2.6508 2.1133,-4.0625 0.17697,-0.30347 0.4219,-1.5964 0.86328,-1.5098 z m -2.7051,1.1758 c 0.42309,-0.0521 0.31481,0.55336 0.21484,0.77149 -0.6052,1.3209 -1.322,2.3922 -1.0664,3.9004 0.03641,0.21506 0.17569,1.2344 -0.18359,1.2344 -0.57407,0 -0.67876,-1.1214 -0.72852,-1.5039 -0.16036,-1.2328 0.28684,-2.4488 0.95703,-3.4668 0.16912,-0.25697 0.46895,-0.89379 0.80664,-0.93555 z m 3.5742,0.2461 c 0.04711,-0.0111 0.0986,-0.0113 0.1582,0 0.2948,0.0569 0.27043,0.41986 0.2207,0.63476 -0.21844,0.94542 0.07989,1.9369 0.20117,2.8711 0.02765,0.21308 0.20378,0.88145 -0.20117,0.83985 -0.31607,-0.0322 -0.41764,-0.54475 -0.50391,-0.78711 -0.31954,-0.89799 -0.27708,-1.7213 -0.25391,-2.6523 0.0067,-0.25963 0.04913,-0.82873 0.37891,-0.90625 z m -1.4082,2.5605 c 0.28776,-0.0844 0.48691,0.19862 0.48242,0.45313 -0.0077,0.45834 -0.31601,0.8003 -0.25586,1.2969 0.11268,0.92897 0.99032,1.3728 1.4375,2.1133 0.13738,0.22747 0.40726,0.83918 0.04687,1.0117 -0.33136,0.15872 -0.96204,-0.69201 -1.1465,-0.90429 -0.7742,-0.89138 -1.722,-1.9932 -1.1406,-3.248 0.12188,-0.2631 0.26594,-0.63118 0.57618,-0.72266 z m -4.875,0.0156 c 0.26728,-0.0521 0.33357,0.24871 0.29297,0.44336 -0.28504,1.3675 0.006,2.591 0.93164,3.6543 0.12632,0.14581 0.21374,0.48985 -0.03906,0.56446 -0.39289,0.11511 -0.76774,-0.40035 -0.98438,-0.63672 -0.67758,-0.73926 -1.1248,-2.2298 -0.75,-3.2051 0.10591,-0.27568 0.19452,-0.75217 0.54883,-0.82031 z m 3.5586,3.4199 c 0.4375,0.0476 0.73022,0.66304 0.97656,0.96484 0.94056,1.1518 1.3925,2.567 2.4941,3.5801 0.18693,0.17193 0.25624,0.55935 -0.04687,0.66602 -0.32118,0.11359 -1.0104,-0.24659 -1.1836,-0.50586 -0.75416,-1.129 -1.2425,-2.4128 -2.0625,-3.5195 -0.17642,-0.23808 -1.0334,-0.98545 -0.375,-1.168 0.0687,-0.019 0.13476,-0.0244 0.19727,-0.0176 z m -0.89844,1.2109 c 0.34374,-0.0814 0.69365,0.40353 0.78906,0.67968 0.31635,0.91624 0.25171,2.0155 0.72461,2.8691 0.31311,0.56521 0.92773,1.1801 1.6211,1.0274 0.27736,-0.0614 0.62724,-0.44633 0.91406,-0.3418 0.61982,0.22611 -0.29624,0.91344 -0.53516,1 -2.1978,0.79605 -2.9196,-1.8664 -3.1562,-3.418 -0.07418,-0.4863 -0.47861,-0.83246 -0.56055,-1.3008 -0.0332,-0.18944 -0.02577,-0.46127 0.20312,-0.51562 z m -0.64453,1.3613 c 0.23459,-0.0767 0.38833,0.2776 0.41211,0.44922 0.07933,0.57285 -0.18343,1.1715 0.0078,1.7324 0.34218,1.0028 0.93971,2.3027 2.0605,2.623 0.62078,0.1773 1.3377,-0.0228 1.9414,0.15625 0.24269,0.072 0.17336,0.39918 -0.0059,0.50586 -0.29617,0.17683 -0.79392,0.12695 -1.125,0.12696 -1.8525,0 -3.1861,-1.4377 -3.5723,-3.1953 -0.13001,-0.59159 0.0043,-1.1938 0.05273,-1.7871 0.01382,-0.16899 0.02626,-0.54367 0.22656,-0.60937 l 0.002,-0.002 z"
         id="path13438" />
    </g>
  </g>
</svg>
