<?xml version="1.0" encoding="UTF-8" standalone="no"?>
<svg
   width="42.999779mm"
   height="87.997726mm"
   enable-background="new"
   version="1.1"
   viewBox="0 0 152.36255 311.802"
   id="svg20076"
   sodipodi:docname="Mazzo.svg"
   inkscape:version="1.2.1 (9c6d41e410, 2022-07-14)"
   xmlns:inkscape="http://www.inkscape.org/namespaces/inkscape"
   xmlns:sodipodi="http://sodipodi.sourceforge.net/DTD/sodipodi-0.dtd"
   xmlns="http://www.w3.org/2000/svg"
   xmlns:svg="http://www.w3.org/2000/svg"
   xmlns:rdf="http://www.w3.org/1999/02/22-rdf-syntax-ns#"
   xmlns:cc="http://creativecommons.org/ns#"
   xmlns:dc="http://purl.org/dc/elements/1.1/">
  <sodipodi:namedview
     id="namedview20078"
     pagecolor="#ffffff"
     bordercolor="#000000"
     borderopacity="0.25"
     inkscape:showpageshadow="2"
     inkscape:pageopacity="0.0"
     inkscape:pagecheckerboard="0"
     inkscape:deskcolor="#d1d1d1"
     inkscape:document-units="mm"
     showgrid="false"
     inkscape:zoom="8"
     inkscape:cx="81.25"
     inkscape:cy="148.1875"
     inkscape:window-width="2560"
     inkscape:window-height="1409"
     inkscape:window-x="0"
     inkscape:window-y="31"
     inkscape:window-maximized="1"
     inkscape:current-layer="svg20076" />
  <title
     id="title2">Bresciane</title>
  <defs
     id="defs191" />
  <metadata
     id="metadata193">
    <rdf:RDF>
      <cc:Work
         rdf:about="">
        <dc:format>image/svg+xml</dc:format>
        <dc:type
           rdf:resource="http://purl.org/dc/dcmitype/StillImage" />
        <dc:title>Bresciane</dc:title>
        <dc:date>2020</dc:date>
        <dc:creator>
          <cc:Agent>
            <dc:title>ZZandro</dc:title>
          </cc:Agent>
        </dc:creator>
        <dc:rights>
          <cc:Agent>
            <dc:title />
          </cc:Agent>
        </dc:rights>
        <cc:license
           rdf:resource="http://creativecommons.org/licenses/by-sa/4.0/" />
      </cc:Work>
      <cc:License
         rdf:about="http://creativecommons.org/licenses/by-sa/4.0/">
        <cc:permits
           rdf:resource="http://creativecommons.org/ns#Reproduction" />
        <cc:permits
           rdf:resource="http://creativecommons.org/ns#Distribution" />
        <cc:requires
           rdf:resource="http://creativecommons.org/ns#Notice" />
        <cc:requires
           rdf:resource="http://creativecommons.org/ns#Attribution" />
        <cc:permits
           rdf:resource="http://creativecommons.org/ns#DerivativeWorks" />
        <cc:requires
           rdf:resource="http://creativecommons.org/ns#ShareAlike" />
      </cc:License>
    </rdf:RDF>
  </metadata>
  <g
     transform="translate(-641.32849,-843.33398)"
     id="g19370"
     style="display:inline">
    <g
       transform="matrix(0.97008,0,0,0.9964,-324.59,-904.17)"
       enable-background="new"
       fill="#f4f2ef"
       id="g19228">
      <g
         transform="matrix(0.70046,0,0,1.0004,298.31,-0.79223)"
         fill="#f4f2ef"
         id="g19226">
        <rect
           x="996.13"
           y="1754.4"
           width="223.23"
           height="311.81"
           rx="10.63"
           ry="10.63"
           fill="#f4f2ef"
           stroke="#000000"
           stroke-width="0.99673"
           id="rect19224" />
      </g>
    </g>
    <g
       transform="matrix(0.76704,0,0,0.8945,-106.47,-709.5)"
       enable-background="new"
       fill="none"
       id="g19234">
      <g
         transform="matrix(0.70046,0,0,1.0004,298.31,-0.79223)"
         fill="none"
         id="g19232">
        <rect
           x="996.13"
           y="1754.4"
           width="223.23"
           height="311.81"
           rx="10.63"
           ry="10.63"
           fill="none"
           stroke="#000000"
           stroke-width="0.99673"
           id="rect19230" />
      </g>
    </g>
    <circle
       cx="717.52002"
       cy="999.21002"
       r="23.563"
       enable-background="new"
       id="circle19236" />
    <path
       d="m 683.42,965.12 3.8074,16.609 11.226,-1.5764 z"
       enable-background="new"
       fill-rule="evenodd"
       stroke="#000000"
       stroke-linecap="round"
       stroke-linejoin="round"
       stroke-width="0.99921"
       id="path19238" />
    <path
       d="m 705.04,952.64 12.48,11.602 -6.978,8.9334 -5.5024,-20.535"
       enable-background="new"
       fill="#e9c13a"
       fill-rule="evenodd"
       stroke="#000000"
       stroke-linecap="round"
       stroke-linejoin="round"
       stroke-width="1px"
       id="path19240" />
    <path
       d="m 710.54,973.17 6.978,-32.808 v 31.89 l -6.978,0.91867"
       enable-background="new"
       fill-rule="evenodd"
       stroke="#000000"
       stroke-linecap="round"
       stroke-linejoin="round"
       stroke-width="1px"
       id="path19242" />
    <path
       d="m 724.5,973.17 -6.978,-8.9334 12.48,-11.602 -5.5024,20.535"
       enable-background="new"
       fill-rule="evenodd"
       stroke="#000000"
       stroke-linecap="round"
       stroke-linejoin="round"
       stroke-width="1px"
       id="path19244" />
    <path
       d="m 730,952.64 5.0074,16.288 -10.51,4.2476 5.5024,-20.535"
       enable-background="new"
       fill="#e9c13a"
       fill-rule="evenodd"
       stroke="#000000"
       stroke-linecap="round"
       stroke-linejoin="round"
       stroke-width="0.99921"
       id="path19246" />
    <path
       d="m 724.5,973.17 22.447,-24.924 -15.945,27.617 -6.5025,-2.6934"
       enable-background="new"
       fill-rule="evenodd"
       stroke="#000000"
       stroke-width="1px"
       id="path19248" />
    <path
       d="m 751.62,965.12 -3.8074,16.609 -11.226,-1.5764 z"
       enable-background="new"
       fill="#e9c13a"
       fill-rule="evenodd"
       stroke="#000000"
       stroke-linecap="round"
       stroke-linejoin="round"
       stroke-width="1px"
       id="path19250" />
    <path
       d="m 736.58,980.15 31.902,-10.361 -27.617,15.945 z"
       enable-background="new"
       fill-rule="evenodd"
       stroke="#000000"
       stroke-width="1px"
       id="path19252" />
    <path
       d="m 764.1,986.73 -11.602,12.48 -8.9334,-6.978 20.535,-5.5024"
       enable-background="new"
       fill="#e9c13a"
       fill-rule="evenodd"
       stroke="#000000"
       stroke-linecap="round"
       stroke-linejoin="round"
       stroke-width="1px"
       id="path19254" />
    <path
       d="m 776.37,999.21 -32.808,-6.978 0.91867,6.978 z"
       enable-background="new"
       fill-rule="evenodd"
       stroke="#000000"
       stroke-linecap="round"
       stroke-linejoin="round"
       stroke-width="1px"
       id="path19256" />
    <path
       d="m 764.1,1011.7 -16.288,5.0074 -4.2476,-10.51 z"
       enable-background="new"
       fill="#e9c13a"
       fill-rule="evenodd"
       stroke="#000000"
       stroke-linecap="round"
       stroke-linejoin="round"
       stroke-width="1px"
       id="path19258" />
    <path
       d="m 768.49,1028.6 -24.924,-22.447 -2.6934,6.5025 27.617,15.945"
       enable-background="new"
       fill-rule="evenodd"
       stroke="#000000"
       stroke-linecap="round"
       stroke-linejoin="round"
       stroke-width="1px"
       id="path19260" />
    <path
       d="m 736.58,1018.3 -1.5764,11.226 16.609,3.8074 -15.033,-15.033"
       enable-background="new"
       fill="#e9c13a"
       fill-rule="evenodd"
       stroke="#000000"
       stroke-linecap="round"
       stroke-linejoin="round"
       stroke-width="1px"
       id="path19262" />
    <path
       d="m 746.95,1050.2 -10.361,-31.902 -5.5838,4.2846 15.945,27.617"
       enable-background="new"
       fill-rule="evenodd"
       stroke="#000000"
       stroke-linecap="round"
       stroke-linejoin="round"
       stroke-width="1px"
       id="path19264" />
    <path
       d="m 724.5,1025.3 5.5024,20.535 -12.48,-11.602 6.978,-8.9334"
       enable-background="new"
       fill="#e9c13a"
       fill-rule="evenodd"
       stroke="#000000"
       stroke-linecap="round"
       stroke-linejoin="round"
       stroke-width="1px"
       id="path19266" />
    <path
       d="m 717.52,1058.1 v -31.89 l 6.978,-0.9186 -6.978,32.808"
       enable-background="new"
       fill-rule="evenodd"
       stroke="#000000"
       stroke-linecap="round"
       stroke-linejoin="round"
       stroke-width="1px"
       id="path19268" />
    <path
       d="m 710.54,1025.3 -10.51,4.2475 5.0075,16.288 5.5024,-20.535"
       enable-background="new"
       fill="#e9c13a"
       fill-rule="evenodd"
       stroke="#000000"
       stroke-linecap="round"
       stroke-linejoin="round"
       stroke-width="1px"
       id="path19270" />
    <path
       d="m 688.09,1050.2 15.945,-27.617 6.5025,2.6935 z"
       enable-background="new"
       fill-rule="evenodd"
       stroke="#000000"
       stroke-linecap="round"
       stroke-linejoin="round"
       stroke-width="1px"
       id="path19272" />
    <path
       d="m 698.46,1018.3 -15.033,15.033 3.8074,-16.609 11.226,1.5764"
       enable-background="new"
       fill="#e9c13a"
       fill-rule="evenodd"
       stroke="#000000"
       stroke-linecap="round"
       stroke-linejoin="round"
       stroke-width="1px"
       id="path19274" />
    <path
       d="m 666.55,1028.6 27.617,-15.945 4.2846,5.5838 -31.902,10.361"
       enable-background="new"
       fill-rule="evenodd"
       stroke="#000000"
       stroke-linecap="round"
       stroke-linejoin="round"
       stroke-width="1px"
       id="path19276" />
    <path
       d="m 691.48,1006.2 -20.535,5.5025 11.602,-12.48 8.9334,6.978"
       enable-background="new"
       fill="#e9c13a"
       fill-rule="evenodd"
       stroke="#000000"
       stroke-linecap="round"
       stroke-linejoin="round"
       stroke-width="1px"
       id="path19278" />
    <path
       d="m 658.67,999.21 h 31.89 l 0.91867,6.978 -32.808,-6.978"
       enable-background="new"
       fill-rule="evenodd"
       stroke="#000000"
       stroke-linecap="round"
       stroke-linejoin="round"
       stroke-width="1px"
       id="path19280" />
    <path
       d="m 670.94,986.73 16.288,-5.0074 4.2476,10.51 -20.535,-5.5025"
       enable-background="new"
       fill="#e9c13a"
       fill-rule="evenodd"
       stroke="#000000"
       stroke-linecap="round"
       stroke-linejoin="round"
       stroke-width="1px"
       id="path19282" />
    <path
       d="m 666.55,969.79 24.924,22.447 2.6934,-6.5025 z"
       enable-background="new"
       fill-rule="evenodd"
       stroke="#000000"
       stroke-linecap="round"
       stroke-linejoin="round"
       stroke-width="1px"
       id="path19284" />
    <path
       d="m 700.03,968.92 5.0074,-16.288 5.5024,20.535 -10.51,-4.2476"
       enable-background="new"
       fill-rule="evenodd"
       stroke="#000000"
       stroke-linecap="round"
       stroke-linejoin="round"
       stroke-width="1px"
       id="path19286" />
    <path
       d="m 683.42,965.12 16.609,3.8074 -1.5764,11.226 z"
       enable-background="new"
       fill="#e9c13a"
       fill-rule="evenodd"
       stroke="#000000"
       stroke-linecap="round"
       stroke-linejoin="round"
       stroke-width="0.99921"
       id="path19288" />
    <path
       d="m 688.09,948.25 10.361,31.902 5.5838,-4.2846 -15.945,-27.617"
       enable-background="new"
       fill-rule="evenodd"
       stroke="#000000"
       stroke-linecap="round"
       stroke-linejoin="round"
       stroke-width="1px"
       id="path19290" />
    <path
       d="m 717.52,940.36 6.978,32.808 -6.978,-0.91867 z"
       enable-background="new"
       fill="#dd1d1d"
       fill-rule="evenodd"
       stroke="#000000"
       stroke-linecap="round"
       stroke-linejoin="round"
       stroke-width="1px"
       id="path19292" />
    <path
       d="m 751.62,965.12 -16.609,3.8074 1.5764,11.226 15.033,-15.033"
       enable-background="new"
       fill-rule="evenodd"
       stroke="#000000"
       stroke-linecap="round"
       stroke-linejoin="round"
       stroke-width="1px"
       id="path19294" />
    <path
       d="m 746.95,948.25 -10.361,31.902 -5.5838,-4.2846 15.945,-27.617"
       enable-background="new"
       fill="#1780ce"
       fill-rule="evenodd"
       stroke="#000000"
       stroke-linecap="round"
       stroke-linejoin="round"
       stroke-width="1px"
       id="path19296" />
    <path
       d="m 764.1,986.73 -16.288,-5.0074 -4.2476,10.51 20.535,-5.5024"
       enable-background="new"
       fill-rule="evenodd"
       stroke="#000000"
       stroke-linecap="round"
       stroke-linejoin="round"
       stroke-width="1px"
       id="path19298" />
    <path
       d="m 768.49,969.79 -24.924,22.447 -2.6934,-6.5025 27.617,-15.945"
       enable-background="new"
       fill="#dd1d1d"
       fill-rule="evenodd"
       stroke="#000000"
       stroke-linecap="round"
       stroke-linejoin="round"
       stroke-width="1px"
       id="path19300" />
    <path
       d="m 764.1,1011.7 -11.602,-12.48 -8.9334,6.978 z"
       enable-background="new"
       fill-rule="evenodd"
       stroke="#000000"
       stroke-linecap="round"
       stroke-linejoin="round"
       stroke-width="1px"
       id="path19302" />
    <path
       d="m 744.48,999.21 h 31.89 l -32.808,6.978 z"
       enable-background="new"
       fill="#1780ce"
       fill-rule="evenodd"
       stroke="#000000"
       stroke-linecap="round"
       stroke-linejoin="round"
       stroke-width="1px"
       id="path19304" />
    <path
       d="m 724.5,1025.3 5.5024,20.535 5.0074,-16.288 -10.51,-4.2475"
       enable-background="new"
       fill-rule="evenodd"
       stroke="#000000"
       stroke-linecap="round"
       stroke-linejoin="round"
       stroke-width="1px"
       id="path19306" />
    <path
       d="m 746.95,1050.2 -22.447,-24.924 6.5025,-2.6935 z"
       enable-background="new"
       fill="#1780ce"
       fill-rule="evenodd"
       stroke="#000000"
       stroke-linecap="round"
       stroke-linejoin="round"
       stroke-width="1px"
       id="path19308" />
    <path
       d="m 698.46,1018.3 -15.033,15.033 16.609,-3.8074 -1.5764,-11.226"
       enable-background="new"
       fill-rule="evenodd"
       stroke="#000000"
       stroke-linecap="round"
       stroke-linejoin="round"
       stroke-width="1px"
       id="path19310" />
    <path
       d="m 698.46,1018.3 -10.361,31.902 15.945,-27.617 -5.5838,-4.2846"
       enable-background="new"
       fill="#1780ce"
       fill-rule="evenodd"
       stroke="#000000"
       stroke-linecap="round"
       stroke-linejoin="round"
       stroke-width="1px"
       id="path19312" />
    <path
       d="m 670.94,986.73 11.602,12.48 8.9334,-6.978 -20.535,-5.5025"
       enable-background="new"
       fill-rule="evenodd"
       stroke="#000000"
       stroke-linecap="round"
       stroke-linejoin="round"
       stroke-width="1px"
       id="path19314" />
    <path
       d="m 658.67,999.21 32.808,-6.978 -0.91867,6.978 h -31.89"
       enable-background="new"
       fill="#1780ce"
       fill-rule="evenodd"
       stroke="#000000"
       stroke-linecap="round"
       stroke-linejoin="round"
       stroke-width="1px"
       id="path19316" />
    <path
       d="m 688.09,948.25 15.945,27.617 6.5025,-2.6934 -22.447,-24.924"
       enable-background="new"
       fill="#1780ce"
       fill-rule="evenodd"
       stroke="#000000"
       stroke-linecap="round"
       stroke-linejoin="round"
       stroke-width="1px"
       id="path19318" />
    <path
       d="m 666.55,969.79 31.902,10.361 -4.2846,5.5838 -27.617,-15.945"
       enable-background="new"
       fill="#dd1d1d"
       fill-rule="evenodd"
       stroke="#000000"
       stroke-linecap="round"
       stroke-linejoin="round"
       stroke-width="1px"
       id="path19320" />
    <path
       d="m 751.62,1033.3 -3.8074,-16.609 -11.226,1.5764 z"
       enable-background="new"
       fill-rule="evenodd"
       stroke="#000000"
       stroke-linecap="round"
       stroke-linejoin="round"
       stroke-width="1px"
       id="path19322" />
    <path
       d="m 768.49,1028.6 -31.902,-10.361 4.2846,-5.5838 27.617,15.945"
       enable-background="new"
       fill="#dd1d1d"
       fill-rule="evenodd"
       stroke="#000000"
       stroke-linecap="round"
       stroke-linejoin="round"
       stroke-width="1px"
       id="path19324" />
    <path
       d="m 710.54,1025.3 -5.5024,20.535 12.48,-11.602 -6.978,-8.9334"
       enable-background="new"
       fill-rule="evenodd"
       stroke="#000000"
       stroke-linecap="round"
       stroke-linejoin="round"
       stroke-width="1px"
       id="path19326" />
    <path
       d="m 710.54,1025.3 6.978,32.808 v -31.89 l -6.978,-0.9186"
       enable-background="new"
       fill="#dd1d1d"
       fill-rule="evenodd"
       stroke="#000000"
       stroke-linecap="round"
       stroke-linejoin="round"
       stroke-width="1px"
       id="path19328" />
    <path
       d="m 670.94,1011.7 16.288,5.0074 4.2476,-10.51 -20.535,5.5025"
       enable-background="new"
       fill-rule="evenodd"
       stroke="#000000"
       stroke-linecap="round"
       stroke-linejoin="round"
       stroke-width="1px"
       id="path19330" />
    <path
       d="m 691.48,1006.2 -24.924,22.447 27.617,-15.945 -2.6934,-6.5025"
       enable-background="new"
       fill="#dd1d1d"
       fill-rule="evenodd"
       stroke="#000000"
       stroke-linecap="round"
       stroke-linejoin="round"
       stroke-width="1px"
       id="path19332" />
    <circle
       cx="717.52002"
       cy="999.21002"
       enable-background="new"
       fill="none"
       stroke="#000000"
       stroke-linecap="round"
       stroke-linejoin="round"
       stroke-width="0.99921"
       id="ellipse19334"
       r="26.075001" />
    <g
       transform="translate(-1520.1,954.92)"
       enable-background="new"
       id="g19342">
      <circle
         cx="2205.7"
         cy="-54.921001"
         r="24.802999"
         id="circle19336" />
      <path
         d="m 2192,-68.419 8.0825,0.2114 5.4756,-5.949 5.5657,5.8647 8.0784,-0.33476 -0.2114,8.0825 5.9489,5.4756 -5.8647,5.5657 0.3348,8.0784 -8.0825,-0.2114 -5.4756,5.949 -5.5657,-5.8647 -8.0784,0.33476 0.2114,-8.0825 -5.9489,-5.4756 5.8646,-5.5657 z"
         fill="none"
         stroke="#dd1d1d"
         stroke-linejoin="round"
         stroke-width="2.8346"
         id="path19338" />
      <circle
         cx="2205.7"
         cy="-54.921001"
         fill="none"
         stroke="#f4f2ef"
         stroke-linejoin="round"
         stroke-width="1.7717"
         id="ellipse19340"
         r="23.031" />
    </g>
    <g
       transform="translate(-1456.3,954.92)"
       enable-background="new"
       id="g19350">
      <circle
         cx="2205.7"
         cy="-54.921001"
         r="24.802999"
         id="circle19344" />
      <path
         d="m 2192,-68.419 8.0825,0.2114 5.4756,-5.949 5.5657,5.8647 8.0784,-0.33476 -0.2114,8.0825 5.9489,5.4756 -5.8647,5.5657 0.3348,8.0784 -8.0825,-0.2114 -5.4756,5.949 -5.5657,-5.8647 -8.0784,0.33476 0.2114,-8.0825 -5.9489,-5.4756 5.8646,-5.5657 z"
         fill="none"
         stroke="#dd1d1d"
         stroke-linejoin="round"
         stroke-width="2.8346"
         id="path19346" />
      <circle
         cx="2205.7"
         cy="-54.921001"
         fill="none"
         stroke="#f4f2ef"
         stroke-linejoin="round"
         stroke-width="1.7717"
         id="ellipse19348"
         r="23.031" />
    </g>
    <g
       transform="translate(-1520.1,1153.3)"
       enable-background="new"
       id="g19358">
      <circle
         cx="2205.7"
         cy="-54.921001"
         r="24.802999"
         id="circle19352" />
      <path
         d="m 2192,-68.419 8.0825,0.2114 5.4756,-5.949 5.5657,5.8647 8.0784,-0.33476 -0.2114,8.0825 5.9489,5.4756 -5.8647,5.5657 0.3348,8.0784 -8.0825,-0.2114 -5.4756,5.949 -5.5657,-5.8647 -8.0784,0.33476 0.2114,-8.0825 -5.9489,-5.4756 5.8646,-5.5657 z"
         fill="none"
         stroke="#dd1d1d"
         stroke-linejoin="round"
         stroke-width="2.8346"
         id="path19354" />
      <circle
         cx="2205.7"
         cy="-54.921001"
         fill="none"
         stroke="#f4f2ef"
         stroke-linejoin="round"
         stroke-width="1.7717"
         id="ellipse19356"
         r="23.031" />
    </g>
    <g
       transform="translate(-1456.3,1153.3)"
       enable-background="new"
       id="g19366">
      <circle
         cx="2205.7"
         cy="-54.921001"
         r="24.802999"
         id="circle19360" />
      <path
         d="m 2192,-68.419 8.0825,0.2114 5.4756,-5.949 5.5657,5.8647 8.0784,-0.33476 -0.2114,8.0825 5.9489,5.4756 -5.8647,5.5657 0.3348,8.0784 -8.0825,-0.2114 -5.4756,5.949 -5.5657,-5.8647 -8.0784,0.33476 0.2114,-8.0825 -5.9489,-5.4756 5.8646,-5.5657 z"
         fill="none"
         stroke="#dd1d1d"
         stroke-linejoin="round"
         stroke-width="2.8346"
         id="path19362" />
      <circle
         cx="2205.7"
         cy="-54.921001"
         fill="none"
         stroke="#f4f2ef"
         stroke-linejoin="round"
         stroke-width="1.7717"
         id="ellipse19364"
         r="23.031" />
    </g>
    <path
       d="m 703.81,985.68 8.0825,0.2114 5.4756,-5.949 5.5657,5.8647 8.0784,-0.33477 -0.2114,8.0825 5.949,5.4756 -5.8647,5.56567 0.33477,8.0784 -8.0825,-0.2114 -5.4756,5.949 -5.5657,-5.8647 -8.0784,0.3347 0.2114,-8.0825 -5.949,-5.47547 5.8647,-5.5657 z"
       enable-background="new"
       stroke="#dd1d1d"
       stroke-linejoin="round"
       stroke-width="2.8346"
       id="path19368" />
  </g>
</svg>
