<?xml version="1.0" encoding="UTF-8" standalone="no"?>
<svg
   width="42.999786mm"
   height="87.997726mm"
   enable-background="new"
   version="1.1"
   viewBox="0 0 152.36258 311.802"
   id="svg20076"
   sodipodi:docname="Mazzo.svg"
   inkscape:version="1.2.1 (9c6d41e410, 2022-07-14)"
   xmlns:inkscape="http://www.inkscape.org/namespaces/inkscape"
   xmlns:sodipodi="http://sodipodi.sourceforge.net/DTD/sodipodi-0.dtd"
   xmlns="http://www.w3.org/2000/svg"
   xmlns:svg="http://www.w3.org/2000/svg"
   xmlns:rdf="http://www.w3.org/1999/02/22-rdf-syntax-ns#"
   xmlns:cc="http://creativecommons.org/ns#"
   xmlns:dc="http://purl.org/dc/elements/1.1/">
  <sodipodi:namedview
     id="namedview20078"
     pagecolor="#ffffff"
     bordercolor="#000000"
     borderopacity="0.25"
     inkscape:showpageshadow="2"
     inkscape:pageopacity="0.0"
     inkscape:pagecheckerboard="0"
     inkscape:deskcolor="#d1d1d1"
     inkscape:document-units="mm"
     showgrid="false"
     inkscape:zoom="8"
     inkscape:cx="81.25"
     inkscape:cy="148.1875"
     inkscape:window-width="2560"
     inkscape:window-height="1409"
     inkscape:window-x="0"
     inkscape:window-y="31"
     inkscape:window-maximized="1"
     inkscape:current-layer="svg20076" />
  <title
     id="title2">Bresciane</title>
  <defs
     id="defs191" />
  <metadata
     id="metadata193">
    <rdf:RDF>
      <cc:Work
         rdf:about="">
        <dc:format>image/svg+xml</dc:format>
        <dc:type
           rdf:resource="http://purl.org/dc/dcmitype/StillImage" />
        <dc:title>Bresciane</dc:title>
        <dc:date>2020</dc:date>
        <dc:creator>
          <cc:Agent>
            <dc:title>ZZandro</dc:title>
          </cc:Agent>
        </dc:creator>
        <dc:rights>
          <cc:Agent>
            <dc:title />
          </cc:Agent>
        </dc:rights>
        <cc:license
           rdf:resource="http://creativecommons.org/licenses/by-sa/4.0/" />
      </cc:Work>
      <cc:License
         rdf:about="http://creativecommons.org/licenses/by-sa/4.0/">
        <cc:permits
           rdf:resource="http://creativecommons.org/ns#Reproduction" />
        <cc:permits
           rdf:resource="http://creativecommons.org/ns#Distribution" />
        <cc:requires
           rdf:resource="http://creativecommons.org/ns#Notice" />
        <cc:requires
           rdf:resource="http://creativecommons.org/ns#Attribution" />
        <cc:permits
           rdf:resource="http://creativecommons.org/ns#DerivativeWorks" />
        <cc:requires
           rdf:resource="http://creativecommons.org/ns#ShareAlike" />
      </cc:License>
    </rdf:RDF>
  </metadata>
  <g
     transform="translate(-322.4285,-843.33398)"
     id="g19642"
     style="display:inline">
    <g
       transform="matrix(0.97008,0,0,0.9964,-643.49,-904.17)"
       enable-background="new"
       fill="#f4f2ef"
       id="g19554">
      <g
         transform="matrix(0.70046,0,0,1.0004,298.31,-0.79223)"
         fill="#f4f2ef"
         id="g19552">
        <rect
           x="996.13"
           y="1754.4"
           width="223.23"
           height="311.81"
           rx="10.63"
           ry="10.63"
           fill="#f4f2ef"
           stroke="#000000"
           stroke-width="0.99673"
           id="rect19550" />
      </g>
    </g>
    <g
       transform="matrix(0.76704,0,0,0.8945,-425.37,-709.5)"
       enable-background="new"
       fill="none"
       id="g19560">
      <g
         transform="matrix(0.70046,0,0,1.0004,298.31,-0.79223)"
         fill="none"
         id="g19558">
        <rect
           x="996.13"
           y="1754.4"
           width="223.23"
           height="311.81"
           rx="10.63"
           ry="10.63"
           fill="none"
           stroke="#000000"
           stroke-width="0.99673"
           id="rect19556" />
      </g>
    </g>
    <g
       transform="translate(322.44,102.72)"
       stroke="#000000"
       id="g19640">
      <g
         transform="translate(-322.44,-99.213)"
         enable-background="new"
         stroke-linecap="round"
         stroke-linejoin="round"
         id="g19578">
        <circle
           cx="398.62"
           cy="995.66998"
           r="38.477001"
           enable-background="new"
           stroke-width="0.99921"
           id="circle19562" />
        <circle
           cx="398.62"
           cy="995.66998"
           r="42.02"
           fill="none"
           stroke-width="0.99921"
           id="circle19564" />
        <circle
           cx="398.62"
           cy="995.66998"
           r="34.932999"
           enable-background="new"
           stroke-width="0.99921"
           id="circle19566" />
        <path
           d="m 433.56,995.67 -7.267,2.4205 6.7363,3.6456 -7.577,1.1219 6.0009,4.76 -7.6566,-0.211 5.0832,5.7297 -7.5037,-1.5373 4.011,6.5254 -7.1227,-2.8169 2.817,7.1227 -6.5254,-4.011 1.5373,7.5037 -5.7297,-5.0832 0.21095,7.6566 -4.76,-6.0009 -1.1218,7.577 -3.6456,-6.7364 -2.4205,7.2671 -2.4205,-7.2671 -3.6456,6.7364 -1.1218,-7.577 -4.76,6.0009 0.21094,-7.6566 -5.7297,5.0832 1.5373,-7.5037 -6.5254,4.011 2.817,-7.1227 -7.1227,2.8169 4.011,-6.5254 -7.5037,1.5373 5.0832,-5.7297 -7.6566,0.211 6.0009,-4.76 -7.577,-1.1219 6.7363,-3.6456 -7.267,-2.4205 7.267,-2.4205 -6.7363,-3.6456 7.577,-1.1218 -6.0009,-4.76 7.6566,0.21095 -5.0832,-5.7297 7.5037,1.5373 -4.011,-6.5254 7.1227,2.817 -2.817,-7.1227 6.5254,4.011 -1.5373,-7.5037 5.7297,5.0832 -0.21095,-7.6566 4.76,6.0009 1.1218,-7.577 3.6456,6.7363 2.4205,-7.267 2.4205,7.267 3.6456,-6.7363 1.1218,7.577 4.76,-6.0009 -0.21095,7.6566 5.7297,-5.0832 -1.5373,7.5037 6.5254,-4.011 -2.817,7.1228 7.1227,-2.817 -4.011,6.5254 7.5037,-1.5373 -5.0832,5.7297 7.6566,-0.21095 -6.0009,4.76 7.577,1.1218 -6.7363,3.6456 z"
           enable-background="new"
           fill="#dd1d1d"
           stroke-width="0.99921"
           id="path19568" />
        <path
           d="m 416.34,1002.8 c 0,0 -5.9,0.6123 -7.8159,2.5755 -1.9159,1.9632 -2.3841,7.8764 -2.3841,7.8764 0,0 -4.6049,-3.739 -7.3478,-3.7056 -2.7429,0.033 -7.2553,3.8836 -7.2553,3.8836 0,0 -0.6123,-5.9 -2.5755,-7.8159 -1.9632,-1.9159 -7.8764,-2.3841 -7.8764,-2.3841 0,0 3.739,-4.6049 3.7056,-7.3478 -0.0335,-2.7429 -3.8836,-7.2553 -3.8836,-7.2553 0,0 5.9,-0.61229 7.8159,-2.5755 1.9159,-1.9632 2.3841,-7.8764 2.3841,-7.8764 0,0 4.6049,3.739 7.3478,3.7056 2.7429,-0.0335 7.2553,-3.8836 7.2553,-3.8836 0,0 0.6123,5.9 2.5755,7.8159 1.9632,1.9159 7.8764,2.3841 7.8764,2.3841 0,0 -3.739,4.6049 -3.7056,7.3478 0.0335,2.7429 3.8836,7.2553 3.8836,7.2553 z"
           stroke-width="0.99921"
           id="path19570" />
        <circle
           cx="398.62"
           cy="995.66998"
           r="12.965"
           fill="#dd1d1d"
           stroke-width="0.99921"
           id="circle19572" />
        <circle
           cx="398.62"
           cy="995.66998"
           r="6.5869999"
           fill="none"
           stroke-width="1.3535"
           id="circle19574" />
        <circle
           cx="398.62"
           cy="995.66998"
           r="9.2445002"
           enable-background="new"
           fill="none"
           stroke-width="0.99921"
           id="circle19576" />
      </g>
      <g
         transform="translate(-322.44,-187.8)"
         enable-background="new"
         stroke-linecap="round"
         stroke-linejoin="round"
         id="g19596">
        <circle
           cx="398.62"
           cy="995.66998"
           r="38.477001"
           enable-background="new"
           stroke-width="0.99921"
           id="circle19580" />
        <circle
           cx="398.62"
           cy="995.66998"
           r="42.02"
           fill="none"
           stroke-width="0.99921"
           id="circle19582" />
        <circle
           cx="398.62"
           cy="995.66998"
           r="34.932999"
           enable-background="new"
           stroke-width="0.99921"
           id="circle19584" />
        <path
           d="m 433.56,995.67 -7.267,2.4205 6.7363,3.6456 -7.577,1.1219 6.0009,4.76 -7.6566,-0.211 5.0832,5.7297 -7.5037,-1.5373 4.011,6.5254 -7.1227,-2.8169 2.817,7.1227 -6.5254,-4.011 1.5373,7.5037 -5.7297,-5.0832 0.21095,7.6566 -4.76,-6.0009 -1.1218,7.577 -3.6456,-6.7364 -2.4205,7.2671 -2.4205,-7.2671 -3.6456,6.7364 -1.1218,-7.577 -4.76,6.0009 0.21094,-7.6566 -5.7297,5.0832 1.5373,-7.5037 -6.5254,4.011 2.817,-7.1227 -7.1227,2.8169 4.011,-6.5254 -7.5037,1.5373 5.0832,-5.7297 -7.6566,0.211 6.0009,-4.76 -7.577,-1.1219 6.7363,-3.6456 -7.267,-2.4205 7.267,-2.4205 -6.7363,-3.6456 7.577,-1.1218 -6.0009,-4.76 7.6566,0.21095 -5.0832,-5.7297 7.5037,1.5373 -4.011,-6.5254 7.1227,2.817 -2.817,-7.1227 6.5254,4.011 -1.5373,-7.5037 5.7297,5.0832 -0.21095,-7.6566 4.76,6.0009 1.1218,-7.577 3.6456,6.7363 2.4205,-7.267 2.4205,7.267 3.6456,-6.7363 1.1218,7.577 4.76,-6.0009 -0.21095,7.6566 5.7297,-5.0832 -1.5373,7.5037 6.5254,-4.011 -2.817,7.1228 7.1227,-2.817 -4.011,6.5254 7.5037,-1.5373 -5.0832,5.7297 7.6566,-0.21095 -6.0009,4.76 7.577,1.1218 -6.7363,3.6456 z"
           enable-background="new"
           fill="#dd1d1d"
           stroke-width="0.99921"
           id="path19586" />
        <path
           d="m 416.34,1002.8 c 0,0 -5.9,0.6123 -7.8159,2.5755 -1.9159,1.9632 -2.3841,7.8764 -2.3841,7.8764 0,0 -4.6049,-3.739 -7.3478,-3.7056 -2.7429,0.033 -7.2553,3.8836 -7.2553,3.8836 0,0 -0.6123,-5.9 -2.5755,-7.8159 -1.9632,-1.9159 -7.8764,-2.3841 -7.8764,-2.3841 0,0 3.739,-4.6049 3.7056,-7.3478 -0.0335,-2.7429 -3.8836,-7.2553 -3.8836,-7.2553 0,0 5.9,-0.61229 7.8159,-2.5755 1.9159,-1.9632 2.3841,-7.8764 2.3841,-7.8764 0,0 4.6049,3.739 7.3478,3.7056 2.7429,-0.0335 7.2553,-3.8836 7.2553,-3.8836 0,0 0.6123,5.9 2.5755,7.8159 1.9632,1.9159 7.8764,2.3841 7.8764,2.3841 0,0 -3.739,4.6049 -3.7056,7.3478 0.0335,2.7429 3.8836,7.2553 3.8836,7.2553 z"
           stroke-width="0.99921"
           id="path19588" />
        <circle
           cx="398.62"
           cy="995.66998"
           r="12.965"
           fill="#dd1d1d"
           stroke-width="0.99921"
           id="circle19590" />
        <circle
           cx="398.62"
           cy="995.66998"
           r="6.5869999"
           fill="none"
           stroke-width="1.3535"
           id="circle19592" />
        <circle
           cx="398.62"
           cy="995.66998"
           r="9.2445002"
           enable-background="new"
           fill="none"
           stroke-width="0.99921"
           id="circle19594" />
      </g>
      <g
         transform="translate(-322.44,-10.63)"
         enable-background="new"
         stroke-linecap="round"
         stroke-linejoin="round"
         id="g19614">
        <circle
           cx="398.62"
           cy="995.66998"
           r="38.477001"
           enable-background="new"
           stroke-width="0.99921"
           id="circle19598" />
        <circle
           cx="398.62"
           cy="995.66998"
           r="42.02"
           fill="none"
           stroke-width="0.99921"
           id="circle19600" />
        <circle
           cx="398.62"
           cy="995.66998"
           r="34.932999"
           enable-background="new"
           stroke-width="0.99921"
           id="circle19602" />
        <path
           d="m 433.56,995.67 -7.267,2.4205 6.7363,3.6456 -7.577,1.1219 6.0009,4.76 -7.6566,-0.211 5.0832,5.7297 -7.5037,-1.5373 4.011,6.5254 -7.1227,-2.8169 2.817,7.1227 -6.5254,-4.011 1.5373,7.5037 -5.7297,-5.0832 0.21095,7.6566 -4.76,-6.0009 -1.1218,7.577 -3.6456,-6.7364 -2.4205,7.2671 -2.4205,-7.2671 -3.6456,6.7364 -1.1218,-7.577 -4.76,6.0009 0.21094,-7.6566 -5.7297,5.0832 1.5373,-7.5037 -6.5254,4.011 2.817,-7.1227 -7.1227,2.8169 4.011,-6.5254 -7.5037,1.5373 5.0832,-5.7297 -7.6566,0.211 6.0009,-4.76 -7.577,-1.1219 6.7363,-3.6456 -7.267,-2.4205 7.267,-2.4205 -6.7363,-3.6456 7.577,-1.1218 -6.0009,-4.76 7.6566,0.21095 -5.0832,-5.7297 7.5037,1.5373 -4.011,-6.5254 7.1227,2.817 -2.817,-7.1227 6.5254,4.011 -1.5373,-7.5037 5.7297,5.0832 -0.21095,-7.6566 4.76,6.0009 1.1218,-7.577 3.6456,6.7363 2.4205,-7.267 2.4205,7.267 3.6456,-6.7363 1.1218,7.577 4.76,-6.0009 -0.21095,7.6566 5.7297,-5.0832 -1.5373,7.5037 6.5254,-4.011 -2.817,7.1228 7.1227,-2.817 -4.011,6.5254 7.5037,-1.5373 -5.0832,5.7297 7.6566,-0.21095 -6.0009,4.76 7.577,1.1218 -6.7363,3.6456 z"
           enable-background="new"
           fill="#dd1d1d"
           stroke-width="0.99921"
           id="path19604" />
        <path
           d="m 416.34,1002.8 c 0,0 -5.9,0.6123 -7.8159,2.5755 -1.9159,1.9632 -2.3841,7.8764 -2.3841,7.8764 0,0 -4.6049,-3.739 -7.3478,-3.7056 -2.7429,0.033 -7.2553,3.8836 -7.2553,3.8836 0,0 -0.6123,-5.9 -2.5755,-7.8159 -1.9632,-1.9159 -7.8764,-2.3841 -7.8764,-2.3841 0,0 3.739,-4.6049 3.7056,-7.3478 -0.0335,-2.7429 -3.8836,-7.2553 -3.8836,-7.2553 0,0 5.9,-0.61229 7.8159,-2.5755 1.9159,-1.9632 2.3841,-7.8764 2.3841,-7.8764 0,0 4.6049,3.739 7.3478,3.7056 2.7429,-0.0335 7.2553,-3.8836 7.2553,-3.8836 0,0 0.6123,5.9 2.5755,7.8159 1.9632,1.9159 7.8764,2.3841 7.8764,2.3841 0,0 -3.739,4.6049 -3.7056,7.3478 0.0335,2.7429 3.8836,7.2553 3.8836,7.2553 z"
           stroke-width="0.99921"
           id="path19606" />
        <circle
           cx="398.62"
           cy="995.66998"
           r="12.965"
           fill="#dd1d1d"
           stroke-width="0.99921"
           id="circle19608" />
        <circle
           cx="398.62"
           cy="995.66998"
           r="6.5869999"
           fill="none"
           stroke-width="1.3535"
           id="circle19610" />
        <circle
           cx="398.62"
           cy="995.66998"
           r="9.2445002"
           enable-background="new"
           fill="none"
           stroke-width="0.99921"
           id="circle19612" />
      </g>
      <g
         id="g19622">
        <g
           stroke-width="1.3535"
           id="g19618">
          <path
             d="m 96.941,896.46 a 20.76,20.76 0 0 1 -20.76,20.76 20.76,20.76 0 0 1 -20.76,-20.76 20.76,20.76 0 0 1 20.76,-20.76 20.76,20.76 0 0 1 20.76,20.76 z"
             fill="#dd1d1d"
             stroke="#000000"
             stroke-linecap="round"
             stroke-linejoin="round"
             stroke-width="1.3535"
             id="path19616" />
        </g>
        <circle
           cx="76.181"
           cy="896.46002"
           r="15.445"
           stroke-linecap="round"
           stroke-linejoin="round"
           stroke-width="0.99921"
           id="circle19620" />
      </g>
      <g
         transform="translate(-2.1579e-6,-88.583)"
         id="g19630">
        <g
           stroke-width="1.3535"
           id="g19626">
          <path
             d="m 96.941,896.46 a 20.76,20.76 0 0 1 -20.76,20.76 20.76,20.76 0 0 1 -20.76,-20.76 20.76,20.76 0 0 1 20.76,-20.76 20.76,20.76 0 0 1 20.76,20.76 z"
             fill="#dd1d1d"
             stroke="#000000"
             stroke-linecap="round"
             stroke-linejoin="round"
             stroke-width="1.3535"
             id="path19624" />
        </g>
        <circle
           cx="76.181"
           cy="896.46002"
           r="15.445"
           stroke-linecap="round"
           stroke-linejoin="round"
           stroke-width="0.99921"
           id="circle19628" />
      </g>
      <g
         transform="translate(-2.3579e-6,88.583)"
         id="g19638">
        <g
           stroke-width="1.3535"
           id="g19634">
          <path
             d="m 96.941,896.46 a 20.76,20.76 0 0 1 -20.76,20.76 20.76,20.76 0 0 1 -20.76,-20.76 20.76,20.76 0 0 1 20.76,-20.76 20.76,20.76 0 0 1 20.76,20.76 z"
             fill="#dd1d1d"
             stroke="#000000"
             stroke-linecap="round"
             stroke-linejoin="round"
             stroke-width="1.3535"
             id="path19632" />
        </g>
        <circle
           cx="76.181"
           cy="896.46002"
           r="15.445"
           stroke-linecap="round"
           stroke-linejoin="round"
           stroke-width="0.99921"
           id="circle19636" />
      </g>
    </g>
  </g>
</svg>
