<?xml version="1.0" encoding="UTF-8" standalone="no"?>
<svg
   width="42.999783mm"
   height="87.997734mm"
   enable-background="new"
   version="1.1"
   viewBox="0 0 152.36256 311.80203"
   id="svg20076"
   sodipodi:docname="Mazzo.svg"
   inkscape:version="1.2.1 (9c6d41e410, 2022-07-14)"
   xmlns:inkscape="http://www.inkscape.org/namespaces/inkscape"
   xmlns:sodipodi="http://sodipodi.sourceforge.net/DTD/sodipodi-0.dtd"
   xmlns="http://www.w3.org/2000/svg"
   xmlns:svg="http://www.w3.org/2000/svg"
   xmlns:rdf="http://www.w3.org/1999/02/22-rdf-syntax-ns#"
   xmlns:cc="http://creativecommons.org/ns#"
   xmlns:dc="http://purl.org/dc/elements/1.1/">
  <sodipodi:namedview
     id="namedview20078"
     pagecolor="#ffffff"
     bordercolor="#000000"
     borderopacity="0.25"
     inkscape:showpageshadow="2"
     inkscape:pageopacity="0.0"
     inkscape:pagecheckerboard="0"
     inkscape:deskcolor="#d1d1d1"
     inkscape:document-units="mm"
     showgrid="false"
     inkscape:zoom="8"
     inkscape:cx="81.25"
     inkscape:cy="148.1875"
     inkscape:window-width="2560"
     inkscape:window-height="1409"
     inkscape:window-x="0"
     inkscape:window-y="31"
     inkscape:window-maximized="1"
     inkscape:current-layer="svg20076" />
  <title
     id="title2">Bresciane</title>
  <defs
     id="defs191">
    <filter
       id="y"
       x="-0.027087161"
       y="-0.091111995"
       width="1.0541743"
       height="1.182224"
       color-interpolation-filters="sRGB">
      <feGaussianBlur
         stdDeviation="0.53149606"
         id="feGaussianBlur4" />
    </filter>
  </defs>
  <metadata
     id="metadata193">
    <rdf:RDF>
      <cc:Work
         rdf:about="">
        <dc:format>image/svg+xml</dc:format>
        <dc:type
           rdf:resource="http://purl.org/dc/dcmitype/StillImage" />
        <dc:title>Bresciane</dc:title>
        <dc:date>2020</dc:date>
        <dc:creator>
          <cc:Agent>
            <dc:title>ZZandro</dc:title>
          </cc:Agent>
        </dc:creator>
        <dc:rights>
          <cc:Agent>
            <dc:title />
          </cc:Agent>
        </dc:rights>
        <cc:license
           rdf:resource="http://creativecommons.org/licenses/by-sa/4.0/" />
      </cc:Work>
      <cc:License
         rdf:about="http://creativecommons.org/licenses/by-sa/4.0/">
        <cc:permits
           rdf:resource="http://creativecommons.org/ns#Reproduction" />
        <cc:permits
           rdf:resource="http://creativecommons.org/ns#Distribution" />
        <cc:requires
           rdf:resource="http://creativecommons.org/ns#Notice" />
        <cc:requires
           rdf:resource="http://creativecommons.org/ns#Attribution" />
        <cc:permits
           rdf:resource="http://creativecommons.org/ns#DerivativeWorks" />
        <cc:requires
           rdf:resource="http://creativecommons.org/ns#ShareAlike" />
      </cc:License>
    </rdf:RDF>
  </metadata>
  <g
     id="g20074"
     style="display:inline"
     transform="translate(-3.5384912,-7.1039818)">
    <g
       transform="matrix(0.97008,0,0,0.9964,-962.38,-1740.4)"
       enable-background="new"
       fill="#f4f2ef"
       id="g19952">
      <g
         transform="matrix(0.70046,0,0,1.0004,298.31,-0.79223)"
         fill="#f4f2ef"
         id="g19950">
        <rect
           x="996.13"
           y="1754.4"
           width="223.23"
           height="311.81"
           rx="10.63"
           ry="10.63"
           fill="#f4f2ef"
           stroke="#000000"
           stroke-width="0.99673"
           id="rect19948" />
      </g>
    </g>
    <g
       transform="matrix(0.76704,0,0,0.8945,-744.27,-1545.7)"
       enable-background="new"
       fill="none"
       id="g19958">
      <g
         transform="matrix(0.70046,0,0,1.0004,298.31,-0.79223)"
         fill="none"
         id="g19956">
        <rect
           x="996.13"
           y="1754.4"
           width="223.23"
           height="311.81"
           rx="10.63"
           ry="10.63"
           fill="none"
           stroke="#000000"
           stroke-width="0.99673"
           id="rect19954" />
      </g>
    </g>
    <g
       transform="translate(3.5433,-733.46)"
       id="g20072">
      <path
         d="M 135.53,869.91 V 811.445 H 16.83 v 58.465 z"
         fill="none"
         stroke="#000000"
         stroke-width="0.64488"
         id="path19960" />
      <path
         d="M 134.47,868.84 V 812.501 H 17.9 v 56.339 z"
         fill="none"
         stroke="#000000"
         stroke-width="0.64488"
         id="path19962" />
      <g
         stroke="#000000"
         stroke-linecap="round"
         stroke-linejoin="round"
         stroke-width="0.99921"
         id="g19968">
        <path
           d="m 84.813,763.17 c 0.90172,0.56158 1.8806,1.0012 2.875,1.375 1.0126,0.38062 2.0546,0.71887 3.125,0.875 1.2371,0.18044 2.5077,0.20234 3.75,0.0625 1.2151,-0.13678 2.438,-0.39456 3.5625,-0.875 0.99915,-0.4269 1.9025,-1.0701 2.75,-1.75 0.68947,-0.55307 0.99778,-1.1615 1.5195,-1.875 0.40149,-0.54907 0.81924,-1.3244 1.293,-1.8125 0.44819,-0.46173 1.0531,-0.82979 1.6875,-0.9375 0.60443,-0.10262 1.2854,-5.7e-4 1.8125,0.3125 0.5483,0.32565 0.91962,0.92127 1.1875,1.5 0.22312,0.48201 0.27445,1.0327 0.3125,1.5625 0.0553,0.76998 -0.051,1.5441 -0.125,2.3125 -0.0726,0.75371 -0.44556,1.5254 -0.66526,2.25 -0.20814,0.68661 -0.58474,1.9375 -0.58474,1.9375 0,0 2.097,-1.6123 3.25,-2.25 1.3884,-0.76792 2.8455,-1.453 4.375,-1.875 1.3576,-0.37458 2.7791,-0.55714 4.1875,-0.5625 1.659,-0.006 3.346,0.15657 4.9375,0.625 1.5733,0.46308 3.1423,1.1189 4.4375,2.125 1.1797,0.91637 2.1071,2.1562 2.875,3.4375 0.71593,1.1946 0.98666,1.7904 1.2085,3.1654 0.20945,1.2984 0.39564,3.3647 0.10404,4.6471 -0.25908,1.1392 -0.64417,2.2917 -1.3125,3.25 -0.69182,0.992 -1.6458,1.8231 -2.6875,2.4375 -0.77746,0.45851 -1.6641,0.78819 -2.5625,0.875 -1.0675,0.10314 -2.2589,0.099 -3.1875,-0.4375 -0.91287,-0.52746 -1.5846,-1.5065 -1.9375,-2.5 -0.29991,-0.8444 -0.32764,-1.8316 -0.0625,-2.6875 0.1899,-0.61305 0.65837,-1.1219 1.125,-1.5625 0.39499,-0.37299 0.85757,-0.70945 1.375,-0.875 0.37753,-0.12079 0.83755,-0.24866 1.1875,-0.0625 0.96522,0.51347 1.6875,2.8125 1.6875,2.8125 0,0 -1.3326,-3.4055 -2.729,-4.5826 -0.6958,-0.58651 -1.3697,-0.97871 -2.271,-1.1049 -1.795,-0.2514 -3.6319,-0.15753 -5.4375,0 -1.9176,0.1673 -3.7834,0.71742 -5.6875,1 -2.0551,0.305 -4.1137,0.62477 -6.1875,0.75 -1.9548,0.11804 -3.9497,0.004 -5.875,-0.35452 -2.1072,-0.39203 -4.0467,-1.0754 -6,-1.958 -1.4776,-0.66762 -2.9437,-1.381 -4.3125,-2.25 -1.6479,-1.0462 -4.6603,-3.5461 -4.6603,-3.5461 l -2.1012,-6.4212 c 0,0 2.4059,2.1231 3.7615,2.9673 z"
           fill="#dd1d1d"
           fill-rule="evenodd"
           id="path19964" />
        <path
           d="m 82.421,764.39 c 10.994,8.9227 25.412,7.339 39.732,6.0542"
           fill="none"
           id="path19966" />
      </g>
      <g
         transform="matrix(-1,0,0,1,152.36,-3.3921e-4)"
         fill="#e9c13a"
         fill-rule="evenodd"
         stroke="#000000"
         stroke-linecap="round"
         stroke-linejoin="round"
         stroke-width="0.99921"
         id="g19974">
        <path
           d="m 84.813,763.17 c 0.90172,0.56158 1.8806,1.0012 2.875,1.375 1.0126,0.38062 2.0546,0.71887 3.125,0.875 1.2371,0.18044 2.5077,0.20234 3.75,0.0625 1.2151,-0.13678 2.438,-0.39456 3.5625,-0.875 0.99915,-0.4269 1.9025,-1.0701 2.75,-1.75 0.68947,-0.55307 0.99778,-1.1615 1.5195,-1.875 0.40149,-0.54907 0.81924,-1.3244 1.293,-1.8125 0.44819,-0.46173 1.0531,-0.82979 1.6875,-0.9375 0.60443,-0.10262 1.2854,-5.7e-4 1.8125,0.3125 0.5483,0.32565 0.91962,0.92127 1.1875,1.5 0.22312,0.48201 0.27445,1.0327 0.3125,1.5625 0.0553,0.76998 -0.051,1.5441 -0.125,2.3125 -0.0726,0.75371 -0.44556,1.5254 -0.66526,2.25 -0.20814,0.68661 -0.58474,1.9375 -0.58474,1.9375 0,0 2.097,-1.6123 3.25,-2.25 1.3884,-0.76792 2.8455,-1.453 4.375,-1.875 1.3576,-0.37458 2.7791,-0.55714 4.1875,-0.5625 1.659,-0.006 3.346,0.15657 4.9375,0.625 1.5733,0.46308 3.1423,1.1189 4.4375,2.125 1.1797,0.91637 2.1071,2.1562 2.875,3.4375 0.71593,1.1946 0.98666,1.7904 1.2085,3.1654 0.20945,1.2984 0.39564,3.3647 0.10404,4.6471 -0.25908,1.1392 -0.64417,2.2917 -1.3125,3.25 -0.69182,0.992 -1.6458,1.8231 -2.6875,2.4375 -0.77746,0.45851 -1.6641,0.78819 -2.5625,0.875 -1.0675,0.10314 -2.2589,0.099 -3.1875,-0.4375 -0.91287,-0.52746 -1.5846,-1.5065 -1.9375,-2.5 -0.29991,-0.8444 -0.32764,-1.8316 -0.0625,-2.6875 0.1899,-0.61305 0.65837,-1.1219 1.125,-1.5625 0.39499,-0.37299 0.85757,-0.70945 1.375,-0.875 0.37753,-0.12079 0.83755,-0.24866 1.1875,-0.0625 0.96522,0.51347 1.6875,2.8125 1.6875,2.8125 0,0 -1.3326,-3.4055 -2.729,-4.5826 -0.6958,-0.58651 -1.3697,-0.97871 -2.271,-1.1049 -1.795,-0.2514 -3.6319,-0.15753 -5.4375,0 -1.9176,0.1673 -3.7834,0.71742 -5.6875,1 -2.0551,0.305 -4.1137,0.62477 -6.1875,0.75 -1.9548,0.11804 -3.9497,0.004 -5.875,-0.35452 -2.1072,-0.39203 -4.0467,-1.0754 -6,-1.958 -1.4776,-0.66762 -2.9437,-1.381 -4.3125,-2.25 -1.6479,-1.0462 -4.6603,-3.5461 -4.6603,-3.5461 l -2.1012,-6.4212 c 0,0 2.4059,2.1231 3.7615,2.9673 z"
           id="path19970" />
        <path
           d="m 82.421,764.39 c 10.994,8.9227 25.412,7.339 39.732,6.0542"
           id="path19972" />
      </g>
      <circle
         cx="76.181"
         cy="765.34998"
         r="7.0865998"
         fill="#1780ce"
         stroke="#000000"
         stroke-linecap="round"
         stroke-linejoin="round"
         stroke-width="0.99921"
         id="circle19976" />
      <circle
         cx="76.181"
         cy="765.34998"
         r="3.5432999"
         fill="#1780ce"
         stroke="#000000"
         stroke-linecap="round"
         stroke-linejoin="round"
         stroke-width="0.99921"
         id="circle19978" />
      <g
         stroke="#000000"
         stroke-linecap="round"
         stroke-linejoin="round"
         stroke-width="1px"
         id="g19988">
        <path
           d="m 98.288,911.16 c 0,0 2.702,-2.7502 4.1101,-4.0659 1.2202,-1.1401 2.4157,-2.3191 3.7565,-3.3146 1.1685,-0.86755 2.3972,-1.6746 3.7123,-2.2981 1.3513,-0.64062 2.7943,-1.086 4.2426,-1.4584 1.3323,-0.34253 2.7042,-0.51167 4.0659,-0.70711 1.4235,-0.20432 4.2868,-0.48614 4.2868,-0.48614 0,0 -0.0731,1.4469 -0.30936,2.1213 -0.36667,1.0468 -0.96772,2.0219 -1.6794,2.8726 -0.50953,0.60912 -0.8813,0.99998 -1.4572,1.5468 -0.55919,0.53097 -1.9458,1.6794 -1.9458,1.6794 l -18.783,4.1101"
           fill="#e9c13a"
           fill-rule="evenodd"
           id="path19980" />
        <path
           d="m 105.55,909.57 7.8068,-5.3933"
           fill="none"
           id="path19982" />
        <path
           d="m 81.617,909.68 c 0,0 2.6635,3.3279 4.1629,4.6621 1.2669,1.1274 2.4333,1.9506 3.9343,2.74 1.6418,0.86353 3.3272,1.7144 5.1265,2.1655 1.4062,0.35253 2.8813,0.39955 4.331,0.39775 1.5685,-0.002 3.1456,-0.13934 4.6846,-0.44194 1.4953,-0.29401 2.9578,-0.76632 4.3752,-1.3258 1.0234,-0.40395 1.952,-1.0198 2.961,-1.4584 1.2571,-0.54651 2.5124,-1.1371 3.8449,-1.4584 1.0375,-0.25015 2.4694,-0.66561 3.5358,-0.7078 1.3991,-0.0553 2.4908,0.12955 3.8446,0.48683 0.61165,0.16142 1.1924,0.48005 1.6794,0.88388 1.2591,1.0442 3.0494,3.8449 3.0494,3.8449 0,0 -0.11765,-1.8703 -0.30936,-2.7842 -0.25349,-1.2084 -0.50853,-2.4537 -1.1037,-3.5355 -0.54915,-0.9982 -1.361,-2.2042 -2.2104,-2.9636 -0.92595,-0.82787 -2.0011,-1.4865 -3.0941,-2.0764 -1.069,-0.57696 -2.1661,-0.82802 -3.3588,-1.0589 -1.7936,-0.34718 -3.6681,-0.14455 -5.4801,0.0884 -1.9703,0.2533 -3.9069,0.77975 -5.7894,1.4142 -1.2941,0.43616 -2.4654,1.1902 -3.7565,1.6352 -1.2228,0.42147 -2.4656,0.89176 -3.7565,0.97227 -1.2602,0.0786 -2.8606,0.0488 -4.1103,-0.13152 -1.6683,-0.24078 -3.0286,-0.65576 -4.6402,-1.1501 -1.1971,-0.36723 -2.3138,-0.97326 -3.403,-1.591 -1.4512,-0.82302 -4.1463,-2.8032 -4.1463,-2.8032 z"
           fill="#e9c13a"
           fill-rule="evenodd"
           id="path19984" />
        <path
           d="m 81.789,907.74 c 14.73,15.949 28.711,1.346 34.133,4.084"
           fill="none"
           id="path19986" />
      </g>
      <path
         d="m 54.074,911.16 c 0,0 -2.702,-2.7502 -4.1101,-4.0659 -1.2202,-1.1401 -2.4157,-2.3191 -3.7565,-3.3146 -1.1685,-0.86755 -2.3972,-1.6746 -3.7123,-2.2981 -1.3513,-0.64062 -2.7943,-1.086 -4.2426,-1.4584 -1.3323,-0.34253 -2.7042,-0.51167 -4.0659,-0.70711 -1.4235,-0.20432 -4.2868,-0.48614 -4.2868,-0.48614 0,0 0.0731,1.4469 0.30936,2.1213 0.36667,1.0468 0.96772,2.0219 1.6794,2.8726 0.50953,0.60912 0.8813,0.99998 1.4572,1.5468 0.55919,0.53097 1.9458,1.6794 1.9458,1.6794 l 18.783,4.1101"
         fill="#1780ce"
         fill-rule="evenodd"
         stroke="#000000"
         stroke-linecap="round"
         stroke-linejoin="round"
         stroke-width="1px"
         id="path19990" />
      <path
         d="m 46.811,909.57 -7.8068,-5.3933"
         fill="none"
         stroke="#000000"
         stroke-linecap="round"
         stroke-linejoin="round"
         stroke-width="1px"
         id="path19992" />
      <path
         d="m 70.745,909.68 c 0,0 -2.6635,3.3279 -4.1629,4.6621 -1.2669,1.1274 -2.4333,1.9506 -3.9343,2.74 -1.6418,0.86353 -3.3272,1.7144 -5.1265,2.1655 -1.4062,0.35253 -2.8813,0.39955 -4.331,0.39775 -1.5685,-0.002 -3.1456,-0.13934 -4.6846,-0.44194 -1.4953,-0.29401 -2.9578,-0.76632 -4.3752,-1.3258 -1.0234,-0.40395 -1.952,-1.0198 -2.961,-1.4584 -1.2571,-0.54651 -2.5124,-1.1371 -3.8449,-1.4584 -1.0375,-0.25015 -2.4694,-0.66561 -3.5358,-0.7078 -1.3991,-0.0553 -2.4908,0.12955 -3.8446,0.48683 -0.61165,0.16142 -1.1924,0.48005 -1.6794,0.88388 -1.2591,1.0442 -3.0494,3.8449 -3.0494,3.8449 0,0 0.11765,-1.8703 0.30936,-2.7842 0.25349,-1.2084 0.50853,-2.4537 1.1037,-3.5355 0.54915,-0.9982 1.361,-2.2042 2.2104,-2.9636 0.92595,-0.82787 2.0011,-1.4865 3.0941,-2.0764 1.069,-0.57696 2.1661,-0.82802 3.3588,-1.0589 1.7936,-0.34718 3.6681,-0.14455 5.4801,0.0884 1.9703,0.2533 3.9069,0.77975 5.7894,1.4142 1.2941,0.43616 2.4654,1.1902 3.7565,1.6352 1.2228,0.42147 2.4656,0.89176 3.7565,0.97227 1.2602,0.0786 2.8606,0.0488 4.1103,-0.13152 1.6683,-0.24078 3.0286,-0.65576 4.6402,-1.1501 1.1971,-0.36723 2.3138,-0.97326 3.403,-1.591 1.4512,-0.82302 4.1463,-2.8032 4.1463,-2.8032 z"
         fill="#1780ce"
         fill-rule="evenodd"
         stroke="#000000"
         stroke-linecap="round"
         stroke-linejoin="round"
         stroke-width="1px"
         id="path19994" />
      <path
         d="m 70.573,907.74 c -14.73,15.949 -28.711,1.346 -34.133,4.084"
         fill="none"
         stroke="#000000"
         stroke-linecap="round"
         stroke-linejoin="round"
         stroke-width="1px"
         id="path19996" />
      <circle
         cx="76.181"
         cy="964.03003"
         r="44.291"
         fill="none"
         stroke="#000000"
         stroke-linecap="round"
         stroke-linejoin="round"
         stroke-width="0.64488"
         id="circle19998" />
      <g
         transform="translate(-2.5905e-6,-12.402)"
         filter="url(#y)"
         stroke="#dd1d1d"
         id="g20020">
        <g
           transform="matrix(-1,0,0,1,152.22,0.50999)"
           stroke-linecap="round"
           stroke-linejoin="round"
           stroke-width="0.99921"
           id="g20016">
          <path
             d="m 101.61,857.44 c 0,0.0225 -0.0359,0.0225 -0.0359,0 v -7.485 h -0.31429 l -2.6042,5.4525 -0.009,0.007 h -0.24246 c -0.009,0 -0.01796,-0.007 -0.01796,-0.007 l -2.649,-5.4525 h -0.32327 v 7.485 c 0,0.0225 -0.03592,0.0225 -0.03592,0 v -7.5 c 0,-0.007 0.009,-0.015 0.01796,-0.015 h 0.35021 c 0.009,0 0.01796,0.007 0.01796,0.007 l 2.649,5.4525 h 0.21552 l 2.6042,-5.4525 c 0,0 0.009,-0.007 0.0179,-0.007 h 0.35021 c 0.009,0 0.009,0.007 0.009,0.015 v 7.5 z"
             id="path20000" />
          <path
             d="m 92.538,857.43 c 0.009,0.0225 -0.02694,0.03 -0.03592,0.015 l -2.7209,-7.4925 h -0.35021 l -2.7209,7.4925 c -0.009,0.015 -0.04489,0.007 -0.03592,-0.015 l 2.7299,-7.5 c 0,0 0.009,-0.007 0.01796,-0.007 h 0.36817 c 0.009,0 0.01796,0.007 0.01796,0.007 z m -0.76328,-2.04 c 0.02694,0 0.02694,0.03 0,0.03 h -4.3462 c -0.02694,0 -0.02694,-0.03 0,-0.03 z"
             id="path20002" />
          <path
             d="m 81.671,853.75 c 0.02694,0 0.02694,0.03 0,0.03 h -2.2809 l 0.009,1.8525 c 0,1.155 1.1404,1.86 2.209,1.86 1.0596,0 2.209,-0.705 2.209,-1.86 v -3.9 c 0,-1.155 -1.1494,-1.86 -2.218,-1.86 -1.0057,0 -2.0923,0.63749 -2.2001,1.6875 0,0.0225 -0.03592,0.015 -0.02694,0 0.10776,-1.0725 1.2033,-1.7175 2.236,-1.7175 1.0776,0 2.245,0.72001 2.245,1.89 v 3.9 c 0,1.17 -1.1674,1.89 -2.2539,1.89 -1.0776,0 -2.236,-0.72 -2.236,-1.89 v -1.8675 c 0,-0.007 0,-0.015 0.01796,-0.015 h 2.2899 z"
             id="path20004" />
          <path
             d="m 76.5,856.51 h -0.92517 v 0.93018 H 76.5 Z"
             id="path20006" />
          <path
             d="m 69.501,857.45 c -0.01796,0 -0.01796,-0.03 0.009,-0.03 h 3.6907 v -0.165 l -3.538,-5.025 c -0.11674,-0.16499 -0.19756,-0.3975 -0.19756,-0.735 0,-0.87 0.86206,-1.59 1.9127,-1.59 1.0417,0 1.8947,0.705 1.8947,1.575 0,0.0225 -0.0449,0.0225 -0.0449,0 0,-0.855 -0.82614,-1.545 -1.8498,-1.545 -1.0327,0 -1.8768,0.70501 -1.8768,1.56 0,0.33 0.08082,0.555 0.19756,0.72 l 3.5291,5.025 0.009,0.007 v 0.1875 c 0,0.007 -0.009,0.015 -0.01796,0.015 h -3.7176 z"
             id="path20008" />
          <path
             d="m 56.558,857.45 c -0.01796,0 -0.01796,-0.03 0.009,-0.03 h 3.6907 v -0.165 l -3.538,-5.025 c -0.11674,-0.16499 -0.19756,-0.3975 -0.19756,-0.735 0,-0.87 0.86206,-1.59 1.9127,-1.59 1.0417,0 1.8947,0.705 1.8947,1.575 0,0.0225 -0.0449,0.0225 -0.0449,0 0,-0.855 -0.82614,-1.545 -1.8498,-1.545 -1.0327,0 -1.8768,0.70501 -1.8768,1.56 0,0.33 0.08082,0.555 0.19756,0.72 l 3.5291,5.025 0.009,0.007 v 0.1875 c 0,0.007 -0.009,0.015 -0.01796,0.015 h -3.7176 z"
             id="path20010" />
          <path
             d="m 64.905,849.91 c 1.0506,0 1.8947,0.70499 1.8947,1.575 v 4.47 c 0,0.86999 -0.8441,1.575 -1.8947,1.575 -1.0417,0 -1.8768,-0.70501 -1.8768,-1.575 v -4.47 c 0,-0.87001 0.83512,-1.575 1.8858,-1.575 z m 0.009,0.03 c -1.0327,0 -1.8498,0.69 -1.8498,1.545 v 4.47 c 0,0.855 0.81716,1.545 1.8498,1.545 1.0237,0 1.8498,-0.69 1.8498,-1.545 v -4.47 c 0,-0.85501 -0.82614,-1.545 -1.8588,-1.545 z"
             id="path20012" />
          <path
             d="m 51.997,849.91 c 1.0506,0 1.8947,0.70499 1.8947,1.575 v 4.47 c 0,0.86999 -0.8441,1.575 -1.8947,1.575 -1.0417,0 -1.8768,-0.70501 -1.8768,-1.575 v -4.47 c 0,-0.87001 0.83512,-1.575 1.8858,-1.575 z m 0.009,0.03 c -1.0327,0 -1.8498,0.69 -1.8498,1.545 v 4.47 c 0,0.855 0.81716,1.545 1.8498,1.545 1.0237,0 1.8498,-0.69 1.8498,-1.545 v -4.47 c 0,-0.85501 -0.82614,-1.545 -1.8588,-1.545 z"
             id="path20014" />
        </g>
        <path
           d="m 43.406,844.19 v 19.488 h 65.551 V 844.19 Z"
           fill="none"
           stroke-width="1px"
           id="path20018" />
      </g>
      <circle
         cx="76.181"
         cy="907.09003"
         r="6.0236001"
         fill="#dd1d1d"
         stroke="#000000"
         stroke-linecap="round"
         stroke-linejoin="round"
         stroke-width="0.99921"
         id="circle20022" />
      <path
         d="m 112.52,1015.4 c 0,0 1.9088,-1.1593 2.961,-1.5026 1.1351,-0.3703 2.3454,-0.6569 3.5355,-0.753 1.1306,-0.091 2.2848,-0.013 3.403,0.1785 0.83126,0.142 1.6517,0.4259 2.3865,0.8397 1.1127,0.6266 2.0095,1.5791 2.961,2.4307 0.61323,0.5488 1.1659,1.1622 1.7678,1.7235 0.53413,0.4981 1.0071,1.0856 1.6352,1.4584 0.56497,0.3354 1.8562,0.663 1.8562,0.663 0,0 -1.7038,0.785 -2.6075,1.0164 -1.324,0.3391 -2.6992,0.5098 -4.0659,0.5303 -1.1843,0.018 -2.3726,-0.129 -3.5355,-0.3535 -1.1444,-0.2209 -2.2483,-0.6182 -3.3588,-0.9723 -1.2783,-0.4077 -2.5624,-0.809 -3.8007,-1.3258 -0.71137,-0.2969 -2.0771,-1.0165 -2.0771,-1.0165 z"
         fill="#dd1d1d"
         fill-rule="evenodd"
         stroke="#000000"
         stroke-linecap="round"
         stroke-linejoin="round"
         stroke-width="0.99921"
         id="path20024" />
      <path
         d="m 113.06,1016.8 c 3.8576,-2.4828 6.4644,0.3162 12.5,2.1477"
         fill="none"
         stroke="#000000"
         stroke-linecap="round"
         stroke-linejoin="round"
         stroke-width="0.99921"
         id="path20026" />
      <path
         d="m 76.181,1012.6 c 0,0 1.9868,2.3332 3.2839,3.0946 0.50626,0.2972 1.0992,0.4409 1.6794,0.5303 1.1065,0.1706 2.2459,0.1222 3.3588,0 1.8901,-0.2075 3.7766,-0.6012 5.5685,-1.2374 1.5521,-0.5511 2.8898,-1.2411 4.4178,-1.856 1.2881,-0.5184 2.9674,-1.1649 4.3335,-1.4138 0.98722,-0.1798 2.0013,-0.3674 3.0047,-0.3543 1.3896,0.018 2.4401,0.069 3.8004,0.3537 1.523,0.3188 3.0677,0.7319 4.4194,1.5026 0.94389,0.5382 1.8565,1.2279 2.4749,2.1213 0.58882,0.8506 0.92366,1.8914 1.0607,2.9168 0.18793,1.4066 -0.0107,2.8656 -0.35355,4.2427 -0.27106,1.0887 -1.3258,3.0936 -1.3258,3.0936 0,0 -0.91272,-1.7127 -1.591,-2.3865 -0.8754,-0.8696 -1.9432,-1.5868 -3.0936,-2.033 -1.3909,-0.5395 -2.9276,-0.7095 -4.4194,-0.7071 -1.4628,0 -2.9024,0.393 -4.331,0.7071 -1.6127,0.3545 -3.1866,0.8677 -4.773,1.3259 -1.1821,0.3414 -2.3169,0.8911 -3.5355,1.0606 -1.9262,0.2679 -3.9275,0.2976 -5.8336,-0.088 -1.464,-0.2962 -2.903,-0.8637 -4.1543,-1.6793 -1.5541,-1.0129 -3.991,-3.8785 -3.991,-3.8785 v -5.3149"
         fill="#dd1d1d"
         fill-rule="evenodd"
         stroke="#000000"
         stroke-linecap="round"
         stroke-linejoin="round"
         stroke-width="0.99921"
         id="path20028" />
      <path
         d="m 76.181,1015.9 c 15.379,11.078 17.708,-4.2205 33.336,1.7677"
         fill="none"
         stroke="#000000"
         stroke-linecap="round"
         stroke-linejoin="round"
         stroke-width="0.99921"
         id="path20030" />
      <path
         d="m 39.84,1015.4 c 0,0 -1.9088,-1.1593 -2.961,-1.5026 -1.1351,-0.3703 -2.3454,-0.6569 -3.5355,-0.753 -1.1306,-0.091 -2.2848,-0.013 -3.403,0.1785 -0.83126,0.142 -1.6517,0.4259 -2.3865,0.8397 -1.1127,0.6266 -2.0095,1.5791 -2.961,2.4307 -0.61323,0.5488 -1.1659,1.1622 -1.7678,1.7235 -0.53413,0.4981 -1.0071,1.0856 -1.6352,1.4584 -0.56497,0.3354 -1.8562,0.663 -1.8562,0.663 0,0 1.7038,0.785 2.6075,1.0164 1.324,0.3391 2.6992,0.5098 4.0659,0.5303 1.1843,0.018 2.3726,-0.129 3.5355,-0.3535 1.1444,-0.2209 2.2483,-0.6182 3.3588,-0.9723 1.2783,-0.4077 2.5624,-0.809 3.8007,-1.3258 0.71137,-0.2969 2.0771,-1.0165 2.0771,-1.0165 z"
         fill="#e9c13a"
         fill-rule="evenodd"
         stroke="#000000"
         stroke-linecap="round"
         stroke-linejoin="round"
         stroke-width="0.99921"
         id="path20032" />
      <path
         d="m 39.303,1016.8 c -3.8576,-2.4828 -6.4644,0.3162 -12.5,2.1477"
         fill="#e9c13a"
         fill-rule="evenodd"
         stroke="#000000"
         stroke-linecap="round"
         stroke-linejoin="round"
         stroke-width="0.99921"
         id="path20034" />
      <path
         d="m 72.897,1015.7 c -0.50627,0.2972 -1.0992,0.4409 -1.6794,0.5303 -1.1065,0.1706 -2.2459,0.1222 -3.3588,0 -1.8901,-0.2075 -3.7766,-0.6012 -5.5685,-1.2374 -1.5521,-0.5511 -2.8898,-1.2411 -4.4178,-1.856 -1.2881,-0.5184 -2.9674,-1.1649 -4.3335,-1.4138 -0.98722,-0.1798 -2.0014,-0.3674 -3.0047,-0.3543 -1.3896,0.018 -2.4401,0.069 -3.8004,0.3537 -1.523,0.3188 -3.0677,0.7319 -4.4194,1.5026 -0.94389,0.5382 -1.8565,1.2279 -2.4749,2.1213 -0.58882,0.8506 -0.92366,1.8914 -1.0607,2.9168 -0.18793,1.4066 0.0107,2.8656 0.35355,4.2427 0.27106,1.0887 1.3258,3.0936 1.3258,3.0936 0,0 0.91272,-1.7127 1.591,-2.3865 0.8754,-0.8696 1.9432,-1.5868 3.0936,-2.033 1.3909,-0.5395 2.9276,-0.7095 4.4194,-0.7071 1.4628,0 2.9024,0.393 4.331,0.7071 1.6127,0.3545 3.1866,0.8677 4.773,1.3259 1.1821,0.3414 2.3169,0.8911 3.5355,1.0606 1.9262,0.2679 3.9275,0.2976 5.8336,-0.088 1.464,-0.2962 2.903,-0.8637 4.1542,-1.6793 1.5541,-1.0129 3.991,-3.8785 3.991,-3.8785 v -5.3151 c 0,0 -1.9868,2.333 -3.2839,3.0944 z"
         fill="#e9c13a"
         fill-rule="evenodd"
         stroke="#000000"
         stroke-linecap="round"
         stroke-linejoin="round"
         stroke-width="0.99921"
         id="path20036" />
      <path
         d="m 76.181,1015.9 c -15.379,11.078 -17.708,-4.2205 -33.336,1.7677"
         fill="none"
         stroke="#000000"
         stroke-linecap="round"
         stroke-linejoin="round"
         stroke-width="0.99921"
         id="path20038" />
      <g
         transform="scale(1.3677,0.73115)"
         stroke="#000000"
         stroke-linecap="round"
         stroke-linejoin="round"
         stroke-width="1.4173"
         id="g20054">
        <path
           d="m 19.55,1206.6 c -0.04103,0 -0.04103,0.055 0,0.055 h 3.2688 c 1.8601,0 3.3646,-1.5045 3.3646,-3.3919 0,-1.8875 -1.5045,-3.3919 -3.3646,-3.3919 h -3.2825 c -0.01368,0 -0.01368,0.014 -0.01368,0.027 v 13.677 c 0,0.014 0,0.027 0.02735,0.027 h 3.2688 c 1.8601,0 3.5561,-1.3267 3.5561,-3.5013 0,-2.079 -1.696,-3.5014 -3.5561,-3.5014 -0.04103,0 -0.04103,0.055 0,0.055 1.8327,0 3.5013,1.3951 3.5013,3.4467 0,2.1473 -1.6686,3.4466 -3.5013,3.4466 h -3.2552 v -13.622 h 3.2552 c 1.8327,0 3.3099,1.4771 3.3099,3.3372 0,1.8601 -1.4771,3.3372 -3.3099,3.3372 h -3.2688 z"
           id="path20040" />
        <path
           d="m 35.469,1206.5 c -0.01368,-0.041 -0.06839,-0.014 -0.05471,0.014 l 3.515,7.0847 c 0.01368,0.027 0.06838,0 0.05471,-0.027 l -3.515,-7.0711 z m -3.4056,7.0847 c 0,0.041 0.06839,0.041 0.06839,0 v -13.65 h 3.5287 c 1.7917,0 3.2688,1.4087 3.2688,3.2688 0,1.8601 -1.4771,3.2688 -3.2688,3.2688 h -3.5697 c -0.02735,0 -0.02735,0.055 0.01368,0.055 h 3.5561 c 1.8191,0 3.3235,-1.4224 3.3235,-3.3235 0,-1.9011 -1.5045,-3.3235 -3.3235,-3.3235 h -3.5697 c -0.01368,0 -0.01368,0.014 -0.01368,0.027 l -0.01368,13.677 z"
           id="path20042" />
        <path
           d="m 50.584,1213.6 c 0.02735,0 0.02735,-0.055 -0.01368,-0.055 h -6.5377 v -13.622 h 6.5514 c 0.02735,0 0.02735,-0.055 -0.01368,-0.055 h -6.565 c -0.01368,0 -0.01368,0.014 -0.01368,0.027 v 13.677 c 0,0.014 0,0.027 0.02736,0.027 h 6.565 z m -6.565,-7.0711 c -0.04103,0 -0.04103,0.055 0,0.055 h 5.0605 c 0.02735,0 0.02735,-0.055 -0.01368,-0.055 h -5.0469 z"
           id="path20044" />
        <path
           d="m 61.495,1203 c 0,0.041 0.05471,0.027 0.04103,0 -0.24619,-2.2568 -1.5045,-3.2962 -3.3235,-3.2962 -1.7917,0 -3.3919,1.3951 -3.3919,3.2415 0,1.4361 0.62915,1.9011 1.778,2.5986 l 3.0774,1.8328 c 1.3267,0.7796 1.9969,1.395 1.9969,3.0363 0,1.819 -1.6413,3.2415 -3.4603,3.2415 -1.9695,0 -3.474,-1.4225 -3.474,-3.3099 0,-0.027 -0.05471,-0.027 -0.05471,0.014 0,1.9011 1.5318,3.3509 3.5424,3.3509 1.8191,0 3.5013,-1.4498 3.5013,-3.2962 0,-1.6686 -0.69753,-2.2978 -2.0105,-3.091 l -3.0774,-1.8328 c -1.1626,-0.6838 -1.7644,-1.1352 -1.7644,-2.5439 0,-1.8054 1.5592,-3.1868 3.3509,-3.1868 1.7644,0 3.0226,1.0121 3.2688,3.2415 z"
           id="path20046" />
        <path
           d="m 73.553,1210.7 c 0,-0.041 -0.05471,-0.041 -0.05471,-0.014 -0.1778,1.7096 -1.6413,2.9543 -3.5013,2.9543 -1.6139,0 -3.3646,-1.2857 -3.3646,-3.392 v -7.1121 c 0,-2.1063 1.7507,-3.3919 3.3783,-3.3919 1.8464,0 3.3099,1.1625 3.4877,2.8722 0,0.041 0.05471,0.027 0.05471,0 -0.1778,-1.737 -1.6686,-2.9269 -3.5561,-2.9269 -1.6413,0 -3.4193,1.313 -3.4193,3.4466 v 7.1121 c 0,2.1337 1.778,3.4467 3.433,3.4467 1.8738,0 3.3646,-1.2583 3.5424,-2.9953 z"
           id="path20048" />
        <path
           d="m 78.613,1199.9 c 0,-0.041 -0.06838,-0.041 -0.06838,0 v 13.677 c 0,0.041 0.06838,0.041 0.06838,0 z"
           id="path20050" />
        <path
           d="m 82.947,1213.5 c -0.01368,0.041 0.04103,0.055 0.05471,0.027 l 4.1442,-13.663 h 0.53341 l 4.1442,13.663 c 0.01368,0.027 0.06839,0.014 0.05471,-0.027 l -4.1579,-13.677 c 0,0 -0.01368,-0.014 -0.02735,-0.014 h -0.56076 c -0.01368,0 -0.02735,0.014 -0.02735,0.014 l -4.1579,13.677 z m 1.1626,-3.7202 c -0.04103,0 -0.04103,0.055 0,0.055 h 6.6197 c 0.04103,0 0.04103,-0.055 0,-0.055 z"
           id="path20052" />
      </g>
      <g
         stroke="#000000"
         stroke-linecap="round"
         stroke-linejoin="round"
         stroke-width="1.063"
         id="g20070">
        <path
           d="m 54.205,794.27 c -0.015,0 -0.015,0.03 0,0.03 h 3.525 v 0.2625 L 54.055,801.5 v 0.285 c 0,0.008 0,0.015 0.015,0.015 h 3.8025 c 0.015,0 0.015,-0.03 -0.0075,-0.03 h -3.7875 v -0.2625 L 57.76,794.57 v -0.285 c 0,-0.007 -0.0075,-0.015 -0.015,-0.015 z"
           id="path20056" />
        <path
           d="m 59.911,794.27 c -0.015,0 -0.015,0.03 0,0.03 h 3.525 v 0.2625 L 59.761,801.5 v 0.285 c 0,0.008 0,0.015 0.015,0.015 h 3.8025 c 0.015,0 0.015,-0.03 -0.0075,-0.03 h -3.7875 v -0.2625 L 63.466,794.57 v -0.285 c 0,-0.007 -0.0075,-0.015 -0.015,-0.015 z"
           id="path20058" />
        <path
           d="m 65.534,801.78 c -0.0075,0.0225 0.0225,0.03 0.03,0.015 l 2.2725,-7.4925 h 0.2925 l 2.2725,7.4925 c 0.0075,0.015 0.0375,0.008 0.03,-0.015 l -2.28,-7.5 c 0,0 -0.0075,-0.008 -0.015,-0.008 H 67.829 c -0.0075,0 -0.015,0.008 -0.015,0.008 z m 0.6375,-2.04 c -0.0225,0 -0.0225,0.03 0,0.03 h 3.63 c 0.0225,0 0.0225,-0.03 0,-0.03 z"
           id="path20060" />
        <path
           d="m 73.133,801.79 c 0,0.0225 0.03,0.0225 0.03,0 l -0.0075,-7.485 h 0.2325 l 3.2175,7.4925 c 0,0 0.0075,0.008 0.015,0.008 h 0.27 c 0.0075,0 0.0075,-0.008 0.0075,-0.015 v -7.5 c 0,-0.0225 -0.03,-0.0225 -0.03,0 v 7.485 h -0.24 l -3.2175,-7.4925 c 0,0 -0.0075,-0.008 -0.0075,-0.008 h -0.2625 c -0.015,0 -0.0225,0.008 -0.0225,0.015 z"
           id="path20062" />
        <path
           d="m 82.448,794.27 h -2.085 c -0.0075,0 -0.0075,0.008 -0.0075,0.015 v 7.5 c 0,0.008 0,0.015 0.015,0.015 h 2.0775 c 0.9375,0 1.65,-0.6675 1.65,-1.635 v -4.26 c 0,-0.9675 -0.7125,-1.635 -1.65,-1.635 z m 0,0.03 c 0.9225,0 1.62,0.6525 1.62,1.6125 v 4.2525 c 0,0.9525 -0.6975,1.605 -1.62,1.605 h -2.07 v -7.47 z"
           id="path20064" />
        <path
           d="m 89.562,797.9 c -0.0075,-0.0225 -0.0375,-0.007 -0.03,0.008 l 1.9275,3.885 c 0.0075,0.015 0.0375,0 0.03,-0.015 l -1.9275,-3.8775 z m -1.8675,3.885 c 0,0.0225 0.0375,0.0225 0.0375,0 V 794.3 h 1.935 c 0.9825,0 1.7925,0.7725 1.7925,1.7925 0,1.02 -0.81,1.7925 -1.7925,1.7925 h -1.9575 c -0.015,0 -0.015,0.03 0.0075,0.03 h 1.95 c 0.9975,0 1.8225,-0.78 1.8225,-1.8225 0,-1.0425 -0.825,-1.8225 -1.8225,-1.8225 h -1.9575 c -0.0075,0 -0.0075,0.008 -0.0075,0.015 z"
           id="path20066" />
        <path
           d="m 96.44,794.2 c -0.9075,0 -1.8825,0.72 -1.8825,1.89 v 3.9 c 0,1.17 0.975,1.89 1.8825,1.89 0.9,0 1.8675,-0.72 1.8675,-1.89 v -3.9 c 0,-1.17 -0.9675,-1.89 -1.875,-1.89 z m -0.0075,0.03 c 0.8925,0 1.845,0.705 1.845,1.86 v 3.9 c 0,1.155 -0.9525,1.86 -1.845,1.86 -0.885,0 -1.845,-0.705 -1.845,-1.86 v -3.9 c 0,-1.155 0.96,-1.86 1.8525,-1.86 z"
           id="path20068" />
      </g>
    </g>
  </g>
  <path
     style="display:inline;fill:#f4f2ef;fill-opacity:1;stroke-width:0.937507"
     id="path21543"
     d="m 45.385752,95.806258 c 1.582511,0.25108 3.118984,0.80529 4.599895,1.39683 0.949788,0.37939 1.894689,0.77405 2.817014,1.21603 0.999027,0.47874 3.953245,1.998582 2.94292,1.54417 -2.389734,-1.07482 -4.722902,-2.27123 -7.084353,-3.40685 1.453923,2.21494 2.78262,3.467052 2.600982,6.370112 -0.186804,2.9856 -1.97805,5.56776 -3.944138,7.64216 -1.054099,1.11216 -2.253213,2.0989 -3.534549,2.93927 -1.119168,0.73401 -2.409427,1.16616 -3.614142,1.74923 -1.023311,-0.004 -3.895233,-0.61705 -3.069933,-0.012 2.707748,1.98506 5.778414,3.68898 9.059107,4.40269 0.841054,0.18297 -0.580177,-1.68163 -0.482163,-2.53676 0.159099,-1.38806 0.610559,-2.755 1.232121,-4.00628 1.928122,-3.88153 3.85293,-5.28646 6.886869,-8.3106 3.082637,-2.10244 4.724768,-3.64056 8.313848,-4.62435 1.043264,-0.285972 4.077398,0.37701 3.231587,-0.297372 -20.085671,-16.014546 -7.887804,-6.8265 -9.742468,-3.31008 -0.529633,1.00418 -1.378368,1.80434 -2.067552,2.70651 -1.397457,0.953352 -2.676728,2.108652 -4.192371,2.860042 -3.774801,1.87137 -8.409872,3.03491 -12.617885,3.14907 -1.957702,0.0532 -3.956873,-0.0853 -5.843402,-0.61107 -1.447523,-0.40341 -5.427385,-2.51314 -3.975585,-2.1254 2.993961,0.7996 5.774462,2.25129 8.661692,3.37693 0.481246,-0.83844 0.791001,-1.80221 1.44374,-2.51531 1.770981,-1.93475 4.720505,-3.733752 7.309286,-4.227472 1.268982,-0.24202 2.61042,-0.13999 3.873313,0.13202 1.022813,0.22029 3.781523,1.791612 2.849612,1.315992 -2.975794,-1.518782 -5.988494,-2.964142 -8.982742,-4.446202 0.09592,0.48534 0.320852,0.96241 0.287772,1.45603 -0.05807,0.86653 -0.727579,2.11229 -1.457282,2.605492 -0.300475,0.20309 -1.378245,0.0445 -1.064268,0.22603 11.705396,6.7669 10.764039,9.76504 11.528643,3.99497 1.870387,-3.11146 1.614508,-3.04577 4.178989,-5.783762 0.76816,-0.82013 1.56432,-1.62074 2.433946,-2.33239 0.625532,-0.51189 1.237935,-1.17384 2.032417,-1.32257 0.346541,-0.0649 0.989925,0.97008 0.672737,0.81616 -4.155738,-2.01658 -8.179046,-4.295366 -12.268568,-6.443054 -1.458577,1.608884 -1.586633,1.914455 -3.431525,3.228352 -0.620032,0.441572 -1.235207,0.927492 -1.950716,1.187252 -0.485013,0.17608 -1.988012,-0.18372 -1.545781,0.0821 11.527571,6.929812 11.244883,9.671842 11.021735,4.28614 0.967323,-2.24949 0.847148,-2.34433 2.394793,-4.352 0.472974,-0.61356 0.968706,-1.21898 1.547215,-1.734234 0.391673,-0.348856 0.810563,-0.840053 1.335017,-0.832872 0.316501,0.0047 0.695967,0.991432 0.40952,0.85675 -3.996119,-1.878933 -7.813502,-4.116621 -11.720253,-6.174933 -0.870075,2.19635 -0.683817,2.132 -2.223433,4.153012 -0.499454,0.655617 -1.006349,1.319466 -1.626668,1.862132 -0.450733,0.394316 -0.951513,0.84791 -1.546722,0.914042 -0.353302,0.03928 -1.166008,-0.804719 -0.846892,-0.648108 3.813023,1.871361 7.563728,3.867101 11.345592,5.800641 0.06916,-0.63871 0.05763,-1.29141 0.207485,-1.91614 0.247257,-1.03077 0.991869,-2.84035 1.686182,-3.720016 0.181518,-0.22997 0.987417,-0.336087 0.734122,-0.483322 -12.634124,-7.344034 -10.449756,-10.210314 -13.226424,-3.774131 -1.361281,1.944802 -2.310682,3.503379 -4.03277,5.162969 -0.61351,0.59125 -1.264308,1.17736 -2.026941,1.55731 -0.430028,0.21423 -1.841537,-0.0849 -1.431749,0.1658 11.718282,7.171712 9.85048,9.985072 12.306197,4.77207 0.451185,-0.51354 0.857306,-1.07047 1.353553,-1.5406 0.363386,-0.34426 2.396894,-2.05458 3.173136,-1.95345 0.407226,0.0531 1.109027,1.16171 0.737398,0.98696 -11.839125,-5.567223 -10.405299,-10.13861 -11.522866,-4.13311 -0.288346,0.65137 -0.53411,1.32331 -0.865039,1.95411 -0.252041,0.48043 -1.407318,2.48736 -2.107592,2.828 -0.206708,0.10056 -0.830864,-0.39359 -0.625618,-0.29008 12.538835,6.323362 10.584228,10.207412 12.540855,3.882382 0.469621,-0.80803 0.878666,-1.654432 1.408863,-2.424072 0.603723,-0.87636 1.934102,-2.60697 3.083451,-3.11674 0.202597,-0.0898 0.843104,0.25759 0.646509,0.15527 -12.856587,-6.691881 -9.920639,-10.143157 -13.407676,-4.575066 -0.487418,0.572967 -0.943947,1.173712 -1.46225,1.718896 -0.454014,0.47757 -0.945415,0.91977 -1.449622,1.34401 -0.312576,0.26298 -0.728079,0.40555 -0.996145,0.71378 -0.249078,0.28641 -0.842128,0.83429 -0.510032,1.01808 12.337687,6.827962 8.93969,7.940142 14.727817,5.182642 0.791281,-0.28602 2.799818,-1.09036 3.706047,-1.12422 0.447031,-0.0167 0.868826,0.21355 1.303239,0.32032 -3.71695,-1.951382 -7.262269,-4.272212 -11.150849,-5.854162 -0.387651,-0.15771 -0.03932,0.85009 -0.187752,1.24139 -0.218787,0.57676 -0.598094,1.07907 -0.89714,1.61861 -0.594961,0.73007 -1.445676,2.01776 -2.433458,2.393812 -0.275715,0.10496 -0.584829,-0.0783 -0.877244,-0.11736 3.884898,2.0483 7.557521,4.56341 11.654692,6.14492 0.479285,0.185 0.183288,-1.02989 0.431787,-1.47954 0.437955,-0.79247 1.066174,-1.46374 1.599261,-2.19561 0.751749,-0.71873 1.458743,-1.48739 2.255247,-2.15618 0.830298,-0.697172 2.906416,-2.358052 4.260353,-2.441452 0.336715,-0.0207 1.139275,0.71932 0.838121,0.56729 -12.965245,-6.545236 -9.100771,-9.700378 -13.770154,-4.46016 -0.719861,0.58246 -1.406602,1.20842 -2.159583,1.74739 -0.857127,0.61351 -2.619462,1.77382 -3.818775,1.94756 -0.238851,0.0346 -0.87903,-0.39494 -0.670224,-0.27391 12.76945,7.401332 8.386463,9.622362 13.90641,5.965422 1.501497,-0.68346 2.874757,-1.37661 4.469915,-1.8311 0.606815,-0.17289 1.229809,-0.35853 1.86068,-0.34773 0.314015,0.006 1.125199,0.55556 0.855744,0.39424 -12.716087,-7.613562 -8.165482,-9.616953 -14.166451,-5.870762 -3.100381,1.27416 -3.374897,1.49441 -6.675937,2.40047 -1.060382,0.29106 -2.128439,0.56604 -3.212883,0.74799 -0.839234,0.1408 -1.694788,0.27855 -2.543585,0.21784 -0.51385,-0.0368 -1.902459,-0.76966 -1.460898,-0.5043 3.789372,2.277272 7.686513,4.370212 11.529769,6.555322 0.267297,-0.27457 0.499159,-0.58879 0.80189,-0.82371 0.966283,-0.74984 2.115472,-1.31429 3.225642,-1.80582 0.792305,-0.3508 2.087204,-0.83832 2.95195,-1.0811 0.348619,-0.0979 0.707402,-0.15504 1.061104,-0.23257 0.194717,0.1006 0.774056,0.41117 0.584149,0.30177 -3.902119,-2.247832 -7.753238,-4.588232 -11.721355,-6.717392 -0.112908,-0.0606 -0.03951,0.26253 -0.113182,0.36736 -0.29288,0.41673 -0.613282,0.81763 -0.97305,1.1782 -1.411311,1.41444 -2.137512,1.79879 -3.818483,2.96839 -0.735506,0.42004 -1.459802,0.860342 -2.206518,1.260112 -0.91527,0.49002 -2.57065,1.29462 -3.603692,1.66617 -0.388221,0.13962 -1.546249,0.11408 -1.193453,0.32796 11.951163,7.24541 12.195194,1.68258 11.895387,6.50519 0.53409,-0.4406 1.034344,-0.92577 1.602272,-1.32179 3.05989,-2.13371 4.639762,-2.91112 8.290269,-4.40271 3.827142,-1.56376 7.639504,-2.75432 11.620211,-3.853972 1.755354,-0.48492 3.532192,-0.88841 5.298288,-1.33261 3.018198,-0.65282 4.81312,-1.10402 7.764491,-1.53588 0.763641,-0.11174 1.530895,-0.2223 2.302341,-0.2448 0.357949,-0.0104 1.358418,0.35083 1.064258,0.1466 -11.725482,-8.140466 -7.506309,-9.194899 -13.259762,-7.221953 -0.69513,0.144441 -1.384802,0.318227 -2.085389,0.433325 -1.509813,0.248036 -3.283799,0.403644 -4.81218,0.487879 -1.268994,0.06994 -2.614766,0.09084 -3.889576,0.05128 -0.458417,-0.01425 -0.915734,-0.05316 -1.3736,-0.07978 -0.859864,-0.07069 -1.558997,-0.192592 -2.335499,-0.556419 -0.739254,-0.346381 -0.139471,-0.08691 -0.791837,-0.459819 -0.120551,-0.06891 -0.249213,-0.122561 -0.37382,-0.183836 -0.835444,-0.350618 -1.715548,-0.584555 -2.544601,-0.950989 3.921651,2.225398 7.917138,4.325442 11.764953,6.676202 0.124734,0.0762 -0.165656,0.24201 -0.264112,0.35004 -0.01539,0.0169 -0.08156,0.0312 -0.06718,0.0135 0.668696,-0.82573 1.678393,-1.30947 2.571856,-1.83076 1.549273,-0.786302 3.17551,-1.401803 4.83212,-1.918557 0.626057,-0.195283 1.694676,-0.499654 2.372661,-0.627717 0.269116,-0.05081 0.543287,-0.06975 0.81493,-0.104654 0.338147,4.97e-4 0.703469,-0.05813 1.014909,0.129554 0.104523,0.063 0.354203,0.328887 0.24736,0.269918 -3.928281,-2.168388 -7.833845,-4.377997 -11.727971,-6.607136 -0.07815,-0.04474 0.182369,0.01312 0.2662,0.04599 0.08224,0.03225 0.14774,0.09689 0.22161,0.145327 0.06446,0.113978 0.235914,0.38472 0.244056,0.526403 0.0468,0.814504 -1.029931,1.387002 -1.579783,1.743988 -1.650037,0.856628 -3.486826,1.258613 -5.313336,1.531512 -0.101948,-0.02503 -0.393575,-0.132826 -0.305844,-0.07519 3.912194,2.571178 7.732426,5.297392 11.79401,7.625422 0.238982,0.13698 0.432211,-0.34576 0.672994,-0.47954 0.581734,-0.32325 1.170528,-0.64018 1.78817,-0.888 2.014964,-0.80849 3.315965,-1.04398 5.439417,-1.56488 2.366016,-0.516043 4.760091,-0.888468 7.164454,-1.16942 0.732915,-0.08569 1.986949,-0.213283 2.766767,-0.255189 0.30719,-0.0165 0.615101,-0.01425 0.922652,-0.02138 0.262366,0.01613 0.932032,0.04313 1.224684,0.107157 0.131685,0.02878 0.255876,0.08531 0.381319,0.134655 0.100967,0.03975 0.209873,0.06816 0.297388,0.132301 0.07277,0.05334 0.248748,0.254908 0.170269,0.210395 -3.957009,-2.244204 -7.881244,-4.545718 -11.821867,-6.818582 0.06358,0.109955 0.28439,-0.209314 0.365523,-0.111154 0.04301,0.05204 0.0055,0.144501 -0.03321,0.199825 -0.134246,0.191865 -0.299556,0.361744 -0.471182,0.52105 -0.792622,0.735723 -1.09791,0.868024 -2.055229,1.49036 -1.88241,1.068196 -3.942045,1.740585 -6.005736,2.355533 -5.713664,1.892274 2.653045,3.597359 10.903978,7.995609 0.316148,0.16853 0.578226,-0.42315 0.867339,-0.63473 0.518848,-0.28585 1.025352,-0.59536 1.556544,-0.85756 1.313752,-0.64849 2.771957,-1.22438 4.142362,-1.73384 1.810176,-0.67294 3.649735,-1.25756 5.493295,-1.830226 1.692815,-0.509328 3.405678,-0.994741 5.174453,-1.128561 0.128532,0.0066 0.271343,-0.03844 0.385587,0.02091 0.0915,0.04753 0.252284,0.313643 0.162208,0.26343 -3.988886,-2.223335 -7.986021,-4.436236 -11.892354,-6.801613 -0.101532,-0.06148 0.20665,-0.345138 0.262625,-0.24047 0.07396,0.138299 -0.07668,0.307991 -0.153347,0.444809 -0.198426,0.35412 -0.444569,0.679305 -0.666853,1.018957 -2.030867,2.488641 -4.737709,4.259376 -7.316746,6.120046 -6.041978,4.611168 -3.254014,1.677528 9.213347,9.81741 0.175224,-0.17193 0.338532,-0.35691 0.525674,-0.51579 0.190081,-0.16136 0.398854,-0.29947 0.603107,-0.44248 0.884329,-0.61916 1.029255,-0.70217 2.036956,-1.26201 1.293545,-0.718652 1.665959,-0.887202 3.042124,-1.580242 1.831045,-0.88177 3.744159,-1.57301 5.657302,-2.25065 0.586242,-0.20765 1.171652,-0.41807 1.762542,-0.61213 0.89189,-0.29292 2.140531,-0.65122 3.055641,-0.91911 1.46276,-0.4384 2.95817,-0.75347 4.47039,-0.95916 0.45441,-0.0162 0.87215,-0.2181 1.25576,-0.44767 0.0551,-0.0251 0.11664,-0.11138 0.16526,-0.0753 0.0501,0.0371 0.0375,0.21927 -0.0156,0.18641 -3.99234,-2.476162 -7.767831,-5.313143 -11.88837,-7.569552 -0.276734,-0.151539 -0.370128,0.517014 -0.604111,0.728666 -1.38436,1.252238 -2.316364,1.700151 -3.979989,2.726571 -3.877755,2.180594 -8.0236,3.820335 -12.236095,5.224115 -1.255523,0.41839 -2.901957,0.91419 -4.194796,1.30923 -1.961757,0.55629 -3.868588,1.27817 -5.768653,2.01234 -5.415371,2.350882 -1.050929,1.5735 10.797575,7.904642 0.239648,0.12806 0.380859,-0.38764 0.571289,-0.58146 0.483426,-0.40942 0.933536,-0.86177 1.450277,-1.22825 1.561004,-1.10707 3.707504,-2.24791 5.392106,-3.07488 3.211634,-1.576572 6.501294,-2.836972 9.837431,-4.111722 0.992505,-0.35824 1.984315,-0.7184 2.977495,-1.07473 2.242951,-0.8047 2.960031,-1.07531 5.169661,-1.77597 1.72834,-0.54806 3.4768,-1.022226 5.22367,-1.506064 1.648,-0.423359 3.28854,-0.872612 4.95899,-1.200252 0.12608,-0.01088 0.25608,-0.06563 0.37827,-0.03263 0.0793,0.02137 0.23955,0.221196 0.16839,0.180086 -3.99482,-2.307805 -7.98394,-4.625875 -11.94842,-6.985411 -0.041,-0.02437 0.155,-0.08874 0.13561,-0.04521 -0.0963,0.216258 -0.23491,0.413222 -0.38206,0.598659 -0.33066,0.416687 -0.69868,0.802315 -1.04801,1.203472 -2.801951,2.532596 -6.16234,4.295493 -9.513412,5.978365 -1.359076,0.709777 -2.693788,1.470235 -3.991336,2.287505 -0.801805,0.50367 -1.491804,1.15817 -2.135565,1.84704 -3.890333,4.428192 -1.244972,1.84584 10.865062,8.899972 0.24164,0.14076 0.38832,-0.40252 0.58247,-0.60377 0.86334,-0.6448 0.8007,-0.61291 1.8501,-1.31168 0.602431,-0.40115 1.194071,-0.82029 1.817571,-1.18785 2.32935,-1.37318 4.81698,-2.464542 7.27294,-3.584102 2.91614,-1.29503 5.85175,-2.57506 8.88015,-3.5892 0.16461,-0.0322 0.32853,-0.12463 0.49386,-0.0964 0.0937,0.016 0.27178,0.2607 0.18946,0.21315 -4.00123,-2.31038 -7.97884,-4.661479 -11.95851,-7.008809 -0.0257,-0.01509 0.098,-0.02053 0.089,0.0075 -0.0572,0.180461 -0.15621,0.345697 -0.25259,0.508626 -0.14552,0.246021 -0.31454,0.47736 -0.47181,0.71604 -1.02146,1.442354 -2.29374,2.673929 -3.47441,3.981273 -0.44283,0.61298 -0.93169,1.19582 -1.35937,1.81982 -0.15957,0.23281 -0.30257,0.47653 -0.4554,0.7138 -0.781751,1.21373 -0.17046,0.23958 -0.933511,1.47037 -0.1491,0.24858 -0.2969,0.49795 -0.44729,0.74575 -0.13957,0.22996 -0.27782,0.46079 -0.42259,0.68751 -0.35908,0.56235 -0.75942,1.0967 -1.11546,1.660752 -2.775378,4.81867 -0.81697,1.26753 11.878011,7.72236 0.15538,0.079 0.20605,-0.28149 0.31756,-0.41547 0.13672,-0.16425 0.28439,-0.31905 0.42658,-0.47858 1.23253,-1.3198 2.57806,-2.53112 3.91883,-3.73945 0.72915,-0.65152 1.45297,-1.31177 2.23778,-1.89602 0.0463,0.0905 0.20782,-0.25893 0.29951,-0.18554 0.0403,0.0323 0.0219,0.10617 0.005,0.155 -0.0577,0.16628 -0.0706,0.56299 -0.22463,0.47787 -20.389496,-11.266919 -15.90623,-9.102872 -11.6985,-7.077462 0.0268,0.10094 0.067,0.19925 0.0805,0.30282 0.0425,0.32552 0.0135,0.69111 -0.0205,1.01314 -0.067,0.63497 -0.13833,1.11413 -0.30794,1.74386 -0.091,0.33795 -0.21407,0.66645 -0.3211,0.99968 -0.46261,1.232272 -1.02999,2.426172 -1.69639,3.561492 -0.10397,0.17713 -0.78307,1.25936 -0.88658,1.42473 -0.64911,0.88295 -1.30973,1.7601 -2.041251,2.57716 -0.33563,0.37489 -0.68196,0.74006 -1.02039,1.11243 -0.15569,0.15838 -0.3083,0.31985 -0.46707,0.47514 -0.425,0.41572 -0.97793,0.96456 -1.489668,1.27171 -3.242668,-3.51088 0.278428,0.31784 12.067549,6.86946 0.0661,0.0367 -0.055,-0.15009 -0.0376,-0.22362 0.0497,-0.20948 0.1422,-0.40724 0.23362,-0.60216 0.32844,-0.70031 0.53238,-0.96562 0.95841,-1.62737 0.18567,-0.25836 0.36647,-0.5203 0.557,-0.77511 0.16659,-0.22275 0.34448,-0.43684 0.51415,-0.65725 0.47442,-0.61631 0.92826,-1.24578 1.43385,-1.83729 2.98341,-4.07746 0.78548,-0.87056 -11.68698,-7.9239 -0.23571,-0.1333 -0.36218,0.40411 -0.563781,0.58492 -0.21907,0.1965 -0.45985,0.36751 -0.69518,0.54423 -1.36918,1.0282 -1.00462,0.74658 -2.6478,1.74213 -2.243435,1.19318 -4.599962,2.16904 -7.010644,2.96904 -1.090973,0.36205 -1.561986,0.48065 -2.638226,0.78105 -0.906793,0.23619 -1.825347,0.44798 -2.757555,0.55706 -0.165805,0.0194 -0.739359,0.11217 -0.937524,-0.055 -0.08716,-0.0735 -0.08258,-0.2126 -0.123866,-0.3189 3.931848,2.31968 7.885289,4.60314 11.795547,6.95904 0.05419,0.0326 -0.159086,0.0924 -0.186396,0.0354 -0.08794,-0.18362 0.352709,-0.76257 0.361034,-0.77283 0.455722,-0.56185 1.177903,-1.15355 1.68614,-1.60825 2.58456,-1.99732 5.578621,-3.33804 8.525271,-4.69988 1.4602,-0.73939 2.90001,-1.51991 4.38225,-2.21489 0.33349,-0.16315 0.62727,-0.31595 0.9708,-0.45203 0.11506,-0.0456 0.22771,-0.12805 0.35122,-0.12034 0.0654,0.004 0.18252,0.18462 0.12681,0.15015 -12.007421,-7.428702 -8.2879,-10.406452 -12.036321,-7.339452 -0.16698,0.13616 -0.32532,0.28366 -0.50093,0.40849 -0.80342,0.571112 -1.28276,0.825762 -2.213318,1.261302 -1.635715,0.7656 -3.281668,1.29848 -4.997859,1.84293 -1.841227,0.55081 -3.710606,0.99835 -5.567479,1.49116 -0.360187,0.0956 -1.802284,0.49827 -2.177476,0.60275 -0.357131,0.11828 -0.716837,0.22907 -1.071394,0.35486 -0.394786,0.14008 -0.781727,0.30159 -1.176187,0.44258 -1.668137,0.59624 -3.368805,1.1065 -5.075843,1.57735 -1.80778,0.48491 -3.63276,0.89896 -5.49087,1.13253 -0.06248,-0.14149 -0.652963,0.17622 -0.768131,-0.0532 -0.06225,-0.12397 -0.06427,-0.48569 0.0537,-0.41269 3.960549,2.45069 7.656988,5.3212 11.67774,7.67181 0.215191,0.12581 0.322602,-0.38271 0.510811,-0.54614 0.290683,-0.25243 0.613909,-0.46473 0.920864,-0.69709 2.162126,-1.41318 4.551372,-2.41966 6.933128,-3.39522 0.305482,-0.12128 0.611822,-0.24042 0.916446,-0.36384 1.196625,-0.48482 0.448738,-0.2023 1.580815,-0.63623 0.208164,-0.0798 1.037774,-0.38667 1.262363,-0.48195 0.19457,-0.0826 0.383703,-0.17737 0.575563,-0.26605 1.012714,-0.49906 2.053537,-0.93809 3.076497,-1.41528 0.39964,-0.14479 0.76187,-0.381 1.07417,-0.66798 0.0588,-0.054 0.12617,-0.10191 0.16982,-0.16869 0.10548,-0.16138 0.18236,-0.33975 0.27354,-0.50963 -4.013672,-2.51426 -7.955692,-5.14669 -12.041003,-7.542792 -0.163104,-0.0957 -0.359036,0.12119 -0.543747,0.16164 -0.540735,0.11841 -1.351328,0.20679 -1.880819,0.26236 -0.909823,0.0955 -1.238197,0.11335 -2.138409,0.1804 -0.307725,0.0184 -0.615358,0.0383 -0.923178,0.0551 -0.741654,0.0403 -0.824793,0.0279 -1.546595,0.096 -0.813594,0.0767 -1.62403,0.19613 -2.43455,0.29897 -1.639365,0.158192 -3.268047,0.405502 -4.90614,0.577592 -0.706812,0.0989 -1.420106,0.15135 -2.120957,0.29165 -0.533144,0.10673 -0.702497,0.16856 -1.248843,0.32506 -1.478628,0.36286 -2.96928,0.67958 -4.425906,1.12586 -0.691207,0.222 -0.418608,0.13827 -1.057474,0.33008 -0.127481,0.0383 -0.249529,0.1175 -0.382594,0.11431 -0.06616,-0.002 -0.208426,-0.16247 -0.152451,-0.12718 12.0361,7.59083 8.502935,10.77442 12.237783,7.16846 1.128581,-0.92335 1.755308,-1.48228 3.124351,-2.30572 0.938981,-0.56477 1.914539,-1.06865 2.899221,-1.54932 2.431678,-1.18704 4.375613,-1.95392 6.929167,-2.8485 1.111739,-0.38947 2.240686,-0.72796 3.361035,-1.09194 2.508272,-0.75008 5.052349,-1.38547 7.631019,-1.84184 0.629011,-0.111322 2.136041,-0.348412 2.860021,-0.368892 0.27973,-0.008 0.55828,0.0396 0.83741,0.0594 3.59667,3.584282 0.19969,0.13332 -11.262093,-6.43091 -0.06188,-0.0354 0.108816,0.1292 0.08494,0.19642 -0.09066,0.25527 -0.243836,0.48683 -0.404966,0.70459 -0.723464,0.97774 -1.108648,1.21104 -2.065496,2.04635 -2.079925,1.57503 -4.413042,2.78538 -6.849977,3.70663 -1.263834,0.477782 -1.874778,0.620412 -3.14669,0.976322 -1.140084,0.26961 -2.291126,0.49646 -3.456496,0.62347 -0.847215,0.0923 -1.701653,0.11813 -2.55194,0.16891 -0.267814,0.0108 -0.535554,0.0236 -0.80344,0.0324 -0.745274,0.0246 -0.817727,0.01 -1.559502,0.0554 -0.727158,0.0449 -1.448284,0.12768 -2.170293,0.22205 -0.717323,0.0973 -1.434058,0.2335 -2.132254,0.42698 -0.269788,0.0748 -0.534551,0.16661 -0.801826,0.24992 -0.282674,0.0823 -0.564208,0.16862 -0.848022,0.2469 -0.28681,0.0791 -0.575786,0.15013 -0.863679,0.22521 -1.537058,0.40113 -3.054367,0.87145 -4.584874,1.29593 -0.217706,0.0587 -0.435126,0.1184 -0.653118,0.17599 -0.280697,0.0742 -0.911551,0.23295 -1.198158,0.3136 -0.547168,0.15398 -1.084401,0.32692 -1.636497,0.46337 -0.206398,0.0526 -0.64072,0.17951 -0.87312,0.1825 -0.09178,9.4e-4 -0.180204,-0.0351 -0.270307,-0.0525 4.037882,2.1637 8.184391,4.13589 12.113645,6.49111 0.18883,0.11319 -0.132129,0.53006 -0.350245,0.55995 -0.203777,0.0279 0.186187,-0.36682 0.27928,-0.55023 0.30123,-0.34478 0.577171,-0.71343 0.90369,-1.03438 0.743562,-0.73087 1.732948,-1.46848 2.577122,-2.07496 1.052004,-0.7558 2.148448,-1.44637 3.240125,-2.14243 1.517357,-0.97441 3.07486,-1.88428 4.653594,-2.75503 1.383337,-0.72031 2.813336,-1.35381 4.265394,-1.92254 0.224383,-0.13848 0.740986,-0.23656 0.930698,-0.43246 0.109168,-0.11274 0.404301,-0.2932 0.274999,-0.38212 -11.581677,-7.965022 -7.720006,-9.723686 -12.3293,-7.466502 -0.197927,0.0616 -0.392181,0.13648 -0.593782,0.18465 -0.401158,0.0959 -1.668313,0.29649 -1.991517,0.3448 -1.560526,0.23328 -3.124943,0.3686 -4.69628,0.50522 -2.845102,0.26627 -5.703123,0.32463 -8.554002,0.498 -1.262994,0.10146 -2.538122,0.2103 -3.762127,0.55457 -0.108842,0.056 -0.223108,0.10238 -0.326524,0.16781 -0.648074,0.41 -1.221846,1.23305 -1.673452,1.83992 -0.10958,0.15343 -0.217031,0.3084 -0.328741,0.46028 -0.05224,0.0711 -0.83502,1.03855 -0.737233,1.10725 11.563781,8.124272 7.679647,9.895792 12.459596,7.445752 1.677355,-0.52204 3.399774,-0.91738 5.13985,-1.16033 0.343642,9.4e-4 0.647489,-0.0708 0.936315,0.16798 0.101443,0.0838 0.332482,0.39362 0.217546,0.32949 -3.910505,-2.18171 -7.766643,-4.4595 -11.641888,-6.703252 -0.08275,-0.0479 0.186292,0.0576 0.262853,0.11487 0.07876,0.059 0.127437,0.14987 0.191156,0.22481 0.03422,0.101352 0.08439,0.198652 0.102657,0.304042 0.124201,0.71697 -0.296667,1.70408 -0.561226,2.36527 -0.212429,0.60549 -0.54353,1.17068 -0.723033,1.78841 -0.0063,0.0218 -0.258799,1.12612 -0.261953,1.13989 -0.203512,1.01273 -0.509689,1.9962 -0.904889,2.9493 -0.214567,0.54301 -0.540157,1.01298 -0.884723,1.47717 -0.266941,0.4021 -0.558627,0.86987 -1.009423,1.08326 -0.01094,-0.0383 -0.04738,-0.0778 -0.03281,-0.11494 1.974647,-5.02795 10.020002,5.75536 11.992518,6.93754 0.134159,0.0804 0.100323,-0.29946 0.183813,-0.43172 0.533985,-0.84591 0.741786,-0.91704 1.54356,-1.63568 2.07131,-1.57864 4.470053,-2.63413 6.97959,-3.29517 0.42141,-0.111 0.849656,-0.19422 1.274483,-0.29132 1.289127,-0.18231 2.680371,-0.4956 3.954448,-0.0493 0.12877,0.0451 0.248554,0.11264 0.37283,0.16896 3.664572,3.15113 0.752867,0.61866 -11.485546,-6.46486 -0.06196,-0.0359 0.14358,0.003 0.214333,0.0139 0.257557,0.0399 0.309641,0.16454 0.407975,0.38823 0.208859,0.79141 -0.150166,1.35391 -0.582311,1.99378 -0.467073,0.64615 -1.097126,1.13676 -1.785763,1.52632 -0.156357,0.11107 -0.337497,0.1441 -0.495948,0.24993 -0.04674,0.0312 -0.08436,0.0761 -0.134118,0.10225 -0.05461,0.0287 -0.122092,0.018 -0.182879,0.0286 -0.09861,0.0194 -0.971514,0.40525 -1.000322,0.32274 -0.03691,-0.10574 0.04842,-0.21868 0.07264,-0.32802 3.938814,2.50692 7.855654,5.04871 11.816441,7.52077 0.03541,0.0221 0.02252,-0.0828 0.04851,-0.11546 0.135839,-0.17067 0.279139,-0.33609 0.433527,-0.49018 0.551271,-0.55023 1.096514,-0.99989 1.737739,-1.45074 0.375029,-0.26367 0.769924,-0.49791 1.154887,-0.74686 1.992213,-1.19393 4.15563,-2.06443 6.317308,-2.89771 1.410328,-0.49484 2.792904,-1.05972 4.180402,-1.61351 0.821755,-0.33188 1.654555,-0.63481 2.485439,-0.94268 0,0 -11.405261,-7.62563 -11.405261,-7.62563 v 0 c -0.789018,0.36016 -1.594832,0.67716 -2.406365,0.98312 -1.357563,0.54929 -2.691782,1.15406 -4.033286,1.74112 -0.644059,0.29745 -1.092931,0.49823 -1.731034,0.82051 -1.492057,0.75362 -2.912221,1.63933 -4.366162,2.46191 -1.72248,1.01202 -0.801375,0.45849 -2.430584,1.4621 -0.161749,0.0996 -1.516783,0.92123 -1.757251,1.10683 -0.193634,0.14945 -0.729407,0.3588 -0.532907,0.50446 3.768845,2.79377 7.814627,5.19318 11.721942,7.78976 0.0916,-0.0958 0.172134,-0.20348 0.2748,-0.28727 0.05825,-0.0475 0.133066,-0.0702 0.201479,-0.10143 0.301063,-0.13727 0.628133,-0.20438 0.92426,-0.35387 0.321819,-0.19542 0.617516,-0.43217 0.897722,-0.68393 0.662194,-0.62876 1.332069,-1.2586 1.841081,-2.02373 0.429756,-0.62357 0.884785,-1.26702 1.121743,-1.99597 0.08782,-0.27015 0.09741,-0.52617 0.123636,-0.8048 0.01148,-0.36566 0.04108,-0.75469 -0.03013,-1.11674 -0.0233,-0.11846 -0.0032,-0.28419 -0.106903,-0.34603 -11.789847,-7.03185 -7.527101,-6.8169 -12.548331,-7.0061 -0.381634,0.004 -0.501558,-0.004 -0.900875,0.0425 -1.108846,0.12835 -2.183727,0.45809 -3.245903,0.78667 -1.363509,0.48523 -2.735591,0.97143 -4.048338,1.58499 -1.523942,0.71225 -2.971868,1.58267 -4.395602,2.47382 -0.545729,0.37705 -1.735693,1.17318 -2.271277,1.63529 -0.2013,0.17367 -0.753763,0.41498 -0.546251,0.58119 9.012945,7.21903 8.528105,11.66733 12.083675,7.39898 0.384027,-0.46812 0.778809,-0.92719 1.14977,-1.40589 0.379489,-0.57997 0.702191,-1.19269 0.908846,-1.85722 0.168624,-0.48825 0.346488,-0.97604 0.494621,-1.47099 0.159905,-0.53429 0.147626,-0.5607 0.274525,-1.10307 0.04372,-0.18688 0.09053,-0.37304 0.135789,-0.55955 0.25425,-0.93755 0.564534,-1.8577 0.935152,-2.75616 0.205051,-0.5389 0.386361,-1.08181 0.555182,-1.63328 0.05048,-0.16489 0.316613,-1.05953 0.347179,-1.21999 0.03473,-0.18235 0.03589,-0.3695 0.05383,-0.55426 -0.0055,-0.17649 0.0012,-0.3538 -0.01662,-0.52948 -0.01695,-0.16699 0.05475,-0.40678 -0.08749,-0.49589 -0.711775,-0.44593 -7.84875,-7.986752 -12.584578,-7.104392 -0.28518,0.0532 -0.717847,0.18342 -0.989426,0.26042 -1.396645,0.42424 -2.850286,0.82726 -4.319253,0.86711 -0.259034,0.007 -0.517567,-0.0267 -0.776351,-0.0401 -3.854461,-3.22421 -1.04661,-0.85158 11.055968,7.228762 0.03999,0.0267 -0.144323,0.0417 -0.14412,-0.007 4.72e-4,-0.11178 0.0918,-0.20408 0.145422,-0.30216 0.171318,-0.31339 0.294644,-0.47972 0.496398,-0.77775 0.463578,-0.53944 0.955607,-1.06102 1.682893,-1.20144 1.039242,-0.31696 2.104327,-0.52338 3.185226,-0.64098 2.67999,-0.34997 5.3693,-0.62825 8.065477,-0.81939 1.677789,-0.11195 3.355531,-0.21527 5.034705,-0.30431 0.792552,-0.042 1.584507,-0.10058 2.377899,-0.1214 0.248351,-0.007 0.496854,0.004 0.745281,0.007 4.846155,1.52436 -0.649183,-0.16623 -11.27971,-7.503492 -0.09656,-0.0666 0.156968,-0.17484 0.227174,-0.26884 0.02081,-0.0278 -0.05023,0.0484 -0.07809,0.0693 -0.195735,0.14639 -0.312493,0.20902 -0.533717,0.34434 -1.302485,0.78667 -2.66254,1.4673 -4.018454,2.1562 -1.617858,0.87104 -3.218707,1.79003 -4.638105,2.96703 -2.275325,1.861602 -4.455043,3.860912 -6.981751,5.389342 -0.319231,0.25498 -0.700619,0.44741 -0.957693,0.76497 -0.262891,0.32474 -0.915583,0.88818 -0.566673,1.11803 13.152229,8.66411 8.040049,8.02461 13.469599,6.25415 1.122374,-0.36552 2.2592,-0.68359 3.384516,-1.04007 1.472609,-0.4666 2.938684,-0.95759 4.434226,-1.34726 1.537114,-0.40672 3.088125,-0.75439 4.6747,-0.90201 0.427742,-0.0467 0.906332,-0.10235 1.335305,-0.13583 1.023114,-0.0798 2.050844,-0.0909 3.072565,-0.19207 0.633338,-0.0596 1.037917,-0.0855 1.667475,-0.19474 1.397566,-0.24245 2.754296,-0.68254 4.077805,-1.18354 0.462768,-0.18585 0.929196,-0.36281 1.388303,-0.55753 3.017816,-1.27997 5.925081,-2.82654 8.695872,-4.57564 1.10243,-0.75732 1.74854,-1.14145 2.71863,-2.01586 0.30599,-0.27581 0.61183,-0.55813 0.8628,-0.88479 0.2277,-0.296392 0.86169,-0.746392 0.56228,-0.970102 -10.69001,-7.986988 -7.453591,-8.84041 -12.377813,-7.33229 -3.296307,1.05538 -6.501213,2.3759 -9.72807,3.62104 -1.065778,0.41252 -2.133008,0.8213 -3.197334,1.23755 -1.163077,0.45487 -2.319583,0.92652 -3.484836,1.37579 -1.223914,0.47187 -2.454547,0.92613 -3.682445,1.38754 -1.12845,0.42403 -2.250839,0.864722 -3.386599,1.268772 -0.950284,0.33807 -1.916249,0.63047 -2.870494,0.95719 -0.553679,0.18958 -1.102019,0.3944 -1.653029,0.59159 -0.295773,0.14057 -1.146311,0.22129 -0.88732,0.4217 3.68273,2.84973 7.661766,5.29648 11.562844,7.83913 0.07234,0.0472 0.111554,-0.13475 0.182803,-0.18353 0.08907,-0.0609 0.192869,-0.0972 0.291453,-0.14118 0.382604,-0.17066 0.501844,-0.20544 0.911585,-0.35509 1.410045,-0.43102 2.828863,-0.84034 4.290545,-1.05921 1.131152,-0.14526 2.264863,-0.27534 3.382297,-0.50875 1.561015,-0.28286 3.128984,-0.52797 4.711473,-0.65547 1.611408,-0.13535 3.22674,-0.23123 4.825939,-0.48395 1.06273,-0.11674 2.123069,-0.23202 3.19488,-0.18611 0.33225,0.0143 0.66664,0.0317 0.99318,0.0947 0.21126,0.0408 0.40585,0.14298 0.60878,0.21448 -3.866627,-2.47906 -7.733262,-4.95812 -11.599888,-7.437182 0.08672,-0.10788 0.175085,-0.21446 0.260168,-0.32364 0.04793,-0.0615 -0.111534,0.10996 -0.17516,0.15504 -0.212669,0.15067 -0.446533,0.26526 -0.663155,0.409952 -0.938731,0.53961 -1.90771,1.02512 -2.904753,1.44816 -1.36034,0.61101 -2.689293,1.28785 -4.025976,1.94847 -2.335321,1.16257 -4.639808,2.38589 -6.935121,3.62527 -0.387325,0.2136 -0.775575,0.42554 -1.161975,0.64081 -0.337637,0.1881 -1.300551,0.31429 -1.010115,0.56929 3.474646,3.05079 7.408955,5.53436 11.113432,8.30155 0.105842,-0.0907 0.199424,-0.1981 0.317529,-0.27215 0.08947,-0.0561 0.643086,-0.22317 0.698034,-0.24058 1.704123,-0.51636 3.422229,-0.98652 5.116409,-1.53438 1.684935,-0.55403 3.372413,-1.11277 5.074054,-1.61369 0.42396,-0.1248 0.852119,-0.23492 1.276819,-0.35716 0.358915,-0.10331 0.715974,-0.21298 1.073961,-0.31947 2.467357,-0.75209 4.914877,-1.56933 7.344218,-2.43636 1.40358,-0.51028 1.97657,-0.72394 3.40837,-1.22181 2.92352,-1.01657 0.6813,-0.19602 3.3165,-1.18966 0.43356,-0.16349 0.87264,-0.31284 1.30155,-0.48816 0.27155,-0.11101 0.53229,-0.24684 0.79844,-0.37026 4.33753,-3.10281 0.98773,-0.45057 -11.194531,-8.080992 -0.0819,-0.0513 -0.11661,0.15604 -0.18956,0.21948 -0.3265,0.28393 -0.80536,0.47488 -1.15812,0.71925 -1.36928,0.802852 -2.733638,1.612542 -4.088111,2.440272 -2.696176,1.77417 -5.440387,3.47447 -8.271945,5.02594 -1.175582,0.6558 -2.230973,1.13804 -3.069341,2.22043 -0.02955,0.0382 -0.814308,1.22524 -0.668134,1.32579 3.865768,2.65909 8.002362,4.90124 12.003542,7.35185 1.20495,-0.5271 2.487799,-0.86078 3.705709,-1.35648 3.149851,-1.28948 6.190451,-2.82021 9.306811,-4.18627 1.00183,-0.41065 2.27457,-0.95008 3.31931,-1.31966 0.30087,-0.10643 0.59624,-0.26153 0.91466,-0.28293 0.1313,-0.008 0.45128,0.27071 0.34125,0.19851 -11.6807,-7.66559 -14.540801,-11.154692 -11.52817,-7.4987 -0.573901,1.22441 -1.346701,2.34737 -2.068511,3.48652 -0.19909,0.2739 -0.39118,0.55301 -0.59726,0.82169 -0.19864,0.25899 -0.412,0.50635 -0.61645,0.76078 -3.772128,4.69418 -0.463666,1.70927 11.232751,8.37122 0.0798,0.0455 0.11237,-0.14534 0.16856,-0.21801 0.57622,-0.69311 1.14265,-1.39347 1.70477,-2.09822 1.07902,-1.26275 2.14887,-2.53972 3.07373,-3.9216 0.1671,-0.25466 0.34484,-0.50265 0.5013,-0.76398 0.86071,-1.43761 1.4224,-3.03157 2.09303,-4.55954 0.44325,-1.10422 0.36799,-0.90569 0.78083,-1.97544 0.10119,-0.26223 0.2127,-0.5208 0.30141,-0.78751 0.16932,-0.50902 0.2436,-1.04166 0.36777,-1.56169 1.10117,-4.995352 0.33996,-0.91065 -11.88891,-7.858252 -0.0274,-0.0156 -0.77811,0.82962 -0.899,0.95784 -0.62889,0.71369 -1.19891,1.47906 -1.86606,2.15938 -1.24374,1.28978 -2.556531,2.52871 -4.013901,3.5758 -0.17764,0.11118 -0.34441,0.242012 -0.53293,0.333542 -0.10717,0.052 -0.44699,0.0309 -0.34513,0.0927 3.978491,2.41299 8.107131,4.57404 12.067371,7.01688 0.10486,0.0647 -0.13623,0.2234 -0.24892,0.27321 -0.13089,0.0578 0.27245,-0.53802 0.11254,-0.41431 0.42728,-1.10884 0.93173,-2.19495 1.57618,-3.19525 0.31101,-0.49678 0.56567,-0.92218 0.90969,-1.39738 0.16064,-0.2219 0.3381,-0.43117 0.50309,-0.64985 0.43826,-0.58084 0.84799,-1.18475 1.33556,-1.72709 1.09684,-1.381502 2.15819,-2.795132 3.3654,-4.084592 0.21589,-0.22382 0.43156,-0.44784 0.64766,-0.67145 0.18339,-0.18977 0.38457,-0.36374 0.55081,-0.5687 0.16998,-0.20959 0.67556,-0.5162 0.45401,-0.67026 -15.22767,-10.588111 -8.16465,-9.990467 -12.65915,-6.836008 -2.41524,1.66504 -5.00438,3.059619 -7.596741,4.425098 -2.453913,1.22842 -4.906132,2.46901 -7.473851,3.44896 -0.792427,0.30242 -1.605948,0.54637 -2.407933,0.82244 -1.880078,0.64718 -0.919903,0.3744 -2.447206,0.7605 -3.408918,-3.68988 -0.187322,-0.15891 11.28231,7.454932 0.0231,0.0154 -0.0219,-0.0565 -0.0117,-0.0823 0.0307,-0.0776 0.0817,-0.14579 0.12905,-0.21446 0.13662,-0.19801 0.28429,-0.36384 0.43922,-0.54772 0.58353,-0.60865 1.21854,-1.15351 1.90563,-1.64365 0.670591,-0.4998 1.344561,-0.99406 2.033931,-1.46793 0.23927,-0.16446 0.48467,-0.319972 0.72193,-0.487312 0.25787,-0.18188 0.50878,-0.37342 0.76317,-0.56014 1.16201,-0.87933 2.31398,-1.77393 3.5004,-2.62042 1.85417,-1.32294 3.76218,-2.56963 5.71996,-3.733934 0.7073,-0.415175 1.96128,-1.045583 2.60207,-1.715938 0.22335,-0.233645 0.80996,-0.615192 0.54582,-0.801493 -28.021972,-19.763903 -7.65375,-9.448468 -12.31638,-7.131576 -0.10721,0.05328 -0.22203,0.08964 -0.33304,0.134466 -1.46456,0.551627 -2.93861,1.079529 -4.382451,1.684747 -0.42513,0.17611 -0.85345,0.344727 -1.27541,0.52833 -1.10096,0.479056 -2.186434,0.99303 -3.283561,1.480821 -3.488183,1.550871 -0.95487,0.417837 -4.771639,2.062262 -0.929708,0.400559 -1.855599,0.809912 -2.783399,1.214878 -3.267436,1.407114 -6.533038,2.819867 -9.811837,4.200367 -2.425548,1.02126 -3.895918,1.64503 -6.332477,2.53622 -0.758854,0.27756 -1.528878,0.52357 -2.293318,0.78536 -0.33384,0.13552 -1.285958,0.18541 -1.001519,0.40656 12.734816,9.901482 7.638504,10.036132 12.383848,7.120102 1.582813,-0.91684 3.256219,-1.66165 4.878456,-2.50456 1.996189,-1.01303 3.992867,-2.02076 6.02292,-2.965262 2.530172,-1.17716 3.727171,-1.69724 6.350466,-2.79168 1.11333,-0.46448 2.23344,-0.91258 3.350161,-1.36888 4.99036,-1.99485 0.98722,-0.40748 5.23736,-2.06401 0.47905,-0.18672 1.83037,-0.23759 1.43483,-0.56606 -3.5927,-2.983505 -7.727751,-5.245663 -11.591616,-7.868496 -0.207527,0.247137 -0.09596,0.166904 -0.303781,0.278698 -0.350196,0.09176 -0.716977,0.133069 -1.047401,0.285837 -1.251347,0.537019 -2.519578,1.034428 -3.779316,1.551135 -1.501342,0.604561 -3.010821,1.189003 -4.512019,1.793676 -1.898313,0.764621 -3.782095,1.565983 -5.694304,2.296217 -0.63198,0.243058 -1.268101,0.475597 -1.895939,0.729155 -2.535807,1.024108 -0.538028,0.288762 -2.885209,1.218508 -0.372316,0.14747 -0.747203,0.28893 -1.126017,0.4188 -0.237305,0.0814 -0.470584,0.20782 -0.721356,0.21458 -0.124599,0.004 -0.216115,-0.12425 -0.324173,-0.18638 3.847263,2.56455 7.68795,5.13899 11.541789,7.693652 0.02888,0.0191 -0.07606,-0.0521 -0.0617,-0.0836 0.05783,-0.127 0.163234,-0.22662 0.252027,-0.33425 0.484373,-0.58721 1.027897,-1.125362 1.585364,-1.642082 2.317814,-2.21474 4.633985,-4.4474 7.222873,-6.34922 0.669558,-0.514497 1.403494,-0.951853 1.874807,-1.676893 0.183939,-0.282949 0.708071,-0.726437 0.429444,-0.916863 -16.325483,-11.157388 -7.576582,-8.386789 -12.868027,-6.83269 -1.582294,0.466758 -3.095679,1.121547 -4.587925,1.821215 -2.370687,1.059685 -4.752776,2.097534 -7.198122,2.975885 -0.736168,0.264424 -1.4744,0.524769 -2.222806,0.752265 -0.678134,0.206129 -1.369672,0.365262 -2.054509,0.547898 -0.450533,0.08953 -1.70702,-0.02231 -1.351599,0.268652 12.417444,10.166333 7.328061,9.970073 12.000443,7.364641 1.802988,-0.99763 3.594726,-2.01661 5.439464,-2.93672 1.007069,-0.51377 1.708956,-0.82733 2.628804,-1.45118 0.590704,-0.400613 1.101164,-0.798275 1.472911,-1.418558 0.225209,-0.375772 0.193404,-0.627567 0.208042,-1.023954 -8.656574,-5.058296 -8.276414,-8.015261 -14.240186,-6.829947 -3.205445,0.756679 -6.331344,1.820209 -9.548837,2.533095 -2.298252,0.52767 -3.639119,0.853163 -5.954146,1.313817 -0.853179,0.169773 -1.715052,0.294658 -2.56661,0.472372 -0.508485,0.106126 -1.910908,0.0465 -1.511595,0.378753 10.401294,8.653562 7.550951,10.343232 11.69635,7.731072 1.729184,-0.71235 3.506575,-1.30639 5.20244,-2.099 0.324477,-0.19995 0.663837,-0.37755 0.973434,-0.59984 0.760845,-0.54631 1.315406,-1.128172 1.629577,-2.018025 0.07316,-0.207236 0.139634,-0.419863 0.166175,-0.638021 0.01805,-0.148332 -0.02278,-0.297977 -0.03417,-0.446966 -0.01552,-0.158635 -0.01846,-0.319005 -0.04654,-0.475906 -0.02617,-0.14627 0.01185,-0.354265 -0.115684,-0.430522 -7.291033,-4.359332 -8.378406,-8.497328 -13.660646,-6.564008 -0.924523,0.383761 -1.82859,0.804854 -2.741431,1.215454 -1.258709,0.566172 -1.774534,0.786825 -3.091942,1.325589 -0.590062,0.241309 -1.183237,0.474933 -1.774855,0.712401 -1.073795,0.454485 -2.903517,1.103007 -3.762484,1.946988 -0.219936,0.216105 -0.403799,0.474876 -0.537959,0.752499 -0.118948,0.246143 -0.43859,0.644771 -0.208933,0.793075 3.932279,2.539275 8.134366,4.634122 12.201547,6.951172 0.839791,0.25648 1.650308,0.59932 2.433156,0.99633 0.127768,0.0563 0.251641,0.12242 0.383302,0.16888 0.948709,0.33481 1.981578,0.20991 2.959594,0.13618 3.995629,-0.46346 7.984146,-1.04778 12.007447,-1.21053 6.158002,-0.12066 3.285763,0.3318 -8.521553,-7.931323 -0.135836,-0.09506 -0.03257,0.372762 -0.168234,0.468069 -0.479919,0.337156 -1.047852,0.528529 -1.585149,0.763703 -0.876047,0.383431 -1.763407,0.740902 -2.653158,1.09137 -1.23604,0.486857 -2.482465,0.946939 -3.723697,1.420408 -1.596174,0.564583 -3.18512,1.150043 -4.788523,1.693763 -4.02934,1.36636 -7.772982,2.52452 -11.853259,3.75585 -1.940375,0.58555 -3.882794,1.16464 -5.830917,1.72388 -1.588772,0.456092 -3.198247,0.840012 -4.77936,1.321972 -0.861558,0.26263 -1.696065,0.60694 -2.544098,0.91042 -5.038967,4.52031 -3.272205,1.93965 10.411245,7.96629 0.329838,0.14527 0.582042,-0.42532 0.877617,-0.63155 0.618045,-0.43122 2.56295,-1.74556 3.076442,-2.08109 0.702259,-0.45886 1.413832,-0.9033 2.120749,-1.35496 0.792216,-0.47094 1.584512,-0.94175 2.376647,-1.41284 0.728445,-0.4332 1.46669,-0.85036 2.185092,-1.30003 0.549789,-0.34412 1.11909,-0.66635 1.618216,-1.08055 0.401466,-0.33316 1.473438,-0.82138 1.065419,-1.14648 -3.648052,-2.906662 -7.807873,-5.114532 -11.848363,-7.445072 -0.180552,-0.10415 -0.368601,0.19471 -0.552902,0.29206 -1.181323,0.60037 -2.347748,1.22815 -3.521854,1.84254 -0.573604,0.30015 -1.14797,0.59885 -1.722495,0.89723 -0.61722,0.32056 -1.249051,0.61423 -1.852737,0.9596 -0.588436,0.33664 -1.146953,0.72308 -1.720428,1.08462 3.648019,2.648232 7.152488,5.506422 10.944059,7.944702 0.274951,0.17682 0.620712,-0.20533 0.931035,-0.3081 0.684016,-0.22652 1.369093,-0.44986 2.051983,-0.67975 3.362412,-1.13194 6.713531,-2.32188 10.194864,-3.05097 7.251411,-1.50566 4.793382,-0.13256 -6.876469,-8.836342 -0.140017,-0.10442 -0.146597,0.34014 -0.294089,0.43371 -0.4634,0.29401 -0.987233,0.48049 -1.490777,0.69871 -0.724286,0.31388 -1.453664,0.61688 -2.191614,0.89713 -0.816212,0.30997 -1.646329,0.58203 -2.469493,0.87304 -0.778874,0.22392 -2.885874,0.0759 -2.336621,0.67177 2.963863,3.215632 6.839923,5.454962 10.366856,8.040602 0.135448,0.0993 -0.173427,-0.35953 -0.07806,-0.49776 0.296058,-0.42911 0.75039,-0.72535 1.151596,-1.05824 1.337281,-1.1096 2.885122,-2.19488 4.283398,-3.21023 5.980409,-3.707392 3.811334,-1.303992 -7.587594,-9.989519 -0.1858,-0.141573 -0.211553,0.423472 -0.369935,0.595167 -0.63064,0.683658 -3.087878,2.79622 -3.520813,3.16653 -0.830768,0.71059 -1.67445,1.40595 -2.511675,2.10892 -0.796129,0.66407 -1.626329,1.28931 -2.388386,1.99223 -0.581541,0.5364 -2.216851,1.18268 -1.63585,1.719682 7.605721,7.02959 8.69833,10.90204 12.35713,6.90856 1.037168,-1.13204 1.323511,-1.55269 2.314848,-2.81704 0.428502,-0.56352 0.891111,-1.10265 1.285506,-1.69053 0.371926,-0.5544 1.507014,-1.28514 1.009182,-1.72994 -3.465046,-3.095922 -7.588584,-5.385202 -11.599122,-7.731882 -0.340409,-0.199183 -0.774179,0.15702 -1.151751,0.271 -1.229051,0.37103 -2.401352,0.91788 -3.65698,1.20854 -0.679542,0.1443 -2.576604,-0.007 -2.038628,0.43289 3.255373,2.65962 7.351577,4.12944 10.712843,6.653902 0.315795,0.23718 -0.640787,0.82414 -0.993252,0.64596 -0.307357,-0.15537 0.157615,-0.68449 0.343488,-0.97442 0.642335,-1.00195 2.069566,-2.319412 2.869789,-3.115832 5.184971,-4.06461 2.54277,-1.11759 -9.210361,-9.25578 -0.163105,-0.112932 0.289064,0.353759 0.238063,0.545479 -0.146335,0.550101 -0.480844,1.03557 -0.786406,1.515827 -1.013731,1.593302 -2.230857,2.999544 -3.418058,4.461304 -4.571891,5.239722 -2.859224,2.02093 9.646679,9.892012 0.221467,0.13939 0.186365,-0.48979 0.300746,-0.72515 0.869503,-1.78916 1.915932,-3.48826 2.857678,-5.238522 3.149041,-5.8885 1.973039,-2.19074 -10.134297,-10.32179 -0.25901,-0.173954 -0.59553,0.202268 -0.862273,0.364109 -1.040581,0.631336 -2.164913,1.637619 -3.063357,2.417212 -0.569696,0.494338 -1.130231,0.999139 -1.695347,1.498699 -4.773571,4.29027 -3.191465,1.9522 9.695468,9.004252 0.371923,0.20352 0.512245,-0.67582 0.776106,-1.00767 0.784812,-0.98704 2.962593,-3.670042 3.676593,-4.458802 0.75905,-0.83853 1.57909,-1.61976 2.368636,-2.42964 5.779973,-4.217898 3.86183,-1.709542 -8.906946,-9.132136 -0.270378,-0.157172 0.105744,0.634363 0.02982,0.93775 -0.158854,0.63482 -0.46171,1.225168 -0.721368,1.825838 -0.626479,1.449236 -1.255172,2.659191 -1.959128,4.066811 3.794363,2.728547 7.422561,5.704437 11.383091,8.185649 0.266714,0.16708 0.51441,-0.368712 0.733048,-0.595102 0.808819,-0.83749 2.076369,-2.55184 2.739902,-3.37018 0.570664,-0.70379 1.154224,-1.39714 1.742241,-2.08651 0.528758,-0.61989 1.071919,-1.22735 1.607878,-1.841036 -3.613493,-2.853668 -7.066964,-5.922568 -10.840479,-8.561002 -0.220729,-0.154333 -0.253298,0.475966 -0.39727,0.703588 -0.668047,1.056189 -1.538251,2.240744 -2.249452,3.228014 -1.369727,1.901424 -1.791122,2.468878 -3.173387,4.355939 -3.206965,5.994317 -2.388237,2.802427 10.92891,9.180059 0.428226,0.20508 0.81508,-0.48899 1.202567,-0.76338 2.318827,-1.642012 1.40374,-1.202602 3.891716,-2.907782 0.702337,-0.48136 1.438338,-0.91166 2.157507,-1.36749 -3.396522,-2.83639 -6.678708,-5.815588 -10.189563,-8.509158 -0.229845,-0.176336 0.317575,0.580504 0.200726,0.845593 -0.306761,0.695921 -0.895054,1.230816 -1.375778,1.820151 -0.704196,0.863294 -1.437614,1.702644 -2.177321,2.535713 -2.544187,2.865311 -2.528281,2.768981 -5.226285,5.462801 -0.704548,0.84509 -2.924179,1.791252 -2.113647,2.535302 3.452301,3.16917 8.014608,4.91171 12.297716,6.81355 0.412357,0.1831 0.712805,-0.56289 1.004967,-0.9067 0.779092,-0.91682 1.662472,-2.32431 1.816554,-3.54548 0.09391,-0.74428 -0.133248,-1.49444 -0.199872,-2.24166 -3.960171,-2.564212 -7.782537,-5.354972 -11.880513,-7.692652 -1.662698,-0.948487 -4.556353,-0.492258 -6.134941,-0.0196 -2.188741,0.65538 -6.623728,2.82143 -8.33331,4.3414 -1.02916,0.91502 -1.662422,2.19593 -2.493634,3.293882 3.630331,2.82869 7.07959,5.90654 10.890991,8.48608 2.208032,1.49438 6.166009,1.1925 8.404311,0.96982 2.219679,-0.22082 4.418251,-0.64062 6.60017,-1.10426 7.207232,-1.5315 6.179223,-1.43171 12.433261,-4.1647 1.16004,-0.85163 2.516522,-1.48604 3.480119,-2.5549 0.658047,-0.72993 1.979198,-2.03336 1.236197,-2.676612 -3.488451,-3.02012 -7.791578,-5.07011 -12.097994,-6.72696 -0.873718,-0.336156 -1.774983,0.62236 -2.595,1.07397 -2.882978,1.58777 -4.893392,3.41995 -7.47763,5.49691 -2.875998,2.690242 -5.548203,4.972072 -7.978031,8.094762 -0.945052,1.21452 -1.894261,2.46801 -2.493228,3.88556 -0.425966,1.00811 -1.33792,2.51663 -0.518457,3.24205 9.787754,8.66443 8.383613,8.40856 14.848769,6.31341 1.083257,-0.73988 2.22161,-1.40493 3.24977,-2.21965 2.122365,-1.68175 5.321462,-4.68703 6.785078,-6.97023 0.828789,-1.29289 1.611853,-2.69117 1.890635,-4.20138 0.56062,-3.03697 -0.82601,-4.60523 -2.152651,-7.03707 -4.137699,-2.687292 -8.221974,-5.458672 -12.413098,-8.061851 -0.976296,-0.606389 -2.037988,-1.064164 -3.07557,-1.558418 -2.696655,-1.284562 -5.481568,-2.404761 -8.263507,-3.489813 -0.387877,-0.151285 -0.780076,-0.291246 -1.170113,-0.436869 0,0 11.113428,8.516629 11.113428,8.516629 z" />
  <path
     style="display:inline;fill:#f4f2ef;fill-opacity:1;stroke-width:0.937507"
     id="path21545"
     d="m 48.145211,105.48115 c -0.232596,0.22855 -0.445099,0.47954 -0.697786,0.68566 -0.400638,0.32682 -0.825615,0.62374 -1.256922,0.90885 -1.486563,0.9827 -3.019945,1.74829 -4.618176,2.52117 0,0 10.824258,7.06294 10.824258,7.06294 v 0 c 0.434998,-0.27027 0.864504,-0.54959 1.304994,-0.81082 1.947809,-1.15512 3.979961,-2.19352 6.137768,-2.8973 0,0 -11.694136,-7.4705 -11.694136,-7.4705 z" />
</svg>
