<?xml version="1.0" encoding="UTF-8" standalone="no"?>
<svg
   width="43.007393mm"
   height="88.004829mm"
   enable-background="new"
   version="1.1"
   viewBox="0 0 152.38953 311.82717"
   id="svg20076"
   sodipodi:docname="Mazzo.svg"
   inkscape:version="1.2.1 (9c6d41e410, 2022-07-14)"
   xmlns:inkscape="http://www.inkscape.org/namespaces/inkscape"
   xmlns:sodipodi="http://sodipodi.sourceforge.net/DTD/sodipodi-0.dtd"
   xmlns="http://www.w3.org/2000/svg"
   xmlns:svg="http://www.w3.org/2000/svg"
   xmlns:rdf="http://www.w3.org/1999/02/22-rdf-syntax-ns#"
   xmlns:cc="http://creativecommons.org/ns#"
   xmlns:dc="http://purl.org/dc/elements/1.1/">
  <sodipodi:namedview
     id="namedview20078"
     pagecolor="#ffffff"
     bordercolor="#000000"
     borderopacity="0.25"
     inkscape:showpageshadow="2"
     inkscape:pageopacity="0.0"
     inkscape:pagecheckerboard="0"
     inkscape:deskcolor="#d1d1d1"
     inkscape:document-units="mm"
     showgrid="false"
     inkscape:zoom="2.8284271"
     inkscape:cx="196.57568"
     inkscape:cy="470.75634"
     inkscape:window-width="2560"
     inkscape:window-height="1409"
     inkscape:window-x="0"
     inkscape:window-y="31"
     inkscape:window-maximized="1"
     inkscape:current-layer="svg20076" />
  <title
     id="title2">Bresciane</title>
  <defs
     id="defs191">
    <pattern
       id="a"
       width="3.542969"
       height="4.72461"
       patternTransform="translate(-52.264 805.51)"
       patternUnits="userSpaceOnUse">
      <path
         d="m0 0v0.53906l0.48242 0.64258-0.48242 0.64453v1.0742l0.48242 0.64258-0.48242 0.64258v0.53906h0.40625l-0.001953-0.00195 0.48047-0.64258 0.48438 0.64453h0.80664l0.48242-0.64258 0.48242 0.64258h0.40234v-0.53711l-0.48242-0.64258 0.48242-0.64453v-1.0762l-0.48242-0.64258 0.48242-0.64453v-0.53711h-0.40234l-0.48242 0.64258-0.48242-0.64258h-0.80664l-0.48242 0.64453-0.48242-0.64258 0.001953-0.00195h-0.40625zm1.7715 0.53711 0.48242 0.64453-0.48242 0.64258-0.48242-0.64258 0.48242-0.64453zm-0.88476 1.1816 0.48242 0.64258-0.48438 0.64453-0.48242-0.64258 0.48438-0.64453zm1.7715 0 0.48242 0.64453-0.48242 0.64258-0.48438-0.64258 0.48438-0.64453zm-0.88672 1.1816 0.48242 0.64258-0.48242 0.64453-0.48242-0.64453 0.48242-0.64258z"
         color="#000000"
         color-rendering="auto"
         enable-background="accumulate"
         fill-rule="evenodd"
         image-rendering="auto"
         shape-rendering="auto"
         solid-color="#000000"
         style="block-progression:tb;isolation:auto;mix-blend-mode:normal;text-decoration-color:#000000;text-decoration-line:none;text-decoration-style:solid;text-indent:0;text-transform:none;white-space:normal"
         id="path178" />
    </pattern>
  </defs>
  <metadata
     id="metadata193">
    <rdf:RDF>
      <cc:Work
         rdf:about="">
        <dc:format>image/svg+xml</dc:format>
        <dc:type
           rdf:resource="http://purl.org/dc/dcmitype/StillImage" />
        <dc:title>Bresciane</dc:title>
        <dc:date>2020</dc:date>
        <dc:creator>
          <cc:Agent>
            <dc:title>ZZandro</dc:title>
          </cc:Agent>
        </dc:creator>
        <dc:rights>
          <cc:Agent>
            <dc:title />
          </cc:Agent>
        </dc:rights>
        <cc:license
           rdf:resource="http://creativecommons.org/licenses/by-sa/4.0/" />
      </cc:Work>
      <cc:License
         rdf:about="http://creativecommons.org/licenses/by-sa/4.0/">
        <cc:permits
           rdf:resource="http://creativecommons.org/ns#Reproduction" />
        <cc:permits
           rdf:resource="http://creativecommons.org/ns#Distribution" />
        <cc:requires
           rdf:resource="http://creativecommons.org/ns#Notice" />
        <cc:requires
           rdf:resource="http://creativecommons.org/ns#Attribution" />
        <cc:permits
           rdf:resource="http://creativecommons.org/ns#DerivativeWorks" />
        <cc:requires
           rdf:resource="http://creativecommons.org/ns#ShareAlike" />
      </cc:License>
    </rdf:RDF>
  </metadata>
  <g
     id="g1923"
     style="display:inline"
     transform="translate(-1597.9993,-953.11983)">
    <g
       transform="matrix(3.5433,0,0,3.5433,1594.5,216.12)"
       id="g1921">
      <g
         transform="matrix(0.28222,0,0,0.28222,-450,-60.993)"
         enable-background="new"
         id="g1913">
        <g
           transform="matrix(0.97008,0,0,0.9964,632.11,-794.35)"
           enable-background="new"
           fill="#f4f2ef"
           id="g1631">
          <g
             transform="matrix(0.70046,0,0,1.0004,298.31,-0.79223)"
             fill="#f4f2ef"
             id="g1629">
            <rect
               x="996.13"
               y="1754.4"
               width="223.23"
               height="311.81"
               rx="10.63"
               ry="10.63"
               fill="#f4f2ef"
               stroke="#000000"
               stroke-width="0.99673"
               id="rect1627" />
          </g>
        </g>
        <g
           transform="matrix(0.76704,0,0,0.8945,850.22,-599.69)"
           enable-background="new"
           fill="none"
           id="g1637">
          <g
             transform="matrix(0.70046,0,0,1.0004,298.31,-0.79223)"
             fill="none"
             id="g1635">
            <rect
               x="996.13"
               y="1754.4"
               width="223.23"
               height="311.81"
               rx="10.63"
               ry="10.63"
               fill="none"
               stroke="#000000"
               stroke-width="0.99673"
               id="rect1633" />
          </g>
        </g>
        <g
           transform="translate(1598,212.57)"
           id="g1911">
          <path
             d="m 25.471,994.32 c 0.52433,-2.4854 0.32263,-4.4234 1.9481,-6.9822 0.54791,-0.67598 1.1957,-1.4652 1.882,-1.6254 1.566,-0.93735 -0.02493,3.1997 1.0165,5.7452 0.28983,1.8665 1.3149,3.2313 -0.65316,2.82 z"
             fill="#287028"
             fill-rule="evenodd"
             stroke="#000000"
             stroke-linecap="round"
             stroke-linejoin="round"
             stroke-width="0.29055"
             id="path1639" />
          <path
             d="m 33.208,987.78 c -1.6442,1.4691 -4.2553,3.8531 -2.6412,6.5674 l 1.9088,0.21856 c 0.5307,-2.5732 2.0327,-7.3018 0.73246,-6.7859 z"
             fill="#287028"
             fill-rule="evenodd"
             stroke="#000000"
             stroke-linecap="round"
             stroke-linejoin="round"
             stroke-width="0.29055"
             id="path1641" />
          <path
             d="m 34.56,992.17 c 2.3928,-2.1136 2.7296,0.53574 1.9928,3.1188 l -2.8063,-0.53492 c 0.31731,-0.82821 0.16579,-1.5354 0.8135,-2.5839 z"
             fill="#287028"
             fill-rule="evenodd"
             stroke="#000000"
             stroke-linecap="round"
             stroke-linejoin="round"
             stroke-width="0.29055"
             id="path1643" />
          <path
             d="m 21.028,995.38 c 0.64356,-3.3591 -1.8398,-4.5055 -1.0085,-6.9671 -0.15266,-2.1517 0.98825,-1.5171 2.1213,-0.83969 2.137,1.6341 1.0566,5.676 3.3293,6.7514 l -4.5555,1.1008 z"
             fill="#287028"
             fill-rule="evenodd"
             stroke="#000000"
             stroke-linecap="round"
             stroke-linejoin="round"
             stroke-width="0.29055"
             id="path1645" />
          <path
             d="m 23.452,994.52 c -2.186,0.21528 -1.1249,-5.9132 0.07903,-7.2552 0.98142,-3.2789 2.1972,-1.8802 2.3695,0.36804 1.2715,2.3561 0.80709,5.4902 -0.44575,6.704 z"
             fill="#287028"
             fill-rule="evenodd"
             stroke="#000000"
             stroke-linecap="round"
             stroke-linejoin="round"
             stroke-width="0.29055"
             id="path1647" />
          <path
             d="m 16.213,998.09 4.8158,-2.7114 c 0.12565,-0.67449 0.4405,-1.0756 -0.55633,-3.5848 -0.02811,-0.96916 -1.2111,-1.0762 -1.8222,-2.2774 -0.79568,-0.99818 -1.897,-0.21633 -2.4373,0.88127 z"
             fill="#287028"
             fill-rule="evenodd"
             stroke="#000000"
             stroke-linecap="round"
             stroke-linejoin="round"
             stroke-width="0.29055"
             id="path1649" />
          <path
             d="m 63.997,996.91 c -0.70532,-4.0303 1.1696,-4.8934 1.3378,-7.6729 -0.01664,-0.34072 0.66479,-0.60887 1.0046,0.0159 1.6347,3.005 3.2026,4.5931 1.3703,7.5248 l -3.5638,0.12238 z"
             fill="#287028"
             fill-rule="evenodd"
             stroke="#000000"
             stroke-linecap="round"
             stroke-linejoin="round"
             stroke-width="0.29055"
             id="path1651" />
          <path
             d="m 97.057,995.32 c -2.7043,-7.6875 -1.3786,-5.2242 -0.0066,-6.8636 -0.88894,-3.11 0.6545,-4.1728 1.5553,-4.6167 0.38103,-0.18779 0.62102,0.51655 0.80925,1.4757 1.2899,0.87335 0.92843,2.8756 0.70791,3.7296 0.67397,2.2289 -0.47776,3.3877 0.1979,3.2122 1.1463,-0.64369 1.6189,-0.18058 2.2097,0.0884 -0.48672,-5.6542 1.5312,-1.465 1.7365,-6.6907 0.23414,-1.1119 1.2497,-0.24485 1.2428,0.72365 -0.15046,1.3508 -0.47297,2.9791 0.11817,3.0151 3.2261,3.6521 -1.2974,6.3376 0.25919,6.613 l -8.8628,-0.68501"
             fill="#287028"
             fill-rule="evenodd"
             stroke="#000000"
             stroke-width="0.29055"
             id="path1653" />
          <path
             d="m 16.213,998.09 c 5.2099,-3.4129 10.042,-7.0665 33.108,0.88388 9.2799,-1.0743 14.832,-3.8194 33.057,-0.88388 9.3541,-1.7753 16.121,-5.971 35.247,1.3954 10.49,1.4864 11.188,-5.038 18.444,0.5 l 0.0804,35.984 h -119.94 z"
             fill="#e9c13a"
             fill-rule="evenodd"
             stroke="#000000"
             stroke-width="1px"
             id="path1655" />
          <path
             d="m 16.213,1017.2 c 7.1429,-7.4147 17.165,-10.586 33.239,-4.8401 5.0085,-1.9357 8.1365,-1.2386 15.249,-6.12 19.954,7.0334 30.202,-6.8514 40.659,0 9.9453,0.757 14.483,0.2522 30.71,2.4749 l 0.0804,27.273 h -119.94 z"
             fill="#dd1d1d"
             fill-rule="evenodd"
             stroke="#000000"
             stroke-linecap="round"
             stroke-linejoin="round"
             stroke-width="1px"
             id="path1657" />
          <path
             d="m 45.375,1022 c 6.7863,6.5061 11.355,5.7273 16.625,7.25 l 3.5,6.7342 H 16.213 l 2.6e-5,-6.3592 c 4.3657,2.8134 16.187,-1.8291 29.162,-7.625 z"
             fill="#1780ce"
             fill-rule="evenodd"
             stroke="#000000"
             stroke-linecap="round"
             stroke-linejoin="round"
             stroke-width="1px"
             id="path1659" />
          <path
             d="m 85.295,1022.6 c 16.904,2.1314 18.18,9.8738 33.49,13.165 L 65.5,1035.9962 62,1029.262 c 1.0932,-3.2653 17.649,-0.5774 23.295,-6.6619 z"
             fill="#e9c13a"
             fill-rule="evenodd"
             stroke="#000000"
             stroke-width="1px"
             id="path1661" />
          <path
             d="m 136.14,1031.4 0.0134,4.5578 -17.365,-0.2312 c 8.1981,-5.949 7.7535,-1.949 17.351,-4.3266 z"
             fill="#e9c13a"
             fill-rule="evenodd"
             stroke="#000000"
             stroke-width="1px"
             id="path1663" />
          <g
             id="g1685">
            <path
               d="m 56.24,1010.4 c -1.2175,0.7289 -2.3877,1.239 -3.5176,1.5547 -1.1299,0.3158 -2.2194,0.4356 -3.2715,0.3848 -1.0521,-0.051 -2.0665,-0.272 -3.0508,-0.6426 -0.98429,-0.3706 -1.9389,-0.8895 -2.8652,-1.5332 l -0.04102,0.01 c -0.46116,2.4572 -2.0141,4.6682 -5.668,7.3848 -5.3561,3.9821 -8.3369,6.6226 -11.574,5.9844 -0.74157,-0.097 -1.6488,0.535 -1.9453,1.1504 -0.2965,0.6154 -0.22556,1.5038 0,1.7675 5.0658,5.0803 16.819,1.1479 18.564,0.2852 1.745,-0.8627 6.4141,-2.8438 6.4141,-2.8438 -0.08328,0.024 -0.06935,1.122 0.02539,1.461 7.9703,-2.7558 10.077,-0.922 6.9297,-14.961 z"
               fill-rule="evenodd"
               stroke="#000000"
               stroke-width="0.99921"
               id="path1665" />
            <path
               d="m 58.92,968.43 c -1.4648,0.64468 -2.9206,1.3162 -4.4531,1.7656 -2.1798,0.63921 -4.4199,1.0784 -6.6895,1.3086 -2.2648,0.22975 -4.5398,0.24967 -6.7988,0.0625 -1.593,-0.13198 -3.1567,-0.49669 -4.7227,-0.83398 0.15121,0.18537 0.24427,0.4091 0.42578,0.57422 1.974,3.2978 3.6354,19.164 5.9219,30.58196 0.7933,3.4325 1.3257,5.9672 0.89062,8.2851 l 0.04102,-0.01 c 0.92635,0.6437 1.8809,1.1626 2.8652,1.5332 0.98429,0.3706 1.9986,0.5917 3.0508,0.6426 1.0521,0.051 2.1416,-0.069 3.2715,-0.3848 1.1299,-0.3157 2.3001,-0.8258 3.5176,-1.5547 -0.32363,-21.13896 6.265,-20.07096 3,-36.97896 l -0.45508,-4.4297 c 0.08172,-0.17707 0.07811,-0.37825 0.13477,-0.5625 z"
               fill="#1780ce"
               fill-rule="evenodd"
               stroke="#000000"
               stroke-linecap="round"
               stroke-linejoin="round"
               stroke-width="0.99921"
               id="path1667" />
            <path
               d="m 58.854,962.57 c -1.5855,0.84037 -3.1845,1.6613 -4.8828,2.2207 -2.1779,0.71741 -4.4338,1.1989 -6.7285,1.4316 -2.2875,0.23205 -4.5868,0.21423 -6.8574,-0.0488 -1.4742,-0.17079 -2.9025,-0.61007 -4.3418,-0.98633 -0.2105,0.85896 -0.96796,1.4759 0.19531,2.9453 -0.73632,1.3636 -0.44365,2.042 0.01758,2.6074 1.5659,0.33729 3.1296,0.702 4.7227,0.83398 2.2591,0.18717 4.5341,0.16725 6.7988,-0.0625 2.2696,-0.23023 4.5096,-0.66938 6.6895,-1.3086 1.5325,-0.44939 2.9884,-1.121 4.4531,-1.7656 0.24154,-0.78542 0.29429,-1.6251 -0.29688,-2.6484 0.58236,-1.317 0.4869,-2.2269 0.24414,-3.0488 -0.01484,-0.0562 -0.0013,-0.11378 -0.01367,-0.16992 z"
               fill="#dd1d1d"
               fill-rule="evenodd"
               stroke="#000000"
               stroke-linecap="round"
               stroke-linejoin="round"
               stroke-width="0.99921"
               id="path1669" />
            <path
               d="m 51.979,904.41 -21.281,12.941 c 1.6467,40.993 6.5086,40.261 5.3652,47.771 -0.0044,0.0211 -0.01443,0.0397 -0.01953,0.0605 1.4393,0.37626 2.8676,0.81554 4.3418,0.98633 2.2706,0.26306 4.5699,0.28088 6.8574,0.0488 2.2947,-0.23278 4.5506,-0.71423 6.7285,-1.4316 1.6983,-0.55944 3.2973,-1.3803 4.8828,-2.2207 -0.88329,-3.9948 4.3123,-7.9063 10.09,-23.43 l -1.4688,-18.103 z"
               fill="#e9c13a"
               fill-rule="evenodd"
               stroke="#000000"
               stroke-linecap="round"
               stroke-linejoin="round"
               stroke-width="0.99921"
               id="path1671" />
            <path
               d="m 88.65,1010.9 c -0.71299,0.446 -1.4288,0.889 -2.2109,1.2735 -0.78214,0.3844 -1.6315,0.7094 -2.6094,0.9199 -0.97792,0.2104 -2.0844,0.3066 -3.3848,0.2304 -1.3003,-0.076 -2.7936,-0.3235 -4.543,-0.7988 -1.2256,13.649 0.4825,11.006 5.1504,12.744 0.01399,-0.7397 -0.29686,-1.5435 0.08789,-2.209 5.2218,6.4517 14.621,7.4617 17.236,7.5136 3.7534,0.074 7.2194,-1.7294 7.6016,-2.5644 0.11164,-0.2648 0.31117,-0.7179 0.13086,-1.1934 0.021,-0.3811 -0.50907,-1.2161 -0.61719,-1.3242 -0.22642,-0.2264 -0.4526,-0.5846 -1.0586,-0.6133 -5.117,-0.2427 -8.7565,-1.437 -15.783,-13.978 z"
               fill-rule="evenodd"
               stroke="#000000"
               stroke-linecap="round"
               stroke-linejoin="round"
               stroke-width="0.99921"
               id="path1673" />
            <path
               d="m 93.242,971.52 c -1.2156,0.4489 -2.404,0.97998 -3.6582,1.2988 -2.2016,0.5597 -4.454,0.91671 -6.7305,1.0644 -2.2716,0.14742 -4.5481,0.0854 -6.7988,-0.18359 -1.6484,-0.19702 -3.2584,-0.62577 -4.8691,-1.043 0.05014,0.16817 0.01619,0.34826 0.09961,0.51172 -0.02887,0.13705 -0.03068,0.1925 -0.05859,0.32617 -2.2152,10.606 -1.4701,10.771 1.8711,23.186 1.9826,5.601 1.6011,11.08 2.8047,15.893 1.7494,0.4753 3.2426,0.7227 4.543,0.7988 1.3003,0.076 2.4069,-0.02 3.3848,-0.2304 0.97792,-0.2105 1.8272,-0.5356 2.6094,-0.9199 0.78214,-0.3846 1.4979,-0.8275 2.2109,-1.2735 1.7968,-9.6627 0.68201,-29.218 4.5195,-39.195 0.02733,-0.0711 0.04984,-0.15177 0.07227,-0.23242 z"
               fill="#1780ce"
               fill-rule="evenodd"
               stroke="#000000"
               stroke-linecap="round"
               stroke-linejoin="round"
               stroke-width="0.99921"
               id="path1675" />
            <path
               d="m 94.031,965.44 c -1.5502,0.73698 -3.1027,1.4791 -4.7461,1.9551 -2.2025,0.63793 -4.4737,1.0381 -6.7754,1.1875 -2.2944,0.1489 -4.592,0.0464 -6.8516,-0.29882 -1.4445,-0.22073 -2.8327,-0.70834 -4.2363,-1.127 -0.13649,0.46062 -0.45558,1.7023 0.12891,2.7441 -0.54749,0.98034 -0.62318,1.8927 -0.36523,2.7578 1.6107,0.4172 3.2207,0.84595 4.8691,1.043 2.2508,0.269 4.5272,0.33101 6.7988,0.18359 2.2765,-0.14774 4.5289,-0.50475 6.7305,-1.0644 1.2542,-0.31885 2.4426,-0.84993 3.6582,-1.2988 0.01583,-0.0569 0.03088,-0.11511 0.05078,-0.16406 0.80238,-1.2686 0.5945,-1.8562 0.33264,-2.8758 0.54441,-0.81478 0.74567,-2.1291 0.40564,-3.0422 z"
               fill="#dd1d1d"
               fill-rule="evenodd"
               stroke="#000000"
               stroke-linecap="round"
               stroke-linejoin="round"
               stroke-width="0.99921"
               id="path1677" />
            <path
               d="m 64.037,905.06 c 0.87329,46.018 7.0567,50.442 7.4688,61.701 0,0 -0.04783,0.24125 -0.06836,0.3086 -0.0046,0.0152 -0.0104,0.0683 -0.01563,0.0859 1.4036,0.41862 2.7918,0.90623 4.2363,1.127 2.2596,0.34527 4.5572,0.44772 6.8516,0.29882 2.3017,-0.14937 4.5729,-0.54957 6.7754,-1.1875 1.6433,-0.47598 3.1959,-1.2181 4.7461,-1.9551 -0.03628,-0.0974 0.0067,-0.18603 -0.04492,-0.28516 -0.05455,-0.10481 0.0014,-0.19754 -0.07422,-0.30469 8.2721,-30.944 6.1886,-41.646 7.8106,-59.592 l -37.686,-0.19727 z"
               fill="#e9c13a"
               fill-rule="evenodd"
               stroke="#000000"
               stroke-linecap="round"
               stroke-linejoin="round"
               stroke-width="0.99921"
               id="path1679" />
            <path
               d="m 35.952,1019 2.9828,2.4122 3.5502,-2.7984 -2.9488,-2.3851 z"
               fill="none"
               stroke="#f4f2ef"
               stroke-linecap="round"
               stroke-linejoin="round"
               stroke-width="0.99921"
               id="path1681" />
            <path
               d="m 88.084,1019.1 2.157,2.8569 4.1154,-2.395 -2.1631,-2.8524 z"
               fill="none"
               stroke="#f4f2ef"
               stroke-linecap="round"
               stroke-linejoin="round"
               stroke-width="1px"
               id="path1683" />
          </g>
          <path
             d="m 26.143,912.51 -1.123,3.6309 a 192.96,192.96 0 0 0 42.455,4.8965 192.96,192.96 0 0 0 43.525,-5.2148 l -1.2793,-3.0254 a 189.42,189.42 0 0 1 -8.8438,1.9844 189.42,189.42 0 0 1 -18.797,2.2812 189.42,189.42 0 0 1 -13.398,0.47461 189.42,189.42 0 0 1 -18.91,-0.94531 189.42,189.42 0 0 1 -18.723,-2.8301 189.42,189.42 0 0 1 -4.9062,-1.252 z"
             fill="#dd1d1d"
             fill-rule="evenodd"
             stroke="#000000"
             stroke-width="1px"
             id="path1687" />
          <path
             d="m 126.86,841.94 c -0.47355,0.67342 -0.82895,1.4279 -1.3359,2.0762 -1.8392,2.3517 -3.8933,4.5351 -6.1426,6.5176 -2.2514,1.9844 -4.6774,3.7509 -7.2442,5.2812 -1.3408,0.79938 -2.8134,1.3502 -4.2266,2.0176 0.27385,0.26697 0.61984,0.49414 1.0859,0.65625 1.1076,1.3448 2.1909,2.6458 3.248,3.8984 0.26446,-0.52441 0.53781,-1.0372 0.82031,-1.5332 1.206,1.8287 2.2932,3.8862 3.2539,6.0957 l 0.004,0.004 c -1.9e-4,10e-4 1.9e-4,0.003 0,0.004 4.2309,9.7361 5.9809,22.466 4.3652,32.051 0.34985,0.45424 0.71127,0.9085 1.0996,1.3633 1.8311,-0.28166 3.4602,-0.25501 4.918,0.0332 1.4578,0.28822 2.745,0.83802 3.8926,1.5996 1.1476,0.7616 2.1559,1.7365 3.0566,2.875 0.90071,1.1385 1.6932,2.4405 2.4102,3.8594 v -48.795 c -2.9291,-6.0573 -5.4284,-12.286 -9.2051,-18.004 z"
             fill="#e9c13a"
             fill-rule="evenodd"
             stroke="#000000"
             stroke-linecap="round"
             stroke-linejoin="round"
             stroke-width="0.99921"
             id="path1689" />
          <path
             d="m 106.69,855.46 c -0.0882,0.83428 0.154,1.7212 1.2285,2.3711 1.4131,-0.66733 2.8858,-1.2182 4.2266,-2.0176 2.5667,-1.5303 4.9928,-3.2969 7.2442,-5.2812 2.2492,-1.9825 4.3034,-4.1659 6.1426,-6.5176 0.50699,-0.64828 0.86239,-1.4028 1.3359,-2.0762 0.17634,-2.0228 -0.2439,-2.7115 -1.1152,-3.1953 -0.68092,1.0628 -1.2248,2.2145 -1.9902,3.2168 -1.8191,2.382 -3.8716,4.5868 -6.1309,6.5781 -2.2568,1.9892 -4.6986,3.7474 -7.2871,5.252 -1.1578,0.67301 -2.4409,1.1002 -3.6543,1.6699 z"
             fill="#1780ce"
             fill-rule="evenodd"
             stroke="#000000"
             stroke-linecap="round"
             stroke-linejoin="round"
             stroke-width="0.99921"
             id="path1691" />
          <g
             fill-rule="evenodd"
             stroke="#000000"
             stroke-width="1px"
             id="g1697">
            <path
               d="m 101.25,847.74 c -1.8915,10.105 -6.1183,15.798 -9.3415,23.387 l -13.633,1.4246 c 3.3412,-12.871 8.5858,-35.807 15.987,-43.972 l 6.988,19.16"
               fill="#e9c13a"
               id="path1693" />
            <path
               d="m 101.25,847.74 c -1.8915,10.105 -6.1183,15.798 -9.3415,23.387 l -13.633,1.4246 c 3.3412,-12.871 8.5858,-35.807 15.987,-43.972 l 6.988,19.16"
               fill="url(#a)"
               id="path1695" />
          </g>
          <path
             d="m 119.04,827.09 c -0.2696,-1.1374 -0.98082,-1.8891 -2.0117,-2.1875 -0.084,-0.12962 0.0844,0.12874 0,0 -0.22165,0.60983 -0.38471,1.2444 -0.64258,1.8379 -0.61628,1.4185 -1.3346,2.7872 -2.1484,4.0977 -0.8138,1.3105 -1.7244,2.5629 -2.7226,3.7441 -0.9983,1.1812 -2.0843,2.2913 -3.2539,3.3223 -1.1694,1.0307 -2.4081,1.9706 -3.7051,2.8125 -1.2969,0.84194 -2.6528,1.5857 -4.0547,2.2285 -0.65919,0.30226 -1.3603,0.50322 -2.0391,0.75977 0.14525,0.12107 0.27051,0.29403 0.41797,0.40625 0.14947,0.83378 0.43606,1.4512 0.76562,2.002 0.91956,-0.35544 1.8495,-0.68454 2.7344,-1.1172 1.3748,-0.67219 2.7046,-1.436 3.9805,-2.2871 1.2758,-0.85111 2.4979,-1.7896 3.6562,-2.8105 1.1584,-1.021 2.2435,-2.1146 3.248,-3.2734 1.0046,-1.1589 1.93,-2.3826 2.7695,-3.6621 0.8395,-1.2795 1.5928,-2.6151 2.2559,-3.998 0.29033,-0.6055 0.49504,-1.252 0.75,-1.875 z"
             fill="#1780ce"
             fill-rule="evenodd"
             stroke="#000000"
             stroke-linecap="round"
             stroke-linejoin="round"
             stroke-width="0.99921"
             id="path1699" />
          <path
             d="m 119.04,827.09 c -0.25496,0.62295 -0.45967,1.2695 -0.75,1.875 -0.66311,1.3829 -1.4164,2.7185 -2.2559,3.998 -0.8395,1.2795 -1.765,2.5032 -2.7695,3.6621 -1.0046,1.1589 -2.0897,2.2524 -3.248,3.2734 -1.1584,1.021 -2.3804,1.9594 -3.6562,2.8105 -1.2758,0.85112 -2.6057,1.6149 -3.9805,2.2871 -0.88488,0.43265 -1.8148,0.76175 -2.7344,1.1172 0.42672,0.71315 0.95116,1.2737 1.6094,1.623 l 5.25,7.25 c 0.0739,0.15105 0.12347,0.31516 0.18555,0.47265 1.2134,-0.56976 2.4964,-0.99691 3.6543,-1.6699 2.5885,-1.5046 5.0303,-3.2627 7.2871,-5.252 2.2593,-1.9914 4.3117,-4.1961 6.1309,-6.5781 0.76546,-1.0023 1.3093,-2.154 1.9902,-3.2168 -0.25703,-0.14271 0.37737,0.11362 0,0 l -6.123,-9.8184 c -0.19965,-0.99079 -0.38207,-1.399 -0.58984,-1.834 z"
             fill="#1780ce"
             fill-rule="evenodd"
             stroke="#000000"
             stroke-linecap="round"
             stroke-linejoin="round"
             stroke-width="0.99921"
             id="path1701" />
          <path
             d="m 104.12,810.33 c -1.5417,2.3704 -2.9941,4.7972 -4.3945,7.2539 -2.5462,4.6615 -4.8577,9.4474 -6.9258,14.34 -0.20653,0.48838 -0.39994,0.98227 -0.60156,1.4726 0.13763,2.4796 2.889,7.504 6.2559,10.311 0.67873,-0.25655 1.3799,-0.45751 2.0391,-0.75977 1.4019,-0.64281 2.7578,-1.3866 4.0547,-2.2285 1.2969,-0.84195 2.5357,-1.7818 3.7051,-2.8125 1.1696,-1.0309 2.2556,-2.141 3.2539,-3.3223 0.99829,-1.1812 1.9088,-2.4337 2.7226,-3.7441 0.8138,-1.3104 1.5322,-2.6792 2.1484,-4.0977 0.25787,-0.59353 0.42093,-1.2281 0.64258,-1.8379 -3.8774,-5.9151 -8.1172,-10.924 -12.9,-14.574 z"
             fill="#e9c13a"
             fill-rule="evenodd"
             stroke="#000000"
             stroke-linecap="round"
             stroke-linejoin="round"
             stroke-width="0.99921"
             id="path1703" />
          <path
             d="m 26.143,912.51 a 189.42,189.42 0 0 0 4.9062,1.252 189.42,189.42 0 0 0 18.723,2.8301 189.42,189.42 0 0 0 18.91,0.94531 189.42,189.42 0 0 0 13.398,-0.47461 189.42,189.42 0 0 0 18.797,-2.2812 189.42,189.42 0 0 0 8.8438,-1.9844 l -3.623,-8.5684 a 180.56,180.56 0 0 1 -7.9336,1.7812 180.56,180.56 0 0 1 -17.918,2.1738 180.56,180.56 0 0 1 -12.771,0.45312 180.56,180.56 0 0 1 -18.027,-0.90234 180.56,180.56 0 0 1 -17.846,-2.6973 180.56,180.56 0 0 1 -2.918,-0.74414 z"
             fill="#dd1d1d"
             fill-rule="evenodd"
             stroke="#000000"
             stroke-width="1px"
             id="path1705" />
          <path
             d="m 29.73,900.9 a 177.02,177.02 0 0 0 2.5762,0.65821 177.02,177.02 0 0 0 17.496,2.6445 177.02,177.02 0 0 0 17.672,0.88476 177.02,177.02 0 0 0 12.521,-0.44336 177.02,177.02 0 0 0 17.566,-2.1328 177.02,177.02 0 0 0 7.1348,-1.6016 l -9.8066,-23.188 a 152.22,152.22 0 0 1 -1.5449,0.3457 152.22,152.22 0 0 1 -15.104,1.834 152.22,152.22 0 0 1 -10.768,0.38086 152.22,152.22 0 0 1 -15.197,-0.75977 152.22,152.22 0 0 1 -15.043,-2.2734 152.22,152.22 0 0 1 -0.17383,-0.0449 l -7.3301,23.695 z"
             fill="#e9c13a"
             fill-rule="evenodd"
             stroke="#000000"
             stroke-width="1px"
             id="path1707" />
          <path
             d="m 80.726,879.71 5.8086,24.353 c 2.4281,0.13585 4.7873,0.8919 7.4369,-0.9654 l -7.4819,-24.002 c -2.6694,-1.2235 -4.3834,-0.62302 -5.7636,0.61471 z"
             fill="url(#a)"
             fill-rule="evenodd"
             stroke="#000000"
             stroke-linecap="round"
             stroke-linejoin="round"
             stroke-width="0.64488"
             id="path1709" />
          <path
             d="m 73.085,880.18 3.5854,24.941 c 2.779,0.49733 5.4655,0.78665 7.3162,-0.80478 l -5.2299,-24.451 c -2.1855,-1.2264 -4.0755,-1.1686 -5.6717,0.31507"
             fill="url(#a)"
             fill-rule="evenodd"
             stroke="#000000"
             stroke-linecap="round"
             stroke-linejoin="round"
             stroke-width="0.64488"
             id="path1711" />
          <path
             d="m 60.002,880.16 v 24.767"
             fill="none"
             stroke="#000000"
             stroke-width="1px"
             id="path1713" />
          <path
             d="m 49.926,879.1 -3.8887,24.508"
             fill="none"
             stroke="#000000"
             stroke-width="1px"
             id="path1715" />
          <path
             d="m 54.155,879.7 -2.1766,24.708"
             fill="none"
             stroke="#000000"
             stroke-width="1px"
             id="path1717" />
          <path
             d="m 88.846,878.78 8.156,23.832 c 4.1185,0.47121 6.0141,-0.53947 7.6982,-1.6912 l -9.8093,-23.194 c -2.9648,-1.07 -4.5975,-0.33493 -6.0449,1.0529 z"
             fill="url(#a)"
             fill-rule="evenodd"
             stroke="#000000"
             stroke-linecap="round"
             stroke-linejoin="round"
             stroke-width="0.64488"
             id="path1719" />
          <path
             d="m 28.684,904.29 a 180.56,180.56 0 0 0 2.918,0.74414 180.56,180.56 0 0 0 17.846,2.6973 180.56,180.56 0 0 0 18.027,0.90234 180.56,180.56 0 0 0 12.771,-0.45312 180.56,180.56 0 0 0 17.918,-2.1738 180.56,180.56 0 0 0 7.9336,-1.7812 l -1.4004,-3.3125 a 177.02,177.02 0 0 1 -7.1348,1.6016 177.02,177.02 0 0 1 -17.566,2.1328 177.02,177.02 0 0 1 -12.521,0.44336 177.02,177.02 0 0 1 -17.672,-0.88476 177.02,177.02 0 0 1 -17.496,-2.6445 177.02,177.02 0 0 1 -2.5762,-0.65821 z"
             fill="#dd1d1d"
             fill-rule="evenodd"
             stroke="#000000"
             stroke-width="1px"
             id="path1721" />
          <path
             d="m 38.113,873.81 -1.0527,3.4004 a 152.22,152.22 0 0 0 0.17383,0.0449 152.22,152.22 0 0 0 15.043,2.2734 152.22,152.22 0 0 0 15.197,0.75977 152.22,152.22 0 0 0 10.768,-0.38086 152.22,152.22 0 0 0 15.104,-1.834 152.22,152.22 0 0 0 1.5449,-0.3457 l -1.4004,-3.3125 a 148.67,148.67 0 0 1 -0.74609,0.16797 148.67,148.67 0 0 1 -14.752,1.791 148.67,148.67 0 0 1 -10.518,0.3711 148.67,148.67 0 0 1 -14.842,-0.74217 148.67,148.67 0 0 1 -14.52,-2.1934 z"
             fill="#1780ce"
             fill-rule="evenodd"
             stroke="#000000"
             stroke-width="1px"
             id="path1723" />
          <path
             d="m 53.596,800.38 c -5.8907,0.94984 -10.488,1.0725 -16.514,7.6884 l 14.828,52.958 1.6852,11.49 c 4.9609,1.612 9.5493,1.7335 13.844,0.67969 z"
             fill="#dd1d1d"
             fill-rule="evenodd"
             stroke="#000000"
             stroke-linecap="round"
             stroke-linejoin="round"
             stroke-width="1px"
             id="path1725" />
          <path
             d="m 38.113,873.81 a 148.67,148.67 0 0 0 14.52,2.1934 148.67,148.67 0 0 0 14.842,0.74219 148.67,148.67 0 0 0 10.518,-0.3711 148.67,148.67 0 0 0 14.752,-1.791 148.67,148.67 0 0 0 0.74609,-0.16797 l -1.4043,-3.3184 c -8.129,1.4 -16.363,2.1043 -24.611,2.1055 -9.5042,-0.008 -18.985,-0.95046 -28.305,-2.8125 z"
             fill="#1780ce"
             fill-rule="evenodd"
             stroke="#000000"
             stroke-width="1px"
             id="path1727" />
          <g
             stroke="#000000"
             id="g1735">
            <path
               d="m 57.678,897.28 a 15.339,4.3125 74.358 0 1 -8.2886,-13.608 15.339,4.3125 74.358 0 1 0.01701,-15.933 15.339,4.3125 74.358 0 1 8.2886,13.608 15.339,4.3125 74.358 0 1 -0.017,15.933 z"
               fill="#dd1d1d"
               stroke-linecap="round"
               stroke-linejoin="round"
               stroke-width="0.99921"
               id="path1729" />
            <path
               d="m 57.678,897.28 a 15.339,2.0094 74.358 0 1 -6.0707,-14.229 15.339,2.0094 74.358 0 1 -2.2008,-15.312 15.339,2.0094 74.358 0 1 6.0707,14.229 15.339,2.0094 74.358 0 1 2.2008,15.312 z"
               fill="none"
               stroke-linecap="round"
               stroke-linejoin="round"
               stroke-width="0.99921"
               id="path1731" />
            <path
               d="M 57.678,897.28 49.4064,867.739"
               fill="none"
               stroke-width="1px"
               id="path1733" />
          </g>
          <g
             transform="matrix(1.2,0,0,1.2,21.466,-183.42)"
             stroke="#000000"
             stroke-linecap="round"
             stroke-linejoin="round"
             stroke-width="0.83268"
             id="g1741">
            <path
               d="M 27.461,881.4 A 2.6575,2.6575 0 0 1 24.8035,884.0575 2.6575,2.6575 0 0 1 22.146,881.4 2.6575,2.6575 0 0 1 24.8035,878.7425 2.6575,2.6575 0 0 1 27.461,881.4 Z"
               fill="#f4f2ef"
               id="path1737" />
            <path
               d="M 25.689,881.4 A 0.88583,0.88583 0 0 1 24.80317,882.28583 0.88583,0.88583 0 0 1 23.91734,881.4 0.88583,0.88583 0 0 1 24.80317,880.51418 0.88583,0.88583 0 0 1 25.689,881.4 Z"
               id="path1739" />
          </g>
          <path
             d="m 59.737,899.12 a 1.5468,1.5468 0 0 1 -1.5468,1.5468 1.5468,1.5468 0 0 1 -1.5468,-1.5468 1.5468,1.5468 0 0 1 1.5468,-1.5468 1.5468,1.5468 0 0 1 1.5468,1.5468 z"
             stroke="#000000"
             stroke-linecap="round"
             stroke-linejoin="round"
             stroke-width="0.99921"
             id="path1743" />
          <path
             d="m 101.57,807.81 c -1.7269,2.641 -3.3767,5.3315 -4.9473,8.0684 -2.6029,4.765 -4.9659,9.6572 -7.0801,14.658 -2.1144,5.0008 -3.9774,10.104 -5.582,15.291 -1.6045,5.1867 -2.9486,10.45 -4.0273,15.771 -0.67531,3.6286 -1.2271,7.2792 -1.6543,10.945 1.2053,-0.0572 2.4098,-0.12952 3.6133,-0.2168 0.3981,-3.3564 0.90291,-6.6992 1.5137,-10.023 1.0551,-5.2057 2.3699,-10.355 3.9395,-15.43 1.5699,-5.0736 3.3924,-10.066 5.4609,-14.957 2.0681,-4.8924 4.3796,-9.6784 6.9258,-14.34 1.4004,-2.4567 2.8533,-4.8838 4.395,-7.2542 0,0 0.28045,-0.65015 0.21622,-0.97769 -0.0662,-0.33743 -0.58664,-0.84851 -0.58664,-0.84851 z"
             fill="#dd1d1d"
             fill-rule="evenodd"
             stroke="#000000"
             stroke-linecap="round"
             stroke-linejoin="round"
             stroke-width="1px"
             id="path1745" />
          <path
             d="m 62.875,798.95 -6.9569,1.0753 11.557,73.177 20.17,-69.76 h -10e-7 c -2.4665,0.65028 -5.1426,0.85414 -7.6934,0.86133 -6.1044,-0.004 -12.062,-1.8717 -17.076,-5.3535 z"
             fill="#e9c13a"
             fill-rule="evenodd"
             stroke="#000000"
             stroke-linecap="round"
             stroke-linejoin="round"
             stroke-width="1px"
             id="path1747" />
          <path
             d="m 87.141,805.25 a 31.744,31.744 0 0 1 -7.1901,0.82501 31.744,31.744 0 0 1 -19.531,-6.7196"
             fill="none"
             stroke="#000000"
             stroke-linecap="round"
             stroke-linejoin="round"
             stroke-width="0.99921"
             id="path1749" />
          <path
             d="m 80.745,827.33 a 53.004,53.004 0 0 1 -0.79344,0.006 53.004,53.004 0 0 1 -18.904,-3.4856"
             fill="none"
             stroke="#000000"
             stroke-linecap="round"
             stroke-linejoin="round"
             stroke-width="0.64488"
             id="path1751" />
          <path
             d="M 79.714,830.87 A 56.548,56.548 0 0 1 61.561,827.7968"
             fill="none"
             stroke="#000000"
             stroke-linecap="round"
             stroke-linejoin="round"
             stroke-width="0.64488"
             id="path1753" />
          <path
             d="M 78.703,834.41 A 60.091,60.091 0 0 1 62.091,831.7076"
             fill="none"
             stroke="#000000"
             stroke-linecap="round"
             stroke-linejoin="round"
             stroke-width="0.64488"
             id="path1755" />
          <path
             d="M 77.692,837.92 A 63.634,63.634 0 0 1 62.571,835.5406"
             fill="none"
             stroke="#000000"
             stroke-linecap="round"
             stroke-linejoin="round"
             stroke-width="0.64488"
             id="path1757" />
          <path
             d="M 76.682,841.43 A 67.178,67.178 0 0 1 63.055,839.35"
             fill="none"
             stroke="#000000"
             stroke-linecap="round"
             stroke-linejoin="round"
             stroke-width="0.64488"
             id="path1759" />
          <path
             d="M 75.671,844.92 A 70.721,70.721 0 0 1 63.546,843.1206"
             fill="none"
             stroke="#000000"
             stroke-linecap="round"
             stroke-linejoin="round"
             stroke-width="0.64488"
             id="path1761" />
          <path
             d="m 101.57,807.81 -10.441,-3.2812 a 173.48,173.48 0 0 0 -3.834,6.2539 173.48,173.48 0 0 0 -7.543,15.615 173.48,173.48 0 0 0 -5.9453,16.289 173.48,173.48 0 0 0 -4.291,16.801 173.48,173.48 0 0 0 -2.0723,13.705 145.13,145.13 0 0 0 0.03516,0.002 145.13,145.13 0 0 0 10.801,-0.65039 162.85,162.85 0 0 1 1.6543,-10.945 162.85,162.85 0 0 1 4.0273,-15.771 162.85,162.85 0 0 1 5.582,-15.291 162.85,162.85 0 0 1 7.0801,-14.658 162.85,162.85 0 0 1 4.9473,-8.0684 z"
             fill="#dd1d1d"
             fill-rule="evenodd"
             stroke="#000000"
             stroke-linecap="round"
             stroke-linejoin="round"
             stroke-width="1px"
             id="path1763" />
          <path
             d="m 79.951,823.79 c -6.6672,0 -13.266,-1.3479 -19.399,-3.9628 l 4.9951,-5.6469 0.34803,7.5038 4.3034,-5.9443 1.2007,7.3054 3.598,-6.4961 2.0587,7.1561 4.7207,0.0457 c -0.60611,0.0277 -1.2161,0.039 -1.8261,0.039 z"
             stroke="#000000"
             stroke-linecap="round"
             stroke-linejoin="round"
             stroke-width="0.64488"
             id="path1765" />
          <path
             d="m 55.918,800.02 -5.3788,0.83117 16.935,72.346 2.0371,-13.707 c 1.1494,-5.6683 2.5815,-11.276 4.291,-16.801 1.709,-5.5254 3.6932,-10.962 5.9453,-16.289 2.2524,-5.3276 4.7699,-10.539 7.543,-15.615 1.2338,-2.1114 2.5121,-4.1965 3.834,-6.2539 l -3.4805,-1.0938 c -1.1894,1.861 -2.3439,3.7442 -3.4629,5.6484 -2.8298,5.1796 -5.3987,10.497 -7.6973,15.934 -2.2987,5.4364 -4.324,10.984 -6.0684,16.623 -0.91762,3.2123 -1.7441,6.4499 -2.4785,9.709 z"
             fill="#f4f2ef"
             fill-rule="evenodd"
             stroke="#000000"
             stroke-linecap="round"
             stroke-linejoin="round"
             stroke-width="1px"
             id="path1767" />
          <path
             d="m 91.125,804.53 6.4884,9.6412 -11.796,-0.63049 7.2079,9.3127 -11.776,0.0997 7.7565,8.8614 -11.748,0.80931 8.2761,8.3776 -11.678,1.5163 8.7656,7.8633 -11.566,2.2173 9.2242,7.3207 -11.268,2.9365 9.6345,6.7447 -11.171,3.5959"
             fill="none"
             stroke="#000000"
             stroke-linecap="round"
             stroke-linejoin="round"
             id="path1769" />
          <path
             d="m 28.684,904.29 2.5656,9.5092 6.6038,-7.612 3.7756,9.4059 6.1793,-8.0338 4.2876,9.2481 5.7282,-8.4319 4.7937,9.0618 5.252,-8.8041 5.2924,8.8478 4.752,-9.1501 5.7822,8.607 4.2299,-9.4666 6.2615,8.3378 3.6874,-9.7528 6.7092,7.9441 1.5137,-9.775"
             fill="none"
             stroke="#000000"
             stroke-linecap="round"
             stroke-linejoin="round"
             stroke-width="0.99921"
             id="path1771" />
          <path
             d="m 124.39,900.17 c -0.81837,-0.007 -1.684,0.0564 -2.5996,0.19726 1.4112,1.6526 -0.50949,4.4771 -0.48047,6.6738 l 0.01,0.006 c 0.40228,-0.10897 0.87082,-0.1987 1.4453,-0.2461 4.4871,0.12408 6.8304,3.0701 7.873,4.4024 0.36231,0.57043 0.54252,1.0862 0.61914,1.5801 h 0.002 c 0.76486,0.37413 1.2642,0.21727 1.6777,-0.11133 l 3.1309,-3.9375 c -0.717,-1.4189 -1.5094,-2.7209 -2.4102,-3.8594 -0.9007,-1.1385 -1.909,-2.1134 -3.0566,-2.875 -1.1476,-0.76159 -2.4348,-1.3114 -3.8926,-1.5996 -0.72888,-0.1441 -1.5,-0.22298 -2.3184,-0.23046 z"
             fill="#f4f2ef"
             fill-rule="evenodd"
             stroke="#000000"
             stroke-linecap="round"
             stroke-linejoin="round"
             stroke-width="0.99921"
             id="path1773" />
          <g
             transform="translate(0.70866)"
             id="g1829">
            <path
               d="m 114,911.03 c -10.523,-6.7704 -10.161,-35.215 -1.64,-50.178 9.48,14.374 11.698,42.735 1.64,50.178"
               fill="#1780ce"
               fill-rule="evenodd"
               stroke="#000000"
               stroke-linecap="round"
               stroke-linejoin="round"
               stroke-width="1px"
               id="path1775" />
            <path
               d="m 114,911.03 c -5.9939,-6.9184 -6.2,-35.344 -1.64,-50.178 5.5189,14.504 7.1694,42.883 1.64,50.178"
               fill="none"
               stroke="#000000"
               stroke-linecap="round"
               stroke-linejoin="round"
               stroke-width="1px"
               id="path1777" />
            <path
               d="M 112.36,860.85 114,911.028"
               fill="none"
               stroke="#000000"
               stroke-linecap="round"
               stroke-linejoin="round"
               stroke-width="1px"
               id="path1779" />
            <path
               d="m 109.13,868.25 c 0,0 2.3124,0.63365 3.4928,0.59507 1.1804,-0.0386 3.4464,-0.82187 3.4464,-0.82187"
               fill="none"
               stroke="#000000"
               stroke-width="0.64488"
               id="path1781" />
            <path
               d="m 108.57,870.04 c 0,0 2.7285,0.62005 4.1117,0.57484 1.3832,-0.0452 4.0654,-0.8421 4.0654,-0.8421"
               fill="none"
               stroke="#000000"
               stroke-width="0.64488"
               id="path1783" />
            <path
               d="m 108.07,871.83 c 0,0 3.0991,0.60793 4.6639,0.55679 1.5648,-0.0512 4.6176,-0.86015 4.6176,-0.86015"
               fill="none"
               stroke="#000000"
               stroke-width="0.64488"
               id="path1785" />
            <path
               d="m 107.64,873.61 c 0,0 3.4283,0.59718 5.1552,0.54073 1.7269,-0.0564 5.1089,-0.8762 5.1089,-0.8762"
               fill="none"
               stroke="#000000"
               stroke-width="0.64488"
               id="path1787" />
            <path
               d="m 107.26,875.4 c 0,0 3.7195,0.58766 5.5902,0.52652 1.8706,-0.0611 5.5439,-0.89043 5.5439,-0.89043"
               fill="none"
               stroke="#000000"
               stroke-width="0.64488"
               id="path1789" />
            <path
               d="m 106.94,877.18 c 0,0 3.975,0.57931 5.9719,0.51404 1.9969,-0.0653 5.9256,-0.9029 5.9256,-0.9029"
               fill="none"
               stroke="#000000"
               stroke-width="0.64488"
               id="path1791" />
            <path
               d="m 106.67,878.96 c 0,0 4.1963,0.57207 6.3027,0.50323 2.1065,-0.0688 6.2564,-0.91372 6.2564,-0.91372"
               fill="none"
               stroke="#000000"
               stroke-width="0.64488"
               id="path1793" />
            <path
               d="m 106.44,880.74 c 0,0 4.3845,0.56593 6.5842,0.49403 2.1997,-0.0719 6.5379,-0.92291 6.5379,-0.92291"
               fill="none"
               stroke="#000000"
               stroke-width="0.64488"
               id="path1795" />
            <path
               d="m 106.27,882.52 c 0,0 4.5403,0.56084 6.8174,0.48642 2.277,-0.0744 6.771,-0.93054 6.771,-0.93054"
               fill="none"
               stroke="#000000"
               stroke-width="0.64488"
               id="path1797" />
            <path
               d="m 106.14,884.3 c 0,0 4.664,0.55679 7.0024,0.48036 2.3384,-0.0764 6.9561,-0.93658 6.9561,-0.93658"
               fill="none"
               stroke="#000000"
               stroke-width="0.64488"
               id="path1799" />
            <path
               d="m 106.06,886.07 c 0,0 4.7555,0.5538 7.1393,0.47588 2.3838,-0.0779 7.093,-0.94105 7.093,-0.94105"
               fill="none"
               stroke="#000000"
               stroke-width="0.64488"
               id="path1801" />
            <path
               d="m 106.03,887.85 c 0,0 4.8142,0.55188 7.227,0.47302 2.4129,-0.0789 7.1807,-0.94392 7.1807,-0.94392"
               fill="none"
               stroke="#000000"
               stroke-width="0.64488"
               id="path1803" />
            <path
               d="m 106.05,889.62 c 0,0 4.839,0.55107 7.2642,0.4718 2.4252,-0.0793 7.2179,-0.94513 7.2179,-0.94513"
               fill="none"
               stroke="#000000"
               stroke-width="0.64488"
               id="path1805" />
            <path
               d="m 106.12,891.39 c 0,0 4.8285,0.55141 7.2485,0.47232 2.42,-0.0791 7.2022,-0.94463 7.2022,-0.94463"
               fill="none"
               stroke="#000000"
               stroke-width="0.64488"
               id="path1807" />
            <path
               d="m 106.25,893.16 c 0,0 4.7807,0.55298 7.1769,0.47466 2.3962,-0.0783 7.1306,-0.94228 7.1306,-0.94228"
               fill="none"
               stroke="#000000"
               stroke-width="0.64488"
               id="path1809" />
            <path
               d="m 106.44,894.92 c 0,0 4.6926,0.55586 7.0452,0.47897 2.3526,-0.0769 6.9989,-0.93798 6.9989,-0.93798"
               fill="none"
               stroke="#000000"
               stroke-width="0.64488"
               id="path1811" />
            <path
               d="m 106.7,896.69 c 0,0 4.5606,0.56017 6.8477,0.48542 2.2871,-0.0747 6.8014,-0.93152 6.8014,-0.93152"
               fill="none"
               stroke="#000000"
               stroke-width="0.64488"
               id="path1813" />
            <path
               d="m 107.03,898.45 c 0,0 4.3797,0.56609 6.5771,0.49427 2.1974,-0.0718 6.5308,-0.92269 6.5308,-0.92269"
               fill="none"
               stroke="#000000"
               stroke-width="0.64488"
               id="path1815" />
            <g
               fill-rule="evenodd"
               id="g1821">
              <path
                 d="m 118.45,901.25 -4.7676,0.15625 -4.7695,0.15625 4.1836,127.99 4.9766,6.1933 4.5606,-6.5058 z"
                 fill="#1780ce"
                 stroke="#000000"
                 stroke-width="0.99921"
                 id="path1817" />
              <path
                 d="m 116.85,901.3 -6.3359,0.20703 4.1484,126.91997 3.3056,4.1138 3.0303,-4.3208 z"
                 id="path1819" />
            </g>
            <g
               stroke="#000000"
               stroke-linecap="round"
               stroke-linejoin="round"
               stroke-width="0.64488"
               id="g1827">
              <ellipse
                 transform="rotate(-1.872)"
                 cx="84.179001"
                 cy="904.64001"
                 rx="11.099"
                 ry="5.3834"
                 fill="#e9c13a"
                 id="ellipse1823" />
              <ellipse
                 transform="rotate(-1.872)"
                 cx="84.179001"
                 cy="904.64001"
                 rx="6.6703"
                 ry="2.8167"
                 id="ellipse1825" />
            </g>
          </g>
          <path
             d="m 38.225,806.87 14.108,1.6426 -11.912,7.7356 14.108,1.6428 -11.912,7.7355 14.109,1.6425 -11.913,7.7358 14.106,1.643 -11.91,7.7352 14.106,1.6432 -11.91,7.735 14.105,1.6433 -11.909,7.7349 14.105,1.6435 -11.91,7.7305"
             fill="none"
             stroke="#000000"
             stroke-linecap="round"
             stroke-linejoin="round"
             stroke-width="0.99921"
             id="path1831" />
          <path
             d="m 29.633,858.33 c -0.7766,0.0201 -1.5393,0.32468 -2.1973,0.94336 -0.65794,0.61869 -1.2105,1.552 -1.5703,2.8281 -0.3598,1.2761 -0.52586,2.8945 -0.4082,4.8867 0.11766,1.9922 0.51837,4.3578 1.293,7.125 -0.03188,0.004 0.30458,1.2051 1.1844,1.1247 2.5199,-0.23007 4.938,-0.41948 7.5911,-0.79431 1.0509,-0.64224 1.1207,-0.86406 1.4379,-1.5063 l -1.8696,-14.795 z"
             fill="#f4f2ef"
             fill-rule="evenodd"
             stroke="#000000"
             stroke-linecap="round"
             stroke-linejoin="round"
             stroke-width="0.99921"
             id="path1833" />
          <path
             d="m 20.35,827.02 -4.0605,4.5938 v 42.125 c 3.5356,1.2978 7.0425,1.8891 10.461,0.375 -0.7746,-2.7672 -1.1753,-5.1328 -1.293,-7.125 -0.11766,-1.9923 0.04835,-3.6106 0.4082,-4.8867 0.35985,-1.2761 0.91237,-2.2094 1.5703,-2.8281 0.65794,-0.61868 1.4207,-0.92328 2.1973,-0.94336 -0.77324,-0.92452 -0.80448,-1.1063 -2.3438,-2.7969 4.8852,-3.5539 7.6694,-7.1572 11.252,-10.928 v -0.002 l -18.191,-17.584 z"
             fill="#e9c13a"
             fill-rule="evenodd"
             stroke="#000000"
             stroke-linecap="round"
             stroke-linejoin="round"
             stroke-width="0.99921"
             id="path1835" />
          <path
             d="m 36.336,836.72 -5.9121,-21.113 -0.52734,0.5957 c -1.6119,0.007 -2.0335,0.97094 -2.002,2.2676 l -4.8086,5.4434 z"
             fill="#dd1d1d"
             fill-rule="evenodd"
             stroke="#000000"
             stroke-width="0.99921"
             id="path1837" />
          <path
             d="m 18.812,834.21 6.7351,-2.171 -1.5371,7.1957 6.7351,-2.171 -1.5371,7.1957 6.7351,-2.171 -1.6323,7.1036 4.2314,-4.5912 2.3477,-13.569 -7.4067,2.9314 1.9163,-8.2387 -7.1144,3.2139 2.2086,-7.9561 -7.4067,2.9314 -2.7381,3.1003 z"
             fill-rule="evenodd"
             stroke="#000000"
             stroke-linecap="round"
             stroke-linejoin="round"
             stroke-width="0.99921"
             id="path1839" />
          <path
             d="m 20.349,827.02 18.193,17.587"
             fill="none"
             stroke="#000000"
             stroke-width="1px"
             id="path1841" />
          <path
             d="m 26.025,768.58 25.885,92.447 -8.1321,2.277 -25.885,-92.447 c -0.12694,-0.10023 0.82933,-12.698 0.82933,-12.698 l 7.3208,10.484"
             fill="#1780ce"
             fill-rule="evenodd"
             stroke="#000000"
             stroke-linecap="round"
             stroke-linejoin="round"
             stroke-width="0.99921"
             id="path1843" />
          <path
             d="m 36.336,836.72 -13.25,-12.807 c -2.4511,0.31128 -2.8582,1.4874 -2.7363,3.0996 v 0.002 l 18.191,17.584 -2.2051,-7.8789 z"
             fill="#dd1d1d"
             fill-rule="evenodd"
             stroke="#000000"
             stroke-width="0.64488"
             id="path1845" />
          <path
             d="m 27.289,855.53 c -3.9275,-4.2374 -6.3892,-5.1259 -8.7807,-4.6101"
             fill="none"
             stroke="#000000"
             stroke-linecap="round"
             stroke-linejoin="round"
             stroke-width="0.99921"
             id="path1847" />
          <path
             d="m 121.89,863.43 c -1.4182,1.0255 -3.1303,2.0768 -4.4363,6.3386"
             fill="none"
             stroke="#000000"
             stroke-linecap="round"
             stroke-linejoin="round"
             stroke-width="1px"
             id="path1849" />
          <path
             d="m 43.181,878.45 c 0,0 -2.4612,8.0346 -3.3509,12.136 -0.86838,4.0031 -1.9315,12.136 -1.9315,12.136"
             fill="none"
             stroke="#000000"
             stroke-width="1px"
             id="path1851" />
          <path
             d="m 44.599,878.45 c 0,0 -2.4612,8.0346 -3.3509,12.136 -0.86838,4.0031 -1.9315,12.136 -1.9315,12.136"
             fill="none"
             stroke="#000000"
             stroke-width="1px"
             id="path1853" />
          <path
             d="m 48.509,879.1 -3.8887,24.508"
             fill="none"
             stroke="#000000"
             stroke-width="1px"
             id="path1855" />
          <path
             d="m 61.419,880.16 v 12.411 l 1e-6,12.411"
             fill="none"
             stroke="#000000"
             stroke-width="1px"
             id="path1857" />
          <path
             d="m 62.836,880.16 v 12.411 l 1e-6,12.411"
             fill="none"
             stroke="#000000"
             stroke-width="1px"
             id="path1859" />
          <path
             d="m 68.847,880.28 c 0,0 1.1067,8.2592 1.4844,12.407 0.37572,4.1268 0.7767,12.407 0.7767,12.407"
             fill="none"
             stroke="#000000"
             stroke-width="1px"
             id="path1861" />
          <path
             d="m 67.429,880.28 c 0,0 1.1067,8.2592 1.4844,12.407 0.37572,4.1268 0.7767,12.407 0.7767,12.407"
             fill="none"
             stroke="#000000"
             stroke-width="1px"
             id="path1863" />
          <path
             d="m 70.264,880.28 c 0,0 1.1067,8.2592 1.4844,12.407 0.37572,4.1268 0.7767,12.407 0.7767,12.407"
             fill="none"
             stroke="#000000"
             stroke-width="1px"
             id="path1865" />
          <path
             d="m 20.291,763.76 -0.41154,6.538 26.353,94.119 4.1584,-1.1643 -26.353,-94.119 z"
             fill-rule="evenodd"
             id="path1867" />
          <g
             transform="translate(169.12,556.49)"
             stroke="#000000"
             id="g1885">
            <path
               d="m -49.733,351.8 c 0.07856,-0.24557 0.77091,-1.2666 3.3733,-1.4813 4.4871,0.12408 6.8302,3.072 7.8728,4.4042 0.97506,1.5352 0.65507,2.6706 0.44194,4.0659 -0.19209,1.2576 -1.5082,5.5589 -5.0381,10.253 -2.2149,2.9454 -4.0935,4.1118 -6.2261,4.2725 -2.464,0.18569 -5.7402,-0.6865 -9.2419,-2.3721 -1.0653,-0.5576 -0.44919,-1.6991 0.21718,-1.8341 -1.6807,-1.0085 -3.4001,-2.9442 -3.7613,-3.6658 -0.60103,-1.2006 0.56769,-1.3761 0.0086,-2.3226 -1.2072,-2.0209 -0.9425,-2.2717 -0.70711,-2.961 -0.14928,-0.66916 -0.49717,-1.898 1.0607,-2.1213 0.43294,-0.11519 1.3656,0.6441 2.2539,1.3258 1.6935,-0.57828 3.8013,-0.70334 5.6127,-0.57453 1.5648,-0.9318 2.1837,-2.1806 6.1872,-3.7123 0.8648,-0.36306 0.85043,-0.72157 -1.964,-0.53062 z"
               fill="#f4f2ef"
               fill-rule="evenodd"
               stroke-linecap="round"
               stroke-linejoin="round"
               stroke-width="0.99921"
               id="path1869" />
            <path
               transform="translate(2e-6)"
               d="m -62.794,360.15 c 3.8312,2.7349 3.675,2.8142 13.081,2.2318"
               fill="none"
               stroke-linecap="round"
               stroke-linejoin="round"
               stroke-width="0.64488"
               id="path1871" />
            <path
               transform="translate(2e-6)"
               d="m -62.087,363.12 c 3.7131,3.5618 4.8668,3.2248 12.662,3.6681"
               fill="none"
               stroke-linecap="round"
               stroke-linejoin="round"
               stroke-width="0.64488"
               id="path1873" />
            <path
               transform="translate(2e-6)"
               d="m -58.334,369.1 c 2.2153,0.78098 4.4476,1.4185 8.7284,1.4332"
               fill="none"
               stroke-linecap="round"
               stroke-linejoin="round"
               stroke-width="0.64488"
               id="path1875" />
            <path
               d="m -128.26,296.4 c -2.5372,1.0833 -5.4832,4.5623 -6.2135,5.9837 -0.97815,1.9038 -2.5839,7.9988 2.3156,14.066 11.614,2.1065 13.232,3.4838 17.724,-3.1357 0.63127,-1.4322 -0.45057,-1.7331 -0.84532,-1.2462 1.0694,-1.095 1.9078,-2.41 1.9078,-2.41 0.2713,-0.33913 1.373,-2.7031 0.125,-2.5312 0.9911,-1.077 1.4647,-2.7225 0.80048,-5.6067 -0.14725,-0.84526 -0.91523,-1.1797 -1.4125,-1.4416 -0.55709,-2.9446 -0.18235,-3.4288 -3.4924,-3.8978 l -2.2916,-0.32314 1.0211,3.6441 c 0.56218,-0.0234 1.3331,0.59855 -3.4774,2.0974 -1.1195,1.1523 -1.966,1.0988 -2.9677,0.71953 -0.87834,-0.41898 -1.8189,-0.2804 -4.5453,-0.10079 -1.1337,-0.73067 1.7824,-0.50341 2.6467,-1.1919 z"
               fill="#f4f2ef"
               fill-rule="evenodd"
               stroke-linecap="round"
               stroke-linejoin="round"
               stroke-width="0.99921"
               id="path1877" />
            <path
               d="m -113.86,300.08 c 0.29956,3.8295 -0.0903,3.0075 -6.4817,7.767"
               fill="none"
               stroke-width="0.64488"
               id="path1879" />
            <path
               d="m -113.25,307.13 -6.375,4.8281"
               fill="none"
               stroke-width="0.64488"
               id="path1881" />
            <path
               d="m -115.28,312.07 -3.4166,3.1429"
               fill="none"
               stroke-width="0.64488"
               id="path1883" />
          </g>
          <path
             d="m 7.6259,740.96 c -3.9978,0 -7.2148,4.7281 -7.2148,10.602 v 289.79 c 0,5.8734 3.2171,10.602 7.2148,10.602 h 137.11 c 3.9978,0 7.2168,-4.7282 7.2168,-10.602 v -289.79 c 0,-5.8735 -3.219,-10.602 -7.2168,-10.602 z m 14.369,15.879 h 108.37 c 3.1599,0 5.7031,4.2459 5.7031,9.5195 v 260.19 c 0,5.2737 -2.5432,9.5195 -5.7031,9.5195 h -108.37 c -3.1599,0 -5.7051,-4.2458 -5.7051,-9.5195 v -260.19 c 0,-5.2736 2.5452,-9.5195 5.7051,-9.5195 z"
             fill="#f4f2ef"
             fill-rule="evenodd"
             stroke="#000000"
             stroke-width="0.82205"
             id="path1887" />
          <path
             d="M 93.789,968.61 A 34.402,34.402 0 0 1 82.681,971.2279 34.402,34.402 0 0 1 71.48,970.1093"
             fill="none"
             stroke="#000000"
             stroke-linecap="round"
             stroke-linejoin="round"
             stroke-width="0.99921"
             id="path1889" />
          <path
             d="m 58.65,965.78 a 34.402,34.402 0 0 1 -11.141,3.082 34.402,34.402 0 0 1 -11.288,-0.72389"
             fill="none"
             stroke="#000000"
             stroke-linecap="round"
             stroke-linejoin="round"
             stroke-width="0.99921"
             id="path1891" />
          <path
             d="M 94.084,823.85"
             fill="none"
             stroke="#e9c13a"
             stroke-linecap="round"
             stroke-linejoin="round"
             stroke-width="0.29055"
             id="path1893" />
          <path
             d="M 129.15,823.85"
             fill="none"
             stroke="#e9c13a"
             stroke-linecap="round"
             stroke-linejoin="round"
             stroke-width="0.29055"
             id="path1895" />
          <path
             d="M 91.613,845.54"
             fill="none"
             stroke="#e9c13a"
             stroke-linecap="round"
             stroke-linejoin="round"
             stroke-width="0.29055"
             id="path1897" />
          <path
             d="M 117.92,822.35"
             fill="none"
             stroke="#e9c13a"
             stroke-linecap="round"
             stroke-linejoin="round"
             stroke-width="0.29055"
             id="path1899" />
          <path
             d="m 106.5,854.99 -3.591,-10.456 11.347,6.7069 -4.2444,-11.339 10.693,5.8224 -5.1597,-12.243 10.203,5.2648"
             fill="none"
             stroke="#000000"
             stroke-linecap="round"
             stroke-linejoin="round"
             stroke-width="1px"
             id="path1901" />
          <path
             d="m 27.895,818.47 4.5531,4.3642"
             fill="none"
             stroke="#000000"
             stroke-linecap="round"
             stroke-linejoin="round"
             stroke-width="1px"
             id="path1903" />
          <path
             d="m 67.213,790.33 0.01363,8.1914 c -1.3839,0.0595 -2.8282,0.18847 -4.3516,0.42383 5.0141,3.4818 10.972,5.3495 17.076,5.3535 1.7259,-0.005 3.5053,-0.1127 5.2422,-0.375 l 2.4512,-0.48633 c -0.64967,-0.22598 -1.4686,-0.59969 -2.418,-1.0293 v -7.5059 l 1e-6,-0.53028 c -7.7464,5.373 -16.271,4.7733 -18,-4.0381 z"
             fill="#f4f2ef"
             fill-rule="evenodd"
             stroke="#000000"
             stroke-linecap="round"
             stroke-linejoin="round"
             stroke-width="1px"
             id="path1905" />
          <path
             d="m 88.398,792.21 c -0.34128,-0.004 -0.40309,0.42703 -0.25,0.6875 0.12006,0.20423 0.35147,0.35659 0.51758,0.5293 0.51834,0.53936 2.1464,2.1511 2.7012,1.0449 -0.43988,-0.27329 -0.85936,-0.56648 -1.2734,-0.87109 -0.30974,-0.22793 -0.55435,-0.49657 -0.83008,-0.75586 -0.19969,-0.18792 -0.4248,-0.51317 -0.70117,-0.60547 -0.06031,-0.0203 -0.11531,-0.0287 -0.16406,-0.0293 z m 0.9668,-0.9707 c -0.31274,0.0352 -0.29127,0.52207 -0.1543,0.72656 0.44305,0.66116 1.6026,1.5309 2.3477,1.8926 0.4779,0.23208 0.99464,0.21271 1.1465,-0.31641 -0.48956,-0.2957 -0.9944,-0.55014 -1.4648,-0.87304 -0.32578,-0.22351 -0.605,-0.49326 -0.89258,-0.75586 -0.22694,-0.20716 -0.50629,-0.57431 -0.82617,-0.65821 -0.05891,-0.0155 -0.11157,-0.0206 -0.15625,-0.0156 z m 1.3555,-0.8711 c -0.05894,-0.004 -0.11759,0.003 -0.17773,0.0215 -0.63,0.19714 0.07118,0.83571 0.31641,1.0352 0.76128,0.61875 1.531,1.1752 2.4824,1.5352 0.71338,0.26999 1.2123,0.19018 1.0195,-0.58008 -0.97116,-0.11952 -1.9063,-0.60823 -2.6055,-1.2285 -0.24539,-0.2178 -0.62261,-0.75331 -1.0352,-0.78321 z m 0.7207,-1.2715 c -0.08706,-0.022 -0.17414,-0.0245 -0.25586,0.004 -0.47722,0.16631 -0.12016,0.69221 0.11914,0.87304 0.84943,0.64183 1.7785,1.5284 2.8652,1.793 0.29031,0.071 0.7213,0.24282 1.0098,0.0879 0.22206,-0.11984 0.23935,-0.42585 0.04102,-0.57422 -0.32676,-0.24309 -0.97704,-0.31815 -1.3691,-0.50586 -0.63587,-0.3046 -1.1869,-0.80185 -1.7207,-1.2344 -0.163,-0.13201 -0.42828,-0.37716 -0.68945,-0.44336 z m 0.45508,-1.457 c -0.04712,-0.006 -0.0929,-0.004 -0.13672,0.01 -0.61828,0.18823 0.1184,0.89764 0.30859,1.0664 0.74484,0.66166 1.5393,1.2613 2.4844,1.6719 0.30686,0.1336 0.808,0.35444 1.1426,0.1875 0.26572,-0.13268 0.28586,-0.4058 0.05273,-0.57227 -0.28707,-0.20506 -0.68798,-0.29512 -1.0039,-0.46289 -0.67369,-0.35753 -1.303,-0.79753 -1.9121,-1.2383 -0.21346,-0.15447 -0.6057,-0.61991 -0.93555,-0.66211 z m -27.281,-1.291 c -0.25115,0.0281 -0.79581,-0.0385 -0.98047,0.13477 -0.35471,0.33293 0.39333,0.60744 0.66211,0.58594 0.26229,-0.0202 0.72944,-0.0589 0.91797,-0.2461 0.3944,-0.39161 -0.32592,-0.50451 -0.59961,-0.47461 z m 27.389,-0.71484 c -0.5354,0.71195 0.23563,1.2055 0.82812,1.6621 0.84217,0.64912 1.666,1.3414 2.6758,1.7637 0.36141,0.15131 0.85809,0.42354 1.2734,0.33594 0.22952,-0.0479 0.5114,-0.32047 0.33789,-0.53906 -0.14267,-0.17886 -0.4502,-0.17666 -0.65625,-0.25586 -0.34465,-0.13122 -0.69474,-0.34598 -1.0195,-0.51758 -0.50878,-0.26884 -1.0171,-0.58202 -1.4648,-0.92969 -0.59498,-0.46183 -1.2278,-1.2862 -1.9746,-1.5195 z m 0.52148,-1.4688 c -0.77923,0.18576 0.27974,1.1557 0.5,1.3438 1.042,0.88979 2.1335,1.8526 3.502,2.3027 0.36923,0.12083 0.91805,0.39614 1.3223,0.23047 0.42529,-0.17439 0.07058,-0.6359 -0.17578,-0.77929 -0.58573,-0.34058 -1.3015,-0.53417 -1.9121,-0.84375 -0.72248,-0.36623 -1.323,-0.88381 -1.9277,-1.3848 -0.25891,-0.21445 -0.92292,-0.96144 -1.3086,-0.86914 z m 0.35547,-1.9453 c -0.08069,-0.0127 -0.15996,-0.007 -0.23633,0.0195 -0.85706,0.29999 0.47313,1.4678 0.76172,1.6973 1.4027,1.1154 2.7123,2.012 4.459,2.582 0.47753,0.15609 1.2724,0.56265 1.7793,0.31836 0.24322,-0.11722 0.3725,-0.49275 0.10352,-0.65429 -0.52886,-0.3163 -1.3606,-0.3327 -1.9473,-0.57422 -1.2171,-0.50107 -2.386,-1.2635 -3.377,-2.0781 -0.33562,-0.27575 -0.97814,-1.2215 -1.543,-1.3105 z m 0.71875,-1.1387 c -0.26811,0.0692 -0.2812,0.3584 -0.15625,0.54102 0.25694,0.37551 0.75425,0.72916 1.1113,1.0293 1.2377,1.0403 2.3799,2.0074 4.0098,2.5078 0.42618,0.13022 1.1352,0.44214 1.584,0.26563 0.32585,-0.12808 0.28171,-0.5988 0,-0.74219 -0.60166,-0.30482 -1.3885,-0.33232 -2.0293,-0.55469 -0.9835,-0.34153 -2.0423,-1.0815 -2.7754,-1.7598 -0.37338,-0.34546 -0.78887,-0.64139 -1.1621,-0.98046 -0.15237,-0.1383 -0.33056,-0.37114 -0.58203,-0.30665 z m -33.723,-0.60351 c -0.40506,0.075 -0.45811,1.2684 -0.4707,1.4941 -0.06872,1.2219 0.65479,3.3692 2.2148,3.5469 0.10263,-0.74174 -0.58593,-1.1297 -0.87109,-1.8027 -0.32472,-0.76666 -0.59695,-1.4362 -0.59375,-2.2676 0.0013,-0.23853 0.18896,-0.77443 -0.08398,-0.92773 -0.07312,-0.041 -0.13744,-0.0537 -0.19531,-0.043 z m 5.1836,-1.0371 c -0.82669,0.14339 -1.0731,1.5061 -1.0508,2.123 0.0097,0.26832 0.21556,0.80047 0.59766,0.73437 0.23149,-0.0401 0.2906,-0.3241 0.31445,-0.50195 0.04755,-0.35669 -0.01696,-0.69396 0.0957,-1.0469 0.10535,-0.32967 0.38577,-0.63852 0.4082,-0.98828 0.013,-0.20355 -0.13122,-0.36171 -0.36523,-0.32031 z m 28.725,-0.42578 c -0.31056,-0.0344 -0.39884,0.3684 -0.35352,0.57226 0.0865,0.38852 0.63236,0.82908 0.92969,1.1055 1.4166,1.3164 3.0723,2.5325 5.0312,3.041 0.47036,0.12214 1.224,0.47792 1.7168,0.36914 0.20283,-0.0448 0.4231,-0.34372 0.21874,-0.50195 -0.14862,-0.1157 -0.47724,-0.1198 -0.6621,-0.1875 -0.6597,-0.23984 -1.3312,-0.44181 -1.9727,-0.72266 -1.2934,-0.5662 -2.297,-1.3581 -3.375,-2.1953 -0.39745,-0.3087 -0.74068,-0.7189 -1.0781,-1.082 -0.11868,-0.12755 -0.2517,-0.37534 -0.45508,-0.39844 z m -26.877,-1.0293 c -0.33655,0.0714 -0.55403,0.39119 -0.65039,0.67188 -0.27209,0.7922 -0.46788,1.7366 -0.5957,2.5586 -0.04604,0.29605 -0.01077,0.94694 0.48242,0.90234 0.49873,-0.0445 0.34803,-0.66131 0.41406,-0.96093 0.20413,-0.92557 0.52397,-1.8283 0.75976,-2.7344 0.06884,-0.26454 -0.08244,-0.5067 -0.41016,-0.4375 z m 27.08,-0.40625 c -0.25839,0.0555 -0.20193,0.3395 -0.10156,0.4961 0.26279,0.40908 0.72972,0.75868 1.1055,1.0801 1.3621,1.1654 2.8078,2.5448 4.5918,3.1465 0.463,0.15608 1.069,0.62805 1.5918,0.44726 0.38582,-0.13336 0.50318,-0.61779 0.18164,-0.86523 -0.27153,-0.20832 -0.68782,-0.21572 -1.0098,-0.32617 -0.54387,-0.18645 -1.0773,-0.46143 -1.5918,-0.70703 -1.0833,-0.51759 -2.0764,-1.3842 -2.9941,-2.1191 -0.37961,-0.30398 -1.1855,-1.2793 -1.7734,-1.1524 z m 2.2207,-1.5976 c -0.08153,0.15493 -0.17337,0.33559 -0.0625,0.50195 0.13733,0.20585 0.47238,0.29531 0.67188,0.44531 0.55942,0.42177 1.1084,0.84924 1.6191,1.3203 0.2133,0.19668 0.57715,0.6774 0.94531,0.5918 0.55949,-0.13086 -0.2878,-0.89678 -0.40625,-1.0566 -0.68478,-0.92656 -1.5964,-1.4543 -2.7676,-1.8027 z m -2.2227,-0.0977 c -0.0679,-0.007 -0.13127,-0.002 -0.18945,0.0176 -0.65459,0.22022 0.55878,0.99267 0.75586,1.1328 1.3034,0.93029 2.6012,1.969 3.9492,2.8398 0.35784,0.23107 1.1188,0.71534 1.582,0.4668 0.31465,-0.16877 0.14155,-0.45437 -0.11914,-0.55664 -1.7726,-0.6905 -2.9158,-2.0848 -4.5098,-3.0469 -0.31829,-0.19215 -0.99341,-0.80752 -1.4688,-0.85352 z m -24.855,-1.6152 c -0.63485,0.0373 -1.2535,0.62348 -1.7754,0.9004 -1.1826,0.62736 -2.4225,1.382 -3.2051,2.4394 -0.36836,0.49782 -0.53425,1.0909 -0.81055,1.6289 -0.26785,0.52115 -0.6533,1.0505 -0.74414,1.6289 -0.23298,1.4827 0.40141,4.1992 2.7188,3.6445 0.52655,-0.12593 0.19087,-0.67922 -0.08008,-0.88281 -0.3593,-0.2693 -0.87916,-0.093 -1.25,-0.3125 -0.85535,-0.50621 -0.69273,-1.7908 -0.57031,-2.5664 0.29651,-1.8772 2.2638,-3.8537 3.9512,-4.8223 0.53019,-0.30429 1.1884,-0.41736 1.707,-0.72852 0.2365,-0.14192 0.58324,-0.96108 0.05859,-0.92969 z m 7.3828,-6.2578 c -0.76271,0.0202 -1.5949,0.24768 -2.1523,0.46094 -1.1033,0.42214 -1.6793,1.331 -2.5488,2.0332 -1.3335,1.0769 -2.8418,1.9259 -4.2676,2.8906 -0.77402,0.52383 -1.6446,0.90456 -2.4199,1.4414 -0.2612,0.18098 -0.87158,0.42791 -0.57031,0.82813 0.22255,0.29485 0.62708,-3.9e-4 0.82617,-0.15039 0.6879,-0.51942 1.5267,-0.93349 2.293,-1.3555 0.72358,-0.39838 1.4201,-0.84371 2.1641,-1.2109 0.52394,-0.2585 1.0041,-0.73666 1.4648,-1.0879 0.62796,-0.47867 1.3175,-0.90209 1.8652,-1.4629 0.57083,-0.58415 0.97996,-1.089 1.8301,-1.3359 0.75281,-0.2187 2.2028,-0.27971 2.7383,-0.81445 -0.33325,-0.18633 -0.76503,-0.24843 -1.2227,-0.23633 z m 6.1582,-0.11133 c -0.52087,0.002 -1.1813,0.30142 -1.5586,0.42383 -0.6721,0.21815 -1.403,0.16423 -2.1035,0.28125 -0.86396,0.14454 -1.7275,0.39239 -2.5469,0.67774 -0.50613,0.17638 -1.8354,0.37877 -1.6562,1 1.255,0.11097 2.4639,-0.71333 3.6953,-0.95118 0.91708,-0.17739 1.8951,0.0653 2.8027,-0.21289 0.5347,-0.16385 1.1884,-0.26526 1.6543,-0.5664 0.17348,-0.1126 0.42449,-0.37143 0.17188,-0.53711 -0.12674,-0.083 -0.28536,-0.11577 -0.45898,-0.11524 z m -8.9648,-0.46093 c -0.08768,-0.002 -0.17325,0.007 -0.23828,0.0254 -1.1278,0.32029 -2.2447,1.3287 -3.1836,1.959 -1.6669,1.1192 -3.4163,2.127 -5.0332,3.3184 -0.5665,0.41752 -1.5534,0.78519 -1.9629,1.3262 -0.18553,0.24509 -0.42663,0.78895 0.11719,0.83985 0.23311,0.0218 0.45136,-0.1868 0.63672,-0.28907 0.60039,-0.32884 1.0542,-0.792 1.6562,-1.1133 1.0392,-0.5543 1.9229,-1.2892 2.8652,-1.9629 1.1553,-0.82597 2.3194,-1.593 3.4395,-2.4648 0.41433,-0.32259 0.92368,-0.63943 1.4023,-0.87695 0.21536,-0.10694 0.5622,-0.15782 0.6875,-0.36915 0.16276,-0.27481 -0.12368,-0.38557 -0.38672,-0.39257 z m -1.3848,-0.5625 c -0.757,0.0788 -1.5144,0.59187 -2.166,0.91211 -1.6023,0.78789 -3.3562,1.6079 -4.7754,2.6562 -0.53249,0.39313 -0.94688,0.89785 -1.3359,1.4082 -0.13902,0.1823 -0.30988,0.55269 0.06445,0.61719 0.60714,0.10337 1.4925,-0.96119 1.9707,-1.252 1.8378,-1.1177 3.5502,-2.3607 5.4785,-3.3457 0.30631,-0.15639 0.81276,-0.39556 1.0273,-0.65039 0.16734,-0.19799 -0.03301,-0.3704 -0.26367,-0.3457 z m 14.779,-0.30078 c -0.05386,-0.008 -0.11729,-0.005 -0.19141,0.0117 -0.50694,0.11192 -0.29602,0.92842 -0.1875,1.252 0.4205,1.254 0.60663,2.2926 1.5,3.373 1.1236,1.3592 2.7288,2.4794 4.4824,3.0762 1.7602,0.59899 3.6712,0.82446 5.2871,1.7734 0.92242,0.54165 1.3912,1.1245 1.9648,1.9531 0.13994,0.20227 0.37582,0.50658 0.68945,0.37305 0.32517,-0.13893 -0.0234,-0.60424 -0.12304,-0.7793 -0.39789,-0.69953 -0.86539,-1.4279 -1.6406,-1.8398 -3.252,-1.7277 -7.4581,-2.0577 -9.8789,-4.9629 -0.87187,-1.0463 -1.264,-2.0421 -1.543,-3.3144 -0.05969,-0.27218 0.01767,-0.86131 -0.35938,-0.91601 z m -6.2129,-0.20313 c -0.40534,0.0153 -0.80938,0.055 -1.2402,0.0723 -0.74059,0.0297 -1.4961,-0.0299 -2.2305,0.13867 -0.50045,0.11477 -1.6691,0.18386 -1.7793,0.73242 0.96491,0.23136 2.1379,-0.0335 3.1172,-0.15039 0.64064,-0.0755 1.593,-0.13758 2.2285,-0.0469 0.69375,0.0992 1.3315,0.19922 2.0391,0.19922 0.2221,-10e-4 0.72223,-0.0648 0.50586,-0.38867 -0.16822,-0.25169 -1.0894,-0.42507 -1.3984,-0.48437 -0.43188,-0.0783 -0.83685,-0.0876 -1.2422,-0.0723 z m 8.7441,-0.50586 c -0.0529,0.004 -0.10411,0.0165 -0.14844,0.0371 v 0.002 c -0.25726,0.11868 -0.2405,0.79082 -0.19531,1.0117 0.18428,0.90228 0.68916,1.8641 1.2559,2.6152 1.7492,2.3187 5.2519,2.8037 7.8281,4.0449 0.6365,0.30661 1.232,0.68259 1.8477,1.0234 0.15694,0.0869 0.47775,0.37028 0.67774,0.27148 0.26212,-0.12875 -0.19732,-0.48271 -0.29492,-0.57031 -0.492,-0.44128 -1.0732,-0.9517 -1.6582,-1.2852 -2.6071,-1.4861 -5.7819,-1.7833 -7.8379,-4.0644 -0.81783,-0.90737 -0.74905,-1.8486 -1.0977,-2.9004 -0.031,-0.0938 -0.1173,-0.14993 -0.21875,-0.17383 -0.05072,-0.0119 -0.1053,-0.0157 -0.1582,-0.0117 z m -18.117,-0.31445 c -0.06975,-0.0151 -0.14364,-0.0157 -0.21289,0.002 -0.27173,0.0695 -0.50895,0.28664 -0.76367,0.40039 -0.80382,0.35784 -1.5664,0.74366 -2.3555,1.1328 -2.521,1.243 -5.5029,2.6372 -6.4199,5.3535 -0.2945,0.87244 -0.21586,1.8642 0.05273,2.7324 0.18636,0.60245 0.46005,1.0977 0.44141,1.7441 -0.03586,1.2547 -1.0878,2.5096 -1.418,3.7227 -0.39611,1.4556 0.4863,3.229 1.4707,4.3027 0.59432,0.64829 1.5247,1.1609 2.4961,0.80274 0.18843,-0.0696 0.55472,-0.264 0.24414,-0.43555 -0.50873,-0.28122 -1.1668,-0.1661 -1.6914,-0.52148 -1.708,-1.1571 -1.8914,-3.1377 -1.3359,-4.8477 0.25331,-0.77998 0.80862,-1.4814 1.0156,-2.2676 0.11895,-0.45214 0.05951,-0.98992 0.04688,-1.4531 -0.02835,-0.9926 -0.8422,-1.7851 -0.52148,-2.8496 1.1343,-3.7644 5.2473,-5.0778 8.6113,-6.8457 0.22605,-0.11868 0.58016,-0.29346 0.6582,-0.53906 0.06694,-0.2104 -0.10912,-0.38819 -0.31836,-0.43359 z m 16.76,-0.1543 c -0.2159,0.0478 -0.28223,0.38823 -0.2832,0.58789 -0.0043,0.73613 -0.0192,1.5083 0.27148,2.209 0.5167,1.2458 1.1284,2.4242 2.2754,3.2969 0.61286,0.46614 1.3517,0.79331 2.0391,1.1543 2.9324,1.5397 8.0531,1.8376 8.8535,5.5508 0.81191,-0.009 0.59917,-0.54629 0.36328,-1.0469 -0.42865,-0.90952 -0.91785,-1.419 -1.7656,-2.0273 -3.0738,-2.2058 -7.4655,-2.3016 -10.043,-5.125 -0.71383,-0.78192 -1.1924,-1.9517 -1.2949,-2.9648 -0.03303,-0.32616 0.16103,-1.3833 -0.14648,-1.5684 -0.1079,-0.0654 -0.19756,-0.0823 -0.26953,-0.0664 z m -7.2793,-0.63086 c -0.27579,-0.0184 -0.55365,-0.0168 -0.83789,0.0137 -0.87306,0.0939 -1.7497,0.13188 -2.6133,0.3125 -1.0976,0.22961 -2.113,0.54571 -3.1836,0.85938 -0.25536,0.0749 -1.0408,0.46025 -0.4375,0.69531 0.69198,0.26931 1.6516,-0.3268 2.2852,-0.51172 1.4249,-0.41521 3.1553,-0.5827 4.6484,-0.5664 0.60943,0.007 1.4024,0.11615 1.9746,0.31445 0.44842,0.15526 0.77172,0.48212 1.2656,0.19726 0.62395,-0.35998 -0.41821,-0.69149 -0.69141,-0.77539 -0.78765,-0.24108 -1.5828,-0.48386 -2.4102,-0.53906 z m 11.361,-0.375 c -0.04526,-0.0115 -0.09945,-0.0121 -0.16211,0.002 -0.54314,0.12101 -0.431,0.5902 -0.32812,0.95313 0.21229,0.74982 0.31964,1.5161 0.86328,2.1504 0.79719,0.92998 1.9681,1.3311 3.0957,1.8106 1.2989,0.55236 2.6665,1.168 3.8848,1.8555 0.53304,0.30083 0.94065,0.71318 1.4023,1.0918 0.14708,0.12047 0.40343,0.37492 0.62695,0.29102 0.27772,-0.10483 0.19273,-0.44031 0.0488,-0.60352 -0.40735,-0.46021 -1.0201,-0.84273 -1.5039,-1.2363 -1.895,-1.5418 -4.8522,-1.8279 -6.5664,-3.6172 -0.70637,-0.73729 -1.0021,-1.4242 -1.1426,-2.3828 -0.02139,-0.14572 -0.08298,-0.27985 -0.21875,-0.31445 z m -1.3555,-0.0684 c -0.03952,-0.006 -0.08335,-0.002 -0.13476,0.0137 -0.34967,0.10567 -0.33123,0.68727 -0.32813,0.95118 0.0094,0.83719 0.22518,1.9862 0.77734,2.6738 0.79479,0.98997 1.9592,1.9465 3.1719,2.5039 1.4483,0.66591 3.0734,1.0708 4.459,1.8613 0.6179,0.35243 1.1867,0.83063 1.7207,1.2812 0.15491,0.13075 0.42968,0.46318 0.67969,0.33789 0.30373,-0.15331 0.0178,-0.52988 -0.10938,-0.69141 -0.4124,-0.52583 -0.96017,-0.95661 -1.5273,-1.3379 -2.2793,-1.5316 -5.8805,-1.758 -7.4766,-4.0703 -0.67994,-0.98504 -0.71852,-1.6876 -0.91406,-2.791 -0.03406,-0.19195 -0.04168,-0.69322 -0.31836,-0.73242 z m -20.592,-0.0469 c -0.89747,-0.11176 -2.0216,0.84323 -2.7363,1.2246 -2.6984,1.4402 -5.1811,2.5376 -6.7754,5.1367 -0.67318,1.0975 -0.78803,1.8484 -0.73242,3.082 0.0133,0.29438 0.14089,1.1103 0.55859,1.168 0.29943,0.0411 0.20182,-0.66672 0.18555,-0.81836 -0.12025,-1.1538 0.21558,-2.1514 0.86914,-3.1406 0.59007,-0.89305 1.3176,-1.8419 2.2051,-2.5098 0.87152,-0.65573 2.0051,-1.1008 2.9883,-1.5918 0.74089,-0.37003 1.4042,-0.85275 2.166,-1.1973 0.45618,-0.20616 1.1002,-0.35182 1.4434,-0.70898 0.19401,-0.20191 0.17971,-0.60153 -0.17188,-0.64453 z m 23.117,-0.10742 c -0.13437,-2e-4 -0.27371,0.0137 -0.37695,0.0137 0.0021,2.8837 3.2275,3.6687 5.4785,4.8516 0.5665,0.29785 1.1612,0.5651 1.7188,0.875 0.16614,0.0923 0.46722,0.38033 0.68164,0.30273 0.37509,-0.135 -0.046,-0.70849 -0.1836,-0.85351 -0.62361,-0.65604 -1.4944,-0.89749 -2.3437,-1.2305 -0.90428,-0.35454 -1.8522,-0.88697 -2.6113,-1.4609 -0.60193,-0.45492 -1.1229,-0.89081 -1.5488,-1.4961 -0.16643,-0.23653 -0.22825,-0.76951 -0.46289,-0.92774 -0.0877,-0.0585 -0.2172,-0.074 -0.35156,-0.0742 z m 1.668,-0.40625 c -0.16615,-0.006 -0.33722,0.0456 -0.51562,0.13085 0.50504,1.6899 2.2484,3.0662 4.0762,3.5469 v -0.002 c -0.29522,-1.0857 -1.4503,-1.6309 -2.2812,-2.3926 -0.3472,-0.3183 -0.45643,-0.77209 -0.79688,-1.0762 -0.15516,-0.13853 -0.31627,-0.20103 -0.48242,-0.20703 z m -12.936,-0.27735 c -1.6141,-0.002 -3.2469,0.002 -4.8418,0.25196 -1.6372,0.25628 -3.2805,0.8678 -4.8398,1.377 0.1479,0.87474 1.5668,0.22136 2.166,0.0391 2.4831,-0.75575 5.0072,-1.276 7.6426,-1.0176 0.75663,0.0744 1.4648,0.3733 2.166,0.59766 0.26707,0.0852 0.64782,0.10676 0.84961,-0.125 0.21681,-0.24887 -0.33405,-0.53698 -0.53125,-0.60938 -0.79318,-0.29439 -1.7541,-0.51267 -2.6113,-0.51367 z m -1.2559,-1.5996 c -0.38992,-10e-4 -0.7775,0.0123 -1.1641,0.0469 -2.2534,0.20223 -4.4466,0.75138 -6.625,1.291 -0.38351,0.0951 -1.0972,0.27232 -1.3809,0.52735 -0.18085,0.1627 -0.21645,0.52371 0.05273,0.63086 0.34587,0.1373 0.70613,-0.0975 1.0098,-0.21289 0.57229,-0.21791 1.2406,-0.43374 1.8477,-0.55079 1.2438,-0.24083 2.4982,-0.61009 3.7578,-0.76171 1.2713,-0.1536 2.5867,-0.0463 3.8672,-0.0762 0.76179,-0.018 1.4475,0.18712 2.1836,0.32227 0.25568,0.0475 0.64383,0.17391 0.87109,-0.002 0.52147,-0.40352 -0.6167,-0.86716 -0.93555,-0.91016 -1.1373,-0.15492 -2.3146,-0.29969 -3.4844,-0.30469 z m -8.5723,-1.3203 c -0.21175,0.008 -0.4487,0.11713 -0.61914,0.17773 -0.79492,0.28418 -1.4919,1.0368 -1.9082,1.6953 -0.13336,0.21084 -0.59225,0.90444 -0.23633,1.0898 0.39039,0.20343 0.5983,-0.29499 0.75195,-0.50781 0.49032,-0.67876 1.3671,-1.1767 2.0293,-1.7109 0.18669,-0.15083 0.59359,-0.54543 0.18359,-0.71289 -0.06183,-0.0252 -0.13059,-0.0343 -0.20117,-0.0312 z m 9.3828,-0.10352 c -2.6397,0 -5.215,0.71123 -7.7715,1.2324 -0.94089,0.19189 -2.3067,0.4218 -2.6113,1.3848 1.2601,-0.16996 2.5225,-0.73807 3.7578,-1.0391 2.1607,-0.52663 4.5846,-0.82227 6.8145,-0.82227 0.86575,10e-4 1.6977,0.21875 2.5488,0.28125 0.31051,0.0231 0.60052,-0.13117 0.4707,-0.45507 -0.11364,-0.28384 -0.5043,-0.35327 -0.78906,-0.41407 -0.75981,-0.16861 -1.6411,-0.16797 -2.4199,-0.16797 z m -2.9941,-0.98828 c -1.2733,-0.0138 -2.6231,0.30936 -3.8223,0.67774 -0.51822,0.15924 -1.6272,0.39354 -1.4648,1.0664 0.84401,-0.14934 1.6498,-0.40549 2.4844,-0.58203 0.58185,-0.12298 1.1888,-0.29285 1.7832,-0.34375 0.59727,-0.0516 1.2664,-0.0807 1.8477,-0.21094 0.15363,-0.0341 0.56052,-0.19074 0.43359,-0.39843 -0.11649,-0.19079 -1.0348,-0.20899 -1.2617,-0.20899 z"
             fill="#1780ce"
             fill-rule="evenodd"
             id="path1907" />
          <path
             d="m 78.564,758.8 c -0.75966,0.0101 -1.5182,0.0768 -2.1641,0.18945 -0.5509,0.0955 -1.0504,0.33047 -1.5938,0.42969 -0.64368,0.11701 -1.3473,4e-4 -1.9746,0.17578 -1.3571,0.36429 -2.9072,1.2384 -3.6152,2.3711 -0.38432,0.61499 -0.7224,1.3232 -1.0195,1.9766 -0.10331,0.22714 -0.03846,0.49106 -0.22656,0.68554 -0.65394,0.67649 -2.1104,0.99862 -2.9727,1.4336 -1.6408,0.82797 -3.3004,2.0573 -4.3984,3.4629 -1.2948,1.6574 -1.7775,4.0363 -1.248,5.9902 0.13596,0.50208 0.36762,1.0996 0.58398,1.5703 0.12259,0.26689 0.3453,0.50954 0.33594,0.81446 -0.01264,0.40698 -0.48468,0.76659 -0.69531,1.1035 -0.34014,0.54413 -0.63891,1.3118 -0.79688,1.9199 -0.49567,1.9083 0.32746,3.4519 1.6035,4.8848 0.61682,0.69265 1.3785,1.3774 2.3223,1.6973 0.50426,0.17108 1.1816,0.31072 1.7207,0.27343 0.37013,-0.0246 0.70336,-0.20326 1.082,-0.14062 0.47845,0.0793 0.59637,0.39042 0.77734,0.70898 0.11052,0.54644 0.23399,1.1181 0.37891,1.7031 0.17365,0.70098 0.36285,1.3847 0.54688,1.959 0.18402,0.57431 0.34116,1.0178 0.54492,1.3379 l 0.84375,-0.53711 c -0.07786,-0.12232 -0.26145,-0.56214 -0.43555,-1.1055 -0.1741,-0.54332 -0.35982,-1.2123 -0.5293,-1.8965 -0.17204,-0.69446 -0.32673,-1.4078 -0.44336,-2.0273 -0.01172,-0.0899 -0.0515,-0.30056 -0.06641,-0.39063 -0.03817,-0.21817 -0.02845,-0.25178 -0.05273,-0.42773 -0.02733,-0.2118 -0.04628,-0.42314 -0.02539,-0.63086 0.06967,-0.69133 -0.03327,-1.4013 0.02344,-2.0938 0.16123,-1.9702 0.65902,-3.938 1.2754,-5.8164 0.64332,-1.9604 2.1882,-3.5226 3.5742,-5.0918 0.18883,-0.21379 0.34958,-0.47987 0.52344,-0.73437 0.02287,-0.006 0.04266,-0.0194 0.06836,-0.0195 0.3437,-0.003 0.63158,0.27397 0.95508,0.35547 1.8085,0.46417 2.9593,1.2041 4.541,2.1973 0.35964,0.22677 1.4666,0.99408 1.7891,0.32617 0.28701,-0.59457 -0.98669,-1.0377 -1.3105,-1.3027 -1.3316,-1.0889 -3.1335,-2.2431 -4.8984,-2.2441 -0.19441,-0.008 -0.36398,0.007 -0.51953,0.0195 0.05009,-0.036 0.09138,-0.0838 0.14648,-0.11328 0.83687,-0.44783 1.7012,-0.57054 2.6113,-0.83594 0.95382,-0.27807 1.8899,-0.6663 2.8672,-0.86328 0.69458,-0.14013 1.4235,-0.17375 2.1016,-0.38867 0.83221,-0.26375 1.7575,-0.6471 2.5469,-1.0254 0.72242,-0.34614 1.5086,-0.78745 2.3574,-0.7461 l -0.002,0.002 c -0.09573,0.34845 -0.2996,0.60815 -0.24024,0.98828 0.06066,0.38768 0.37268,0.67665 0.48633,1.0469 0.31643,1.031 0.74686,2.1198 1.4961,2.9648 0.65218,0.73582 1.5533,1.2593 2.3242,1.8828 1.2691,1.0266 2.1224,2.2623 2.5234,3.7578 0.09684,0.36052 -0.05083,0.70058 -0.14062,1.0469 -0.23668,0.91251 -0.66821,1.7894 -1.0059,2.6758 -0.25362,0.66575 -0.20306,1.405 -0.30078,2.0918 -0.18606,1.3076 -0.66986,3.0026 -1.4316,4.1289 -0.50491,0.74636 -0.8376,1.6357 -1.4922,2.2774 -0.18294,0.21855 -0.39958,0.4833 -0.66211,0.79882 l -0.002,0.002 c -0.80345,0.86623 -1.9477,1.9306 -2.9902,2.7988 l 0.63867,0.76953 c 0.75042,-0.62496 1.4903,-1.3253 2.1758,-2.0059 0.14854,0.0938 0.29944,0.19683 0.41992,0.36133 0.27917,0.38112 0.49084,0.78759 0.87695,1.0879 1.7714,1.3782 4.2806,1.1773 6.1797,0.13867 1.6006,-0.87559 2.4744,-2.3964 3.2031,-3.9024 0.26377,-0.54507 0.2777,-1.2085 0.66992,-1.6855 0.95058,-1.1561 2.7168,-1.4032 3.457,-2.791 1.085,-2.0342 0.41682,-3.975 0.64258,-6.1055 0.0451,-0.42062 0.0647,-0.93935 0.21875,-1.3379 0.11203,-0.29045 0.35709,-0.51414 0.45117,-0.81445 0.17408,-0.55483 0.1958,-1.3386 0.20703,-1.918 0.005,-0.31499 -0.125,-0.6135 -0.125,-0.93164 -5e-5,-0.91035 0.10502,-1.826 -0.0918,-2.7324 -0.59337,-2.7242 -2.2811,-4.962 -4.3359,-6.9316 -0.84141,-0.80651 -1.5233,-1.84 -2.5781,-2.4473 -0.3739,-0.21523 -0.80911,-0.10064 -1.209,-0.22266 -1.245,-0.37927 -2.6169,-0.76522 -3.9492,-0.67968 -0.93116,0.0593 -2.0936,0.44418 -2.9941,0.0918 -1.4284,-0.55861 -2.1152,-1.9864 -3.5664,-2.5469 -0.77458,-0.2992 -1.7428,-0.14047 -2.5488,-0.32031 -0.46725,-0.1038 -0.77726,-0.4589 -1.2734,-0.54493 -0.64675,-0.1121 -1.4064,-0.15853 -2.166,-0.14843 z m 0.25586,0.66601 c 0.22688,0 1.1452,0.0182 1.2617,0.20899 0.12692,0.20769 -0.27997,0.36432 -0.43359,0.39843 -0.58129,0.13023 -1.2504,0.15933 -1.8477,0.21094 -0.59439,0.0509 -1.2014,0.22077 -1.7832,0.34375 -0.83453,0.17654 -1.6404,0.43269 -2.4844,0.58203 -0.16232,-0.67286 0.94662,-0.90716 1.4648,-1.0664 1.1992,-0.36838 2.549,-0.69158 3.8223,-0.67774 z m 2.9941,0.98828 c 0.77887,0 1.6601,-6.4e-4 2.4199,0.16797 0.28476,0.0608 0.67543,0.13023 0.78906,0.41407 0.12982,0.3239 -0.16019,0.47815 -0.4707,0.45507 -0.85109,-0.0625 -1.6831,-0.27991 -2.5488,-0.28125 -2.2298,0 -4.6537,0.29564 -6.8145,0.82227 -1.2354,0.30099 -2.4977,0.8691 -3.7578,1.0391 0.30459,-0.96296 1.6704,-1.1929 2.6113,-1.3848 2.5565,-0.5212 5.1318,-1.2324 7.7715,-1.2324 z m -9.3828,0.10352 c 0.07058,-0.003 0.13934,0.006 0.20117,0.0312 0.41,0.16746 0.0031,0.56206 -0.18359,0.71289 -0.66223,0.53422 -1.539,1.0322 -2.0293,1.7109 -0.15365,0.21282 -0.36156,0.71124 -0.75195,0.50781 -0.35592,-0.1854 0.10297,-0.879 0.23633,-1.0898 0.41626,-0.65851 1.1133,-1.4111 1.9082,-1.6953 0.17044,-0.0606 0.40739,-0.16962 0.61914,-0.17773 z m 8.5723,1.3203 c 1.1698,0.005 2.3471,0.14977 3.4844,0.30469 0.31885,0.043 1.457,0.50664 0.93555,0.91016 -0.22727,0.17586 -0.61542,0.0494 -0.87109,0.002 -0.73606,-0.13515 -1.4218,-0.34025 -2.1836,-0.32227 -1.2804,0.0299 -2.5959,-0.0774 -3.8672,0.0762 -1.2596,0.15162 -2.514,0.52088 -3.7578,0.76171 -0.60709,0.11705 -1.2754,0.33288 -1.8477,0.55079 -0.30364,0.11539 -0.6639,0.35019 -1.0098,0.21289 -0.26918,-0.10715 -0.23358,-0.46816 -0.05273,-0.63086 0.28368,-0.25503 0.99735,-0.43222 1.3809,-0.52735 2.1784,-0.53963 4.3716,-1.0888 6.625,-1.291 0.38656,-0.0346 0.77414,-0.0484 1.1641,-0.0469 z m 1.2559,1.5996 c 0.8572,10e-4 1.8181,0.21928 2.6113,0.51367 0.1972,0.0724 0.74806,0.36051 0.53125,0.60938 -0.20179,0.23176 -0.58254,0.21023 -0.84961,0.125 -0.70126,-0.22436 -1.4094,-0.5233 -2.166,-0.59766 -2.6354,-0.25846 -5.1595,0.26183 -7.6426,1.0176 -0.59925,0.1823 -2.0181,0.83568 -2.166,-0.0391 1.5593,-0.50915 3.2026,-1.1207 4.8398,-1.377 1.5948,-0.24975 3.2277,-0.25442 4.8418,-0.25196 z m 12.936,0.27735 c 0.16615,0.006 0.32726,0.0685 0.48242,0.20703 0.34045,0.30408 0.44967,0.75787 0.79688,1.0762 0.83095,0.76167 1.986,1.3068 2.2812,2.3926 v 0.002 c -1.8277,-0.48067 -3.5711,-1.857 -4.0762,-3.5469 0.17841,-0.0853 0.34948,-0.13695 0.51562,-0.13085 z m -1.668,0.40625 c 0.13437,2e-4 0.26386,0.0157 0.35156,0.0742 0.23464,0.15823 0.29646,0.69121 0.46289,0.92774 0.42592,0.60528 0.9469,1.0412 1.5488,1.4961 0.75916,0.57397 1.7071,1.1064 2.6113,1.4609 0.8493,0.33298 1.7201,0.57443 2.3437,1.2305 0.13758,0.14502 0.55869,0.71851 0.1836,0.85351 -0.21442,0.0776 -0.5155,-0.21042 -0.68164,-0.30273 -0.55759,-0.3099 -1.1523,-0.57715 -1.7188,-0.875 -2.251,-1.1829 -5.4764,-1.9678 -5.4785,-4.8516 0.10325,0 0.24259,-0.0139 0.37695,-0.0137 z m -23.117,0.10742 c 0.35158,0.043 0.36588,0.44262 0.17188,0.64453 -0.34317,0.35716 -0.98718,0.50282 -1.4434,0.70898 -0.76186,0.34452 -1.4251,0.82724 -2.166,1.1973 -0.98319,0.49105 -2.1168,0.93607 -2.9883,1.5918 -0.88752,0.6679 -1.615,1.6167 -2.2051,2.5098 -0.65357,0.98918 -0.98939,1.9868 -0.86914,3.1406 0.01627,0.15164 0.11388,0.85942 -0.18555,0.81836 -0.41771,-0.0577 -0.54529,-0.87359 -0.55859,-1.168 -0.05561,-1.2336 0.05924,-1.9846 0.73242,-3.082 1.5943,-2.5991 4.077,-3.6966 6.7754,-5.1367 0.71473,-0.38138 1.8389,-1.3364 2.7363,-1.2246 z m 20.592,0.0469 c 0.27668,0.0392 0.2843,0.54047 0.31836,0.73242 0.19554,1.1034 0.23413,1.806 0.91406,2.791 1.5961,2.3123 5.1972,2.5387 7.4766,4.0703 0.56717,0.38128 1.1149,0.81206 1.5273,1.3379 0.12715,0.16153 0.41311,0.5381 0.10938,0.69141 -0.25001,0.12529 -0.52478,-0.20714 -0.67969,-0.33789 -0.53396,-0.45062 -1.1028,-0.92882 -1.7207,-1.2812 -1.3856,-0.79052 -3.0107,-1.1954 -4.459,-1.8613 -1.2127,-0.55745 -2.3771,-1.5139 -3.1719,-2.5039 -0.55216,-0.68767 -0.76792,-1.8366 -0.77734,-2.6738 -0.0031,-0.26391 -0.02154,-0.84551 0.32813,-0.95118 0.05142,-0.0154 0.09524,-0.0193 0.13476,-0.0137 z m 1.3555,0.0684 c 0.13577,0.0346 0.19736,0.16873 0.21875,0.31445 0.14047,0.95867 0.43621,1.6455 1.1426,2.3828 1.7142,1.7892 4.6714,2.0753 6.5664,3.6172 0.48383,0.3936 1.0966,0.77612 1.5039,1.2363 0.1439,0.16321 0.22889,0.49869 -0.0488,0.60352 -0.22352,0.0839 -0.47987,-0.17055 -0.62695,-0.29102 -0.46169,-0.37861 -0.8693,-0.79096 -1.4023,-1.0918 -1.2182,-0.68751 -2.5859,-1.3031 -3.8848,-1.8555 -1.1276,-0.47946 -2.2985,-0.88057 -3.0957,-1.8106 -0.54364,-0.63427 -0.65099,-1.4006 -0.86328,-2.1504 -0.10288,-0.36293 -0.21501,-0.83212 0.32812,-0.95313 0.06266,-0.014 0.11685,-0.0135 0.16211,-0.002 z m -11.361,0.375 c 0.82736,0.0552 1.6225,0.29798 2.4102,0.53906 0.27319,0.0839 1.3154,0.41541 0.69141,0.77539 -0.4939,0.28486 -0.81721,-0.042 -1.2656,-0.19726 -0.57217,-0.1983 -1.3652,-0.30768 -1.9746,-0.31445 -1.4931,-0.0163 -3.2235,0.15119 -4.6484,0.5664 -0.63352,0.18492 -1.5932,0.78103 -2.2852,0.51172 -0.60331,-0.23506 0.18214,-0.62046 0.4375,-0.69531 1.0706,-0.31367 2.0859,-0.62977 3.1836,-0.85938 0.86358,-0.18062 1.7402,-0.21856 2.6133,-0.3125 0.28424,-0.0305 0.5621,-0.0321 0.83789,-0.0137 z m 7.2793,0.63086 c 0.07197,-0.0159 0.16163,10e-4 0.26953,0.0664 0.30751,0.18508 0.11345,1.2422 0.14648,1.5684 0.10254,1.0131 0.58109,2.1829 1.2949,2.9648 2.5775,2.8234 6.9692,2.9192 10.043,5.125 0.84777,0.60837 1.337,1.1178 1.7656,2.0273 0.23589,0.50059 0.44863,1.0382 -0.36328,1.0469 -0.80042,-3.7132 -5.9211,-4.0111 -8.8535,-5.5508 -0.68733,-0.36099 -1.4262,-0.68816 -2.0391,-1.1543 -1.147,-0.87264 -1.7587,-2.0511 -2.2754,-3.2969 -0.29069,-0.70073 -0.27575,-1.4729 -0.27148,-2.209 9.73e-4,-0.19966 0.0673,-0.54012 0.2832,-0.58789 z m -16.76,0.1543 c 0.20924,0.0454 0.3853,0.22319 0.31836,0.43359 -0.07804,0.2456 -0.43215,0.42038 -0.6582,0.53906 -3.364,1.768 -7.4771,3.0813 -8.6113,6.8457 -0.32071,1.0645 0.49313,1.857 0.52148,2.8496 0.01264,0.4632 0.07207,1.001 -0.04688,1.4531 -0.207,0.78621 -0.76231,1.4876 -1.0156,2.2676 -0.55549,1.71 -0.37203,3.6906 1.3359,4.8477 0.52465,0.35538 1.1827,0.24026 1.6914,0.52148 0.31058,0.17155 -0.05571,0.36596 -0.24414,0.43555 -0.97135,0.35816 -1.9018,-0.15445 -2.4961,-0.80274 -0.9844,-1.0737 -1.8668,-2.8471 -1.4707,-4.3027 0.33014,-1.213 1.3821,-2.4679 1.418,-3.7227 0.01864,-0.64645 -0.25504,-1.1417 -0.44141,-1.7441 -0.26859,-0.86819 -0.34724,-1.86 -0.05273,-2.7324 0.917,-2.7163 3.8989,-4.1105 6.4199,-5.3535 0.78911,-0.38915 1.5517,-0.77497 2.3555,-1.1328 0.25472,-0.11375 0.49194,-0.33084 0.76367,-0.40039 0.06925,-0.0177 0.14314,-0.0171 0.21289,-0.002 z m 18.117,0.31445 c 0.0529,-0.004 0.10748,-2.2e-4 0.1582,0.0117 0.10144,0.0239 0.18775,0.08 0.21875,0.17383 0.34861,1.0518 0.27983,1.993 1.0977,2.9004 2.056,2.2811 5.2307,2.5783 7.8379,4.0644 0.58497,0.33346 1.1662,0.84388 1.6582,1.2852 0.0976,0.0876 0.55704,0.44156 0.29492,0.57031 -0.19999,0.0988 -0.5208,-0.18463 -0.67774,-0.27148 -0.61568,-0.34085 -1.2111,-0.71683 -1.8477,-1.0234 -2.5762,-1.2412 -6.0789,-1.7262 -7.8281,-4.0449 -0.5667,-0.75113 -1.0716,-1.713 -1.2559,-2.6152 -0.04519,-0.2209 -0.06195,-0.89304 0.19531,-1.0117 v -0.002 c 0.04433,-0.0206 0.09554,-0.0329 0.14844,-0.0371 z m -8.7441,0.50586 c 0.40534,-0.0153 0.81031,-0.006 1.2422,0.0723 0.30905,0.0593 1.2302,0.23268 1.3984,0.48437 0.21638,0.3239 -0.28376,0.38736 -0.50586,0.38867 -0.70753,0 -1.3453,-0.10003 -2.0391,-0.19922 -0.63549,-0.0907 -1.5879,-0.0286 -2.2285,0.0469 -0.97933,0.1169 -2.1523,0.38175 -3.1172,0.15039 0.11022,-0.54856 1.2788,-0.61765 1.7793,-0.73242 0.73441,-0.16862 1.4899,-0.10899 2.2305,-0.13867 0.43086,-0.0173 0.8349,-0.057 1.2402,-0.0723 z m 6.2129,0.20313 c 0.37705,0.0547 0.29969,0.64383 0.35938,0.91601 0.27899,1.2723 0.6711,2.2681 1.543,3.3144 2.4208,2.9052 6.6269,3.2352 9.8789,4.9629 0.77524,0.41197 1.2427,1.1403 1.6406,1.8398 0.0996,0.17506 0.44821,0.64037 0.12304,0.7793 -0.31363,0.13353 -0.54951,-0.17078 -0.68945,-0.37305 -0.57368,-0.8286 -1.0424,-1.4115 -1.9648,-1.9531 -1.6159,-0.94897 -3.5269,-1.1744 -5.2871,-1.7734 -1.7536,-0.59673 -3.3588,-1.717 -4.4824,-3.0762 -0.89337,-1.0805 -1.0795,-2.119 -1.5,-3.373 -0.10852,-0.32354 -0.31944,-1.14 0.1875,-1.252 0.07412,-0.0165 0.13754,-0.0195 0.19141,-0.0117 z m -14.779,0.30078 c 0.23066,-0.0247 0.43101,0.14771 0.26367,0.3457 -0.21458,0.25483 -0.72104,0.494 -1.0273,0.65039 -1.9284,0.98504 -3.6407,2.228 -5.4785,3.3457 -0.47816,0.29077 -1.3636,1.3553 -1.9707,1.252 -0.37434,-0.0645 -0.20347,-0.43489 -0.06445,-0.61719 0.38905,-0.51035 0.80345,-1.0151 1.3359,-1.4082 1.4192,-1.0484 3.1731,-1.8684 4.7754,-2.6562 0.65164,-0.32024 1.409,-0.83329 2.166,-0.91211 z m 1.3848,0.5625 c 0.26304,0.007 0.54948,0.11776 0.38672,0.39257 -0.1253,0.21133 -0.47214,0.26221 -0.6875,0.36915 -0.47866,0.23752 -0.98801,0.55436 -1.4023,0.87695 -1.1201,0.87181 -2.2842,1.6389 -3.4395,2.4648 -0.9423,0.67367 -1.826,1.4086 -2.8652,1.9629 -0.6021,0.32128 -1.0559,0.78444 -1.6562,1.1133 -0.18535,0.10227 -0.40361,0.31084 -0.63672,0.28907 -0.54382,-0.0509 -0.30272,-0.59476 -0.11719,-0.83985 0.40944,-0.54098 1.3964,-0.90865 1.9629,-1.3262 1.6169,-1.1914 3.3663,-2.1991 5.0332,-3.3184 0.93887,-0.6303 2.0558,-1.6387 3.1836,-1.959 0.06503,-0.0185 0.1506,-0.0276 0.23828,-0.0254 z m 8.9648,0.46093 c 0.17362,-5.3e-4 0.33225,0.0322 0.45898,0.11524 0.25262,0.16568 0.0016,0.42451 -0.17188,0.53711 -0.46592,0.30114 -1.1196,0.40255 -1.6543,0.5664 -0.90765,0.27822 -1.8857,0.0355 -2.8027,0.21289 -1.2314,0.23785 -2.4403,1.0622 -3.6953,0.95118 -0.17911,-0.62123 1.1501,-0.82362 1.6562,-1 0.81936,-0.28535 1.6829,-0.5332 2.5469,-0.67774 0.7005,-0.11702 1.4314,-0.0631 2.1035,-0.28125 0.37725,-0.12241 1.0377,-0.42221 1.5586,-0.42383 z m -6.1582,0.11133 c 0.45762,-0.0121 0.88941,0.05 1.2227,0.23633 -0.53548,0.53474 -1.9855,0.59575 -2.7383,0.81445 -0.85012,0.24692 -1.2592,0.75179 -1.8301,1.3359 -0.54778,0.5608 -1.2373,0.98422 -1.8652,1.4629 -0.46077,0.35123 -0.9409,0.82939 -1.4648,1.0879 -0.74396,0.36723 -1.4405,0.81256 -2.1641,1.2109 -0.76624,0.42198 -1.6051,0.83605 -2.293,1.3555 -0.1991,0.15 -0.60362,0.44524 -0.82617,0.15039 -0.30127,-0.40022 0.30911,-0.64715 0.57031,-0.82813 0.77529,-0.53684 1.6459,-0.91757 2.4199,-1.4414 1.4257,-0.96474 2.9341,-1.8138 4.2676,-2.8906 0.8695,-0.70216 1.4456,-1.6111 2.5488,-2.0332 0.55744,-0.21326 1.3896,-0.44078 2.1523,-0.46094 z m -7.3828,6.2578 c 0.52465,-0.0314 0.1779,0.78777 -0.05859,0.92969 -0.51865,0.31116 -1.1768,0.42423 -1.707,0.72852 -1.6874,0.96858 -3.6547,2.945 -3.9512,4.8223 -0.12241,0.77557 -0.28504,2.0602 0.57031,2.5664 0.37084,0.21954 0.8907,0.0432 1.25,0.3125 0.27095,0.20359 0.60663,0.75688 0.08008,0.88281 -2.3173,0.55466 -2.9517,-2.1618 -2.7188,-3.6445 0.09084,-0.57838 0.47629,-1.1078 0.74414,-1.6289 0.2763,-0.53805 0.44219,-1.1311 0.81055,-1.6289 0.78262,-1.0574 2.0225,-1.8121 3.2051,-2.4394 0.52187,-0.27692 1.1405,-0.86309 1.7754,-0.9004 z m 4.1875,0.42774 c -0.92158,-0.0232 -1.7916,0.67293 -1.5156,1.6367 0.30386,-0.12286 0.71151,-0.42872 1.0488,-0.36133 0.66756,0.13111 0.66254,1.8232 1.582,2.168 0.59952,0.22323 1.1249,-0.54715 1.6348,-0.26758 0.43972,0.24094 0.44939,1.1117 1.0879,1.0391 0.86386,-0.0992 0.20551,-1.5894 0,-1.9746 -0.58216,-1.0414 -2.3056,-1.8897 -3.4434,-2.1855 -0.13059,-0.034 -0.26288,-0.0514 -0.39453,-0.0547 z m 20.668,1.1875 c 0.47534,0.046 1.1505,0.66137 1.4688,0.85352 1.594,0.96212 2.7372,2.3564 4.5098,3.0469 0.26069,0.10227 0.43379,0.38787 0.11914,0.55664 -0.46322,0.24854 -1.2242,-0.23573 -1.582,-0.4668 -1.348,-0.87082 -2.6458,-1.9096 -3.9492,-2.8398 -0.19708,-0.14014 -1.4104,-0.91259 -0.75586,-1.1328 0.05818,-0.0196 0.12155,-0.0242 0.18945,-0.0176 z m 2.2227,0.0977 c 1.1711,0.34845 2.0828,0.87617 2.7676,1.8027 0.11845,0.15986 0.96574,0.92578 0.40625,1.0566 -0.36817,0.0856 -0.73201,-0.39512 -0.94531,-0.5918 -0.51071,-0.47107 -1.0597,-0.89854 -1.6191,-1.3203 -0.19949,-0.15 -0.53455,-0.23946 -0.67188,-0.44531 -0.11087,-0.16636 -0.01903,-0.34702 0.0625,-0.50195 z m -12.287,1.2226 c -0.14175,-0.003 -0.27556,0.014 -0.39453,0.0625 v -0.002 c -0.99744,0.40535 0.31742,1.1957 0.69726,1.4316 1.4967,0.92835 3.2609,1.2428 4.6602,2.3926 0.37418,0.30827 0.99215,1.8715 1.6172,1.5625 0.80752,-0.39933 -0.18636,-1.99 -0.55664,-2.3418 -1.1278,-1.0718 -3.273,-2.3079 -4.7598,-2.7852 -0.34574,-0.11161 -0.83842,-0.30998 -1.2637,-0.32031 z m 10.066,0.375 c 0.5879,-0.12692 1.3938,0.84837 1.7734,1.1524 0.91778,0.73498 1.9109,1.6016 2.9941,2.1191 0.51446,0.2456 1.0479,0.52058 1.5918,0.70703 0.32194,0.11045 0.73823,0.11785 1.0098,0.32617 0.32154,0.24744 0.20418,0.73187 -0.18164,0.86523 -0.52282,0.18079 -1.1288,-0.29118 -1.5918,-0.44726 -1.784,-0.60166 -3.2297,-1.9811 -4.5918,-3.1465 -0.37575,-0.32139 -0.84268,-0.67099 -1.1055,-1.0801 -0.10036,-0.1566 -0.15683,-0.44056 0.10156,-0.4961 z m -27.08,0.40625 c 0.32772,-0.0692 0.479,0.17296 0.41016,0.4375 -0.2358,0.90611 -0.55564,1.8088 -0.75976,2.7344 -0.06603,0.29962 0.08467,0.91645 -0.41406,0.96093 -0.4932,0.0446 -0.52846,-0.60629 -0.48242,-0.90234 0.12783,-0.82204 0.32361,-1.7664 0.5957,-2.5586 0.09636,-0.28069 0.31384,-0.60049 0.65039,-0.67188 z m 26.877,1.0293 c 0.20338,0.0231 0.3364,0.27089 0.45508,0.39844 0.33745,0.36313 0.68068,0.77333 1.0781,1.082 1.078,0.8372 2.0816,1.6291 3.375,2.1953 0.64147,0.28085 1.313,0.48282 1.9727,0.72266 0.18486,0.0677 0.51348,0.0718 0.6621,0.1875 0.20436,0.15823 -0.0159,0.45711 -0.21874,0.50195 -0.49278,0.10878 -1.2464,-0.247 -1.7168,-0.36914 -1.9589,-0.50852 -3.6146,-1.7247 -5.0312,-3.041 -0.29733,-0.27639 -0.84319,-0.71695 -0.92969,-1.1055 -0.04532,-0.20386 0.04296,-0.60671 0.35352,-0.57226 z m -28.725,0.42578 c 0.23401,-0.0414 0.37824,0.11676 0.36523,0.32031 -0.02243,0.34976 -0.30285,0.65861 -0.4082,0.98828 -0.11266,0.35292 -0.04815,0.69019 -0.0957,1.0469 -0.02385,0.17785 -0.08296,0.46188 -0.31445,0.50195 -0.3821,0.0661 -0.58798,-0.46605 -0.59766,-0.73437 -0.02227,-0.61697 0.22409,-1.9797 1.0508,-2.123 z m -5.1836,1.0371 c 0.05787,-0.0107 0.12219,0.002 0.19531,0.043 0.27294,0.1533 0.08525,0.6892 0.08398,0.92773 -0.0032,0.83137 0.26902,1.5009 0.59375,2.2676 0.28516,0.67299 0.97372,1.061 0.87109,1.8027 -1.5601,-0.17768 -2.2836,-2.3249 -2.2148,-3.5469 0.01259,-0.2257 0.06564,-1.4191 0.4707,-1.4941 z m 23.1,0.31055 c -0.28916,0.0159 -0.51659,0.10536 -0.55273,0.33789 -0.0531,0.34016 0.41734,0.65087 0.53711,0.94922 0.32598,0.80894 0.4954,1.4885 1.3848,1.8945 0.66543,0.30473 2.5408,-0.83079 2.2598,0.61132 -0.039,0.20197 -0.15569,0.40934 -0.22656,0.59961 l -0.002,0.002 c 0.69626,0.30473 2.2227,0.30695 1.8262,-0.83789 -0.51662,-1.491 -2.3848,-2.9568 -3.8574,-3.3438 -0.18691,-0.0496 -0.64276,-0.17293 -1.0645,-0.20703 -0.10542,-0.009 -0.2083,-0.0112 -0.30469,-0.006 z m 10.623,0.29296 c 0.25147,-0.0645 0.42966,0.16835 0.58203,0.30665 0.37324,0.33907 0.78873,0.635 1.1621,0.98046 0.73311,0.67829 1.7919,1.4182 2.7754,1.7598 0.64078,0.22237 1.4276,0.24987 2.0293,0.55469 0.28171,0.14339 0.32585,0.61411 0,0.74219 -0.4488,0.17651 -1.1578,-0.13541 -1.584,-0.26563 -1.6298,-0.50044 -2.772,-1.4675 -4.0098,-2.5078 -0.35708,-0.30014 -0.85439,-0.65379 -1.1113,-1.0293 -0.12494,-0.18262 -0.11186,-0.4718 0.15625,-0.54102 z m -0.71875,1.1387 c 0.56483,0.089 1.2074,1.0348 1.543,1.3105 0.99096,0.81459 2.1598,1.5771 3.377,2.0781 0.5867,0.24152 1.4184,0.25792 1.9473,0.57422 0.26898,0.16154 0.1397,0.53707 -0.10352,0.65429 -0.50688,0.24429 -1.3018,-0.16227 -1.7793,-0.31836 -1.7466,-0.57001 -3.0563,-1.4666 -4.459,-2.582 -0.28859,-0.22946 -1.6188,-1.3973 -0.76172,-1.6973 0.07637,-0.0267 0.15564,-0.0322 0.23633,-0.0195 z m -18.436,1.3613 c -0.07523,0.002 -0.149,0.0203 -0.2207,0.0606 -0.6609,0.37507 0.31595,1.3285 0.54883,1.6602 0.83303,1.1923 1.5646,0.8999 2.7598,1.3184 0.45779,0.15945 0.91869,0.6478 1.4062,0.2832 0.23386,-0.17717 0.48834,-0.6399 0.19141,-0.87695 -0.25157,-0.20197 -0.81069,-0.0999 -1.1211,-0.16016 -0.78661,-0.15944 -1.6434,-0.55941 -2.1816,-1.1699 -0.26974,-0.30384 -0.85617,-1.1294 -1.3828,-1.1152 z m 18.08,0.58399 c 0.38568,-0.0923 1.0497,0.65469 1.3086,0.86914 0.60477,0.50096 1.2053,1.0185 1.9277,1.3848 0.61059,0.30958 1.3264,0.50317 1.9121,0.84375 0.24636,0.14339 0.60107,0.6049 0.17578,0.77929 -0.40422,0.16567 -0.95304,-0.10964 -1.3223,-0.23047 -1.3685,-0.45015 -2.46,-1.4129 -3.502,-2.3027 -0.22026,-0.18807 -1.2792,-1.158 -0.5,-1.3438 z m -0.52148,1.4688 c 0.74676,0.23328 1.3796,1.0577 1.9746,1.5195 0.44776,0.34767 0.95606,0.66085 1.4648,0.92969 0.3248,0.1716 0.67488,0.38636 1.0195,0.51758 0.20605,0.0792 0.51358,0.077 0.65625,0.25586 0.17351,0.21859 -0.10838,0.49113 -0.33789,0.53906 -0.41535,0.0876 -0.91202,-0.18463 -1.2734,-0.33594 -1.0098,-0.42229 -1.8336,-1.1146 -2.6758,-1.7637 -0.5925,-0.45659 -1.3635,-0.95016 -0.82812,-1.6621 z m -27.389,0.71484 c 0.2737,-0.0299 0.99401,0.083 0.59961,0.47461 -0.18853,0.18723 -0.65568,0.22586 -0.91797,0.2461 -0.26878,0.0215 -1.0168,-0.25301 -0.66211,-0.58594 0.18466,-0.17328 0.72932,-0.10671 0.98047,-0.13477 z m 8.4492,0.67578 c -0.89932,0.0499 -2.222,0.28416 -1.9082,0.97266 0.15236,0.33307 0.69652,0.31243 1.002,0.36133 0.77422,0.12756 1.2529,0.36808 1.8613,0.85351 0.52937,0.42272 1.4448,0.56275 2.0801,0.83204 1.0637,0.45177 1.0178,1.5742 2.3926,1.5898 -0.0354,-1.1006 -0.86218,-2.7357 -1.8125,-3.3359 -0.38409,-0.24094 -0.82612,-0.12044 -1.207,-0.30469 -0.65232,-0.31536 -0.92825,-0.87785 -1.7266,-0.96679 -0.12951,-0.0142 -0.38187,-0.0186 -0.68164,-0.002 z m 18.832,0.61524 c 0.32985,0.0422 0.72208,0.50764 0.93555,0.66211 0.60911,0.44075 1.2384,0.88075 1.9121,1.2383 0.31593,0.16777 0.71683,0.25783 1.0039,0.46289 0.23313,0.16647 0.21298,0.43959 -0.05273,0.57227 -0.33458,0.16694 -0.83571,-0.0539 -1.1426,-0.1875 -0.94512,-0.41059 -1.7395,-1.0102 -2.4844,-1.6719 -0.19019,-0.16877 -0.92687,-0.87818 -0.30859,-1.0664 0.04382,-0.0134 0.0896,-0.0156 0.13672,-0.01 z m -0.45508,1.457 c 0.26117,0.0662 0.52646,0.31135 0.68945,0.44336 0.53376,0.43252 1.0848,0.92977 1.7207,1.2344 0.39211,0.18771 1.0424,0.26277 1.3691,0.50586 0.19834,0.14837 0.18105,0.45438 -0.04102,0.57422 -0.28847,0.15493 -0.71946,-0.0169 -1.0098,-0.0879 -1.0867,-0.26455 -2.0158,-1.1511 -2.8652,-1.793 -0.23931,-0.18083 -0.59636,-0.70673 -0.11914,-0.87304 0.08172,-0.0284 0.1688,-0.0259 0.25586,-0.004 z m -19.045,0.50586 c -0.36071,1.3256 1.2712,2.4407 2.5039,2.1133 0.29055,-0.0779 0.74428,-0.4987 0.40625,-0.79492 -0.40535,-0.35468 -1.1859,-0.12907 -1.6816,-0.52344 -0.40075,-0.31889 -0.75974,-0.58162 -1.2285,-0.79492 z m 18.324,0.76562 c 0.41254,0.0299 0.78976,0.56541 1.0352,0.78321 0.69918,0.62028 1.6343,1.109 2.6055,1.2285 0.19281,0.77026 -0.30615,0.85007 -1.0195,0.58008 -0.95147,-0.35999 -1.7211,-0.9164 -2.4824,-1.5352 -0.24523,-0.19945 -0.9464,-0.83802 -0.31641,-1.0352 0.06014,-0.0187 0.1188,-0.0258 0.17773,-0.0215 z m -1.3555,0.8711 c 0.04468,-0.005 0.09734,7e-5 0.15625,0.0156 0.31989,0.0839 0.59924,0.45105 0.82617,0.65821 0.28758,0.2626 0.5668,0.53235 0.89258,0.75586 0.47044,0.3229 0.97528,0.57734 1.4648,0.87304 -0.15184,0.52912 -0.66858,0.54849 -1.1465,0.31641 -0.74503,-0.36166 -1.9046,-1.2314 -2.3477,-1.8926 -0.13697,-0.20449 -0.15844,-0.6914 0.1543,-0.72656 z m -0.9668,0.9707 c 0.04875,6.4e-4 0.10375,0.009 0.16406,0.0293 0.27638,0.0923 0.50148,0.41755 0.70117,0.60547 0.27573,0.25929 0.52034,0.52793 0.83008,0.75586 0.41408,0.30461 0.83356,0.5978 1.2734,0.87109 -0.55473,1.1062 -2.1828,-0.50556 -2.7012,-1.0449 -0.16611,-0.17271 -0.39752,-0.32507 -0.51758,-0.5293 -0.15309,-0.26047 -0.09128,-0.69199 0.25,-0.6875 z"
             id="path1909" />
        </g>
      </g>
      <path
         transform="matrix(0.26458,0,0,0.26458,0,207)"
         d="m 93.401,77.195 c -1.44,0.16715 -2.889,0.25103 -4.3399,0.25103 -9.5191,-10e-7 -18.685,-3.6066 -25.651,-10.094"
         fill="none"
         stroke="#000000"
         stroke-linecap="round"
         stroke-linejoin="round"
         stroke-width="1.0658"
         id="path1915" />
      <path
         transform="matrix(0.26458,0,0,0.26458,0,207)"
         d="m 91.292,81.166 c -0.74295,0.04008 -1.487,0.06015 -2.2314,0.06015 -8.6822,0 -17.139,-2.7281 -24.178,-7.7892"
         fill="none"
         stroke="#000000"
         stroke-linecap="round"
         stroke-linejoin="round"
         stroke-width="1.0658"
         id="path1917" />
      <path
         transform="matrix(0.26458,0,0,0.26458,0,207)"
         d="m 89.391,85.004 c -0.10991,8.02e-4 -0.21982,0.0012 -0.32975,0.0012 -8.0696,10e-7 -15.985,-2.1602 -22.926,-6.2461"
         fill="none"
         stroke="#000000"
         stroke-linecap="round"
         stroke-linejoin="round"
         stroke-width="1.0658"
         id="path1919" />
    </g>
  </g>
</svg>
