<?xml version="1.0" encoding="UTF-8" standalone="no"?>
<svg
   width="42.999786mm"
   height="87.997734mm"
   enable-background="new"
   version="1.1"
   viewBox="0 0 152.36258 311.80203"
   id="svg20076"
   sodipodi:docname="Mazzo.svg"
   inkscape:version="1.2.1 (9c6d41e410, 2022-07-14)"
   xmlns:inkscape="http://www.inkscape.org/namespaces/inkscape"
   xmlns:sodipodi="http://sodipodi.sourceforge.net/DTD/sodipodi-0.dtd"
   xmlns:xlink="http://www.w3.org/1999/xlink"
   xmlns="http://www.w3.org/2000/svg"
   xmlns:svg="http://www.w3.org/2000/svg"
   xmlns:rdf="http://www.w3.org/1999/02/22-rdf-syntax-ns#"
   xmlns:cc="http://creativecommons.org/ns#"
   xmlns:dc="http://purl.org/dc/elements/1.1/">
  <sodipodi:namedview
     id="namedview20078"
     pagecolor="#ffffff"
     bordercolor="#000000"
     borderopacity="0.25"
     inkscape:showpageshadow="2"
     inkscape:pageopacity="0.0"
     inkscape:pagecheckerboard="0"
     inkscape:deskcolor="#d1d1d1"
     inkscape:document-units="mm"
     showgrid="false"
     inkscape:zoom="2.8284271"
     inkscape:cx="196.57568"
     inkscape:cy="470.75634"
     inkscape:window-width="2560"
     inkscape:window-height="1409"
     inkscape:window-x="0"
     inkscape:window-y="31"
     inkscape:window-maximized="1"
     inkscape:current-layer="svg20076" />
  <title
     id="title2">Bresciane</title>
  <defs
     id="defs191" />
  <metadata
     id="metadata193">
    <rdf:RDF>
      <cc:Work
         rdf:about="">
        <dc:format>image/svg+xml</dc:format>
        <dc:type
           rdf:resource="http://purl.org/dc/dcmitype/StillImage" />
        <dc:title>Bresciane</dc:title>
        <dc:date>2020</dc:date>
        <dc:creator>
          <cc:Agent>
            <dc:title>ZZandro</dc:title>
          </cc:Agent>
        </dc:creator>
        <dc:rights>
          <cc:Agent>
            <dc:title />
          </cc:Agent>
        </dc:rights>
        <cc:license
           rdf:resource="http://creativecommons.org/licenses/by-sa/4.0/" />
      </cc:Work>
      <cc:License
         rdf:about="http://creativecommons.org/licenses/by-sa/4.0/">
        <cc:permits
           rdf:resource="http://creativecommons.org/ns#Reproduction" />
        <cc:permits
           rdf:resource="http://creativecommons.org/ns#Distribution" />
        <cc:requires
           rdf:resource="http://creativecommons.org/ns#Notice" />
        <cc:requires
           rdf:resource="http://creativecommons.org/ns#Attribution" />
        <cc:permits
           rdf:resource="http://creativecommons.org/ns#DerivativeWorks" />
        <cc:requires
           rdf:resource="http://creativecommons.org/ns#ShareAlike" />
      </cc:License>
    </rdf:RDF>
  </metadata>
  <g
     transform="translate(-322.4285,-1789.397)"
     id="g6084"
     style="display:inline">
    <g
       transform="matrix(0.97008,0,0,0.9964,-643.49,41.893)"
       enable-background="new"
       fill="#f4f2ef"
       id="g5835">
      <g
         transform="matrix(0.70046,0,0,1.0004,298.31,-0.79223)"
         fill="#f4f2ef"
         id="g5833">
        <rect
           x="996.13"
           y="1754.4"
           width="223.23"
           height="311.81"
           rx="10.63"
           ry="10.63"
           fill="#f4f2ef"
           stroke="#000000"
           stroke-width="0.99673"
           id="rect5831" />
      </g>
    </g>
    <g
       transform="matrix(0.76704,0,0,0.8945,-425.37,236.56)"
       enable-background="new"
       fill="none"
       id="g5841">
      <g
         transform="matrix(0.70046,0,0,1.0004,298.31,-0.79223)"
         fill="none"
         id="g5839">
        <rect
           x="996.13"
           y="1754.4"
           width="223.23"
           height="311.81"
           rx="10.63"
           ry="10.63"
           fill="none"
           stroke="#000000"
           stroke-width="0.99673"
           id="rect5837" />
      </g>
    </g>
    <g
       transform="translate(322.44,1048.8)"
       id="g6082">
      <path
         d="m 76.181,887.29 c -16.708,0 -25.6,5.7723 -33.164,10.63 7.5632,4.8576 16.456,10.63 33.164,10.63 16.708,0 25.6,-5.7723 33.163,-10.63 -7.5632,-4.8576 -16.455,-10.63 -33.163,-10.63 z"
         fill="#dd1d1d"
         fill-rule="evenodd"
         stroke="#000000"
         stroke-linecap="round"
         stroke-linejoin="round"
         stroke-width="0.99921"
         id="path5843" />
      <path
         id="k"
         d="m 64.75,888.31 v 19.204"
         fill="none"
         stroke="#000000"
         stroke-width="0.64488" />
      <use
         width="100%"
         height="100%"
         stroke-width="0.64488"
         xlink:href="#k"
         id="use5846" />
      <path
         d="m 61.753,888.98 v 17.863"
         fill="none"
         stroke="#000000"
         stroke-width="0.64488"
         id="path5848" />
      <path
         d="m 58.75,889.86 v 16.119"
         fill="none"
         stroke="#000000"
         stroke-width="0.64488"
         id="path5850" />
      <path
         d="m 55.75,890.85 v 14.133"
         fill="none"
         stroke="#000000"
         stroke-width="0.64488"
         id="path5852" />
      <path
         d="m 52.751,892.26 v 11.306"
         fill="none"
         stroke="#000000"
         stroke-width="0.64488"
         id="path5854" />
      <path
         d="m 49.75,893.81 v 8.2145"
         fill="none"
         stroke="#000000"
         stroke-width="0.64488"
         id="path5856" />
      <path
         d="m 46.75,895.56 v 4.7168"
         fill="none"
         stroke="#000000"
         stroke-width="0.64488"
         id="path5858" />
      <path
         d="m 87.608,888.31 v 19.204"
         fill="none"
         stroke="#000000"
         stroke-width="0.64488"
         id="path5860" />
      <use
         transform="matrix(-1,0,0,1,152.36,-7.255e-4)"
         width="100%"
         height="100%"
         stroke-width="0.64488"
         xlink:href="#k"
         id="use5862" />
      <path
         d="m 90.606,888.98 v 17.863"
         fill="none"
         stroke="#000000"
         stroke-width="0.64488"
         id="path5864" />
      <path
         d="m 93.608,889.86 v 16.119"
         fill="none"
         stroke="#000000"
         stroke-width="0.64488"
         id="path5866" />
      <path
         d="m 96.608,890.85 v 14.133"
         fill="none"
         stroke="#000000"
         stroke-width="0.64488"
         id="path5868" />
      <path
         d="m 99.608,892.26 v 11.306"
         fill="none"
         stroke="#000000"
         stroke-width="0.64488"
         id="path5870" />
      <path
         d="m 102.61,893.81 v 8.2145"
         fill="none"
         stroke="#000000"
         stroke-width="0.64488"
         id="path5872" />
      <path
         d="m 105.61,895.56 v 4.7168"
         fill="none"
         stroke="#000000"
         stroke-width="0.64488"
         id="path5874" />
      <path
         d="m 76.166,757.85 -1.4316,1.6094 c 0,0 -0.81008,0.90885 -1.7402,2.0879 -0.93015,1.179 -1.9857,2.5669 -2.6172,3.9648 -0.76853,1.7014 -1.2215,3.8983 -1.5664,5.7871 -0.3449,1.8888 -0.5332,3.4336 -0.5332,3.4336 l -0.01367,0.10742 -1.5039,184.45 0.0039,0.0547 c 0,0 0.07124,1.49 -0.04687,3.2656 -0.11812,1.7756 -0.58878,3.8521 -0.96484,4.4219 -8.8223,13.264 0.18364,8.0058 -8.8223,13.264 l -10.797,-1.5918 c -5.5025,-0.81124 -16.598,-4.3379 -16.598,-4.3379 l -3.9121,-1.1367 9.7305,22.484 1.5078,-0.28516 c 0,0 10.335,-1.9405 15.273,-2.3613 3.5886,-0.3058 11.391,-0.18946 11.391,-0.18946 l 0.10352,0.002 0.10156,-0.01 12.436,-1.1289 12.537,1.1387 0.10352,-0.002 c 0,0 7.8001,-0.11634 11.389,0.18946 4.9383,0.42082 15.275,2.3613 15.275,2.3613 l 1.5059,0.28516 9.7324,-22.484 -3.9121,1.1367 c 0,0 -11.15,3.2272 -16.6,4.3379 -3.4287,0.69873 -9.2677,1.4027 -10.797,1.5918 -9.0058,-5.2576 0,0 -8.8223,-13.264 -0.37607,-0.56981 -0.84672,-2.6463 -0.96484,-4.4219 -0.11812,-1.7754 -0.04492,-3.2654 -0.04492,-3.2654 l 0.002,-0.0547 -1.5039,-184.45 -0.01367,-0.10742 c 0,0 -0.18636,-1.5448 -0.53125,-3.4336 -0.34489,-1.8888 -0.79983,-4.0857 -1.5684,-5.7871 -0.63147,-1.398 -1.687,-2.7858 -2.6172,-3.9648 -0.93015,-1.179 -1.7383,-2.0879 -1.7383,-2.0879 l -1.4316,-1.6094 z"
         color="#000000"
         color-rendering="auto"
         enable-background="accumulate"
         fill="#e9c13a"
         fill-rule="evenodd"
         image-rendering="auto"
         shape-rendering="auto"
         solid-color="#000000"
         stroke="#000000"
         stroke-linejoin="round"
         stroke-width="0.99921"
         style="text-indent:0;text-decoration-line:none;text-decoration-style:solid;text-decoration-color:#000000;text-transform:none;white-space:normal;isolation:auto;mix-blend-mode:normal"
         id="path5876" />
      <circle
         cx="27.459999"
         cy="985.89001"
         stroke="#000000"
         stroke-linecap="round"
         stroke-linejoin="round"
         stroke-width="3.1252"
         id="ellipse5878"
         r="1.9807" />
      <path
         d="m 78.459,767.09 c 0.44966,0.99546 0.96818,3.1304 1.291,4.8984 0.31479,1.724 0.47781,3.0576 0.48633,3.127 l 1.5,184.15 0.002,-0.11133 c 0,0 -0.0857,1.6868 0.04883,3.709 0.13453,2.0222 0.54556,4.2369 1.5918,6.2812 l 3.0156,5.8925 c 4.3609,5.4514 5.5956,7.0245 6.6777,9.4376 l 1.4004,-0.16992 c 0,0 8.2129,-0.97402 12.49,-1.8457 4.5231,-0.92177 9.8126,-2.4837 13.049,-3.4062 l -5.3398,12.338 c -2.0961,-0.3916 -9.4055,-1.7382 -14.15,-2.1426 -4.0558,-0.34562 -11.439,-0.20478 -11.631,-0.20118 l -12.725,-1.1562 -12.723,1.1562 c -0.18673,-0.004 -7.5757,-0.14455 -11.633,0.20118 -4.7446,0.40431 -12.054,1.7509 -14.15,2.1426 l -5.3379,-12.338 c 3.2377,0.92299 8.5231,2.4847 13.045,3.4062 4.2773,0.87169 12.49,1.8457 12.49,1.8457 l 1.4004,0.16992 c 3.3673,-4.0139 3.2529,-4.1341 6.6777,-9.4376 l 3.0156,-5.8925 c 1.0462,-2.0444 1.4573,-4.259 1.5918,-6.2812 0.13453,-2.0222 0.04883,-3.709 0.04883,-3.709 l 0.002,0.11133 1.502,-184.15 c 0.0085,-0.0693 0.17154,-1.403 0.48633,-3.127 0.32284,-1.768 0.83941,-3.903 1.2891,-4.8984 0.3126,-0.69204 1.0317,-3.0156 2.2948,-3.0153 1.2627,2.5e-4 1.9804,2.3233 2.293,3.0153 z"
         color="#000000"
         color-rendering="auto"
         enable-background="accumulate"
         fill-rule="evenodd"
         image-rendering="auto"
         shape-rendering="auto"
         solid-color="#000000"
         stroke="#000000"
         stroke-linejoin="round"
         stroke-width="1.3535"
         style="text-indent:0;text-decoration-line:none;text-decoration-style:solid;text-decoration-color:#000000;text-transform:none;white-space:normal;isolation:auto;mix-blend-mode:normal"
         id="path5880" />
      <circle
         cx="124.9"
         cy="985.89001"
         stroke="#000000"
         stroke-linecap="round"
         stroke-linejoin="round"
         stroke-width="3.1252"
         id="ellipse5882"
         r="1.9807" />
      <path
         d="m 76.182,852.91 -11.283,15.311 -10.215,-11.107 -6.6582,17.281 -9.8184,-6.8555 -4.1855,3.3945 8.9961,26.986 c 1.8908,-1.2144 3.8651,-2.4867 6.0234,-3.7109 2.1583,-1.2242 4.5004,-2.4006 7.1289,-3.4258 2.6285,-1.0252 5.5423,-1.8986 8.8438,-2.5156 1.6507,-0.30853 3.3989,-0.55338 5.2559,-0.72071 1.8569,-0.16732 3.8236,-0.25781 5.9121,-0.25781 2.0885,0 4.0552,0.0905 5.9121,0.25781 1.8569,0.16733 3.6032,0.41218 5.2539,0.72071 3.3013,0.61705 6.2154,1.4905 8.8438,2.5156 2.6284,1.0251 4.9707,2.2015 7.1289,3.4258 2.1582,1.2243 4.1326,2.4965 6.0234,3.7109 l 8.9961,-26.986 -4.1836,-3.3945 -9.8184,6.8555 -6.6582,-17.281 -10.215,11.109 z"
         color="#000000"
         color-rendering="auto"
         enable-background="accumulate"
         fill="#e9c13a"
         fill-rule="evenodd"
         image-rendering="auto"
         shape-rendering="auto"
         solid-color="#000000"
         stroke="#000000"
         stroke-linecap="round"
         stroke-linejoin="round"
         stroke-width="0.99921"
         style="text-indent:0;text-decoration-line:none;text-decoration-style:solid;text-decoration-color:#000000;text-transform:none;white-space:normal;isolation:auto;mix-blend-mode:normal"
         id="path5884" />
      <path
         d="m 76.182,856.98 -11.078,15.031 -9.5645,-10.402 -6.3691,16.527 -10.854,-7.5781 -1.4727,1.1934 8.2871,24.861 c 1.2733,-0.80596 2.5092,-1.6135 3.9102,-2.4082 2.1583,-1.2242 4.5004,-2.4006 7.1289,-3.4258 2.6285,-1.0252 5.5423,-1.8986 8.8438,-2.5156 1.6507,-0.30853 3.3989,-0.55338 5.2559,-0.72071 1.8569,-0.16732 3.8236,-0.25781 5.9121,-0.25781 2.0885,0 4.0552,0.0905 5.9121,0.25781 1.8569,0.16733 3.6032,0.41218 5.2539,0.72071 3.3013,0.61705 6.2154,1.4905 8.8438,2.5156 2.6284,1.0251 4.9707,2.2015 7.1289,3.4258 1.4009,0.79467 2.6369,1.6022 3.9102,2.4082 l 8.2871,-24.861 -1.4707,-1.1934 -10.855,7.5781 -6.3691,-16.525 -9.5645,10.4 z"
         color="#000000"
         color-rendering="auto"
         enable-background="accumulate"
         fill-rule="evenodd"
         image-rendering="auto"
         shape-rendering="auto"
         solid-color="#000000"
         style="text-indent:0;text-decoration-line:none;text-decoration-style:solid;text-decoration-color:#000000;text-transform:none;white-space:normal;isolation:auto;mix-blend-mode:normal"
         id="path5886" />
      <path
         d="m 76.182,876.66 c -16.708,0 -29.144,5.7713 -36.707,10.629 l 3.543,10.631 c 1.8908,-1.2144 3.8651,-2.4867 6.0234,-3.7109 2.1583,-1.2242 4.5004,-2.4006 7.1289,-3.4258 2.6285,-1.0252 5.5423,-1.8986 8.8438,-2.5156 1.6507,-0.30853 3.3989,-0.55338 5.2559,-0.72071 1.8569,-0.16732 3.8236,-0.25781 5.9121,-0.25781 2.0885,0 4.0552,0.0905 5.9121,0.25781 1.8569,0.16733 3.6032,0.41218 5.2539,0.72071 3.3013,0.61705 6.2154,1.4905 8.8438,2.5156 2.6284,1.0251 4.9707,2.2015 7.1289,3.4258 2.1582,1.2243 4.1326,2.4965 6.0234,3.7109 l 3.543,-10.631 C 105.324,882.4314 92.8902,876.66 76.1822,876.66 Z"
         fill="#1780ce"
         fill-rule="evenodd"
         stroke="#000000"
         stroke-linecap="round"
         stroke-linejoin="round"
         stroke-width="0.99921"
         id="path5888" />
      <path
         d="m 111.7,890.85 c -7.5632,-4.8576 -18.81,-10.65 -35.518,-10.65 -16.708,0 -27.956,5.7926 -35.519,10.65"
         fill="none"
         stroke="#000000"
         stroke-linecap="round"
         stroke-linejoin="round"
         stroke-width="0.99921"
         id="path5890" />
      <path
         d="m 110.52,894.38 c -7.5632,-4.8576 -17.634,-10.637 -34.342,-10.637 -16.708,0 -26.779,5.7796 -34.342,10.637"
         fill="none"
         stroke="#000000"
         stroke-linecap="round"
         stroke-linejoin="round"
         stroke-width="0.99921"
         id="path5892" />
      <path
         d="m 76.182,995.7 -16.875,10.547 2.2715,0.8652 c 0,0 2.363,0.8997 5.3418,1.7989 2.9788,0.8992 6.5338,1.8242 9.2617,1.8242 2.7279,0 6.2829,-0.925 9.2617,-1.8242 2.9788,-0.8992 5.3418,-1.7989 5.3418,-1.7989 l 2.2715,-0.8652 z"
         color="#000000"
         color-rendering="auto"
         enable-background="accumulate"
         fill="#e9c13a"
         fill-rule="evenodd"
         image-rendering="auto"
         shape-rendering="auto"
         solid-color="#000000"
         stroke="#000000"
         stroke-width="0.99921"
         style="text-indent:0;text-decoration-line:none;text-decoration-style:solid;text-decoration-color:#000000;text-transform:none;white-space:normal;isolation:auto;mix-blend-mode:normal"
         id="path5894" />
      <path
         d="m 76.181,997.13 11.367,7.1054 c -0.94455,0.3337 -1.2398,0.471 -2.8047,0.9434 -2.8903,0.8724 -6.4206,1.7207 -8.5625,1.7207 -2.1419,0 -5.6741,-0.8483 -8.5645,-1.7207 -1.5639,-0.4721 -1.8582,-0.6097 -2.8027,-0.9434 z"
         color="#000000"
         color-rendering="auto"
         enable-background="accumulate"
         fill-rule="evenodd"
         image-rendering="auto"
         shape-rendering="auto"
         solid-color="#000000"
         stroke="#000000"
         stroke-width="1.3535"
         style="text-indent:0;text-decoration-line:none;text-decoration-style:solid;text-decoration-color:#000000;text-transform:none;white-space:normal;isolation:auto;mix-blend-mode:normal"
         id="path5896" />
      <path
         d="m 111.57,886.46 5.5263,-16.518"
         fill="none"
         stroke="#000000"
         stroke-width="3.1252"
         id="path5898" />
      <path
         d="M 40.682,886.53 35.1557,870.012"
         fill="none"
         stroke="#000000"
         stroke-width="3.1252"
         id="path5900" />
      <g
         transform="translate(0.2756,1.4227)"
         stroke-linecap="round"
         stroke-linejoin="round"
         id="g5932">
        <path
           d="m 85.953,804.22 a 130.64,123.03 0 0 0 -2.1177,-1.8582 130.64,123.03 0 0 0 -7.8399,-5.6133 130.64,123.03 0 0 0 -10.137,7.4881 118.23,111.34 0 0 1 0.52748,0.30357 118.23,111.34 0 0 1 9.4067,6.7356 118.23,111.34 0 0 1 0.12308,0.1067 118.23,111.34 0 0 1 2.6179,-2.1655 118.23,111.34 0 0 1 7.4199,-4.997 z"
           stroke="#000000"
           stroke-width="0.96992"
           id="path5902" />
        <path
           d="m 75.737,981.5 a 118.23,111.34 0 0 1 -2.6179,2.1655 118.23,111.34 0 0 1 -7.3906,4.9749 130.64,123.03 0 0 0 10.102,7.5984 130.64,123.03 0 0 0 5.0501,-3.4018 130.64,123.03 0 0 0 5.0033,-4.1396 118.23,111.34 0 0 1 -0.6154,-0.35509 118.23,111.34 0 0 1 -9.4087,-6.7356 A 118.23,111.34 0 0 1 75.73672,981.5 Z"
           stroke="#000000"
           stroke-width="0.96992"
           id="path5904" />
        <g
           transform="matrix(1.0003,0,0,0.94199,-0.32332,52.009)"
           stroke="#000000"
           stroke-width="0.99921"
           id="g5910">
          <path
             d="m 86.254,798.54 a 118.2,118.2 0 0 0 -7.418,5.3047 118.2,118.2 0 0 0 -2.6172,2.2988 118.2,118.2 0 0 1 8.5234,7.9394 118.2,118.2 0 0 1 7.7969,8.877 118.2,118.2 0 0 1 6.873,9.6113 118.2,118.2 0 0 1 5.8789,10.248 118.2,118.2 0 0 1 4.8262,10.785 118.2,118.2 0 0 1 3.7266,11.213 118.2,118.2 0 0 1 2.5859,11.527 118.2,118.2 0 0 1 1.4238,11.729 118.2,118.2 0 0 1 0.29687,8.3613 118.2,118.2 0 0 1 -0.58984,11.801 118.2,118.2 0 0 1 -1.7656,11.684 118.2,118.2 0 0 1 -2.9238,11.447 118.2,118.2 0 0 1 -4.0508,11.1 118.2,118.2 0 0 1 -5.1406,10.639 118.2,118.2 0 0 1 -6.1758,10.072 118.2,118.2 0 0 1 -7.1504,9.4062 118.2,118.2 0 0 1 -8.0527,8.6445 118.2,118.2 0 0 1 -6.2598,5.5 118.2,118.2 0 0 0 0.12305,0.11328 118.2,118.2 0 0 0 9.4062,7.1504 118.2,118.2 0 0 0 0.61524,0.37696 130.6,130.6 0 0 0 4.8066,-4.2227 130.6,130.6 0 0 0 8.8984,-9.5508 130.6,130.6 0 0 0 7.9004,-10.393 130.6,130.6 0 0 0 6.8242,-11.131 130.6,130.6 0 0 0 5.6777,-11.754 130.6,130.6 0 0 0 4.4766,-12.264 130.6,130.6 0 0 0 3.2305,-12.648 130.6,130.6 0 0 0 1.9512,-12.908 130.6,130.6 0 0 0 0.65235,-13.039 130.6,130.6 0 0 0 -0.32813,-9.2383 130.6,130.6 0 0 0 -1.5723,-12.961 130.6,130.6 0 0 0 -2.8594,-12.736 130.6,130.6 0 0 0 -4.1172,-12.391 130.6,130.6 0 0 0 -5.332,-11.916 130.6,130.6 0 0 0 -6.4961,-11.322 130.6,130.6 0 0 0 -7.5938,-10.619 130.6,130.6 0 0 0 -8.6152,-9.8086 130.6,130.6 0 0 0 -7.4355,-6.9258 z"
             fill="#1780ce"
             id="path5906" />
          <path
             d="m 66.164,798.56 c 2.54,1.6722 5.0145,3.4417 7.418,5.3047 0.88364,0.75338 1.7561,1.5197 2.6172,2.2988 -2.9699,2.5048 -5.8145,5.1545 -8.5234,7.9394 -2.7453,2.8272 -5.3475,5.7898 -7.7969,8.877 -2.4498,3.0872 -4.7437,6.295 -6.873,9.6113 -2.1292,3.3159 -4.0913,6.7362 -5.8789,10.248 -1.7875,3.5124 -3.3982,7.1119 -4.8262,10.785 -1.4283,3.6732 -2.6721,7.4155 -3.7266,11.213 -1.0536,3.7969 -1.9166,7.6442 -2.5859,11.527 -0.66982,3.8833 -1.145,7.7977 -1.4238,11.729 -0.1976,2.7827 -0.29662,5.5716 -0.29687,8.3613 -2.36e-4,3.941 0.19662,7.8795 0.58984,11.801 0.39339,3.9215 0.98267,7.8209 1.7656,11.684 0.78318,3.8621 1.759,7.6826 2.9238,11.447 1.1644,3.7651 2.5163,7.4696 4.0508,11.1 1.5351,3.6297 3.2508,7.1804 5.1406,10.639 1.8894,3.4583 3.9506,6.8199 6.1758,10.072 2.2252,3.2527 4.6116,6.392 7.1504,9.4062 0.80447,0.95515 1.6239,1.8974 2.458,2.8263 1.7979,2.0023 3.6638,3.9428 5.5947,5.8182 2.0213,1.9063 4.1092,3.7408 6.2598,5.5 -0.04099,0.0378 -0.08201,0.0756 -0.12305,0.11328 -3.0143,2.5388 -6.1536,4.9252 -9.4062,7.1504 -0.20469,0.12628 -0.40977,0.25193 -0.61523,0.37696 -1.6365,-1.3681 -3.2392,-2.7761 -4.8066,-4.2227 -3.1235,-3.0333 -6.0933,-6.2208 -8.8984,-9.5508 -2.8051,-3.3303 -5.4418,-6.7988 -7.9004,-10.393 -2.4589,-3.5942 -4.7365,-7.3091 -6.8242,-11.131 -2.0873,-3.8209 -3.9823,-7.7437 -5.6777,-11.754 -1.6957,-4.0107 -3.1897,-8.1037 -4.4766,-12.264 -1.287,-4.1597 -2.3652,-8.3811 -3.2305,-12.648 -0.86516,-4.2675 -1.5164,-8.5756 -1.9512,-12.908 -0.43469,-4.3328 -0.65241,-8.6846 -0.65235,-13.039 3.27e-4,-3.0823 0.10977,-6.1637 0.32813,-9.2383 0.30768,-4.3438 0.83243,-8.6695 1.5723,-12.961 0.74024,-4.2904 1.6946,-8.5412 2.8594,-12.736 1.165,-4.1963 2.5391,-8.3316 4.1172,-12.391 1.5776,-4.0584 3.3572,-8.0354 5.332,-11.916 1.9753,-3.88 4.1434,-7.6588 6.4961,-11.322 2.3526,-3.6641 4.8871,-7.2082 7.5937,-10.619 2.7064,-3.4111 5.5818,-6.6847 8.6152,-9.8086 2.3877,-2.4042 4.8681,-4.7145 7.4356,-6.9258 z"
             fill="#dd1d1d"
             id="path5908" />
        </g>
        <g
           transform="matrix(1.0003,0,0,0.94199,-0.32332,52.009)"
           fill="none"
           stroke="#e9c13a"
           stroke-width="1px"
           id="g5920">
          <path
             d="m 76.182,792.67 c -1.0956,1.8525 -0.81204,3.7658 0,5.7012 z m 0.02734,0 v 5.7012 c 0.81204,-1.9354 1.0956,-3.8487 0,-5.7012 z"
             id="path5912" />
          <path
             d="m 76.181,804.08 c -1.0956,-1.8525 -0.81204,-3.7658 0,-5.7012 z m 0.02734,0 v -5.7012 c 0.81204,1.9354 1.0956,3.8487 0,5.7012 z"
             id="path5914" />
          <path
             d="m 81.91,798.35 c -1.8525,-1.0956 -3.7658,-0.81203 -5.7012,0 z m 0,0.0273 h -5.7012 c 1.9354,0.81203 3.8487,1.0956 5.7012,0 z"
             id="path5916" />
          <path
             d="m 70.48,798.38 c 1.8525,-1.0956 3.7658,-0.81203 5.7012,0 z m 0,0.0273 h 5.7012 c -1.9354,0.81203 -3.8487,1.0956 -5.7012,0 z"
             id="path5918" />
        </g>
        <g
           transform="matrix(1.0003,0,0,0.94199,-0.29961,236.92)"
           fill="none"
           stroke="#e9c13a"
           stroke-width="1px"
           id="g5930">
          <path
             d="m 76.182,792.67 c -1.0956,1.8525 -0.81204,3.7658 0,5.7012 z m 0.02734,0 v 5.7012 c 0.81204,-1.9354 1.0956,-3.8487 0,-5.7012 z"
             id="path5922" />
          <path
             d="m 76.181,804.08 c -1.0956,-1.8525 -0.81204,-3.7658 0,-5.7012 z m 0.02734,0 v -5.7012 c 0.81204,1.9354 1.0956,3.8487 0,5.7012 z"
             id="path5924" />
          <path
             d="m 81.91,798.35 c -1.8525,-1.0956 -3.7658,-0.81203 -5.7012,0 z m 0,0.0273 h -5.7012 c 1.9354,0.81203 3.8487,1.0956 5.7012,0 z"
             id="path5926" />
          <path
             d="m 70.48,798.38 c 1.8525,-1.0956 3.7658,-0.81203 5.7012,0 z m 0,0.0273 h 5.7012 c -1.9354,0.81203 -3.8487,1.0956 -5.7012,0 z"
             id="path5928" />
        </g>
      </g>
      <path
         d="m 127.64,1006.8 c -14.835,-3.0002 -28.919,-8.6616 -41.481,-16.675 v 0 l -10.011,7.6632 v 0 c 7.1802,4.8672 14.867,9.0348 22.942,12.439 5.2031,1.3693 9.8129,1.4349 14.317,1.268 9.3446,-1.2184 10.208,-3.0757 14.234,-4.6947"
         fill="#dd1d1d"
         stroke="#000000"
         stroke-linecap="round"
         stroke-linejoin="round"
         stroke-width="0.96992"
         id="path5934" />
      <path
         d="m 76.103,798.05 10.126,7.5946 16.545,-10.918 -10.129,-7.5939 z"
         fill="#dd1d1d"
         fill-rule="evenodd"
         stroke="#000000"
         stroke-width="0.97069px"
         id="path5936" />
      <ellipse
         transform="matrix(0.58643,0.81,-0.84154,0.5402,0,0)"
         cx="719.15997"
         cy="358.14001"
         rx="6.6971998"
         ry="9.8961"
         fill="#1780ce"
         stroke="#000000"
         stroke-linecap="round"
         stroke-linejoin="round"
         stroke-width="0.97068"
         id="ellipse5938" />
      <ellipse
         transform="matrix(0.58643,0.81,-0.84154,0.5402,0,0)"
         cx="719.15997"
         cy="358.14001"
         rx="4.7182002"
         ry="9.8961"
         fill="none"
         stroke="#000000"
         stroke-linecap="round"
         stroke-linejoin="round"
         stroke-width="0.97068"
         id="ellipse5940" />
      <ellipse
         transform="matrix(0.58643,0.81,-0.84154,0.5402,0,0)"
         cx="719.15997"
         cy="358.14001"
         rx="2.5416"
         ry="9.8961"
         fill="none"
         stroke="#000000"
         stroke-linecap="round"
         stroke-linejoin="round"
         stroke-width="0.97068"
         id="ellipse5942" />
      <path
         d="m 128.68,770.64 -16.656,10.692"
         fill="none"
         stroke="#000000"
         stroke-width="0.97069px"
         id="path5944" />
      <ellipse
         transform="matrix(0.58643,0.81,-0.84154,0.5402,0,0)"
         cx="719.15997"
         cy="346.19"
         rx="1.6743"
         ry="1.7115"
         stroke="#000000"
         stroke-linecap="round"
         stroke-linejoin="round"
         stroke-width="0.97068"
         id="ellipse5946" />
      <path
         d="m 76.26,798.07 -10.126,7.5946 -16.545,-10.918 10.129,-7.5938 z"
         fill="#1780ce"
         fill-rule="evenodd"
         stroke="#000000"
         stroke-width="0.97069px"
         id="path5948" />
      <ellipse
         transform="matrix(-0.58643,0.81,0.84154,0.5402,0,0)"
         cx="636.72998"
         cy="481.76001"
         rx="6.6971998"
         ry="9.8961"
         fill="#1780ce"
         stroke="#000000"
         stroke-linecap="round"
         stroke-linejoin="round"
         stroke-width="0.97068"
         id="ellipse5950" />
      <ellipse
         transform="matrix(-0.58643,0.81,0.84154,0.5402,0,0)"
         cx="636.72998"
         cy="481.76001"
         rx="4.7182002"
         ry="9.8961"
         fill="none"
         stroke="#000000"
         stroke-linecap="round"
         stroke-linejoin="round"
         stroke-width="0.97068"
         id="ellipse5952" />
      <ellipse
         transform="matrix(-0.58643,0.81,0.84154,0.5402,0,0)"
         cx="636.72998"
         cy="481.76001"
         rx="2.5416"
         ry="9.8961"
         fill="none"
         stroke="#000000"
         stroke-linecap="round"
         stroke-linejoin="round"
         stroke-width="0.97068"
         id="ellipse5954" />
      <path
         d="m 23.686,770.65 16.656,10.692"
         fill="none"
         stroke="#000000"
         stroke-width="0.97069px"
         id="path5956" />
      <ellipse
         transform="matrix(-0.58643,0.81,0.84154,0.5402,0,0)"
         cx="636.72998"
         cy="469.81"
         rx="1.6743"
         ry="1.7115"
         stroke="#000000"
         stroke-linecap="round"
         stroke-linejoin="round"
         stroke-width="0.97068"
         id="ellipse5958" />
      <path
         d="m 24.581,1006.7 c 14.835,-3.0002 28.919,-8.6616 41.481,-16.675 v 0 l 10.011,7.6632 v 0 c -7.1802,4.8671 -14.867,9.0347 -22.942,12.439 -5.2031,1.3693 -9.8129,1.4349 -14.317,1.268 -9.3446,-1.2184 -10.208,-3.0757 -14.234,-4.6947"
         fill="#1780ce"
         stroke="#000000"
         stroke-linecap="round"
         stroke-linejoin="round"
         stroke-width="0.96992"
         id="path5960" />
      <g
         transform="translate(4.0957e-7,1.4594)"
         fill="none"
         stroke="#000000"
         id="g5972">
        <path
           d="M 44.286,851.48 32.757,847.0602"
           stroke-width="1px"
           id="path5962" />
        <path
           d="M 42.927,854.5 31.402,850.0815"
           stroke-width="1px"
           id="path5964" />
        <path
           d="m 40.177,853.45 -8.1847,2.3958 4.7155,6.7637 -7.9414,3.0735 5.3006,6.3824 -7.6348,3.7253 5.8554,5.9471 -7.2682,4.3444 6.373,5.4598 -6.8462,4.9163 6.8469,4.932 -6.3722,5.4607 7.2687,4.3433 -5.8545,5.9477 7.6352,3.7246 -5.2996,6.3831 7.9418,3.0725 -4.7144,6.7643 8.1788,2.3803"
           stroke-linecap="round"
           stroke-linejoin="round"
           stroke-width="0.99921"
           id="path5966" />
        <path
           d="M 31.413,942.82 42.66,938.5082"
           stroke-width="1px"
           id="path5968" />
        <path
           d="m 32.77,945.85 11.25,-4.3128"
           stroke-width="1px"
           id="path5970" />
      </g>
      <g
         transform="matrix(-1,0,0,1,152.37,1.4594)"
         fill="none"
         stroke="#000000"
         id="g5984">
        <path
           d="M 44.286,851.48 32.757,847.0602"
           stroke-width="1px"
           id="path5974" />
        <path
           d="M 42.927,854.5 31.402,850.0815"
           stroke-width="1px"
           id="path5976" />
        <path
           d="m 40.177,853.45 -8.1847,2.3958 4.7155,6.7637 -7.9414,3.0735 5.3006,6.3824 -7.6348,3.7253 5.8554,5.9471 -7.2682,4.3444 6.373,5.4598 -6.8462,4.9163 6.8469,4.932 -6.3722,5.4607 7.2687,4.3433 -5.8545,5.9477 7.6352,3.7246 -5.2996,6.3831 7.9418,3.0725 -4.7144,6.7643 8.1788,2.3803"
           stroke-linecap="round"
           stroke-linejoin="round"
           stroke-width="0.99921"
           id="path5978" />
        <path
           d="M 31.413,942.82 42.66,938.5082"
           stroke-width="1px"
           id="path5980" />
        <path
           d="m 32.77,945.85 11.25,-4.3128"
           stroke-width="1px"
           id="path5982" />
      </g>
      <path
         d="m 101.5,852.77 c 0.5904,-1.1798 0.36479,-3.941 0.36479,-3.941 0,0 -2.3454,1.4745 -2.9358,2.6543 -0.5904,1.1798 -0.36482,3.9409 -0.36482,3.9409 0,0 2.3454,-1.4745 2.9358,-2.6542 z"
         fill="#1780ce"
         fill-rule="evenodd"
         stroke="#000000"
         stroke-linejoin="round"
         stroke-width="1px"
         id="path5986" />
      <path
         d="m 50.861,852.77 c -0.5904,-1.1798 -0.36479,-3.941 -0.36479,-3.941 0,0 2.3454,1.4745 2.9358,2.6543 0.5904,1.1798 0.36482,3.9409 0.36482,3.9409 0,0 -2.3454,-1.4745 -2.9358,-2.6542 z"
         fill="#1780ce"
         fill-rule="evenodd"
         stroke="#000000"
         stroke-linejoin="round"
         stroke-width="1px"
         id="path5988" />
      <g
         transform="rotate(-90,142,1072.3)"
         stroke="#000000"
         id="g6002">
        <g
           transform="rotate(0.37236,193.46,1006.4)"
           id="g5998">
          <ellipse
             transform="matrix(0.0063648,0.99998,0.99998,-0.0064951,0,0)"
             cx="1007.7"
             cy="187.05"
             rx="6.9699001"
             ry="10.076"
             fill="#dd1d1d"
             stroke-linecap="round"
             stroke-linejoin="round"
             stroke-width="0.99921"
             id="ellipse5990" />
          <ellipse
             transform="matrix(0.0063648,0.99998,0.99998,-0.0064951,0,0)"
             cx="1007.7"
             cy="187.05"
             rx="4.9102998"
             ry="10.076"
             fill="none"
             stroke-linecap="round"
             stroke-linejoin="round"
             stroke-width="0.99921"
             id="ellipse5992" />
          <ellipse
             transform="matrix(0.0063648,0.99998,0.99998,-0.0064951,0,0)"
             cx="1007.7"
             cy="187.05"
             rx="2.6451001"
             ry="10.076"
             fill="none"
             stroke-linecap="round"
             stroke-linejoin="round"
             stroke-width="0.99921"
             id="ellipse5994" />
          <path
             d="m 183.38,1006.5 20.151,-0.1309"
             fill="none"
             stroke-width="1px"
             id="path5996" />
        </g>
        <ellipse
           transform="matrix(0.0063648,0.99998,0.99998,-0.0064951,0,0)"
           cx="1007.6"
           cy="174.52"
           rx="1.7424999"
           ry="1.7426"
           stroke-linecap="round"
           stroke-linejoin="round"
           stroke-width="0.99921"
           id="ellipse6000" />
      </g>
      <g
         transform="rotate(57.303,289.77,779.98)"
         opacity="0.97"
         id="g6028">
        <g
           stroke="#000000"
           stroke-linecap="round"
           stroke-linejoin="round"
           id="g6026">
          <ellipse
             transform="matrix(-0.99843,-0.055947,0,1,0,0)"
             cx="-195.19"
             cy="930.78003"
             rx="6.6971998"
             ry="13.217"
             fill="#dd1d1d"
             opacity="1"
             stroke-width="0.97068"
             id="ellipse6004" />
          <path
             d="m 191.5,930.12 6.4391,6e-5"
             fill="none"
             stroke-width="0.64488"
             id="path6006" />
          <path
             d="m 190.01,932.37 9.4728,3.3e-4"
             fill="none"
             stroke-width="0.64488"
             id="path6008" />
          <path
             d="m 189.13,934.63 11.295,2e-5"
             fill="none"
             stroke-width="0.64488"
             id="path6010" />
          <path
             d="m 188.59,936.89 12.45,-2.8e-4"
             fill="none"
             stroke-width="0.64488"
             id="path6012" />
          <path
             d="m 188.29,939.15 13.116,7e-5"
             fill="none"
             stroke-width="0.64488"
             id="path6014" />
          <path
             d="m 188.2,941.4 13.365,10e-6"
             fill="none"
             stroke-width="0.64488"
             id="path6016" />
          <path
             d="m 188.3,943.66 13.221,-5e-5"
             fill="none"
             stroke-width="0.64488"
             id="path6018" />
          <path
             d="m 188.61,945.92 12.671,-2.3e-4"
             fill="none"
             stroke-width="0.64488"
             id="path6020" />
          <path
             d="m 189.15,948.18 11.657,4e-4"
             fill="none"
             stroke-width="0.64488"
             id="path6022" />
          <path
             d="m 189.99,950.43 10.04,-1.9e-4"
             fill="none"
             stroke-width="0.64488"
             id="path6024" />
        </g>
      </g>
      <g
         transform="matrix(-0.5402,0.84154,0.84154,0.5402,-637.24,114.79)"
         opacity="0.97"
         id="g6054">
        <g
           stroke="#000000"
           stroke-linecap="round"
           stroke-linejoin="round"
           id="g6052">
          <ellipse
             transform="matrix(-0.99843,-0.055947,0,1,0,0)"
             cx="-195.19"
             cy="930.78003"
             rx="6.6971998"
             ry="13.217"
             fill="#dd1d1d"
             opacity="1"
             stroke-width="0.97068"
             id="ellipse6030" />
          <path
             d="m 191.5,930.12 6.4391,6e-5"
             fill="none"
             stroke-width="0.64488"
             id="path6032" />
          <path
             d="m 190.01,932.37 9.4728,3.3e-4"
             fill="none"
             stroke-width="0.64488"
             id="path6034" />
          <path
             d="m 189.13,934.63 11.295,2e-5"
             fill="none"
             stroke-width="0.64488"
             id="path6036" />
          <path
             d="m 188.59,936.89 12.45,-2.8e-4"
             fill="none"
             stroke-width="0.64488"
             id="path6038" />
          <path
             d="m 188.29,939.15 13.116,7e-5"
             fill="none"
             stroke-width="0.64488"
             id="path6040" />
          <path
             d="m 188.2,941.4 13.365,10e-6"
             fill="none"
             stroke-width="0.64488"
             id="path6042" />
          <path
             d="m 188.3,943.66 13.221,-5e-5"
             fill="none"
             stroke-width="0.64488"
             id="path6044" />
          <path
             d="m 188.61,945.92 12.671,-2.3e-4"
             fill="none"
             stroke-width="0.64488"
             id="path6046" />
          <path
             d="m 189.15,948.18 11.657,4e-4"
             fill="none"
             stroke-width="0.64488"
             id="path6048" />
          <path
             d="m 189.99,950.43 10.04,-1.9e-4"
             fill="none"
             stroke-width="0.64488"
             id="path6050" />
        </g>
      </g>
      <g
         stroke="#000000"
         stroke-width="0.99921"
         id="g6080">
        <circle
           cx="97.077003"
           cy="761.21002"
           stroke-linecap="round"
           stroke-linejoin="round"
           id="ellipse6056"
           r="2.6575" />
        <circle
           transform="scale(-1,1)"
           cx="-123.39"
           cy="813.51001"
           stroke-linecap="round"
           stroke-linejoin="round"
           id="ellipse6058"
           r="2.6575" />
        <path
           d="m 88.947,763.06 0.11719,1.957 c 0.27789,4.5735 1.1169,12.397 -0.04492,19.658 l -1.4902,9.3106 2.752,-1.4277 c 0,0 0.80126,-0.4152 1.7461,-0.99414 0.94484,-0.57894 2.0245,-1.2602 2.8301,-2.1699 4.8281,-5.4523 5.3807,-7.5917 6.793,-11.361 1.6174,-4.317 2.2592,-8.5697 2.834,-12.709 l 0.26757,-1.9238 -1.9355,0.15039 c -3.6861,0.28634 -7.0129,0.64418 -11.936,-0.16992 l -1.9336,-0.32031 z"
           color="#000000"
           color-rendering="auto"
           enable-background="accumulate"
           fill="#e9c13a"
           fill-rule="evenodd"
           image-rendering="auto"
           shape-rendering="auto"
           solid-color="#000000"
           stroke-linecap="round"
           stroke-linejoin="round"
           style="text-indent:0;text-decoration-line:none;text-decoration-style:solid;text-decoration-color:#000000;text-transform:none;white-space:normal;isolation:auto;mix-blend-mode:normal"
           id="path6060" />
        <path
           d="m 92.291,766.61 c 3.3783,0.38128 6.2286,0.36381 8.791,0.17188 -0.51135,3.4432 -1.1109,6.8252 -2.3574,10.152 -1.4642,3.9082 -1.5479,5.1272 -6.207,10.389 -0.12056,0.13615 -0.56892,0.41474 -0.85938,0.63867 l 0.44727,-2.7949 c 1.1273,-7.0455 0.51596,-13.968 0.18555,-18.557 z"
           color="#000000"
           color-rendering="auto"
           enable-background="accumulate"
           fill-rule="evenodd"
           image-rendering="auto"
           shape-rendering="auto"
           solid-color="#000000"
           style="text-indent:0;text-decoration-line:none;text-decoration-style:solid;text-decoration-color:#000000;text-transform:none;white-space:normal;isolation:auto;mix-blend-mode:normal"
           id="path6062" />
        <path
           d="m 99.83,793.97 c -2.6436,-0.16731 -7.248,0.25195 -7.248,0.25195 l -5.0527,0.42969 4.416,2.4883 c 0,0 3.3016,1.8889 4.5488,2.8418 3.2233,2.4627 6.2019,5.2975 8.9941,8.3066 3.6728,3.9582 10.404,13.117 10.404,13.117 l 1.9531,2.668 0.82031,-3.2031 c 1.3992,-5.4583 3.7152,-10.689 6.959,-15.715 l 0.80664,-1.248 -1.207,-0.86914 c 0,0 -2.9866,-2.1675 -4.8418,-3.1914 -2.0114,-1.1101 -4.1163,-2.0664 -6.2812,-2.8438 -2.1757,-0.78122 -4.3916,-1.3092 -6.5625,-1.7793 -2.4728,-0.53546 -5.036,-1.0847 -7.709,-1.2539 z"
           color="#000000"
           color-rendering="auto"
           enable-background="accumulate"
           fill="#e9c13a"
           fill-rule="evenodd"
           image-rendering="auto"
           shape-rendering="auto"
           solid-color="#000000"
           stroke-linecap="round"
           stroke-linejoin="round"
           style="text-indent:0;text-decoration-line:none;text-decoration-style:solid;text-decoration-color:#000000;text-transform:none;white-space:normal;isolation:auto;mix-blend-mode:normal"
           id="path6064" />
        <path
           d="m 99.633,797.09 c 2.3685,0.14989 4.7818,0.65779 7.2461,1.1914 2.125,0.46014 4.2048,0.9618 6.166,1.666 2.0049,0.71991 3.9606,1.608 5.8281,2.6387 1.0639,0.58716 2.4459,1.5802 3.3887,2.2402 -2.4271,3.9777 -4.2615,8.1164 -5.6172,12.379 -1.98,-2.6642 -5.7918,-7.7287 -8.8652,-11.041 -2.8806,-3.1044 -5.9849,-6.0634 -9.3887,-8.6641 -0.19087,-0.14584 -0.32722,-0.18931 -0.54883,-0.34376 0.77786,-0.0202 1.2558,-0.10028 1.791,-0.0664 z"
           color="#000000"
           color-rendering="auto"
           enable-background="accumulate"
           fill-rule="evenodd"
           image-rendering="auto"
           shape-rendering="auto"
           solid-color="#000000"
           style="text-indent:0;text-decoration-line:none;text-decoration-style:solid;text-decoration-color:#000000;text-transform:none;white-space:normal;isolation:auto;mix-blend-mode:normal"
           id="path6066" />
        <circle
           transform="scale(-1,1)"
           cx="-55.285"
           cy="761.21002"
           stroke-linecap="round"
           stroke-linejoin="round"
           id="ellipse6068"
           r="2.6575" />
        <circle
           cx="28.969999"
           cy="813.51001"
           stroke-linecap="round"
           stroke-linejoin="round"
           id="ellipse6070"
           r="2.6575" />
        <path
           d="m 63.415,763.06 -0.11719,1.957 c -0.27789,4.5735 -1.1169,12.397 0.04492,19.658 l 1.4902,9.3106 -2.752,-1.4277 c 0,0 -0.80126,-0.4152 -1.7461,-0.99414 -0.94484,-0.57894 -2.0245,-1.2602 -2.8301,-2.1699 -4.8281,-5.4523 -5.3807,-7.5917 -6.793,-11.361 -1.6174,-4.317 -2.2592,-8.5697 -2.834,-12.709 l -0.26757,-1.9238 1.9355,0.15039 c 3.6861,0.28634 7.0129,0.64418 11.936,-0.16992 l 1.9336,-0.32031 z"
           color="#000000"
           color-rendering="auto"
           enable-background="accumulate"
           fill="#e9c13a"
           fill-rule="evenodd"
           image-rendering="auto"
           shape-rendering="auto"
           solid-color="#000000"
           stroke-linecap="round"
           stroke-linejoin="round"
           style="text-indent:0;text-decoration-line:none;text-decoration-style:solid;text-decoration-color:#000000;text-transform:none;white-space:normal;isolation:auto;mix-blend-mode:normal"
           id="path6072" />
        <path
           d="m 60.071,766.61 c -3.3783,0.38128 -6.2286,0.36381 -8.791,0.17188 0.51135,3.4432 1.1109,6.8252 2.3574,10.152 1.4642,3.9082 1.5479,5.1272 6.207,10.389 0.12056,0.13615 0.56892,0.41474 0.85938,0.63867 l -0.44727,-2.7949 c -1.1273,-7.0455 -0.51596,-13.968 -0.18555,-18.557 z"
           color="#000000"
           color-rendering="auto"
           enable-background="accumulate"
           fill-rule="evenodd"
           image-rendering="auto"
           shape-rendering="auto"
           solid-color="#000000"
           style="text-indent:0;text-decoration-line:none;text-decoration-style:solid;text-decoration-color:#000000;text-transform:none;white-space:normal;isolation:auto;mix-blend-mode:normal"
           id="path6074" />
        <path
           d="m 52.532,793.97 c 2.6436,-0.16731 7.248,0.25195 7.248,0.25195 l 5.0527,0.42969 -4.416,2.4883 c 0,0 -3.3016,1.8889 -4.5488,2.8418 -3.2233,2.4627 -6.2019,5.2975 -8.9941,8.3066 -3.6728,3.9582 -10.404,13.117 -10.404,13.117 l -1.9531,2.668 -0.82031,-3.2031 c -1.3992,-5.4583 -3.7152,-10.689 -6.959,-15.715 l -0.80664,-1.248 1.207,-0.86914 c 0,0 2.9866,-2.1675 4.8418,-3.1914 2.0114,-1.1101 4.1163,-2.0664 6.2812,-2.8438 2.1757,-0.78122 4.3916,-1.3092 6.5625,-1.7793 2.4728,-0.53546 5.036,-1.0847 7.709,-1.2539 z"
           color="#000000"
           color-rendering="auto"
           enable-background="accumulate"
           fill="#e9c13a"
           fill-rule="evenodd"
           image-rendering="auto"
           shape-rendering="auto"
           solid-color="#000000"
           stroke-linecap="round"
           stroke-linejoin="round"
           style="text-indent:0;text-decoration-line:none;text-decoration-style:solid;text-decoration-color:#000000;text-transform:none;white-space:normal;isolation:auto;mix-blend-mode:normal"
           id="path6076" />
        <path
           d="m 52.729,797.09 c -2.3685,0.14989 -4.7818,0.65779 -7.2461,1.1914 -2.125,0.46014 -4.2048,0.9618 -6.166,1.666 -2.0049,0.71991 -3.9606,1.608 -5.8281,2.6387 -1.0639,0.58716 -2.4459,1.5802 -3.3887,2.2402 2.4271,3.9777 4.2615,8.1164 5.6172,12.379 1.98,-2.6642 5.7918,-7.7287 8.8652,-11.041 2.8806,-3.1044 5.9849,-6.0634 9.3887,-8.6641 0.19087,-0.14584 0.32722,-0.18931 0.54883,-0.34376 -0.77786,-0.0202 -1.2558,-0.10028 -1.791,-0.0664 z"
           color="#000000"
           color-rendering="auto"
           enable-background="accumulate"
           fill-rule="evenodd"
           image-rendering="auto"
           shape-rendering="auto"
           solid-color="#000000"
           style="text-indent:0;text-decoration-line:none;text-decoration-style:solid;text-decoration-color:#000000;text-transform:none;white-space:normal;isolation:auto;mix-blend-mode:normal"
           id="path6078" />
      </g>
    </g>
  </g>
</svg>
