<?xml version="1.0" encoding="UTF-8" standalone="no"?>
<svg
   width="42.999554mm"
   height="87.997955mm"
   enable-background="new"
   version="1.1"
   viewBox="0 0 152.36175 311.80281"
   id="svg20076"
   sodipodi:docname="Mazzo.svg"
   inkscape:version="1.2.1 (9c6d41e410, 2022-07-14)"
   xmlns:inkscape="http://www.inkscape.org/namespaces/inkscape"
   xmlns:sodipodi="http://sodipodi.sourceforge.net/DTD/sodipodi-0.dtd"
   xmlns="http://www.w3.org/2000/svg"
   xmlns:svg="http://www.w3.org/2000/svg"
   xmlns:rdf="http://www.w3.org/1999/02/22-rdf-syntax-ns#"
   xmlns:cc="http://creativecommons.org/ns#"
   xmlns:dc="http://purl.org/dc/elements/1.1/">
  <sodipodi:namedview
     id="namedview20078"
     pagecolor="#ffffff"
     bordercolor="#000000"
     borderopacity="0.25"
     inkscape:showpageshadow="2"
     inkscape:pageopacity="0.0"
     inkscape:pagecheckerboard="0"
     inkscape:deskcolor="#d1d1d1"
     inkscape:document-units="mm"
     showgrid="false"
     inkscape:zoom="2.8284271"
     inkscape:cx="196.57568"
     inkscape:cy="470.75634"
     inkscape:window-width="2560"
     inkscape:window-height="1409"
     inkscape:window-x="0"
     inkscape:window-y="31"
     inkscape:window-maximized="1"
     inkscape:current-layer="svg20076" />
  <title
     id="title2">Bresciane</title>
  <defs
     id="defs191" />
  <metadata
     id="metadata193">
    <rdf:RDF>
      <cc:Work
         rdf:about="">
        <dc:format>image/svg+xml</dc:format>
        <dc:type
           rdf:resource="http://purl.org/dc/dcmitype/StillImage" />
        <dc:title>Bresciane</dc:title>
        <dc:date>2020</dc:date>
        <dc:creator>
          <cc:Agent>
            <dc:title>ZZandro</dc:title>
          </cc:Agent>
        </dc:creator>
        <dc:rights>
          <cc:Agent>
            <dc:title />
          </cc:Agent>
        </dc:rights>
        <cc:license
           rdf:resource="http://creativecommons.org/licenses/by-sa/4.0/" />
      </cc:Work>
      <cc:License
         rdf:about="http://creativecommons.org/licenses/by-sa/4.0/">
        <cc:permits
           rdf:resource="http://creativecommons.org/ns#Reproduction" />
        <cc:permits
           rdf:resource="http://creativecommons.org/ns#Distribution" />
        <cc:requires
           rdf:resource="http://creativecommons.org/ns#Notice" />
        <cc:requires
           rdf:resource="http://creativecommons.org/ns#Attribution" />
        <cc:permits
           rdf:resource="http://creativecommons.org/ns#DerivativeWorks" />
        <cc:requires
           rdf:resource="http://creativecommons.org/ns#ShareAlike" />
      </cc:License>
    </rdf:RDF>
  </metadata>
  <g
     transform="translate(-162.85812,-1789.411)"
     id="g6510"
     style="display:inline">
    <g
       transform="matrix(3.5433,0,0,3.5433,-5.8878e-6,1052.3)"
       id="g6508">
      <g
         transform="matrix(0.19177,0,0,0.28132,-144.97,-285.38)"
         fill="#f4f2ef"
         id="g6088">
        <rect
           x="996.13"
           y="1754.4"
           width="223.23"
           height="311.81"
           rx="10.63"
           ry="10.63"
           fill="#f4f2ef"
           stroke="#000000"
           stroke-width="0.99673"
           id="rect6086" />
      </g>
      <g
         transform="matrix(0.15163,0,0,0.25255,-100.5,-230.42)"
         fill="none"
         id="g6092">
        <rect
           x="996.13"
           y="1754.4"
           width="223.23"
           height="311.81"
           rx="10.63"
           ry="10.63"
           fill="none"
           stroke="#000000"
           stroke-width="0.99673"
           id="rect6090" />
      </g>
      <g
         transform="translate(-0.031292,0.021156)"
         id="g6506">
        <g
           transform="matrix(0.28222,0,0,0.28222,45.986,-1.0305)"
           enable-background="new"
           id="g6280">
          <path
             d="m 86.254,798.54 a 130.6,130.6 0 0 0 -2.1172,-1.9726 130.6,130.6 0 0 0 -7.8379,-5.959 130.6,130.6 0 0 0 -10.135,7.9492 118.2,118.2 0 0 1 0.52734,0.32227 118.2,118.2 0 0 1 9.4043,7.1504 118.2,118.2 0 0 1 0.12305,0.11328 118.2,118.2 0 0 1 2.6172,-2.2988 118.2,118.2 0 0 1 7.418,-5.3047 z"
             stroke="#000000"
             stroke-linecap="round"
             stroke-linejoin="round"
             stroke-width="0.99921"
             id="path6094" />
          <path
             d="m 76.041,986.73 a 118.2,118.2 0 0 1 -2.6172,2.2988 118.2,118.2 0 0 1 -7.3887,5.2812 130.6,130.6 0 0 0 10.1,8.0664 130.6,130.6 0 0 0 5.0488,-3.6113 130.6,130.6 0 0 0 5.002,-4.3945 118.2,118.2 0 0 1 -0.61524,-0.37696 118.2,118.2 0 0 1 -9.4062,-7.1504 118.2,118.2 0 0 1 -0.12305,-0.11328 z"
             stroke="#000000"
             stroke-linecap="round"
             stroke-linejoin="round"
             stroke-width="0.99921"
             id="path6096" />
          <g
             stroke="#000000"
             stroke-linecap="round"
             stroke-linejoin="round"
             stroke-width="0.99921"
             id="g6102">
            <path
               d="m 86.254,798.54 a 118.2,118.2 0 0 0 -7.418,5.3047 118.2,118.2 0 0 0 -2.6172,2.2988 118.2,118.2 0 0 1 8.5234,7.9394 118.2,118.2 0 0 1 7.7969,8.877 118.2,118.2 0 0 1 6.873,9.6113 118.2,118.2 0 0 1 5.8789,10.248 118.2,118.2 0 0 1 4.8262,10.785 118.2,118.2 0 0 1 3.7266,11.213 118.2,118.2 0 0 1 2.5859,11.527 118.2,118.2 0 0 1 1.4238,11.729 118.2,118.2 0 0 1 0.29687,8.3613 118.2,118.2 0 0 1 -0.58984,11.801 118.2,118.2 0 0 1 -1.7656,11.684 118.2,118.2 0 0 1 -2.9238,11.447 118.2,118.2 0 0 1 -4.0508,11.1 118.2,118.2 0 0 1 -5.1406,10.639 118.2,118.2 0 0 1 -6.1758,10.072 118.2,118.2 0 0 1 -7.1504,9.4062 118.2,118.2 0 0 1 -8.0527,8.6445 118.2,118.2 0 0 1 -6.2598,5.5 118.2,118.2 0 0 0 0.12305,0.11328 118.2,118.2 0 0 0 9.4062,7.1504 118.2,118.2 0 0 0 0.61524,0.37696 130.6,130.6 0 0 0 4.8066,-4.2227 130.6,130.6 0 0 0 8.8984,-9.5508 130.6,130.6 0 0 0 7.9004,-10.393 130.6,130.6 0 0 0 6.8242,-11.131 130.6,130.6 0 0 0 5.6777,-11.754 130.6,130.6 0 0 0 4.4766,-12.264 130.6,130.6 0 0 0 3.2305,-12.648 130.6,130.6 0 0 0 1.9512,-12.908 130.6,130.6 0 0 0 0.65235,-13.039 130.6,130.6 0 0 0 -0.32813,-9.2383 130.6,130.6 0 0 0 -1.5723,-12.961 130.6,130.6 0 0 0 -2.8594,-12.736 130.6,130.6 0 0 0 -4.1172,-12.391 130.6,130.6 0 0 0 -5.332,-11.916 130.6,130.6 0 0 0 -6.4961,-11.322 130.6,130.6 0 0 0 -7.5938,-10.619 130.6,130.6 0 0 0 -8.6152,-9.8086 130.6,130.6 0 0 0 -7.4355,-6.9258 z"
               fill="#1780ce"
               id="path6098" />
            <path
               d="m 66.164,798.56 a 118.2,118.2 0 0 1 7.418,5.3047 118.2,118.2 0 0 1 2.6172,2.2988 118.2,118.2 0 0 0 -8.5234,7.9394 118.2,118.2 0 0 0 -7.7969,8.877 118.2,118.2 0 0 0 -6.873,9.6113 118.2,118.2 0 0 0 -5.8789,10.248 118.2,118.2 0 0 0 -4.8262,10.785 118.2,118.2 0 0 0 -3.7266,11.213 118.2,118.2 0 0 0 -2.5859,11.527 118.2,118.2 0 0 0 -1.4238,11.729 118.2,118.2 0 0 0 -0.29687,8.3613 118.2,118.2 0 0 0 0.58984,11.801 118.2,118.2 0 0 0 1.7656,11.684 118.2,118.2 0 0 0 2.9238,11.447 118.2,118.2 0 0 0 4.0508,11.1 118.2,118.2 0 0 0 5.1406,10.639 118.2,118.2 0 0 0 6.1758,10.072 118.2,118.2 0 0 0 7.1504,9.4062 118.2,118.2 0 0 0 8.0527,8.6445 118.2,118.2 0 0 0 6.2598,5.5 118.2,118.2 0 0 1 -0.12305,0.11328 118.2,118.2 0 0 1 -9.4062,7.1504 118.2,118.2 0 0 1 -0.61523,0.37696 130.6,130.6 0 0 1 -4.8066,-4.2227 130.6,130.6 0 0 1 -8.8984,-9.5508 130.6,130.6 0 0 1 -7.9004,-10.393 130.6,130.6 0 0 1 -6.8242,-11.131 130.6,130.6 0 0 1 -5.6777,-11.754 130.6,130.6 0 0 1 -4.4766,-12.264 130.6,130.6 0 0 1 -3.2305,-12.648 130.6,130.6 0 0 1 -1.9512,-12.908 130.6,130.6 0 0 1 -0.65235,-13.039 130.6,130.6 0 0 1 0.32813,-9.2383 130.6,130.6 0 0 1 1.5723,-12.961 130.6,130.6 0 0 1 2.8594,-12.736 130.6,130.6 0 0 1 4.1172,-12.391 130.6,130.6 0 0 1 5.332,-11.916 130.6,130.6 0 0 1 6.4961,-11.322 130.6,130.6 0 0 1 7.5937,-10.619 130.6,130.6 0 0 1 8.6152,-9.8086 130.6,130.6 0 0 1 7.4356,-6.9258 z"
               fill="#dd1d1d"
               id="path6100" />
          </g>
          <path
             d="M 45.5,846.16 34.101,841.1727"
             fill="none"
             stroke="#000000"
             stroke-width="1px"
             id="path6104" />
          <path
             d="m 32.75,948.79 11.412,-4.9928"
             fill="none"
             stroke="#000000"
             stroke-width="1px"
             id="path6106" />
          <path
             d="m 45.504,946.75 -11.416,4.9946"
             fill="none"
             stroke="#000000"
             stroke-width="1px"
             id="path6108" />
          <path
             d="m 32.762,844.13 11.397,4.986"
             fill="none"
             stroke="#000000"
             stroke-width="1px"
             id="path6110" />
          <path
             d="m 44.159,849.12 -14.269,2.1459 9.4592,10.901 -13.923,3.8068 10.68,9.715 -13.384,5.4159 11.75,8.3926 -12.659,6.9513 12.657,6.9533 -11.756,8.3913 13.388,5.4174 -10.69,9.7153 13.933,3.806 -9.4753,10.905 14.29,2.1591"
             fill="none"
             stroke="#000000"
             stroke-linecap="round"
             stroke-linejoin="round"
             stroke-width="1px"
             id="path6112" />
          <path
             d="m 106.93,846.16 11.399,-4.9873"
             fill="none"
             stroke="#000000"
             stroke-width="1px"
             id="path6114" />
          <path
             d="m 119.68,948.79 -11.412,-4.9928"
             fill="none"
             stroke="#000000"
             stroke-width="1px"
             id="path6116" />
          <path
             d="m 106.92,946.75 11.416,4.9946"
             fill="none"
             stroke="#000000"
             stroke-width="1px"
             id="path6118" />
          <path
             d="m 119.66,844.13 -11.397,4.986"
             fill="none"
             stroke="#000000"
             stroke-width="1px"
             id="path6120" />
          <path
             d="m 108.27,849.12 14.269,2.1459 -9.4592,10.901 13.923,3.8068 -10.68,9.715 13.384,5.4159 -11.75,8.3926 12.659,6.9513 -12.657,6.9533 11.756,8.3913 -13.388,5.4174 10.69,9.7153 -13.933,3.806 9.4753,10.905 -14.29,2.1591"
             fill="none"
             stroke="#000000"
             stroke-linecap="round"
             stroke-linejoin="round"
             stroke-width="0.99921"
             id="path6122" />
          <g
             fill="none"
             stroke="#e9c13a"
             stroke-linecap="round"
             stroke-linejoin="round"
             stroke-width="1px"
             id="g6132">
            <path
               d="m 76.182,792.67 c -1.0956,1.8525 -0.81204,3.7658 0,5.7012 z m 0.02734,0 v 5.7012 c 0.81204,-1.9354 1.0956,-3.8487 0,-5.7012 z"
               id="path6124" />
            <path
               d="m 76.181,804.08 c -1.0956,-1.8525 -0.81204,-3.7658 0,-5.7012 z m 0.02734,0 v -5.7012 c 0.81204,1.9354 1.0956,3.8487 0,5.7012 z"
               id="path6126" />
            <path
               d="m 81.91,798.35 c -1.8525,-1.0956 -3.7658,-0.81203 -5.7012,0 z m 0,0.0273 h -5.7012 c 1.9354,0.81203 3.8487,1.0956 5.7012,0 z"
               id="path6128" />
            <path
               d="m 70.48,798.38 c 1.8525,-1.0956 3.7658,-0.81203 5.7012,0 z m 0,0.0273 h 5.7012 c -1.9354,0.81203 -3.8487,1.0956 -5.7012,0 z"
               id="path6130" />
          </g>
          <g
             transform="translate(0.023705,196.3)"
             fill="none"
             stroke="#e9c13a"
             stroke-linecap="round"
             stroke-linejoin="round"
             stroke-width="1px"
             id="g6142">
            <path
               d="m 76.182,792.67 c -1.0956,1.8525 -0.81204,3.7658 0,5.7012 z m 0.02734,0 v 5.7012 c 0.81204,-1.9354 1.0956,-3.8487 0,-5.7012 z"
               id="path6134" />
            <path
               d="m 76.181,804.08 c -1.0956,-1.8525 -0.81204,-3.7658 0,-5.7012 z m 0.02734,0 v -5.7012 c 0.81204,1.9354 1.0956,3.8487 0,5.7012 z"
               id="path6136" />
            <path
               d="m 81.91,798.35 c -1.8525,-1.0956 -3.7658,-0.81203 -5.7012,0 z m 0,0.0273 h -5.7012 c 1.9354,0.81203 3.8487,1.0956 5.7012,0 z"
               id="path6138" />
            <path
               d="m 70.48,798.38 c 1.8525,-1.0956 3.7658,-0.81203 5.7012,0 z m 0,0.0273 h 5.7012 c -1.9354,0.81203 -3.8487,1.0956 -5.7012,0 z"
               id="path6140" />
          </g>
          <path
             d="m 127.76,1012.2 c -14.831,-3.185 -28.911,-9.1951 -41.471,-17.702 v 0 l -10.009,8.1352 v 0 c 7.1783,5.1669 14.863,9.5912 22.936,13.205 5.2017,1.4536 9.8104,1.5233 14.313,1.3461 9.3422,-1.2934 10.205,-3.2651 14.231,-4.9838"
             fill="#dd1d1d"
             stroke="#000000"
             stroke-linecap="round"
             stroke-linejoin="round"
             stroke-width="0.99921"
             id="path6144" />
          <path
             d="m 24.702,780.81 c 14.831,3.185 28.911,9.1951 41.471,17.702 v 0 l 10.009,-8.1352 v 0 c -7.1783,-5.1669 -14.863,-9.5912 -22.936,-13.205 -5.2017,-1.4536 -9.8104,-1.5233 -14.313,-1.3461 -9.3422,1.2934 -10.205,3.2651 -14.231,4.9838"
             fill="#1780ce"
             stroke="#000000"
             stroke-linecap="round"
             stroke-linejoin="round"
             stroke-width="0.99921"
             id="path6146" />
          <g
             stroke="#000000"
             stroke-linecap="round"
             stroke-linejoin="round"
             stroke-width="0.99921"
             id="g6152">
            <path
               d="m 86.254,798.54 a 118.2,118.2 0 0 0 -7.418,5.3047 118.2,118.2 0 0 0 -2.6172,2.2988 118.2,118.2 0 0 1 8.5234,7.9394 118.2,118.2 0 0 1 7.7969,8.877 118.2,118.2 0 0 1 6.873,9.6113 118.2,118.2 0 0 1 5.8789,10.248 118.2,118.2 0 0 1 4.8262,10.785 118.2,118.2 0 0 1 3.7266,11.213 118.2,118.2 0 0 1 2.5859,11.527 118.2,118.2 0 0 1 1.4238,11.729 118.2,118.2 0 0 1 0.29687,8.3613 118.2,118.2 0 0 1 -0.58984,11.801 118.2,118.2 0 0 1 -1.7656,11.684 118.2,118.2 0 0 1 -2.9238,11.447 118.2,118.2 0 0 1 -4.0508,11.1 118.2,118.2 0 0 1 -5.1406,10.639 118.2,118.2 0 0 1 -6.1758,10.072 118.2,118.2 0 0 1 -7.1504,9.4062 118.2,118.2 0 0 1 -8.0527,8.6445 118.2,118.2 0 0 1 -6.2598,5.5 118.2,118.2 0 0 0 0.12305,0.11328 118.2,118.2 0 0 0 9.4062,7.1504 118.2,118.2 0 0 0 0.61524,0.37696 130.6,130.6 0 0 0 4.8066,-4.2227 130.6,130.6 0 0 0 8.8984,-9.5508 130.6,130.6 0 0 0 7.9004,-10.393 130.6,130.6 0 0 0 6.8242,-11.131 130.6,130.6 0 0 0 5.6777,-11.754 130.6,130.6 0 0 0 4.4766,-12.264 130.6,130.6 0 0 0 3.2305,-12.648 130.6,130.6 0 0 0 1.9512,-12.908 130.6,130.6 0 0 0 0.65235,-13.039 130.6,130.6 0 0 0 -0.32813,-9.2383 130.6,130.6 0 0 0 -1.5723,-12.961 130.6,130.6 0 0 0 -2.8594,-12.736 130.6,130.6 0 0 0 -4.1172,-12.391 130.6,130.6 0 0 0 -5.332,-11.916 130.6,130.6 0 0 0 -6.4961,-11.322 130.6,130.6 0 0 0 -7.5938,-10.619 130.6,130.6 0 0 0 -8.6152,-9.8086 130.6,130.6 0 0 0 -7.4355,-6.9258 z"
               fill="#1780ce"
               id="path6148" />
            <path
               d="m 66.164,798.56 a 118.2,118.2 0 0 1 7.418,5.3047 118.2,118.2 0 0 1 2.6172,2.2988 118.2,118.2 0 0 0 -8.5234,7.9394 118.2,118.2 0 0 0 -7.7969,8.877 118.2,118.2 0 0 0 -6.873,9.6113 118.2,118.2 0 0 0 -5.8789,10.248 118.2,118.2 0 0 0 -4.8262,10.785 118.2,118.2 0 0 0 -3.7266,11.213 118.2,118.2 0 0 0 -2.5859,11.527 118.2,118.2 0 0 0 -1.4238,11.729 118.2,118.2 0 0 0 -0.29687,8.3613 118.2,118.2 0 0 0 0.58984,11.801 118.2,118.2 0 0 0 1.7656,11.684 118.2,118.2 0 0 0 2.9238,11.447 118.2,118.2 0 0 0 4.0508,11.1 118.2,118.2 0 0 0 5.1406,10.639 118.2,118.2 0 0 0 6.1758,10.072 118.2,118.2 0 0 0 7.1504,9.4062 118.2,118.2 0 0 0 8.0527,8.6445 118.2,118.2 0 0 0 6.2598,5.5 118.2,118.2 0 0 1 -0.12305,0.11328 118.2,118.2 0 0 1 -9.4062,7.1504 118.2,118.2 0 0 1 -0.61523,0.37696 130.6,130.6 0 0 1 -4.8066,-4.2227 130.6,130.6 0 0 1 -8.8984,-9.5508 130.6,130.6 0 0 1 -7.9004,-10.393 130.6,130.6 0 0 1 -6.8242,-11.131 130.6,130.6 0 0 1 -5.6777,-11.754 130.6,130.6 0 0 1 -4.4766,-12.264 130.6,130.6 0 0 1 -3.2305,-12.648 130.6,130.6 0 0 1 -1.9512,-12.908 130.6,130.6 0 0 1 -0.65235,-13.039 130.6,130.6 0 0 1 0.32813,-9.2383 130.6,130.6 0 0 1 1.5723,-12.961 130.6,130.6 0 0 1 2.8594,-12.736 130.6,130.6 0 0 1 4.1172,-12.391 130.6,130.6 0 0 1 5.332,-11.916 130.6,130.6 0 0 1 6.4961,-11.322 130.6,130.6 0 0 1 7.5937,-10.619 130.6,130.6 0 0 1 8.6152,-9.8086 130.6,130.6 0 0 1 7.4356,-6.9258 z"
               fill="#dd1d1d"
               id="path6150" />
          </g>
          <path
             d="M 45.5,846.16 34.101,841.1727"
             fill="none"
             stroke="#000000"
             stroke-width="1px"
             id="path6154" />
          <path
             d="m 32.75,948.79 11.412,-4.9928"
             fill="none"
             stroke="#000000"
             stroke-width="1px"
             id="path6156" />
          <path
             d="m 45.504,946.75 -11.416,4.9946"
             fill="none"
             stroke="#000000"
             stroke-width="1px"
             id="path6158" />
          <path
             d="m 32.762,844.13 11.397,4.986"
             fill="none"
             stroke="#000000"
             stroke-width="1px"
             id="path6160" />
          <path
             d="m 44.159,849.12 -14.269,2.1459 9.4592,10.901 -13.923,3.8068 10.68,9.715 -13.384,5.4159 11.75,8.3926 -12.659,6.9513 12.657,6.9533 -11.756,8.3913 13.388,5.4174 -10.69,9.7153 13.933,3.806 -9.4753,10.905 14.29,2.1591"
             fill="none"
             stroke="#000000"
             stroke-linecap="round"
             stroke-linejoin="round"
             stroke-width="1px"
             id="path6162" />
          <path
             d="m 106.93,846.16 11.399,-4.9873"
             fill="none"
             stroke="#000000"
             stroke-width="1px"
             id="path6164" />
          <path
             d="m 119.68,948.79 -11.412,-4.9928"
             fill="none"
             stroke="#000000"
             stroke-width="1px"
             id="path6166" />
          <path
             d="m 106.92,946.75 11.416,4.9946"
             fill="none"
             stroke="#000000"
             stroke-width="1px"
             id="path6168" />
          <path
             d="m 127.76,1012.2 c -14.831,-3.185 -28.911,-9.1951 -41.471,-17.702 v 0 l -10.009,8.1352 v 0 c 7.1783,5.1669 14.863,9.5912 22.936,13.205 5.2017,1.4536 9.8104,1.5233 14.313,1.3461 9.3422,-1.2934 10.205,-3.2651 14.231,-4.9838"
             fill="#dd1d1d"
             stroke="#000000"
             stroke-linecap="round"
             stroke-linejoin="round"
             stroke-width="0.99921"
             id="path6170" />
          <path
             d="m 119.66,844.13 -11.397,4.986"
             fill="none"
             stroke="#000000"
             stroke-width="1px"
             id="path6172" />
          <path
             d="m 24.702,780.81 c 14.831,3.185 28.911,9.1951 41.471,17.702 v 0 l 10.009,-8.1352 v 0 c -7.1783,-5.1669 -14.863,-9.5912 -22.936,-13.205 -5.2017,-1.4536 -9.8104,-1.5233 -14.313,-1.3461 -9.3422,1.2934 -10.205,3.2651 -14.231,4.9838"
             fill="#1780ce"
             stroke="#000000"
             stroke-linecap="round"
             stroke-linejoin="round"
             stroke-width="0.99921"
             id="path6174" />
          <path
             d="m 108.27,849.12 14.269,2.1459 -9.4592,10.901 13.923,3.8068 -10.68,9.715 13.384,5.4159 -11.75,8.3926 12.659,6.9513 -12.657,6.9533 11.756,8.3913 -13.388,5.4174 10.69,9.7153 -13.933,3.806 9.4753,10.905 -14.29,2.1591"
             fill="none"
             stroke="#000000"
             stroke-linecap="round"
             stroke-linejoin="round"
             stroke-width="0.99921"
             id="path6176" />
          <g
             stroke="#000000"
             id="g6258">
            <path
               d="m 76.181,790.37 10.123,8.0623 16.541,-11.59 -10.126,-8.0615 z"
               fill="#dd1d1d"
               fill-rule="evenodd"
               stroke-width="1px"
               id="path6178" />
            <path
               d="m 81.137,794.28 47.331,-33.511"
               fill="none"
               stroke-width="1px"
               id="path6180" />
            <ellipse
               transform="matrix(0.56334,0.82623,-0.8263,0.56323,0,0)"
               cx="701.54999"
               cy="332.56"
               rx="6.9699001"
               ry="10.076"
               fill="#1780ce"
               stroke-linecap="round"
               stroke-linejoin="round"
               stroke-width="0.99921"
               id="ellipse6182" />
            <ellipse
               transform="matrix(0.56334,0.82623,-0.8263,0.56323,0,0)"
               cx="701.54999"
               cy="332.56"
               rx="4.9102998"
               ry="10.076"
               fill="none"
               stroke-linecap="round"
               stroke-linejoin="round"
               stroke-width="0.99921"
               id="ellipse6184" />
            <ellipse
               transform="matrix(0.56334,0.82623,-0.8263,0.56323,0,0)"
               cx="701.54999"
               cy="332.56"
               rx="2.6451001"
               ry="10.076"
               fill="none"
               stroke-linecap="round"
               stroke-linejoin="round"
               stroke-width="0.99921"
               id="ellipse6186" />
            <path
               d="m 128.74,761.27 -16.651,11.35"
               fill="none"
               stroke-width="1px"
               id="path6188" />
            <ellipse
               transform="matrix(0.56334,0.82623,-0.8263,0.56323,0,0)"
               cx="701.54999"
               cy="320.39001"
               rx="1.7424999"
               ry="1.7426"
               stroke-linecap="round"
               stroke-linejoin="round"
               stroke-width="0.99921"
               id="ellipse6190" />
            <path
               d="m 84.565,784.83 -3.4272,9.4481 13.223,-1.4876 -9.7958,-7.9605"
               fill-rule="evenodd"
               stroke-linecap="round"
               stroke-linejoin="round"
               stroke-width="1px"
               id="path6192" />
            <g
               transform="rotate(53.965,308.16,769.41)"
               opacity="0.97"
               stroke-linecap="round"
               stroke-linejoin="round"
               id="g6216">
              <ellipse
                 transform="matrix(-0.99843,-0.055947,0,1,0,0)"
                 cx="-195.19"
                 cy="930.78003"
                 rx="6.6971998"
                 ry="13.217"
                 fill="#dd1d1d"
                 opacity="1"
                 stroke-width="0.97068"
                 id="ellipse6194" />
              <path
                 d="m 191.5,930.12 6.4391,6e-5"
                 fill="none"
                 stroke-width="0.64488"
                 id="path6196" />
              <path
                 d="m 190.01,932.37 9.4728,3.3e-4"
                 fill="none"
                 stroke-width="0.64488"
                 id="path6198" />
              <path
                 d="m 189.13,934.63 11.295,2e-5"
                 fill="none"
                 stroke-width="0.64488"
                 id="path6200" />
              <path
                 d="m 188.59,936.89 12.45,-2.8e-4"
                 fill="none"
                 stroke-width="0.64488"
                 id="path6202" />
              <path
                 d="m 188.29,939.15 13.116,7e-5"
                 fill="none"
                 stroke-width="0.64488"
                 id="path6204" />
              <path
                 d="m 188.2,941.4 13.365,10e-6"
                 fill="none"
                 stroke-width="0.64488"
                 id="path6206" />
              <path
                 d="m 188.3,943.66 13.221,-5e-5"
                 fill="none"
                 stroke-width="0.64488"
                 id="path6208" />
              <path
                 d="m 188.61,945.92 12.671,-2.3e-4"
                 fill="none"
                 stroke-width="0.64488"
                 id="path6210" />
              <path
                 d="m 189.15,948.18 11.657,4e-4"
                 fill="none"
                 stroke-width="0.64488"
                 id="path6212" />
              <path
                 d="m 189.99,950.43 10.04,-1.9e-4"
                 fill="none"
                 stroke-width="0.64488"
                 id="path6214" />
            </g>
            <path
               d="m 76.278,1002.6 -10.123,-8.0623 -16.541,11.59 10.126,8.0615 z"
               fill="#1780ce"
               fill-rule="evenodd"
               stroke-width="1px"
               id="path6218" />
            <path
               d="m 71.322,998.7 -46.078,32.624 -1.2533,0.8873"
               fill="none"
               stroke-width="1px"
               id="path6220" />
            <ellipse
               transform="matrix(-0.56334,-0.82623,0.8263,-0.56323,0,0)"
               cx="-865.85999"
               cy="-551.53003"
               rx="6.9699001"
               ry="10.076"
               fill="#dd1d1d"
               stroke-linecap="round"
               stroke-linejoin="round"
               stroke-width="0.99921"
               id="ellipse6222" />
            <ellipse
               transform="matrix(-0.56334,-0.82623,0.8263,-0.56323,0,0)"
               cx="-865.85999"
               cy="-551.53003"
               rx="4.9102998"
               ry="10.076"
               fill="none"
               stroke-linecap="round"
               stroke-linejoin="round"
               stroke-width="0.99921"
               id="ellipse6224" />
            <ellipse
               transform="matrix(-0.56334,-0.82623,0.8263,-0.56323,0,0)"
               cx="-865.85999"
               cy="-551.53003"
               rx="2.6451001"
               ry="10.076"
               fill="none"
               stroke-linecap="round"
               stroke-linejoin="round"
               stroke-width="0.99921"
               id="ellipse6226" />
            <path
               d="m 23.718,1031.7 16.651,-11.35"
               fill="none"
               stroke-width="1px"
               id="path6228" />
            <ellipse
               transform="matrix(-0.56334,-0.82623,0.8263,-0.56323,0,0)"
               cx="-865.85999"
               cy="-563.70001"
               rx="1.7424999"
               ry="1.7426"
               stroke-linecap="round"
               stroke-linejoin="round"
               stroke-width="0.99921"
               id="ellipse6230" />
            <path
               d="m 67.894,1008.2 3.4272,-9.4481 -13.223,1.4876 9.7958,7.9605"
               fill-rule="evenodd"
               stroke-linecap="round"
               stroke-linejoin="round"
               stroke-width="1px"
               id="path6232" />
            <g
               transform="rotate(-126.03,140.93,1014.6)"
               fill="#1780ce"
               opacity="0.97"
               stroke-linecap="round"
               stroke-linejoin="round"
               id="g6256">
              <ellipse
                 transform="matrix(-0.99843,-0.055947,0,1,0,0)"
                 cx="-195.19"
                 cy="930.78003"
                 rx="6.6971998"
                 ry="13.217"
                 opacity="1"
                 stroke-width="0.97068"
                 id="ellipse6234" />
              <path
                 d="m 191.5,930.12 6.4391,6e-5"
                 fill-rule="evenodd"
                 stroke-width="0.64488"
                 id="path6236" />
              <path
                 d="m 190.01,932.37 9.4728,3.3e-4"
                 fill-rule="evenodd"
                 stroke-width="0.64488"
                 id="path6238" />
              <path
                 d="m 189.13,934.63 11.295,2e-5"
                 fill-rule="evenodd"
                 stroke-width="0.64488"
                 id="path6240" />
              <path
                 d="m 188.59,936.89 12.45,-2.8e-4"
                 fill-rule="evenodd"
                 stroke-width="0.64488"
                 id="path6242" />
              <path
                 d="m 188.29,939.15 13.116,7e-5"
                 fill-rule="evenodd"
                 stroke-width="0.64488"
                 id="path6244" />
              <path
                 d="m 188.2,941.4 13.365,10e-6"
                 fill-rule="evenodd"
                 stroke-width="0.64488"
                 id="path6246" />
              <path
                 d="m 188.3,943.66 13.221,-5e-5"
                 fill-rule="evenodd"
                 stroke-width="0.64488"
                 id="path6248" />
              <path
                 d="m 188.61,945.92 12.671,-2.3e-4"
                 fill-rule="evenodd"
                 stroke-width="0.64488"
                 id="path6250" />
              <path
                 d="m 189.15,948.18 11.657,4e-4"
                 fill-rule="evenodd"
                 stroke-width="0.64488"
                 id="path6252" />
              <path
                 d="m 189.99,950.43 10.04,-1.9e-4"
                 fill-rule="evenodd"
                 stroke-width="0.64488"
                 id="path6254" />
            </g>
          </g>
          <g
             stroke-linejoin="round"
             stroke-width="0.99921"
             id="g6268">
            <path
               d="m 79.138,1033.6 c 3.4253,-4.6295 8.3533,-8.1968 15.947,-10.154 l 3.5625,-0.92 -3.4121,-1.3711 c -7.3769,-2.967 -14.762,-6.1009 -20.19,-9.6034 -5.4282,-3.5025 -7.9206,-5.2094 -10.551,-7.1565 -2.2787,-1.6871 -4.6606,-3.5549 -7.1735,-5.6483 -10.887,-10.444 -11.177,-14.421 -15.992,-21.355 l -1.5801,-2.2754 -0.5918,2.707 c -1.7002,7.7741 -4.7164,14.682 -10.678,20.043 l -1.418,1.2754 1.7598,0.73632 c 6.2357,2.61278 7.9113,2.30868 18.803,7.99018 3.9137,2.2373 7.3236,3.8491 12.674,8.6758 h 0.0118 c 4.0696,3.5898 8.0765,7.1284 16.953,17.133 l 0.99022,1.1132 z"
               color="#000000"
               color-rendering="auto"
               enable-background="accumulate"
               fill="#e9c13a"
               fill-rule="evenodd"
               image-rendering="auto"
               shape-rendering="auto"
               solid-color="#000000"
               stroke="#000000"
               style="text-indent:0;text-decoration-line:none;text-decoration-style:solid;text-decoration-color:#000000;text-transform:none;white-space:normal;isolation:auto;mix-blend-mode:normal"
               id="path6260" />
            <path
               d="m 78.144,1031.1 c -8.1272,-9.0759 -12.34,-12.912 -16.227,-16.34 -5.5442,-5.0017 -9.2836,-6.7998 -13.113,-8.9902 l -0.0215,-0.012 -0.0195,-0.012 c -9.8582,-5.1445 -12.636,-5.6561 -17.375,-7.4805 4.8095,-4.8738 7.6542,-10.77 9.373,-17.164 3.3528,5.4396 5.164,10.083 14.914,19.43 l 0.03125,0.029 0.03125,0.025 c 5.5015,4.5857 10.406,8.1131 14.969,11.047 h 0.002 c 7.5371,4.8672 14.215,7.8372 20.725,10.518 -5.7796,2.0162 -10.099,5.0807 -13.254,8.9046 -0.0117,0.014 -0.03512,0.043 -0.03512,0.043 z"
               color="#000000"
               color-rendering="auto"
               enable-background="accumulate"
               fill-rule="evenodd"
               image-rendering="auto"
               shape-rendering="auto"
               solid-color="#000000"
               stroke="#e9c13a"
               style="text-indent:0;text-decoration-line:none;text-decoration-style:solid;text-decoration-color:#000000;text-transform:none;white-space:normal;isolation:auto;mix-blend-mode:normal"
               id="path6262" />
            <circle
               transform="scale(-1)"
               cx="-88.165001"
               cy="-1029.7"
               stroke="#000000"
               stroke-linecap="round"
               id="ellipse6264"
               r="3.0437" />
            <circle
               transform="scale(-1)"
               cx="-32.536999"
               cy="-987.54999"
               stroke="#000000"
               stroke-linecap="round"
               id="ellipse6266"
               r="3.0437" />
          </g>
          <g
             stroke-linejoin="round"
             stroke-width="0.99921"
             id="g6278">
            <path
               transform="translate(3.3848,3.9099)"
               d="m 73.275,759.43 c -3.4253,4.6295 -8.3533,8.1968 -15.947,10.154 l -3.5625,0.91992 3.4121,1.3711 c 7.3769,2.967 14.762,6.101 20.19,9.6034 5.4282,3.5025 7.9206,5.2098 10.551,7.157 2.2787,1.6871 4.6606,3.5544 7.1735,5.6478 10.887,10.444 11.177,14.421 15.992,21.355 l 1.5801,2.2754 0.5918,-2.707 c 1.7002,-7.7741 4.7164,-14.682 10.678,-20.043 l 1.418,-1.2754 -1.7598,-0.73632 c -6.2357,-2.6129 -7.9113,-2.3087 -18.803,-7.9902 -3.9137,-2.2373 -7.3236,-3.8491 -12.674,-8.6758 l -0.0118,-0.008 c -4.0696,-3.5899 -8.0765,-7.1284 -16.953,-17.133 l -0.99022,-1.1132 z"
               color="#000000"
               color-rendering="auto"
               enable-background="accumulate"
               fill="#e9c13a"
               fill-rule="evenodd"
               image-rendering="auto"
               shape-rendering="auto"
               solid-color="#000000"
               stroke="#000000"
               style="text-indent:0;text-decoration-line:none;text-decoration-style:solid;text-decoration-color:#000000;text-transform:none;white-space:normal;isolation:auto;mix-blend-mode:normal"
               id="path6270" />
            <path
               transform="translate(3.3848,3.9099)"
               d="m 74.27,761.94 c 8.1272,9.076 12.34,12.912 16.227,16.34 5.5442,5.0017 9.2836,6.7998 13.113,8.9902 l 0.0215,0.0117 0.0195,0.0117 c 9.8582,5.1444 12.636,5.6561 17.375,7.4805 -4.8095,4.8738 -7.6542,10.77 -9.373,17.164 -3.3528,-5.4396 -5.164,-10.083 -14.914,-19.43 l -0.03125,-0.0293 -0.03125,-0.0254 c -5.5015,-4.5857 -10.406,-8.1131 -14.969,-11.047 l -0.002,-0.002 c -7.5371,-4.8672 -14.215,-7.8372 -20.725,-10.518 5.7796,-2.0162 10.099,-5.0808 13.254,-8.9047 0.0117,-0.0142 0.03512,-0.0425 0.03512,-0.0425 z"
               color="#000000"
               color-rendering="auto"
               enable-background="accumulate"
               fill-rule="evenodd"
               image-rendering="auto"
               shape-rendering="auto"
               solid-color="#000000"
               stroke="#e9c13a"
               style="text-indent:0;text-decoration-line:none;text-decoration-style:solid;text-decoration-color:#000000;text-transform:none;white-space:normal;isolation:auto;mix-blend-mode:normal"
               id="path6272" />
            <circle
               cx="67.633003"
               cy="767.27002"
               stroke="#000000"
               stroke-linecap="round"
               id="ellipse6274"
               r="3.0437" />
            <circle
               cx="123.26"
               cy="809.38"
               stroke="#000000"
               stroke-linecap="round"
               id="ellipse6276"
               r="3.0437" />
          </g>
        </g>
        <g
           transform="matrix(0.28222,0,0,0.28222,45.999,-1.0305)"
           fill-rule="evenodd"
           stroke="#000000"
           stroke-linejoin="round"
           stroke-width="1px"
           id="g6286">
          <path
             d="m 68.665,833.11 c 2.5197,-1.3545 5.0875,-1.6428 7.5165,-5.011 2.429,3.3681 4.9968,3.6565 7.5165,5.011 -1.3545,-2.5197 -1.6429,-5.0875 -5.011,-7.5165 3.3681,-2.429 3.6565,-4.9968 5.011,-7.5165 -2.5197,1.3545 -5.0875,1.6429 -7.5165,5.011 -2.429,-3.3681 -4.9968,-3.6565 -7.5165,-5.011 1.3545,2.5197 1.6429,5.0875 5.011,7.5165 -3.3681,2.429 -3.6565,4.9967 -5.011,7.5165 z"
             id="path6282" />
          <path
             d="m 76.181,836.22 c 0.82397,-2.7395 2.4358,-4.7591 1.7716,-8.8583 4.0992,0.6641 6.1188,-0.94768 8.8583,-1.7716 -2.7395,-0.82397 -4.7591,-2.4358 -8.8583,-1.7716 0.6641,-4.0992 -0.94768,-6.1188 -1.7716,-8.8583 -0.82397,2.7395 -2.4358,4.7591 -1.7716,8.8583 -4.0992,-0.6641 -6.1188,0.94768 -8.8583,1.7716 2.7395,0.82398 4.7591,2.4358 8.8583,1.7717 -0.6641,4.0992 0.94768,6.1188 1.7716,8.8582 z"
             fill="#1780ce"
             id="path6284" />
        </g>
        <g
           transform="matrix(0.28222,0,0,0.28222,45.999,35.47)"
           fill-rule="evenodd"
           stroke="#000000"
           stroke-linejoin="round"
           stroke-width="1px"
           id="g6292">
          <path
             d="m 68.665,833.11 c 2.5197,-1.3545 5.0875,-1.6428 7.5165,-5.011 2.429,3.3681 4.9968,3.6565 7.5165,5.011 -1.3545,-2.5197 -1.6429,-5.0875 -5.011,-7.5165 3.3681,-2.429 3.6565,-4.9968 5.011,-7.5165 -2.5197,1.3545 -5.0875,1.6429 -7.5165,5.011 -2.429,-3.3681 -4.9968,-3.6565 -7.5165,-5.011 1.3545,2.5197 1.6429,5.0875 5.011,7.5165 -3.3681,2.429 -3.6565,4.9967 -5.011,7.5165 z"
             id="path6288" />
          <path
             d="m 76.181,836.22 c 0.82397,-2.7395 2.4358,-4.7591 1.7716,-8.8583 4.0992,0.6641 6.1188,-0.94768 8.8583,-1.7716 -2.7395,-0.82397 -4.7591,-2.4358 -8.8583,-1.7716 0.6641,-4.0992 -0.94768,-6.1188 -1.7716,-8.8583 -0.82397,2.7395 -2.4358,4.7591 -1.7716,8.8583 -4.0992,-0.6641 -6.1188,0.94768 -8.8583,1.7716 2.7395,0.82398 4.7591,2.4358 8.8583,1.7717 -0.6641,4.0992 0.94768,6.1188 1.7716,8.8582 z"
             fill="#dd1d1d"
             id="path6290" />
        </g>
        <g
           transform="matrix(0.16762,0,0,0.13189,31.514,141.18)"
           fill="#e9c13a"
           stroke="#000000"
           stroke-width="1.0858"
           id="g6316">
          <g
             transform="matrix(1.2147,0,0,1.2069,-45.996,-161.66)"
             id="g6312">
            <path
               d="m 214.59,784.64 v -5.63"
               fill="#e9c13a"
               fill-rule="evenodd"
               stroke-linecap="round"
               stroke-width="1.011"
               id="path6294" />
            <path
               d="m 212.09,781.01 h 5"
               fill="#e9c13a"
               fill-rule="evenodd"
               stroke-linecap="round"
               stroke-width="1.011"
               id="path6296" />
            <path
               d="m 214.59,798.01 c 0,0 4.5,-7.5 3,-10.5 0,0 -1,-2.5 -3,-2.5 -2,0 -3,2.5 -3,2.5 -1.5,3 3,10.5 3,10.5"
               fill="#e9c13a"
               fill-rule="evenodd"
               stroke-width="1.011"
               id="path6298" />
            <path
               d="m 203.59,810.01 c 5.5,3.5 15.5,3.5 21,0 v -7 c 0,0 9,-4.5 6,-10.5 -4,-6.5 -13.5,-3.5 -16,4 v 3.5 -3.5 c -3.5,-7.5 -13,-10.5 -16,-4 -3,6 5,10 5,10 z"
               fill="#e9c13a"
               fill-rule="evenodd"
               stroke-linecap="round"
               stroke-linejoin="round"
               stroke-width="1.011"
               id="path6300" />
            <path
               d="m 208.47,791.75 c -2.3898,-0.66142 -4.7324,9.1e-4 -5.857,2.4577 -2.2492,4.5355 5.2493,7.2326 5.2493,7.2326 1.6024,-0.52359 4.0753,-0.74357 6.3397,-0.74357 2.2644,0 4.3516,0.44578 6.1279,0.7431 0.54074,0.11464 8.5253,-2.6966 6.2761,-7.2321 -2.999,-4.9134 -10.124,-2.6455 -11.998,3.0238 -1.312,-2.8347 -3.7478,-4.8201 -6.1376,-5.4815 z"
               fill="#e9c13a"
               fill-rule="evenodd"
               stroke-linecap="round"
               stroke-linejoin="round"
               stroke-width="1.011"
               id="path6302" />
            <path
               d="m 203.59,803.01 c 5.5,-3 15.5,-3 21,0"
               fill="none"
               stroke-linecap="round"
               stroke-linejoin="round"
               stroke-width="1.011"
               id="path6304" />
            <path
               d="m 203.59,806.51 c 5.5,-3 15.5,-3 21,0"
               fill="none"
               stroke-linecap="round"
               stroke-linejoin="round"
               stroke-width="1.011"
               id="path6306" />
            <path
               d="m 203.59,810.01 c 5.5,-3 15.5,-3 21,0"
               fill="#e9c13a"
               fill-rule="evenodd"
               stroke-linecap="round"
               stroke-linejoin="round"
               stroke-width="1.011"
               id="path6308" />
            <path
               d="m 210.82,795.15 c -1.4703,-0.38402 -2.9115,6e-4 -3.6034,1.4269 -1.3838,2.6332 3.2717,4.3245 3.2717,4.3245 0.96403,-0.063 2.3552,-0.19354 3.7483,-0.19354 1.3931,0 2.7867,0.13047 3.8796,0.30308 0.33268,0.0666 5.2454,-1.8008 3.8617,-4.434 -1.8451,-2.8527 -6.2286,-1.536 -7.3818,1.7556 -0.80721,-1.6458 -2.3058,-2.7985 -3.776,-3.1825 z"
               fill="#e9c13a"
               fill-rule="evenodd"
               stroke-linecap="round"
               stroke-linejoin="round"
               stroke-width="1.011"
               id="path6310" />
          </g>
          <path
             transform="matrix(1.6837,0,0,2.1398,85.507,-1078)"
             d="m 75.033,926.31 c -0.40716,2.0526 -0.02412,3.9685 -1.1375,5.668 1.7015,-0.91009 1.8251,0.32233 2.8231,2.3438 0.99798,-2.0214 1.1234,-3.2538 2.825,-2.3438 -1.1134,-1.6995 -0.7303,-3.6154 -1.1375,-5.668 l -1.6875,0.0117 z"
             fill="#000000"
             fill-rule="evenodd"
             stroke-linecap="round"
             stroke-linejoin="round"
             stroke-width="1px"
             id="path6314" />
        </g>
        <g
           transform="translate(-6.45e-5)"
           stroke="#000000"
           stroke-width="0.282"
           id="g6324">
          <path
             d="m 70.845,239.47 h -6.718 a 3.3591,3.3591 0 0 0 3.3587,3.3593 3.3591,3.3591 0 0 0 3.3593,-3.3593 z"
             fill="#1780ce"
             stroke-linecap="round"
             stroke-linejoin="round"
             id="path6318" />
          <path
             d="m 67.486,236.11 a 3.3591,3.3591 0 0 0 -3.3587,3.3593 h 6.718 A 3.3591,3.3591 0 0 0 67.486,236.11 Z"
             fill="#dd1d1d"
             stroke-linecap="round"
             stroke-linejoin="round"
             id="path6320" />
          <path
             d="m 67.486,242.83 c 0,0 1.4062,-2.5202 0.93744,-3.5283 0,0 -0.31248,-0.84006 -0.93744,-0.84006 -0.62496,0 -0.93744,0.84006 -0.93744,0.84006 -0.46872,1.0081 0.93744,3.5283 0.93744,3.5283"
             fill="#e9c13a"
             fill-rule="evenodd"
             id="path6322" />
        </g>
        <path
           d="m 67.486,242.83 v -6.7186"
           fill="none"
           stroke="#000000"
           stroke-width="0.28222px"
           id="path6326" />
        <path
           d="m 64.127,239.47 h 6.7186"
           fill="none"
           stroke="#000000"
           stroke-width="0.28222px"
           id="path6328" />
        <path
           d="m 67.485,234.97 0.01365,8.8918"
           fill="none"
           stroke="#000000"
           stroke-width="0.082"
           id="path6330" />
        <path
           d="m 67.507,262.78 -0.01352,2.7836"
           fill="none"
           stroke="#000000"
           stroke-width="0.082"
           id="path6332" />
        <g
           transform="translate(-49.73,-0.11042)"
           id="g6504">
          <g
             transform="matrix(0.30612,0.36804,-0.36804,0.30612,426.18,-44.884)"
             id="g6336">
            <path
               d="m 37.605,895.4 -2.7815,1.0606 2.7815,1.0591 1.3713,-1.0591 z"
               fill-rule="evenodd"
               stroke="#000000"
               stroke-linejoin="round"
               stroke-width="0.58908"
               id="path6334" />
          </g>
          <path
             d="m 108.67,250.57 3.1253,3.7574 0.18978,-5.8613 -3.1253,-3.7574 z"
             fill="#dd1d1d"
             fill-rule="evenodd"
             stroke="#000000"
             stroke-width="0.28222px"
             id="path6338" />
          <path
             d="m 114.14,251.06 -5.9658,-7.1725"
             fill="none"
             stroke="#000000"
             stroke-width="0.28222px"
             id="path6340" />
          <path
             d="m 113.6,256.5 0.18978,-5.8613"
             fill="none"
             stroke="#000000"
             stroke-width="0.082"
             id="path6342" />
          <path
             d="m 113.25,256.07 0.18978,-5.8613"
             fill="none"
             stroke="#000000"
             stroke-width="0.082"
             id="path6344" />
          <path
             d="m 112.89,255.65 0.18978,-5.8613"
             fill="none"
             stroke="#000000"
             stroke-width="0.082"
             id="path6346" />
          <path
             d="m 112.54,255.23 0.18978,-5.8613"
             fill="none"
             stroke="#000000"
             stroke-width="0.082"
             id="path6348" />
          <path
             d="m 111.49,253.96 0.18978,-5.8613"
             fill="none"
             stroke="#000000"
             stroke-width="0.082"
             id="path6350" />
          <path
             d="m 112.19,254.8 0.18978,-5.8613"
             fill="none"
             stroke="#000000"
             stroke-width="0.082"
             id="path6352" />
          <path
             d="m 111.13,253.53 0.18978,-5.8613"
             fill="none"
             stroke="#000000"
             stroke-width="0.082"
             id="path6354" />
          <path
             d="m 110.78,253.11 0.18978,-5.8613"
             fill="none"
             stroke="#000000"
             stroke-width="0.082"
             id="path6356" />
          <path
             d="m 110.43,252.69 0.18978,-5.8613"
             fill="none"
             stroke="#000000"
             stroke-width="0.082"
             id="path6358" />
          <path
             d="m 110.08,252.26 0.18978,-5.8613"
             fill="none"
             stroke="#000000"
             stroke-width="0.082"
             id="path6360" />
          <path
             d="m 109.72,251.84 0.18978,-5.8613"
             fill="none"
             stroke="#000000"
             stroke-width="0.082"
             id="path6362" />
          <path
             d="m 109.37,251.42 0.18978,-5.8613"
             fill="none"
             stroke="#000000"
             stroke-width="0.082"
             id="path6364" />
          <path
             d="m 109.02,250.99 0.18978,-5.8613"
             fill="none"
             stroke="#000000"
             stroke-width="0.082"
             id="path6366" />
          <g
             stroke="#000000"
             id="g6410">
            <g
               transform="matrix(0.30241,0.30459,-0.30459,0.30241,368.6,-36.344)"
               id="g6372">
              <path
                 d="M 58.465,896.46 H 38.977"
                 fill="none"
                 stroke-width="0.65753px"
                 id="path6368" />
              <path
                 d="m 37.605,895.4 -2.7815,1.0606 2.7815,1.0591 1.3713,-1.0591 z"
                 fill-rule="evenodd"
                 stroke-linejoin="round"
                 stroke-width="0.65701"
                 id="path6370" />
            </g>
            <path
               d="m 108.04,247.33 c 0,0 -0.31487,3.5499 -0.18812,5.4442 0.0753,1.1256 0.16774,2.1334 0.44098,3.2279 0.16933,0.67829 0.46298,1.7124 0.75847,2.346 0.34824,0.74671 0.69503,1.5454 1.3053,2.099 0.42261,0.38337 0.97799,0.6328 1.5346,0.75847 0.38431,0.0868 0.80422,0.0948 1.1818,-0.0176 0.32673,-0.0973 0.65878,-0.23617 0.92667,-0.44702 0.20585,-0.16202 0.377,-0.41643 0.50209,-0.64659 0.0655,-0.12056 0.079,-0.26669 0.0795,-0.40391 0.009,-2.4187 -1.3473,-7.1298 -1.3473,-7.1298 z"
               fill="#1780ce"
               fill-rule="evenodd"
               stroke-width="0.28222px"
               id="path6374" />
            <path
               transform="scale(0.26458)"
               d="m 408.32,934.79 c -0.007,0.0823 -1.1886,13.439 -0.71097,20.576 0.2846,4.254 0.63398,8.0634 1.6667,12.2 0.63998,2.5636 1.7498,6.472 2.8666,8.8667 1.3162,2.8222 2.6269,5.841 4.9334,7.9333 1.5973,1.449 3.6963,2.3917 5.8,2.8667 1.4525,0.32806 3.0396,0.3583 4.4666,-0.0665 1.2349,-0.36775 2.4899,-0.89261 3.5024,-1.6895 0.77802,-0.61236 1.4249,-1.5739 1.8977,-2.4438 0.24756,-0.45566 0.30047,-1.008 0.30047,-1.5266 v -11.966"
               fill="none"
               stroke-linecap="round"
               stroke-linejoin="bevel"
               stroke-width="0.30992"
               id="path6376" />
            <path
               transform="scale(0.26458)"
               d="m 408.32,934.79 c 0,0 -10e-6,1.3e-4 -3e-5,3.8e-4"
               fill="none"
               stroke-linecap="round"
               stroke-linejoin="bevel"
               stroke-width="0.30992"
               id="path6378" />
            <path
               transform="scale(0.26458)"
               d="m 409.49,936.04 c -0.27794,3.8026 -0.8906,13.301 -0.53841,18.93 0.26608,4.254 0.59274,8.0634 1.5583,12.2 0.59841,2.5636 1.6361,6.472 2.6803,8.8667 1.2306,2.8222 2.4562,5.841 4.6127,7.9333 1.4934,1.449 3.4561,2.3917 5.423,2.8667 1.3581,0.32806 2.842,0.3583 4.1763,-0.0665 1.1546,-0.36775 2.328,-0.89261 3.2747,-1.6895 0.72744,-0.61236 1.3323,-1.5739 1.7743,-2.4438 0.23131,-0.45566 0.28082,-1.008 0.28082,-1.5266 v -11.966"
               fill="none"
               stroke-linecap="round"
               stroke-linejoin="bevel"
               stroke-width="0.30992"
               id="path6380" />
            <path
               transform="scale(0.26458)"
               d="m 410.69,937.17 c -0.27813,4.4124 -0.69142,12.426 -0.40137,17.408 0.24756,4.254 0.55158,8.0634 1.45,12.2 0.55677,2.5636 1.5224,6.472 2.494,8.8666 1.1451,2.8222 2.2854,5.841 4.292,7.9334 1.3896,1.449 3.2158,2.3917 5.046,2.8666 1.2637,0.32807 2.6445,0.3583 3.886,-0.0665 1.0744,-0.36774 2.1662,-0.89261 3.0471,-1.6895 0.67687,-0.61236 1.2396,-1.5739 1.651,-2.4438 0.21543,-0.45566 0.26154,-1.008 0.26154,-1.5266 v -11.966"
               fill="none"
               stroke-linecap="round"
               stroke-linejoin="bevel"
               stroke-width="0.30992"
               id="path6382" />
            <path
               transform="scale(0.26458)"
               d="m 411.91,938.4 c -0.24453,4.5605 -0.51841,11.364 -0.28038,15.783 0.22904,4.254 0.51035,8.0634 1.3417,12.2 0.51519,2.5636 1.4086,6.472 2.3077,8.8667 1.0595,2.8222 2.1146,5.841 3.9713,7.9333 1.2858,1.449 2.9755,2.3917 4.669,2.8667 1.1693,0.32806 2.4468,0.3583 3.5956,-0.0665 0.99406,-0.36775 2.0043,-0.89261 2.8194,-1.6895 0.62627,-0.61236 1.147,-1.5739 1.5276,-2.4438 0.19918,-0.45566 0.24189,-1.008 0.24189,-1.5266 v -11.966"
               fill="none"
               stroke-linecap="round"
               stroke-linejoin="bevel"
               stroke-width="0.30992"
               id="path6384" />
            <path
               transform="scale(0.26458)"
               d="m 413.15,939.66 c -0.19857,4.4381 -0.37341,10.215 -0.17978,14.126 0.21052,4.254 0.46915,8.0634 1.2334,12.2 0.47358,2.5636 1.2949,6.472 2.1213,8.8667 0.97398,2.8222 1.9439,5.841 3.6507,7.9333 1.182,1.449 2.7353,2.3917 4.292,2.8667 1.0749,0.32806 2.2493,0.3583 3.3053,-0.0665 0.91381,-0.36775 1.8425,-0.89261 2.5918,-1.6895 0.57574,-0.61235 1.0544,-1.5739 1.4042,-2.4438 0.1833,-0.45566 0.22223,-1.008 0.22223,-1.5266 v -11.966"
               fill="none"
               stroke-linecap="round"
               stroke-linejoin="bevel"
               stroke-width="0.30992"
               id="path6386" />
            <path
               transform="scale(0.26458)"
               d="m 414.41,940.94 c -0.15024,4.1411 -0.25418,9.0121 -0.0991,12.445 0.192,4.254 0.42792,8.0634 1.125,12.2 0.432,2.5636 1.1811,6.472 1.935,8.8666 0.88841,2.8222 1.7731,5.841 3.33,7.9334 1.0782,1.449 2.495,2.3917 3.915,2.8666 0.98045,0.32807 2.0517,0.3583 3.015,-0.0665 0.83353,-0.36774 1.6806,-0.89261 2.3641,-1.6895 0.52517,-0.61236 0.96178,-1.5739 1.2809,-2.4438 0.16706,-0.45566 0.20296,-1.008 0.20296,-1.5266 v -11.966"
               fill="none"
               stroke-linecap="round"
               stroke-linejoin="bevel"
               stroke-width="0.30992"
               id="path6388" />
            <path
               transform="scale(0.26458)"
               d="m 415.69,942.29 c -0.10403,3.7093 -0.15728,7.7397 -0.0364,10.7 0.17348,4.254 0.38672,8.0634 1.0166,12.2 0.39039,2.5636 1.0674,6.472 1.7487,8.8667 0.80288,2.8222 1.6024,5.841 3.0093,7.9333 0.97433,1.449 2.2548,2.3917 3.538,2.8667 0.88603,0.32806 1.8542,0.3583 2.7247,-0.0665 0.7533,-0.36775 1.5188,-0.89261 2.1364,-1.6895 0.4746,-0.61236 0.86918,-1.5739 1.1576,-2.4438 0.1508,-0.45566 0.18331,-1.008 0.18331,-1.5266 v -11.966"
               fill="none"
               stroke-linecap="round"
               stroke-linejoin="bevel"
               stroke-width="0.30992"
               id="path6390" />
            <path
               transform="scale(0.26458)"
               d="m 416.98,943.69 c -0.0635,3.1728 -0.0826,6.4153 0.008,8.9026 0.15496,4.254 0.34545,8.0634 0.90837,12.2 0.34885,2.5636 0.95365,6.472 1.5623,8.8667 0.71731,2.8222 1.4316,5.841 2.6887,7.9333 0.8705,1.449 2.0145,2.3917 3.161,2.8667 0.79163,0.32806 1.6566,0.3583 2.4343,-0.0665 0.67302,-0.36775 1.357,-0.89261 1.9088,-1.6895 0.42402,-0.61235 0.77658,-1.5739 1.0342,-2.4438 0.13493,-0.45566 0.16365,-1.008 0.16365,-1.5266 v -11.966"
               fill="none"
               stroke-linecap="round"
               stroke-linejoin="bevel"
               stroke-width="0.30992"
               id="path6392" />
            <path
               transform="scale(0.26458)"
               d="m 418.3,945.11 c -0.0315,2.5658 -0.0302,5.0742 0.0344,7.0878 0.13644,4.254 0.30425,8.0634 0.80001,12.2 0.30728,2.5636 0.83992,6.472 1.376,8.8666 0.63175,2.8222 1.2609,5.841 2.368,7.9334 0.76668,1.449 1.7743,2.3917 2.784,2.8666 0.69721,0.32807 1.459,0.3583 2.144,-0.0665 0.59274,-0.36774 1.1952,-0.89261 1.6811,-1.6895 0.37342,-0.61236 0.68394,-1.5739 0.9109,-2.4438 0.11868,-0.45566 0.14438,-1.008 0.14438,-1.5266 v -11.966"
               fill="none"
               stroke-linecap="round"
               stroke-linejoin="bevel"
               stroke-width="0.30992"
               id="path6394" />
            <path
               transform="scale(0.26458)"
               d="m 419.63,946.19 c -0.0124,2.0381 -0.003,3.9838 0.0422,5.6076 0.11793,4.254 0.26306,8.0634 0.69166,12.2 0.2657,2.5636 0.7262,6.472 1.1897,8.8667 0.54622,2.8222 1.0902,5.841 2.0473,7.9333 0.66286,1.449 1.534,2.3917 2.407,2.8667 0.6028,0.32806 1.2614,0.3583 1.8537,-0.0665 0.51247,-0.36775 1.0333,-0.89261 1.4535,-1.6895 0.32277,-0.61236 0.5913,-1.5739 0.7875,-2.4438 0.1028,-0.45566 0.12472,-1.008 0.12472,-1.5266 v -11.966"
               fill="none"
               stroke-linecap="round"
               stroke-linejoin="bevel"
               stroke-width="0.30992"
               id="path6396" />
            <path
               transform="scale(0.26458)"
               d="m 420.97,947.53 c 7.2e-4,1.3971 0.0126,2.714 0.0399,3.8683 0.0998,4.254 0.22186,8.0634 0.58333,12.2 0.22413,2.5636 0.61243,6.472 1.0033,8.8667 0.46069,2.8222 0.91941,5.841 1.7267,7.9333 0.55903,1.449 1.2937,2.3917 2.03,2.8667 0.50839,0.32806 1.0639,0.3583 1.5633,-0.0665 0.43223,-0.36775 0.87148,-0.89261 1.2258,-1.6895 0.27251,-0.61236 0.49871,-1.5739 0.66418,-2.4438 0.0865,-0.45566 0.10507,-1.008 0.10507,-1.5266 v -11.966"
               fill="none"
               stroke-linecap="round"
               stroke-linejoin="bevel"
               stroke-width="0.30992"
               id="path6398" />
            <path
               transform="scale(0.26458)"
               d="m 422.33,948.88 c 0.005,0.75309 0.0137,1.4683 0.0263,2.13 0.0813,4.254 0.18066,8.0634 0.47501,12.2 0.18256,2.5636 0.49871,6.472 0.81703,8.8666 0.37492,2.8222 0.74864,5.841 1.406,7.9334 0.45521,1.449 1.0535,2.3917 1.653,2.8666 0.41394,0.32807 0.86627,0.3583 1.273,-0.0665 0.35187,-0.36775 0.7096,-0.89262 0.99817,-1.6895 0.22186,-0.61236 0.40611,-1.5739 0.54085,-2.4438 0.0707,-0.45566 0.0858,-1.008 0.0858,-1.5266 v -11.966"
               fill="none"
               stroke-linecap="round"
               stroke-linejoin="bevel"
               stroke-width="0.30992"
               id="path6400" />
            <path
               transform="scale(0.26458)"
               d="m 423.69,950.27 c 0.002,0.11486 0.003,0.22827 0.005,0.34016 0.0627,4.254 0.13946,8.0634 0.36661,12.2 0.14098,2.5636 0.38495,6.472 0.63066,8.8667 0.28951,2.8222 0.57792,5.841 1.0853,7.9333 0.3515,1.449 0.81321,2.3917 1.276,2.8667 0.31937,0.32807 0.66871,0.3583 0.98264,-0.0665 0.27175,-0.36775 0.54781,-0.89261 0.77053,-1.6895 0.17122,-0.61236 0.31333,-1.5739 0.41749,-2.4438 0.0544,-0.45566 0.0661,-1.008 0.0661,-1.5266 v -11.966"
               fill="none"
               stroke-linecap="round"
               stroke-linejoin="bevel"
               stroke-width="0.30992"
               id="path6402" />
            <path
               transform="scale(0.26458)"
               d="m 425.05,951.63 c 0.0423,3.6967 0.10086,7.1112 0.24313,10.784 0.099,2.5636 0.27137,6.472 0.44432,8.8667 0.20409,2.8222 0.40716,5.841 0.76467,7.9333 0.24756,1.449 0.57294,2.3917 0.899,2.8667 0.22526,0.32806 0.47112,0.3583 0.69233,-0.0665 0.19125,-0.36775 0.38593,-0.89261 0.54286,-1.6895 0.12056,-0.61236 0.22072,-1.5739 0.29404,-2.4438 0.0382,-0.45566 0.0465,-1.008 0.0465,-1.5266 v -11.966"
               fill="none"
               stroke-linecap="round"
               stroke-linejoin="bevel"
               stroke-width="0.30992"
               id="path6404" />
            <path
               transform="scale(0.26458)"
               d="m 426.39,953 c 0.0241,3.0363 0.0588,5.9352 0.128,9.0157 0.0575,2.5636 0.1576,6.472 0.25814,8.8667 0.11868,2.8222 0.2366,5.841 0.44402,7.9333 0.14362,1.449 0.3326,2.3917 0.52199,2.8667 0.13077,0.32806 0.27364,0.35829 0.40199,-0.0665 0.11112,-0.36775 0.22412,-0.89262 0.31521,-1.6895 0.0699,-0.61236 0.12813,-1.5739 0.17084,-2.4438 0.0227,-0.45566 0.0265,-1.008 0.0265,-1.5266 V 963.99"
               fill="none"
               stroke-linecap="round"
               stroke-linejoin="bevel"
               stroke-width="0.30992"
               id="path6406" />
            <path
               d="m 113.23,259.8 v -1.365"
               fill="none"
               stroke-linecap="round"
               stroke-linejoin="bevel"
               stroke-width="0.082"
               id="path6408" />
          </g>
          <g
             transform="matrix(-1,0,0,1,234.46,-3.2891e-5)"
             id="g6490">
            <g
               transform="matrix(0.30612,0.36804,-0.36804,0.30612,426.18,-44.884)"
               id="g6414">
              <path
                 d="m 37.605,895.4 -2.7815,1.0606 2.7815,1.0591 1.3713,-1.0591 z"
                 fill-rule="evenodd"
                 stroke="#000000"
                 stroke-linejoin="round"
                 stroke-width="0.58908"
                 id="path6412" />
            </g>
            <path
               d="m 108.67,250.57 3.1253,3.7574 0.18978,-5.8613 -3.1253,-3.7574 z"
               fill="#dd1d1d"
               fill-rule="evenodd"
               stroke="#000000"
               stroke-width="0.28222px"
               id="path6416" />
            <path
               d="m 114.14,251.06 -5.9658,-7.1725"
               fill="none"
               stroke="#000000"
               stroke-width="0.28222px"
               id="path6418" />
            <path
               d="m 113.6,256.5 0.18978,-5.8613"
               fill="none"
               stroke="#000000"
               stroke-width="0.082"
               id="path6420" />
            <path
               d="m 113.25,256.07 0.18978,-5.8613"
               fill="none"
               stroke="#000000"
               stroke-width="0.082"
               id="path6422" />
            <path
               d="m 112.89,255.65 0.18978,-5.8613"
               fill="none"
               stroke="#000000"
               stroke-width="0.082"
               id="path6424" />
            <path
               d="m 112.54,255.23 0.18978,-5.8613"
               fill="none"
               stroke="#000000"
               stroke-width="0.082"
               id="path6426" />
            <path
               d="m 111.49,253.96 0.18978,-5.8613"
               fill="none"
               stroke="#000000"
               stroke-width="0.082"
               id="path6428" />
            <path
               d="m 112.19,254.8 0.18978,-5.8613"
               fill="none"
               stroke="#000000"
               stroke-width="0.082"
               id="path6430" />
            <path
               d="m 111.13,253.53 0.18978,-5.8613"
               fill="none"
               stroke="#000000"
               stroke-width="0.082"
               id="path6432" />
            <path
               d="m 110.78,253.11 0.18978,-5.8613"
               fill="none"
               stroke="#000000"
               stroke-width="0.082"
               id="path6434" />
            <path
               d="m 110.43,252.69 0.18978,-5.8613"
               fill="none"
               stroke="#000000"
               stroke-width="0.082"
               id="path6436" />
            <path
               d="m 110.08,252.26 0.18978,-5.8613"
               fill="none"
               stroke="#000000"
               stroke-width="0.082"
               id="path6438" />
            <path
               d="m 109.72,251.84 0.18978,-5.8613"
               fill="none"
               stroke="#000000"
               stroke-width="0.082"
               id="path6440" />
            <path
               d="m 109.37,251.42 0.18978,-5.8613"
               fill="none"
               stroke="#000000"
               stroke-width="0.082"
               id="path6442" />
            <path
               d="m 109.02,250.99 0.18978,-5.8613"
               fill="none"
               stroke="#000000"
               stroke-width="0.082"
               id="path6444" />
            <g
               stroke="#000000"
               id="g6488">
              <g
                 transform="matrix(0.30241,0.30459,-0.30459,0.30241,368.6,-36.344)"
                 id="g6450">
                <path
                   d="M 58.465,896.46 H 38.977"
                   fill="none"
                   stroke-width="0.65753px"
                   id="path6446" />
                <path
                   d="m 37.605,895.4 -2.7815,1.0606 2.7815,1.0591 1.3713,-1.0591 z"
                   fill-rule="evenodd"
                   stroke-linejoin="round"
                   stroke-width="0.65701"
                   id="path6448" />
              </g>
              <path
                 d="m 108.04,247.33 c 0,0 -0.31487,3.5499 -0.18812,5.4442 0.0753,1.1256 0.16774,2.1334 0.44098,3.2279 0.16933,0.67829 0.46298,1.7124 0.75847,2.346 0.34824,0.74671 0.69503,1.5454 1.3053,2.099 0.42261,0.38337 0.97799,0.6328 1.5346,0.75847 0.38431,0.0868 0.80422,0.0948 1.1818,-0.0176 0.32673,-0.0973 0.65878,-0.23617 0.92667,-0.44702 0.20585,-0.16202 0.377,-0.41643 0.50209,-0.64659 0.0655,-0.12056 0.079,-0.26669 0.0795,-0.40391 0.009,-2.4187 -1.3473,-7.1298 -1.3473,-7.1298 z"
                 fill="#1780ce"
                 fill-rule="evenodd"
                 stroke-width="0.28222px"
                 id="path6452" />
              <path
                 transform="scale(0.26458)"
                 d="m 408.32,934.79 c -0.007,0.0823 -1.1886,13.439 -0.71097,20.576 0.2846,4.254 0.63398,8.0634 1.6667,12.2 0.63998,2.5636 1.7498,6.472 2.8666,8.8667 1.3162,2.8222 2.6269,5.841 4.9334,7.9333 1.5973,1.449 3.6963,2.3917 5.8,2.8667 1.4525,0.32806 3.0396,0.3583 4.4666,-0.0665 1.2349,-0.36775 2.4899,-0.89261 3.5024,-1.6895 0.77802,-0.61236 1.4249,-1.5739 1.8977,-2.4438 0.24756,-0.45566 0.30047,-1.008 0.30047,-1.5266 v -11.966"
                 fill="none"
                 stroke-linecap="round"
                 stroke-linejoin="bevel"
                 stroke-width="0.30992"
                 id="path6454" />
              <path
                 transform="scale(0.26458)"
                 d="m 408.32,934.79 c 0,0 -10e-6,1.3e-4 -3e-5,3.8e-4"
                 fill="none"
                 stroke-linecap="round"
                 stroke-linejoin="bevel"
                 stroke-width="0.30992"
                 id="path6456" />
              <path
                 transform="scale(0.26458)"
                 d="m 409.49,936.04 c -0.27794,3.8026 -0.8906,13.301 -0.53841,18.93 0.26608,4.254 0.59274,8.0634 1.5583,12.2 0.59841,2.5636 1.6361,6.472 2.6803,8.8667 1.2306,2.8222 2.4562,5.841 4.6127,7.9333 1.4934,1.449 3.4561,2.3917 5.423,2.8667 1.3581,0.32806 2.842,0.3583 4.1763,-0.0665 1.1546,-0.36775 2.328,-0.89261 3.2747,-1.6895 0.72744,-0.61236 1.3323,-1.5739 1.7743,-2.4438 0.23131,-0.45566 0.28082,-1.008 0.28082,-1.5266 v -11.966"
                 fill="none"
                 stroke-linecap="round"
                 stroke-linejoin="bevel"
                 stroke-width="0.30992"
                 id="path6458" />
              <path
                 transform="scale(0.26458)"
                 d="m 410.69,937.17 c -0.27813,4.4124 -0.69142,12.426 -0.40137,17.408 0.24756,4.254 0.55158,8.0634 1.45,12.2 0.55677,2.5636 1.5224,6.472 2.494,8.8666 1.1451,2.8222 2.2854,5.841 4.292,7.9334 1.3896,1.449 3.2158,2.3917 5.046,2.8666 1.2637,0.32807 2.6445,0.3583 3.886,-0.0665 1.0744,-0.36774 2.1662,-0.89261 3.0471,-1.6895 0.67687,-0.61236 1.2396,-1.5739 1.651,-2.4438 0.21543,-0.45566 0.26154,-1.008 0.26154,-1.5266 v -11.966"
                 fill="none"
                 stroke-linecap="round"
                 stroke-linejoin="bevel"
                 stroke-width="0.30992"
                 id="path6460" />
              <path
                 transform="scale(0.26458)"
                 d="m 411.91,938.4 c -0.24453,4.5605 -0.51841,11.364 -0.28038,15.783 0.22904,4.254 0.51035,8.0634 1.3417,12.2 0.51519,2.5636 1.4086,6.472 2.3077,8.8667 1.0595,2.8222 2.1146,5.841 3.9713,7.9333 1.2858,1.449 2.9755,2.3917 4.669,2.8667 1.1693,0.32806 2.4468,0.3583 3.5956,-0.0665 0.99406,-0.36775 2.0043,-0.89261 2.8194,-1.6895 0.62627,-0.61236 1.147,-1.5739 1.5276,-2.4438 0.19918,-0.45566 0.24189,-1.008 0.24189,-1.5266 v -11.966"
                 fill="none"
                 stroke-linecap="round"
                 stroke-linejoin="bevel"
                 stroke-width="0.30992"
                 id="path6462" />
              <path
                 transform="scale(0.26458)"
                 d="m 413.15,939.66 c -0.19857,4.4381 -0.37341,10.215 -0.17978,14.126 0.21052,4.254 0.46915,8.0634 1.2334,12.2 0.47358,2.5636 1.2949,6.472 2.1213,8.8667 0.97398,2.8222 1.9439,5.841 3.6507,7.9333 1.182,1.449 2.7353,2.3917 4.292,2.8667 1.0749,0.32806 2.2493,0.3583 3.3053,-0.0665 0.91381,-0.36775 1.8425,-0.89261 2.5918,-1.6895 0.57574,-0.61235 1.0544,-1.5739 1.4042,-2.4438 0.1833,-0.45566 0.22223,-1.008 0.22223,-1.5266 v -11.966"
                 fill="none"
                 stroke-linecap="round"
                 stroke-linejoin="bevel"
                 stroke-width="0.30992"
                 id="path6464" />
              <path
                 transform="scale(0.26458)"
                 d="m 414.41,940.94 c -0.15024,4.1411 -0.25418,9.0121 -0.0991,12.445 0.192,4.254 0.42792,8.0634 1.125,12.2 0.432,2.5636 1.1811,6.472 1.935,8.8666 0.88841,2.8222 1.7731,5.841 3.33,7.9334 1.0782,1.449 2.495,2.3917 3.915,2.8666 0.98045,0.32807 2.0517,0.3583 3.015,-0.0665 0.83353,-0.36774 1.6806,-0.89261 2.3641,-1.6895 0.52517,-0.61236 0.96178,-1.5739 1.2809,-2.4438 0.16706,-0.45566 0.20296,-1.008 0.20296,-1.5266 v -11.966"
                 fill="none"
                 stroke-linecap="round"
                 stroke-linejoin="bevel"
                 stroke-width="0.30992"
                 id="path6466" />
              <path
                 transform="scale(0.26458)"
                 d="m 415.69,942.29 c -0.10403,3.7093 -0.15728,7.7397 -0.0364,10.7 0.17348,4.254 0.38672,8.0634 1.0166,12.2 0.39039,2.5636 1.0674,6.472 1.7487,8.8667 0.80288,2.8222 1.6024,5.841 3.0093,7.9333 0.97433,1.449 2.2548,2.3917 3.538,2.8667 0.88603,0.32806 1.8542,0.3583 2.7247,-0.0665 0.7533,-0.36775 1.5188,-0.89261 2.1364,-1.6895 0.4746,-0.61236 0.86918,-1.5739 1.1576,-2.4438 0.1508,-0.45566 0.18331,-1.008 0.18331,-1.5266 v -11.966"
                 fill="none"
                 stroke-linecap="round"
                 stroke-linejoin="bevel"
                 stroke-width="0.30992"
                 id="path6468" />
              <path
                 transform="scale(0.26458)"
                 d="m 416.98,943.69 c -0.0635,3.1728 -0.0826,6.4153 0.008,8.9026 0.15496,4.254 0.34545,8.0634 0.90837,12.2 0.34885,2.5636 0.95365,6.472 1.5623,8.8667 0.71731,2.8222 1.4316,5.841 2.6887,7.9333 0.8705,1.449 2.0145,2.3917 3.161,2.8667 0.79163,0.32806 1.6566,0.3583 2.4343,-0.0665 0.67302,-0.36775 1.357,-0.89261 1.9088,-1.6895 0.42402,-0.61235 0.77658,-1.5739 1.0342,-2.4438 0.13493,-0.45566 0.16365,-1.008 0.16365,-1.5266 v -11.966"
                 fill="none"
                 stroke-linecap="round"
                 stroke-linejoin="bevel"
                 stroke-width="0.30992"
                 id="path6470" />
              <path
                 transform="scale(0.26458)"
                 d="m 418.3,945.11 c -0.0315,2.5658 -0.0302,5.0742 0.0344,7.0878 0.13644,4.254 0.30425,8.0634 0.80001,12.2 0.30728,2.5636 0.83992,6.472 1.376,8.8666 0.63175,2.8222 1.2609,5.841 2.368,7.9334 0.76668,1.449 1.7743,2.3917 2.784,2.8666 0.69721,0.32807 1.459,0.3583 2.144,-0.0665 0.59274,-0.36774 1.1952,-0.89261 1.6811,-1.6895 0.37342,-0.61236 0.68394,-1.5739 0.9109,-2.4438 0.11868,-0.45566 0.14438,-1.008 0.14438,-1.5266 v -11.966"
                 fill="none"
                 stroke-linecap="round"
                 stroke-linejoin="bevel"
                 stroke-width="0.30992"
                 id="path6472" />
              <path
                 transform="scale(0.26458)"
                 d="m 419.63,946.19 c -0.0124,2.0381 -0.003,3.9838 0.0422,5.6076 0.11793,4.254 0.26306,8.0634 0.69166,12.2 0.2657,2.5636 0.7262,6.472 1.1897,8.8667 0.54622,2.8222 1.0902,5.841 2.0473,7.9333 0.66286,1.449 1.534,2.3917 2.407,2.8667 0.6028,0.32806 1.2614,0.3583 1.8537,-0.0665 0.51247,-0.36775 1.0333,-0.89261 1.4535,-1.6895 0.32277,-0.61236 0.5913,-1.5739 0.7875,-2.4438 0.1028,-0.45566 0.12472,-1.008 0.12472,-1.5266 v -11.966"
                 fill="none"
                 stroke-linecap="round"
                 stroke-linejoin="bevel"
                 stroke-width="0.30992"
                 id="path6474" />
              <path
                 transform="scale(0.26458)"
                 d="m 420.97,947.53 c 7.2e-4,1.3971 0.0126,2.714 0.0399,3.8683 0.0998,4.254 0.22186,8.0634 0.58333,12.2 0.22413,2.5636 0.61243,6.472 1.0033,8.8667 0.46069,2.8222 0.91941,5.841 1.7267,7.9333 0.55903,1.449 1.2937,2.3917 2.03,2.8667 0.50839,0.32806 1.0639,0.3583 1.5633,-0.0665 0.43223,-0.36775 0.87148,-0.89261 1.2258,-1.6895 0.27251,-0.61236 0.49871,-1.5739 0.66418,-2.4438 0.0865,-0.45566 0.10507,-1.008 0.10507,-1.5266 v -11.966"
                 fill="none"
                 stroke-linecap="round"
                 stroke-linejoin="bevel"
                 stroke-width="0.30992"
                 id="path6476" />
              <path
                 transform="scale(0.26458)"
                 d="m 422.33,948.88 c 0.005,0.75309 0.0137,1.4683 0.0263,2.13 0.0813,4.254 0.18066,8.0634 0.47501,12.2 0.18256,2.5636 0.49871,6.472 0.81703,8.8666 0.37492,2.8222 0.74864,5.841 1.406,7.9334 0.45521,1.449 1.0535,2.3917 1.653,2.8666 0.41394,0.32807 0.86627,0.3583 1.273,-0.0665 0.35187,-0.36775 0.7096,-0.89262 0.99817,-1.6895 0.22186,-0.61236 0.40611,-1.5739 0.54085,-2.4438 0.0707,-0.45566 0.0858,-1.008 0.0858,-1.5266 v -11.966"
                 fill="none"
                 stroke-linecap="round"
                 stroke-linejoin="bevel"
                 stroke-width="0.30992"
                 id="path6478" />
              <path
                 transform="scale(0.26458)"
                 d="m 423.69,950.27 c 0.002,0.11486 0.003,0.22827 0.005,0.34016 0.0627,4.254 0.13946,8.0634 0.36661,12.2 0.14098,2.5636 0.38495,6.472 0.63066,8.8667 0.28951,2.8222 0.57792,5.841 1.0853,7.9333 0.3515,1.449 0.81321,2.3917 1.276,2.8667 0.31937,0.32807 0.66871,0.3583 0.98264,-0.0665 0.27175,-0.36775 0.54781,-0.89261 0.77053,-1.6895 0.17122,-0.61236 0.31333,-1.5739 0.41749,-2.4438 0.0544,-0.45566 0.0661,-1.008 0.0661,-1.5266 v -11.966"
                 fill="none"
                 stroke-linecap="round"
                 stroke-linejoin="bevel"
                 stroke-width="0.30992"
                 id="path6480" />
              <path
                 transform="scale(0.26458)"
                 d="m 425.05,951.63 c 0.0423,3.6967 0.10086,7.1112 0.24313,10.784 0.099,2.5636 0.27137,6.472 0.44432,8.8667 0.20409,2.8222 0.40716,5.841 0.76467,7.9333 0.24756,1.449 0.57294,2.3917 0.899,2.8667 0.22526,0.32806 0.47112,0.3583 0.69233,-0.0665 0.19125,-0.36775 0.38593,-0.89261 0.54286,-1.6895 0.12056,-0.61236 0.22072,-1.5739 0.29404,-2.4438 0.0382,-0.45566 0.0465,-1.008 0.0465,-1.5266 v -11.966"
                 fill="none"
                 stroke-linecap="round"
                 stroke-linejoin="bevel"
                 stroke-width="0.30992"
                 id="path6482" />
              <path
                 transform="scale(0.26458)"
                 d="m 426.39,953 c 0.0241,3.0363 0.0588,5.9352 0.128,9.0157 0.0575,2.5636 0.1576,6.472 0.25814,8.8667 0.11868,2.8222 0.2366,5.841 0.44402,7.9333 0.14362,1.449 0.3326,2.3917 0.52199,2.8667 0.13077,0.32806 0.27364,0.35829 0.40199,-0.0665 0.11112,-0.36775 0.22412,-0.89262 0.31521,-1.6895 0.0699,-0.61236 0.12813,-1.5739 0.17084,-2.4438 0.0227,-0.45566 0.0265,-1.008 0.0265,-1.5266 V 963.99"
                 fill="none"
                 stroke-linecap="round"
                 stroke-linejoin="bevel"
                 stroke-width="0.30992"
                 id="path6484" />
              <path
                 d="m 113.23,259.8 v -1.365"
                 fill="none"
                 stroke-linecap="round"
                 stroke-linejoin="bevel"
                 stroke-width="0.082"
                 id="path6486" />
            </g>
          </g>
          <g
             fill-rule="evenodd"
             stroke="#000000"
             stroke-width="0.28222px"
             id="g6502">
            <path
               d="m 118.23,251.06 v 2.9997 h 2.9997 V 251.06 Z"
               fill="#dd1d1d"
               id="path6492" />
            <path
               d="m 121.23,256.06 h -2.9997 l 1e-5,4.1418 c 0.43938,-0.18047 0.87262,-0.20758 1.2204,-0.33732 0.36079,-0.13907 0.74284,-0.28036 1.023,-0.54681 0.35461,-0.33718 0.75627,-0.76854 0.75627,-1.2579 z"
               fill="#dd1d1d"
               id="path6494" />
            <path
               d="m 116.23,254.06 h -3.0003 v 2.0004 h 3.0003 v 4.1418 c 0.53726,0.21086 0.94264,0.67372 0.99936,0.81525 -0.0101,0.0252 -0.0119,0.0424 5.6e-4,0.0424 0.0123,0 0.01,-0.0169 0,-0.0419 v -10e-4 c 0.0572,-0.14202 0.46285,-0.60412 0.99991,-0.81469 v -4.1418 h 2.9997 v -2.0004 h -2.9997 v -2.9997 h -0.99991 l -0.99991,-2e-5 z"
               fill="#f4f2ef"
               id="path6496" />
            <path
               d="m 113.23,251.06 v 2.9997 h 3.0003 V 251.06 Z"
               fill="#dd1d1d"
               id="path6498" />
            <path
               d="m 116.23,260.2 v -4.1418 h -3.0003 v 1.9998 c 0,0.48933 0.40166,0.92069 0.75627,1.2579 0.28021,0.26645 0.66225,0.40774 1.023,0.54681 0.434,0.13937 0.85779,0.20188 1.2209,0.33734 z"
               fill="#dd1d1d"
               id="path6500" />
          </g>
        </g>
      </g>
    </g>
  </g>
</svg>
