<?xml version="1.0" encoding="UTF-8" standalone="no"?>
<svg
   width="42.999779mm"
   height="87.997711mm"
   enable-background="new"
   version="1.1"
   viewBox="0 0 152.36255 311.80195"
   id="svg20076"
   sodipodi:docname="Mazzo.svg"
   inkscape:version="1.2.1 (9c6d41e410, 2022-07-14)"
   xmlns:inkscape="http://www.inkscape.org/namespaces/inkscape"
   xmlns:sodipodi="http://sodipodi.sourceforge.net/DTD/sodipodi-0.dtd"
   xmlns="http://www.w3.org/2000/svg"
   xmlns:svg="http://www.w3.org/2000/svg"
   xmlns:rdf="http://www.w3.org/1999/02/22-rdf-syntax-ns#"
   xmlns:cc="http://creativecommons.org/ns#"
   xmlns:dc="http://purl.org/dc/elements/1.1/">
  <sodipodi:namedview
     id="namedview20078"
     pagecolor="#ffffff"
     bordercolor="#000000"
     borderopacity="0.25"
     inkscape:showpageshadow="2"
     inkscape:pageopacity="0.0"
     inkscape:pagecheckerboard="0"
     inkscape:deskcolor="#d1d1d1"
     inkscape:document-units="mm"
     showgrid="false"
     inkscape:zoom="2.8284271"
     inkscape:cx="196.57568"
     inkscape:cy="470.75634"
     inkscape:window-width="2560"
     inkscape:window-height="1409"
     inkscape:window-x="0"
     inkscape:window-y="31"
     inkscape:window-maximized="1"
     inkscape:current-layer="svg20076" />
  <title
     id="title2">Bresciane</title>
  <defs
     id="defs191" />
  <metadata
     id="metadata193">
    <rdf:RDF>
      <cc:Work
         rdf:about="">
        <dc:format>image/svg+xml</dc:format>
        <dc:type
           rdf:resource="http://purl.org/dc/dcmitype/StillImage" />
        <dc:title>Bresciane</dc:title>
        <dc:date>2020</dc:date>
        <dc:creator>
          <cc:Agent>
            <dc:title>ZZandro</dc:title>
          </cc:Agent>
        </dc:creator>
        <dc:rights>
          <cc:Agent>
            <dc:title />
          </cc:Agent>
        </dc:rights>
        <cc:license
           rdf:resource="http://creativecommons.org/licenses/by-sa/4.0/" />
      </cc:Work>
      <cc:License
         rdf:about="http://creativecommons.org/licenses/by-sa/4.0/">
        <cc:permits
           rdf:resource="http://creativecommons.org/ns#Reproduction" />
        <cc:permits
           rdf:resource="http://creativecommons.org/ns#Distribution" />
        <cc:requires
           rdf:resource="http://creativecommons.org/ns#Notice" />
        <cc:requires
           rdf:resource="http://creativecommons.org/ns#Attribution" />
        <cc:permits
           rdf:resource="http://creativecommons.org/ns#DerivativeWorks" />
        <cc:requires
           rdf:resource="http://creativecommons.org/ns#ShareAlike" />
      </cc:License>
    </rdf:RDF>
  </metadata>
  <g
     transform="translate(-481.87848,-1158.694)"
     id="g16696"
     style="display:inline">
    <g
       transform="matrix(0.97008,0,0,0.9964,-484.04,-588.81)"
       fill="#f4f2ef"
       id="g16488">
      <g
         transform="matrix(0.70046,0,0,1.0004,298.31,-0.79223)"
         fill="#f4f2ef"
         id="g16486">
        <rect
           x="996.13"
           y="1754.4"
           width="223.23"
           height="311.81"
           rx="10.63"
           ry="10.63"
           fill="#f4f2ef"
           stroke="#000000"
           stroke-width="0.99673"
           id="rect16484" />
      </g>
    </g>
    <g
       transform="translate(0.53151,3.5445)"
       stroke="#000000"
       id="g16516">
      <path
         d="M 593.79,1311 H 578.41"
         fill="none"
         stroke-width="1px"
         id="path16490" />
      <circle
         cx="596.52002"
         cy="1311"
         r="2.6575"
         fill="#dd1d1d"
         stroke-linecap="round"
         stroke-linejoin="round"
         stroke-width="0.99921"
         id="circle16492" />
      <circle
         cx="607.15002"
         cy="1311"
         r="2.6575"
         fill="#dd1d1d"
         stroke-linecap="round"
         stroke-linejoin="round"
         stroke-width="0.99921"
         id="circle16494" />
      <circle
         cx="601.84003"
         cy="1311"
         r="2.6575"
         stroke-linecap="round"
         stroke-linejoin="round"
         stroke-width="0.99921"
         id="circle16496" />
      <circle
         cx="601.84003"
         cy="1307.5"
         r="2.6575"
         fill="#dd1d1d"
         stroke-linecap="round"
         stroke-linejoin="round"
         stroke-width="0.99921"
         id="circle16498" />
      <circle
         cx="601.84003"
         cy="1314.6"
         r="2.6575"
         fill="#dd1d1d"
         stroke-linecap="round"
         stroke-linejoin="round"
         stroke-width="0.99921"
         id="circle16500" />
      <g
         transform="translate(-0.87901,0.95597)"
         id="g16506">
        <path
           d="m 578.94,1309.6 c 0,0 2.8642,-2.5366 4.125,-3.9687 1.0413,-1.1828 2.006,-2.4452 2.8197,-3.7948 0.96962,-1.6082 1.6249,-3.3861 2.4307,-5.0823 0.52359,-1.1021 0.94084,-2.2603 1.5622,-3.3104 0.66843,-1.1297 1.4734,-2.178 2.3125,-3.1875 1.0833,-1.3033 2.2554,-2.5373 3.5,-3.6875 1.6536,-1.5281 3.5614,-2.7607 5.25,-4.25 1.083,-0.9551 2.2782,-1.8304 3.125,-3 0.67761,-0.9359 1.0109,-2.0782 1.5,-3.125 0.42622,-0.9123 1.25,-2.75 1.25,-2.75 0,0 0.602,3.3233 0.5625,5 -0.0403,1.7086 -0.35444,3.4159 -0.8125,5.0625 -0.3432,1.2337 -0.87897,2.4102 -1.4375,3.5625 -0.73261,1.5114 -1.5894,2.9636 -2.5,4.375 -0.80876,1.2536 -1.7165,2.4417 -2.625,3.625 -1.2265,1.5975 -2.4217,3.2308 -3.8125,4.6875 -1.4468,1.5154 -3.0463,2.8851 -4.6875,4.1875 -1.4759,1.1713 -2.9978,2.2999 -4.625,3.25 -0.83693,0.4887 -2.625,1.25 -2.625,1.25 z"
           fill="#e9c13a"
           fill-rule="evenodd"
           stroke-linejoin="round"
           stroke-width="0.99921"
           id="path16502" />
        <path
           d="m 605,1280.7 c 0,0 -2.081,3.8843 -3.25,5.75 -1.2642,2.0176 -2.6691,3.9444 -4.0625,5.875 -1.2973,1.7974 -2.5719,3.6172 -4,5.3125 -1.5477,1.8373 -3.1959,3.5953 -4.9375,5.25 -1.3073,1.2421 -4.125,3.5 -4.125,3.5"
           fill="none"
           stroke-linecap="round"
           stroke-width="1px"
           id="path16504" />
      </g>
      <g
         transform="matrix(1,0,0,-1,-0.87901,2621.1)"
         id="g16512">
        <path
           d="m 578.94,1309.6 c 0,0 2.8642,-2.5366 4.125,-3.9687 1.0413,-1.1828 2.006,-2.4452 2.8197,-3.7948 0.96962,-1.6082 1.6249,-3.3861 2.4307,-5.0823 0.52359,-1.1021 0.94084,-2.2603 1.5622,-3.3104 0.66843,-1.1297 1.4734,-2.178 2.3125,-3.1875 1.0833,-1.3033 2.2554,-2.5373 3.5,-3.6875 1.6536,-1.5281 3.5614,-2.7607 5.25,-4.25 1.083,-0.9551 2.2782,-1.8304 3.125,-3 0.67761,-0.9359 1.0109,-2.0782 1.5,-3.125 0.42622,-0.9123 1.25,-2.75 1.25,-2.75 0,0 0.602,3.3233 0.5625,5 -0.0403,1.7086 -0.35444,3.4159 -0.8125,5.0625 -0.3432,1.2337 -0.87897,2.4102 -1.4375,3.5625 -0.73261,1.5114 -1.5894,2.9636 -2.5,4.375 -0.80876,1.2536 -1.7165,2.4417 -2.625,3.625 -1.2265,1.5975 -2.4217,3.2308 -3.8125,4.6875 -1.4468,1.5154 -3.0463,2.8851 -4.6875,4.1875 -1.4759,1.1713 -2.9978,2.2999 -4.625,3.25 -0.83693,0.4887 -2.625,1.25 -2.625,1.25 z"
           fill="#e9c13a"
           fill-rule="evenodd"
           stroke-linejoin="round"
           stroke-width="0.99921"
           id="path16508" />
        <path
           d="m 605,1280.7 c 0,0 -2.081,3.8843 -3.25,5.75 -1.2642,2.0176 -2.6691,3.9444 -4.0625,5.875 -1.2973,1.7974 -2.5719,3.6172 -4,5.3125 -1.5477,1.8373 -3.1959,3.5953 -4.9375,5.25 -1.3073,1.2421 -4.125,3.5 -4.125,3.5"
           fill="none"
           stroke-linecap="round"
           stroke-width="1px"
           id="path16510" />
      </g>
      <path
         d="m 578.99,1309.5 c 0.88632,-0.7586 2.189,-1.3072 3.4748,-1.3733 1.8465,-0.095 3.6557,0.6933 5.2567,1.4455 0.78842,0.3704 2.0014,0.7292 2.0492,1.4672 0.0439,0.6759 -0.99478,1.1251 -1.6928,1.496 -1.6028,0.8514 -3.522,1.6053 -5.4349,1.5176 -1.3794,-0.063 -2.8107,-0.6177 -3.7421,-1.4455 -0.46304,-0.4115 -0.72876,-1.0112 -0.71276,-1.5681 0.0159,-0.557 0.32943,-1.1351 0.80186,-1.5394 z"
         fill="#e9c13a"
         fill-rule="evenodd"
         stroke-width="0.90786px"
         id="path16514" />
    </g>
    <g
       transform="matrix(0.76704,0,0,0.8945,-265.92,-394.15)"
       fill="none"
       id="g16522">
      <g
         transform="matrix(0.70046,0,0,1.0004,298.31,-0.79223)"
         fill="none"
         id="g16520">
        <rect
           x="996.13"
           y="1754.4"
           width="223.23"
           height="311.81"
           rx="10.63"
           ry="10.63"
           fill="none"
           stroke="#000000"
           stroke-width="0.99673"
           id="rect16518" />
      </g>
    </g>
    <g
       transform="matrix(-1,0,0,1,1115.9,3.5445)"
       stroke="#000000"
       id="g16550">
      <path
         d="M 593.79,1311 H 578.41"
         fill="none"
         stroke-width="1px"
         id="path16524" />
      <circle
         cx="596.52002"
         cy="1311"
         r="2.6575"
         fill="#dd1d1d"
         stroke-linecap="round"
         stroke-linejoin="round"
         stroke-width="0.99921"
         id="circle16526" />
      <circle
         cx="607.15002"
         cy="1311"
         r="2.6575"
         fill="#dd1d1d"
         stroke-linecap="round"
         stroke-linejoin="round"
         stroke-width="0.99921"
         id="circle16528" />
      <circle
         cx="601.84003"
         cy="1311"
         r="2.6575"
         stroke-linecap="round"
         stroke-linejoin="round"
         stroke-width="0.99921"
         id="circle16530" />
      <circle
         cx="601.84003"
         cy="1307.5"
         r="2.6575"
         fill="#dd1d1d"
         stroke-linecap="round"
         stroke-linejoin="round"
         stroke-width="0.99921"
         id="circle16532" />
      <circle
         cx="601.84003"
         cy="1314.6"
         r="2.6575"
         fill="#dd1d1d"
         stroke-linecap="round"
         stroke-linejoin="round"
         stroke-width="0.99921"
         id="circle16534" />
      <g
         transform="translate(-0.87901,0.95597)"
         id="g16540">
        <path
           d="m 578.94,1309.6 c 0,0 2.8642,-2.5366 4.125,-3.9687 1.0413,-1.1828 2.006,-2.4452 2.8197,-3.7948 0.96962,-1.6082 1.6249,-3.3861 2.4307,-5.0823 0.52359,-1.1021 0.94084,-2.2603 1.5622,-3.3104 0.66843,-1.1297 1.4734,-2.178 2.3125,-3.1875 1.0833,-1.3033 2.2554,-2.5373 3.5,-3.6875 1.6536,-1.5281 3.5614,-2.7607 5.25,-4.25 1.083,-0.9551 2.2782,-1.8304 3.125,-3 0.67761,-0.9359 1.0109,-2.0782 1.5,-3.125 0.42622,-0.9123 1.25,-2.75 1.25,-2.75 0,0 0.602,3.3233 0.5625,5 -0.0403,1.7086 -0.35444,3.4159 -0.8125,5.0625 -0.3432,1.2337 -0.87897,2.4102 -1.4375,3.5625 -0.73261,1.5114 -1.5894,2.9636 -2.5,4.375 -0.80876,1.2536 -1.7165,2.4417 -2.625,3.625 -1.2265,1.5975 -2.4217,3.2308 -3.8125,4.6875 -1.4468,1.5154 -3.0463,2.8851 -4.6875,4.1875 -1.4759,1.1713 -2.9978,2.2999 -4.625,3.25 -0.83693,0.4887 -2.625,1.25 -2.625,1.25 z"
           fill="#e9c13a"
           fill-rule="evenodd"
           stroke-linejoin="round"
           stroke-width="0.99921"
           id="path16536" />
        <path
           d="m 605,1280.7 c 0,0 -2.081,3.8843 -3.25,5.75 -1.2642,2.0176 -2.6691,3.9444 -4.0625,5.875 -1.2973,1.7974 -2.5719,3.6172 -4,5.3125 -1.5477,1.8373 -3.1959,3.5953 -4.9375,5.25 -1.3073,1.2421 -4.125,3.5 -4.125,3.5"
           fill="none"
           stroke-linecap="round"
           stroke-width="1px"
           id="path16538" />
      </g>
      <g
         transform="matrix(1,0,0,-1,-0.87901,2621.1)"
         id="g16546">
        <path
           d="m 578.94,1309.6 c 0,0 2.8642,-2.5366 4.125,-3.9687 1.0413,-1.1828 2.006,-2.4452 2.8197,-3.7948 0.96962,-1.6082 1.6249,-3.3861 2.4307,-5.0823 0.52359,-1.1021 0.94084,-2.2603 1.5622,-3.3104 0.66843,-1.1297 1.4734,-2.178 2.3125,-3.1875 1.0833,-1.3033 2.2554,-2.5373 3.5,-3.6875 1.6536,-1.5281 3.5614,-2.7607 5.25,-4.25 1.083,-0.9551 2.2782,-1.8304 3.125,-3 0.67761,-0.9359 1.0109,-2.0782 1.5,-3.125 0.42622,-0.9123 1.25,-2.75 1.25,-2.75 0,0 0.602,3.3233 0.5625,5 -0.0403,1.7086 -0.35444,3.4159 -0.8125,5.0625 -0.3432,1.2337 -0.87897,2.4102 -1.4375,3.5625 -0.73261,1.5114 -1.5894,2.9636 -2.5,4.375 -0.80876,1.2536 -1.7165,2.4417 -2.625,3.625 -1.2265,1.5975 -2.4217,3.2308 -3.8125,4.6875 -1.4468,1.5154 -3.0463,2.8851 -4.6875,4.1875 -1.4759,1.1713 -2.9978,2.2999 -4.625,3.25 -0.83693,0.4887 -2.625,1.25 -2.625,1.25 z"
           fill="#e9c13a"
           fill-rule="evenodd"
           stroke-linejoin="round"
           stroke-width="0.99921"
           id="path16542" />
        <path
           d="m 605,1280.7 c 0,0 -2.081,3.8843 -3.25,5.75 -1.2642,2.0176 -2.6691,3.9444 -4.0625,5.875 -1.2973,1.7974 -2.5719,3.6172 -4,5.3125 -1.5477,1.8373 -3.1959,3.5953 -4.9375,5.25 -1.3073,1.2421 -4.125,3.5 -4.125,3.5"
           fill="none"
           stroke-linecap="round"
           stroke-width="1px"
           id="path16544" />
      </g>
      <path
         d="m 578.99,1309.5 c 0.88632,-0.7586 2.189,-1.3072 3.4748,-1.3733 1.8465,-0.095 3.6557,0.6933 5.2567,1.4455 0.78842,0.3704 2.0014,0.7292 2.0492,1.4672 0.0439,0.6759 -0.99478,1.1251 -1.6928,1.496 -1.6028,0.8514 -3.522,1.6053 -5.4349,1.5176 -1.3794,-0.063 -2.8107,-0.6177 -3.7421,-1.4455 -0.46304,-0.4115 -0.72876,-1.0112 -0.71276,-1.5681 0.0159,-0.557 0.32943,-1.1351 0.80186,-1.5394 z"
         fill="#e9c13a"
         fill-rule="evenodd"
         stroke-width="0.90786px"
         id="path16548" />
    </g>
    <g
       transform="translate(0.81201,1059.8)"
       id="g16682">
      <ellipse
         transform="rotate(23)"
         cx="626.44"
         cy="127.65"
         rx="8.8583002"
         ry="19.488001"
         fill="#1780ce"
         stroke="#00000f"
         stroke-linejoin="round"
         stroke-opacity="0.94118"
         stroke-width="0.99921"
         id="ellipse16552" />
      <path
         d="m 564.39,278.16 -5.5379,13.046"
         fill="none"
         stroke="#1780ce"
         stroke-width="6.0236"
         id="path16554" />
      <path
         d="m 558.85,291.21 -26.305,61.971"
         fill="#1780ce"
         fill-rule="evenodd"
         stroke="#1780ce"
         stroke-width="6.0236"
         id="path16556" />
      <path
         d="m 561.78,292.46 -26.305,61.971"
         fill="none"
         stroke="#000000"
         stroke-width="1px"
         id="path16558" />
      <path
         d="m 560.8,276.64 -5.5379,13.046"
         fill="none"
         stroke="#000000"
         stroke-width="5.315"
         id="path16560" />
      <path
         d="m 555.26,289.69 -26.305,61.971"
         fill="none"
         stroke="#000000"
         stroke-width="5.315"
         id="path16562" />
      <path
         d="m 567.32,279.41 -5.538,13.046"
         fill="none"
         stroke="#000000"
         stroke-width="0.99921"
         id="path16564" />
      <g
         transform="rotate(-23,1610.4,5065.9)"
         id="g16594">
        <ellipse
           cx="2506.8999"
           cy="152.36"
           rx="8.8583002"
           ry="19.488001"
           fill="#dd1d1d"
           stroke="#00000f"
           stroke-linejoin="round"
           stroke-opacity="0.94118"
           stroke-width="0.99921"
           id="ellipse16566" />
        <ellipse
           cx="2506.8999"
           cy="336.60999"
           rx="8.8583002"
           ry="19.488001"
           fill="#1780ce"
           stroke="#00000f"
           stroke-linejoin="round"
           stroke-opacity="0.94118"
           stroke-width="0.99921"
           id="ellipse16568" />
        <rect
           x="2502.2"
           y="161.66"
           width="5.4000001"
           height="165.64999"
           rx="1.793"
           ry="10.878"
           fill="#00000f"
           fill-opacity="0.94118"
           opacity="0.99"
           stroke="#000000"
           stroke-linejoin="round"
           stroke-width="0.8873"
           id="rect16570" />
        <rect
           x="2506.3999"
           y="161.66"
           width="5.4000001"
           height="165.64999"
           rx="1.793"
           ry="10.878"
           fill="#dd1d1d"
           opacity="0.99"
           stroke="#000000"
           stroke-linejoin="round"
           stroke-width="0.8873"
           id="rect16572" />
        <path
           d="m 2499.8,162.49 -1.7716,-7.0866 c -0.058,-1.1771 0.2527,-3.0971 1.7716,-3.5433 0.4067,-0.05 0.4271,-0.2057 1.7717,0 1.0454,0.3306 1.3388,1.091 1.7716,1.7717 l 1.7717,8.8582 -1.7717,-8.8582 c -0.2428,-1.7424 0.027,-2.9192 1.7717,-3.5433 1.9968,-0.7928 2.6696,-0.2292 3.5433,0 2.1516,0.9845 1.6683,2.8702 1.7716,3.5433 l -1.7716,8.8582 1.7716,-8.8582 c 0.4657,-1.2178 1.1283,-1.4408 1.7717,-1.7717 0.8536,-0.1362 1.5612,-0.1384 1.7716,0 2.1424,1.1072 1.3529,2.354 1.7717,3.5433 l -1.7717,7.0866"
           fill="none"
           stroke="#000000"
           stroke-width="1px"
           id="path16574" />
        <path
           d="m 2499.8,326.49 -1.7716,7.0866 c -0.058,1.1771 0.2527,3.0971 1.7716,3.5433 0.4067,0.05 0.4271,0.2056 1.7717,0 1.0454,-0.3307 1.3388,-1.091 1.7716,-1.7717 l 1.7717,-8.8582 -1.7717,8.8582 c -0.2428,1.7424 0.027,2.9192 1.7717,3.5433 1.9968,0.7927 2.6696,0.2291 3.5433,0 2.1516,-0.9846 1.6683,-2.8702 1.7716,-3.5433 l -1.7716,-8.8582 1.7716,8.8582 c 0.4657,1.2178 1.1283,1.4407 1.7717,1.7717 0.8536,0.1361 1.5612,0.1383 1.7716,0 2.1424,-1.1072 1.3529,-2.3541 1.7717,-3.5433 l -1.7717,-7.0866"
           fill="none"
           stroke="#000000"
           stroke-width="1px"
           id="path16576" />
        <ellipse
           cx="2506.8999"
           cy="164.75999"
           rx="9.7440996"
           ry="4.4291"
           fill="#e9c13a"
           opacity="0.99"
           stroke="#00000f"
           stroke-linejoin="round"
           stroke-opacity="0.94118"
           stroke-width="0.99921"
           id="ellipse16578" />
        <ellipse
           cx="2506.8999"
           cy="164.75999"
           rx="6.2007999"
           ry="0.88582999"
           fill="#e9c13a"
           opacity="0.99"
           stroke="#00000f"
           stroke-linejoin="round"
           stroke-opacity="0.94118"
           stroke-width="0.99921"
           id="ellipse16580" />
        <ellipse
           cx="2506.8999"
           cy="324.20999"
           rx="9.7440996"
           ry="4.4291"
           fill="#e9c13a"
           opacity="0.99"
           stroke="#00000f"
           stroke-linejoin="round"
           stroke-opacity="0.94118"
           stroke-width="0.99921"
           id="ellipse16582" />
        <ellipse
           cx="2506.8999"
           cy="324.20999"
           rx="6.2007999"
           ry="0.88582999"
           fill="#e9c13a"
           opacity="0.99"
           stroke="#00000f"
           stroke-linejoin="round"
           stroke-opacity="0.94118"
           stroke-width="0.99921"
           id="ellipse16584" />
        <path
           d="m 2498,150.59 c 0.5872,-1.7739 0.026,-4.3431 1.7716,-5.315 4.7244,-1.3668 9.4488,-1.3952 14.173,0 1.2165,0.4415 1.21,3.482 1.7717,5.315 -6.205,-2.3958 -12.063,-2.0167 -17.716,0"
           fill="#e9c13a"
           fill-rule="evenodd"
           stroke="#000000"
           stroke-linejoin="round"
           stroke-width="0.99921"
           id="path16586" />
        <path
           d="m 2498,338.75 c 0.5872,1.7739 0.026,4.3431 1.7716,5.315 4.7244,1.3668 9.4488,1.3952 14.173,0 1.2165,-0.4415 1.21,-3.482 1.7717,-5.315 -6.205,2.3958 -12.063,2.0167 -17.716,0"
           fill="#e9c13a"
           fill-rule="evenodd"
           stroke="#000000"
           stroke-linejoin="round"
           stroke-width="0.99921"
           id="path16588" />
        <circle
           cx="2506.8999"
           cy="131.10001"
           r="1.7717"
           fill="#00000f"
           fill-opacity="0.94118"
           stroke="#00000f"
           stroke-linejoin="round"
           stroke-opacity="0.94118"
           stroke-width="0.99921"
           id="circle16590" />
        <circle
           cx="2506.8999"
           cy="357.87"
           r="1.7717"
           fill="#00000f"
           fill-opacity="0.94118"
           stroke="#00000f"
           stroke-linejoin="round"
           stroke-opacity="0.94118"
           stroke-width="0.99921"
           id="circle16592" />
      </g>
      <g
         transform="rotate(23,1610.4,-4805.5)"
         id="g16624">
        <ellipse
           cx="2604.3"
           cy="152.36"
           rx="8.8583002"
           ry="19.488001"
           fill="#1780ce"
           stroke="#00000f"
           stroke-linejoin="round"
           stroke-opacity="0.94118"
           stroke-width="0.99921"
           id="ellipse16596" />
        <ellipse
           cx="2604.3"
           cy="336.60999"
           rx="8.8583002"
           ry="19.488001"
           fill="#dd1d1d"
           stroke="#00000f"
           stroke-linejoin="round"
           stroke-opacity="0.94118"
           stroke-width="0.99921"
           id="ellipse16598" />
        <rect
           x="2599.6001"
           y="161.66"
           width="5.4000001"
           height="165.64999"
           rx="1.793"
           ry="10.878"
           fill="#00000f"
           fill-opacity="0.94118"
           opacity="0.99"
           stroke="#000000"
           stroke-linejoin="round"
           stroke-width="0.8873"
           id="rect16600" />
        <rect
           x="2603.8"
           y="161.66"
           width="5.4000001"
           height="165.64999"
           rx="1.793"
           ry="10.878"
           fill="#1780ce"
           opacity="0.99"
           stroke="#000000"
           stroke-linejoin="round"
           stroke-width="0.8873"
           id="rect16602" />
        <path
           d="m 2597.2,162.49 -1.7716,-7.0866 c -0.058,-1.1771 0.2527,-3.0971 1.7716,-3.5433 0.4067,-0.05 0.4271,-0.2057 1.7717,0 1.0454,0.3306 1.3388,1.091 1.7716,1.7717 l 1.7717,8.8582 -1.7717,-8.8582 c -0.2428,-1.7424 0.027,-2.9192 1.7717,-3.5433 1.9968,-0.7928 2.6696,-0.2292 3.5433,0 2.1516,0.9845 1.6683,2.8702 1.7716,3.5433 l -1.7716,8.8582 1.7716,-8.8582 c 0.4657,-1.2178 1.1283,-1.4408 1.7717,-1.7717 0.8536,-0.1362 1.5612,-0.1384 1.7716,0 2.1424,1.1072 1.3529,2.354 1.7717,3.5433 l -1.7717,7.0866"
           fill="none"
           stroke="#000000"
           stroke-width="1px"
           id="path16604" />
        <path
           d="m 2597.2,326.49 -1.7716,7.0866 c -0.058,1.1771 0.2527,3.0971 1.7716,3.5433 0.4067,0.05 0.4271,0.2056 1.7717,0 1.0454,-0.3307 1.3388,-1.091 1.7716,-1.7717 l 1.7717,-8.8582 -1.7717,8.8582 c -0.2428,1.7424 0.027,2.9192 1.7717,3.5433 1.9968,0.7927 2.6696,0.2291 3.5433,0 2.1516,-0.9846 1.6683,-2.8702 1.7716,-3.5433 l -1.7716,-8.8582 1.7716,8.8582 c 0.4657,1.2178 1.1283,1.4407 1.7717,1.7717 0.8536,0.1361 1.5612,0.1383 1.7716,0 2.1424,-1.1072 1.3529,-2.3541 1.7717,-3.5433 l -1.7717,-7.0866"
           fill="none"
           stroke="#000000"
           stroke-width="1px"
           id="path16606" />
        <ellipse
           cx="2604.3"
           cy="164.75999"
           rx="9.7440996"
           ry="4.4291"
           fill="#e9c13a"
           opacity="0.99"
           stroke="#00000f"
           stroke-linejoin="round"
           stroke-opacity="0.94118"
           stroke-width="0.99921"
           id="ellipse16608" />
        <ellipse
           cx="2604.3"
           cy="164.75999"
           rx="6.2007999"
           ry="0.88582999"
           fill="#e9c13a"
           opacity="0.99"
           stroke="#00000f"
           stroke-linejoin="round"
           stroke-opacity="0.94118"
           stroke-width="0.99921"
           id="ellipse16610" />
        <ellipse
           cx="2604.3"
           cy="324.20999"
           rx="9.7440996"
           ry="4.4291"
           fill="#e9c13a"
           opacity="0.99"
           stroke="#00000f"
           stroke-linejoin="round"
           stroke-opacity="0.94118"
           stroke-width="0.99921"
           id="ellipse16612" />
        <ellipse
           cx="2604.3"
           cy="324.20999"
           rx="6.2007999"
           ry="0.88582999"
           fill="#e9c13a"
           opacity="0.99"
           stroke="#00000f"
           stroke-linejoin="round"
           stroke-opacity="0.94118"
           stroke-width="0.99921"
           id="ellipse16614" />
        <path
           d="m 2595.5,150.59 c 0.5872,-1.7739 0.026,-4.3431 1.7716,-5.315 4.7244,-1.3668 9.4488,-1.3952 14.173,0 1.2165,0.4415 1.21,3.482 1.7717,5.315 -6.205,-2.3958 -12.063,-2.0167 -17.716,0"
           fill="#dd1d1d"
           fill-rule="evenodd"
           stroke="#000000"
           stroke-linejoin="round"
           stroke-width="0.99921"
           id="path16616" />
        <path
           d="m 2595.5,338.75 c 0.5872,1.7739 0.026,4.3431 1.7716,5.315 4.7244,1.3668 9.4488,1.3952 14.173,0 1.2165,-0.4415 1.21,-3.482 1.7717,-5.315 -6.205,2.3958 -12.063,2.0167 -17.716,0"
           fill="#1780ce"
           fill-rule="evenodd"
           stroke="#000000"
           stroke-linejoin="round"
           stroke-width="0.99921"
           id="path16618" />
        <circle
           cx="2604.3"
           cy="131.10001"
           r="1.7717"
           fill="#00000f"
           fill-opacity="0.94118"
           stroke="#00000f"
           stroke-linejoin="round"
           stroke-opacity="0.94118"
           stroke-width="0.99921"
           id="circle16620" />
        <circle
           cx="2604.3"
           cy="357.87"
           r="1.7717"
           fill="#00000f"
           fill-opacity="0.94118"
           stroke="#00000f"
           stroke-linejoin="round"
           stroke-opacity="0.94118"
           stroke-width="0.99921"
           id="circle16622" />
      </g>
      <ellipse
         transform="rotate(-23)"
         cx="427.26999"
         cy="340.63"
         rx="8.8583002"
         ry="19.488001"
         fill="#1780ce"
         stroke="#00000f"
         stroke-linejoin="round"
         stroke-opacity="0.94118"
         stroke-width="0.99921"
         id="ellipse16626" />
      <ellipse
         transform="rotate(-23)"
         cx="427.26999"
         cy="524.88"
         rx="8.8583002"
         ry="19.488001"
         fill="#dd1d1d"
         stroke="#00000f"
         stroke-linejoin="round"
         stroke-opacity="0.94118"
         stroke-width="0.99921"
         id="ellipse16628" />
      <rect
         transform="rotate(-23)"
         x="422.59"
         y="349.92999"
         width="5.4000001"
         height="165.64999"
         rx="1.793"
         ry="10.878"
         fill="#00000f"
         fill-opacity="0.94118"
         opacity="0.99"
         stroke="#000000"
         stroke-linejoin="round"
         stroke-width="0.8873"
         id="rect16630" />
      <rect
         transform="rotate(-23)"
         x="426.73999"
         y="349.92999"
         width="5.4000001"
         height="165.64999"
         rx="1.793"
         ry="10.878"
         fill="#dd1d1d"
         opacity="0.99"
         stroke="#000000"
         stroke-linejoin="round"
         stroke-width="0.8873"
         id="rect16632" />
      <path
         d="m 523.82,158.7 -4.3997,-5.831 c -0.5133,-1.0609 -0.9775,-2.9496 0.2463,-3.9538 0.3548,-0.205 0.3127,-0.3563 1.6308,-0.6923 1.0915,-0.1041 1.6587,0.4812 2.3231,0.9386 l 5.092,7.4618 -5.092,-7.4618 c -0.9044,-1.509 -1.1158,-2.6976 0.2463,-3.9538 1.5283,-1.51 2.3679,-1.2541 3.2617,-1.3845 2.3652,0.065 2.6571,1.9902 3.0152,2.5694 l 1.8304,8.8462 -1.8304,-8.8462 c -0.047,-1.303 0.4756,-1.7671 0.9386,-2.3231 0.7325,-0.4589 1.383,-0.7374 1.6308,-0.6922 2.4047,0.182 2.1651,1.6382 3.0153,2.5693 l 1.1381,7.2155"
         fill="none"
         stroke="#000000"
         stroke-width="1px"
         id="path16634" />
      <path
         d="m 587.9,309.66 1.1382,7.2155 c 0.4065,1.1062 1.4427,2.7522 3.0152,2.5694 0.3939,-0.11289 0.4735,0.0224 1.6309,-0.69226 0.8331,-0.71288 0.8061,-1.5274 0.9385,-2.3231 l -1.8303,-8.8463 1.8303,8.8463 c 0.4573,1.6988 1.1655,2.6766 3.0153,2.5694 2.1478,-0.0505 2.5469,-0.83221 3.2617,-1.3845 1.5958,-1.747 0.4142,-3.2939 0.2462,-3.9538 l -5.0919,-7.4618 5.0919,7.4618 c 0.9046,0.93903 1.6016,0.88531 2.3232,0.9386 0.8389,-0.20824 1.4911,-0.4827 1.6307,-0.69222 1.5395,-1.8563 0.3256,-2.6956 0.2464,-3.9539 l -4.3998,-5.831"
         fill="none"
         stroke="#000000"
         stroke-width="1px"
         id="path16636" />
      <ellipse
         transform="rotate(-23)"
         cx="427.26999"
         cy="353.03"
         rx="9.7440996"
         ry="4.4291"
         fill="#e9c13a"
         opacity="0.99"
         stroke="#00000f"
         stroke-linejoin="round"
         stroke-opacity="0.94118"
         stroke-width="0.99921"
         id="ellipse16638" />
      <ellipse
         transform="rotate(-23)"
         cx="427.26999"
         cy="353.03"
         rx="6.2007999"
         ry="0.88582999"
         fill="#e9c13a"
         opacity="0.99"
         stroke="#00000f"
         stroke-linejoin="round"
         stroke-opacity="0.94118"
         stroke-width="0.99921"
         id="ellipse16640" />
      <ellipse
         transform="rotate(-23)"
         cx="427.26999"
         cy="512.47998"
         rx="9.7440996"
         ry="4.4291"
         fill="#e9c13a"
         opacity="0.99"
         stroke="#00000f"
         stroke-linejoin="round"
         stroke-opacity="0.94118"
         stroke-width="0.99921"
         id="ellipse16642" />
      <ellipse
         transform="rotate(-23)"
         cx="427.26999"
         cy="512.47998"
         rx="6.2007999"
         ry="0.88582999"
         fill="#e9c13a"
         opacity="0.99"
         stroke="#00000f"
         stroke-linejoin="round"
         stroke-opacity="0.94118"
         stroke-width="0.99921"
         id="ellipse16644" />
      <path
         d="m 517.55,148.44 c -0.1526,-1.8624 -1.673,-4.008 -0.4459,-5.5847 3.8148,-3.1042 8.1525,-4.9763 13.046,-5.5379 1.2923,-0.069 2.4743,2.7324 3.7076,4.2002 -6.6479,0.2191 -11.892,2.857 -16.308,6.9224"
         fill="#e9c13a"
         fill-rule="evenodd"
         stroke="#000000"
         stroke-linejoin="round"
         stroke-width="0.99921"
         id="path16646" />
      <path
         d="m 591.06,321.65 c 1.2336,1.4034 1.7209,3.9877 3.7075,4.2003 4.8829,-0.58783 9.2428,-2.4077 13.046,-5.5379 0.9473,-0.88172 -0.2467,-3.678 -0.4459,-5.5847 -4.7756,4.6298 -10.316,6.5698 -16.308,6.9224"
         fill="#e9c13a"
         fill-rule="evenodd"
         stroke="#000000"
         stroke-linejoin="round"
         stroke-width="0.99921"
         id="path16648" />
      <circle
         transform="rotate(-23)"
         cx="427.26999"
         cy="319.37"
         r="1.7717"
         fill="#00000f"
         fill-opacity="0.94118"
         stroke="#00000f"
         stroke-linejoin="round"
         stroke-opacity="0.94118"
         stroke-width="0.99921"
         id="circle16650" />
      <circle
         transform="rotate(-23)"
         cx="427.26999"
         cy="546.14001"
         r="1.7717"
         fill="#00000f"
         fill-opacity="0.94118"
         stroke="#00000f"
         stroke-linejoin="round"
         stroke-opacity="0.94118"
         stroke-width="0.99921"
         id="circle16652" />
      <ellipse
         transform="rotate(23)"
         cx="626.44"
         cy="-56.598999"
         rx="8.8583002"
         ry="19.488001"
         fill="#dd1d1d"
         stroke="#00000f"
         stroke-linejoin="round"
         stroke-opacity="0.94118"
         stroke-width="0.99921"
         id="ellipse16654" />
      <path
         d="m 596.23,203.15 -31.843,75.017"
         fill="none"
         stroke="#1780ce"
         stroke-width="6.0236"
         id="path16656" />
      <path
         d="m 599.17,204.39 -31.843,75.017"
         fill="none"
         stroke="#000000"
         stroke-width="0.99921"
         id="path16658" />
      <path
         d="m 592.64,201.62 -31.843,75.017"
         fill="none"
         stroke="#000000"
         stroke-width="5.315"
         id="path16660" />
      <path
         d="m 588.26,199.22 1.1382,-7.2155 c 0.4065,-1.1062 1.4427,-2.7522 3.0152,-2.5694 0.394,0.11288 0.4736,-0.0225 1.6309,0.69224 0.8331,0.7128 0.8061,1.5274 0.9385,2.3231 l -1.8303,8.8463 1.8303,-8.8463 c 0.4573,-1.6988 1.1655,-2.6766 3.0154,-2.5694 2.1478,0.0504 2.5469,0.8321 3.2616,1.3845 1.5959,1.7469 0.4142,3.2939 0.2463,3.9538 l -5.092,7.4618 5.092,-7.4618 c 0.9045,-0.93903 1.6015,-0.8854 2.3231,-0.93859 0.8389,0.20814 1.4912,0.48261 1.6307,0.69222 1.5395,1.8563 0.3256,2.6955 0.2464,3.9539 l -4.3998,5.831"
         fill="none"
         stroke="#000000"
         stroke-width="1px"
         id="path16662" />
      <path
         d="m 524.19,350.18 -4.3997,5.831 c -0.5133,1.0609 -0.9775,2.9496 0.2463,3.9538 0.3548,0.20493 0.3128,0.35613 1.6308,0.69226 1.0915,0.10405 1.6587,-0.48116 2.3231,-0.93864 l 5.092,-7.4618 -5.092,7.4618 c -0.9044,1.509 -1.1158,2.6977 0.2463,3.9539 1.5284,1.5099 2.3679,1.254 3.2617,1.3845 2.3652,-0.0656 2.6571,-1.9902 3.0152,-2.5694 l 1.8304,-8.8462 -1.8304,8.8462 c -0.047,1.303 0.4757,1.767 0.9386,2.3231 0.7326,0.45881 1.3831,0.73731 1.6308,0.69222 2.4047,-0.18208 2.1651,-1.6383 3.0153,-2.5694 l 1.1381,-7.2155"
         fill="none"
         stroke="#000000"
         stroke-width="1px"
         id="path16664" />
      <ellipse
         transform="rotate(23)"
         cx="626.44"
         cy="-44.198002"
         rx="9.7440996"
         ry="4.4291"
         fill="#e9c13a"
         opacity="0.99"
         stroke="#00000f"
         stroke-linejoin="round"
         stroke-opacity="0.94118"
         stroke-width="0.99921"
         id="ellipse16666" />
      <ellipse
         transform="rotate(23)"
         cx="626.44"
         cy="-44.198002"
         rx="6.2007999"
         ry="0.88582999"
         fill="#e9c13a"
         opacity="0.99"
         stroke="#00000f"
         stroke-linejoin="round"
         stroke-opacity="0.94118"
         stroke-width="0.99921"
         id="ellipse16668" />
      <ellipse
         transform="rotate(23)"
         cx="626.44"
         cy="115.25"
         rx="9.7440996"
         ry="4.4291"
         fill="#e9c13a"
         opacity="0.99"
         stroke="#00000f"
         stroke-linejoin="round"
         stroke-opacity="0.94118"
         stroke-width="0.99921"
         id="ellipse16670" />
      <ellipse
         transform="rotate(23)"
         cx="626.44"
         cy="115.25"
         rx="6.2007999"
         ry="0.88582999"
         fill="#e9c13a"
         opacity="0.99"
         stroke="#00000f"
         stroke-linejoin="round"
         stroke-opacity="0.94118"
         stroke-width="0.99921"
         id="ellipse16672" />
      <path
         d="m 591.29,187.58 c 1.2336,-1.4034 1.7209,-3.9877 3.7075,-4.2003 4.8828,0.58783 9.2428,2.4076 13.046,5.5379 0.9472,0.88174 -0.2468,3.678 -0.4459,5.5847 -4.7756,-4.6298 -10.316,-6.5698 -16.308,-6.9224"
         fill="#1780ce"
         fill-rule="evenodd"
         stroke="#000000"
         stroke-linejoin="round"
         stroke-width="0.99921"
         id="path16674" />
      <path
         d="m 517.76,360.78 c -0.1526,1.8623 -1.673,4.008 -0.446,5.5847 3.8148,3.1041 8.1526,4.9762 13.046,5.5379 1.2923,0.0689 2.4744,-2.7324 3.7076,-4.2002 -6.6478,-0.21914 -11.892,-2.857 -16.308,-6.9224"
         fill="#dd1d1d"
         fill-rule="evenodd"
         stroke="#000000"
         stroke-linejoin="round"
         stroke-width="0.99921"
         id="path16676" />
      <circle
         transform="rotate(23)"
         cx="626.44"
         cy="-77.859001"
         r="1.7717"
         fill="#00000f"
         fill-opacity="0.94118"
         stroke="#00000f"
         stroke-linejoin="round"
         stroke-opacity="0.94118"
         stroke-width="0.99921"
         id="circle16678" />
      <circle
         transform="rotate(23)"
         cx="626.44"
         cy="148.91"
         r="1.7717"
         fill="#00000f"
         fill-opacity="0.94118"
         stroke="#00000f"
         stroke-linejoin="round"
         stroke-opacity="0.94118"
         stroke-width="0.99921"
         id="circle16680" />
    </g>
    <path
       d="m 558.13,1291.8 -9.9879,23.423 9.9879,22.598 9.568,-22.598 -9.568,-23.423"
       fill-rule="evenodd"
       stroke="#000000"
       stroke-width="1px"
       id="path16684" />
    <path
       d="m 558.07,1305 5.315,10.276 -5.315,10.276 -5.3149,-10.276 z"
       fill-rule="evenodd"
       stroke="#000000"
       stroke-width="0.5315"
       id="path16686" />
    <path
       d="m 558.07,1302.3 -0.88527,6.4928 0.88527,6.493 0.8856,-6.493 -0.8856,-6.4928"
       fill="#e9c13a"
       fill-rule="evenodd"
       stroke="#e9c13a"
       stroke-linecap="round"
       stroke-linejoin="round"
       stroke-width="1px"
       id="path16688" />
    <path
       d="m 558.07,1315.3 -0.88526,6.4931 0.88526,6.4933 0.88561,-6.4933 L 558.07,1315.3"
       fill="#e9c13a"
       fill-rule="evenodd"
       stroke="#e9c13a"
       stroke-linecap="round"
       stroke-linejoin="round"
       stroke-width="1px"
       id="path16690" />
    <path
       d="m 564.65,1315.3 -3.0384,-0.8676 -3.038,0.8676 3.038,0.8678 3.0384,-0.8678"
       fill="#e9c13a"
       fill-rule="evenodd"
       stroke="#e9c13a"
       stroke-linecap="round"
       stroke-linejoin="round"
       stroke-width="1px"
       id="path16692" />
    <path
       d="m 557.56,1315.3 -3.039,-0.8676 -3.0387,0.8676 3.0387,0.8678 3.039,-0.8678"
       fill="#e9c13a"
       fill-rule="evenodd"
       stroke="#e9c13a"
       stroke-linecap="round"
       stroke-linejoin="round"
       stroke-width="1px"
       id="path16694" />
  </g>
</svg>
