<?xml version="1.0" encoding="UTF-8" standalone="no"?>
<svg
   width="43.005013mm"
   height="88.005722mm"
   enable-background="new"
   version="1.1"
   viewBox="0 0 152.38109 311.83033"
   id="svg20076"
   sodipodi:docname="Mazzo.svg"
   inkscape:version="1.2.1 (9c6d41e410, 2022-07-14)"
   xmlns:inkscape="http://www.inkscape.org/namespaces/inkscape"
   xmlns:sodipodi="http://sodipodi.sourceforge.net/DTD/sodipodi-0.dtd"
   xmlns:xlink="http://www.w3.org/1999/xlink"
   xmlns="http://www.w3.org/2000/svg"
   xmlns:svg="http://www.w3.org/2000/svg"
   xmlns:rdf="http://www.w3.org/1999/02/22-rdf-syntax-ns#"
   xmlns:cc="http://creativecommons.org/ns#"
   xmlns:dc="http://purl.org/dc/elements/1.1/">
  <sodipodi:namedview
     id="namedview20078"
     pagecolor="#ffffff"
     bordercolor="#000000"
     borderopacity="0.25"
     inkscape:showpageshadow="2"
     inkscape:pageopacity="0.0"
     inkscape:pagecheckerboard="0"
     inkscape:deskcolor="#d1d1d1"
     inkscape:document-units="mm"
     showgrid="false"
     inkscape:zoom="2.8284271"
     inkscape:cx="196.57568"
     inkscape:cy="470.75634"
     inkscape:window-width="2560"
     inkscape:window-height="1409"
     inkscape:window-x="0"
     inkscape:window-y="31"
     inkscape:window-maximized="1"
     inkscape:current-layer="svg20076" />
  <title
     id="title2">Bresciane</title>
  <defs
     id="defs191">
    <pattern
       id="x"
       xlink:href="#i"
       patternTransform="translate(-118.94 816.91)" />
    <pattern
       id="i"
       width="3.542969"
       height="4.72461"
       patternTransform="translate(-52.264 805.51)"
       patternUnits="userSpaceOnUse">
      <path
         d="m0 0v0.53906l0.48242 0.64258-0.48242 0.64453v1.0742l0.48242 0.64258-0.48242 0.64258v0.53906h0.40625l-0.001953-0.00195 0.48047-0.64258 0.48438 0.64453h0.80664l0.48242-0.64258 0.48242 0.64258h0.40234v-0.53711l-0.48242-0.64258 0.48242-0.64453v-1.0762l-0.48242-0.64258 0.48242-0.64453v-0.53711h-0.40234l-0.48242 0.64258-0.48242-0.64258h-0.80664l-0.48242 0.64453-0.48242-0.64258 0.001953-0.00195h-0.40625zm1.7715 0.53711 0.48242 0.64453-0.48242 0.64258-0.48242-0.64258 0.48242-0.64453zm-0.88476 1.1816 0.48242 0.64258-0.48438 0.64453-0.48242-0.64258 0.48438-0.64453zm1.7715 0 0.48242 0.64453-0.48242 0.64258-0.48438-0.64258 0.48438-0.64453zm-0.88672 1.1816 0.48242 0.64258-0.48242 0.64453-0.48242-0.64453 0.48242-0.64258z"
         color="#000000"
         color-rendering="auto"
         enable-background="accumulate"
         fill-rule="evenodd"
         image-rendering="auto"
         shape-rendering="auto"
         solid-color="#000000"
         style="block-progression:tb;isolation:auto;mix-blend-mode:normal;text-decoration-color:#000000;text-decoration-line:none;text-decoration-style:solid;text-indent:0;text-transform:none;white-space:normal"
         id="path33" />
    </pattern>
    <pattern
       id="v"
       xlink:href="#i"
       patternTransform="translate(-5.7287 811.16)" />
  </defs>
  <metadata
     id="metadata193">
    <rdf:RDF>
      <cc:Work
         rdf:about="">
        <dc:format>image/svg+xml</dc:format>
        <dc:type
           rdf:resource="http://purl.org/dc/dcmitype/StillImage" />
        <dc:title>Bresciane</dc:title>
        <dc:date>2020</dc:date>
        <dc:creator>
          <cc:Agent>
            <dc:title>ZZandro</dc:title>
          </cc:Agent>
        </dc:creator>
        <dc:rights>
          <cc:Agent>
            <dc:title />
          </cc:Agent>
        </dc:rights>
        <cc:license
           rdf:resource="http://creativecommons.org/licenses/by-sa/4.0/" />
      </cc:Work>
      <cc:License
         rdf:about="http://creativecommons.org/licenses/by-sa/4.0/">
        <cc:permits
           rdf:resource="http://creativecommons.org/ns#Reproduction" />
        <cc:permits
           rdf:resource="http://creativecommons.org/ns#Distribution" />
        <cc:requires
           rdf:resource="http://creativecommons.org/ns#Notice" />
        <cc:requires
           rdf:resource="http://creativecommons.org/ns#Attribution" />
        <cc:permits
           rdf:resource="http://creativecommons.org/ns#DerivativeWorks" />
        <cc:requires
           rdf:resource="http://creativecommons.org/ns#ShareAlike" />
      </cc:License>
    </rdf:RDF>
  </metadata>
  <g
     id="g7376"
     style="display:inline"
     transform="translate(-1916.9001,-637.77567)">
    <g
       transform="matrix(0.97008,0,0,0.9964,951,-1109.7)"
       enable-background="new"
       fill="#f4f2ef"
       id="g6922">
      <g
         transform="matrix(0.70046,0,0,1.0004,298.31,-0.79223)"
         fill="#f4f2ef"
         id="g6920">
        <rect
           x="996.13"
           y="1754.4"
           width="223.23"
           height="311.81"
           rx="10.63"
           ry="10.63"
           fill="#f4f2ef"
           stroke="#000000"
           stroke-width="0.99673"
           id="rect6918" />
      </g>
    </g>
    <g
       transform="matrix(0.76704,0,0,0.8945,1169.1,-915.04)"
       enable-background="new"
       fill="none"
       id="g6928">
      <g
         transform="matrix(0.70046,0,0,1.0004,298.31,-0.79223)"
         fill="none"
         id="g6926">
        <rect
           x="996.13"
           y="1754.4"
           width="223.23"
           height="311.81"
           rx="10.63"
           ry="10.63"
           fill="none"
           stroke="#000000"
           stroke-width="0.99673"
           id="rect6924" />
      </g>
    </g>
    <g
       transform="translate(1916.9,-102.78)"
       id="g7374">
      <path
         d="m 95.377,807.58 h 0.11328 v 0.11328 z m 5.1055,-2.7305 c -0.46982,0.0267 -0.74238,0.42585 -1.2559,0.46094 -0.57788,0.0398 -1.0286,-0.3701 -1.5859,-0.4375 -0.60034,-0.0725 -1.5853,0.58112 -0.83203,1.1445 0.22469,0.16843 0.67235,0.18729 0.94531,0.21289 0.96939,0.0927 2.857,-0.0772 2.9434,-1.3672 -0.0764,-0.0136 -0.14773,-0.0175 -0.21485,-0.0137 z m -2.3887,-1.2891 c -0.27678,0.0578 -0.47822,0.34157 -0.20898,0.57617 0.23934,0.20845 0.63429,0.33008 0.94531,0.33008 0.18253,-9.7e-4 0.54498,-0.11311 0.30469,-0.35351 -0.28006,-0.28018 -0.74795,-0.17323 -1.041,-0.55274 z m -22.131,-0.59375 c -0.20236,0.0237 -0.36299,0.26078 -0.14844,0.40039 0.16393,0.1074 0.46913,0.10366 0.6543,0.0684 0.62825,-0.11971 -0.20299,-0.5021 -0.50586,-0.4668 v -0.002 z m 22.473,-0.64844 c -0.40631,0.002 -0.16016,0.47248 0.02344,0.59766 0.537,0.36699 1.2575,0.60387 1.8418,0.90234 0.21494,0.11039 0.53256,0.29332 0.78516,0.23243 0.20154,-0.0483 0.20624,-0.30551 0.0469,-0.40821 -0.5773,-0.37212 -1.2957,-0.59465 -1.9062,-0.91992 -0.22927,-0.12212 -0.5207,-0.4053 -0.79102,-0.4043 z m 0.45117,-1.1484 c -0.61802,-0.0149 -0.04408,0.764 0.17383,0.90039 0.81189,0.50998 1.6808,0.81667 2.5664,1.1543 1.0968,0.41821 2.3708,0.89668 3.543,0.39649 0.17468,-0.0746 0.60622,-0.35925 0.31446,-0.56641 -0.18235,-0.12999 -0.4624,0.002 -0.6543,0.0371 -0.39792,0.0737 -0.84286,0.12218 -1.2441,0.0469 -0.98537,-0.18423 -2.1752,-0.44366 -3.0586,-0.93165 -0.43404,-0.23973 -1.1574,-1.0211 -1.6406,-1.0371 z m -0.38867,-2.2031 c -0.24391,0.0623 -0.20677,0.51007 -0.12109,0.67969 0.23045,0.45638 0.90225,0.90977 1.3027,1.2148 1.5171,1.1558 3.7975,2.2148 5.6602,1.3457 0.19729,-0.0919 1.1387,-0.54768 0.71094,-0.84374 -0.31587,-0.21857 -1.2976,0.27387 -1.6738,0.33007 -0.96689,0.14426 -1.9878,-0.13096 -2.8301,-0.58398 -0.77206,-0.41511 -1.5479,-0.93499 -2.166,-1.5586 -0.18046,-0.18212 -0.582,-0.66109 -0.88281,-0.58399 z m 0.90234,-1.4922 c -0.07327,-0.0184 -0.14643,-0.0174 -0.21875,0.01 -0.22082,0.0833 -0.2144,0.45667 -0.14062,0.63672 0.17794,0.43438 0.69121,0.98619 1.0352,1.3066 1.0908,1.0161 2.51,1.4353 3.9609,1.416 0.41256,-0.005 1.2421,-0.0426 1.5684,-0.32422 0.19828,-0.17088 0.0889,-0.40914 -0.15235,-0.43164 -0.62932,-0.0566 -1.2424,0.17955 -1.8672,0.15235 -1.1263,-0.0497 -1.9715,-0.5784 -2.8223,-1.2598 -0.32855,-0.26298 -0.85039,-1.3773 -1.3633,-1.5059 z m -0.73633,-5.4824 c -0.08852,-0.0283 -0.17587,-10e-4 -0.21094,0.14258 -0.12143,0.49857 0.29069,1.2819 0.43945,1.748 0.45933,1.4402 0.9144,2.8859 1.7832,4.1309 0.79564,1.14 2.0975,1.6487 3.4746,1.6328 0.35082,-0.004 1.9048,-0.32028 1.2617,-0.9668 -0.35088,-0.35351 -1.0024,0.0338 -1.375,0.12695 -0.57154,0.14265 -1.3789,0.0126 -1.8438,-0.36914 -1.3901,-1.1414 -1.8352,-2.9109 -2.457,-4.5 -0.15618,-0.39909 -0.40578,-1.6672 -0.84961,-1.7539 -0.04354,-0.0786 -0.13414,-0.16309 -0.22266,-0.19141 z m -22.773,-0.76953 c -0.45859,-0.13205 -0.5482,0.98289 -0.5957,1.2441 -0.23342,1.2834 -0.64232,2.7446 0.04102,3.9629 0.31674,-0.27906 0.25788,-0.69041 0.30859,-1.0762 0.12682,-0.96458 0.13112,-1.9712 0.20703,-2.9434 0.01924,-0.24633 0.39049,-1.0864 0.03906,-1.1875 z m 23.223,-3.9648 c -0.30405,0.63546 0.38608,1.7132 0.53516,2.377 0.10797,0.48412 0.03498,0.99366 0.11328,1.4727 0.29294,1.7944 0.84584,3.4998 1.7109,5.0957 0.3704,0.68329 1.2187,2.3648 2.2246,1.9238 h 0.002 c -0.66172,-1.3848 -1.6723,-2.5761 -2.3281,-3.9629 -0.62828,-1.3284 -0.8342,-2.9736 -1.0156,-4.416 -0.10593,-0.84199 -0.23413,-2.2906 -1.2422,-2.4902 z m 6,-1.8106 c 0.0835,0.49134 0.33388,0.93795 0.47461,1.4141 0.27388,0.92639 0.47892,1.9302 0.60938,2.8867 0.0323,0.23669 0.0619,1.3684 0.49023,1.1309 0.42079,-0.23316 0.24917,-1.2506 0.19727,-1.6387 -0.11764,-0.87871 -0.27964,-1.7505 -0.53321,-2.6055 -0.0839,-0.2829 -0.19982,-0.78314 -0.42578,-0.98438 -0.16894,-0.14934 -0.59127,-0.17102 -0.8125,-0.20312 z m -1.5801,-0.1543 c -0.0427,0.008 -0.0821,0.0292 -0.11523,0.0742 -0.12133,0.16496 0.0618,0.48727 0.12891,0.64453 0.22742,0.535 0.33948,1.0928 0.51367,1.6426 0.54989,1.7355 0.49256,3.6341 1.3203,5.2656 0.31876,0.6284 0.91325,1.5541 1.7109,1.1367 0.45944,-0.24038 0.66431,-0.83238 0.88281,-1.2676 0.79645,-1.5864 0.60273,-3.4887 0.0547,-5.1348 -0.14537,-0.43663 -0.19881,-1.4562 -0.57227,-1.7539 -0.1683,-0.13476 -0.54721,-0.18166 -0.75781,-0.22656 0.29759,0.79704 0.50894,1.6616 0.70117,2.4902 0.1619,0.69758 0.1008,1.3909 0.0918,2.0938 -0.006,0.46616 0.0692,0.84185 -0.0781,1.3027 -0.18013,0.56278 -0.81192,1.1015 -1.3105,0.50391 -0.44443,-0.5326 -0.4192,-1.5466 -0.4961,-2.2031 -0.14167,-1.2103 -0.53085,-2.5196 -0.88086,-3.6797 -0.17347,-0.5748 -0.27938,-0.60837 -0.79687,-0.76562 -0.11043,-0.0361 -0.26841,-0.14613 -0.39649,-0.12305 z m -2.7051,-0.89648 c -0.0573,-0.0127 -0.11338,-0.0108 -0.16796,0.0117 -0.30682,0.12565 0.0526,0.60396 0.15625,0.75 0.54788,0.77121 1.0534,1.4372 1.293,2.3828 0.117,0.46198 0.34931,0.89321 0.44921,1.3594 0.41429,1.9367 0.56138,3.9441 1.5254,5.7168 0.33582,0.61748 1.038,1.7652 1.7656,1.8984 0.3397,0.0624 0.69731,-0.078 1.0195,-0.17578 2.7864,-0.84951 3.7225,-4.6457 3.0684,-7.2129 -0.18885,-0.74104 -0.30295,-1.6356 -0.63281,-2.3223 -0.0836,-0.17396 -0.27591,-0.61133 -0.50977,-0.61133 -0.21368,0 -0.22356,0.35363 -0.22656,0.49805 -0.0117,0.54157 0.19025,1.1329 0.36133,1.6426 0.59095,1.7613 0.49198,4.3376 -0.77539,5.7734 -0.53299,0.60386 -1.0828,1.2802 -1.9648,1.0332 -0.89431,-0.25049 -1.3527,-1.4376 -1.6055,-2.2207 -0.10677,-0.33072 -0.30894,-0.63135 -0.40234,-0.9629 -0.18566,-0.6592 -0.15073,-1.3712 -0.27734,-2.0391 -0.21618,-1.1398 -0.5546,-2.1503 -0.96094,-3.2266 -0.36627,-0.97005 -0.59426,-1.65 -1.623,-2.043 -0.14282,-0.0546 -0.32012,-0.21401 -0.49219,-0.25195 z m -2.1894,-0.66016 c -0.11247,-0.0138 -0.23437,-0.004 -0.37109,0.0371 -0.42758,0.12902 0.06568,0.59137 0.23047,0.74219 1.0252,0.93748 1.4819,1.9648 2.0352,3.1953 0.59746,1.329 0.55552,2.6748 0.81446,4.0762 0.23805,1.2886 0.87483,2.6549 1.5098,3.793 0.39826,0.71392 1.0397,1.8124 1.8047,2.1836 0.4972,0.24069 1.6679,0.21848 2.207,0.10937 3.184,-0.64187 4.6883,-4.7832 4.584,-7.6719 -0.0329,-0.91257 -0.0648,-1.9687 -0.39062,-2.8301 -0.18873,-0.49891 -0.27799,-0.9236 -0.91016,-0.9043 -0.15311,0.005 -0.32768,0.0353 -0.30468,0.22852 0.0309,0.26043 0.25217,0.48418 0.33007,0.73242 0.22329,0.71184 0.3561,1.4785 0.50196,2.209 0.15343,0.7672 0.0391,1.6176 -0.0977,2.377 -0.31945,1.775 -0.91845,3.5708 -2.5254,4.543 -0.73701,0.44643 -1.8541,0.90433 -2.7168,0.57618 -1.0821,-0.41177 -1.9392,-1.9373 -2.3008,-2.9688 -0.25282,-0.72131 -0.56696,-1.4634 -0.74218,-2.207 -0.13685,-0.58185 -0.10438,-1.1746 -0.20118,-1.7558 -0.19393,-1.1645 -0.55992,-2.4088 -0.98047,-3.5098 -0.34514,-0.9036 -0.97752,-1.7027 -1.6387,-2.3926 -0.25492,-0.26599 -0.50048,-0.52107 -0.83789,-0.5625 z m -25.664,-1.5449 c -0.28799,-0.005 -0.49027,0.57427 -0.57226,0.76367 -0.37014,0.85467 -0.26354,1.8788 -0.0625,2.7734 0.15222,0.67765 0.72802,1.3699 0.97461,2.0391 0.21236,0.57673 0.21918,1.3721 0.20312,1.9805 -0.03776,1.4372 -1.0562,2.6462 -1.2793,4.0762 -0.31028,1.9893 0.7674,3.974 1.6895,5.6621 0.29727,0.5443 0.57938,1.2503 0.65625,1.8672 0.03772,0.3028 -0.12533,0.85963 0.05859,1.1055 0.18268,0.24429 0.53264,0.25904 0.80664,0.31054 0.10671,-0.42732 -0.2461,-0.92081 -0.31445,-1.3594 -0.07003,-0.44948 0.0059,-0.86397 -0.16211,-1.3008 -0.60086,-1.5626 -1.8404,-2.9254 -2.0039,-4.6426 -0.07702,-0.80171 -0.19707,-1.6417 0.0039,-2.4336 0.15148,-0.59662 0.53874,-1.1877 0.76562,-1.7617 0.17117,-0.43309 0.18792,-0.94881 0.22852,-1.4102 0.05859,-0.6653 0.05591,-1.6908 -0.17188,-2.3203 -0.19383,-0.53582 -0.58438,-0.99108 -0.75586,-1.5293 -0.25097,-0.78791 -0.37065,-1.9735 -0.10352,-2.7734 0.07506,-0.22448 0.4456,-0.83496 0.16797,-1.0059 -0.04447,-0.0274 -0.08777,-0.0403 -0.12891,-0.041 z m 1.2344,-0.10352 c -0.25248,0.0817 -0.35829,0.48481 -0.46484,0.69727 -0.38939,0.77682 -0.50295,2.0418 -0.22852,2.8789 0.1734,0.52892 0.52177,0.96714 0.70508,1.4805 0.24913,0.69709 0.34554,1.6411 0.32227,2.3789 -0.01834,0.58089 -0.0815,1.3185 -0.28711,1.8672 -0.26505,0.70717 -0.71884,1.3925 -0.82812,2.1504 -0.25667,1.7807 0.55989,3.2311 1.4062,4.6992 0.62464,1.0835 0.78348,2.2751 1.2539,3.3965 0.14781,0.35223 0.41569,0.91816 0.92773,0.74805 0.2957,-0.0985 0.09529,-0.8 -0.01367,-0.97266 -0.65906,-1.0426 -0.9939,-2.218 -1.5957,-3.2852 -0.63602,-1.1276 -1.2585,-2.1824 -1.3145,-3.5098 -0.04795,-1.1371 0.60304,-2.0892 0.8125,-3.1699 0.3538,-1.8256 0.07802,-4.0774 -0.66602,-5.7734 -0.54577,-1.244 -0.07245,-2.0056 0.25781,-3.1719 0.05491,-0.19401 -0.02177,-0.49907 -0.28711,-0.41407 z m 1.3516,-0.0586 c -0.49487,-0.0228 -0.35371,0.56617 -0.50391,0.86914 -0.64606,1.3033 -0.35811,2.2573 0.05078,3.5664 0.07592,0.24312 0.17753,1.2572 0.50977,1.2188 0.46747,-0.0531 0.0073,-0.97868 -0.03906,-1.2168 -0.25056,-1.2884 -0.1534,-2.3746 0.21484,-3.625 0.07332,-0.24905 0.1446,-0.7948 -0.23242,-0.8125 z"
         fill="#1780ce"
         fill-rule="evenodd"
         id="path6930" />
      <path
         d="m 80.26,780.72 c -0.87928,0.0142 -1.7586,0.0594 -2.6035,0.11719 -0.6171,0.0418 -1.2568,-0.0652 -1.8691,0.0312 -0.38654,0.0609 -0.70264,0.26907 -1.0742,0.34961 -0.71024,0.15406 -1.4808,0.0702 -2.1504,0.39063 -0.48027,0.23027 -0.68681,1.0253 -0.81836,1.498 -0.23918,0.85948 -0.32228,1.8524 -0.04102,2.7188 0.28159,0.86719 0.94631,1.7142 1.0801,2.627 0.32869,2.2427 -1.0968,4.1335 -1.0703,6.373 0.02488,2.1127 1.3403,3.6139 2.0352,5.4922 0.27716,0.74891 0.002,1.5904 0.49609,2.2637 0.26652,0.36315 0.70989,0.45608 1.0254,0.75391 0.27761,0.26189 0.36987,0.72443 0.80078,0.76758 0.56017,0.0562 0.78397,-0.31502 1.2461,-0.50196 0.09352,-0.0378 0.13562,-0.0184 0.16797,0.0137 0.51475,1.2029 0.98708,2.0535 1.4512,2.7734 0.05138,0.31115 0.0811,0.6296 0.11328,0.94727 -0.007,0.0649 0.0014,0.12907 0.02344,0.19336 0.04638,0.48402 0.08896,0.9729 0.1543,1.4707 0.11693,0.89327 -0.37643,1.7185 0.82227,1.6055 0.001,-0.44468 -0.08052,-1.5854 0.60547,-1.5684 0.12225,0 0.24722,0.0303 0.37305,0.0723 0.99654,0.73401 1.8379,1.2755 2.7578,1.5156 1.4107,0.36818 2.8961,-0.0154 5.2051,-1.1719 1.3775,-0.68993 3.5369,-1.3366 5.918,-3.0703 0.27701,0.50678 0.87918,0.53269 1.373,0.66211 1.4438,0.37807 3.2467,0.11027 4.4727,-0.78515 0.35534,-0.25982 0.71058,-0.58349 1.002,-0.91407 0.14731,-0.16688 0.19664,-0.41523 0.41797,-0.50781 0.31379,-0.13159 0.68896,0.0268 1.0137,0.0156 0.92535,-0.053 2.0172,-0.17416 2.7734,-0.75586 0.79491,-0.61155 1.4248,-2.1087 1.5195,-3.0879 0.0513,-0.53114 -0.15179,-1.2667 0.0918,-1.7539 0.37479,-0.74954 1.3325,-1.159 1.8808,-1.7656 1.0318,-1.1414 2.0941,-2.897 2.4238,-4.4062 0.23299,-1.0663 0.52666,-2.1834 0.47852,-3.2832 -0.0275,-0.63146 -0.0837,-1.3009 -0.18555,-1.9238 -0.0578,-0.35319 -0.19555,-0.6527 -0.14062,-1.0195 0.0468,-0.31276 0.2618,-0.56462 0.38476,-0.84961 v -0.008 c -0.75121,-0.0787 -1.6095,-0.11977 -2.3203,-0.40234 -0.45787,-0.18197 -0.85092,-0.61034 -1.3027,-0.7461 -0.66613,-0.20025 -1.3812,-0.025 -2.0371,-0.19336 -1.9224,-0.492 -3.8232,-1.1041 -5.7754,-1.5293 -1.3648,-0.29735 -2.7607,-0.43171 -4.1309,-0.67383 -0.53332,-0.0946 -0.99264,-0.37587 -1.5293,-0.45899 -0.91799,-0.14122 -1.8525,-0.0938 -2.7734,-0.2539 -0.32058,-0.0562 -0.57169,-0.28208 -0.90625,-0.31836 -1.5133,-0.16463 -3.0286,0.0245 -4.5293,-0.0156 -0.75738,-0.0177 -1.5622,-0.16105 -2.3203,-0.23437 -0.65056,-0.0625 -1.2756,-0.33066 -1.9238,-0.38281 -0.84603,-0.0682 -1.7262,-0.0846 -2.6055,-0.0703 z m -4.6992,1.3047 c 0.37702,0.0177 0.30574,0.56345 0.23242,0.8125 -0.36824,1.2504 -0.4654,2.3366 -0.21484,3.625 0.04637,0.23812 0.50653,1.1637 0.03906,1.2168 -0.33224,0.0384 -0.43385,-0.97563 -0.50977,-1.2188 -0.40889,-1.3091 -0.69684,-2.2631 -0.05078,-3.5664 0.1502,-0.30297 0.009,-0.89193 0.50391,-0.86914 z m -1.3516,0.0586 c 0.26534,-0.085 0.34202,0.22006 0.28711,0.41407 -0.33026,1.1663 -0.80358,1.9279 -0.25781,3.1719 0.74403,1.696 1.0198,3.9478 0.66602,5.7734 -0.20946,1.0808 -0.86045,2.0328 -0.8125,3.1699 0.05599,1.3274 0.67844,2.3822 1.3145,3.5098 0.60181,1.0671 0.93664,2.2426 1.5957,3.2852 0.10896,0.17266 0.30938,0.87414 0.01367,0.97266 -0.51204,0.17011 -0.77993,-0.39582 -0.92773,-0.74805 -0.47043,-1.1214 -0.62926,-2.313 -1.2539,-3.3965 -0.84636,-1.4682 -1.6629,-2.9185 -1.4062,-4.6992 0.10928,-0.7579 0.56308,-1.4432 0.82812,-2.1504 0.20561,-0.54865 0.26877,-1.2863 0.28711,-1.8672 0.02327,-0.73785 -0.07314,-1.6818 -0.32227,-2.3789 -0.1833,-0.51332 -0.53167,-0.95154 -0.70508,-1.4805 -0.27443,-0.83716 -0.16088,-2.1021 0.22852,-2.8789 0.10655,-0.21246 0.21236,-0.6156 0.46484,-0.69727 z m -1.2344,0.10352 c 0.04114,7.2e-4 0.08443,0.0136 0.12891,0.041 0.27763,0.1709 -0.09291,0.78137 -0.16797,1.0059 -0.26713,0.79993 -0.14746,1.9855 0.10352,2.7734 0.17148,0.53822 0.56203,0.99348 0.75586,1.5293 0.22779,0.62951 0.23046,1.655 0.17188,2.3203 -0.0406,0.46135 -0.05734,0.97707 -0.22852,1.4102 -0.22689,0.57401 -0.61414,1.1651 -0.76562,1.7617 -0.20097,0.79191 -0.08093,1.6319 -0.0039,2.4336 0.16348,1.7172 1.403,3.0799 2.0039,4.6426 0.16796,0.43681 0.09208,0.8513 0.16211,1.3008 0.06835,0.43856 0.42117,0.93205 0.31445,1.3594 -0.274,-0.0515 -0.62396,-0.0662 -0.80664,-0.31054 -0.18393,-0.24584 -0.02087,-0.80267 -0.05859,-1.1055 -0.07687,-0.61685 -0.35898,-1.3229 -0.65625,-1.8672 -0.92206,-1.6881 -1.9997,-3.6728 -1.6895,-5.6621 0.2231,-1.4299 1.2415,-2.639 1.2793,-4.0762 0.01605,-0.60834 0.0092,-1.4037 -0.20312,-1.9805 -0.24659,-0.66916 -0.82239,-1.3614 -0.97461,-2.0391 -0.20104,-0.89462 -0.30764,-1.9188 0.0625,-2.7734 0.082,-0.1894 0.28428,-0.76868 0.57226,-0.76367 z m 7.8691,0.10156 c 1.1432,0.0628 2.266,0.31428 3.3906,0.4336 2.9711,0.31181 6.0273,0.38958 8.9629,0.88672 -4.5e-4,-0.006 -0.0014,-0.01 -0.002,-0.0156 0.21374,0.0429 0.41528,0.0874 0.60352,0.13086 -0.0034,10e-4 -0.0083,0.002 -0.01172,0.004 1.6733,0.35225 2.5539,0.11322 3.5645,0.94921 0.07264,0.0953 0.10553,0.15158 0.22461,0.47461 0.18744,0.50849 0.19322,1.169 0.22266,1.6992 0.05311,0.95623 0.1847,1.8254 -0.12891,2.7734 -0.27439,0.82945 -1.0571,1.6133 -0.91992,2.5469 0.15999,1.0885 1.1844,1.8934 1.6016,2.8867 0.11281,0.26847 0.32072,0.66875 0.2832,0.96289 -0.06049,0.47403 -0.26043,1.1427 -0.53906,1.5293 -0.28406,0.39394 -0.75883,0.75759 -0.88281,1.2441 -0.1165,0.45718 -0.0084,1.0031 -0.0293,1.4727 -0.0467,1.0678 -0.19374,2.0085 -0.73438,2.9434 -0.25303,0.43752 -0.54017,0.86528 -0.82031,1.2949 -2.7492,2.4742 -5.2733,3.1438 -7.0879,4.0527 -0.53062,0.26578 -0.99338,0.47502 -1.418,0.64844 -0.07473,0.0303 -0.1511,0.0554 -0.22656,0.084 -0.22431,0.0864 -0.4214,0.14418 -0.62109,0.20507 -0.45975,0.12952 -0.91584,0.21089 -1.332,0.16602 -1.0701,-0.11565 -2.0187,-0.48638 -2.8555,-1.0352 -0.1594,-0.11043 -0.39135,-0.28778 -0.56445,-0.41406 -1.4895,-1.1924 -2.5731,-2.9687 -3.3301,-4.8184 -0.11219,-0.36932 -0.27384,-0.87333 -0.49805,-1.5625 -0.22859,-0.70264 -0.30016,-1.4204 -0.57422,-2.459 -0.03406,-0.35845 -0.07489,-0.71447 -0.1543,-1.0645 -0.24442,-1.0706 -0.57446,-2.6601 -0.54883,-4.1055 -0.11472,1.4002 0.03805,-0.44077 0.08008,-0.93554 0.08037,-0.52474 0.22386,-1.0074 0.46875,-1.4043 0.56657,-0.93048 2.0713,0.11226 2.8359,-0.0508 0.54709,-0.11693 0.91205,-0.89988 1.4492,-1.1504 l -0.47656,1.6719 c 0.75012,0 1.058,0.18176 0.78906,0.95704 -0.26929,0.77881 -0.13874,1.5923 -0.33008,2.3906 -0.18071,0.76146 -0.77365,1.4674 -0.22266,2.2441 0.29409,0.41279 1.2663,1.1202 1.791,1.0508 0.40146,-0.0531 0.66585,-0.46273 1.0762,-0.47265 0.46205,0 0.82582,0.40462 1.3145,0.39257 1.1083,-0.0354 1.6904,-1.3509 1.3145,-2.2598 h -0.24023 c -0.22323,0.37985 -0.4368,0.88455 -0.8418,1.1074 -0.36531,0.20197 -0.805,-0.0338 -1.1895,-0.0586 -0.82772,-0.0602 -1.9938,0.35005 -2.4785,-0.57227 -0.27638,-0.52335 0.18009,-1.7891 0.2793,-2.3887 0.29764,-1.8446 0.93014,-3.6495 1.1406,-5.498 0.0673,-0.6013 0.34658,-1.1676 0.18359,-1.7891 -0.16299,-0.6222 -0.69562,-0.47902 -1.1562,-0.70508 -1.164,-0.57083 -1.9803,-1.0584 -3.3477,-1.041 -0.36851,0 -1.2851,0.77198 -1.4941,0.27734 -0.14882,-0.35079 0.16959,-0.83241 0.26172,-1.1641 0.30118,-1.063 0.74458,-2.3905 2.0684,-2.5039 0.38648,-0.0328 0.76931,-0.0326 1.1504,-0.0117 z m 17.795,1.4433 c 0.33741,0.0414 0.58297,0.29651 0.83789,0.5625 0.66115,0.68984 1.2935,1.489 1.6387,2.3926 0.42055,1.101 0.78654,2.3452 0.98047,3.5098 0.0968,0.58123 0.0643,1.174 0.20118,1.7558 0.17521,0.74365 0.48936,1.4857 0.74218,2.207 0.36156,1.0315 1.2187,2.557 2.3008,2.9688 0.86274,0.32815 1.9798,-0.12975 2.7168,-0.57618 1.6069,-0.97211 2.2059,-2.768 2.5254,-4.543 0.13671,-0.75934 0.25109,-1.6098 0.0977,-2.377 -0.14586,-0.73046 -0.27867,-1.4971 -0.50196,-2.209 -0.0779,-0.24824 -0.29921,-0.47199 -0.33007,-0.73242 -0.023,-0.19322 0.15157,-0.22371 0.30468,-0.22852 0.63217,-0.0193 0.72143,0.40539 0.91016,0.9043 0.32586,0.86139 0.35771,1.9175 0.39062,2.8301 0.1043,2.8886 -1.4,7.03 -4.584,7.6719 -0.53909,0.10911 -1.7098,0.13132 -2.207,-0.10937 -0.76501,-0.37117 -1.4064,-1.4697 -1.8047,-2.1836 -0.63493,-1.138 -1.2717,-2.5044 -1.5098,-3.793 -0.25894,-1.4014 -0.217,-2.7472 -0.81446,-4.0762 -0.55323,-1.2305 -1.0099,-2.2578 -2.0352,-3.1953 -0.16479,-0.15082 -0.65805,-0.61317 -0.23047,-0.74219 0.13672,-0.0413 0.25862,-0.0509 0.37109,-0.0371 z m 2.1894,0.66016 c 0.17208,0.0379 0.34937,0.19732 0.49219,0.25195 1.0288,0.39298 1.2568,1.0729 1.623,2.043 0.40634,1.0763 0.74476,2.0867 0.96094,3.2266 0.12661,0.66788 0.0917,1.3799 0.27734,2.0391 0.0934,0.33155 0.29557,0.63218 0.40234,0.9629 0.25277,0.7831 0.71116,1.9702 1.6055,2.2207 0.88209,0.24696 1.4319,-0.42934 1.9648,-1.0332 1.2674,-1.4359 1.3663,-4.0121 0.77539,-5.7734 -0.17108,-0.50966 -0.37305,-1.101 -0.36133,-1.6426 0.003,-0.14442 0.0129,-0.49805 0.22656,-0.49805 0.23386,0 0.4262,0.43737 0.50977,0.61133 0.32986,0.68664 0.44396,1.5812 0.63281,2.3223 0.65418,2.5672 -0.28192,6.3634 -3.0684,7.2129 -0.32222,0.0978 -0.67983,0.23819 -1.0195,0.17578 -0.72763,-0.1332 -1.4298,-1.281 -1.7656,-1.8984 -0.96401,-1.7727 -1.1111,-3.7801 -1.5254,-5.7168 -0.0999,-0.46616 -0.33221,-0.89739 -0.44921,-1.3594 -0.23959,-0.94565 -0.74509,-1.6116 -1.293,-2.3828 -0.10366,-0.14604 -0.46307,-0.62435 -0.15625,-0.75 0.0546,-0.0225 0.11062,-0.0244 0.16796,-0.0117 z m 2.7051,0.89648 c 0.12808,-0.0231 0.28606,0.087 0.39649,0.12305 0.51749,0.15725 0.6234,0.19082 0.79687,0.76562 0.35001,1.16 0.73919,2.4694 0.88086,3.6797 0.0769,0.65648 0.0517,1.6705 0.4961,2.2031 0.49862,0.59759 1.1304,0.0589 1.3105,-0.50391 0.14732,-0.46088 0.0721,-0.83657 0.0781,-1.3027 0.009,-0.70285 0.0701,-1.3962 -0.0918,-2.0938 -0.19223,-0.82865 -0.40358,-1.6932 -0.70117,-2.4902 0.2106,0.0449 0.58951,0.0918 0.75781,0.22656 0.37346,0.29767 0.4269,1.3173 0.57227,1.7539 0.54804,1.6461 0.74176,3.5484 -0.0547,5.1348 -0.2185,0.43519 -0.42337,1.0272 -0.88281,1.2676 -0.79769,0.41738 -1.3922,-0.50831 -1.7109,-1.1367 -0.82775,-1.6315 -0.77042,-3.5302 -1.3203,-5.2656 -0.17419,-0.54976 -0.28626,-1.1076 -0.51367,-1.6426 -0.0671,-0.15726 -0.25024,-0.47957 -0.12891,-0.64453 0.0331,-0.0451 0.0725,-0.0665 0.11523,-0.0742 z m 1.5801,0.1543 c 0.22123,0.0321 0.64356,0.0538 0.8125,0.20312 0.22596,0.20124 0.34189,0.70148 0.42578,0.98438 0.25357,0.85498 0.41557,1.7268 0.53321,2.6055 0.0519,0.38802 0.22352,1.4055 -0.19727,1.6387 -0.42836,0.2375 -0.45797,-0.89417 -0.49023,-1.1309 -0.13046,-0.95656 -0.3355,-1.9603 -0.60938,-2.8867 -0.14073,-0.47611 -0.39112,-0.92272 -0.47461,-1.4141 z m -25.877,1.2773 c 0.9703,-0.0115 2.418,0.37367 3.0508,0.89453 0.38941,0.32244 0.72212,1.5427 0,1.7266 -0.38303,0.0992 -0.72853,-0.38538 -1.0566,-0.51368 -0.83622,-0.32596 -1.8332,-0.8054 -2.7441,-0.56835 -0.48508,0.12756 -0.76454,1.3767 -1.1543,1.1758 -0.57968,-0.29763 -0.53596,-1.7739 -0.10156,-2.1602 0.31536,-0.27992 1.1953,-0.45842 1.6113,-0.52539 h 0.01172 c 0.11542,-0.0186 0.2442,-0.0276 0.38281,-0.0293 z m 10.074,0.19532 c -0.18483,-0.007 -0.36958,-0.005 -0.55078,0.008 -0.58925,0.0425 -2.3946,-0.15906 -2.418,0.73633 -0.0354,0.70016 1.3893,0.60676 1.8223,0.55078 1.5881,-0.20552 4.3138,-0.40046 5.7305,0.45312 0.67889,0.4089 0.9541,1.2507 1.5586,1.75 0.35858,-0.74551 0.17796,-1.822 -0.60938,-2.2695 -0.45673,-0.25866 -1.151,-0.2613 -1.6602,-0.39453 -1.2123,-0.315 -2.5792,-0.78814 -3.873,-0.83398 z m 9.8027,0.33789 c 1.0081,0.19962 1.1363,1.6482 1.2422,2.4902 0.18142,1.4425 0.38734,3.0877 1.0156,4.416 0.65581,1.3868 1.6664,2.578 2.3281,3.9629 h -0.002 c -1.006,0.44096 -1.8542,-1.2405 -2.2246,-1.9238 -0.8651,-1.5959 -1.418,-3.3013 -1.7109,-5.0957 -0.0783,-0.479 -0.0053,-0.98854 -0.11328,-1.4727 -0.14908,-0.6637 -0.83921,-1.7415 -0.53516,-2.377 z m -9.3945,2.209 c -1.2175,0.0354 -2.1588,0.86115 -2.6875,1.9043 -0.39758,0.7842 0.37586,1.6152 1.1328,1.6738 l -0.11914,-1.4336 c 0.67748,0.34724 1.2,1.589 2.0312,1.5996 0.8061,0 1.1975,-1.1538 2.0312,-1.0918 0.56657,0.0425 1.1215,1.1116 1.709,0.6836 0.5765,-0.42024 0.2455,-1.4732 -0.17969,-1.8594 -0.72178,-0.65374 -2.9538,-1.4982 -3.918,-1.4766 z m -13.828,1.7559 c 0.35143,0.10106 -0.01982,0.94117 -0.03906,1.1875 -0.07591,0.97211 -0.08022,1.9788 -0.20703,2.9434 -0.05071,0.38576 0.0081,0.79711 -0.30859,1.0762 -0.68334,-1.2183 -0.27444,-2.6795 -0.04102,-3.9629 0.0475,-0.26125 0.13712,-1.3762 0.5957,-1.2441 z m 22.773,0.76953 c 0.08852,0.0283 0.17912,0.1128 0.22266,0.19141 0.44382,0.0867 0.69343,1.3548 0.84961,1.7539 0.62186,1.5891 1.067,3.3586 2.457,4.5 0.46483,0.38175 1.2722,0.51179 1.8438,0.36914 0.37255,-0.0931 1.0241,-0.48046 1.375,-0.12695 0.64308,0.64652 -0.9109,0.96309 -1.2617,0.9668 -1.3771,0.0159 -2.679,-0.49284 -3.4746,-1.6328 -0.8688,-1.2449 -1.3239,-2.6906 -1.7832,-4.1309 -0.14876,-0.46616 -0.56088,-1.2495 -0.43945,-1.748 0.03507,-0.14378 0.12242,-0.1709 0.21094,-0.14258 z m 0.73633,5.4824 c 0.51289,0.12853 1.0347,1.2429 1.3633,1.5059 0.85079,0.68137 1.696,1.21 2.8223,1.2598 0.62479,0.0272 1.2379,-0.209 1.8672,-0.15235 0.24122,0.0225 0.35063,0.26076 0.15235,0.43164 -0.3263,0.28162 -1.1558,0.31878 -1.5684,0.32422 -1.4509,0.0193 -2.8701,-0.39992 -3.9609,-1.416 -0.34395,-0.32045 -0.85722,-0.87226 -1.0352,-1.3066 -0.07378,-0.18005 -0.08019,-0.55341 0.14062,-0.63672 0.07232,-0.0272 0.14548,-0.0281 0.21875,-0.01 z m -0.90234,1.4922 c 0.30082,-0.0771 0.70235,0.40187 0.88281,0.58399 0.61812,0.6236 1.394,1.1435 2.166,1.5586 0.84228,0.45302 1.8632,0.72824 2.8301,0.58398 0.37619,-0.0562 1.358,-0.54864 1.6738,-0.33007 0.42775,0.29606 -0.51365,0.7518 -0.71094,0.84374 -1.8627,0.86911 -4.143,-0.18986 -5.6602,-1.3457 -0.40048,-0.30507 -1.0723,-0.75846 -1.3027,-1.2148 -0.08568,-0.16962 -0.12282,-0.61743 0.12109,-0.67969 z m -15.58,1.8633 c -0.23394,-0.0105 -0.47342,-0.009 -0.7207,0.008 -0.44362,0.0354 -2.0021,0.44497 -1.9883,0.92969 0.0354,0.81 0.86238,0.73212 1.3379,1.0762 0.87414,0.63284 0.55319,1.4858 1.9648,1.6484 0.9124,0.1063 2.2501,-0.14723 1.793,-1.291 -0.37417,0.11339 -2.7642,0.61299 -2.3496,-0.56446 0.14173,-0.4011 0.95206,-0.34671 1.2734,-0.31836 1.181,0.10275 2.0288,0.26506 3.1074,0.8086 0.28701,0.14527 0.97941,0.79855 1.2207,0.27343 0.29764,-0.65019 -0.39635,-1.3738 -0.98242,-1.4883 -1.6661,-0.3246 -3.0187,-1.0082 -4.6562,-1.082 z m 15.969,0.33985 c 0.48318,0.016 1.2066,0.79737 1.6406,1.0371 0.88345,0.48799 2.0732,0.74742 3.0586,0.93165 0.40128,0.0753 0.84622,0.0268 1.2441,-0.0469 0.1919,-0.0353 0.47195,-0.1671 0.6543,-0.0371 0.29175,0.20716 -0.13978,0.49181 -0.31446,0.56641 -1.1721,0.50019 -2.4462,0.0217 -3.543,-0.39649 -0.88559,-0.33762 -1.7545,-0.64431 -2.5664,-1.1543 -0.21791,-0.13639 -0.79184,-0.91532 -0.17383,-0.90038 z m -0.45117,1.1484 c 0.27031,-10e-4 0.56174,0.28218 0.79102,0.4043 0.61058,0.32527 1.3289,0.5478 1.9062,0.91992 0.15937,0.1027 0.15467,0.35989 -0.0469,0.40821 -0.2526,0.0609 -0.57022,-0.12204 -0.78516,-0.23243 -0.58432,-0.29847 -1.3048,-0.53535 -1.8418,-0.90234 -0.18359,-0.12518 -0.42975,-0.59588 -0.02344,-0.59766 z m -22.473,0.64844 v 0.002 c 0.30287,-0.0353 1.1341,0.34709 0.50586,0.4668 -0.18516,0.0353 -0.49036,0.039 -0.6543,-0.0684 -0.21455,-0.13961 -0.05392,-0.37665 0.14844,-0.4004 z m 22.131,0.59375 c 0.29307,0.37951 0.76096,0.27255 1.041,0.55274 0.24029,0.2404 -0.12216,0.35254 -0.30469,0.35351 -0.31102,0 -0.70597,-0.12163 -0.94531,-0.33008 -0.26923,-0.2346 -0.0678,-0.51841 0.20898,-0.57617 z m 2.3887,1.2891 c 0.0671,-0.004 0.13846,1.2e-4 0.21485,0.0137 -0.0864,1.29 -1.974,1.4599 -2.9434,1.3672 -0.27296,-0.0256 -0.72062,-0.0445 -0.94531,-0.21289 -0.75324,-0.56341 0.23169,-1.2171 0.83203,-1.1445 0.55737,0.0674 1.0081,0.47729 1.5859,0.4375 0.51348,-0.0351 0.78604,-0.43427 1.2559,-0.46094 z m -5.1055,2.7305 0.11328,0.11328 v -0.11328 z"
         color="#000000"
         color-rendering="auto"
         enable-background="accumulate"
         image-rendering="auto"
         shape-rendering="auto"
         solid-color="#000000"
         style="text-indent:0;text-decoration-line:none;text-decoration-style:solid;text-decoration-color:#000000;text-transform:none;white-space:normal;isolation:auto;mix-blend-mode:normal"
         id="path6932" />
      <path
         d="m 79.562,812.37 v 0 l -2e-6,6.7e-4 c -1.5256,0.17667 -2.9833,1.3734 -4.4961,1.638 1.1597,0.32462 2.3267,0.62288 3.5,0.89453 2.6003,0.52735 5.2253,0.92433 7.8652,1.1894 2.6395,0.26447 5.2906,0.3968 7.9434,0.39648 1.8787,8e-5 3.7568,-0.0664 5.630902,-0.19921 2.4433,-0.1825 4.8769,-0.47773 7.293,-0.88477 -2.937,-0.74215 -5.9138,-1.8801 -8.916002,-1.7148 -1.3345,0.0824 -2.6709,0.12989 -4.0078,0.14257 -2.5641,-2.1e-4 -5.1265,-0.12862 -7.6777,-0.38476 -2.3938,-0.24757 -4.7747,-0.60734 -7.1348,-1.0781 z"
         fill="#1780ce"
         stroke="#000000"
         stroke-linecap="round"
         stroke-linejoin="round"
         stroke-width="0.99921"
         id="path6934" />
      <path
         d="m 79.562,812.37 c 2.3601,0.47079 4.741,0.83056 7.1348,1.0781 2.5512,0.25614 5.1137,0.38455 7.6777,0.38476 1.3369,-0.0127 3.7365,-0.0602 5.071,-0.14257 -0.60789,-0.0836 -2.0171,-0.90447 -2.1332,-1.707 l -0.75,-7.6504 c -3.0586,3.0187 -5.9472,3.7453 -7.7972,4.6719 -4.5456,2.2768 -5.3316,1.2908 -9.2031,-1.6211 z"
         fill="#f4f2ef"
         stroke="#000000"
         stroke-linecap="round"
         stroke-linejoin="round"
         stroke-width="0.99921"
         id="path6936" />
      <g
         stroke="#000000"
         stroke-linecap="round"
         stroke-linejoin="round"
         id="g7056">
        <path
           d="M 76.182,1027.6 H 15.237 v 10.631 h 60.945 z"
           fill="#1780ce"
           fill-rule="evenodd"
           stroke-width="1px"
           id="path6938" />
        <path
           d="m 76.182,1027.6 v 10.631 h 60.945 V 1027.6 Z"
           fill="#dd1d1d"
           fill-rule="evenodd"
           stroke-width="1px"
           id="path6940" />
        <path
           d="m 15.236,1006.3 v 21.26 h 121.89 v -21.26 z"
           fill="#e9c13a"
           fill-rule="evenodd"
           stroke-width="1px"
           id="path6942" />
        <path
           d="M 137.13,976.18 H 15.24 v 30.117 h 121.89 z"
           fill="#dd1d1d"
           fill-rule="evenodd"
           stroke-width="1px"
           id="path6944" />
        <path
           d="m 15.236,940.75 v 35.434 h 121.89 V 940.75 Z"
           fill="#e9c13a"
           fill-rule="evenodd"
           stroke-width="1px"
           id="path6946" />
        <path
           d="m 15.236,942.87 h 121.89"
           fill="none"
           stroke-width="0.64488"
           id="path6948" />
        <path
           d="m 15.236,945 h 121.89"
           fill="none"
           stroke-width="0.64488"
           id="path6950" />
        <path
           d="m 15.236,947.13 h 121.89"
           fill="none"
           stroke-width="0.64488"
           id="path6952" />
        <path
           d="m 15.236,949.25 h 121.89"
           fill="none"
           stroke-width="0.64488"
           id="path6954" />
        <path
           d="m 15.236,951.38 h 121.89"
           fill="none"
           stroke-width="0.64488"
           id="path6956" />
        <path
           d="m 15.236,953.5 h 121.89"
           fill="none"
           stroke-width="0.64488"
           id="path6958" />
        <path
           d="m 15.236,955.63 h 121.89"
           fill="none"
           stroke-width="0.64488"
           id="path6960" />
        <path
           d="m 15.236,959.88 h 121.89"
           fill="none"
           stroke-width="0.64488"
           id="path6962" />
        <path
           d="m 15.236,967.68 h 121.89"
           fill="none"
           stroke-width="0.64488"
           id="path6964" />
        <path
           d="m 15.236,969.8 h 121.89"
           fill="none"
           stroke-width="0.64488"
           id="path6966" />
        <path
           d="m 15.236,971.93 h 121.89"
           fill="none"
           stroke-width="0.64488"
           id="path6968" />
        <path
           d="m 15.236,974.06 h 121.89"
           fill="none"
           stroke-width="0.64488"
           id="path6970" />
        <path
           d="m 19.045,967.68 -3.8091,-7.7952 v 7.7952 h 11.427 l -3.8091,-7.7952 -3.8091,7.7952"
           fill-rule="evenodd"
           stroke-width="0.64488"
           id="path6972" />
        <path
           d="m 34.281,967.68 -3.8091,-7.7952 -3.8091,7.7952 h 7.6181"
           fill-rule="evenodd"
           stroke-width="0.64567"
           id="path6974" />
        <path
           d="m 41.9,967.68 -3.8091,-7.7952 -3.8091,7.7952 h 7.6181"
           fill-rule="evenodd"
           stroke-width="0.64567"
           id="path6976" />
        <path
           d="m 49.518,967.68 -3.8091,-7.7952 -3.8091,7.7952 h 7.6181"
           fill-rule="evenodd"
           stroke-width="0.64567"
           id="path6978" />
        <path
           d="m 57.136,967.68 -3.8091,-7.7952 -3.8091,7.7952 h 7.6181"
           fill-rule="evenodd"
           stroke-width="0.64567"
           id="path6980" />
        <path
           d="m 64.754,967.68 -3.8091,-7.7952 -3.8091,7.7952 h 7.6181"
           fill-rule="evenodd"
           stroke-width="0.64567"
           id="path6982" />
        <path
           d="m 72.372,967.68 -3.8091,-7.7952 -3.8091,7.7952 h 7.6181"
           fill-rule="evenodd"
           stroke-width="0.64567"
           id="path6984" />
        <path
           d="m 79.99,967.68 -3.8091,-7.7952 -3.8091,7.7952 h 7.6181"
           fill-rule="evenodd"
           stroke-width="0.64567"
           id="path6986" />
        <path
           d="m 87.608,967.68 -3.8091,-7.7952 -3.8091,7.7952 h 7.6181"
           fill-rule="evenodd"
           stroke-width="0.64567"
           id="path6988" />
        <path
           d="m 95.226,967.68 -3.8091,-7.7952 -3.8091,7.7952 h 7.6181"
           fill-rule="evenodd"
           stroke-width="0.64567"
           id="path6990" />
        <path
           d="m 102.84,967.68 -3.8091,-7.7952 -3.8091,7.7952 h 7.6181"
           fill-rule="evenodd"
           stroke-width="0.64567"
           id="path6992" />
        <path
           d="m 110.46,967.68 -3.8091,-7.7952 -3.809,7.7952 h 7.6181"
           fill-rule="evenodd"
           stroke-width="0.64567"
           id="path6994" />
        <path
           d="m 118.08,967.68 -3.8091,-7.7952 -3.809,7.7952 h 7.6181"
           fill-rule="evenodd"
           stroke-width="0.64567"
           id="path6996" />
        <path
           d="m 125.7,967.68 -3.8091,-7.7952 -3.809,7.7952 H 125.7"
           fill-rule="evenodd"
           stroke-width="0.64567"
           id="path6998" />
        <path
           d="m 133.32,967.68 -3.8091,-7.7952 -3.809,7.7952 h 7.6181"
           fill-rule="evenodd"
           stroke-width="0.64567"
           id="path7000" />
        <path
           d="m 137.13,959.88 -3.809,7.7952 h 3.809 V 959.88"
           fill-rule="evenodd"
           stroke-width="0.64488"
           id="path7002" />
        <path
           d="m 15.236,1008.4 h 121.89"
           fill="none"
           stroke-width="0.64488"
           id="path7004" />
        <path
           d="m 15.236,1010.6 h 121.89"
           fill="none"
           stroke-width="0.64488"
           id="path7006" />
        <path
           d="m 15.236,1012.7 h 121.89"
           fill="none"
           stroke-width="0.64488"
           id="path7008" />
        <path
           d="m 15.236,1014.8 h 121.89"
           fill="none"
           stroke-width="0.64488"
           id="path7010" />
        <path
           d="m 15.236,1016.9 h 121.89"
           fill="none"
           stroke-width="0.64488"
           id="path7012" />
        <path
           d="m 15.236,1019.1 h 121.89"
           fill="none"
           stroke-width="0.64488"
           id="path7014" />
        <path
           d="m 15.236,1021.2 h 121.89"
           fill="none"
           stroke-width="0.64488"
           id="path7016" />
        <path
           d="m 15.236,1023.3 h 121.89"
           fill="none"
           stroke-width="0.64488"
           id="path7018" />
        <path
           d="m 15.236,1021.2 h 121.89"
           fill="none"
           stroke-width="0.64488"
           id="path7020" />
        <path
           d="m 15.236,1023.3 h 121.89"
           fill="none"
           stroke-width="0.64488"
           id="path7022" />
        <path
           d="m 15.236,1025.4 h 121.89"
           fill="none"
           stroke-width="0.64488"
           id="path7024" />
        <path
           d="m 15.236,1027.6 h 121.89"
           fill="none"
           stroke-width="0.64488"
           id="path7026" />
        <path
           d="m 15.236,1029.7 h 121.89"
           fill="none"
           stroke-width="0.64488"
           id="path7028" />
        <path
           d="m 15.236,1031.8 h 121.89"
           fill="none"
           stroke-width="0.64488"
           id="path7030" />
        <path
           d="m 15.236,1033.9 h 121.89"
           fill="none"
           stroke-width="0.64488"
           id="path7032" />
        <path
           d="m 15.236,1036.1 h 121.89"
           fill="none"
           stroke-width="0.64488"
           id="path7034" />
        <g
           id="g7040">
          <path
             d="m 69.094,993.9 7.0866,7.0867 7.0866,-7.0867 -7.0866,-7.0866 z"
             fill="none"
             stroke-width="0.99921"
             id="path7036" />
          <path
             d="m 72.283,993.9 3.8977,3.8977 3.8977,-3.8977 -3.8977,-3.8976 z"
             fill-rule="evenodd"
             stroke-width="0.99921"
             id="path7038" />
        </g>
        <g
           transform="translate(-46.063)"
           id="g7046">
          <path
             d="m 69.094,993.9 7.0866,7.0867 7.0866,-7.0867 -7.0866,-7.0866 z"
             fill="none"
             stroke-width="0.99921"
             id="path7042" />
          <path
             d="m 72.283,993.9 3.8977,3.8977 3.8977,-3.8977 -3.8977,-3.8976 z"
             fill-rule="evenodd"
             stroke-width="0.99921"
             id="path7044" />
        </g>
        <g
           transform="matrix(-1,0,0,1,198.34,-4.0975e-6)"
           id="g7052">
          <path
             d="m 69.094,993.9 7.0866,7.0867 7.0866,-7.0867 -7.0866,-7.0866 z"
             fill="none"
             stroke-width="0.99921"
             id="path7048" />
          <path
             d="m 72.283,993.9 3.8977,3.8977 3.8977,-3.8977 -3.8977,-3.8976 z"
             fill-rule="evenodd"
             stroke-width="0.99921"
             id="path7050" />
        </g>
        <path
           d="m 15.236,957.76 h 121.89"
           fill="none"
           stroke-width="0.64488"
           id="path7054" />
      </g>
      <g
         transform="translate(66.681,-11.4)"
         fill-rule="evenodd"
         stroke="#000000"
         stroke-linecap="round"
         stroke-linejoin="round"
         id="g7062">
        <path
           d="m -14.081,832.59 -14.188,26.664 c 3.9285,9.3633 9.9109,18.727 11.119,28.09 H 0.411 c -0.16214,-1.4343 -0.33598,-2.8673 -0.52148,-4.2988 -1.5051,-8.7263 -3.4457,-17.372 -5.8145,-25.904 -2.3184,-8.3112 -5.0403,-16.505 -8.1562,-24.551 z"
           fill="#1780ce"
           id="path7058" />
        <path
           d="m -14.081,832.59 -14.188,26.664 c 3.9285,9.3633 9.9109,18.727 11.119,28.09 H 0.411 c -0.16214,-1.4343 -0.33598,-2.8673 -0.52148,-4.2988 -1.5051,-8.7263 -3.4457,-17.372 -5.8145,-25.904 -2.3184,-8.3112 -5.0403,-16.505 -8.1562,-24.551 z"
           fill="url(#x)"
           stroke-width="0.99921"
           id="path7060" />
      </g>
      <path
         d="m 79.373,889.05 c 0,0 1.5612,15.178 1.9881,22.772 0.42686,7.5943 0.57426,22.772 0.57426,22.772"
         fill="none"
         stroke="#000000"
         stroke-width="0.64488"
         id="path7064" />
      <path
         d="m 31.174,921.71 a 339.13,339.13 0 0 0 26.145,3.9512 339.13,339.13 0 0 0 33.855,1.6934 339.13,339.13 0 0 0 23.99,-0.84961 339.13,339.13 0 0 0 14.605,-1.7734 177.02,177.02 0 0 0 -4.8828,-10.908 177.02,177.02 0 0 0 -8.8047,-15.35 177.02,177.02 0 0 0 -6.7383,-9.4219 h -60.051 a 265.6,265.6 0 0 0 -11.049,18.021 265.6,265.6 0 0 0 -7.0703,14.637 z"
         fill="#e9c13a"
         stroke="#000000"
         stroke-linecap="round"
         stroke-linejoin="round"
         stroke-width="0.99921"
         id="path7066" />
      <path
         d="M 38.945,928.96 A 120.33,120.33 0 0 1 51.894,889.025"
         fill="none"
         stroke="#000000"
         stroke-linecap="round"
         stroke-linejoin="round"
         stroke-width="0.64488"
         id="path7068" />
      <path
         d="m 68.709,889.05 c 0,0 -1.6397,14.995 -2.1936,22.495 -0.5539,7.5 -1.1303,22.495 -1.1303,22.495"
         fill="none"
         stroke="#000000"
         stroke-width="0.64488"
         id="path7070" />
      <path
         d="m 100.33,934.41 c 0,-15.564 -3.0194,-30.98 -8.8598,-45.409 l -22.761,0.048 c 0,0 -1.6397,14.995 -2.1936,22.495 -0.5539,7.5 -1.1303,22.495 -1.1303,22.495 l 35.061,0.38004 z"
         fill="#1780ce"
         fill-rule="evenodd"
         stroke="#000000"
         stroke-width="0.64488"
         id="path7072" />
      <path
         d="m 87.186,889.02 a 120.33,120.33 0 0 1 8.8907,45.393 v 0 a 120.33,120.33 0 0 1 0,0.006"
         fill="none"
         stroke="#000000"
         stroke-linecap="round"
         stroke-linejoin="round"
         stroke-width="0.64488"
         id="path7074" />
      <path
         d="m 88.249,889.02 a 120.33,120.33 0 0 1 8.8907,45.393 v 0 a 120.33,120.33 0 0 1 0,0.006"
         fill="none"
         stroke="#000000"
         stroke-linecap="round"
         stroke-linejoin="round"
         stroke-width="0.64488"
         id="path7076" />
      <path
         d="m 77.247,889.05 c 0,0 1.5612,15.178 1.9881,22.772 0.42686,7.5943 0.57426,22.772 0.57426,22.772"
         fill="none"
         stroke="#000000"
         stroke-width="0.64488"
         id="path7078" />
      <path
         d="m 79.373,889.05 c 0,0 1.5612,15.178 1.9881,22.772 0.42686,7.5943 0.57426,22.772 0.57426,22.772"
         fill="none"
         stroke="#000000"
         stroke-width="0.64488"
         id="path7080" />
      <path
         d="m 62.98,759.61 c 0.13983,0.17945 0.27851,0.35979 0.41602,0.54102 1.0036,1.4552 1.9338,2.9597 2.7871,4.5078 0.85298,1.5475 1.628,3.1368 2.3223,4.7617 0.69381,1.6253 1.3059,3.2843 1.834,4.9707 0.52859,1.6864 0.9725,3.3982 1.3301,5.1289 0.08945,0.52345 0.17046,1.0483 0.24414,1.5742 a 177.02,177.02 0 0 1 11.748,0.58789 177.02,177.02 0 0 1 17.496,2.6445 177.02,177.02 0 0 1 10.748,2.7441 c 0.22513,-0.48461 0.45758,-0.96578 0.69727,-1.4434 0.84728,-1.5511 1.7716,-3.0588 2.7695,-4.5176 0.99736,-1.4588 2.0671,-2.8668 3.2051,-4.2188 1.1384,-1.351 2.3437,-2.6443 3.6113,-3.875 1.2677,-1.2316 2.5962,-2.3991 3.9805,-3.498 0.18469,-0.13336 0.37024,-0.26552 0.55664,-0.39649 -4.5471,1.804 -8.8122,4.2591 -12.643,7.3164 l -1.5586,-11.361 -6.5547,9.4004 -2.0449,-11.275 -6.1328,9.6816 -2.543,-11.174 -5.6934,9.9453 -3.041,-11.051 -5.2461,10.188 -3.5254,-10.904 -4.8066,10.41 c -2.771,-4.0424 -6.1347,-7.6346 -9.957,-10.688 z"
         fill="#e9c13a"
         fill-rule="evenodd"
         stroke="#000000"
         stroke-linecap="round"
         stroke-linejoin="round"
         stroke-width="1px"
         id="path7082" />
      <path
         d="m 71.227,777.24 a 180.3,180.3 0 0 1 42.359,6.3195"
         fill="none"
         stroke="#000000"
         stroke-linecap="round"
         stroke-linejoin="round"
         stroke-width="0.99921"
         id="path7084" />
      <path
         d="m 70.365,773.94 a 183.58,183.58 0 0 1 45.009,6.7148"
         fill="none"
         stroke="#000000"
         stroke-linecap="round"
         stroke-linejoin="round"
         stroke-width="0.99921"
         id="path7086" />
      <path
         d="M 40.008,928.96 A 120.33,120.33 0 0 1 52.957,889.025"
         fill="none"
         stroke="#000000"
         stroke-linecap="round"
         stroke-linejoin="round"
         stroke-width="0.64488"
         id="path7088" />
      <path
         d="M 41.071,928.96 A 120.33,120.33 0 0 1 54.02,889.025"
         fill="none"
         stroke="#000000"
         stroke-linecap="round"
         stroke-linejoin="round"
         stroke-width="0.64488"
         id="path7090" />
      <path
         d="M 42.134,928.96 A 120.33,120.33 0 0 1 55.083,889.025"
         fill="none"
         stroke="#000000"
         stroke-linecap="round"
         stroke-linejoin="round"
         stroke-width="0.64488"
         id="path7092" />
      <path
         d="M 43.197,928.96 A 120.33,120.33 0 0 1 56.146,889.025"
         fill="none"
         stroke="#000000"
         stroke-linecap="round"
         stroke-linejoin="round"
         stroke-width="0.64488"
         id="path7094" />
      <path
         d="m 52.548,930.26 a 120.33,120.33 0 0 1 7.4422,-41.265"
         fill="none"
         stroke="#000000"
         stroke-linecap="round"
         stroke-linejoin="round"
         stroke-width="0.64488"
         id="path7096" />
      <path
         d="m 53.611,930.26 a 120.33,120.33 0 0 1 7.4422,-41.265"
         fill="none"
         stroke="#000000"
         stroke-linecap="round"
         stroke-linejoin="round"
         stroke-width="0.64488"
         id="path7098" />
      <path
         d="m 54.674,930.26 a 120.33,120.33 0 0 1 7.4422,-41.265"
         fill="none"
         stroke="#000000"
         stroke-linecap="round"
         stroke-linejoin="round"
         stroke-width="0.64488"
         id="path7100" />
      <path
         d="m 56.8,930.26 a 120.33,120.33 0 0 1 7.4422,-41.265"
         fill="none"
         stroke="#000000"
         stroke-linecap="round"
         stroke-linejoin="round"
         stroke-width="0.64488"
         id="path7102" />
      <path
         d="m 55.737,930.26 a 120.33,120.33 0 0 1 7.4422,-41.265"
         fill="none"
         stroke="#000000"
         stroke-linecap="round"
         stroke-linejoin="round"
         stroke-width="0.64488"
         id="path7104" />
      <path
         d="m 69.772,889.05 c 0,0 -1.6397,14.995 -2.1936,22.495 -0.5539,7.5 -1.1303,22.495 -1.1303,22.495"
         fill="none"
         stroke="#000000"
         stroke-width="0.64488"
         id="path7106" />
      <path
         d="m 70.835,889.05 c 0,0 -1.6397,14.995 -2.1936,22.495 -0.5539,7.5 -1.1303,22.495 -1.1303,22.495"
         fill="none"
         stroke="#000000"
         stroke-width="0.64488"
         id="path7108" />
      <path
         d="m 72.96,889.05 c 0,0 -1.6397,14.995 -2.1936,22.495 -0.5539,7.5 -1.1303,22.495 -1.1303,22.495"
         fill="none"
         stroke="#000000"
         stroke-width="0.64488"
         id="path7110" />
      <path
         d="m 71.897,889.05 c 0,0 -1.6397,14.995 -2.1936,22.495 -0.5539,7.5 -1.1303,22.495 -1.1303,22.495"
         fill="none"
         stroke="#000000"
         stroke-width="0.64488"
         id="path7112" />
      <path
         d="m 78.31,889.05 c 0,0 1.5612,15.178 1.9881,22.772 0.42686,7.5943 0.57426,22.772 0.57426,22.772"
         fill="none"
         stroke="#000000"
         stroke-width="0.64488"
         id="path7114" />
      <path
         d="m 81.499,889.05 c 0,0 1.5612,15.178 1.9881,22.772 0.42686,7.5943 0.57426,22.772 0.57426,22.772"
         fill="none"
         stroke="#000000"
         stroke-width="0.64488"
         id="path7116" />
      <path
         d="m 80.436,889.05 c 0,0 1.5612,15.178 1.9881,22.772 0.42686,7.5943 0.57426,22.772 0.57426,22.772"
         fill="none"
         stroke="#000000"
         stroke-width="0.64488"
         id="path7118" />
      <path
         d="m 89.312,889.02 a 120.33,120.33 0 0 1 8.8907,45.393 v 0 a 120.33,120.33 0 0 1 0,0.006"
         fill="none"
         stroke="#000000"
         stroke-linecap="round"
         stroke-linejoin="round"
         stroke-width="0.64488"
         id="path7120" />
      <path
         d="m 90.375,889.02 a 120.33,120.33 0 0 1 8.8907,45.393 v 0 a 120.33,120.33 0 0 1 0,0.006"
         fill="none"
         stroke="#000000"
         stroke-linecap="round"
         stroke-linejoin="round"
         stroke-width="0.64488"
         id="path7122" />
      <path
         d="m 95.427,888.98 a 120.33,120.33 0 0 1 15.095,46.791"
         fill="none"
         stroke="#000000"
         stroke-linecap="round"
         stroke-linejoin="round"
         stroke-width="0.64488"
         id="path7124" />
      <path
         d="m 91.438,889.02 a 120.33,120.33 0 0 1 8.8907,45.393 v 0 a 120.33,120.33 0 0 1 0,0.006"
         fill="none"
         stroke="#000000"
         stroke-linecap="round"
         stroke-linejoin="round"
         stroke-width="0.64488"
         id="path7126" />
      <path
         d="m 96.49,888.98 a 120.33,120.33 0 0 1 15.095,46.791"
         fill="none"
         stroke="#000000"
         stroke-linecap="round"
         stroke-linejoin="round"
         stroke-width="0.64488"
         id="path7128" />
      <path
         d="m 97.553,888.98 a 120.33,120.33 0 0 1 15.095,46.791"
         fill="none"
         stroke="#000000"
         stroke-linecap="round"
         stroke-linejoin="round"
         stroke-width="0.64488"
         id="path7130" />
      <path
         d="m 99.679,888.98 a 120.33,120.33 0 0 1 15.095,46.791"
         fill="none"
         stroke="#000000"
         stroke-linecap="round"
         stroke-linejoin="round"
         stroke-width="0.64488"
         id="path7132" />
      <path
         d="m 103.99,889.05 a 120.33,120.33 0 0 1 23.057,48.177"
         fill="none"
         stroke="#000000"
         stroke-linecap="round"
         stroke-linejoin="round"
         stroke-width="0.64488"
         id="path7134" />
      <path
         d="m 106.12,889.05 a 120.33,120.33 0 0 1 23.057,48.177"
         fill="none"
         stroke="#000000"
         stroke-linecap="round"
         stroke-linejoin="round"
         stroke-width="0.64488"
         id="path7136" />
      <path
         d="m 105.05,889.05 a 120.33,120.33 0 0 1 23.057,48.177"
         fill="none"
         stroke="#000000"
         stroke-linecap="round"
         stroke-linejoin="round"
         stroke-width="0.64488"
         id="path7138" />
      <path
         d="m 98.616,888.98 a 120.33,120.33 0 0 1 15.095,46.791"
         fill="none"
         stroke="#000000"
         stroke-linecap="round"
         stroke-linejoin="round"
         stroke-width="0.64488"
         id="path7140" />
      <path
         d="m 107.18,889.05 a 120.33,120.33 0 0 1 23.057,48.177"
         fill="none"
         stroke="#000000"
         stroke-linecap="round"
         stroke-linejoin="round"
         stroke-width="0.64488"
         id="path7142" />
      <g
         stroke-linejoin="round"
         id="g7168">
        <path
           d="m 61.125,1016.4 c -1.6272,1.1152 -3.1333,1.8839 -4.5176,2.3633 -1.3843,0.4794 -2.6476,0.6695 -3.7891,0.6328 -1.1415,-0.037 -2.1617,-0.3012 -3.0605,-0.7344 -0.8989,-0.4331 -1.6756,-1.0341 -2.332,-1.7441 -0.90905,3.6138 -6.3114,6.174 -16.176,8.8574 -0.87318,0.1719 -1.4583,0.5167 -1.5,1.1875 l 0.4375,1.0625 c 11.788,5.2411 16.753,-0.098 25.125,-0.1875 0.22412,0.3425 0.16778,0.6149 0.0625,0.875 9.4163,0.2706 6.0746,-5.9687 5.75,-12.312 z"
           fill-rule="evenodd"
           stroke="#000000"
           stroke-linecap="round"
           stroke-width="0.99921"
           id="path7144" />
        <path
           d="m 59.711,981.15 c -0.50779,0.31054 -1.0091,0.63611 -1.5762,0.83594 -0.82529,0.29085 -1.6747,0.44709 -2.5195,0.47852 -0.84484,0.0314 -1.6865,-0.0638 -2.4961,-0.27735 -0.80955,-0.21353 -1.5872,-0.54423 -2.3066,-0.98828 -0.71942,-0.44404 -1.3806,-1 -1.9551,-1.6602 -0.50656,0.67961 -1.108,1.2764 -1.7832,1.7734 -0.67523,0.49704 -1.4232,0.89404 -2.2227,1.1758 -0.82529,0.29085 -1.6747,0.44904 -2.5195,0.48047 -0.71188,0.0265 -1.4117,-0.0861 -2.1016,-0.23437 0.60964,2.104 1.0873,3.3491 2.373,8.9922 1.725,7.571 6.4843,18.54297 4.8223,25.14997 0.65646,0.71 1.4331,1.311 2.332,1.7441 0.8989,0.4332 1.9191,0.6977 3.0605,0.7344 1.1415,0.037 2.4048,-0.1534 3.7891,-0.6328 1.3843,-0.4794 2.8904,-1.2481 4.5176,-2.3633 -0.52757,-11.7 1.7998,-25.21797 -1.4141,-35.20897 z"
           fill="#1780ce"
           fill-rule="evenodd"
           stroke="#000000"
           stroke-linecap="round"
           stroke-width="0.99921"
           id="path7146" />
        <path
           d="m 58.395,969.85 c -1.0091,0.3756 -1.9749,0.87364 -3.0156,1.1445 -2.2165,0.57694 -4.4966,0.91496 -6.7988,1.002 -2.2948,0.0867 -4.5852,-0.0773 -6.832,-0.48242 -1.4955,-0.26967 -2.928,-0.80479 -4.373,-1.2871 0.04381,0.2284 0.03663,0.35439 0.08203,0.58593 0.51256,2.614 1.1574,5.5456 1.9629,8.8555 0.22055,0.90623 0.60226,2.3534 0.81055,3.0723 0.68989,0.14825 1.3897,0.26086 2.1016,0.23437 0.84484,-0.0314 1.6942,-0.18962 2.5195,-0.48047 0.79945,-0.28174 1.5474,-0.67874 2.2227,-1.1758 0.67523,-0.49704 1.2766,-1.0938 1.7832,-1.7734 0.57447,0.6601 1.2357,1.2161 1.9551,1.6602 0.71942,0.44405 1.4971,0.77475 2.3066,0.98828 0.80955,0.21354 1.6513,0.30878 2.4961,0.27735 0.84484,-0.0314 1.6942,-0.18767 2.5195,-0.47852 0.56704,-0.19983 1.0684,-0.5254 1.5762,-0.83594 -0.14363,-0.44652 -0.23556,-0.92562 -0.40234,-1.3574 l -0.97266,-9.5449 c -0.0047,-0.12718 0.0554,-0.27492 0.05859,-0.4043 z"
           fill="#dd1d1d"
           fill-rule="evenodd"
           stroke="#000000"
           stroke-linecap="round"
           stroke-width="0.99921"
           id="path7148" />
        <path
           d="m 37.477,933.74 c -1.1147,6.4644 -4.4348,13.89 -0.10156,36.479 1.4451,0.48232 2.8776,1.0174 4.373,1.2871 2.2468,0.40515 4.5372,0.56914 6.832,0.48242 2.3022,-0.087 4.5824,-0.42502 6.7988,-1.002 1.0407,-0.27089 2.0065,-0.76893 3.0156,-1.1445 0.16087,-6.5098 10.159,-15.845 13.941,-34.631 z"
           fill="#1780ce"
           fill-rule="evenodd"
           stroke="#000000"
           stroke-linecap="round"
           stroke-width="0.99921"
           id="path7150" />
        <path
           d="m 109.66,1012.9 c -0.60417,1.0095 -1.3499,1.7521 -2.2148,2.2676 -0.8649,0.5154 -1.8485,0.8043 -2.9316,0.9062 -1.0831,0.1019 -2.2644,0.016 -3.5234,-0.2148 -1.259,-0.2313 -2.5959,-0.6098 -3.9883,-1.0938 1.1984,6.4006 -3.9118,11.293 4.4375,11.688 9.0677,-0.4704 20.22,4.7128 26.5,0.75 0.30465,-0.625 0.40401,-1.25 0.0625,-1.875 -6.8441,-2.6654 -14.084,-2.7897 -18.342,-12.428 z"
           fill-rule="evenodd"
           stroke="#000000"
           stroke-linecap="round"
           stroke-width="0.99921"
           id="path7152" />
        <path
           d="m 109.51,979.98 c -0.33403,0.15347 -0.6365,0.36673 -0.99023,0.47656 -0.83569,0.25948 -1.6897,0.38526 -2.5352,0.38477 -0.8455,-4.9e-4 -1.6815,-0.12714 -2.4824,-0.37109 -0.8009,-0.24395 -1.5674,-0.60528 -2.2695,-1.0762 -0.70214,-0.47089 -1.3415,-1.0511 -1.8906,-1.7324 -0.53186,0.66 -1.1541,1.2339 -1.8477,1.7051 -0.69352,0.47119 -1.4581,0.84045 -2.2676,1.0918 -0.83569,0.25947 -1.6897,0.3833 -2.5352,0.38281 -0.84542,-4.9e-4 -1.6815,-0.12714 -2.4824,-0.37109 -0.27877,-0.0849 -0.52012,-0.26195 -0.78906,-0.375 -1.6059,14.994 4.8494,16.259 7.5762,34.63904 1.3924,0.484 2.7293,0.8625 3.9883,1.0938 1.259,0.2312 2.4403,0.3167 3.5234,0.2148 1.0831,-0.1019 2.0667,-0.3908 2.9316,-0.9062 0.8649,-0.5155 1.6107,-1.2581 2.2148,-2.2676 -1.8995,-9.7547 -0.31849,-21.78104 -0.14453,-32.88904 z"
           fill="#1780ce"
           fill-rule="evenodd"
           stroke="#000000"
           stroke-linecap="round"
           stroke-width="0.99921"
           id="path7154" />
        <path
           d="m 109.87,968.12 c -1.2237,0.43196 -2.4167,0.96348 -3.6816,1.2422 -2.2367,0.49282 -4.5263,0.74219 -6.8301,0.74219 -2.2965,-10e-6 -4.5806,-0.24857 -6.8105,-0.73829 -0.94997,-0.20862 -1.8379,-0.63441 -2.7656,-0.92968 0.08599,0.12715 0.10809,0.17393 0.19531,0.30273 l -0.47461,10.305 c -0.0504,0.39204 -0.03608,0.6745 -0.07617,1.0488 0.26894,0.11305 0.5103,0.29009 0.78906,0.375 0.80091,0.24395 1.637,0.3706 2.4824,0.37109 0.84542,4.9e-4 1.6995,-0.12334 2.5352,-0.38281 0.80952,-0.25135 1.5741,-0.62061 2.2676,-1.0918 0.69352,-0.47119 1.3158,-1.0451 1.8477,-1.7051 0.54913,0.68133 1.1885,1.2615 1.8906,1.7324 0.70214,0.4709 1.4686,0.83223 2.2695,1.0762 0.8009,0.24397 1.637,0.3706 2.4824,0.37109 0.8454,4.9e-4 1.6995,-0.12529 2.5352,-0.38477 0.35373,-0.10983 0.6562,-0.32309 0.99023,-0.47656 0.0104,-0.665 0.0813,-1.3699 0.0801,-2.0273 l 0.27344,-9.8262 c 2.1e-4,-10e-4 -2.1e-4,-0.002 0,-0.004 z"
           fill="#dd1d1d"
           fill-rule="evenodd"
           stroke="#000000"
           stroke-linecap="round"
           stroke-width="0.99921"
           id="path7156" />
        <path
           d="m 74.062,931.05 c 3.8302,17.488 2.0088,17.122 15.717,37.393 0.92776,0.29527 1.8157,0.72106 2.7656,0.92968 2.2299,0.48972 4.5141,0.73828 6.8105,0.73829 2.3038,0 4.5934,-0.24937 6.8301,-0.74219 1.2649,-0.27871 2.458,-0.81023 3.6816,-1.2422 2.4081,-16.422 1.5701,-24.839 0.50781,-32.701 z"
           fill="#1780ce"
           fill-rule="evenodd"
           stroke="#000000"
           stroke-linecap="round"
           stroke-width="0.99921"
           id="path7158" />
        <path
           d="m 42.95,1021.5 c 2.8e-5,0 2.8271,3.0721 2.8271,3.0721 l 2.9892,-2.1474 -2.8285,-3.0705 -2.9877,2.1458"
           fill="none"
           stroke="#f4f2ef"
           stroke-linecap="round"
           stroke-width="1px"
           id="path7160" />
        <path
           d="m 112.06,1017 c 0,0 -0.8585,0.8816 -1.3017,1.4965 -0.44318,0.6149 -1.3033,2.2084 -1.3033,2.2084 l 3.5153,1.7046 c 0,0 0.59998,-1.2302 0.91892,-1.6617 0.31895,-0.4315 0.91731,-0.9498 0.91731,-0.9498"
           fill="none"
           stroke="#f4f2ef"
           stroke-width="1px"
           id="path7162" />
        <path
           d="m 109.78,971.14 c -3.3669,1.0712 -6.8841,1.625 -10.43,1.625 -3.222,0 -6.4181,-0.46107 -9.502,-1.3477 l -0.27539,5.9902 c 1.7702,0.69732 3.7546,0.82167 5.6523,0.23242 1.619,-0.5027 3.0524,-1.4753 4.1211,-2.7949 2.2015,2.7257 5.8389,3.8328 9.1816,2.7949 0.37305,-0.11583 0.73296,-0.2615 1.084,-0.42578 z"
           fill-rule="evenodd"
           stroke="#000000"
           stroke-linecap="round"
           stroke-width="0.29055"
           id="path7164" />
        <path
           d="m 58.596,972.79 c -3.1901,1.1001 -6.5291,1.7315 -9.9141,1.8594 -3.6156,0.13663 -7.2221,-0.30814 -10.691,-1.293 0.41386,1.9537 0.8704,4.0105 1.4297,6.3086 0.0084,0.0346 0.02238,0.0811 0.03125,0.11719 1.6974,0.51059 3.544,0.50825 5.291,-0.10742 1.5989,-0.56348 2.9936,-1.5902 4.0117,-2.9492 2.3029,2.6406 5.9801,3.6107 9.2812,2.4473 0.39973,-0.14087 0.78676,-0.31108 1.1582,-0.50782 z"
           fill-rule="evenodd"
           stroke="#000000"
           stroke-linecap="round"
           stroke-width="0.29055"
           id="path7166" />
      </g>
      <path
         d="m 108.24,889.05 a 120.33,120.33 0 0 1 23.057,48.177"
         fill="none"
         stroke="#000000"
         stroke-linecap="round"
         stroke-linejoin="round"
         stroke-width="0.64488"
         id="path7170" />
      <path
         d="m 31.174,921.71 a 265.6,265.6 0 0 0 -4.4766,9.2695 265.6,265.6 0 0 0 -1.8223,4.9902 354.19,354.19 0 0 0 30.939,4.6758 354.19,354.19 0 0 0 35.359,1.7695 354.19,354.19 0 0 0 25.055,-0.88867 354.19,354.19 0 0 0 18.961,-2.3008 177.02,177.02 0 0 0 -3.0742,-9.252 177.02,177.02 0 0 0 -2.3457,-5.2422 339.13,339.13 0 0 1 -14.605,1.7734 339.13,339.13 0 0 1 -23.99,0.84961 339.13,339.13 0 0 1 -33.855,-1.6934 339.13,339.13 0 0 1 -26.145,-3.9512 z"
         fill="#dd1d1d"
         stroke="#000000"
         stroke-linecap="round"
         stroke-linejoin="round"
         stroke-width="0.99921"
         id="path7172" />
      <path
         d="m 67.496,821.13 a 279.78,279.78 0 0 1 6.918,20.818 279.78,279.78 0 0 1 6.123,27.287 279.78,279.78 0 0 1 0.81445,6.707 h 1.6152 a 265.6,265.6 0 0 1 5.998,-16.43 265.6,265.6 0 0 1 11.549,-23.906 265.6,265.6 0 0 1 6.9297,-11.303 88.437,88.437 0 0 1 -6.8125,0.82617 88.437,88.437 0 0 1 -6.2559,0.22266 88.437,88.437 0 0 1 -8.8281,-0.44336 88.437,88.437 0 0 1 -8.7402,-1.3203 88.437,88.437 0 0 1 -8.5664,-2.1875 88.437,88.437 0 0 1 -0.74414,-0.27149 z"
         fill="#e9c13a"
         stroke="#000000"
         stroke-linecap="round"
         stroke-linejoin="round"
         stroke-width="0.99921"
         id="path7174" />
      <path
         d="m 105.1,828.27 a 91.981,91.981 0 0 1 -10.719,0.62676 91.981,91.981 0 0 1 -25.542,-3.6174"
         fill="none"
         stroke="#000000"
         stroke-linecap="round"
         stroke-linejoin="round"
         stroke-width="0.99921"
         id="path7176" />
      <path
         d="m 102.73,832.07 a 95.524,95.524 0 0 1 -8.3523,0.36585 95.524,95.524 0 0 1 -24.227,-3.1234"
         fill="none"
         stroke="#000000"
         stroke-linecap="round"
         stroke-linejoin="round"
         stroke-width="0.99921"
         id="path7178" />
      <path
         d="m 100.44,835.79 a 99.067,99.067 0 0 1 -6.0618,0.18563 99.067,99.067 0 0 1 -22.898,-2.6826"
         fill="none"
         stroke="#000000"
         stroke-linecap="round"
         stroke-linejoin="round"
         stroke-width="0.99921"
         id="path7180" />
      <path
         d="m 98.698,839.43 a 102.61,102.61 0 0 1 -4.3218,0.0911 102.61,102.61 0 0 1 -21.558,-2.2903"
         fill="none"
         stroke="#000000"
         stroke-linecap="round"
         stroke-linejoin="round"
         stroke-width="0.99921"
         id="path7182" />
      <path
         d="m 96.956,843.03 a 106.15,106.15 0 0 1 -2.5798,0.0313 106.15,106.15 0 0 1 -20.258,-1.9509"
         fill="none"
         stroke="#000000"
         stroke-linecap="round"
         stroke-linejoin="round"
         stroke-width="0.99921"
         id="path7184" />
      <path
         d="m 95.212,846.61 a 109.7,109.7 0 0 1 -0.8366,0.003 109.7,109.7 0 0 1 -19.338,-1.718"
         fill="none"
         stroke="#000000"
         stroke-linecap="round"
         stroke-linejoin="round"
         stroke-width="0.99921"
         id="path7186" />
      <path
         d="M 93.505,850.15 A 113.24,113.24 0 0 1 75.864,848.6301"
         fill="none"
         stroke="#000000"
         stroke-linecap="round"
         stroke-linejoin="round"
         stroke-width="0.99921"
         id="path7188" />
      <path
         d="M 91.833,853.67 A 116.78,116.78 0 0 1 76.696,852.3516"
         fill="none"
         stroke="#000000"
         stroke-linecap="round"
         stroke-linejoin="round"
         stroke-width="0.99921"
         id="path7190" />
      <path
         d="M 90.158,857.16 A 120.33,120.33 0 0 1 77.525,856.0482"
         fill="none"
         stroke="#000000"
         stroke-linecap="round"
         stroke-linejoin="round"
         stroke-width="0.99921"
         id="path7192" />
      <path
         d="m 48.702,875.94 v 13.111 h 61.342 V 875.94 Z"
         fill="#dd1d1d"
         stroke="#000000"
         stroke-linecap="round"
         stroke-linejoin="round"
         stroke-width="0.99921"
         id="path7194" />
      <path
         d="m 75.066,814.01 a 79.579,79.579 0 0 0 -9.2539,2.0508 279.78,279.78 0 0 1 1.6836,5.0664 88.437,88.437 0 0 0 0.74414,0.27149 88.437,88.437 0 0 0 8.5664,2.1875 88.437,88.437 0 0 0 8.7402,1.3203 88.437,88.437 0 0 0 8.8281,0.44336 88.437,88.437 0 0 0 6.2559,-0.22266 88.437,88.437 0 0 0 6.8125,-0.82617 265.6,265.6 0 0 1 4.6543,-7.5938 79.579,79.579 0 0 0 -4.7988,-1.3008 79.579,79.579 0 0 1 -7.293,0.88477 79.579,79.579 0 0 1 -5.6309,0.19921 79.579,79.579 0 0 1 -7.9434,-0.39648 79.579,79.579 0 0 1 -7.8652,-1.1894 79.579,79.579 0 0 1 -3.5,-0.89453 z"
         fill="#1780ce"
         stroke="#000000"
         stroke-linecap="round"
         stroke-linejoin="round"
         stroke-width="0.99921"
         id="path7196" />
      <path
         d="m 112.1,816.71 a 265.6,265.6 0 0 0 -11.584,18.896 265.6,265.6 0 0 0 -11.549,23.906 265.6,265.6 0 0 0 -5.998,16.43 h 15.07 a 251.43,251.43 0 0 1 3.9824,-10.91 251.43,251.43 0 0 1 10.932,-22.631 251.43,251.43 0 0 1 12.348,-20.139 79.579,79.579 0 0 0 -13.201,-5.5527 z"
         fill="#dd1d1d"
         stroke="#000000"
         stroke-linecap="round"
         stroke-linejoin="round"
         stroke-width="0.99921"
         id="path7198" />
      <path
         d="m 81.352,875.94 a 279.78,279.78 0 0 0 -0.81445,-6.707 279.78,279.78 0 0 0 -6.123,-27.287 279.78,279.78 0 0 0 -8.6016,-25.885 79.579,79.579 0 0 0 -13.213,5.125 265.6,265.6 0 0 1 8.1562,24.551 265.6,265.6 0 0 1 5.8145,25.904 265.6,265.6 0 0 1 0.52148,4.2988 z"
         fill="#dd1d1d"
         stroke="#000000"
         stroke-linecap="round"
         stroke-linejoin="round"
         stroke-width="0.99921"
         id="path7200" />
      <path
         d="M 85.503,875.83 A 262.95,262.95 0 0 1 114.51,817.542"
         fill="none"
         stroke="#000000"
         stroke-linecap="round"
         stroke-linejoin="round"
         stroke-width="0.99921"
         id="path7202" />
      <path
         d="m 94.913,875.83 a 254.09,254.09 0 0 1 27.89,-54.751"
         fill="none"
         stroke="#000000"
         stroke-linecap="round"
         stroke-linejoin="round"
         stroke-width="0.99921"
         id="path7204" />
      <path
         d="m 92.111,858.91 9.446,0.51543 -6.6939,-6.6847 9.4296,0.75811 -6.5199,-6.8545 9.4071,0.99997 -6.3417,-7.0198 9.3782,1.2414 -6.1593,-7.1803 9.3433,1.4817 -5.973,-7.3359 9.3021,1.7213 -5.7823,-7.4873 9.2548,1.9598 -5.6916,-7.4775"
         fill="none"
         stroke="#000000"
         stroke-linecap="round"
         stroke-linejoin="round"
         stroke-width="0.99921"
         id="path7206" />
      <path
         d="m 48.703,878.78 4.3808,7.4361 4.3816,-7.4361 4.3816,7.4361 4.3816,-7.4361 4.3816,7.4361 4.3816,-7.4361 4.3266,7.4361 4.4365,-7.4361 4.3816,7.4361 4.3816,-7.4361 4.3816,7.4361 4.3816,-7.4361 4.3816,7.4361 4.3816,-7.4361"
         fill="none"
         stroke="#000000"
         stroke-linecap="round"
         stroke-linejoin="round"
         stroke-width="1px"
         id="path7208" />
      <path
         d="M 134.39,937.09 A 351.53,351.53 0 0 1 91.175,939.7564 351.53,351.53 0 0 1 25.774,933.619"
         fill="none"
         stroke="#000000"
         stroke-linecap="round"
         stroke-linejoin="round"
         stroke-width="0.99921"
         id="path7210" />
      <path
         d="m 130.95,927.69 a 341.78,341.78 0 0 1 -39.781,2.323 341.78,341.78 0 0 1 -61.252,-5.5334"
         fill="none"
         stroke="#000000"
         stroke-linecap="round"
         stroke-linejoin="round"
         stroke-width="0.99921"
         id="path7212" />
      <path
         d="m 29.796,924.47 3.2021,10.442 6.6499,-8.803 3.7237,10.385 6.3841,-8.9976 4.032,10.269 6.1127,-9.1841 4.3367,10.144 5.8359,-9.3624 4.6376,10.01 5.5538,-9.5325 4.9343,9.8674 5.2668,-9.694 5.2267,9.7158 4.9752,-9.8469 5.5142,9.5554 4.679,-9.991 5.797,9.3866 4.3788,-10.126 6.0746,9.2094 3.9774,-10.294"
         fill="none"
         stroke="#000000"
         stroke-linecap="round"
         stroke-linejoin="round"
         stroke-width="0.99921"
         id="path7214" />
      <path
         d="m 55.06,820.09 a 268.26,268.26 0 0 1 14.902,55.825"
         fill="none"
         stroke="#000000"
         stroke-linecap="round"
         stroke-linejoin="round"
         stroke-width="0.99921"
         id="path7216" />
      <path
         d="M 63.329,816.91 A 277.12,277.12 0 0 1 78.92,875.904"
         fill="none"
         stroke="#000000"
         stroke-linecap="round"
         stroke-linejoin="round"
         stroke-width="0.99921"
         id="path7218" />
      <path
         d="m 63.315,816.83 -6.9503,6.7123 9.6697,0.68271 -7.082,6.6192 9.6459,0.96172 -7.2702,6.4118 9.6142,1.2399 -7.4523,6.1993 9.5743,1.5169 -7.6282,5.9815 9.5265,1.7928 -7.7978,5.7588 9.4708,2.0671 -7.9608,5.5312 9.4072,2.3397 -8.1172,5.2991"
         fill="none"
         opacity="0.97"
         stroke="#000000"
         stroke-linecap="round"
         stroke-linejoin="round"
         stroke-width="1px"
         id="path7220" />
      <path
         d="m 67.823,821.34 5.7454,-7.0714 0.32738,-0.058 1.6251,9.1099 5.4027,-7.9702 2.4382,9.315 4.6646,-8.4234 3.2654,9.0582 3.8888,-8.8085 4.0662,8.7281 3.0806,-9.1314 4.8238,8.2639"
         fill="none"
         stroke="#000000"
         stroke-linecap="round"
         stroke-linejoin="round"
         stroke-width="1px"
         id="path7222" />
      <g
         transform="translate(56.493)"
         id="g7324">
        <g
           transform="translate(-57.419,1.4094)"
           stroke="#000000"
           id="g7244">
          <path
             d="m 17.216,855.88 9.5637,6.5465 h 21.04 l 9.5638,-6.5465 -9.5638,-6.5466 h -21.04 l -9.5637,6.5466 9.5637,6.5465"
             fill="#e9c13a"
             fill-rule="evenodd"
             stroke-linejoin="round"
             stroke-width="0.99921"
             id="path7224" />
          <path
             d="m 26.78,862.43 h 21.04 l 9.5638,-6.5465 v 3.9279 L 47.82,866.358 H 26.78 l -9.5637,-6.5466 v -3.9279 z"
             fill="#e9c13a"
             fill-rule="evenodd"
             stroke-linejoin="round"
             stroke-width="0.99921"
             id="path7226" />
          <path
             d="m 26.78,862.43 v 3.928"
             fill="none"
             stroke-width="0.99921"
             id="path7228" />
          <path
             d="m 47.82,862.43 v 3.928"
             fill="none"
             stroke-width="0.99921"
             id="path7230" />
          <path
             d="m 28.693,862.43 v 3.928"
             fill="none"
             stroke-linejoin="round"
             stroke-width="0.8"
             id="path7232" />
          <path
             d="m 30.605,862.43 v 3.928"
             fill="none"
             stroke-linejoin="round"
             stroke-width="0.8"
             id="path7234" />
          <path
             d="m 32.518,862.43 v 3.928"
             fill="none"
             stroke-linejoin="round"
             stroke-width="0.5"
             id="path7236" />
          <path
             d="m 49.733,861.12 v 3.928"
             fill="none"
             stroke-width="0.8"
             id="path7238" />
          <path
             d="m 51.646,859.81 v 3.928"
             fill="none"
             stroke-width="0.8"
             id="path7240" />
          <path
             d="m 53.558,858.5 v 3.9279"
             fill="none"
             stroke-width="0.5"
             id="path7242" />
        </g>
        <path
           d="m -29.863,807.79 v 44.812 h 19.488 V 807.79 Z"
           fill-rule="evenodd"
           stroke="#000000"
           stroke-linecap="round"
           stroke-linejoin="round"
           stroke-width="1px"
           id="path7246" />
        <path
           d="m -8.0696,831.41 v -23.618 h -4.2501 v 23.618 h 4.2501"
           fill="#dd1d1d"
           fill-rule="evenodd"
           stroke="#000000"
           stroke-linecap="round"
           stroke-linejoin="round"
           stroke-width="1px"
           id="path7248" />
        <circle
           cx="-4.9204998"
           cy="808.45001"
           r="3.9295001"
           fill="#dd1d1d"
           stroke="#000000"
           stroke-linecap="round"
           stroke-linejoin="round"
           stroke-width="0.99921"
           id="circle7250" />
        <path
           d="m -12.816,835.45 v 17.154 h 4.748 V 835.45 Z"
           fill="#dd1d1d"
           fill-rule="evenodd"
           stroke="#000000"
           stroke-linecap="round"
           stroke-linejoin="round"
           stroke-width="1px"
           id="path7252" />
        <path
           d="m -11.24,807.77 c -0.65506,-0.0464 -1.0924,0.0244 -1.0801,0.0254 -4.7758,0.91108 -4.5579,3.6885 -4.748,6.0059 v 38.807 h 4.748 v -36.773 c 0,0 2.571,0.58058 3.6035,0.043 1.3375,-0.6964 1.9948,-2.1153 2.0215,-3.623 0.10491,-1.3629 -0.69258,-2.9387 -2.1543,-3.8008 -0.86173,-0.47292 -1.7356,-0.63719 -2.3906,-0.68359 z"
           fill="#dd1d1d"
           fill-rule="evenodd"
           stroke="#000000"
           stroke-linecap="round"
           stroke-linejoin="round"
           stroke-width="1px"
           id="path7254" />
        <path
           d="m -32.17,831.41 v -23.618 h 4.2501 V 831.41 H -32.17"
           fill="#dd1d1d"
           fill-rule="evenodd"
           stroke="#000000"
           stroke-linecap="round"
           stroke-linejoin="round"
           stroke-width="1px"
           id="path7256" />
        <circle
           transform="scale(-1,1)"
           cx="35.319"
           cy="808.45001"
           r="3.9295001"
           fill="#dd1d1d"
           stroke="#000000"
           stroke-linecap="round"
           stroke-linejoin="round"
           stroke-width="0.99921"
           id="circle7258" />
        <path
           d="m -32.17,835.45 v 17.154 h 4.748 V 835.45 Z"
           fill="#dd1d1d"
           fill-rule="evenodd"
           stroke="#000000"
           stroke-linecap="round"
           stroke-linejoin="round"
           stroke-width="1px"
           id="path7260" />
        <path
           d="m -28.998,807.77 c -0.65506,0.0464 -1.5289,0.21067 -2.3906,0.68359 -1.4617,0.86204 -2.2612,2.4379 -2.1562,3.8008 0.02672,1.5077 0.68592,2.9266 2.0234,3.623 1.0325,0.53761 3.6016,-0.043 3.6016,-0.043 v 36.773 h 4.748 v -38.807 c -0.19017,-2.3174 0.0278,-5.0948 -4.748,-6.0059 0.01232,-9.5e-4 -0.42307,-0.0718 -1.0781,-0.0254 z"
           fill="#dd1d1d"
           fill-rule="evenodd"
           stroke="#000000"
           stroke-linecap="round"
           stroke-linejoin="round"
           stroke-width="1px"
           id="path7262" />
        <path
           d="m -38.722,797.32 8.8582,6.5465 h 19.488 l 8.8583,-6.5465 -8.8583,-6.5466 h -19.488 l -8.8582,6.5466 8.8582,6.5465"
           fill="none"
           stroke="#000000"
           stroke-linejoin="round"
           stroke-width="0.99921"
           id="path7264" />
        <path
           d="m -29.864,803.87 h 19.488 l 8.8583,-6.5465 v 3.9279 l -8.8583,6.5466 h -19.488 l -8.8582,-6.5466 v -3.9279 z"
           fill="#e9c13a"
           fill-rule="evenodd"
           stroke="#000000"
           stroke-linejoin="round"
           stroke-width="0.99921"
           id="path7266" />
        <path
           d="m -29.864,803.87 v 3.928"
           fill="none"
           stroke="#000000"
           stroke-width="0.99921"
           id="path7268" />
        <path
           d="m -10.376,803.87 v 3.928"
           fill="none"
           stroke="#000000"
           stroke-width="0.99921"
           id="path7270" />
        <path
           d="m -28.092,803.87 v 3.928"
           fill="none"
           stroke="#000000"
           stroke-linejoin="round"
           stroke-width="0.8"
           id="path7272" />
        <path
           d="m -26.32,803.87 v 3.928"
           fill="none"
           stroke="#000000"
           stroke-linejoin="round"
           stroke-width="0.8"
           id="path7274" />
        <path
           d="m -24.549,803.87 v 3.928"
           fill="none"
           stroke="#000000"
           stroke-linejoin="round"
           stroke-width="0.5"
           id="path7276" />
        <path
           d="m -8.6038,802.56 v 3.928"
           fill="none"
           stroke="#000000"
           stroke-width="0.8"
           id="path7278" />
        <path
           d="m -6.8322,801.25 v 3.928"
           fill="none"
           stroke="#000000"
           stroke-width="0.8"
           id="path7280" />
        <path
           d="m -5.0605,799.94 v 3.9279"
           fill="none"
           stroke="#000000"
           stroke-width="0.5"
           id="path7282" />
        <path
           d="m -20.12,770.8 c 0,0 7.8612,8.6601 11.073,13.259 2.9795,4.2657 7.5289,13.259 7.5289,13.259 l -8.8583,6.5465 h -19.488 l -8.8582,-6.5465 c 0,0 4.5505,-8.9933 7.5302,-13.259 3.2122,-4.5988 11.072,-13.259 11.072,-13.259 z"
           fill="#dd1d1d"
           fill-rule="evenodd"
           stroke="#000000"
           stroke-linecap="round"
           stroke-linejoin="round"
           stroke-width="1px"
           id="path7284" />
        <path
           d="m -29.864,803.87 c 0,0 1.508,-11.106 3.1011,-16.532 1.6493,-5.618 6.6431,-16.532 6.6431,-16.532"
           fill="none"
           stroke="#000000"
           stroke-linecap="round"
           stroke-linejoin="round"
           stroke-width="1px"
           id="path7286" />
        <path
           d="m -20.12,770.8 c 0,0 4.995,10.914 6.6443,16.532 1.593,5.4261 3.0997,16.532 3.0997,16.532"
           fill="none"
           stroke="#000000"
           stroke-linecap="round"
           stroke-linejoin="round"
           stroke-width="1px"
           id="path7288" />
        <circle
           cx="-20.120001"
           cy="769.52002"
           r="1.2819999"
           stroke="#000000"
           stroke-linecap="round"
           stroke-linejoin="round"
           stroke-width="0.99921"
           id="circle7290" />
        <path
           d="M -30.64,863.84 H -9.6 l 9.5638,-6.5465 -1.638,-1.1212 -36.891,-3.4e-4 -1.6385,1.1216 z"
           fill-rule="evenodd"
           id="path7292" />
        <g
           transform="translate(2.4938e-7,-15.682)"
           fill-rule="evenodd"
           stroke="#000000"
           stroke-linecap="round"
           stroke-linejoin="round"
           stroke-width="1px"
           id="g7304">
          <path
             d="m -10.375,852.61 h -19.488 v 20.545 h 19.488 z"
             id="path7294" />
          <path
             d="m -27.422,852.61 h -4.748 v 14.209 c 0.10464,-0.10465 -0.99639,-1.7452 -2.2773,-2.3438 -0.88046,-0.41142 -2.0595,-0.45092 -2.9609,-0.0879 -1.0842,0.4366 -1.9107,1.3188 -2.2969,2.8281 -0.40963,1.601 0.23668,3.5378 1.2812,4.8184 1.1726,1.4374 2.8899,1.6132 4.9941,1.5469 2.4745,-0.078 5.523,-2.6873 6.0078,-4.4648 v -16.506 z"
             fill="#dd1d1d"
             id="path7296" />
          <path
             d="m -23.172,852.61 h -4.748 v 18.248 c 0.10464,-0.10464 -0.99444,-1.7452 -2.2754,-2.3438 -0.88046,-0.4114 -2.0595,-0.45092 -2.9609,-0.0879 -1.0842,0.43661 -1.9126,1.3188 -2.2988,2.8281 -0.40963,1.601 0.23668,3.5378 1.2812,4.8184 1.1726,1.4374 2.8899,1.6132 4.9941,1.5469 2.4745,-0.078 5.523,-2.6873 6.0078,-4.4648 v -20.545 z"
             fill="#dd1d1d"
             id="path7298" />
          <path
             d="m -8.0684,852.61 h -4.748 v 16.506 c 0.48479,1.7776 3.5334,4.3868 6.0078,4.4648 2.1042,0.0663 3.8216,-0.10942 4.9941,-1.5469 1.0446,-1.2805 1.6909,-3.2174 1.2812,-4.8184 -0.38619,-1.5094 -1.2127,-2.3915 -2.2969,-2.8281 -0.90148,-0.36303 -2.0805,-0.32353 -2.9609,0.0879 -1.281,0.59852 -2.382,2.2391 -2.2773,2.3438 v -14.209 z"
             fill="#dd1d1d"
             id="path7300" />
          <path
             d="m -12.32,852.61 h -4.748 v 20.545 c 0.48479,1.7776 3.5334,4.3868 6.0078,4.4648 2.1042,0.0663 3.8216,-0.10942 4.9941,-1.5469 1.0446,-1.2805 1.6928,-3.2174 1.2832,-4.8184 -0.38619,-1.5094 -1.2146,-2.3915 -2.2988,-2.8281 -0.90148,-0.36303 -2.0805,-0.32351 -2.9609,0.0879 -1.281,0.59852 -2.382,2.2391 -2.2773,2.3438 v -18.248 z"
             fill="#dd1d1d"
             id="path7302" />
        </g>
        <path
           d="m -28.998,807.77 c -0.65506,0.0464 -1.5289,0.21067 -2.3906,0.68359 -1.4617,0.86204 -2.2612,2.4379 -2.1562,3.8008 0.02672,1.5077 0.68592,2.9266 2.0234,3.623 1.0325,0.53761 3.6016,-0.043 3.6016,-0.043 v 21.182 h 4.748 v -23.215 c -0.19017,-2.3174 0.0278,-5.0948 -4.748,-6.0059 0.01232,-9.5e-4 -0.42307,-0.0718 -1.0781,-0.0254 z"
           fill="none"
           stroke="#000000"
           stroke-linecap="round"
           stroke-linejoin="round"
           stroke-width="1px"
           id="path7306" />
        <g
           transform="translate(2.6003e-7,-5.324)"
           stroke="#000000"
           stroke-width="1px"
           id="g7322">
          <path
             d="m -32.169,831.41 v 8.0801 H -8.067 L -8.069,831.41 Z"
             fill="#e9c13a"
             fill-rule="evenodd"
             stroke-linecap="round"
             stroke-linejoin="round"
             id="path7308" />
          <path
             d="m -23.169,831.41 v 8.0801 h 6.1016 V 831.41 h -3.0508 z"
             fill-rule="evenodd"
             stroke-linecap="round"
             stroke-linejoin="round"
             id="path7310" />
          <path
             d="m -27.919,831.41 v 8.0789 h 7.7999"
             fill="none"
             id="path7312" />
          <path
             d="m -12.32,831.41 v 8.0789 h -7.7999"
             fill="none"
             id="path7314" />
          <path
             d="m -20.62,831.41 v 8.0789 h -7.7999"
             fill="none"
             id="path7316" />
          <path
             d="m -33.544,826.29 v 5.125 h 26.85 v -5.125 h -13.424 z"
             fill="#e9c13a"
             fill-rule="evenodd"
             stroke-linecap="round"
             stroke-linejoin="round"
             id="path7318" />
          <path
             d="m -33.544,839.49 v 5.125 h 26.85 v -5.125 h -13.424 z"
             fill="#e9c13a"
             fill-rule="evenodd"
             stroke-linecap="round"
             stroke-linejoin="round"
             id="path7320" />
        </g>
      </g>
      <path
         d="m 48.703,878.78 h 61.342"
         fill="none"
         stroke="#000000"
         stroke-width="1px"
         id="path7326" />
      <path
         d="m 108.87,882.84 c 0.36025,-1.3155 0.71362,-2.6325 1.0039,-3.9629 0.29029,-1.3304 0.5186,-2.674 0.62696,-4.043 0.10835,-1.369 0.0976,-2.764 -0.0879,-4.1953 -0.18554,-1.4313 -0.54535,-2.8986 -1.1367,-4.416 l -4.0977,0.92578 c 1.5795,5.8604 1.4646,8.1981 -0.59961,14.023 l 4.291,1.668 z"
         fill="#f4f2ef"
         fill-rule="evenodd"
         stroke="#000000"
         stroke-linecap="round"
         stroke-linejoin="round"
         stroke-width="0.99921"
         id="path7328" />
      <path
         d="m 48.703,886.21 h 61.342"
         fill="none"
         stroke="#000000"
         stroke-width="1px"
         id="path7330" />
      <path
         d="m 136.15,861.28 -15.721,2.416 c -3.637,0.76071 -7.029,1.2764 -11.15,2.5215 0.59137,1.5174 0.95118,2.9847 1.1367,4.416 0.18553,1.4313 0.19622,2.8263 0.0879,4.1953 -0.10836,1.369 -0.33667,2.7126 -0.62696,4.043 -0.29028,1.3304 -0.64365,2.6474 -1.0039,3.9629 l 27.277,10.604 z"
         fill="#1780ce"
         fill-rule="evenodd"
         stroke="#000000"
         stroke-linecap="round"
         stroke-linejoin="round"
         stroke-width="0.99921"
         id="path7332" />
      <path
         d="m 136.15,843.57 -25.844,3.9727 c 3.2098,7.5889 6.408,12.619 10.123,16.154 l 15.721,-2.416 z"
         fill="#e9c13a"
         fill-rule="evenodd"
         stroke="#000000"
         stroke-linecap="round"
         stroke-linejoin="round"
         stroke-width="0.99921"
         id="path7334" />
      <path
         d="m 111.9,851.09 24.255,-3.7271"
         fill="none"
         stroke="#000000"
         stroke-linecap="round"
         stroke-linejoin="round"
         stroke-width="0.99921"
         id="path7336" />
      <path
         d="m 117.18,860.05 18.967,-2.9164"
         fill="none"
         stroke="#000000"
         stroke-linecap="round"
         stroke-linejoin="round"
         stroke-width="0.99921"
         id="path7338" />
      <path
         d="m 114.41,855.88 2.3366,-5.5258 6.3163,8.7912 3.3847,-10.282 6.3163,8.7909 3.3856,-10.282"
         fill="none"
         stroke="#000000"
         stroke-linecap="round"
         stroke-linejoin="round"
         stroke-width="1px"
         id="path7340" />
      <g
         transform="translate(-46.535,-5.6475)"
         fill-rule="evenodd"
         stroke="#000000"
         stroke-linecap="round"
         stroke-linejoin="round"
         stroke-width="0.99921"
         id="g7346">
        <path
           d="m 171.83,827.91 c -2.2146,3.2579 -4.3516,6.5664 -6.4102,9.9238 -2.0585,3.3574 -4.0384,6.7635 -5.9375,10.215 -0.92464,1.6926 -1.7593,3.4315 -2.6445,5.1445 l 6.8516,-1.0527 18.992,-2.9199 v -1.4844 z m -14.992,25.283 -9.6367,21.014 4.8477,-0.0664 c -0.10677,-0.43788 -0.20614,-0.86413 -0.33594,-1.3457 l 4.0977,-0.92578 c 4.1214,-1.2451 7.5134,-1.7608 11.15,-2.5215 -3.715,-3.5356 -6.9132,-8.5654 -10.123,-16.154 z"
           fill="#e9c13a"
           id="path7342" />
        <path
           d="m 171.83,827.91 c -2.2146,3.2579 -4.3516,6.5664 -6.4102,9.9238 -2.0585,3.3574 -4.0384,6.7635 -5.9375,10.215 -0.92464,1.6926 -1.7593,3.4315 -2.6445,5.1445 l 6.8516,-1.0527 18.992,-2.9199 v -1.4844 z m -14.992,25.283 -9.6367,21.014 4.8477,-0.0664 c -0.10677,-0.43788 -0.20614,-0.86413 -0.33594,-1.3457 l 4.0977,-0.92578 c 4.1214,-1.2451 7.5134,-1.7608 11.15,-2.5215 -3.715,-3.5356 -6.9132,-8.5654 -10.123,-16.154 z"
           fill="url(#v)"
           id="path7344" />
      </g>
      <path
         d="m 7.6259,740.96 c -3.9978,0 -7.2148,4.7281 -7.2148,10.602 v 289.79 c 0,5.8734 3.2171,10.602 7.2148,10.602 h 137.11 c 3.9978,0 7.2168,-4.7282 7.2168,-10.602 v -289.79 c 0,-5.8735 -3.219,-10.602 -7.2168,-10.602 z m 14.369,15.879 h 108.37 c 3.1599,0 5.7031,4.2459 5.7031,9.5195 v 260.19 c 0,5.2737 -2.5432,9.5195 -5.7031,9.5195 h -108.37 c -3.1599,0 -5.7051,-4.2458 -5.7051,-9.5195 v -260.19 c 0,-5.2736 2.5452,-9.5195 5.7051,-9.5195 z"
         fill="#f4f2ef"
         fill-rule="evenodd"
         stroke="#000000"
         stroke-width="0.82205"
         id="path7348" />
      <g
         stroke="#000000"
         stroke-linecap="round"
         stroke-linejoin="round"
         id="g7372">
        <path
           d="m 89.775,860.71 c 0.88103,0.84012 1.2958,1.1133 1.145,1.1648 -0.17856,0.0609 -0.87777,-0.19789 -1.5187,-0.41785 -0.78265,-0.26861 -1.8133,-0.94138 -3.0885,-1.5298 -1.5352,-0.78854 -2.1637,-1.7086 -4.4375,-1.9062 -0.80989,-0.0869 -1.8409,0.45754 -1.2812,1.4688 -1.3606,-2.0836 -3.0473,0.59805 -1.5851,3.0768 0.23448,0.56392 0.60354,1.1388 1.0851,1.7201 -0.66456,0.30307 -1.8938,0.58596 -0.42747,3.516 0.61276,0.90362 1.562,2.0558 2.615,3.5309 0.42014,0.25355 -1.7429,0.0139 0.11033,1.8977 4.4833,4.7395 6.8881,4.783 8.2022,5.1961 14.523,2.6135 12.613,0.6167 14.441,1.2832 0.26177,-0.807 0.56357,-1.665 0.73437,-2.3633 0.27638,-1.1299 0.43386,-2.1512 0.47852,-3.1738 0.0446,-1.0226 -0.024,-2.0473 -0.20313,-3.1816 -0.11703,-0.74123 -0.35468,-1.6454 -0.56445,-2.5117 -5.0729,-1.2601 -0.78526,-1.1666 -5.293,-4.584 -1.2148,-0.97285 -3.1358,-2.4971 -3.9206,-2.8453 -3.6042,-1.5992 -1.6802,-1.4845 -4.4866,-2.7134 l -0.8848,-0.4558 c -2.4935,-2.228 -2.715,1.3085 -1.1209,2.8286 z"
           fill="#f4f2ef"
           fill-rule="evenodd"
           stroke-width="0.99921"
           id="path7350" />
        <path
           d="m 80.594,859.49 c 0.37172,0.64091 1.6964,1.8032 2.5272,2.7834 0.99499,0.93585 1.7253,1.6096 2.7859,2.3464 1.8066,0.91289 2.2938,1.3464 3.8325,2.0538"
           fill="none"
           stroke-width="0.64488"
           id="path7352" />
        <path
           d="m 80.094,864.28 3.792,3.8137 4.3018,2.6872"
           fill="none"
           stroke-width="0.64488"
           id="path7354" />
        <path
           d="m 82.281,871.33 c 0.87649,0.76623 1.7785,1.5898 2.6331,2.3068 0.76651,0.5473 1.6668,0.97905 2.3044,1.3504"
           fill="none"
           stroke-width="0.64488"
           id="path7356" />
        <path
           d="m 90.92,861.87 c 1.0546,0.6304 2.3096,1.417 3.5933,1.6611"
           fill="none"
           stroke-width="0.99921"
           id="path7358" />
        <g
           transform="matrix(0.032855,0,0,0.032458,-24.763,857.76)"
           id="g7370">
          <path
             d="m 1851.3,229.58 c 6.1681,-32.816 -65.275,-54.868 -67.042,10.489 7.1369,-38.432 -46.49,-103.96 -89.838,-22.356 0.6646,-59.801 -60.948,-64.161 -109.49,17.966 -0.8675,-29.862 -26.088,-46.278 -77.288,2.7119 -26.317,24.666 -52.194,49.481 -73.22,75.932 -10.544,40.871 -13.283,83.058 -18.983,124.75 13.321,50.496 67.711,239.6 101.7,252.2 50.052,42.906 263.05,-14.463 394.58,-21.695 124.49,-26.927 144.21,-138.99 192.54,-227.8 l 36.234,-133.63 -284.07,-0.23245 z"
             fill="#f4f2ef"
             fill-rule="evenodd"
             stroke-width="30.598"
             id="path7360" />
          <path
             d="m 1585.7,232.55 c -12.532,24.609 -24.181,49.218 -33.558,73.827 -5.814,45.383 -9.4948,90.765 -11.505,136.15 6.0033,36.917 48.646,110.71 60.636,142.78"
             fill="none"
             stroke-width="19.748"
             id="path7362" />
          <path
             d="m 1695,216.73 c -12.615,25.392 -19.508,53.101 -25.887,81.018 -5.5769,45.752 -12.075,72.258 -13.872,119.29 6.2321,31.197 63.962,120.16 70.194,145.1"
             fill="none"
             stroke-width="19.748"
             id="path7364" />
          <path
             d="m 1784.4,239.27 c -5.0158,44.983 -11.84,80.42 -13.468,107.57 0.5176,24.104 0.4644,41.051 0.5416,54.564 0.1708,29.932 42.872,89.502 60.013,127.55"
             fill="none"
             stroke-width="19.748"
             id="path7366" />
          <path
             d="m 1909.4,466.2 c -15.822,-17.197 -27.111,-60.826 -46.378,-102.44 -4.9947,-10.801 -3.8228,-25.213 -5.9558,-55.837"
             fill="none"
             stroke-width="19.748"
             id="path7368" />
        </g>
      </g>
    </g>
  </g>
</svg>
