<?xml version="1.0" encoding="UTF-8" standalone="no"?>
<svg
   width="42.999813mm"
   height="87.997726mm"
   enable-background="new"
   version="1.1"
   viewBox="0 0 152.36267 311.802"
   id="svg20076"
   sodipodi:docname="Mazzo.svg"
   inkscape:version="1.2.1 (9c6d41e410, 2022-07-14)"
   xmlns:inkscape="http://www.inkscape.org/namespaces/inkscape"
   xmlns:sodipodi="http://sodipodi.sourceforge.net/DTD/sodipodi-0.dtd"
   xmlns="http://www.w3.org/2000/svg"
   xmlns:svg="http://www.w3.org/2000/svg"
   xmlns:rdf="http://www.w3.org/1999/02/22-rdf-syntax-ns#"
   xmlns:cc="http://creativecommons.org/ns#"
   xmlns:dc="http://purl.org/dc/elements/1.1/">
  <sodipodi:namedview
     id="namedview20078"
     pagecolor="#ffffff"
     bordercolor="#000000"
     borderopacity="0.25"
     inkscape:showpageshadow="2"
     inkscape:pageopacity="0.0"
     inkscape:pagecheckerboard="0"
     inkscape:deskcolor="#d1d1d1"
     inkscape:document-units="mm"
     showgrid="false"
     inkscape:zoom="8"
     inkscape:cx="81.25"
     inkscape:cy="148.1875"
     inkscape:window-width="2560"
     inkscape:window-height="1409"
     inkscape:window-x="0"
     inkscape:window-y="31"
     inkscape:window-maximized="1"
     inkscape:current-layer="svg20076" />
  <title
     id="title2">Bresciane</title>
  <defs
     id="defs191" />
  <metadata
     id="metadata193">
    <rdf:RDF>
      <cc:Work
         rdf:about="">
        <dc:format>image/svg+xml</dc:format>
        <dc:type
           rdf:resource="http://purl.org/dc/dcmitype/StillImage" />
        <dc:title>Bresciane</dc:title>
        <dc:date>2020</dc:date>
        <dc:creator>
          <cc:Agent>
            <dc:title>ZZandro</dc:title>
          </cc:Agent>
        </dc:creator>
        <dc:rights>
          <cc:Agent>
            <dc:title />
          </cc:Agent>
        </dc:rights>
        <cc:license
           rdf:resource="http://creativecommons.org/licenses/by-sa/4.0/" />
      </cc:Work>
      <cc:License
         rdf:about="http://creativecommons.org/licenses/by-sa/4.0/">
        <cc:permits
           rdf:resource="http://creativecommons.org/ns#Reproduction" />
        <cc:permits
           rdf:resource="http://creativecommons.org/ns#Distribution" />
        <cc:requires
           rdf:resource="http://creativecommons.org/ns#Notice" />
        <cc:requires
           rdf:resource="http://creativecommons.org/ns#Attribution" />
        <cc:permits
           rdf:resource="http://creativecommons.org/ns#DerivativeWorks" />
        <cc:requires
           rdf:resource="http://creativecommons.org/ns#ShareAlike" />
      </cc:License>
    </rdf:RDF>
  </metadata>
  <g
     transform="translate(-1279.1285,-843.33398)"
     id="g19012"
     style="display:inline">
    <g
       transform="matrix(0.97008,0,0,0.9964,313.21,-904.17)"
       fill="#f4f2ef"
       id="g18892">
      <g
         transform="matrix(0.70046,0,0,1.0004,298.31,-0.79223)"
         fill="#f4f2ef"
         id="g18890">
        <rect
           x="996.13"
           y="1754.4"
           width="223.23"
           height="311.81"
           rx="10.63"
           ry="10.63"
           fill="#f4f2ef"
           stroke="#000000"
           stroke-width="0.99673"
           id="rect18888" />
      </g>
    </g>
    <g
       transform="matrix(0.76704,0,0,0.8945,531.32,-709.5)"
       fill="none"
       id="g18898">
      <g
         transform="matrix(0.70046,0,0,1.0004,298.31,-0.79223)"
         fill="none"
         id="g18896">
        <rect
           x="996.13"
           y="1754.4"
           width="223.23"
           height="311.81"
           rx="10.63"
           ry="10.63"
           fill="none"
           stroke="#000000"
           stroke-width="0.99673"
           id="rect18894" />
      </g>
    </g>
    <g
       transform="translate(-882.28,947.84)"
       enable-background="new"
       id="g18906">
      <circle
         cx="2205.7"
         cy="-54.921001"
         r="24.802999"
         id="circle18900" />
      <path
         d="m 2192,-68.419 8.0825,0.2114 5.4756,-5.949 5.5657,5.8647 8.0784,-0.33476 -0.2114,8.0825 5.9489,5.4756 -5.8647,5.5657 0.3348,8.0784 -8.0825,-0.2114 -5.4756,5.949 -5.5657,-5.8647 -8.0784,0.33476 0.2114,-8.0825 -5.9489,-5.4756 5.8646,-5.5657 z"
         fill="none"
         stroke="#dd1d1d"
         stroke-linejoin="round"
         stroke-width="2.8346"
         id="path18902" />
      <circle
         cx="2205.7"
         cy="-54.921001"
         fill="none"
         stroke="#f4f2ef"
         stroke-linejoin="round"
         stroke-width="1.7717"
         id="ellipse18904"
         r="23.031" />
    </g>
    <g
       transform="translate(-818.5,947.84)"
       enable-background="new"
       id="g18914">
      <circle
         cx="2205.7"
         cy="-54.921001"
         r="24.802999"
         id="circle18908" />
      <path
         d="m 2192,-68.419 8.0825,0.2114 5.4756,-5.949 5.5657,5.8647 8.0784,-0.33476 -0.2114,8.0825 5.9489,5.4756 -5.8647,5.5657 0.3348,8.0784 -8.0825,-0.2114 -5.4756,5.949 -5.5657,-5.8647 -8.0784,0.33476 0.2114,-8.0825 -5.9489,-5.4756 5.8646,-5.5657 z"
         fill="none"
         stroke="#dd1d1d"
         stroke-linejoin="round"
         stroke-width="2.8346"
         id="path18910" />
      <circle
         cx="2205.7"
         cy="-54.921001"
         fill="none"
         stroke="#f4f2ef"
         stroke-linejoin="round"
         stroke-width="1.7717"
         id="ellipse18912"
         r="23.031" />
    </g>
    <g
       transform="translate(-882.28,1004.5)"
       enable-background="new"
       id="g18922">
      <circle
         cx="2205.7"
         cy="-54.921001"
         r="24.802999"
         id="circle18916" />
      <path
         d="m 2192,-68.419 8.0825,0.2114 5.4756,-5.949 5.5657,5.8647 8.0784,-0.33476 -0.2114,8.0825 5.9489,5.4756 -5.8647,5.5657 0.3348,8.0784 -8.0825,-0.2114 -5.4756,5.949 -5.5657,-5.8647 -8.0784,0.33476 0.2114,-8.0825 -5.9489,-5.4756 5.8646,-5.5657 z"
         fill="none"
         stroke="#dd1d1d"
         stroke-linejoin="round"
         stroke-width="2.8346"
         id="path18918" />
      <circle
         cx="2205.7"
         cy="-54.921001"
         fill="none"
         stroke="#f4f2ef"
         stroke-linejoin="round"
         stroke-width="1.7717"
         id="ellipse18920"
         r="23.031" />
    </g>
    <g
       transform="translate(-818.5,1004.5)"
       enable-background="new"
       id="g18930">
      <circle
         cx="2205.7"
         cy="-54.921001"
         r="24.802999"
         id="circle18924" />
      <path
         d="m 2192,-68.419 8.0825,0.2114 5.4756,-5.949 5.5657,5.8647 8.0784,-0.33476 -0.2114,8.0825 5.9489,5.4756 -5.8647,5.5657 0.3348,8.0784 -8.0825,-0.2114 -5.4756,5.949 -5.5657,-5.8647 -8.0784,0.33476 0.2114,-8.0825 -5.9489,-5.4756 5.8646,-5.5657 z"
         fill="none"
         stroke="#dd1d1d"
         stroke-linejoin="round"
         stroke-width="2.8346"
         id="path18926" />
      <circle
         cx="2205.7"
         cy="-54.921001"
         fill="none"
         stroke="#f4f2ef"
         stroke-linejoin="round"
         stroke-width="1.7717"
         id="ellipse18928"
         r="23.031" />
    </g>
    <g
       transform="translate(-882.28,1103.7)"
       enable-background="new"
       id="g18938">
      <circle
         cx="2205.7"
         cy="-54.921001"
         r="24.802999"
         id="circle18932" />
      <path
         d="m 2192,-68.419 8.0825,0.2114 5.4756,-5.949 5.5657,5.8647 8.0784,-0.33476 -0.2114,8.0825 5.9489,5.4756 -5.8647,5.5657 0.3348,8.0784 -8.0825,-0.2114 -5.4756,5.949 -5.5657,-5.8647 -8.0784,0.33476 0.2114,-8.0825 -5.9489,-5.4756 5.8646,-5.5657 z"
         fill="none"
         stroke="#dd1d1d"
         stroke-linejoin="round"
         stroke-width="2.8346"
         id="path18934" />
      <circle
         cx="2205.7"
         cy="-54.921001"
         fill="none"
         stroke="#f4f2ef"
         stroke-linejoin="round"
         stroke-width="1.7717"
         id="ellipse18936"
         r="23.031" />
    </g>
    <g
       transform="translate(-818.5,1103.7)"
       enable-background="new"
       id="g18946">
      <circle
         cx="2205.7"
         cy="-54.921001"
         r="24.802999"
         id="circle18940" />
      <path
         d="m 2192,-68.419 8.0825,0.2114 5.4756,-5.949 5.5657,5.8647 8.0784,-0.33476 -0.2114,8.0825 5.9489,5.4756 -5.8647,5.5657 0.3348,8.0784 -8.0825,-0.2114 -5.4756,5.949 -5.5657,-5.8647 -8.0784,0.33476 0.2114,-8.0825 -5.9489,-5.4756 5.8646,-5.5657 z"
         fill="none"
         stroke="#dd1d1d"
         stroke-linejoin="round"
         stroke-width="2.8346"
         id="path18942" />
      <circle
         cx="2205.7"
         cy="-54.921001"
         fill="none"
         stroke="#f4f2ef"
         stroke-linejoin="round"
         stroke-width="1.7717"
         id="ellipse18944"
         r="23.031" />
    </g>
    <g
       transform="translate(-882.28,1160.4)"
       enable-background="new"
       id="g18954">
      <circle
         cx="2205.7"
         cy="-54.921001"
         r="24.802999"
         id="circle18948" />
      <path
         d="m 2192,-68.419 8.0825,0.2114 5.4756,-5.949 5.5657,5.8647 8.0784,-0.33476 -0.2114,8.0825 5.9489,5.4756 -5.8647,5.5657 0.3348,8.0784 -8.0825,-0.2114 -5.4756,5.949 -5.5657,-5.8647 -8.0784,0.33476 0.2114,-8.0825 -5.9489,-5.4756 5.8646,-5.5657 z"
         fill="none"
         stroke="#dd1d1d"
         stroke-linejoin="round"
         stroke-width="2.8346"
         id="path18950" />
      <circle
         cx="2205.7"
         cy="-54.921001"
         fill="none"
         stroke="#f4f2ef"
         stroke-linejoin="round"
         stroke-width="1.7717"
         id="ellipse18952"
         r="23.031" />
    </g>
    <g
       transform="translate(-818.5,1160.4)"
       enable-background="new"
       id="g18962">
      <circle
         cx="2205.7"
         cy="-54.921001"
         r="24.802999"
         id="circle18956" />
      <path
         d="m 2192,-68.419 8.0825,0.2114 5.4756,-5.949 5.5657,5.8647 8.0784,-0.33476 -0.2114,8.0825 5.9489,5.4756 -5.8647,5.5657 0.3348,8.0784 -8.0825,-0.2114 -5.4756,5.949 -5.5657,-5.8647 -8.0784,0.33476 0.2114,-8.0825 -5.9489,-5.4756 5.8646,-5.5657 z"
         fill="none"
         stroke="#dd1d1d"
         stroke-linejoin="round"
         stroke-width="2.8346"
         id="path18958" />
      <circle
         cx="2205.7"
         cy="-54.921001"
         fill="none"
         stroke="#f4f2ef"
         stroke-linejoin="round"
         stroke-width="1.7717"
         id="ellipse18960"
         r="23.031" />
    </g>
    <g
       transform="translate(1279.1,102.76)"
       stroke="#000000"
       id="g19002">
      <path
         d="m 43.664,896.18 0.04297,-6.7324 c 0,0 -0.46668,-1.1857 -0.75,-1.7559 -0.4228,-0.85089 -0.93005,-1.657 -1.4141,-2.4746 -0.5457,-0.92183 -1.0165,-1.899 -1.6797,-2.7402 -0.49014,-0.62169 -1.0349,-1.2203 -1.6797,-1.6797 -0.98729,-0.70348 -2.1358,-1.1626 -3.2695,-1.5918 -1.0295,-0.38971 -2.1827,-0.42444 -3.1836,-0.88281 -0.67608,-0.30963 -1.354,-0.68918 -1.8555,-1.2383 -0.79123,-0.86642 -1.2237,-2.0126 -1.6797,-3.0938 -0.34766,-0.8243 -0.44866,-1.7376 -0.79492,-2.5625 -0.16837,-0.40111 -0.22122,-0.97462 -0.61914,-1.1504 -0.10804,-0.0477 -0.2234,0.0717 -0.34375,0.0859 -0.06331,0.90445 -0.15003,1.3703 -0.125,2.0566 0.03984,1.0924 0.14266,2.1974 0.4375,3.25 0.29441,1.0511 0.82228,2.0248 1.3125,3 0.60348,1.2006 1.2984,2.354 2,3.5 0.71505,1.168 1.4195,2.3486 2.25,3.4375 1.0114,1.3262 2.1266,2.5773 3.3125,3.75 0.86122,0.85165 1.7793,1.6506 2.75,2.375 1.2691,0.94698 2.8636,1.4598 4,2.5625 0.54607,0.52991 1.2891,1.8848 1.2891,1.8848 z"
         fill="#e9c13a"
         fill-rule="evenodd"
         stroke-linecap="round"
         stroke-linejoin="round"
         stroke-width="1px"
         id="path18964" />
      <path
         d="m 43.664,896.18 c 10e-7,0 -0.74299,-1.3548 -1.2891,-1.8848 -1.1364,-1.1027 -2.7309,-1.6155 -4,-2.5625 -0.97074,-0.72435 -1.8888,-1.5234 -2.75,-2.375 -1.1859,-1.1727 -2.3011,-2.4238 -3.3125,-3.75 -0.83047,-1.0889 -1.535,-2.2695 -2.25,-3.4375 -0.7016,-1.146 -1.3965,-2.2994 -2,-3.5 -0.49022,-0.97524 -1.0181,-1.9489 -1.3125,-3 -0.29484,-1.0526 -0.39766,-2.1576 -0.4375,-3.25 -0.02503,-0.68636 0.06169,-1.1522 0.125,-2.0566 -0.251,0.0297 -0.51471,0.0388 -0.7168,0.17969 -0.64362,0.44856 -1.0073,1.2285 -1.3262,1.9453 -0.45595,1.0251 -0.71491,2.1505 -0.79492,3.2695 -0.10976,1.5352 0.17264,3.0822 0.44141,4.5977 0.24458,1.3791 0.55951,2.7565 1.0605,4.0644 0.73535,1.9196 1.6175,3.8206 2.8301,5.4805 1.0077,1.3794 2.2772,2.5728 3.623,3.625 0.71115,0.556 1.4909,1.0383 2.3203,1.3945 1.2214,0.52464 2.5297,0.86202 3.8438,1.0625 1.96,0.29902 5.9453,0.19726 5.9453,0.19726 z"
         fill="#287028"
         fill-rule="evenodd"
         stroke-linecap="round"
         stroke-linejoin="round"
         stroke-width="1px"
         id="path18966" />
      <path
         d="m 108.56,896.18 -0.043,-6.7324 c 0,0 0.46668,-1.1857 0.75,-1.7559 0.4228,-0.85089 0.93005,-1.657 1.4141,-2.4746 0.54571,-0.92183 1.0165,-1.899 1.6797,-2.7402 0.49014,-0.62169 1.035,-1.2203 1.6797,-1.6797 0.98729,-0.70348 2.1358,-1.1626 3.2695,-1.5918 1.0295,-0.38971 2.1827,-0.42444 3.1836,-0.88281 0.67608,-0.30963 1.354,-0.68918 1.8555,-1.2383 0.79123,-0.86642 1.2237,-2.0126 1.6797,-3.0938 0.34767,-0.8243 0.44866,-1.7376 0.79492,-2.5625 0.16837,-0.40111 0.22122,-0.97462 0.61914,-1.1504 0.10804,-0.0477 0.2234,0.0717 0.34375,0.0859 0.0633,0.90445 0.15004,1.3703 0.125,2.0566 -0.0398,1.0924 -0.14266,2.1974 -0.4375,3.25 -0.29441,1.0511 -0.82228,2.0248 -1.3125,3 -0.60348,1.2006 -1.2984,2.354 -2,3.5 -0.71505,1.168 -1.4195,2.3486 -2.25,3.4375 -1.0114,1.3262 -2.1266,2.5773 -3.3125,3.75 -0.86122,0.85165 -1.7793,1.6506 -2.75,2.375 -1.2691,0.94698 -2.8636,1.4598 -4,2.5625 -0.54607,0.52991 -1.2891,1.8848 -1.2891,1.8848 z"
         fill="#e9c13a"
         fill-rule="evenodd"
         stroke-linecap="round"
         stroke-linejoin="round"
         stroke-width="1px"
         id="path18968" />
      <path
         d="m 108.56,896.18 c 0,0 0.74299,-1.3548 1.2891,-1.8848 1.1364,-1.1027 2.7309,-1.6155 4,-2.5625 0.97074,-0.72435 1.8888,-1.5234 2.75,-2.375 1.1859,-1.1727 2.3011,-2.4238 3.3125,-3.75 0.83047,-1.0889 1.535,-2.2695 2.25,-3.4375 0.7016,-1.146 1.3965,-2.2994 2,-3.5 0.49022,-0.97524 1.0181,-1.9489 1.3125,-3 0.29484,-1.0526 0.39766,-2.1576 0.4375,-3.25 0.025,-0.68636 -0.0617,-1.1522 -0.125,-2.0566 0.251,0.0297 0.51471,0.0388 0.7168,0.17969 0.64362,0.44856 1.0074,1.2285 1.3262,1.9453 0.45595,1.0251 0.71491,2.1505 0.79492,3.2695 0.10977,1.5352 -0.17264,3.0822 -0.4414,4.5977 -0.24458,1.3791 -0.55951,2.7565 -1.0606,4.0644 -0.73535,1.9196 -1.6174,3.8206 -2.8301,5.4805 -1.0077,1.3794 -2.2772,2.5728 -3.623,3.625 -0.71116,0.556 -1.4909,1.0383 -2.3203,1.3945 -1.2214,0.52464 -2.5296,0.86202 -3.8438,1.0625 -1.96,0.29902 -5.9453,0.19726 -5.9453,0.19726 z"
         fill="#287028"
         fill-rule="evenodd"
         stroke-linecap="round"
         stroke-linejoin="round"
         stroke-width="1px"
         id="path18970" />
      <circle
         cx="107.44"
         cy="892.82001"
         r="3.5432999"
         enable-background="new"
         fill="#e9c13a"
         stroke-linecap="round"
         stroke-linejoin="round"
         stroke-width="0.99921"
         id="circle18972" />
      <circle
         cx="103.63"
         cy="896.40997"
         r="3.5432999"
         enable-background="new"
         fill="#e9c13a"
         stroke-linecap="round"
         stroke-linejoin="round"
         stroke-width="0.99921"
         id="circle18974" />
      <circle
         cx="84.994003"
         cy="869.59998"
         r="3.5432999"
         enable-background="new"
         fill="#dd1d1d"
         stroke-linecap="round"
         stroke-linejoin="round"
         stroke-width="0.99921"
         id="circle18976" />
      <circle
         cx="67.367996"
         cy="869.59998"
         r="3.5432999"
         enable-background="new"
         fill="#dd1d1d"
         stroke-linecap="round"
         stroke-linejoin="round"
         stroke-width="0.99921"
         id="circle18978" />
      <circle
         cx="44.791"
         cy="892.82001"
         r="3.5432999"
         enable-background="new"
         fill="#e9c13a"
         stroke-linecap="round"
         stroke-linejoin="round"
         stroke-width="0.99921"
         id="circle18980" />
      <circle
         cx="48.632"
         cy="896.40997"
         r="3.5432999"
         enable-background="new"
         fill="#e9c13a"
         stroke-linecap="round"
         stroke-linejoin="round"
         stroke-width="0.99921"
         id="circle18982" />
      <path
         d="m 69,876.99 h 7.1811 v -27.5 z"
         fill-rule="evenodd"
         stroke-linecap="round"
         stroke-linejoin="round"
         stroke-width="1px"
         id="path18984" />
      <path
         d="m 83.362,876.99 h -7.1811 v -27.5 z"
         fill="#e9c13a"
         fill-rule="evenodd"
         stroke-linecap="round"
         stroke-linejoin="round"
         stroke-width="1px"
         id="path18986" />
      <path
         d="m 76.181,876.99 v 19.469"
         fill="none"
         stroke-width="1px"
         id="path18988" />
      <circle
         transform="scale(1,-1)"
         cx="84.994003"
         cy="-923.31"
         r="3.5432999"
         enable-background="new"
         fill="#dd1d1d"
         stroke-linecap="round"
         stroke-linejoin="round"
         stroke-width="0.99921"
         id="circle18990" />
      <circle
         transform="scale(1,-1)"
         cx="67.367996"
         cy="-923.31"
         r="3.5432999"
         enable-background="new"
         fill="#dd1d1d"
         stroke-linecap="round"
         stroke-linejoin="round"
         stroke-width="0.99921"
         id="circle18992" />
      <path
         d="m 69,915.93 h 7.1811 v 27.5 z"
         fill-rule="evenodd"
         stroke-linecap="round"
         stroke-linejoin="round"
         stroke-width="1px"
         id="path18994" />
      <path
         d="m 83.362,915.93 h -7.1811 v 27.5 z"
         fill="#e9c13a"
         fill-rule="evenodd"
         stroke-linecap="round"
         stroke-linejoin="round"
         stroke-width="1px"
         id="path18996" />
      <path
         d="M 76.181,915.93 V 896.461"
         fill="none"
         stroke-width="1px"
         id="path18998" />
      <path
         d="m 52.175,896.46 h 47.913"
         fill="none"
         stroke-width="1px"
         id="path19000" />
    </g>
    <g
       transform="translate(-850.39,1054.1)"
       enable-background="new"
       id="g19010">
      <circle
         cx="2205.7"
         cy="-54.921001"
         r="24.802999"
         id="circle19004" />
      <path
         d="m 2192,-68.419 8.0825,0.2114 5.4756,-5.949 5.5657,5.8647 8.0784,-0.33476 -0.2114,8.0825 5.9489,5.4756 -5.8647,5.5657 0.3348,8.0784 -8.0825,-0.2114 -5.4756,5.949 -5.5657,-5.8647 -8.0784,0.33476 0.2114,-8.0825 -5.9489,-5.4756 5.8646,-5.5657 z"
         fill="none"
         stroke="#dd1d1d"
         stroke-linejoin="round"
         stroke-width="2.8346"
         id="path19006" />
      <circle
         cx="2205.7"
         cy="-54.921001"
         fill="none"
         stroke="#f4f2ef"
         stroke-linejoin="round"
         stroke-width="1.7717"
         id="ellipse19008"
         r="23.031" />
    </g>
  </g>
</svg>
