<?xml version="1.0" encoding="UTF-8" standalone="no"?>
<svg
   width="42.999813mm"
   height="87.997726mm"
   enable-background="new"
   version="1.1"
   viewBox="0 0 152.36267 311.802"
   id="svg20076"
   sodipodi:docname="Mazzo.svg"
   inkscape:version="1.2.1 (9c6d41e410, 2022-07-14)"
   xmlns:inkscape="http://www.inkscape.org/namespaces/inkscape"
   xmlns:sodipodi="http://sodipodi.sourceforge.net/DTD/sodipodi-0.dtd"
   xmlns="http://www.w3.org/2000/svg"
   xmlns:svg="http://www.w3.org/2000/svg"
   xmlns:rdf="http://www.w3.org/1999/02/22-rdf-syntax-ns#"
   xmlns:cc="http://creativecommons.org/ns#"
   xmlns:dc="http://purl.org/dc/elements/1.1/">
  <sodipodi:namedview
     id="namedview20078"
     pagecolor="#ffffff"
     bordercolor="#000000"
     borderopacity="0.25"
     inkscape:showpageshadow="2"
     inkscape:pageopacity="0.0"
     inkscape:pagecheckerboard="0"
     inkscape:deskcolor="#d1d1d1"
     inkscape:document-units="mm"
     showgrid="false"
     inkscape:zoom="8"
     inkscape:cx="81.25"
     inkscape:cy="148.1875"
     inkscape:window-width="2560"
     inkscape:window-height="1409"
     inkscape:window-x="0"
     inkscape:window-y="31"
     inkscape:window-maximized="1"
     inkscape:current-layer="svg20076" />
  <title
     id="title2">Bresciane</title>
  <defs
     id="defs191" />
  <metadata
     id="metadata193">
    <rdf:RDF>
      <cc:Work
         rdf:about="">
        <dc:format>image/svg+xml</dc:format>
        <dc:type
           rdf:resource="http://purl.org/dc/dcmitype/StillImage" />
        <dc:title>Bresciane</dc:title>
        <dc:date>2020</dc:date>
        <dc:creator>
          <cc:Agent>
            <dc:title>ZZandro</dc:title>
          </cc:Agent>
        </dc:creator>
        <dc:rights>
          <cc:Agent>
            <dc:title />
          </cc:Agent>
        </dc:rights>
        <cc:license
           rdf:resource="http://creativecommons.org/licenses/by-sa/4.0/" />
      </cc:Work>
      <cc:License
         rdf:about="http://creativecommons.org/licenses/by-sa/4.0/">
        <cc:permits
           rdf:resource="http://creativecommons.org/ns#Reproduction" />
        <cc:permits
           rdf:resource="http://creativecommons.org/ns#Distribution" />
        <cc:requires
           rdf:resource="http://creativecommons.org/ns#Notice" />
        <cc:requires
           rdf:resource="http://creativecommons.org/ns#Attribution" />
        <cc:permits
           rdf:resource="http://creativecommons.org/ns#DerivativeWorks" />
        <cc:requires
           rdf:resource="http://creativecommons.org/ns#ShareAlike" />
      </cc:License>
    </rdf:RDF>
  </metadata>
  <g
     transform="translate(-1119.6785,-843.33398)"
     id="g19090"
     style="display:inline">
    <g
       transform="matrix(0.97008,0,0,0.9964,153.76,-904.17)"
       fill="#f4f2ef"
       id="g19018">
      <g
         transform="matrix(0.70046,0,0,1.0004,298.31,-0.79223)"
         fill="#f4f2ef"
         id="g19016">
        <rect
           x="996.13"
           y="1754.4"
           width="223.23"
           height="311.81"
           rx="10.63"
           ry="10.63"
           fill="#f4f2ef"
           stroke="#000000"
           stroke-width="0.99673"
           id="rect19014" />
      </g>
    </g>
    <g
       transform="matrix(0.76704,0,0,0.8945,371.87,-709.5)"
       enable-background="new"
       fill="none"
       id="g19024">
      <g
         transform="matrix(0.70046,0,0,1.0004,298.31,-0.79223)"
         fill="none"
         id="g19022">
        <rect
           x="996.13"
           y="1754.4"
           width="223.23"
           height="311.81"
           rx="10.63"
           ry="10.63"
           fill="none"
           stroke="#000000"
           stroke-width="0.99673"
           id="rect19020" />
      </g>
    </g>
    <g
       transform="translate(-1041.7,947.84)"
       enable-background="new"
       id="g19032">
      <circle
         cx="2205.7"
         cy="-54.921001"
         r="24.802999"
         id="circle19026" />
      <path
         d="m 2192,-68.419 8.0825,0.2114 5.4756,-5.949 5.5657,5.8647 8.0784,-0.33476 -0.2114,8.0825 5.9489,5.4756 -5.8647,5.5657 0.3348,8.0784 -8.0825,-0.2114 -5.4756,5.949 -5.5657,-5.8647 -8.0784,0.33476 0.2114,-8.0825 -5.9489,-5.4756 5.8646,-5.5657 z"
         fill="none"
         stroke="#dd1d1d"
         stroke-linejoin="round"
         stroke-width="2.8346"
         id="path19028" />
      <circle
         cx="2205.7"
         cy="-54.921001"
         fill="none"
         stroke="#f4f2ef"
         stroke-linejoin="round"
         stroke-width="1.7717"
         id="ellipse19030"
         r="23.031" />
    </g>
    <g
       transform="translate(-977.95,947.84)"
       enable-background="new"
       id="g19040">
      <circle
         cx="2205.7"
         cy="-54.921001"
         r="24.802999"
         id="circle19034" />
      <path
         d="m 2192,-68.419 8.0825,0.2114 5.4756,-5.949 5.5657,5.8647 8.0784,-0.33476 -0.2114,8.0825 5.9489,5.4756 -5.8647,5.5657 0.3348,8.0784 -8.0825,-0.2114 -5.4756,5.949 -5.5657,-5.8647 -8.0784,0.33476 0.2114,-8.0825 -5.9489,-5.4756 5.8646,-5.5657 z"
         fill="none"
         stroke="#dd1d1d"
         stroke-linejoin="round"
         stroke-width="2.8346"
         id="path19036" />
      <circle
         cx="2205.7"
         cy="-54.921001"
         fill="none"
         stroke="#f4f2ef"
         stroke-linejoin="round"
         stroke-width="1.7717"
         id="ellipse19038"
         r="23.031" />
    </g>
    <g
       transform="translate(-1041.7,1018.7)"
       enable-background="new"
       id="g19048">
      <circle
         cx="2205.7"
         cy="-54.921001"
         r="24.802999"
         id="circle19042" />
      <path
         d="m 2192,-68.419 8.0825,0.2114 5.4756,-5.949 5.5657,5.8647 8.0784,-0.33476 -0.2114,8.0825 5.9489,5.4756 -5.8647,5.5657 0.3348,8.0784 -8.0825,-0.2114 -5.4756,5.949 -5.5657,-5.8647 -8.0784,0.33476 0.2114,-8.0825 -5.9489,-5.4756 5.8646,-5.5657 z"
         fill="none"
         stroke="#dd1d1d"
         stroke-linejoin="round"
         stroke-width="2.8346"
         id="path19044" />
      <circle
         cx="2205.7"
         cy="-54.921001"
         fill="none"
         stroke="#f4f2ef"
         stroke-linejoin="round"
         stroke-width="1.7717"
         id="ellipse19046"
         r="23.031" />
    </g>
    <g
       transform="translate(-977.95,1018.7)"
       enable-background="new"
       id="g19056">
      <circle
         cx="2205.7"
         cy="-54.921001"
         r="24.802999"
         id="circle19050" />
      <path
         d="m 2192,-68.419 8.0825,0.2114 5.4756,-5.949 5.5657,5.8647 8.0784,-0.33476 -0.2114,8.0825 5.9489,5.4756 -5.8647,5.5657 0.3348,8.0784 -8.0825,-0.2114 -5.4756,5.949 -5.5657,-5.8647 -8.0784,0.33476 0.2114,-8.0825 -5.9489,-5.4756 5.8646,-5.5657 z"
         fill="none"
         stroke="#dd1d1d"
         stroke-linejoin="round"
         stroke-width="2.8346"
         id="path19052" />
      <circle
         cx="2205.7"
         cy="-54.921001"
         fill="none"
         stroke="#f4f2ef"
         stroke-linejoin="round"
         stroke-width="1.7717"
         id="ellipse19054"
         r="23.031" />
    </g>
    <g
       transform="translate(-1041.7,1089.6)"
       enable-background="new"
       id="g19064">
      <circle
         cx="2205.7"
         cy="-54.921001"
         r="24.802999"
         id="circle19058" />
      <path
         d="m 2192,-68.419 8.0825,0.2114 5.4756,-5.949 5.5657,5.8647 8.0784,-0.33476 -0.2114,8.0825 5.9489,5.4756 -5.8647,5.5657 0.3348,8.0784 -8.0825,-0.2114 -5.4756,5.949 -5.5657,-5.8647 -8.0784,0.33476 0.2114,-8.0825 -5.9489,-5.4756 5.8646,-5.5657 z"
         fill="none"
         stroke="#dd1d1d"
         stroke-linejoin="round"
         stroke-width="2.8346"
         id="path19060" />
      <circle
         cx="2205.7"
         cy="-54.921001"
         fill="none"
         stroke="#f4f2ef"
         stroke-linejoin="round"
         stroke-width="1.7717"
         id="ellipse19062"
         r="23.031" />
    </g>
    <g
       transform="translate(-977.95,1089.6)"
       enable-background="new"
       id="g19072">
      <circle
         cx="2205.7"
         cy="-54.921001"
         r="24.802999"
         id="circle19066" />
      <path
         d="m 2192,-68.419 8.0825,0.2114 5.4756,-5.949 5.5657,5.8647 8.0784,-0.33476 -0.2114,8.0825 5.9489,5.4756 -5.8647,5.5657 0.3348,8.0784 -8.0825,-0.2114 -5.4756,5.949 -5.5657,-5.8647 -8.0784,0.33476 0.2114,-8.0825 -5.9489,-5.4756 5.8646,-5.5657 z"
         fill="none"
         stroke="#dd1d1d"
         stroke-linejoin="round"
         stroke-width="2.8346"
         id="path19068" />
      <circle
         cx="2205.7"
         cy="-54.921001"
         fill="none"
         stroke="#f4f2ef"
         stroke-linejoin="round"
         stroke-width="1.7717"
         id="ellipse19070"
         r="23.031" />
    </g>
    <g
       transform="translate(-1041.7,1160.4)"
       enable-background="new"
       id="g19080">
      <circle
         cx="2205.7"
         cy="-54.921001"
         r="24.802999"
         id="circle19074" />
      <path
         d="m 2192,-68.419 8.0825,0.2114 5.4756,-5.949 5.5657,5.8647 8.0784,-0.33476 -0.2114,8.0825 5.9489,5.4756 -5.8647,5.5657 0.3348,8.0784 -8.0825,-0.2114 -5.4756,5.949 -5.5657,-5.8647 -8.0784,0.33476 0.2114,-8.0825 -5.9489,-5.4756 5.8646,-5.5657 z"
         fill="none"
         stroke="#dd1d1d"
         stroke-linejoin="round"
         stroke-width="2.8346"
         id="path19076" />
      <circle
         cx="2205.7"
         cy="-54.921001"
         fill="none"
         stroke="#f4f2ef"
         stroke-linejoin="round"
         stroke-width="1.7717"
         id="ellipse19078"
         r="23.031" />
    </g>
    <g
       transform="translate(-977.95,1160.4)"
       enable-background="new"
       id="g19088">
      <circle
         cx="2205.7"
         cy="-54.921001"
         r="24.802999"
         id="circle19082" />
      <path
         d="m 2192,-68.419 8.0825,0.2114 5.4756,-5.949 5.5657,5.8647 8.0784,-0.33476 -0.2114,8.0825 5.9489,5.4756 -5.8647,5.5657 0.3348,8.0784 -8.0825,-0.2114 -5.4756,5.949 -5.5657,-5.8647 -8.0784,0.33476 0.2114,-8.0825 -5.9489,-5.4756 5.8646,-5.5657 z"
         fill="none"
         stroke="#dd1d1d"
         stroke-linejoin="round"
         stroke-width="2.8346"
         id="path19084" />
      <circle
         cx="2205.7"
         cy="-54.921001"
         fill="none"
         stroke="#f4f2ef"
         stroke-linejoin="round"
         stroke-width="1.7717"
         id="ellipse19086"
         r="23.031" />
    </g>
  </g>
</svg>
