<?xml version="1.0" encoding="UTF-8" standalone="no"?>
<svg
   width="43.005013mm"
   height="88.00853mm"
   enable-background="new"
   version="1.1"
   viewBox="0 0 152.38109 311.84028"
   id="svg20076"
   sodipodi:docname="Mazzo.svg"
   inkscape:version="1.2.1 (9c6d41e410, 2022-07-14)"
   xmlns:inkscape="http://www.inkscape.org/namespaces/inkscape"
   xmlns:sodipodi="http://sodipodi.sourceforge.net/DTD/sodipodi-0.dtd"
   xmlns:xlink="http://www.w3.org/1999/xlink"
   xmlns="http://www.w3.org/2000/svg"
   xmlns:svg="http://www.w3.org/2000/svg"
   xmlns:rdf="http://www.w3.org/1999/02/22-rdf-syntax-ns#"
   xmlns:cc="http://creativecommons.org/ns#"
   xmlns:dc="http://purl.org/dc/elements/1.1/">
  <sodipodi:namedview
     id="namedview20078"
     pagecolor="#ffffff"
     bordercolor="#000000"
     borderopacity="0.25"
     inkscape:showpageshadow="2"
     inkscape:pageopacity="0.0"
     inkscape:pagecheckerboard="0"
     inkscape:deskcolor="#d1d1d1"
     inkscape:document-units="mm"
     showgrid="false"
     inkscape:zoom="8"
     inkscape:cx="81.25"
     inkscape:cy="148.1875"
     inkscape:window-width="2560"
     inkscape:window-height="1409"
     inkscape:window-x="0"
     inkscape:window-y="31"
     inkscape:window-maximized="1"
     inkscape:current-layer="svg20076" />
  <title
     id="title2">Bresciane</title>
  <defs
     id="defs191">
    <pattern
       id="j"
       width="3.542969"
       height="4.72461"
       patternTransform="translate(-52.264 805.51)"
       patternUnits="userSpaceOnUse">
      <path
         d="m0 0v0.53906l0.48242 0.64258-0.48242 0.64453v1.0742l0.48242 0.64258-0.48242 0.64258v0.53906h0.40625l-0.001953-0.00195 0.48047-0.64258 0.48438 0.64453h0.80664l0.48242-0.64258 0.48242 0.64258h0.40234v-0.53711l-0.48242-0.64258 0.48242-0.64453v-1.0762l-0.48242-0.64258 0.48242-0.64453v-0.53711h-0.40234l-0.48242 0.64258-0.48242-0.64258h-0.80664l-0.48242 0.64453-0.48242-0.64258 0.001953-0.00195h-0.40625zm1.7715 0.53711 0.48242 0.64453-0.48242 0.64258-0.48242-0.64258 0.48242-0.64453zm-0.88476 1.1816 0.48242 0.64258-0.48438 0.64453-0.48242-0.64258 0.48438-0.64453zm1.7715 0 0.48242 0.64453-0.48242 0.64258-0.48438-0.64258 0.48438-0.64453zm-0.88672 1.1816 0.48242 0.64258-0.48242 0.64453-0.48242-0.64453 0.48242-0.64258z"
         color="#000000"
         color-rendering="auto"
         enable-background="accumulate"
         fill-rule="evenodd"
         image-rendering="auto"
         shape-rendering="auto"
         solid-color="#000000"
         style="block-progression:tb;isolation:auto;mix-blend-mode:normal;text-decoration-color:#000000;text-decoration-line:none;text-decoration-style:solid;text-indent:0;text-transform:none;white-space:normal"
         id="path25" />
    </pattern>
    <pattern
       id="w"
       xlink:href="#j"
       patternTransform="translate(-52.264 805.51)" />
  </defs>
  <metadata
     id="metadata193">
    <rdf:RDF>
      <cc:Work
         rdf:about="">
        <dc:format>image/svg+xml</dc:format>
        <dc:type
           rdf:resource="http://purl.org/dc/dcmitype/StillImage" />
        <dc:title>Bresciane</dc:title>
        <dc:date>2020</dc:date>
        <dc:creator>
          <cc:Agent>
            <dc:title>ZZandro</dc:title>
          </cc:Agent>
        </dc:creator>
        <dc:rights>
          <cc:Agent>
            <dc:title />
          </cc:Agent>
        </dc:rights>
        <cc:license
           rdf:resource="http://creativecommons.org/licenses/by-sa/4.0/" />
      </cc:Work>
      <cc:License
         rdf:about="http://creativecommons.org/licenses/by-sa/4.0/">
        <cc:permits
           rdf:resource="http://creativecommons.org/ns#Reproduction" />
        <cc:permits
           rdf:resource="http://creativecommons.org/ns#Distribution" />
        <cc:requires
           rdf:resource="http://creativecommons.org/ns#Notice" />
        <cc:requires
           rdf:resource="http://creativecommons.org/ns#Attribution" />
        <cc:permits
           rdf:resource="http://creativecommons.org/ns#DerivativeWorks" />
        <cc:requires
           rdf:resource="http://creativecommons.org/ns#ShareAlike" />
      </cc:License>
    </rdf:RDF>
  </metadata>
  <g
     id="g18244"
     style="display:inline"
     transform="translate(-1916.9001,-7.0656861)">
    <g
       transform="matrix(0.97008,0,0,0.9964,951,-1740.4)"
       enable-background="new"
       fill="#f4f2ef"
       id="g17922">
      <g
         transform="matrix(0.70046,0,0,1.0004,298.31,-0.79223)"
         fill="#f4f2ef"
         id="g17920">
        <rect
           x="996.13"
           y="1754.4"
           width="223.23"
           height="311.81"
           rx="10.63"
           ry="10.63"
           fill="#f4f2ef"
           stroke="#000000"
           stroke-width="0.99673"
           id="rect17918" />
      </g>
    </g>
    <rect
       transform="matrix(0.53728,0,0,0.89487,1397.9,-1546.5)"
       x="996.13"
       y="1754.4"
       width="223.23"
       height="311.81"
       rx="10.63"
       ry="10.63"
       enable-background="new"
       fill="none"
       stroke="#000000"
       stroke-width="0.99673"
       id="rect17924" />
    <g
       transform="translate(1916.9,-733.49)"
       id="g18242">
      <g
         id="g18234">
        <g
           stroke="#000000"
           id="g18030">
          <path
             d="M 138.19,1028.4 H 14.17 v 9.7442 h 124.02 z"
             fill="#1780ce"
             fill-rule="evenodd"
             stroke-linecap="round"
             stroke-linejoin="round"
             stroke-width="0.99921"
             id="path17926" />
          <path
             d="m 14.174,1004.5 v 23.918 h 124.02 V 1004.5 Z"
             fill="#e9c13a"
             fill-rule="evenodd"
             stroke-linecap="round"
             stroke-linejoin="round"
             stroke-width="0.99921"
             id="path17928" />
          <path
             d="M 138.19,975.29 H 14.17 v 29.232 h 124.02 z"
             fill="#dd1d1d"
             fill-rule="evenodd"
             stroke-linecap="round"
             stroke-linejoin="round"
             stroke-width="0.99921"
             id="path17930" />
          <path
             d="m 14.174,930.12 v 45.178 h 124.02 V 938.98 l -118.7,-8.8594 z"
             fill="#e9c13a"
             fill-rule="evenodd"
             stroke-linecap="round"
             stroke-linejoin="round"
             stroke-width="0.99921"
             id="path17932" />
          <path
             d="m 14.173,932.78 8.469,9e-4"
             fill="none"
             stroke-width="0.64488"
             id="path17934" />
          <path
             d="m 14.173,935.43 12.4,8e-5"
             fill="none"
             stroke-width="0.64488"
             id="path17936" />
          <path
             d="m 14.173,938.09 16.755,10e-4"
             fill="none"
             stroke-width="0.64488"
             id="path17938" />
          <path
             d="M 14.173,940.75 H 32.087"
             fill="none"
             stroke-width="0.64488"
             id="path17940" />
          <path
             d="m 131.86,940.75 6.3274,-6.2e-4"
             fill="none"
             stroke-width="0.64488"
             id="path17942" />
          <path
             d="m 126.25,943.41 11.937,-2.5e-4"
             fill="none"
             stroke-width="0.64488"
             id="path17944" />
          <path
             d="m 119.58,946.06 18.607,-7.2e-4"
             fill="none"
             stroke-width="0.64488"
             id="path17946" />
          <path
             d="m 113.03,948.72 25.158,-2.9e-4"
             fill="none"
             stroke-width="0.64488"
             id="path17948" />
          <path
             d="M 14.173,948.72 H 28.851"
             fill="none"
             stroke-width="0.64488"
             id="path17950" />
          <path
             d="m 14.173,946.06 h 15.74"
             fill="none"
             stroke-width="0.64488"
             id="path17952" />
          <path
             d="M 14.173,943.41 H 31.001"
             fill="none"
             stroke-width="0.64488"
             id="path17954" />
          <path
             d="m 14.173,951.38 h 124.02"
             fill="none"
             stroke-linecap="round"
             stroke-linejoin="round"
             stroke-width="0.64488"
             id="path17956" />
          <path
             d="m 14.173,954.04 h 124.02"
             fill="none"
             stroke-linecap="round"
             stroke-linejoin="round"
             stroke-width="0.64488"
             id="path17958" />
          <path
             d="m 14.173,956.69 h 124.02"
             fill="none"
             stroke-linecap="round"
             stroke-linejoin="round"
             stroke-width="0.64488"
             id="path17960" />
          <path
             d="m 14.173,959.35 h 124.02"
             fill="none"
             stroke-linecap="round"
             stroke-linejoin="round"
             stroke-width="0.64488"
             id="path17962" />
          <path
             d="m 14.173,962.01 h 124.02"
             fill="none"
             stroke-linecap="round"
             stroke-linejoin="round"
             stroke-width="0.64488"
             id="path17964" />
          <path
             d="m 14.173,964.66 h 124.02"
             fill="none"
             stroke-linecap="round"
             stroke-linejoin="round"
             stroke-width="0.64488"
             id="path17966" />
          <path
             d="m 14.173,967.32 h 124.02"
             fill="none"
             stroke-linecap="round"
             stroke-linejoin="round"
             stroke-width="0.64488"
             id="path17968" />
          <path
             d="m 14.173,969.98 h 124.02"
             fill="none"
             stroke-linecap="round"
             stroke-linejoin="round"
             stroke-width="0.64488"
             id="path17970" />
          <path
             d="m 14.173,972.64 h 124.02"
             fill="none"
             stroke-linecap="round"
             stroke-linejoin="round"
             stroke-width="0.64488"
             id="path17972" />
          <path
             d="m 14.173,975.29 h 124.02"
             fill="none"
             stroke-linecap="round"
             stroke-linejoin="round"
             stroke-width="0.64488"
             id="path17974" />
          <path
             d="m 14.173,1004.5 h 124.02"
             fill="none"
             stroke-linecap="round"
             stroke-linejoin="round"
             stroke-width="0.64488"
             id="path17976" />
          <path
             d="m 14.173,1007.2 h 124.02"
             fill="none"
             stroke-linecap="round"
             stroke-linejoin="round"
             stroke-width="0.64488"
             id="path17978" />
          <path
             d="m 14.173,1009.8 h 124.02"
             fill="none"
             stroke-linecap="round"
             stroke-linejoin="round"
             stroke-width="0.64488"
             id="path17980" />
          <path
             d="m 14.173,1012.5 h 124.02"
             fill="none"
             stroke-linecap="round"
             stroke-linejoin="round"
             stroke-width="0.64488"
             id="path17982" />
          <path
             d="m 14.173,1015.2 h 124.02"
             fill="none"
             stroke-linecap="round"
             stroke-linejoin="round"
             stroke-width="0.64488"
             id="path17984" />
          <path
             d="m 14.173,1017.8 h 124.02"
             fill="none"
             stroke-linecap="round"
             stroke-linejoin="round"
             stroke-width="0.64488"
             id="path17986" />
          <path
             d="m 14.173,1020.5 h 124.02"
             fill="none"
             stroke-linecap="round"
             stroke-linejoin="round"
             stroke-width="0.64488"
             id="path17988" />
          <path
             d="m 14.173,1023.1 h 124.02"
             fill="none"
             stroke-linecap="round"
             stroke-linejoin="round"
             stroke-width="0.64488"
             id="path17990" />
          <path
             d="m 14.173,1025.8 h 124.02"
             fill="none"
             stroke-linecap="round"
             stroke-linejoin="round"
             stroke-width="0.64488"
             id="path17992" />
          <path
             d="m 14.173,1028.4 h 124.02"
             fill="none"
             stroke-linecap="round"
             stroke-linejoin="round"
             stroke-width="0.64488"
             id="path17994" />
          <path
             d="m 19.488,975.29 v 29.233"
             fill="none"
             stroke-linecap="round"
             stroke-linejoin="round"
             stroke-width="1px"
             id="path17996" />
          <path
             d="m 23.031,975.29 v 29.233"
             fill="none"
             stroke-linecap="round"
             stroke-linejoin="round"
             stroke-width="1px"
             id="path17998" />
          <path
             d="m 26.575,975.29 v 29.233"
             fill="none"
             stroke-linecap="round"
             stroke-linejoin="round"
             stroke-width="1px"
             id="path18000" />
          <path
             d="m 30.118,975.29 v 29.233"
             fill="none"
             stroke-linecap="round"
             stroke-linejoin="round"
             stroke-width="1px"
             id="path18002" />
          <path
             d="m 33.661,975.29 v 29.233"
             fill="none"
             stroke-linecap="round"
             stroke-linejoin="round"
             stroke-width="1px"
             id="path18004" />
          <path
             d="m 109.84,975.29 v 29.233"
             fill="none"
             stroke-linecap="round"
             stroke-linejoin="round"
             stroke-width="1px"
             id="path18006" />
          <path
             d="m 122.24,975.29 v 29.233"
             fill="none"
             stroke-linecap="round"
             stroke-linejoin="round"
             stroke-width="1px"
             id="path18008" />
          <path
             d="m 125.79,975.29 v 29.233"
             fill="none"
             stroke-linecap="round"
             stroke-linejoin="round"
             stroke-width="1px"
             id="path18010" />
          <path
             d="m 129.33,975.29 v 29.233"
             fill="none"
             stroke-linecap="round"
             stroke-linejoin="round"
             stroke-width="1px"
             id="path18012" />
          <path
             d="m 132.96,975.29 v 29.233"
             fill="none"
             stroke-linecap="round"
             stroke-linejoin="round"
             stroke-width="1px"
             id="path18014" />
          <path
             d="m 122.24,975.29 -12.402,29.233"
             fill="none"
             stroke-width="1px"
             id="path18016" />
          <path
             d="M 122.24,1004.5 109.838,975.267"
             fill="none"
             stroke-width="1px"
             id="path18018" />
          <path
             d="M 85.626,1004.5 72,984.647 58.374,1004.5"
             fill="none"
             stroke-linecap="round"
             stroke-linejoin="round"
             stroke-width="1px"
             id="path18020" />
          <path
             d="M 86.592,975.29 72,996.55 57.408,975.29"
             fill="none"
             stroke-linecap="round"
             stroke-linejoin="round"
             stroke-width="1px"
             id="path18022" />
          <path
             d="m 73.567,990.61 -1.5675,-2.2838 -1.5675,2.2838 1.5675,2.2838 1.5675,-2.2838"
             fill-rule="evenodd"
             stroke-linecap="round"
             stroke-linejoin="round"
             stroke-width="1px"
             id="path18024" />
          <path
             d="m 14.174,1031.1 h 124.02"
             fill="none"
             stroke-linecap="round"
             stroke-linejoin="round"
             stroke-width="0.64488"
             id="path18026" />
          <path
             d="m 14.174,1033.8 h 124.02"
             fill="none"
             stroke-linecap="round"
             stroke-linejoin="round"
             stroke-width="0.64488"
             id="path18028" />
        </g>
        <path
           d="m 24.949,915.62 a 91.095,91.095 0 0 0 0.25391,0.23633 91.095,91.095 0 0 0 7.25,5.5098 91.095,91.095 0 0 0 7.7617,4.7598 91.095,91.095 0 0 0 8.1992,3.9609 91.095,91.095 0 0 0 8.5547,3.123 91.095,91.095 0 0 0 8.8223,2.252 91.095,91.095 0 0 0 9.0039,1.3613 91.095,91.095 0 0 0 9.0938,0.45508 91.095,91.095 0 0 0 6.4434,-0.22851 91.095,91.095 0 0 0 9.0391,-1.0977 91.095,91.095 0 0 0 8.8848,-1.9941 91.095,91.095 0 0 0 8.6406,-2.8711 91.095,91.095 0 0 0 8.3125,-3.7188 91.095,91.095 0 0 0 4.9219,-2.8242 61.863,61.863 0 0 0 -25.1,-26.578 83.122,83.122 0 0 1 -23.205,3.3516 83.122,83.122 0 0 1 -31.445,-6.2246 61.863,61.863 0 0 0 -25.432,20.527 z"
           fill="#e9c13a"
           stroke="#000000"
           stroke-linecap="round"
           stroke-linejoin="round"
           stroke-width="1.3535"
           id="path18032" />
        <path
           d="M 33.313,921.89 A 93.752,93.752 0 0 1 54.291,896.441"
           fill="none"
           stroke="#000000"
           stroke-linecap="round"
           stroke-linejoin="round"
           stroke-width="0.99921"
           id="path18034" />
        <path
           d="m 45.103,928.51 c 2.8213,-10.921 8.3864,-20.892 14.874,-30.12"
           fill="none"
           stroke="#000000"
           stroke-linecap="round"
           stroke-linejoin="round"
           stroke-width="0.99921"
           id="path18036" />
        <path
           d="m 57.532,933.37 a 93.752,93.752 0 0 1 8.6827,-33.631"
           fill="none"
           stroke="#000000"
           stroke-linecap="round"
           stroke-linejoin="round"
           stroke-width="0.99921"
           id="path18038" />
        <path
           d="m 73.213,900.9 c 0,0 -1.4245,11.775 -1.9611,17.681 -0.53471,5.8841 -1.2536,17.681 -1.2536,17.681 10.098,2.9884 18.521,2.2786 25.798,0.12379 -0.18578,-12.173 -2.7407,-24.194 -7.5112,-35.364 z"
           fill="#1780ce"
           fill-rule="evenodd"
           stroke="#000000"
           stroke-width="1px"
           id="path18040" />
        <g
           fill-rule="evenodd"
           stroke="#000000"
           stroke-linecap="round"
           stroke-linejoin="round"
           stroke-width="0.99921"
           id="g18046">
          <path
             d="m 103.97,855.08 c -0.005,0.003 -0.009,0.007 -0.0137,0.01 -4.3494,12.07 -7.5632,24.519 -9.5996,37.186 3.7504,-0.56356 6.734,-1.9897 9.5508,-3.6035 -0.35618,-0.96678 -0.56591,-1.8595 -0.58594,-2.6582 0.82896,-1.1803 1.6118,-2.4137 2.3984,-3.6328 0.89801,-4.5234 2.0175,-8.9202 3.7363,-12.975 z"
             fill="#e9c13a"
             id="path18042" />
          <path
             d="m 103.97,855.08 c -0.005,0.003 -0.009,0.007 -0.0137,0.01 -4.3494,12.07 -7.5632,24.519 -9.5996,37.186 3.7504,-0.56356 6.734,-1.9897 9.5508,-3.6035 -0.35618,-0.96678 -0.56591,-1.8595 -0.58594,-2.6582 0.82896,-1.1803 1.6118,-2.4137 2.3984,-3.6328 0.89801,-4.5234 2.0175,-8.9202 3.7363,-12.975 z"
             fill="url(#j)"
             id="path18044" />
        </g>
        <path
           d="m 66.791,820.41 -10.096,4.5898 a 220.43,220.43 0 0 1 0.88477,1.543 220.43,220.43 0 0 1 9,20.111 220.43,220.43 0 0 1 6.9492,20.908 220.43,220.43 0 0 1 4.8242,21.5 220.43,220.43 0 0 1 0.50195,4.127 75.15,75.15 0 0 0 0.15625,0.008 221.31,221.31 0 0 1 1.8691,-12.365 221.31,221.31 0 0 1 5.4727,-21.434 221.31,221.31 0 0 1 7.5859,-20.781 221.31,221.31 0 0 1 7.2187,-14.947 l -6.873,-1.7774 a 42.374,42.374 0 0 1 -11.611,1.6367 42.374,42.374 0 0 1 -15.883,-3.1191 z"
           fill="#e9c13a"
           fill-rule="evenodd"
           stroke="#000000"
           stroke-linecap="round"
           stroke-linejoin="round"
           stroke-width="1px"
           id="path18048" />
        <path
           d="m 99.583,826.7 c -0.05519,0.0207 0.05525,-0.0206 0,0 -5.4106,2.0091 -11.136,3.038 -16.909,3.038 -8.1407,0 -16.151,-2.0459 -23.294,-5.9498"
           fill="none"
           stroke="#000000"
           stroke-linecap="round"
           stroke-linejoin="round"
           stroke-width="0.99921"
           id="path18050" />
        <path
           d="m 89.397,788.29 c 5.5692,1.8907 11.286,4.4501 16.37,7.4062 5.5447,-8.6061 14.554,-14.38 24.703,-15.826 -3.4018,-1.4757 -7.0824,-2.2355 -10.802,-2.2355 -3.1403,0 -6.2571,0.54151 -9.2157,1.6015 l -1.6802,-8.352 -6.3792,5.6053 -1.6774,-8.3533 -6.3595,5.6127 -1.6354,-8.3716 -6.4015,5.6308 -1.6453,-8.4076 -6.4131,5.6578 c -1.6945,-2.6468 -3.831,-4.9798 -6.317,-6.8985 -2.9448,-2.2728 -6.3228,-3.9201 -9.9174,-4.8303 7.1512,7.3459 10.755,17.421 9.8865,27.622 5.8312,0.76632 11.92,2.2329 17.484,4.1388"
           fill="#e9c13a"
           stroke="#000000"
           stroke-linecap="round"
           stroke-linejoin="round"
           stroke-width="0.99921"
           id="path18052" />
        <path
           d="m 107.3,793.72 a 91.095,91.095 0 0 0 -2.666,-1.6348 91.095,91.095 0 0 0 -8.1992,-3.9609 91.095,91.095 0 0 0 -8.5527,-3.123 91.095,91.095 0 0 0 -8.8223,-2.252 91.095,91.095 0 0 0 -7.1719,-1.084 c 0.01038,0.83978 0.08781,1.6741 0.01758,2.5195 5.8302,0.75384 11.92,2.2069 17.49,4.0996 5.5703,1.8928 11.285,4.4514 16.367,7.4062 0.45562,-0.70718 1.0212,-1.3165 1.5371,-1.9707 z"
           fill="none"
           stroke="#000000"
           stroke-linecap="round"
           stroke-linejoin="round"
           stroke-width="0.99921"
           id="path18054" />
        <path
           d="m 71.875,778.98 c 0.05823,0.89088 0.0065,1.7917 0.01758,2.6875 a 91.095,91.095 0 0 1 7.1719,1.084 91.095,91.095 0 0 1 8.8223,2.252 91.095,91.095 0 0 1 8.5527,3.123 91.095,91.095 0 0 1 8.1992,3.9609 91.095,91.095 0 0 1 2.666,1.6348 c 0.5513,-0.69909 1.0561,-1.4402 1.6406,-2.1074 a 93.752,93.752 0 0 0 -3.0312,-1.8594 93.752,93.752 0 0 0 -8.4394,-4.0762 93.752,93.752 0 0 0 -8.8027,-3.2148 93.752,93.752 0 0 0 -9.0801,-2.3184 93.752,93.752 0 0 0 -7.7168,-1.166 z"
           fill="none"
           stroke="#000000"
           stroke-linecap="round"
           stroke-linejoin="round"
           stroke-width="0.99921"
           id="path18056" />
        <path
           d="m 65.307,760.55 c 3.9103,5.3992 6.1346,11.793 6.5684,18.43 2.5873,0.28139 5.1618,0.6704 7.7168,1.166 3.0634,0.62094 6.0939,1.3947 9.0801,2.3184 2.986,0.9242 5.9239,1.9972 8.8027,3.2148 2.8794,1.2172 5.696,2.5776 8.4395,4.0762 1.0221,0.60057 2.0327,1.2205 3.0312,1.8594 4.391,-5.0126 10.058,-8.7385 16.461,-10.641 -1.9087,-0.47532 -3.7627,-0.68554 -5.7383,-0.68554 -3.6347,0 -7.3647,1.381 -10.56,2.8601 l -1.6797,-8.3086 -6.3828,5.5723 -1.6738,-8.3203 -6.3652,5.5879 -1.6426,-8.3086 -6.3965,5.5781 -1.666,-8.3086 -6.3945,5.5644 c -1.6327,-3.12 -3.749,-6.4872 -6.631,-8.7019 -1.5664,-1.2038 -3.1657,-2.167 -4.9688,-2.9531 z"
           id="path18058" />
        <path
           d="m 49.309,894.68 a 83.122,83.122 0 0 0 0.14844,0.0723 83.122,83.122 0 0 0 7.8047,2.8496 83.122,83.122 0 0 0 8.0508,2.0547 83.122,83.122 0 0 0 8.2148,1.2422 83.122,83.122 0 0 0 8.2988,0.41601 83.122,83.122 0 0 0 5.8789,-0.20898 83.122,83.122 0 0 0 8.248,-1.002 83.122,83.122 0 0 0 8.1074,-1.8184 83.122,83.122 0 0 0 2.5352,-0.8418 l -1.1094,-2.4297 a 80.465,80.465 0 0 1 -2.1367,0.71094 80.465,80.465 0 0 1 -7.8477,1.7598 80.465,80.465 0 0 1 -7.9844,0.9707 80.465,80.465 0 0 1 -5.6914,0.20117 80.465,80.465 0 0 1 -8.0332,-0.40234 80.465,80.465 0 0 1 -7.9531,-1.2012 80.465,80.465 0 0 1 -7.793,-1.9902 80.465,80.465 0 0 1 -7.5566,-2.7578 80.465,80.465 0 0 1 -0.48633,-0.23438 l -0.69531,2.6094 z"
           fill="#1780ce"
           fill-rule="evenodd"
           stroke="#000000"
           stroke-linecap="round"
           stroke-linejoin="round"
           stroke-width="1px"
           id="path18060" />
        <path
           d="m 80.592,900.97 1.1196,36.277"
           fill="none"
           stroke="#000000"
           stroke-width="1px"
           id="path18062" />
        <path
           d="m 50.004,892.07 a 80.465,80.465 0 0 0 0.48633,0.23438 80.465,80.465 0 0 0 7.5566,2.7578 80.465,80.465 0 0 0 7.793,1.9902 80.465,80.465 0 0 0 7.9531,1.2012 80.465,80.465 0 0 0 8.0332,0.40234 80.465,80.465 0 0 0 5.6914,-0.20117 80.465,80.465 0 0 0 7.9844,-0.9707 80.465,80.465 0 0 0 7.8477,-1.7598 80.465,80.465 0 0 0 2.1367,-0.71094 l -1.1094,-2.4297 a 77.807,77.807 0 0 1 -1.7383,0.57813 77.807,77.807 0 0 1 -7.5879,1.7051 77.807,77.807 0 0 1 -7.7207,0.93554 77.807,77.807 0 0 1 -5.5039,0.19532 77.807,77.807 0 0 1 -7.7676,-0.38867 77.807,77.807 0 0 1 -7.6914,-1.1621 77.807,77.807 0 0 1 -7.5352,-1.9238 77.807,77.807 0 0 1 -7.3066,-2.666 77.807,77.807 0 0 1 -0.82617,-0.39844 z"
           fill="#1780ce"
           fill-rule="evenodd"
           stroke="#000000"
           stroke-linecap="round"
           stroke-linejoin="round"
           stroke-width="1px"
           id="path18064" />
        <path
           d="m 50.699,889.46 a 77.807,77.807 0 0 0 0.82617,0.39844 77.807,77.807 0 0 0 7.3066,2.666 77.807,77.807 0 0 0 7.5352,1.9238 77.807,77.807 0 0 0 7.6914,1.1621 77.807,77.807 0 0 0 7.7676,0.38867 77.807,77.807 0 0 0 5.5039,-0.19532 77.807,77.807 0 0 0 7.7207,-0.93554 77.807,77.807 0 0 0 7.5879,-1.7051 77.807,77.807 0 0 0 1.7383,-0.57813 l -1.1094,-2.4277 a 75.15,75.15 0 0 1 -1.3398,0.44531 75.15,75.15 0 0 1 -7.3301,1.6465 75.15,75.15 0 0 1 -7.457,0.90429 75.15,75.15 0 0 1 -5.3145,0.18946 75.15,75.15 0 0 1 -7.5039,-0.37696 75.15,75.15 0 0 1 -7.4277,-1.1211 75.15,75.15 0 0 1 -7.2773,-1.8594 75.15,75.15 0 0 1 -7.0566,-2.5762 75.15,75.15 0 0 1 -1.166,-0.5625 z"
           fill="#1780ce"
           fill-rule="evenodd"
           stroke="#000000"
           stroke-linecap="round"
           stroke-linejoin="round"
           stroke-width="1px"
           id="path18066" />
        <path
           d="m 35.771,931.26 c -8.1907,24.342 -14.944,29.457 -5.2773,41.906 0.14966,0.64775 0.27116,1.2956 0.39453,1.9434 1.9732,-0.0933 3.9478,-0.18465 5.9121,-0.48438 2.632,-0.40162 5.2463,-0.98673 7.8164,-1.752 2.5785,-0.76771 5.0951,-1.7107 7.5254,-2.8164 0.16846,-0.0766 0.31871,-0.18352 0.48633,-0.26172 -1.9944,-3.4498 -4.6157,-5.8346 1.8437,-10.87 4.2954,-3.3483 9.3963,-10.075 11.092,-14.507 z"
           fill="#1780ce"
           fill-rule="evenodd"
           stroke="#000000"
           stroke-linecap="round"
           stroke-linejoin="round"
           stroke-width="0.99921"
           id="path18068" />
        <path
           d="m 106.51,942.49 v 0.002 l -26.258,3.1152 c 3.2496,9.6794 10.078,12.352 10.062,22.562 -0.17383,1.0535 -0.2353,1.7988 -0.37695,2.7637 1.034,0.34174 2.0288,0.77938 3.084,1.0625 2.5715,0.68998 5.2004,1.205 7.8613,1.5371 2.6696,0.33323 5.3537,0.47921 8.0234,0.44336 1.0863,-0.0146 2.1507,-0.19053 3.2305,-0.26563 2.5789,-18.041 0.693,-20.047 0.91406,-25.83 l -6.541,-5.3906 z"
           fill="#1780ce"
           fill-rule="evenodd"
           stroke="#000000"
           stroke-linecap="round"
           stroke-linejoin="round"
           stroke-width="0.99921"
           id="path18070" />
        <path
           d="m 18.621,926.41 a 61.863,61.863 0 0 0 -1.123,2.4824 106.15,106.15 0 0 0 66.391,23.445 106.15,106.15 0 0 0 51.455,-13.443 61.863,61.863 0 0 0 -0.70703,-2.6562 103.5,103.5 0 0 1 -3.8027,2.1816 103.5,103.5 0 0 1 -9.4434,4.2266 103.5,103.5 0 0 1 -9.8164,3.2617 103.5,103.5 0 0 1 -10.094,2.2656 103.5,103.5 0 0 1 -10.271,1.248 103.5,103.5 0 0 1 -7.3203,0.25781 103.5,103.5 0 0 1 -10.332,-0.51562 103.5,103.5 0 0 1 -10.23,-1.5469 103.5,103.5 0 0 1 -10.023,-2.5586 103.5,103.5 0 0 1 -9.7168,-3.5488 103.5,103.5 0 0 1 -9.3164,-4.5 103.5,103.5 0 0 1 -8.8203,-5.4062 103.5,103.5 0 0 1 -6.8281,-5.1934 z"
           fill="#dd1d1d"
           stroke="#000000"
           stroke-linecap="round"
           stroke-linejoin="round"
           stroke-width="1.3535"
           id="path18072" />
        <path
           d="m 23.393,917.79 a 61.863,61.863 0 0 0 -4.7715,8.6133 103.5,103.5 0 0 0 6.8281,5.1934 103.5,103.5 0 0 0 8.8203,5.4062 103.5,103.5 0 0 0 9.3164,4.5 103.5,103.5 0 0 0 9.7168,3.5488 103.5,103.5 0 0 0 10.023,2.5586 103.5,103.5 0 0 0 10.23,1.5469 103.5,103.5 0 0 0 10.332,0.51562 103.5,103.5 0 0 0 7.3203,-0.25781 103.5,103.5 0 0 0 10.271,-1.248 103.5,103.5 0 0 0 10.094,-2.2656 103.5,103.5 0 0 0 9.8164,-3.2617 103.5,103.5 0 0 0 9.4434,-4.2266 103.5,103.5 0 0 0 3.8027,-2.1816 61.863,61.863 0 0 0 -3.3125,-9.3184 93.752,93.752 0 0 1 -4.9102,2.8164 93.752,93.752 0 0 1 -8.5527,3.8281 93.752,93.752 0 0 1 -8.8945,2.9551 93.752,93.752 0 0 1 -9.1426,2.0527 93.752,93.752 0 0 1 -9.3047,1.1289 93.752,93.752 0 0 1 -6.6309,0.23437 93.752,93.752 0 0 1 -9.3594,-0.4668 93.752,93.752 0 0 1 -9.2656,-1.4004 93.752,93.752 0 0 1 -9.0801,-2.3203 93.752,93.752 0 0 1 -8.8047,-3.2129 93.752,93.752 0 0 1 -8.4375,-4.0762 93.752,93.752 0 0 1 -7.9902,-4.8984 93.752,93.752 0 0 1 -7.459,-5.6699 93.752,93.752 0 0 1 -0.09961,-0.0937 z"
           fill="#dd1d1d"
           stroke="#000000"
           stroke-linecap="round"
           stroke-linejoin="round"
           stroke-width="1.3535"
           id="path18074" />
        <path
           d="m 24.949,915.62 a 61.863,61.863 0 0 0 -1.5566,2.1758 93.752,93.752 0 0 0 0.09961,0.0937 93.752,93.752 0 0 0 7.459,5.6699 93.752,93.752 0 0 0 7.9902,4.8984 93.752,93.752 0 0 0 8.4375,4.0762 93.752,93.752 0 0 0 8.8047,3.2129 93.752,93.752 0 0 0 9.0801,2.3203 93.752,93.752 0 0 0 9.2656,1.4004 93.752,93.752 0 0 0 9.3594,0.4668 93.752,93.752 0 0 0 6.6309,-0.23437 93.752,93.752 0 0 0 9.3047,-1.1289 93.752,93.752 0 0 0 9.1426,-2.0527 93.752,93.752 0 0 0 8.8945,-2.9551 93.752,93.752 0 0 0 8.5527,-3.8281 93.752,93.752 0 0 0 4.9102,-2.8164 61.863,61.863 0 0 0 -1.1934,-2.375 91.095,91.095 0 0 1 -4.9219,2.8242 91.095,91.095 0 0 1 -8.3125,3.7188 91.095,91.095 0 0 1 -8.6406,2.8711 91.095,91.095 0 0 1 -8.8848,1.9941 91.095,91.095 0 0 1 -9.0391,1.0977 91.095,91.095 0 0 1 -6.4434,0.22851 91.095,91.095 0 0 1 -9.0938,-0.45508 91.095,91.095 0 0 1 -9.0039,-1.3613 91.095,91.095 0 0 1 -8.8223,-2.252 91.095,91.095 0 0 1 -8.5547,-3.123 91.095,91.095 0 0 1 -8.1992,-3.9609 91.095,91.095 0 0 1 -7.7617,-4.7598 91.095,91.095 0 0 1 -7.25,-5.5098 91.095,91.095 0 0 1 -0.25391,-0.23633 z"
           fill="#dd1d1d"
           stroke="#000000"
           stroke-linecap="round"
           stroke-linejoin="round"
           stroke-width="1.3535"
           id="path18076" />
        <path
           d="m 90.945,846.93 a 66.292,66.292 0 0 1 -8.2716,0.51807 66.292,66.292 0 0 1 -16.759,-2.1534"
           fill="none"
           stroke="#000000"
           stroke-linecap="round"
           stroke-linejoin="round"
           stroke-width="0.99921"
           id="path18078" />
        <path
           d="m 91.964,844.11 a 63.634,63.634 0 0 1 -9.2902,0.68181 63.634,63.634 0 0 1 -18.132,-2.6379"
           fill="none"
           stroke="#000000"
           stroke-linecap="round"
           stroke-linejoin="round"
           stroke-width="0.99921"
           id="path18080" />
        <path
           d="m 101.16,823.67 c -2.5923,4.8904 -5.0003,9.8763 -7.2187,14.947 -2.8735,6.7963 -5.4053,13.732 -7.5859,20.781 -2.1804,7.0488 -4.0069,14.202 -5.4727,21.434 -0.7394,4.1033 -1.3627,8.2267 -1.8691,12.365 0.93719,0.0645 1.8755,0.11135 2.8145,0.14063 1.7732,-4.4e-4 3.5458,-0.0636 5.3145,-0.18946 2.4196,-0.17495 4.8293,-0.46696 7.2207,-0.875 3.5669,-22.641 10.883,-44.528 21.646,-64.764 -0.85094,-0.32704 -1.6018,-0.77911 -2.7656,-0.71513 -3.3278,-1.379 -6.5239,-2.1871 -9.6017,-2.4828 -0.87757,-0.61502 -1.6872,-0.6869 -2.4823,-0.64188 z"
           fill="#dd1d1d"
           fill-rule="evenodd"
           stroke="#000000"
           stroke-linecap="round"
           stroke-linejoin="round"
           stroke-width="1px"
           id="path18082" />
        <path
           d="m 78.855,893.19 c -0.15434,-1.3772 -0.32167,-2.7529 -0.50195,-4.127 -1.2486,-7.2426 -2.8587,-14.418 -4.8242,-21.5 -1.9664,-7.0809 -4.2857,-14.059 -6.9492,-20.908 -2.6629,-6.8496 -5.6666,-13.562 -9,-20.111 -0.29285,-0.51551 -0.58777,-1.0298 -0.88477,-1.543 -1.1164,-0.37157 -1.7411,0.24033 -2.2749,1.034 -3.8405,0.64458 -5.9203,2.0173 -8.0114,3.6412 l -2.6571,1.2076 c 9.8303,18.907 16.671,39.223 20.279,60.225 0.94953,0.26289 1.9041,0.50707 2.8633,0.73242 2.4557,0.49728 4.9347,0.87145 7.4277,1.1211 1.5084,0.1218 3.0202,0.19801 4.5332,0.22852 z"
           fill="#dd1d1d"
           fill-rule="evenodd"
           stroke="#000000"
           stroke-linecap="round"
           stroke-linejoin="round"
           stroke-width="1px"
           id="path18084" />
        <path
           d="m 28.106,827.81 c 0.17698,-0.81604 0.54966,-1.5832 0.29262,-2.5077 -4.1455,-7.4156 -9.5614,-14.946 -8.5996,-22.395 0.14221,-1.0262 0.96702,-1.1863 1.4142,-1.2595 -0.19803,-2.8563 0.19352,-2.7471 0.66694,-3.1227 l 13.197,12.664 c 2.1369,2.1512 3.0075,3.1373 3.9831,3.0201 5.0388,-0.60543 2.3437,-0.69307 5.7632,-2.2775 l 5.5361,-1.706 c 0,0 0.50101,-0.0159 0.68428,0.19431 0.12448,0.14282 0.20856,0.44923 0.04419,0.66291 -2.3555,1.8241 -3.5731,3.3754 -4.4947,4.9656 -5.0532,10.985 -3.9916,7.5383 -6.0625,10.844 l -0.28497,1.8547 c -4.0469,0.9327 -8.0938,0.46119 -12.141,-0.93717"
           fill="#f4f2ef"
           fill-rule="evenodd"
           stroke="#000000"
           stroke-linecap="round"
           stroke-linejoin="round"
           stroke-width="0.99921"
           id="path18086" />
        <path
           d="m 46.268,829.73 a 208.91,208.91 0 0 1 20.883,62.136"
           fill="none"
           stroke="#000000"
           stroke-linecap="round"
           stroke-linejoin="round"
           stroke-width="0.99921"
           id="path18088" />
        <path
           d="m 54.344,826.06 a 217.77,217.77 0 0 1 21.969,66.973"
           fill="none"
           stroke="#000000"
           stroke-linecap="round"
           stroke-linejoin="round"
           stroke-width="0.99921"
           id="path18090" />
        <path
           d="m 81.409,893.29 a 218.65,218.65 0 0 1 22.202,-69.028"
           fill="none"
           stroke="#000000"
           stroke-linecap="round"
           stroke-linejoin="round"
           stroke-width="0.99921"
           id="path18092" />
        <path
           d="m 91.372,892.57 a 208.91,208.91 0 0 1 21.919,-65.781"
           fill="none"
           stroke="#000000"
           stroke-linecap="round"
           stroke-linejoin="round"
           stroke-width="0.99921"
           id="path18094" />
        <path
           d="m 103.72,824.32 6.8214,7.8254 -10.47,-0.72911 7.2139,7.6238 -10.49,-0.3464 7.4873,7.3555 -10.496,0.0366 7.7507,7.0773 -10.487,0.41955 8.0038,6.7898 -10.465,0.80201 8.2463,6.4932 -10.429,1.1834 8.4778,6.1878 -10.379,1.5632 8.6979,5.8744 -10.315,1.9409 8.9058,5.5574 7.26e-4,-0.004"
           fill="none"
           stroke="#000000"
           stroke-linecap="round"
           stroke-linejoin="round"
           stroke-width="1px"
           id="path18096" />
        <path
           d="m 100.41,823.51 a 45.918,45.918 0 0 1 -17.733,3.5622 45.918,45.918 0 0 1 -20.175,-4.6698"
           fill="none"
           stroke="#000000"
           stroke-linecap="round"
           stroke-linejoin="round"
           stroke-width="0.99921"
           id="path18098" />
        <path
           d="m 106.56,899.94 3.3203,-1.1856 c -1.6774,-2.4161 -3.2965,-4.8023 -4.5059,-6.9844 -0.60468,-1.091 -1.1067,-2.1328 -1.4629,-3.0996 -0.3562,-0.9668 -0.56591,-1.8595 -0.58594,-2.6582 l -3.2266,1.3692 c 0.0904,1.012 0.39749,2.0408 0.8418,3.0801 0.4443,1.0392 1.0257,2.0901 1.668,3.1445 1.2846,2.1089 2.8101,4.2361 3.9512,6.334 z"
           fill="#dd1d1d"
           fill-rule="evenodd"
           stroke="#000000"
           stroke-linecap="round"
           stroke-linejoin="round"
           stroke-width="0.99921"
           id="path18100" />
        <path
           d="m 95.153,900.12 a 93.752,93.752 0 0 1 13.769,33.627"
           fill="none"
           stroke="#000000"
           stroke-linecap="round"
           stroke-linejoin="round"
           stroke-width="0.99921"
           id="path18102" />
        <g
           stroke="#000000"
           stroke-linecap="round"
           stroke-linejoin="round"
           id="g18114">
          <path
             d="m 96.995,889.87 c -0.77101,-1.1223 -9.1147,-1.9486 -12.054,-0.36608 -2.6492,1.5864 -6.5534,0.63547 -4.6404,2.961 1.466,1.2077 2.8573,0.77246 4.1984,0.70711 -1.2871,1.2385 -2.9268,0.87082 -6.1407,2.3041 -0.82176,0.36648 -2.8458,0.2886 -3.895,0.1929 -0.56346,-0.0514 -1.1808,-0.2109 -1.6757,-0.11049 -0.42283,0.0426 -1.2975,1.2685 0.57452,2.1434 0.78254,0.92438 -0.5907,1.5733 2.3865,2.6296 0.86402,0.91797 -0.02164,2.2138 5.3355,2.9275 0.2355,0.64818 0.41664,1.4968 1.603,1.8012 12.248,1.1155 10.986,-1.2218 19.589,-5.2767 -0.79547,-6.5202 -0.85441,-6.8225 -5.2812,-9.9136 z"
             fill="#f4f2ef"
             fill-rule="evenodd"
             stroke-width="0.99921"
             id="path18104" />
          <path
             d="m 73.605,897.62 c 4.8146,1.5042 6.5153,-0.13054 10.496,0.35356"
             fill="none"
             stroke-width="0.64488"
             id="path18106" />
          <path
             d="m 75.815,900.16 c 3.3064,0.49373 5.1979,0.73131 8.9493,0.68502"
             fill="none"
             stroke-width="0.64488"
             id="path18108" />
          <path
             d="m 81.04,903.13 c 2.2597,0.34848 2.8662,0.25827 4.7408,0.29863"
             fill="none"
             stroke-width="0.64488"
             id="path18110" />
          <path
             d="m 84.367,893.22 c 1.7143,-0.23366 2.0705,-0.91692 2.9831,-1.5247"
             fill="none"
             stroke-width="0.99921"
             id="path18112" />
        </g>
        <path
           d="m 106.56,899.94 c -1.141,-2.0979 -2.6666,-4.2251 -3.9512,-6.334 -0.64229,-1.0545 -1.2237,-2.1053 -1.668,-3.1445 -0.44431,-1.0392 -0.75139,-2.0681 -0.8418,-3.0801 l -3.2266,1.3711 c 0.45767,3.7199 3.2719,8.1212 6.3652,12.373 z"
           fill="#dd1d1d"
           fill-rule="evenodd"
           stroke="#000000"
           stroke-linecap="round"
           stroke-linejoin="round"
           stroke-width="0.99921"
           id="path18116" />
        <path
           d="m 125.49,863.64 c -1.5428,0.10753 -3.0807,0.3295 -4.6035,0.66406 -1.5225,0.3345 -3.0115,0.7792 -4.457,1.3281 -1.4455,0.54893 -2.8484,1.2019 -4.1953,1.9531 -0.96786,0.53985 -1.87,1.1872 -2.7773,1.8262 1.0476,1.8512 2.209,3.5748 3.6758,4.9395 -4.3354,2.2122 -6.7567,7.3198 -9.8106,11.668 0.02,0.79871 0.22976,1.6914 0.58594,2.6582 0.35618,0.9668 0.85821,2.0086 1.4629,3.0996 1.2094,2.1821 2.8284,4.5683 4.5059,6.9844 l 0.78125,-0.27929 c 15.281,-5.5833 27.51,-14.857 22.787,-30.053 -0.34904,-1.4051 -0.80872,-2.9759 -1.1934,-4.4512 -0.71192,-0.10343 -1.4159,-0.26745 -2.1328,-0.32227 -1.5381,-0.11761 -3.0861,-0.12315 -4.6289,-0.0156 z"
           fill="#1780ce"
           fill-rule="evenodd"
           stroke="#000000"
           stroke-linecap="round"
           stroke-linejoin="round"
           stroke-width="0.99921"
           id="path18118" />
        <path
           d="m 131.42,861.18 c -0.65146,-0.071 -1.297,-0.19875 -1.9512,-0.23242 -1.5283,-0.0787 -3.0613,-0.0555 -4.5898,0.0703 -1.5285,0.12581 -3.0524,0.35421 -4.5606,0.68555 -1.5081,0.33133 -2.9872,0.76258 -4.4277,1.2891 -1.4405,0.52652 -2.8427,1.1473 -4.1973,1.8594 -1.1611,0.61031 -2.268,1.3185 -3.3535,2.0586 0.38531,0.82061 0.68485,1.7286 1.1191,2.4961 0.9073,-0.63896 1.8095,-1.2863 2.7773,-1.8262 1.3469,-0.75126 2.7498,-1.4042 4.1953,-1.9531 1.4456,-0.54893 2.9345,-0.99363 4.457,-1.3281 1.5228,-0.33456 3.0607,-0.55653 4.6035,-0.66406 1.5428,-0.10753 3.0908,-0.10199 4.6289,0.0156 0.71689,0.0548 1.4209,0.21884 2.1328,0.32227 -0.24188,-0.92771 -0.57881,-1.8617 -0.83398,-2.793 z"
           fill="#e9c13a"
           fill-rule="evenodd"
           stroke="#000000"
           stroke-linecap="round"
           stroke-linejoin="round"
           stroke-width="0.99921"
           id="path18120" />
        <path
           d="m 128.45,851.23 c -0.43176,-0.003 -0.85937,-0.11026 -1.291,-0.10157 -2.9966,0.0603 -5.9882,0.4143 -8.9297,1.0606 -2.9383,0.64556 -5.7978,1.5759 -8.541,2.7754 -1.7302,0.75651 -3.3184,1.8 -4.9453,2.7656 1.0521,3.1721 2.2296,6.2658 3.5996,9.1836 1.0855,-0.74009 2.1924,-1.4483 3.3535,-2.0586 1.3546,-0.71204 2.7568,-1.3329 4.1973,-1.8594 1.4405,-0.5265 2.9196,-0.95773 4.4277,-1.2891 1.5081,-0.33134 3.032,-0.55974 4.5606,-0.68555 1.5285,-0.1258 3.0615,-0.14898 4.5898,-0.0703 0.65419,0.0337 1.2997,0.16142 1.9512,0.23242 -0.90936,-3.3187 -1.8991,-6.6404 -2.9727,-9.9531 z"
           fill="#e9c13a"
           fill-rule="evenodd"
           stroke="#000000"
           stroke-linecap="round"
           stroke-linejoin="round"
           stroke-width="0.99921"
           id="path18122" />
        <path
           d="m 126.55,848.48 c -2.984,0.0944 -5.9603,0.46404 -8.8887,1.1074 -2.9312,0.64398 -5.7899,1.556 -8.541,2.7226 -1.7922,0.76001 -3.4515,1.7962 -5.1426,2.7676 a 206.25,206.25 0 0 0 -0.0703,0.1875 c 0.27138,0.8122 0.56503,1.6363 0.83789,2.459 1.6269,-0.96563 3.2151,-2.0091 4.9453,-2.7656 2.7432,-1.1994 5.6027,-2.1298 8.541,-2.7754 2.9415,-0.64625 5.9331,-1.0002 8.9297,-1.0606 0.43165,-0.009 0.85926,0.0981 1.291,0.10157 -0.28879,-0.89117 -0.4985,-1.7907 -0.79883,-2.6777 -0.36853,0.003 -0.73518,-0.0781 -1.1035,-0.0664 z"
           fill="#e9c13a"
           fill-rule="evenodd"
           stroke="#000000"
           stroke-linecap="round"
           stroke-linejoin="round"
           stroke-width="0.99921"
           id="path18124" />
        <path
           d="m 116.01,827.51 a 206.25,206.25 0 0 0 -12.033,27.568 c 1.691,-0.97133 3.3504,-2.0076 5.1426,-2.7676 2.7511,-1.1667 5.6098,-2.0787 8.541,-2.7226 2.9284,-0.64338 5.9047,-1.013 8.8887,-1.1074 0.36834,-0.0117 0.73498,0.0697 1.1035,0.0664 -3.3033,-9.7566 -7.19,-18.409 -11.643,-21.037 z"
           fill="#1780ce"
           fill-rule="evenodd"
           stroke="#000000"
           stroke-linecap="round"
           stroke-linejoin="round"
           stroke-width="0.99921"
           id="path18126" />
        <path
           d="m 113.14,874.35 c 1.1095,-0.48505 2.281,-0.34943 3.4475,-0.26474"
           fill="none"
           stroke="#000000"
           stroke-linecap="round"
           stroke-linejoin="round"
           stroke-width="1px"
           id="path18128" />
        <g
           transform="rotate(-12.391,141.05,1194.9)"
           fill="none"
           stroke="#e9c13a"
           stroke-linecap="round"
           stroke-linejoin="round"
           stroke-width="0.29055"
           id="g18134">
          <path
             d="M 174.77,872.95"
             id="path18130" />
          <path
             d="M 209.83,872.96"
             id="path18132" />
        </g>
        <path
           d="m 65.418,826.57 -5.4102,4.9023 c 0.6644,1.39 1.3063,2.7918 1.9414,4.1953 1.4071,0.535 2.8331,1.012 4.2734,1.4356 z m 0.80469,10.533 v 0.01 l 0.0059,-0.008 c -0.002,-5.8e-4 -0.0039,-10e-4 -0.0059,-0.002 z m 0.0059,0.002 c 2.9986,0.8815 6.0616,1.516 9.1602,1.9062 l -2.6523,-10.301 z m 9.1602,1.9062 0.0039,0.0137 0.0059,-0.0117 c -0.0033,-4.2e-4 -0.0065,-0.002 -0.0098,-0.002 z m 0.0098,0.002 c 2.4093,0.30301 4.8378,0.46875 7.2754,0.46875 0.69163,0 1.3816,-0.0282 2.0723,-0.0527 l -4.2598,-9.7402 -5.0879,9.3242 z m 9.3477,0.41601 0.0059,0.0156 0.0059,-0.0156 c -0.0039,1.4e-4 -0.0078,-1.4e-4 -0.01172,0 z m 0.01172,0 c 3.1237,-0.11177 6.235,-0.45955 9.3027,-1.0703 l -5.7656,-8.9473 z"
           stroke="#000000"
           stroke-linecap="round"
           stroke-linejoin="round"
           stroke-width="0.99921"
           id="path18136" />
        <path
           d="m 73.937,853.61 c 3.8929,5.4593 6.1643,11.459 7.5625,17.75"
           fill="none"
           stroke="#000000"
           stroke-width="0.99921"
           id="path18138" />
        <path
           d="m 79.437,850.86 c 1.1374,3.7267 -0.46584,6.3041 -1.7556,8.8672 0.04835,-5.1106 0.89009,-7.2491 1.7556,-8.8672 z"
           fill-rule="evenodd"
           stroke="#000000"
           stroke-linecap="round"
           stroke-linejoin="round"
           stroke-width="1px"
           id="path18140" />
        <path
           d="m 79.954,865.69 c 0.11739,-3.4248 0.89321,-6.103 2.4212,-7.9513 0.5253,3.367 -1.0253,5.8823 -2.4212,7.9513 -1.6971,-1.9329 -3.6082,-3.5271 -6.2976,-3.8888 2.9348,3.445 4.4644,3.2767 6.2976,3.8888 z"
           fill-rule="evenodd"
           stroke="#000000"
           stroke-linecap="round"
           stroke-linejoin="round"
           stroke-width="1px"
           id="path18142" />
        <path
           d="m 77.682,859.73 c -2.2413,-1.726 -3.8304,-4.3317 -6.4319,-3.9609 0.9029,2.2771 3.5122,2.9746 6.4319,3.9609"
           fill-rule="evenodd"
           stroke="#000000"
           stroke-width="1px"
           id="path18144" />
        <path
           d="m 76.125,848.36 c 0.74216,2.5493 -0.38337,4.7691 -0.95015,7.0874 -0.19216,-2.4643 -0.09903,-4.8715 0.95015,-7.0874 z"
           fill="none"
           stroke="#000000"
           stroke-linecap="round"
           stroke-linejoin="round"
           stroke-width="1px"
           id="path18146" />
        <path
           d="m 73.937,853.61 c -0.86265,-2.2428 -1.3857,-4.5434 -4.8438,-6.3438 0.77866,2.4566 2.2346,4.636 4.8438,6.3438"
           fill-rule="evenodd"
           stroke="#000000"
           stroke-linecap="round"
           stroke-linejoin="round"
           stroke-width="1px"
           id="path18148" />
        <path
           d="m 43.752,830.89 c -1.2879,1.9644 -1.2948,4.7904 -2.0332,6.9746 l -0.17578,-2.4102 c -1.2,-0.4955 -2.4227,-0.88593 -3.666,-1.1758 -1.2433,-0.28984 -2.5074,-0.479 -3.793,-0.56836 -1.2855,-0.0894 -2.5913,-0.0806 -3.918,0.0254 -1.3266,0.10597 -2.6743,0.30935 -4.041,0.60547 0,5.4071 -7.0896,21.268 -1.25,38.648 3.1959,10.019 20.241,11.479 30.955,-13.141 a 206.25,206.25 0 0 0 -12.078,-28.959 z"
           fill="#1780ce"
           fill-rule="evenodd"
           stroke="#000000"
           stroke-linecap="round"
           stroke-linejoin="round"
           stroke-width="1px"
           id="path18150" />
        <path
           d="m 26.125,834.34 c 1.3667,-0.29612 2.7144,-0.4995 4.041,-0.60547 1.3266,-0.10596 2.6324,-0.11475 3.918,-0.0254 1.2855,0.0894 2.5497,0.27852 3.793,0.56836 1.2433,0.28985 2.466,0.68028 3.666,1.1758 v -6.2246 c -5.864,-2.3388 -10.704,-1.8967 -15.418,-1.1152 v 3.2363 z"
           fill="#dd1d1d"
           fill-rule="evenodd"
           stroke="#000000"
           stroke-linecap="round"
           stroke-linejoin="round"
           stroke-width="1px"
           id="path18152" />
        <path
           d="m 26.125,831.35 c 5.6696,-1.3081 10.748,-0.74286 15.418,1.1133"
           fill="none"
           stroke="#000000"
           stroke-linecap="round"
           stroke-linejoin="round"
           stroke-width="1px"
           id="path18154" />
        <path
           d="m 55.844,859.85 -0.01398,-0.009 c -2.2345,5.1346 -4.7455,9.1198 -7.3477,12.145 l -0.13477,0.41407 c 2.6111,5.182 2.454,9.7252 3.0469,14.441 0.38705,0.19084 0.77574,0.37835 1.166,0.5625 2.3078,0.97583 4.663,1.8356 7.0566,2.5762 1.459,0.42012 2.9304,0.79596 4.4121,1.127 h 0.002 c -2.1979,-12.397 -6.2444,-26.312 -8.1872,-31.257 z"
           fill="#e9c13a"
           fill-rule="evenodd"
           stroke="#e9c13a"
           stroke-linecap="round"
           stroke-linejoin="round"
           stroke-width="0.29055"
           id="path18156" />
        <path
           d="m 55.844,859.85 -0.01398,-0.009 c -2.2345,5.1346 -4.7455,9.1198 -7.3477,12.145 l -0.13477,0.41407 c 2.6111,5.182 2.454,9.7252 3.0469,14.441 0.38705,0.19084 0.77574,0.37835 1.166,0.5625 2.3078,0.97583 4.663,1.8356 7.0566,2.5762 1.459,0.42012 2.9304,0.79596 4.4121,1.127 h 0.002 c -2.1979,-12.397 -6.2444,-26.312 -8.1872,-31.257 z"
           fill="url(#w)"
           fill-rule="evenodd"
           stroke="#000000"
           stroke-linecap="round"
           stroke-linejoin="round"
           stroke-width="0.99921"
           id="path18158" />
        <path
           d="m 41.719,837.86 c -0.0768,10.864 3.604,10.473 3.9338,26.101"
           fill="none"
           stroke="#000000"
           stroke-linecap="round"
           stroke-linejoin="round"
           stroke-width="0.99921"
           id="path18160" />
        <path
           d="m 108.34,866.91 0.78499,-11.692 7.1648,7.6312 2.1367,-10.707 c 0,0 7.4869,8.806 7.4869,8.806 l 2.534,-9.7216"
           fill="none"
           stroke="#000000"
           stroke-linecap="round"
           stroke-linejoin="round"
           id="path18162" />
        <path
           d="m 134.46,936.34 -9.4295,-5.9182 -1.0826,11.187 -8.7429,-7.0616 -2.3451,10.991 -7.8851,-8.0082 -3.5773,10.654 -6.9254,-8.8512 -4.7631,10.18 -5.8766,-9.5814 -5.8873,9.5742 -4.7512,-10.185 -6.9359,8.8429 -3.5646,-10.659 -7.8949,7.9997 -2.3316,-10.996 -8.7513,7.0514 -1.0696,-11.187 -9.495,6.0127 0.20698,-11.237 -10.103,4.8781 1.4674,-11.122 -2.8399,1.2804"
           fill="none"
           stroke="#000000"
           stroke-linecap="round"
           stroke-linejoin="round"
           stroke-width="1px"
           id="path18164" />
        <path
           d="m 54.344,826.06 -5.6689,8.4213 10.13,0.66729 -6.0542,8.1488 10.088,1.1374 -6.4264,7.8586 10.024,1.605 -6.7847,7.5515 9.9385,2.0691 -7.1283,7.228 9.8316,2.5288 -7.4566,6.8887 9.7035,2.9833 -7.7687,6.5347 9.5293,3.4509"
           fill="none"
           stroke="#000000"
           stroke-linecap="round"
           stroke-linejoin="round"
           stroke-width="0.99921"
           id="path18166" />
        <path
           d="m 58.07,1014.8 c -1.2023,0.9499 -2.4202,1.6774 -3.6445,2.1914 -1.2243,0.514 -2.4559,0.8138 -3.6875,0.9121 -1.2316,0.098 -2.4632,-0.01 -3.6875,-0.3027 -1.221,-0.2963 -2.4336,-0.7855 -3.6328,-1.4551 h -0.0098 c -0.67236,1.5386 -1.9956,2.6369 -3.7227,3.957 -8.0634,5.6744 -9.8221,3.9317 -14.23,5.4805 0,0 -0.76322,0.3847 -0.44141,1.8125 0.0031,0.7496 0.70703,1.1933 0.70703,1.1933 3.4959,1.1303 7.5606,1.7058 24.131,-0.707 0.08408,0.3083 0.0399,0.21 0.0432,1.3261 17.703,0.7816 9.116,-5.5512 8.1756,-14.408 z"
           fill-rule="evenodd"
           stroke="#000000"
           stroke-linecap="round"
           stroke-linejoin="round"
           stroke-width="0.99921"
           id="path18168" />
        <path
           d="m 56.256,977.33 c -0.61129,0.30251 -1.2146,0.63064 -1.8594,0.82227 -0.9609,0.28558 -1.9479,0.44914 -2.9277,0.48633 -0.97979,0.0372 -1.9525,-0.0519 -2.8848,-0.26563 -0.93231,-0.21374 -1.8241,-0.55234 -2.6426,-1.0195 -0.41608,0.81251 -0.96156,1.5716 -1.6152,2.2578 -0.65368,0.68626 -1.4154,1.2996 -2.2637,1.8145 -0.87566,0.53144 -1.8106,0.93902 -2.7715,1.2246 -0.9609,0.28559 -1.9479,0.44914 -2.9277,0.48633 -0.97979,0.0372 -1.9525,-0.0519 -2.8848,-0.26562 -0.08548,-0.0196 -0.15741,-0.072 -0.24219,-0.0937 0.13968,0.274 0.18596,0.54825 0.35156,0.82226 4.3853,13.968 12.847,25.62196 9.8203,32.54696 h 0.0098 c 1.1992,0.6696 2.4118,1.1589 3.6328,1.4552 1.2243,0.2971 2.4559,0.4009 3.6875,0.3026 1.2316,-0.098 2.4632,-0.3981 3.6875,-0.9121 1.2243,-0.514 2.4422,-1.2415 3.6445,-2.1914 -3.254,-20.57596 -0.23738,-31.02496 -1.8145,-37.47096 z"
           fill="#1780ce"
           fill-rule="evenodd"
           stroke="#000000"
           stroke-linecap="round"
           stroke-linejoin="round"
           stroke-width="0.99921"
           id="path18170" />
        <path
           d="m 52.629,969.79 c -0.16762,0.0782 -0.31787,0.18508 -0.48633,0.26172 -2.4303,1.1057 -4.9469,2.0487 -7.5254,2.8164 -2.5701,0.76522 -5.1844,1.3503 -7.8164,1.752 -1.9643,0.29973 -3.9389,0.39107 -5.9121,0.48438 0.30493,1.6009 0.63033,3.2018 1.1211,4.8027 0.22806,0.0694 0.42847,0.20229 0.66211,0.25586 0.93231,0.21374 1.905,0.30281 2.8848,0.26562 0.97979,-0.0372 1.9668,-0.20074 2.9277,-0.48632 0.9609,-0.28559 1.8958,-0.69316 2.7715,-1.2246 0.84824,-0.51481 1.6093,-1.128 2.2637,-1.8145 0.6544,-0.68642 1.2021,-1.4466 1.6211,-2.2598 0.81992,0.46686 1.7134,0.80598 2.6465,1.0195 0.9331,0.21352 1.9066,0.30094 2.8867,0.26367 0.98015,-0.0373 1.9667,-0.19877 2.9277,-0.48437 0.57089,-0.16967 1.101,-0.47191 1.6465,-0.72852 -0.80414,-1.4956 -1.7364,-3.1549 -2.6191,-4.9238 z"
           fill-rule="evenodd"
           stroke="#000000"
           stroke-linecap="round"
           stroke-linejoin="round"
           stroke-width="0.99921"
           id="path18172" />
        <path
           d="m 45.141,974.65 2.8161,9.4992"
           fill="none"
           stroke="#000000"
           stroke-width="2.0622"
           id="path18174" />
        <path
           d="m 56.256,977.33 c -0.14095,-0.57605 -0.2593,-1.17 -0.48242,-1.6856 -0.12525,-0.28025 -0.36707,-0.6274 -0.52539,-0.92187 -0.54551,0.25661 -1.0756,0.55885 -1.6465,0.72852 -0.96099,0.2856 -1.9476,0.4471 -2.9277,0.48437 -0.98015,0.0373 -1.9536,-0.0501 -2.8867,-0.26367 -0.93312,-0.21355 -1.8266,-0.55267 -2.6465,-1.0195 -0.41897,0.81317 -0.96669,1.5733 -1.6211,2.2598 -0.6544,0.68642 -1.4154,1.2996 -2.2637,1.8145 -0.87565,0.53145 -1.8106,0.93902 -2.7715,1.2246 -0.9609,0.28558 -1.9479,0.44913 -2.9277,0.48632 -0.97979,0.0372 -1.9525,-0.0519 -2.8848,-0.26562 -0.23364,-0.0536 -0.43405,-0.18644 -0.66211,-0.25586 0.29241,0.95387 0.7403,1.9075 1.2266,2.8613 0.08478,0.0217 0.15671,0.0741 0.24219,0.0937 0.93231,0.21373 1.905,0.30281 2.8848,0.26562 0.97979,-0.0372 1.9668,-0.20074 2.9277,-0.48633 0.9609,-0.28558 1.8958,-0.69316 2.7715,-1.2246 0.84824,-0.51481 1.61,-1.1282 2.2637,-1.8145 0.65368,-0.68625 1.1992,-1.4453 1.6152,-2.2578 0.81847,0.46719 1.7103,0.80579 2.6426,1.0195 0.9323,0.21371 1.905,0.30281 2.8848,0.26563 0.97979,-0.0372 1.9668,-0.20075 2.9277,-0.48633 0.64475,-0.19163 1.2481,-0.51976 1.8594,-0.82227 z"
           fill="#dd1d1d"
           fill-rule="evenodd"
           stroke="#000000"
           stroke-linecap="round"
           stroke-linejoin="round"
           stroke-width="0.99921"
           id="path18176" />
        <path
           d="m 107.4,1014.8 h -0.008 c -1.3547,1.1207 -2.5825,1.8049 -3.7461,2.1523 -1.1636,0.3475 -2.263,0.3576 -3.3613,0.1328 -1.0984,-0.2247 -2.1966,-0.6853 -3.3555,-1.2812 -1.1589,-0.5959 -2.3794,-1.3277 -3.7246,-2.0938 l -0.05664,0.021 c -0.3333,1.9543 -0.53772,3.2763 -0.83203,4.5918 -1.396,5.5116 -4.7391,10.254 5.8223,10.506 0.14024,-0.4662 0.20442,-1.4864 0.11523,-2.0684 7.3557,5.2983 15.418,4.1335 20.494,3.5684 4.0218,-0.4476 3.8182,-1.3654 3.9004,-3.2754 0.0217,-0.5052 -0.90556,-0.6824 -1.6406,-0.8926 -7.9159,-0.8239 -11.934,-5.5756 -13.607,-11.359 z"
           fill-rule="evenodd"
           stroke="#000000"
           stroke-linecap="round"
           stroke-linejoin="round"
           stroke-width="0.99921"
           id="path18178" />
        <path
           d="m 110.67,982.29 c -0.99142,0.12522 -1.988,0.13145 -2.959,0.01 -0.99466,-0.12466 -1.9629,-0.37468 -2.875,-0.73438 -0.9121,-0.3597 -1.7673,-0.83 -2.5352,-1.4004 -0.76782,-0.57039 -1.448,-1.2394 -2.0098,-1.9961 -0.70754,0.5768 -1.5143,1.0542 -2.3887,1.4199 -0.8744,0.3657 -1.8172,0.61948 -2.8008,0.75 -1.0154,0.13474 -2.0368,0.13282 -3.0312,0.008 -0.99449,-0.125 -1.9616,-0.37328 -2.873,-0.73437 -0.0451,-0.0179 -0.08018,-0.0519 -0.125,-0.0703 -0.85007,13.932 2.9387,15.227 3.6113,26.07005 0.49954,3.8861 0.55956,6.2973 0.45703,8.1582 l 0.05664,-0.021 c 1.3452,0.7661 2.5657,1.4979 3.7246,2.0938 1.1589,0.5959 2.2571,1.0565 3.3555,1.2812 1.0984,0.2248 2.1977,0.2147 3.3613,-0.1328 1.1636,-0.3474 2.3914,-1.0316 3.7461,-2.1523 h 0.008 c -1.0132,-3.5029 -1.1708,-7.3816 -0.80078,-11.002 1.9776,-9.30525 3.0771,-15.60505 4.0781,-21.54705 z"
           fill="#1780ce"
           fill-rule="evenodd"
           stroke="#000000"
           stroke-linecap="round"
           stroke-linejoin="round"
           stroke-width="0.99921"
           id="path18180" />
        <path
           d="m 100.65,975.37 -1.3916,9.6845"
           fill="none"
           stroke="#000000"
           stroke-width="2.0622"
           id="path18182" />
        <path
           d="m 100.65,975.37 c -0.71045,0.57623 -1.5175,1.0524 -2.3926,1.418 -0.87509,0.36556 -1.8191,0.61948 -2.8027,0.75 -1.0154,0.13474 -2.0346,0.13442 -3.0293,0.01 -0.99466,-0.12466 -1.9648,-0.37272 -2.877,-0.73242 -0.13791,-0.0544 -0.24761,-0.15346 -0.38281,-0.21289 -0.12764,1.2475 -0.02012,1.8569 -0.08594,2.9356 0.04482,0.0184 0.0799,0.0524 0.125,0.0703 0.91145,0.36109 1.8786,0.60937 2.873,0.73437 0.99449,0.12501 2.0158,0.12693 3.0312,-0.008 0.98362,-0.13052 1.9264,-0.3843 2.8008,-0.75 0.8744,-0.3657 1.6811,-0.84312 2.3887,-1.4199 0.56172,0.75673 1.242,1.4257 2.0098,1.9961 0.76781,0.57039 1.623,1.0407 2.5352,1.4004 0.9122,0.3597 1.8803,0.60972 2.875,0.73438 0.97095,0.12168 1.9676,0.11545 2.959,-0.01 0.13121,-0.77888 0.41153,-2.0722 0.53515,-2.8242 -0.037,0.005 -0.0683,0.0244 -0.10546,0.0293 -1.0154,0.13474 -2.0365,0.13444 -3.0312,0.01 -0.99476,-0.12468 -1.9625,-0.37265 -2.875,-0.73243 -0.9125,-0.35977 -1.7685,-0.83179 -2.5371,-1.4023 -0.76864,-0.57055 -1.4505,-1.2391 -2.0137,-1.9961 z"
           fill="#dd1d1d"
           fill-rule="evenodd"
           stroke="#000000"
           stroke-linecap="round"
           stroke-linejoin="round"
           stroke-width="0.99921"
           id="path18184" />
        <path
           d="m 112.13,973.71 c -1.0798,0.0751 -2.1442,0.25104 -3.2305,0.26563 -2.6698,0.0358 -5.3538,-0.11013 -8.0234,-0.44336 -2.6609,-0.33215 -5.2898,-0.84713 -7.8613,-1.5371 -1.0552,-0.28312 -2.05,-0.72076 -3.084,-1.0625 -0.29052,1.9788 -0.6054,4.0256 -0.77344,5.668 0.13521,0.0594 0.24491,0.15851 0.38281,0.21289 0.91213,0.3597 1.8823,0.60776 2.877,0.73242 0.9947,0.12466 2.0139,0.12498 3.0293,-0.01 0.98362,-0.13052 1.9276,-0.38444 2.8027,-0.75 0.87509,-0.36557 1.6821,-0.84174 2.3926,-1.418 0.56318,0.75701 1.245,1.4255 2.0137,1.9961 0.76863,0.57055 1.6246,1.0426 2.5371,1.4023 0.91249,0.35978 1.8802,0.60775 2.875,0.73243 0.99475,0.12467 2.0158,0.12497 3.0312,-0.01 0.0371,-0.005 0.0684,-0.024 0.10546,-0.0293 0.33016,-2.0082 0.68338,-4.0542 0.92579,-5.75 z"
           fill-rule="evenodd"
           stroke="#000000"
           stroke-linecap="round"
           stroke-linejoin="round"
           stroke-width="0.99921"
           id="path18186" />
        <path
           d="m 44.086,1020.8 -3.4376,2.3885 -3.2722,-1.5837 3.2472,-2.2664 z"
           fill="none"
           stroke="#f4f2ef"
           stroke-linecap="round"
           stroke-linejoin="round"
           stroke-width="1px"
           id="path18188" />
        <path
           d="m 109.73,1019.9 c 0,0 -1.8488,0.1086 -2.7503,0.3033 -0.807,0.1743 -2.3545,0.7687 -2.3545,0.7687 l 1.6802,2.0226 c 0,0 1.5449,-0.5938 2.3506,-0.7678 0.90025,-0.1944 2.7464,-0.3024 2.7464,-0.3024 l -0.83621,-1.0122 z"
           fill="none"
           stroke="#f4f2ef"
           stroke-linecap="round"
           stroke-linejoin="round"
           stroke-width="1px"
           id="path18190" />
        <ellipse
           transform="rotate(-16.513)"
           cx="-233.74001"
           cy="957.19"
           rx="2.9834001"
           ry="4.2702999"
           fill="#dd1d1d"
           stroke="#000000"
           stroke-linecap="round"
           stroke-linejoin="round"
           stroke-width="0.99921"
           id="ellipse18192" />
        <path
           d="m 46.743,980.05 2.4275,8.1884"
           fill="none"
           stroke="#000000"
           stroke-linecap="round"
           stroke-linejoin="round"
           stroke-width="1px"
           id="path18194" />
        <g
           transform="rotate(24.69,71.629,1101.8)"
           stroke="#000000"
           stroke-linecap="round"
           stroke-linejoin="round"
           id="g18200">
          <ellipse
             transform="rotate(-16.513)"
             cx="-233.74001"
             cy="957.19"
             rx="2.9834001"
             ry="4.2702999"
             fill="#dd1d1d"
             stroke-width="0.99921"
             id="ellipse18196" />
          <path
             d="m 46.743,980.05 2.4275,8.1884"
             fill="none"
             stroke-width="1px"
             id="path18198" />
        </g>
        <path
           d="m 39.061,814.21 c -1.4273,0.31751 -1.8405,0.68572 -2.4826,1.0425"
           fill="none"
           stroke="#000000"
           stroke-linecap="round"
           stroke-linejoin="round"
           stroke-width="0.99921"
           id="path18202" />
        <path
           d="m 21.213,801.65 c 0.17038,0.0766 0.37112,0.0554 0.56461,0.59321 0.42683,5.9956 0.63084,4.8072 3.0328,8.3258"
           fill="none"
           stroke="#000000"
           stroke-linecap="round"
           stroke-linejoin="round"
           stroke-width="0.64488"
           id="path18204" />
        <path
           d="m 23.931,801.7 c 1.1254,3.9456 0.67125,4.6886 3.8021,7.8502"
           fill="none"
           stroke="#000000"
           stroke-linecap="round"
           stroke-linejoin="round"
           stroke-width="0.64488"
           id="path18206" />
        <path
           d="m 30.25,808.96 -1.9473,-2.0893"
           fill="none"
           stroke="#000000"
           stroke-linecap="round"
           stroke-linejoin="round"
           stroke-width="0.64488"
           id="path18208" />
        <g
           transform="matrix(0.84286,0,0,0.84286,-1817.6,837.58)"
           enable-background="new"
           id="g18216">
          <circle
             cx="2205.7"
             cy="-54.921001"
             r="24.802999"
             id="circle18210" />
          <path
             d="m 2192,-68.419 8.0825,0.2114 5.4756,-5.949 5.5657,5.8647 8.0784,-0.33476 -0.2114,8.0825 5.9489,5.4756 -5.8647,5.5657 0.3348,8.0784 -8.0825,-0.2114 -5.4756,5.949 -5.5657,-5.8647 -8.0784,0.33476 0.2114,-8.0825 -5.9489,-5.4756 5.8646,-5.5657 z"
             fill="none"
             stroke="#dd1d1d"
             stroke-linejoin="round"
             stroke-width="3.3631"
             id="path18212" />
          <circle
             cx="2205.7"
             cy="-54.921001"
             fill="none"
             stroke="#f4f2ef"
             stroke-linejoin="round"
             stroke-width="2.102"
             id="ellipse18214"
             r="23.031" />
        </g>
        <path
           d="m 74.093,810.53 9.41e-4,8.6913 v 0 c -2.6677,0.10865 -5.6339,0.4898 -7.3031,1.1894 5.0447,2.0506 10.437,3.1096 15.883,3.1191 3.9276,-0.005 7.8354,-0.55567 11.611,-1.6367 -0.79256,-0.19331 -1.5708,-0.35484 -2.3555,-0.52929 l -0.13672,-0.0355 v -7.6192 c -4.6038,3.7468 -14.588,7.6488 -17.7,-3.1791 0,0 9.2e-4,0.003 0,0 z"
           fill="#f4f2ef"
           fill-rule="evenodd"
           stroke="#000000"
           stroke-linecap="round"
           stroke-linejoin="round"
           stroke-width="1px"
           id="path18218" />
        <g
           transform="translate(-94.365,139.29)"
           fill="#1780ce"
           fill-rule="evenodd"
           id="g18230">
          <path
             d="m 195.63,661.22 0.24024,0.35937 z"
             id="path18220" />
          <path
             d="m 197.3,661.94 -0.12109,0.12109 z"
             id="path18222" />
          <path
             d="m 165.51,662.54 -0.11915,0.12109 z"
             id="path18224" />
          <path
             d="m 162.04,664.93 -0.11914,0.1211 z"
             id="path18226" />
          <path
             d="m 192.4,674.26 -0.47656,0.35742 z"
             id="path18228" />
        </g>
        <path
           d="m 7.6259,740.96 c -3.9978,0 -7.2148,4.7281 -7.2148,10.602 v 289.79 c 0,5.8734 3.2171,10.602 7.2148,10.602 h 137.11 c 3.9978,0 7.2168,-4.7282 7.2168,-10.602 v -289.79 c 0,-5.8735 -3.219,-10.602 -7.2168,-10.602 z m 14.369,15.879 h 108.37 c 3.1599,0 5.7031,4.2459 5.7031,9.5195 v 260.19 c 0,5.2737 -2.5432,9.5195 -5.7031,9.5195 h -108.37 c -3.1599,0 -5.7051,-4.2458 -5.7051,-9.5195 v -260.19 c 0,-5.2736 2.5452,-9.5195 5.7051,-9.5195 z"
           fill="#f4f2ef"
           fill-rule="evenodd"
           stroke="#000000"
           stroke-width="0.82205"
           id="path18232" />
      </g>
      <path
         d="m 99.328,813.37 c -0.0698,-0.0251 -0.15526,-0.0269 -0.25391,0.004 -0.28852,0.0896 -0.48499,0.39899 -0.65625,0.62696 -0.43227,0.57557 -1.2929,1.2437 -1.5039,1.9414 -0.07689,0.25377 0.20743,0.32637 0.40234,0.28907 0.31995,-0.0597 0.53161,-0.36353 0.75,-0.57813 0.52049,-0.51157 1.05,-1.059 1.4141,-1.6992 0.12847,-0.22579 0.05707,-0.50838 -0.15234,-0.58398 z m -1.2285,-0.77735 c -0.34569,-0.0621 -0.68764,0.4352 -0.88086,0.6543 -0.70923,0.804 -1.4291,1.5415 -2.2227,2.2578 -0.15803,0.14254 -0.50409,0.58411 -0.125,0.69727 0.37997,0.11268 0.73316,-0.20737 0.96875,-0.45703 0.67594,-0.71646 1.4667,-1.3804 2.1035,-2.1211 0.16927,-0.19696 0.73074,-0.92768 0.15625,-1.0312 z m -1.4258,-0.44336 c -0.1871,0.0331 -0.38631,0.17482 -0.49414,0.29102 -0.65133,0.70197 -1.2629,1.3095 -2.0293,1.8945 -0.49836,0.38015 -0.9817,0.46816 -1.1191,1.125 1.2296,0.38142 2.5869,-1.2562 3.2988,-2.041 0.21702,-0.23931 0.89095,-0.69655 0.70703,-1.0859 -0.04605,-0.0974 -0.10945,-0.15148 -0.18359,-0.17578 -0.05561,-0.0182 -0.11732,-0.0189 -0.17969,-0.008 z m 0.18555,-2.7129 c -0.89248,0.2182 -1.1101,0.86944 -1.6895,1.5117 -0.34996,0.38783 -0.73161,0.73226 -1.1035,1.0957 -0.36215,0.35388 -0.87257,0.80739 -1.0879,1.2676 -0.08748,0.18685 -0.15288,0.54679 0.14258,0.58399 0.42321,0.0527 0.81426,-0.42818 1.1074,-0.65235 0.83942,-0.64175 1.4258,-1.4686 2.0703,-2.2793 0.39473,-0.49661 0.88138,-0.83615 0.56055,-1.5274 z m 8.1152,-0.99023 c -0.52247,0.32445 -0.72812,0.95248 -1.0391,1.459 -0.21883,0.35638 -0.46066,0.69294 -0.70313,1.0332 -0.2341,0.32853 -0.63176,0.726 -0.63476,1.1562 -0.001,0.20393 0.16331,0.52338 0.41406,0.42578 0.33532,-0.12978 0.5974,-0.6719 0.77734,-0.96094 0.47265,-0.75918 1.8652,-2.2232 1.1856,-3.1133 z m -33.834,-3.6016 c -0.50708,-0.0609 -0.6141,1.0726 -0.63086,1.4004 -0.05985,1.1875 0.03059,2.293 0.55859,3.3828 0.19478,0.40189 0.49924,0.95602 1.0312,0.91992 0.25987,-0.0178 0.27159,-0.29084 0.16016,-0.47265 -0.14323,-0.2336 -0.38251,-0.37808 -0.51758,-0.62305 -0.48834,-0.88533 -0.69377,-2.2613 -0.53711,-3.2598 0.04182,-0.26583 0.41188,-1.2906 -0.06445,-1.3476 z m 34.279,-0.47852 c -0.0469,-0.0209 -0.10629,-0.0205 -0.18359,0.01 -0.55748,0.21958 -0.78547,1.427 -1.0332,1.9102 -0.60767,1.1854 -1.3269,2.3422 -2.0371,3.4707 -0.37359,0.59346 -0.93612,1.2218 -1.1621,1.8867 -0.29269,0.86153 0.17812,2.1056 1.3125,1.6133 0.22981,-0.0998 0.24384,-0.4151 0.0644,-0.57422 -0.3132,-0.27719 -0.92574,-0.1508 -0.63672,-0.78321 0.88857,-1.9441 2.437,-3.565 3.3047,-5.5391 0.21603,-0.49131 0.51629,-0.97753 0.52929,-1.5273 0.004,-0.15474 -0.0175,-0.4034 -0.1582,-0.4668 z m -35.58,-0.26562 c -0.17808,-0.0183 -0.36448,0.14609 -0.46094,0.28711 -0.30376,0.44448 -0.38763,1.1267 -0.45117,1.6504 -0.12936,1.0665 0.08099,2.0223 0.40234,3.0137 0.21147,0.65229 0.36462,1.4279 0.82227,1.9726 0.39798,0.474 0.98095,0.95616 1.5645,1.166 0.4341,0.15607 0.78327,0.0518 0.74219,-0.45508 -1.4336,-0.34931 -2.0291,-1.918 -2.4004,-3.1641 -0.16165,-0.54238 -0.3838,-1.2092 -0.32617,-1.7852 0.06539,-0.65345 0.21319,-1.2569 0.33789,-1.8984 0.03806,-0.1956 0.09786,-0.54045 -0.05859,-0.69922 -0.05375,-0.0547 -0.11252,-0.0819 -0.17188,-0.0879 z m 2.543,-0.16016 c -0.369,-0.0515 -0.38703,0.99493 -0.41992,1.2207 -0.14693,1.0067 -0.025,2.057 0.30469,3.0117 0.11155,0.32296 0.31046,0.84833 0.72461,0.89063 0.37347,0.0386 0.32177,-0.47318 0.24219,-0.69336 -0.43538,-1.2041 -0.61013,-2.0309 -0.56055,-3.3223 0.0095,-0.24625 0.06944,-1.0571 -0.29102,-1.1074 z m -4.1699,-0.39648 c -0.4305,-0.0911 -0.59403,1.1947 -0.62109,1.4316 -0.18422,1.6138 -0.20762,3.4078 0.60547,4.8594 0.30612,0.54642 0.39328,1.1504 1.0781,1.3027 0.20955,-0.85903 -0.68036,-1.9818 -0.85547,-2.8359 -0.2469,-1.2047 -0.16189,-2.1723 -0.03906,-3.375 0.03221,-0.31672 0.28359,-0.98954 0.0332,-1.252 -0.07282,-0.0764 -0.13967,-0.11786 -0.20117,-0.13086 z m -1.1016,-1.1856 c -0.07923,-0.0147 -0.15758,-0.0144 -0.22266,0.008 -0.38584,0.13202 -0.5949,1.0143 -0.70312,1.3633 -0.27514,0.88714 -0.23745,1.731 -0.27344,2.6465 -0.02706,0.68914 -0.09543,1.5462 0.14062,2.2012 0.13316,0.3695 0.65369,2.0173 1.25,1.7168 0.19326,-0.0971 0.06538,-0.33945 -0.0039,-0.47266 -0.2456,-0.47373 -0.41149,-1.0742 -0.49023,-1.6035 -0.20928,-1.4072 -0.24092,-2.7759 0.14062,-4.1699 0.11828,-0.43229 0.524,-0.8094 0.60352,-1.2188 0.04517,-0.23293 -0.20372,-0.4261 -0.44141,-0.4707 z m 37.734,-6.5898 c -0.55995,0.005 -0.36164,0.53647 -0.37304,0.89649 -0.0338,0.93631 0.0874,1.8762 0.01,2.8125 -0.27369,3.3144 -1.6325,6.6228 -3.5273,9.3418 -0.37243,0.53434 -0.97402,1.1058 -1.2246,1.7031 -0.09086,0.21656 -0.14282,0.70246 0.17969,0.75586 0.26452,0.0434 0.51281,-0.25651 0.65234,-0.44336 0.45283,-0.60608 0.74847,-1.3326 1.209,-1.9394 2.1374,-2.8171 2.8662,-5.9979 3.4668,-9.4062 0.16666,-0.94919 0.0125,-1.9303 0.0254,-2.8848 0.004,-0.32825 0.0458,-0.84704 -0.41797,-0.83594 z m -3.7715,-1.2226 c -0.042,-0.007 -0.088,-0.008 -0.13672,0.002 -0.36556,0.0711 -0.23766,0.57427 -0.19336,0.82617 0.16827,0.95987 0.27747,1.78 0.26367,2.7656 -0.0427,3.0426 -1.1874,5.7145 -2.6562,8.3106 -0.32018,0.56622 -0.76706,1.0676 -1.0625,1.6426 -0.14672,0.28556 -0.14168,0.62508 0.25586,0.61328 0.34241,-0.0105 0.52651,-0.29541 0.72266,-0.5371 0.41578,-0.51235 0.78851,-1.039 1.1641,-1.5801 1.6964,-2.4443 2.5225,-5.5426 2.5586,-8.4961 0.0108,-0.8684 -0.0513,-2.0235 -0.38671,-2.8301 -0.0986,-0.23705 -0.23542,-0.6645 -0.5293,-0.7168 z m 1.6016,-0.0254 c -0.0453,-0.007 -0.0908,-0.008 -0.13672,0.004 -0.37338,0.0946 -0.0934,0.76942 -0.043,0.99805 0.22093,1.0093 0.4019,2.0946 0.3418,3.1348 -0.21489,3.7194 -1.3514,7.2608 -3.9395,10.072 -0.20885,0.22695 -0.9592,1.4843 -0.08594,1.4238 0.35341,-0.0245 0.578,-0.42534 0.75781,-0.67773 0.45026,-0.63225 0.9399,-1.2041 1.3223,-1.8848 0.88131,-1.5689 1.8064,-3.1967 2.2891,-4.9394 0.36724,-1.3266 0.44164,-2.8584 0.46094,-4.2285 0.0141,-1.0099 -0.0607,-2.1539 -0.30078,-3.1348 -0.0604,-0.24684 -0.34903,-0.71578 -0.66602,-0.76758 z m -29.543,-0.22266 c -0.29329,0.004 -0.29769,0.48303 -0.31445,0.68555 -0.0406,0.48935 -0.84969,2.2111 0.08594,2.25 0.27792,0.0119 0.33053,-0.31423 0.36133,-0.52539 0.08607,-0.58688 0.09532,-1.1847 0.10352,-1.7774 0.0026,-0.18821 0.06199,-0.62881 -0.23633,-0.63281 z m 2.791,-7.0566 c -0.08525,-0.007 -0.16758,0.002 -0.23438,0.0254 -0.25215,0.0909 -0.27742,0.40935 -0.34961,0.63086 -0.18632,0.57155 -0.3387,1.1966 -0.6582,1.7109 -0.89198,1.436 -2.076,2.7413 -3.0508,4.1309 -0.5789,0.82529 -1.2256,1.5796 -1.3398,2.6211 -0.13398,1.2213 0.24804,2.5187 1.3535,3.1758 0.21645,0.12883 0.5675,0.45054 0.84375,0.36914 0.31706,-0.0927 0.19998,-0.8858 0.07031,-1.0938 -0.1439,-0.23085 -0.51258,-0.38339 -0.70703,-0.58984 -0.55969,-0.59474 -0.69538,-1.297 -0.55859,-2.0938 0.44709,-2.6024 3.2672,-4.1905 4.373,-6.4453 0.27966,-0.57023 0.73362,-1.3731 0.7793,-2.0137 0.0181,-0.25355 -0.26573,-0.40694 -0.52148,-0.42774 z m -3.2441,-0.36133 c -0.0849,-0.0157 -0.18636,-0.009 -0.30274,0.0215 -0.36575,0.0958 -0.44683,0.47454 -0.61719,0.76172 -0.32778,0.5529 -0.77878,1.1435 -1.1914,1.6367 -0.46752,0.55879 -1.0213,1.0468 -1.4531,1.6406 -1.7308,2.3805 -2.6673,5.103 -2.4219,8.0703 0.12109,1.4638 1.2676,3.0094 2.5781,3.6367 0.35265,0.16867 1.002,0.52102 1.4004,0.36133 0.388,-0.15619 0.12,-0.53528 -0.10742,-0.69336 -0.86064,-0.59809 -1.8812,-1.1532 -2.4004,-2.1191 -0.33343,-0.62048 -0.40426,-1.2864 -0.48828,-1.9707 -0.0705,-0.57532 0.051,-1.088 0.12891,-1.6562 0.13709,-1.0001 0.32306,-2.0204 0.80273,-2.9336 0.84491,-1.6082 2.2271,-2.9167 3.2891,-4.375 0.38214,-0.5248 0.74958,-1.1665 1,-1.7656 0.13757,-0.32888 0.03788,-0.56804 -0.2168,-0.61524 z m 1.6895,-0.082 c -0.04323,-0.006 -0.0923,-0.004 -0.14844,0.006 -0.33928,0.0595 -0.47515,0.36225 -0.60938,0.64063 -0.37083,0.7689 -0.68717,1.4581 -1.123,2.1953 -1.134,1.9183 -3.068,3.4919 -3.7617,5.6543 -0.24202,0.75433 -0.24937,1.7315 -0.16797,2.5156 0.17766,1.7114 0.76844,2.6792 2.3281,3.4805 0.41301,0.21249 0.96721,0.5964 1.4609,0.39258 0.23924,-0.099 0.3786,-0.49389 0.17188,-0.6875 -0.28831,-0.27043 -0.79085,-0.23681 -1.1328,-0.41211 -0.97255,-0.49696 -1.9608,-1.5554 -1.9863,-2.7012 -0.01822,-0.81161 -0.02548,-1.6797 0.25976,-2.4512 0.81146,-2.1945 2.9057,-3.7498 4.0156,-5.7754 0.35924,-0.65565 0.73991,-1.4068 0.92774,-2.1348 0.07104,-0.27533 0.06821,-0.67926 -0.23438,-0.72266 z"
         fill="#1780ce"
         fill-rule="evenodd"
         id="path18236" />
      <path
         d="m 72.479,784.23 c -0.28098,0.17805 -0.55109,0.33037 -0.75391,0.2793 0.02314,0.20272 0.06141,0.36005 0,0.8164 -0.13791,0.9761 -0.80414,1.526 -1.3477,2.3145 -1.1696,1.6968 -2.5993,3.3328 -3.5723,5.1699 -0.93125,1.7584 -1.1367,3.9158 -1.0332,5.875 0.04418,0.83456 0.26812,1.681 0.19922,2.5195 -0.07319,0.8903 -0.42658,1.5401 -0.62305,2.3848 -0.2839,1.2204 -0.37031,2.734 -0.24023,3.9863 0.09123,0.87855 0.30697,1.9432 0.80469,2.6953 1.688,2.5515 6.6173,4.4794 8.5547,1.1797 0.37232,-0.63404 0.05381,-1.0824 -0.10938,-1.7187 -0.32691,-1.2749 -0.5729,-2.5069 -0.74805,-3.8164 -0.15215,-1.1376 -0.02691,-2.2926 -0.03906,-3.4375 -0.03898,-3.7133 0.30536,-7.7113 2.1016,-11.02 0.54014,-0.99482 1.2629,-1.959 1.9512,-2.8574 0.27718,-0.36186 0.69732,-0.89358 1.127,-1.3359 0.24689,-0.2542 1.0662,-0.95959 1.8066,-1.5195 -2.6919,-0.63389 -5.4087,-1.1453 -8.0781,-1.5156 z m 1.8906,2.5625 c 0.30258,0.0434 0.30542,0.44733 0.23438,0.72266 -0.18783,0.72796 -0.5685,1.4791 -0.92774,2.1348 -1.1099,2.0255 -3.2042,3.5809 -4.0156,5.7754 -0.28524,0.77151 -0.27799,1.6396 -0.25976,2.4512 0.02554,1.1457 1.0138,2.2042 1.9863,2.7012 0.34196,0.1753 0.8445,0.14168 1.1328,0.41211 0.20672,0.19361 0.06736,0.58855 -0.17188,0.6875 -0.49372,0.20382 -1.0479,-0.18009 -1.4609,-0.39258 -1.5597,-0.80131 -2.1505,-1.769 -2.3281,-3.4805 -0.0814,-0.78408 -0.07405,-1.7613 0.16797,-2.5156 0.69377,-2.1624 2.6277,-3.736 3.7617,-5.6543 0.43588,-0.73723 0.75222,-1.4264 1.123,-2.1953 0.13423,-0.27838 0.27009,-0.58116 0.60938,-0.64063 0.05614,-0.01 0.10521,-0.0121 0.14844,-0.006 z m -1.6895,0.082 c 0.25468,0.0472 0.35437,0.28636 0.2168,0.61524 -0.25042,0.59908 -0.61786,1.2408 -1,1.7656 -1.062,1.4583 -2.4442,2.7668 -3.2891,4.375 -0.47967,0.91322 -0.66564,1.9335 -0.80273,2.9336 -0.07791,0.5682 -0.19941,1.0809 -0.12891,1.6562 0.08402,0.6843 0.15485,1.3502 0.48828,1.9707 0.5192,0.96593 1.5397,1.521 2.4004,2.1191 0.22743,0.15808 0.49542,0.53717 0.10742,0.69336 -0.3984,0.15969 -1.0477,-0.19266 -1.4004,-0.36133 -1.3105,-0.62737 -2.457,-2.173 -2.5781,-3.6367 -0.24543,-2.9673 0.69105,-5.6898 2.4219,-8.0703 0.43178,-0.59385 0.98561,-1.0818 1.4531,-1.6406 0.41263,-0.49321 0.86362,-1.0838 1.1914,-1.6367 0.17036,-0.28718 0.25144,-0.66589 0.61719,-0.76172 0.11638,-0.0306 0.21784,-0.0372 0.30274,-0.0215 z m 3.2441,0.36133 c 0.25576,0.0208 0.53959,0.17419 0.52148,0.42774 -0.04568,0.64056 -0.49964,1.4434 -0.7793,2.0137 -1.1058,2.2548 -3.926,3.8429 -4.373,6.4453 -0.13678,0.79672 -0.0011,1.499 0.55859,2.0938 0.19445,0.20645 0.56314,0.35899 0.70703,0.58984 0.12967,0.20795 0.24675,1.0011 -0.07031,1.0938 -0.27625,0.0814 -0.6273,-0.24031 -0.84375,-0.36914 -1.1055,-0.65711 -1.4875,-1.9545 -1.3535,-3.1758 0.11428,-1.0415 0.76094,-1.7958 1.3398,-2.6211 0.97474,-1.3896 2.1588,-2.6949 3.0508,-4.1309 0.31951,-0.51438 0.47188,-1.1394 0.6582,-1.7109 0.07219,-0.22151 0.09746,-0.53993 0.34961,-0.63086 0.06679,-0.0238 0.14912,-0.0323 0.23438,-0.0254 z m 22.178,4.5118 c 0.42641,0.89429 0.83683,1.8126 0.94141,1.9668 0.48069,0.70866 0.62222,1.9122 0.7168,2.7461 0.28297,2.4952 -0.0857,5.1544 -1.0117,7.4746 -0.46771,1.1731 -0.9851,2.4243 -1.6973,3.4688 -1.1037,1.6186 -2.602,3.035 -3.9961,4.4141 -0.70042,0.6927 -1.2984,1.4493 -2.1484,1.9746 -0.26275,0.16157 -1.001,0.63492 -1.0547,0.95313 -0.04782,0.28412 0.71017,0.69611 0.90625,0.85547 0.96669,0.7852 2.1168,1.6064 3.3477,1.9199 1.9666,0.50117 4.0169,-0.35953 5.2754,-1.8711 0.3729,-0.44783 0.60229,-1.231 1.0586,-1.5879 0.36096,-0.28242 1.2028,-0.0112 1.6328,-0.0156 0.61109,-0.009 1.2501,-0.36492 1.7188,-0.74219 0.36052,-0.29027 1.0793,-0.96209 1.2793,-1.3652 0.15108,-0.30447 0.1457,-0.66582 0.29883,-0.97461 0.51947,-1.0473 0.8435,-2.0672 0.95508,-3.2402 0.0223,-0.23302 -0.0932,-0.44809 -0.0742,-0.67578 0.0234,-0.2763 0.2084,-0.50755 0.22656,-0.79492 0.11991,-1.902 -0.27683,-3.7696 -0.46094,-5.6543 -0.11601,-1.1853 0.0146,-2.3782 0.0176,-3.6816 -0.0162,-0.45578 -0.20049,-0.96659 -0.47656,-1.3438 -1.2329,-0.71179 -2.5004,-1.4013 -3.7949,-2.0625 -0.15055,0.0104 -0.2968,0.0305 -0.4375,-0.0117 -0.18321,-0.0544 -0.31525,-0.25911 -0.4961,-0.34179 -0.30232,-0.13822 -0.61937,-0.11164 -0.91406,-0.23438 -0.24012,-0.10068 -0.42719,-0.29191 -0.66992,-0.39062 -0.08952,-0.0365 -0.21086,-0.20263 -0.34375,-0.41211 -0.26614,-0.12441 -0.53138,-0.2511 -0.79883,-0.37305 z m -24.969,2.5449 c 0.29832,0.004 0.23891,0.4446 0.23633,0.63281 -0.0082,0.59266 -0.01745,1.1905 -0.10352,1.7774 -0.0308,0.21116 -0.08341,0.53729 -0.36133,0.52539 -0.93563,-0.0389 -0.12654,-1.7606 -0.08594,-2.25 0.01676,-0.20252 0.02116,-0.68165 0.31446,-0.68555 z m 29.543,0.22266 c 0.31699,0.0518 0.60565,0.52074 0.66602,0.76758 0.24003,0.9809 0.31487,2.1249 0.30078,3.1348 -0.0193,1.3701 -0.0937,2.9019 -0.46094,4.2285 -0.4827,1.7427 -1.4078,3.3705 -2.2891,4.9394 -0.38237,0.68071 -0.87201,1.2525 -1.3223,1.8848 -0.17982,0.25239 -0.4044,0.65325 -0.75781,0.67773 -0.87326,0.0605 -0.12291,-1.1969 0.08594,-1.4238 2.588,-2.8115 3.7246,-6.3528 3.9394,-10.072 0.0601,-1.0402 -0.12087,-2.1254 -0.3418,-3.1348 -0.0504,-0.22863 -0.33038,-0.90342 0.043,-0.99805 0.0459,-0.0115 0.0914,-0.0113 0.13672,-0.004 z m -1.6016,0.0254 c 0.29388,0.0523 0.43073,0.47975 0.5293,0.7168 0.33537,0.80661 0.39746,1.9617 0.38671,2.8301 -0.0361,2.9535 -0.86216,6.0518 -2.5586,8.4961 -0.37556,0.54111 -0.74829,1.0677 -1.1641,1.5801 -0.19614,0.24169 -0.38024,0.52659 -0.72266,0.5371 -0.39754,0.0118 -0.40258,-0.32772 -0.25586,-0.61328 0.29544,-0.57492 0.74232,-1.0764 1.0625,-1.6426 1.4688,-2.5961 2.6136,-5.268 2.6562,-8.3106 0.0138,-0.98566 -0.0954,-1.8058 -0.26367,-2.7656 -0.0443,-0.2519 -0.1722,-0.75508 0.19336,-0.82617 0.0487,-0.01 0.0947,-0.009 0.13672,-0.002 z m 3.7715,1.2226 c 0.46377,-0.0111 0.42244,0.50769 0.41797,0.83594 -0.0129,0.95451 0.14126,1.9356 -0.0254,2.8848 -0.60056,3.4083 -1.3294,6.5891 -3.4668,9.4062 -0.46051,0.60683 -0.75615,1.3334 -1.209,1.9394 -0.13953,0.18685 -0.38782,0.48674 -0.65234,0.44336 -0.32251,-0.0534 -0.27055,-0.5393 -0.17969,-0.75586 0.25059,-0.59732 0.85218,-1.1688 1.2246,-1.7031 1.8948,-2.719 3.2536,-6.0274 3.5273,-9.3418 0.0776,-0.93634 -0.0438,-1.8762 -0.01,-2.8125 0.0114,-0.36002 -0.18691,-0.89133 0.37304,-0.89649 z m -37.734,6.5898 c 0.23768,0.0446 0.48657,0.23777 0.44141,0.4707 -0.07951,0.40935 -0.48524,0.78646 -0.60352,1.2188 -0.38155,1.3941 -0.34991,2.7627 -0.14062,4.1699 0.07874,0.52936 0.24464,1.1298 0.49023,1.6035 0.06929,0.13321 0.19716,0.37552 0.0039,0.47266 -0.59631,0.30047 -1.1168,-1.3473 -1.25,-1.7168 -0.23605,-0.65492 -0.16768,-1.512 -0.14062,-2.2012 0.03599,-0.91546 -0.0017,-1.7594 0.27344,-2.6465 0.10822,-0.34897 0.31729,-1.2313 0.70312,-1.3633 0.06508,-0.0222 0.14343,-0.0227 0.22266,-0.008 z m 1.1016,1.1856 c 0.0615,0.013 0.12835,0.0545 0.20117,0.13086 0.25039,0.26241 -9.9e-4,0.93523 -0.0332,1.252 -0.12282,1.2027 -0.20784,2.1703 0.03906,3.375 0.17511,0.85418 1.065,1.9769 0.85547,2.8359 -0.68484,-0.15229 -0.772,-0.75632 -1.0781,-1.3027 -0.81309,-1.4516 -0.78968,-3.2455 -0.60547,-4.8594 0.02706,-0.23694 0.19059,-1.5227 0.62109,-1.4316 z m 4.1699,0.39648 c 0.36045,0.0503 0.30049,0.86117 0.29102,1.1074 -0.04958,1.2914 0.12516,2.1182 0.56055,3.3223 0.07958,0.22018 0.13128,0.73195 -0.24219,0.69336 -0.41415,-0.0423 -0.61306,-0.56767 -0.72461,-0.89063 -0.32968,-0.95476 -0.45162,-2.005 -0.30469,-3.0117 0.03289,-0.22577 0.05092,-1.2722 0.41992,-1.2207 z m -2.543,0.16016 c 0.05936,0.006 0.11812,0.0332 0.17188,0.0879 0.15646,0.15877 0.09665,0.50362 0.05859,0.69922 -0.1247,0.6415 -0.2725,1.245 -0.33789,1.8984 -0.05763,0.57595 0.16452,1.2428 0.32617,1.7852 0.37126,1.2461 0.96683,2.8148 2.4004,3.1641 0.04108,0.5069 -0.30809,0.61115 -0.74219,0.45508 -0.5835,-0.20986 -1.1665,-0.69202 -1.5645,-1.166 -0.45764,-0.54473 -0.6108,-1.3204 -0.82227,-1.9726 -0.32136,-0.99139 -0.53171,-1.9471 -0.40234,-3.0137 0.06354,-0.52366 0.14742,-1.2059 0.45117,-1.6504 0.09646,-0.14102 0.28286,-0.30545 0.46094,-0.28712 z m 35.58,0.26562 c 0.14072,0.0634 0.16202,0.31206 0.1582,0.4668 -0.013,0.54981 -0.31326,1.036 -0.52929,1.5273 -0.86766,1.9741 -2.4161,3.595 -3.3047,5.5391 -0.28902,0.63241 0.32352,0.50602 0.63672,0.78321 0.17939,0.15912 0.16541,0.47443 -0.0644,0.57422 -1.1344,0.49232 -1.6052,-0.75177 -1.3125,-1.6133 0.22599,-0.66495 0.78852,-1.2932 1.1621,-1.8867 0.71024,-1.1286 1.4294,-2.2853 2.0371,-3.4707 0.24774,-0.48318 0.47573,-1.6906 1.0332,-1.9102 0.0773,-0.0303 0.13668,-0.0309 0.18359,-0.01 z m -34.279,0.47852 c 0.47633,0.057 0.10627,1.0818 0.06445,1.3476 -0.15666,0.99847 0.04877,2.3744 0.53711,3.2598 0.13507,0.24497 0.37435,0.38945 0.51758,0.62305 0.11143,0.18181 0.09971,0.45484 -0.16016,0.47265 -0.53201,0.0361 -0.83647,-0.51803 -1.0312,-0.91992 -0.52801,-1.0898 -0.61845,-2.1953 -0.55859,-3.3828 0.01676,-0.3278 0.12378,-1.4613 0.63086,-1.4004 z m 33.834,3.6016 c 0.6796,0.89009 -0.7129,2.3541 -1.1856,3.1133 -0.17994,0.28904 -0.44202,0.83116 -0.77734,0.96094 -0.25075,0.0976 -0.41517,-0.22185 -0.41406,-0.42578 0.003,-0.43025 0.40066,-0.82772 0.63476,-1.1562 0.24247,-0.34027 0.4843,-0.67683 0.70313,-1.0332 0.31094,-0.5065 0.51659,-1.1345 1.0391,-1.459 z m -8.1152,0.99023 c 0.32084,0.6912 -0.16582,1.0307 -0.56055,1.5274 -0.64452,0.81064 -1.2309,1.6375 -2.0703,2.2793 -0.29316,0.22417 -0.68421,0.70508 -1.1074,0.65235 -0.29546,-0.0372 -0.23006,-0.39714 -0.14258,-0.58399 0.21532,-0.46018 0.72574,-0.91369 1.0879,-1.2676 0.3719,-0.36345 0.75356,-0.70788 1.1035,-1.0957 0.57939,-0.64228 0.79698,-1.2935 1.6895,-1.5117 z m -0.0059,2.7207 c 0.07414,0.0243 0.13754,0.0784 0.18359,0.17578 0.18392,0.38939 -0.49001,0.84663 -0.70703,1.0859 -0.71198,0.78478 -2.0692,2.4224 -3.2988,2.041 0.13744,-0.65684 0.62078,-0.74485 1.1191,-1.125 0.76636,-0.585 1.378,-1.1926 2.0293,-1.8945 0.14378,-0.15493 0.45139,-0.35606 0.67383,-0.2832 z m 1.2461,0.43554 c 0.57449,0.10357 0.01302,0.83429 -0.15625,1.0312 -0.63678,0.7407 -1.4276,1.4046 -2.1035,2.1211 -0.23559,0.24966 -0.58878,0.56971 -0.96875,0.45703 -0.37909,-0.11316 -0.03303,-0.55473 0.125,-0.69727 0.7936,-0.71635 1.5134,-1.4538 2.2227,-2.2578 0.19322,-0.2191 0.53517,-0.7164 0.88086,-0.6543 z m 1.2285,0.77735 c 0.20941,0.0756 0.28081,0.35819 0.15234,0.58398 -0.36405,0.64021 -0.89357,1.1876 -1.4141,1.6992 -0.21839,0.2146 -0.43005,0.51846 -0.75,0.57813 -0.19492,0.0373 -0.47923,-0.0353 -0.40234,-0.28907 0.21098,-0.6977 1.0716,-1.3658 1.5039,-1.9414 0.17126,-0.22797 0.36773,-0.53737 0.65625,-0.62696 0.09865,-0.0308 0.1841,-0.0291 0.25391,-0.004 z"
         id="path18238" />
      <path
         d="m 79.15,809.95 c 0.50528,1.3879 2.4436,1.528 3.5859,0.95508 l -1.9121,-0.36718 z m 0.4375,-2.877 c -0.20099,0.004 -0.38534,0.032 -0.54688,0.0898 -0.3437,0.12401 -1.2362,0.19911 -1.4746,0.39648 -0.48047,0.39968 0.25171,1.0384 0.62695,1.1387 1.4127,0.37703 3.0024,0.27922 4.4219,0.73242 0.71716,0.23031 2.1817,0.98706 2.9492,0.58985 0.88157,-0.45637 -1.1552,-1.046 -1.3965,-1.2012 -0.94995,-0.6114 -3.1732,-1.7747 -4.5801,-1.7461 z m 6.2539,-2.2676 -1.3145,0.59766 v 0.24028 c 0.72674,0.13819 1.105,-0.13951 1.3145,-0.83789 z m -5.1367,-2.2695 c -1.485,2.3148 1.6233,3.72 3.5859,2.9883 l -2.5098,-1.2344 z m 8.9238,-8.3516 c -0.54992,-0.008 -1.0658,0.0957 -1.2656,0.48047 -0.21969,0.42095 0.362,1.0414 0.3418,1.5293 -0.0354,0.86953 -1.4444,4.6964 0.96289,4.0625 h -0.01367 c -0.12047,-0.39827 -0.31601,-2.3004 0.50781,-1.1758 0.30118,0.4096 -1.64e-4,0.84683 0.16602,1.2695 0.18426,0.47162 1.1462,0.72281 1.5977,0.79687 0.73701,0.12047 1.4737,-0.91508 2.0098,-0.73047 0.43972,0.15236 0.11669,0.7602 0.03516,1.0352 0.78378,0.21259 2.006,-0.64608 1.3633,-1.5078 -1.0123,-1.3564 -3.0796,-2.38 -4.4707,-3.2676 -0.27638,-0.17362 -1.389,-0.98426 -0.58008,-1.2539 0.54106,-0.18071 1.6437,0.34815 2.1348,0.56641 1.2455,0.55418 2.4794,0.97785 3.7051,1.6426 0.53716,0.29055 1.0514,0.92416 1.6719,0.83203 -0.71292,-2.1497 -4.6207,-3.6841 -6.6914,-4.0859 -0.3391,-0.0656 -0.92469,-0.1853 -1.4746,-0.19336 z m -11.506,-3.334 c -0.8532,0.0317 -1.589,0.30863 -1.9707,1.041 1.86,0.54864 4.2297,-0.57738 5.2559,1.6719 -0.6137,-0.10984 -1.0754,-0.5328 -1.6738,-0.66993 -1.3837,-0.3189 -3.887,0.25135 -3.9434,1.9844 l 1.5547,-0.47656 c 0.163,0.87944 0.20761,1.806 1.1934,2.1816 0.39076,0.15204 0.87215,0.15049 1.209,0.14453 1.4415,-0.57612 1.7063,-1.2433 2.1387,0.18359 0.25158,0.32953 0.47231,1.016 0.95703,1.0312 0.55028,0 0.69807,-0.74291 0.82422,-1.1504 0.37027,-1.193 0.77503,-2.564 0.45117,-3.8223 -0.20197,-0.78519 -1.2067,-1.0184 -1.875,-1.2363 -0.95182,-0.31026 -2.6975,-0.93573 -4.1211,-0.88281 z"
         id="path18240" />
    </g>
  </g>
</svg>
