<?xml version="1.0" encoding="UTF-8" standalone="no"?>
<svg
   width="42.999779mm"
   height="87.997726mm"
   enable-background="new"
   version="1.1"
   viewBox="0 0 152.36255 311.802"
   id="svg20076"
   sodipodi:docname="Mazzo.svg"
   inkscape:version="1.2.1 (9c6d41e410, 2022-07-14)"
   xmlns:inkscape="http://www.inkscape.org/namespaces/inkscape"
   xmlns:sodipodi="http://sodipodi.sourceforge.net/DTD/sodipodi-0.dtd"
   xmlns="http://www.w3.org/2000/svg"
   xmlns:svg="http://www.w3.org/2000/svg"
   xmlns:rdf="http://www.w3.org/1999/02/22-rdf-syntax-ns#"
   xmlns:cc="http://creativecommons.org/ns#"
   xmlns:dc="http://purl.org/dc/elements/1.1/">
  <sodipodi:namedview
     id="namedview20078"
     pagecolor="#ffffff"
     bordercolor="#000000"
     borderopacity="0.25"
     inkscape:showpageshadow="2"
     inkscape:pageopacity="0.0"
     inkscape:pagecheckerboard="0"
     inkscape:deskcolor="#d1d1d1"
     inkscape:document-units="mm"
     showgrid="false"
     inkscape:zoom="8"
     inkscape:cx="81.25"
     inkscape:cy="148.1875"
     inkscape:window-width="2560"
     inkscape:window-height="1409"
     inkscape:window-x="0"
     inkscape:window-y="31"
     inkscape:window-maximized="1"
     inkscape:current-layer="svg20076" />
  <title
     id="title2">Bresciane</title>
  <defs
     id="defs191" />
  <metadata
     id="metadata193">
    <rdf:RDF>
      <cc:Work
         rdf:about="">
        <dc:format>image/svg+xml</dc:format>
        <dc:type
           rdf:resource="http://purl.org/dc/dcmitype/StillImage" />
        <dc:title>Bresciane</dc:title>
        <dc:date>2020</dc:date>
        <dc:creator>
          <cc:Agent>
            <dc:title>ZZandro</dc:title>
          </cc:Agent>
        </dc:creator>
        <dc:rights>
          <cc:Agent>
            <dc:title />
          </cc:Agent>
        </dc:rights>
        <cc:license
           rdf:resource="http://creativecommons.org/licenses/by-sa/4.0/" />
      </cc:Work>
      <cc:License
         rdf:about="http://creativecommons.org/licenses/by-sa/4.0/">
        <cc:permits
           rdf:resource="http://creativecommons.org/ns#Reproduction" />
        <cc:permits
           rdf:resource="http://creativecommons.org/ns#Distribution" />
        <cc:requires
           rdf:resource="http://creativecommons.org/ns#Notice" />
        <cc:requires
           rdf:resource="http://creativecommons.org/ns#Attribution" />
        <cc:permits
           rdf:resource="http://creativecommons.org/ns#DerivativeWorks" />
        <cc:requires
           rdf:resource="http://creativecommons.org/ns#ShareAlike" />
      </cc:License>
    </rdf:RDF>
  </metadata>
  <g
     transform="translate(-800.77844,-843.33398)"
     id="g19222"
     style="display:inline">
    <g
       transform="matrix(0.97008,0,0,0.9964,-165.14,-904.17)"
       fill="#f4f2ef"
       id="g19166">
      <g
         transform="matrix(0.70046,0,0,1.0004,298.31,-0.79223)"
         fill="#f4f2ef"
         id="g19164">
        <rect
           x="996.13"
           y="1754.4"
           width="223.23"
           height="311.81"
           rx="10.63"
           ry="10.63"
           fill="#f4f2ef"
           stroke="#000000"
           stroke-width="0.99673"
           id="rect19162" />
      </g>
    </g>
    <g
       transform="matrix(0.76704,0,0,0.8945,52.975,-709.5)"
       fill="none"
       id="g19172">
      <g
         transform="matrix(0.70046,0,0,1.0004,298.31,-0.79223)"
         fill="none"
         id="g19170">
        <rect
           x="996.13"
           y="1754.4"
           width="223.23"
           height="311.81"
           rx="10.63"
           ry="10.63"
           fill="none"
           stroke="#000000"
           stroke-width="0.99673"
           id="rect19168" />
      </g>
    </g>
    <g
       transform="translate(-1360.6,954.92)"
       enable-background="new"
       id="g19180">
      <circle
         cx="2205.7"
         cy="-54.921001"
         r="24.802999"
         id="circle19174" />
      <path
         d="m 2192,-68.419 8.0825,0.2114 5.4756,-5.949 5.5657,5.8647 8.0784,-0.33476 -0.2114,8.0825 5.9489,5.4756 -5.8647,5.5657 0.3348,8.0784 -8.0825,-0.2114 -5.4756,5.949 -5.5657,-5.8647 -8.0784,0.33476 0.2114,-8.0825 -5.9489,-5.4756 5.8646,-5.5657 z"
         fill="none"
         stroke="#dd1d1d"
         stroke-linejoin="round"
         stroke-width="2.8346"
         id="path19176" />
      <circle
         cx="2205.7"
         cy="-54.921001"
         fill="none"
         stroke="#f4f2ef"
         stroke-linejoin="round"
         stroke-width="1.7717"
         id="ellipse19178"
         r="23.031" />
    </g>
    <g
       transform="translate(-1296.9,954.92)"
       enable-background="new"
       id="g19188">
      <circle
         cx="2205.7"
         cy="-54.921001"
         r="24.802999"
         id="circle19182" />
      <path
         d="m 2192,-68.419 8.0825,0.2114 5.4756,-5.949 5.5657,5.8647 8.0784,-0.33476 -0.2114,8.0825 5.9489,5.4756 -5.8647,5.5657 0.3348,8.0784 -8.0825,-0.2114 -5.4756,5.949 -5.5657,-5.8647 -8.0784,0.33476 0.2114,-8.0825 -5.9489,-5.4756 5.8646,-5.5657 z"
         fill="none"
         stroke="#dd1d1d"
         stroke-linejoin="round"
         stroke-width="2.8346"
         id="path19184" />
      <circle
         cx="2205.7"
         cy="-54.921001"
         fill="none"
         stroke="#f4f2ef"
         stroke-linejoin="round"
         stroke-width="1.7717"
         id="ellipse19186"
         r="23.031" />
    </g>
    <g
       transform="translate(-1360.6,1153.3)"
       enable-background="new"
       id="g19196">
      <circle
         cx="2205.7"
         cy="-54.921001"
         r="24.802999"
         id="circle19190" />
      <path
         d="m 2192,-68.419 8.0825,0.2114 5.4756,-5.949 5.5657,5.8647 8.0784,-0.33476 -0.2114,8.0825 5.9489,5.4756 -5.8647,5.5657 0.3348,8.0784 -8.0825,-0.2114 -5.4756,5.949 -5.5657,-5.8647 -8.0784,0.33476 0.2114,-8.0825 -5.9489,-5.4756 5.8646,-5.5657 z"
         fill="none"
         stroke="#dd1d1d"
         stroke-linejoin="round"
         stroke-width="2.8346"
         id="path19192" />
      <circle
         cx="2205.7"
         cy="-54.921001"
         fill="none"
         stroke="#f4f2ef"
         stroke-linejoin="round"
         stroke-width="1.7717"
         id="ellipse19194"
         r="23.031" />
    </g>
    <g
       transform="translate(-1296.9,1153.3)"
       enable-background="new"
       id="g19204">
      <circle
         cx="2205.7"
         cy="-54.921001"
         r="24.802999"
         id="circle19198" />
      <path
         d="m 2192,-68.419 8.0825,0.2114 5.4756,-5.949 5.5657,5.8647 8.0784,-0.33476 -0.2114,8.0825 5.9489,5.4756 -5.8647,5.5657 0.3348,8.0784 -8.0825,-0.2114 -5.4756,5.949 -5.5657,-5.8647 -8.0784,0.33476 0.2114,-8.0825 -5.9489,-5.4756 5.8646,-5.5657 z"
         fill="none"
         stroke="#dd1d1d"
         stroke-linejoin="round"
         stroke-width="2.8346"
         id="path19200" />
      <circle
         cx="2205.7"
         cy="-54.921001"
         fill="none"
         stroke="#f4f2ef"
         stroke-linejoin="round"
         stroke-width="1.7717"
         id="ellipse19202"
         r="23.031" />
    </g>
    <g
       transform="translate(-1360.6,1054.1)"
       enable-background="new"
       id="g19212">
      <circle
         cx="2205.7"
         cy="-54.921001"
         r="24.802999"
         id="circle19206" />
      <path
         d="m 2192,-68.419 8.0825,0.2114 5.4756,-5.949 5.5657,5.8647 8.0784,-0.33476 -0.2114,8.0825 5.9489,5.4756 -5.8647,5.5657 0.3348,8.0784 -8.0825,-0.2114 -5.4756,5.949 -5.5657,-5.8647 -8.0784,0.33476 0.2114,-8.0825 -5.9489,-5.4756 5.8646,-5.5657 z"
         fill="none"
         stroke="#dd1d1d"
         stroke-linejoin="round"
         stroke-width="2.8346"
         id="path19208" />
      <circle
         cx="2205.7"
         cy="-54.921001"
         fill="none"
         stroke="#f4f2ef"
         stroke-linejoin="round"
         stroke-width="1.7717"
         id="ellipse19210"
         r="23.031" />
    </g>
    <g
       transform="translate(-1296.9,1054.1)"
       enable-background="new"
       id="g19220">
      <circle
         cx="2205.7"
         cy="-54.921001"
         r="24.802999"
         id="circle19214" />
      <path
         d="m 2192,-68.419 8.0825,0.2114 5.4756,-5.949 5.5657,5.8647 8.0784,-0.33476 -0.2114,8.0825 5.9489,5.4756 -5.8647,5.5657 0.3348,8.0784 -8.0825,-0.2114 -5.4756,5.949 -5.5657,-5.8647 -8.0784,0.33476 0.2114,-8.0825 -5.9489,-5.4756 5.8646,-5.5657 z"
         fill="none"
         stroke="#dd1d1d"
         stroke-linejoin="round"
         stroke-width="2.8346"
         id="path19216" />
      <circle
         cx="2205.7"
         cy="-54.921001"
         fill="none"
         stroke="#f4f2ef"
         stroke-linejoin="round"
         stroke-width="1.7717"
         id="ellipse19218"
         r="23.031" />
    </g>
  </g>
</svg>
