<?xml version="1.0" encoding="UTF-8" standalone="no"?>
<svg
   width="42.999779mm"
   height="87.997734mm"
   enable-background="new"
   version="1.1"
   viewBox="0 0 152.36255 311.80203"
   id="svg20076"
   sodipodi:docname="Mazzo.svg"
   inkscape:version="1.2.1 (9c6d41e410, 2022-07-14)"
   xmlns:inkscape="http://www.inkscape.org/namespaces/inkscape"
   xmlns:sodipodi="http://sodipodi.sourceforge.net/DTD/sodipodi-0.dtd"
   xmlns="http://www.w3.org/2000/svg"
   xmlns:svg="http://www.w3.org/2000/svg"
   xmlns:rdf="http://www.w3.org/1999/02/22-rdf-syntax-ns#"
   xmlns:cc="http://creativecommons.org/ns#"
   xmlns:dc="http://purl.org/dc/elements/1.1/">
  <sodipodi:namedview
     id="namedview20078"
     pagecolor="#ffffff"
     bordercolor="#000000"
     borderopacity="0.25"
     inkscape:showpageshadow="2"
     inkscape:pageopacity="0.0"
     inkscape:pagecheckerboard="0"
     inkscape:deskcolor="#d1d1d1"
     inkscape:document-units="mm"
     showgrid="false"
     inkscape:zoom="2.8284271"
     inkscape:cx="196.57568"
     inkscape:cy="470.75634"
     inkscape:window-width="2560"
     inkscape:window-height="1409"
     inkscape:window-x="0"
     inkscape:window-y="31"
     inkscape:window-maximized="1"
     inkscape:current-layer="svg20076" />
  <title
     id="title2">Bresciane</title>
  <defs
     id="defs191" />
  <metadata
     id="metadata193">
    <rdf:RDF>
      <cc:Work
         rdf:about="">
        <dc:format>image/svg+xml</dc:format>
        <dc:type
           rdf:resource="http://purl.org/dc/dcmitype/StillImage" />
        <dc:title>Bresciane</dc:title>
        <dc:date>2020</dc:date>
        <dc:creator>
          <cc:Agent>
            <dc:title>ZZandro</dc:title>
          </cc:Agent>
        </dc:creator>
        <dc:rights>
          <cc:Agent>
            <dc:title />
          </cc:Agent>
        </dc:rights>
        <cc:license
           rdf:resource="http://creativecommons.org/licenses/by-sa/4.0/" />
      </cc:Work>
      <cc:License
         rdf:about="http://creativecommons.org/licenses/by-sa/4.0/">
        <cc:permits
           rdf:resource="http://creativecommons.org/ns#Reproduction" />
        <cc:permits
           rdf:resource="http://creativecommons.org/ns#Distribution" />
        <cc:requires
           rdf:resource="http://creativecommons.org/ns#Notice" />
        <cc:requires
           rdf:resource="http://creativecommons.org/ns#Attribution" />
        <cc:permits
           rdf:resource="http://creativecommons.org/ns#DerivativeWorks" />
        <cc:requires
           rdf:resource="http://creativecommons.org/ns#ShareAlike" />
      </cc:License>
    </rdf:RDF>
  </metadata>
  <g
     transform="translate(-481.87848,-1474.044)"
     id="g11538"
     style="display:inline">
    <g
       transform="matrix(0.97008,0,0,0.9964,-484.04,-273.46)"
       fill="#f4f2ef"
       id="g11246">
      <g
         transform="matrix(0.70046,0,0,1.0004,298.31,-0.79223)"
         fill="#f4f2ef"
         id="g11244">
        <rect
           x="996.13"
           y="1754.4"
           width="223.23"
           height="311.81"
           rx="10.63"
           ry="10.63"
           fill="#f4f2ef"
           stroke="#000000"
           stroke-width="0.99673"
           id="rect11242" />
      </g>
    </g>
    <g
       transform="matrix(0.76704,0,0,0.8945,-265.92,-78.795)"
       fill="none"
       id="g11252">
      <g
         transform="matrix(0.70046,0,0,1.0004,298.31,-0.79223)"
         fill="none"
         id="g11250">
        <rect
           x="996.13"
           y="1754.4"
           width="223.23"
           height="311.81"
           rx="10.63"
           ry="10.63"
           fill="none"
           stroke="#000000"
           stroke-width="0.99673"
           id="rect11248" />
      </g>
    </g>
    <g
       transform="translate(0,1052.4)"
       id="g11374">
      <rect
         x="521.75"
         y="535.03998"
         width="10.63"
         height="56.693001"
         rx="1.7716"
         ry="7.0865998"
         fill="#1780ce"
         opacity="0.99"
         id="rect11254" />
      <path
         d="m 509.35,522.64 8.8582,8.8582 h 19.488 l 8.8583,-8.8582 -8.8583,-8.8583 h -19.488 l -8.8582,8.8583 8.8582,8.8582"
         fill="none"
         stroke="#000000"
         stroke-linejoin="round"
         stroke-width="0.99921"
         id="path11256" />
      <path
         d="m 514.67,522.64 5.315,5.3149 h 15.945 l 5.3149,-5.3149 -5.3149,-5.315 h -15.945 l -5.315,5.315 5.315,5.3149"
         fill="#e9c13a"
         fill-rule="evenodd"
         stroke="#000000"
         stroke-linejoin="round"
         stroke-width="0.99921"
         id="path11258" />
      <path
         d="m 521.75,517.32 v 10.63"
         fill="none"
         stroke="#000000"
         stroke-width="0.99921"
         id="path11260" />
      <path
         d="m 534.15,517.32 v 10.63"
         fill="none"
         stroke="#000000"
         stroke-width="0.99921"
         id="path11262" />
      <path
         d="m 518.21,531.5 h 19.488 l 8.8583,-8.8582 v 5.3149 l -8.8583,8.8583 H 518.21 l -8.8582,-8.8583 v -5.3149 z"
         fill="#1780ce"
         fill-rule="evenodd"
         stroke="#000000"
         stroke-linejoin="round"
         stroke-width="0.99921"
         id="path11264" />
      <path
         d="m 518.21,531.5 v 5.315"
         fill="none"
         stroke="#000000"
         stroke-width="0.99921"
         id="path11266" />
      <path
         d="m 537.7,531.5 v 5.315"
         fill="none"
         stroke="#000000"
         stroke-width="0.99921"
         id="path11268" />
      <path
         d="m 511.12,582.87 v 5.315 l 7.0866,7.0866 h 15.945 l 8.8583,-7.0866 v -5.315 l -8.8583,7.0866 h -15.945 L 511.12,582.87 v 5.315"
         fill="#e9c13a"
         fill-rule="evenodd"
         stroke="#000000"
         stroke-linejoin="round"
         stroke-width="0.99921"
         id="path11270" />
      <path
         d="m 518.21,589.96 v 5.315"
         fill="none"
         stroke="#000000"
         stroke-width="1px"
         id="path11272" />
      <path
         d="m 534.15,589.96 v 5.315"
         fill="none"
         stroke="#000000"
         stroke-width="1px"
         id="path11274" />
      <path
         d="m 537.7,574.02 v 5.315 l 2.5507,0.11985 c 1.0962,0.25342 1.7533,0.81948 1.8914,1.7117 0.026,0.52601 0.1069,1.1702 -0.09,1.6219 -1.2402,4.4619 -6.353,5.6418 -9.6671,7.1765 v -47.835 l 7.0866,-7.0866 h 1.7716 c 0.8358,0.3103 1.4935,0.8241 1.7717,1.7716 0.046,0.6601 0.108,1.3431 0,1.7717 -0.3373,1.2998 -1.0423,1.5698 -1.7717,1.7716 h -1.7716 c -0.7552,0.097 -1.2468,0.9842 -1.7717,1.7717 v 31.89"
         fill="#dd1d1d"
         fill-rule="evenodd"
         stroke="#000000"
         stroke-linejoin="round"
         stroke-width="0.99921"
         id="path11276" />
      <path
         d="m 518.21,572.24 v 7.0866 h -3.5433 c -1.2595,-0.04 -2.3321,0.91727 -2.6018,1.8067 l -0.039,1.6767 c 0,2.3622 4.4093,4.7843 6.1838,7.1465 h 3.5434 v -49.606 l -5.315,-5.3149 h -1.7717 c -0.9643,0.3102 -1.7058,0.7875 -1.7716,1.7716 -0.014,0.5415 -0.1028,0.8213 0,1.7717 0.3551,1.261 1.1529,1.4797 1.7716,1.7716 h 1.7717 c 0.6573,-0.011 1.2264,0.7735 1.7716,1.7717 v 30.118"
         fill="#dd1d1d"
         fill-rule="evenodd"
         stroke="#000000"
         stroke-linejoin="round"
         stroke-width="0.99921"
         id="path11278" />
      <path
         d="m 525.3,542.13 c -0.1156,-2.0274 0.306,-4.3441 -1.7717,-5.315 h -3.5433 c -0.7089,0.2904 -1.2887,0.548 -1.7717,1.7717 -0.2671,0.5905 -0.1814,1.1811 0,1.7716 0.4093,0.9309 0.9405,1.7316 1.7717,1.7717 h 1.7717 v 42.52 h -3.5434 c -1.2821,0.47527 -1.3918,1.1459 -1.7716,1.7716 -0.041,0.54953 -0.07,1.1108 0,1.7717 0.4918,1.1831 1.1222,1.534 1.7716,1.7716 h 5.315 c 0.9127,-0.22552 1.652,-1.2831 1.7717,-5.3149 v -42.52"
         fill="#dd1d1d"
         fill-rule="evenodd"
         stroke="#000000"
         stroke-linejoin="round"
         stroke-width="0.99921"
         id="path11280" />
      <path
         d="m 534.15,581.1 v 3.5434 h 1.7717 c 0.6609,0.1683 1.3304,0.28508 1.7716,1.7716 0.068,0.48914 0.1513,0.95421 0,1.7717 -0.1864,0.87106 -1.674,1.4851 -3.5433,1.7716 h -1.7716 c -1.6034,-0.10641 -1.8129,-3.3505 -1.7717,-5.3149 v -42.52 c -0.09,-3.7522 0.6215,-5.1712 1.7717,-5.315 h 3.5433 c 0.7859,0.2389 1.54,0.535 1.7716,1.7717 0.01,0.5527 0.1322,0.6524 0,1.7716 -0.2605,1.1406 -0.8332,1.7609 -1.7716,1.7717 H 534.15 v 38.976"
         fill="#dd1d1d"
         fill-rule="evenodd"
         stroke="#000000"
         stroke-linejoin="round"
         stroke-width="0.99921"
         id="path11282" />
      <rect
         x="514.66998"
         y="558.07001"
         width="26.575001"
         height="7.0865998"
         rx="1.7717"
         ry="7.0865998"
         fill="#e9c13a"
         opacity="0.99"
         stroke="#000000"
         stroke-width="0.99921"
         id="rect11284" />
      <rect
         x="516.44"
         y="554.53003"
         width="23.031"
         height="3.5432999"
         rx="1.7716"
         ry="3.5432999"
         fill="#e9c13a"
         opacity="0.99"
         stroke="#000000"
         stroke-width="0.99921"
         id="rect11286" />
      <rect
         x="516.44"
         y="565.15997"
         width="23.031"
         height="3.5432999"
         rx="1.7716"
         ry="3.5432999"
         fill="#e9c13a"
         opacity="0.99"
         stroke="#000000"
         stroke-width="0.99921"
         id="rect11288" />
      <path
         d="m 519.98,589.96 v 5.315"
         fill="none"
         stroke="#000000"
         stroke-linejoin="round"
         stroke-width="0.8"
         id="path11290" />
      <path
         d="m 521.75,589.96 v 5.315"
         fill="none"
         stroke="#000000"
         stroke-linejoin="round"
         stroke-width="0.8"
         id="path11292" />
      <path
         d="m 535.93,593.5 v -3.5433"
         fill="none"
         stroke="#000000"
         stroke-linejoin="round"
         stroke-width="0.8"
         id="path11294" />
      <path
         d="m 537.7,592.44 v -4.252"
         fill="none"
         stroke="#000000"
         stroke-width="0.8"
         id="path11296" />
      <path
         d="m 539.47,591.02 v -4.6063"
         fill="none"
         stroke="#000000"
         stroke-linejoin="round"
         stroke-width="0.5"
         id="path11298" />
      <path
         d="m 523.52,595.28 v -5.315"
         fill="none"
         stroke="#000000"
         stroke-width="0.5"
         id="path11300" />
      <path
         d="m 519.98,531.5 v 5.315"
         fill="none"
         stroke="#000000"
         stroke-linejoin="round"
         stroke-width="0.8"
         id="path11302" />
      <path
         d="m 521.75,531.5 v 5.315"
         fill="none"
         stroke="#000000"
         stroke-linejoin="round"
         stroke-width="0.8"
         id="path11304" />
      <path
         d="m 523.52,531.5 v 5.315"
         fill="none"
         stroke="#000000"
         stroke-linejoin="round"
         stroke-width="0.5"
         id="path11306" />
      <path
         d="m 539.47,529.72 v 5.315"
         fill="none"
         stroke="#000000"
         stroke-width="0.8"
         id="path11308" />
      <path
         d="m 541.24,527.95 v 5.315"
         fill="none"
         stroke="#000000"
         stroke-width="0.8"
         id="path11310" />
      <path
         d="m 543.01,526.18 v 5.3149"
         fill="none"
         stroke="#000000"
         stroke-width="0.5"
         id="path11312" />
      <rect
         x="581.98999"
         y="535.03998"
         width="10.63"
         height="56.693001"
         rx="1.7716"
         ry="7.0865998"
         fill="#1780ce"
         opacity="0.99"
         id="rect11314" />
      <path
         d="m 569.59,522.64 8.8582,8.8582 h 19.488 l 8.8583,-8.8582 -8.8583,-8.8583 h -19.488 l -8.8582,8.8583 8.8582,8.8582"
         fill="none"
         stroke="#000000"
         stroke-linejoin="round"
         stroke-width="0.99921"
         id="path11316" />
      <path
         d="m 574.9,522.64 5.315,5.3149 h 15.945 l 5.3149,-5.3149 -5.3149,-5.315 h -15.945 l -5.315,5.315 5.315,5.3149"
         fill="#e9c13a"
         fill-rule="evenodd"
         stroke="#000000"
         stroke-linejoin="round"
         stroke-width="0.99921"
         id="path11318" />
      <path
         d="m 581.99,517.32 v 10.63"
         fill="none"
         stroke="#000000"
         stroke-width="0.99921"
         id="path11320" />
      <path
         d="m 594.39,517.32 v 10.63"
         fill="none"
         stroke="#000000"
         stroke-width="0.99921"
         id="path11322" />
      <path
         d="m 578.44,531.5 h 19.488 l 8.8583,-8.8582 v 5.3149 l -8.8583,8.8583 H 578.44 l -8.8582,-8.8583 v -5.3149 z"
         fill="#1780ce"
         fill-rule="evenodd"
         stroke="#000000"
         stroke-linejoin="round"
         stroke-width="0.99921"
         id="path11324" />
      <path
         d="m 578.44,531.5 v 5.315"
         fill="none"
         stroke="#000000"
         stroke-width="0.99921"
         id="path11326" />
      <path
         d="m 597.93,531.5 v 5.315"
         fill="none"
         stroke="#000000"
         stroke-width="0.99921"
         id="path11328" />
      <path
         d="m 571.36,582.87 v 5.315 l 7.0866,7.0866 h 15.945 l 8.8583,-7.0866 v -5.315 l -8.8583,7.0866 h -15.945 L 571.36,582.87 v 5.315"
         fill="#e9c13a"
         fill-rule="evenodd"
         stroke="#000000"
         stroke-linejoin="round"
         stroke-width="0.99921"
         id="path11330" />
      <path
         d="m 578.44,589.96 v 5.315"
         fill="none"
         stroke="#000000"
         stroke-width="1px"
         id="path11332" />
      <path
         d="m 594.39,589.96 v 5.315"
         fill="none"
         stroke="#000000"
         stroke-width="1px"
         id="path11334" />
      <path
         d="m 597.93,574.02 v 5.315 l 2.5507,0.11985 c 1.0962,0.25342 1.7533,0.81948 1.8914,1.7117 0.026,0.52601 0.1069,1.1702 -0.09,1.6219 -1.2402,4.4619 -6.353,5.6418 -9.6671,7.1765 v -47.835 l 7.0866,-7.0866 h 1.7716 c 0.8358,0.3103 1.4935,0.8241 1.7717,1.7716 0.046,0.6601 0.108,1.3431 0,1.7717 -0.3373,1.2998 -1.0423,1.5698 -1.7717,1.7716 h -1.7716 c -0.7552,0.097 -1.2468,0.9842 -1.7717,1.7717 v 31.89"
         fill="#dd1d1d"
         fill-rule="evenodd"
         stroke="#000000"
         stroke-linejoin="round"
         stroke-width="0.99921"
         id="path11336" />
      <path
         d="m 578.44,572.24 v 7.0866 h -3.5433 c -1.2595,-0.04 -2.3321,0.91727 -2.6018,1.8067 l -0.039,1.6767 c 0,2.3622 4.4093,4.7843 6.1838,7.1465 h 3.5434 v -49.606 l -5.315,-5.3149 h -1.7717 c -0.9643,0.3102 -1.7058,0.7875 -1.7716,1.7716 -0.014,0.5415 -0.1028,0.8213 0,1.7717 0.3551,1.261 1.1529,1.4797 1.7716,1.7716 h 1.7717 c 0.6573,-0.011 1.2264,0.7735 1.7716,1.7717 v 30.118"
         fill="#dd1d1d"
         fill-rule="evenodd"
         stroke="#000000"
         stroke-linejoin="round"
         stroke-width="0.99921"
         id="path11338" />
      <path
         d="m 585.53,542.13 c -0.1156,-2.0274 0.306,-4.3441 -1.7717,-5.315 h -3.5433 c -0.7089,0.2904 -1.2887,0.548 -1.7717,1.7717 -0.2671,0.5905 -0.1814,1.1811 0,1.7716 0.4093,0.9309 0.9405,1.7316 1.7717,1.7717 h 1.7717 v 42.52 h -3.5434 c -1.2821,0.47527 -1.3918,1.1459 -1.7716,1.7716 -0.041,0.54953 -0.07,1.1108 0,1.7717 0.4918,1.1831 1.1222,1.534 1.7716,1.7716 h 5.315 c 0.9127,-0.22552 1.652,-1.2831 1.7717,-5.3149 v -42.52"
         fill="#dd1d1d"
         fill-rule="evenodd"
         stroke="#000000"
         stroke-linejoin="round"
         stroke-width="0.99921"
         id="path11340" />
      <path
         d="m 594.39,581.1 v 3.5434 h 1.7717 c 0.6609,0.1683 1.3304,0.28508 1.7716,1.7716 0.068,0.48914 0.1513,0.95421 0,1.7717 -0.1864,0.87106 -1.674,1.4851 -3.5433,1.7716 h -1.7716 c -1.6034,-0.10641 -1.8129,-3.3505 -1.7717,-5.3149 v -42.52 c -0.09,-3.7522 0.6215,-5.1712 1.7717,-5.315 h 3.5433 c 0.7859,0.2389 1.54,0.535 1.7716,1.7717 0.01,0.5527 0.1322,0.6524 0,1.7716 -0.2605,1.1406 -0.8332,1.7609 -1.7716,1.7717 H 594.39 v 38.976"
         fill="#dd1d1d"
         fill-rule="evenodd"
         stroke="#000000"
         stroke-linejoin="round"
         stroke-width="0.99921"
         id="path11342" />
      <rect
         x="574.90002"
         y="558.07001"
         width="26.575001"
         height="7.0865998"
         rx="1.7717"
         ry="7.0865998"
         fill="#e9c13a"
         opacity="0.99"
         stroke="#000000"
         stroke-width="0.99921"
         id="rect11344" />
      <rect
         x="576.66998"
         y="554.53003"
         width="23.031"
         height="3.5432999"
         rx="1.7716"
         ry="3.5432999"
         fill="#e9c13a"
         opacity="0.99"
         stroke="#000000"
         stroke-width="0.99921"
         id="rect11346" />
      <rect
         x="576.66998"
         y="565.15997"
         width="23.031"
         height="3.5432999"
         rx="1.7716"
         ry="3.5432999"
         fill="#e9c13a"
         opacity="0.99"
         stroke="#000000"
         stroke-width="0.99921"
         id="rect11348" />
      <path
         d="m 580.22,589.96 v 5.315"
         fill="none"
         stroke="#000000"
         stroke-linejoin="round"
         stroke-width="0.8"
         id="path11350" />
      <path
         d="m 581.99,589.96 v 5.315"
         fill="none"
         stroke="#000000"
         stroke-linejoin="round"
         stroke-width="0.8"
         id="path11352" />
      <path
         d="m 596.16,593.5 v -3.5433"
         fill="none"
         stroke="#000000"
         stroke-linejoin="round"
         stroke-width="0.8"
         id="path11354" />
      <path
         d="m 597.93,592.44 v -4.252"
         fill="none"
         stroke="#000000"
         stroke-width="0.8"
         id="path11356" />
      <path
         d="m 599.7,591.02 v -4.6063"
         fill="none"
         stroke="#000000"
         stroke-linejoin="round"
         stroke-width="0.5"
         id="path11358" />
      <path
         d="m 583.76,595.28 v -5.315"
         fill="none"
         stroke="#000000"
         stroke-width="0.5"
         id="path11360" />
      <path
         d="m 580.22,531.5 v 5.315"
         fill="none"
         stroke="#000000"
         stroke-linejoin="round"
         stroke-width="0.8"
         id="path11362" />
      <path
         d="m 581.99,531.5 v 5.315"
         fill="none"
         stroke="#000000"
         stroke-linejoin="round"
         stroke-width="0.8"
         id="path11364" />
      <path
         d="m 583.76,531.5 v 5.315"
         fill="none"
         stroke="#000000"
         stroke-linejoin="round"
         stroke-width="0.5"
         id="path11366" />
      <path
         d="m 599.7,529.72 v 5.315"
         fill="none"
         stroke="#000000"
         stroke-width="0.8"
         id="path11368" />
      <path
         d="m 601.48,527.95 v 5.315"
         fill="none"
         stroke="#000000"
         stroke-width="0.8"
         id="path11370" />
      <path
         d="m 603.25,526.18 v 5.3149"
         fill="none"
         stroke="#000000"
         stroke-width="0.5"
         id="path11372" />
    </g>
    <g
       transform="translate(0,1052.4)"
       id="g11500">
      <rect
         x="522.14001"
         y="651.46997"
         width="10.63"
         height="56.693001"
         rx="1.7716"
         ry="7.0865998"
         fill="#1780ce"
         opacity="0.99"
         id="rect11376" />
      <path
         d="m 509.74,639.07 8.8582,8.8582 h 19.488 l 8.8583,-8.8582 -8.8583,-8.8583 h -19.488 l -8.8582,8.8583 8.8582,8.8582"
         fill="none"
         stroke="#000000"
         stroke-linejoin="round"
         stroke-width="0.99921"
         id="path11378" />
      <path
         d="m 515.05,639.07 5.315,5.3149 h 15.945 l 5.3149,-5.3149 -5.3149,-5.315 h -15.945 l -5.315,5.315 5.315,5.3149"
         fill="#e9c13a"
         fill-rule="evenodd"
         stroke="#000000"
         stroke-linejoin="round"
         stroke-width="0.99921"
         id="path11380" />
      <path
         d="m 522.14,633.75 v 10.63"
         fill="none"
         stroke="#000000"
         stroke-width="0.99921"
         id="path11382" />
      <path
         d="m 534.54,633.75 v 10.63"
         fill="none"
         stroke="#000000"
         stroke-width="0.99921"
         id="path11384" />
      <path
         d="m 518.59,647.93 h 19.488 l 8.8583,-8.8582 v 5.3149 l -8.8583,8.8583 H 518.59 l -8.8582,-8.8583 v -5.3149 z"
         fill="#1780ce"
         fill-rule="evenodd"
         stroke="#000000"
         stroke-linejoin="round"
         stroke-width="0.99921"
         id="path11386" />
      <path
         d="m 518.59,647.93 v 5.315"
         fill="none"
         stroke="#000000"
         stroke-width="0.99921"
         id="path11388" />
      <path
         d="m 538.08,647.93 v 5.315"
         fill="none"
         stroke="#000000"
         stroke-width="0.99921"
         id="path11390" />
      <path
         d="m 511.51,699.3 v 5.315 l 7.0866,7.0866 h 15.945 l 8.8583,-7.0866 V 699.3 l -8.8583,7.0866 h -15.945 L 511.51,699.3 v 5.315"
         fill="#e9c13a"
         fill-rule="evenodd"
         stroke="#000000"
         stroke-linejoin="round"
         stroke-width="0.99921"
         id="path11392" />
      <path
         d="m 518.59,706.39 v 5.315"
         fill="none"
         stroke="#000000"
         stroke-width="1px"
         id="path11394" />
      <path
         d="m 534.54,706.39 v 5.315"
         fill="none"
         stroke="#000000"
         stroke-width="1px"
         id="path11396" />
      <path
         d="m 538.08,690.45 v 5.315 l 2.5507,0.11985 c 1.0962,0.25342 1.7533,0.81948 1.8914,1.7117 0.026,0.52601 0.1069,1.1702 -0.09,1.6219 -1.2402,4.4619 -6.353,5.6418 -9.6671,7.1765 v -47.835 l 7.0866,-7.0866 h 1.7716 c 0.8358,0.3103 1.4935,0.8241 1.7717,1.7716 0.046,0.6601 0.108,1.3431 0,1.7717 -0.3373,1.2998 -1.0423,1.5698 -1.7717,1.7716 h -1.7716 c -0.7552,0.097 -1.2468,0.9842 -1.7717,1.7717 v 31.89"
         fill="#dd1d1d"
         fill-rule="evenodd"
         stroke="#000000"
         stroke-linejoin="round"
         stroke-width="0.99921"
         id="path11398" />
      <path
         d="m 518.59,688.67 v 7.0866 h -3.5433 c -1.2595,-0.04 -2.3321,0.91727 -2.6018,1.8067 l -0.039,1.6767 c 0,2.3622 4.4093,4.7843 6.1838,7.1465 h 3.5434 v -49.606 l -5.315,-5.3149 h -1.7717 c -0.9643,0.3102 -1.7058,0.7875 -1.7716,1.7716 -0.014,0.5415 -0.1028,0.8213 0,1.7717 0.3551,1.261 1.1529,1.4797 1.7716,1.7716 h 1.7717 c 0.6573,-0.011 1.2264,0.7735 1.7716,1.7717 v 30.118"
         fill="#dd1d1d"
         fill-rule="evenodd"
         stroke="#000000"
         stroke-linejoin="round"
         stroke-width="0.99921"
         id="path11400" />
      <path
         d="m 525.68,658.56 c -0.1156,-2.0274 0.306,-4.3441 -1.7717,-5.315 h -3.5433 c -0.7089,0.2904 -1.2887,0.548 -1.7717,1.7717 -0.2671,0.5905 -0.1814,1.1811 0,1.7716 0.4093,0.9309 0.9405,1.7316 1.7717,1.7717 h 1.7717 v 42.52 h -3.5434 c -1.2821,0.47527 -1.3918,1.1459 -1.7716,1.7716 -0.041,0.54953 -0.07,1.1108 0,1.7717 0.4918,1.1831 1.1222,1.534 1.7716,1.7716 h 5.315 c 0.9127,-0.22552 1.652,-1.2831 1.7717,-5.3149 v -42.52"
         fill="#dd1d1d"
         fill-rule="evenodd"
         stroke="#000000"
         stroke-linejoin="round"
         stroke-width="0.99921"
         id="path11402" />
      <path
         d="m 534.54,697.53 v 3.5434 h 1.7717 c 0.6609,0.1683 1.3304,0.28508 1.7716,1.7716 0.068,0.48914 0.1513,0.95421 0,1.7717 -0.1864,0.87106 -1.674,1.4851 -3.5433,1.7716 h -1.7716 c -1.6034,-0.10641 -1.8129,-3.3505 -1.7717,-5.3149 v -42.52 c -0.09,-3.7522 0.6215,-5.1712 1.7717,-5.315 h 3.5433 c 0.7859,0.2389 1.54,0.535 1.7716,1.7717 0.01,0.5527 0.1322,0.6524 0,1.7716 -0.2605,1.1406 -0.8332,1.7609 -1.7716,1.7717 H 534.54 v 38.976"
         fill="#dd1d1d"
         fill-rule="evenodd"
         stroke="#000000"
         stroke-linejoin="round"
         stroke-width="0.99921"
         id="path11404" />
      <rect
         x="515.04999"
         y="674.5"
         width="26.575001"
         height="7.0865998"
         rx="1.7717"
         ry="7.0865998"
         fill="#e9c13a"
         opacity="0.99"
         stroke="#000000"
         stroke-width="0.99921"
         id="rect11406" />
      <rect
         x="516.82001"
         y="670.96002"
         width="23.031"
         height="3.5432999"
         rx="1.7716"
         ry="3.5432999"
         fill="#e9c13a"
         opacity="0.99"
         stroke="#000000"
         stroke-width="0.99921"
         id="rect11408" />
      <rect
         x="516.82001"
         y="681.59003"
         width="23.031"
         height="3.5432999"
         rx="1.7716"
         ry="3.5432999"
         fill="#e9c13a"
         opacity="0.99"
         stroke="#000000"
         stroke-width="0.99921"
         id="rect11410" />
      <path
         d="m 520.37,706.39 v 5.315"
         fill="none"
         stroke="#000000"
         stroke-linejoin="round"
         stroke-width="0.8"
         id="path11412" />
      <path
         d="m 522.14,706.39 v 5.315"
         fill="none"
         stroke="#000000"
         stroke-linejoin="round"
         stroke-width="0.8"
         id="path11414" />
      <path
         d="m 536.31,709.93 v -3.5433"
         fill="none"
         stroke="#000000"
         stroke-linejoin="round"
         stroke-width="0.8"
         id="path11416" />
      <path
         d="m 538.08,708.87 v -4.252"
         fill="none"
         stroke="#000000"
         stroke-width="0.8"
         id="path11418" />
      <path
         d="m 539.85,707.45 v -4.6063"
         fill="none"
         stroke="#000000"
         stroke-linejoin="round"
         stroke-width="0.5"
         id="path11420" />
      <path
         d="m 523.91,711.71 v -5.315"
         fill="none"
         stroke="#000000"
         stroke-width="0.5"
         id="path11422" />
      <path
         d="m 520.37,647.93 v 5.315"
         fill="none"
         stroke="#000000"
         stroke-linejoin="round"
         stroke-width="0.8"
         id="path11424" />
      <path
         d="m 522.14,647.93 v 5.315"
         fill="none"
         stroke="#000000"
         stroke-linejoin="round"
         stroke-width="0.8"
         id="path11426" />
      <path
         d="m 523.91,647.93 v 5.315"
         fill="none"
         stroke="#000000"
         stroke-linejoin="round"
         stroke-width="0.5"
         id="path11428" />
      <path
         d="m 539.85,646.15 v 5.315"
         fill="none"
         stroke="#000000"
         stroke-width="0.8"
         id="path11430" />
      <path
         d="m 541.63,644.38 v 5.315"
         fill="none"
         stroke="#000000"
         stroke-width="0.8"
         id="path11432" />
      <path
         d="m 543.4,642.61 v 5.3149"
         fill="none"
         stroke="#000000"
         stroke-width="0.5"
         id="path11434" />
      <rect
         x="582.37"
         y="651.46997"
         width="10.63"
         height="56.693001"
         rx="1.7716"
         ry="7.0865998"
         fill="#1780ce"
         opacity="0.99"
         id="rect11436" />
      <path
         d="m 569.97,639.07 8.8582,8.8582 h 19.488 l 8.8583,-8.8582 -8.8583,-8.8583 h -19.488 l -8.8582,8.8583 8.8582,8.8582"
         fill="none"
         stroke="#000000"
         stroke-linejoin="round"
         stroke-width="0.99921"
         id="path11438" />
      <path
         d="m 575.29,639.07 5.315,5.3149 h 15.945 l 5.3149,-5.3149 -5.3149,-5.315 h -15.945 l -5.315,5.315 5.315,5.3149"
         fill="#e9c13a"
         fill-rule="evenodd"
         stroke="#000000"
         stroke-linejoin="round"
         stroke-width="0.99921"
         id="path11440" />
      <path
         d="m 582.37,633.75 v 10.63"
         fill="none"
         stroke="#000000"
         stroke-width="0.99921"
         id="path11442" />
      <path
         d="m 594.78,633.75 v 10.63"
         fill="none"
         stroke="#000000"
         stroke-width="0.99921"
         id="path11444" />
      <path
         d="m 578.83,647.93 h 19.488 l 8.8583,-8.8582 v 5.3149 l -8.8583,8.8583 H 578.83 l -8.8582,-8.8583 v -5.3149 z"
         fill="#1780ce"
         fill-rule="evenodd"
         stroke="#000000"
         stroke-linejoin="round"
         stroke-width="0.99921"
         id="path11446" />
      <path
         d="m 578.83,647.93 v 5.315"
         fill="none"
         stroke="#000000"
         stroke-width="0.99921"
         id="path11448" />
      <path
         d="m 598.32,647.93 v 5.315"
         fill="none"
         stroke="#000000"
         stroke-width="0.99921"
         id="path11450" />
      <path
         d="m 571.74,699.3 v 5.315 l 7.0866,7.0866 h 15.945 l 8.8583,-7.0866 V 699.3 l -8.8583,7.0866 h -15.945 L 571.74,699.3 v 5.315"
         fill="#e9c13a"
         fill-rule="evenodd"
         stroke="#000000"
         stroke-linejoin="round"
         stroke-width="0.99921"
         id="path11452" />
      <path
         d="m 578.83,706.39 v 5.315"
         fill="none"
         stroke="#000000"
         stroke-width="1px"
         id="path11454" />
      <path
         d="m 594.78,706.39 v 5.315"
         fill="none"
         stroke="#000000"
         stroke-width="1px"
         id="path11456" />
      <path
         d="m 598.32,690.45 v 5.315 l 2.5507,0.11985 c 1.0962,0.25342 1.7533,0.81948 1.8914,1.7117 0.026,0.52601 0.1069,1.1702 -0.09,1.6219 -1.2402,4.4619 -6.353,5.6418 -9.6671,7.1765 v -47.835 l 7.0866,-7.0866 h 1.7716 c 0.8358,0.3103 1.4935,0.8241 1.7717,1.7716 0.046,0.6601 0.108,1.3431 0,1.7717 -0.3373,1.2998 -1.0423,1.5698 -1.7717,1.7716 h -1.7716 c -0.7552,0.097 -1.2468,0.9842 -1.7717,1.7717 v 31.89"
         fill="#dd1d1d"
         fill-rule="evenodd"
         stroke="#000000"
         stroke-linejoin="round"
         stroke-width="0.99921"
         id="path11458" />
      <path
         d="m 578.83,688.67 v 7.0866 h -3.5433 c -1.2595,-0.04 -2.3321,0.91727 -2.6018,1.8067 l -0.039,1.6767 c 0,2.3622 4.4093,4.7843 6.1838,7.1465 h 3.5434 v -49.606 l -5.315,-5.3149 h -1.7717 c -0.9643,0.3102 -1.7058,0.7875 -1.7716,1.7716 -0.014,0.5415 -0.1028,0.8213 0,1.7717 0.3551,1.261 1.1529,1.4797 1.7716,1.7716 h 1.7717 c 0.6573,-0.011 1.2264,0.7735 1.7716,1.7717 v 30.118"
         fill="#dd1d1d"
         fill-rule="evenodd"
         stroke="#000000"
         stroke-linejoin="round"
         stroke-width="0.99921"
         id="path11460" />
      <path
         d="m 585.92,658.56 c -0.1156,-2.0274 0.306,-4.3441 -1.7717,-5.315 h -3.5433 c -0.7089,0.2904 -1.2887,0.548 -1.7717,1.7717 -0.2671,0.5905 -0.1814,1.1811 0,1.7716 0.4093,0.9309 0.9405,1.7316 1.7717,1.7717 h 1.7717 v 42.52 h -3.5434 c -1.2821,0.47527 -1.3918,1.1459 -1.7716,1.7716 -0.041,0.54953 -0.07,1.1108 0,1.7717 0.4918,1.1831 1.1222,1.534 1.7716,1.7716 h 5.315 c 0.9127,-0.22552 1.652,-1.2831 1.7717,-5.3149 v -42.52"
         fill="#dd1d1d"
         fill-rule="evenodd"
         stroke="#000000"
         stroke-linejoin="round"
         stroke-width="0.99921"
         id="path11462" />
      <path
         d="m 594.78,697.53 v 3.5434 h 1.7717 c 0.6609,0.1683 1.3304,0.28508 1.7716,1.7716 0.068,0.48914 0.1513,0.95421 0,1.7717 -0.1864,0.87106 -1.674,1.4851 -3.5433,1.7716 h -1.7716 c -1.6034,-0.10641 -1.8129,-3.3505 -1.7717,-5.3149 v -42.52 c -0.09,-3.7522 0.6215,-5.1712 1.7717,-5.315 h 3.5433 c 0.7859,0.2389 1.54,0.535 1.7716,1.7717 0.01,0.5527 0.1322,0.6524 0,1.7716 -0.2605,1.1406 -0.8332,1.7609 -1.7716,1.7717 H 594.78 v 38.976"
         fill="#dd1d1d"
         fill-rule="evenodd"
         stroke="#000000"
         stroke-linejoin="round"
         stroke-width="0.99921"
         id="path11464" />
      <rect
         x="575.28998"
         y="674.5"
         width="26.575001"
         height="7.0865998"
         rx="1.7717"
         ry="7.0865998"
         fill="#e9c13a"
         opacity="0.99"
         stroke="#000000"
         stroke-width="0.99921"
         id="rect11466" />
      <rect
         x="577.06"
         y="670.96002"
         width="23.031"
         height="3.5432999"
         rx="1.7716"
         ry="3.5432999"
         fill="#e9c13a"
         opacity="0.99"
         stroke="#000000"
         stroke-width="0.99921"
         id="rect11468" />
      <rect
         x="577.06"
         y="681.59003"
         width="23.031"
         height="3.5432999"
         rx="1.7716"
         ry="3.5432999"
         fill="#e9c13a"
         opacity="0.99"
         stroke="#000000"
         stroke-width="0.99921"
         id="rect11470" />
      <path
         d="m 580.6,706.39 v 5.315"
         fill="none"
         stroke="#000000"
         stroke-linejoin="round"
         stroke-width="0.8"
         id="path11472" />
      <path
         d="m 582.37,706.39 v 5.315"
         fill="none"
         stroke="#000000"
         stroke-linejoin="round"
         stroke-width="0.8"
         id="path11474" />
      <path
         d="m 596.55,709.93 v -3.5433"
         fill="none"
         stroke="#000000"
         stroke-linejoin="round"
         stroke-width="0.8"
         id="path11476" />
      <path
         d="m 598.32,708.87 v -4.252"
         fill="none"
         stroke="#000000"
         stroke-width="0.8"
         id="path11478" />
      <path
         d="m 600.09,707.45 v -4.6063"
         fill="none"
         stroke="#000000"
         stroke-linejoin="round"
         stroke-width="0.5"
         id="path11480" />
      <path
         d="m 584.15,711.71 v -5.315"
         fill="none"
         stroke="#000000"
         stroke-width="0.5"
         id="path11482" />
      <path
         d="m 580.6,647.93 v 5.315"
         fill="none"
         stroke="#000000"
         stroke-linejoin="round"
         stroke-width="0.8"
         id="path11484" />
      <path
         d="m 582.37,647.93 v 5.315"
         fill="none"
         stroke="#000000"
         stroke-linejoin="round"
         stroke-width="0.8"
         id="path11486" />
      <path
         d="m 584.15,647.93 v 5.315"
         fill="none"
         stroke="#000000"
         stroke-linejoin="round"
         stroke-width="0.5"
         id="path11488" />
      <path
         d="m 600.09,646.15 v 5.315"
         fill="none"
         stroke="#000000"
         stroke-width="0.8"
         id="path11490" />
      <path
         d="m 601.86,644.38 v 5.315"
         fill="none"
         stroke="#000000"
         stroke-width="0.8"
         id="path11492" />
      <path
         d="m 603.63,642.61 v 5.3149"
         fill="none"
         stroke="#000000"
         stroke-width="0.5"
         id="path11494" />
      <path
         d="M 528.34,644.38 V 633.75"
         fill="none"
         stroke="#000000"
         stroke-width="1px"
         id="path11496" />
      <path
         d="M 588.58,644.38 V 633.75"
         fill="none"
         stroke="#000000"
         stroke-width="1px"
         id="path11498" />
    </g>
    <path
       d="m 588.22,1525.3 v 1.7717"
       fill="none"
       stroke="#000000"
       stroke-width="1px"
       id="path11502" />
    <path
       d="m 588.22,1525.3 -3.5344,-6.2798 -7.2056,0.079 3.6712,-6.2008 -3.6712,-6.2008 7.2056,0.079 3.5344,-6.2798 3.5344,6.2798 7.2056,-0.079 -3.6712,6.2008 3.6712,6.2008 -7.2056,-0.079 z"
       fill="#dd1d1d"
       stroke="#000000"
       stroke-linecap="round"
       stroke-linejoin="round"
       stroke-width="0.99921"
       id="path11504" />
    <path
       d="m 586.45,1580.2 c 0,0 -2.122,-11.792 -1.7716,-17.717 0.31989,-5.4087 3.5126,-15.87 3.5126,-15.87 0,0 3.2439,10.458 3.574,15.87 0.36132,5.924 -1.7717,17.717 -1.7717,17.717 H 586.45"
       fill="#287028"
       fill-rule="evenodd"
       stroke="#000000"
       stroke-linejoin="round"
       stroke-width="0.99921"
       id="path11506" />
    <path
       d="m 588.29,1527.1 c 0,0 0.94729,1.6378 1.7717,1.7716 1.3034,0.2115 3.5433,-1.7716 3.5433,-1.7716 0,0 0.81408,7.1814 0,10.63 -0.30339,1.2852 -0.99953,2.472 -1.7716,3.5433 -0.97666,1.355 -3.5433,3.5433 -3.5433,3.5433 v -17.716"
       fill="#287028"
       fill-rule="evenodd"
       stroke="#000000"
       stroke-width="1px"
       id="path11508" />
    <path
       d="m 588.22,1527.1 c 0,0 -0.94729,1.6378 -1.7717,1.7716 -1.3034,0.2115 -3.5433,-1.7716 -3.5433,-1.7716 0,0 -0.81408,7.1814 0,10.63 0.30339,1.2852 0.99953,2.472 1.7716,3.5433 0.97666,1.355 3.5433,3.5433 3.5433,3.5433 v -17.716"
       fill="#287028"
       fill-rule="evenodd"
       stroke="#000000"
       stroke-width="1px"
       id="path11510" />
    <path
       d="m 588.22,1527.1 c 0,0 -1.4725,3.4715 -1.7717,5.3149 -0.28379,1.7488 -0.21647,3.5566 0,5.315 0.29751,2.4167 1.7717,7.0866 1.7717,7.0866 0,0 1.4742,-4.6699 1.7716,-7.0866 0.21647,-1.7584 0.28379,-3.5662 0,-5.315 -0.29914,-1.8434 -1.7716,-5.3149 -1.7716,-5.3149"
       fill="#1780ce"
       fill-rule="evenodd"
       stroke="#000000"
       stroke-linejoin="round"
       stroke-width="1px"
       id="path11512" />
    <path
       d="m 570.1,1519.7 c -1.1922,0 -2.9277,0.377 -2.9277,0.377 0,0 1.3776,1.3884 1.8965,2.209 0.62033,0.981 1.0592,2.0765 1.4141,3.1816 0.44635,1.39 0.63836,2.8521 0.88476,4.291 0.29347,1.7138 0.29631,3.4785 0.70704,5.168 0.45787,1.8834 1.0273,3.7723 1.9434,5.4805 0.6962,1.2982 1.6271,2.4773 2.6524,3.5351 0.91909,0.9483 1.9203,1.8689 3.0938,2.4746 1.1436,0.5903 2.4283,0.9826 3.7129,1.0606 1.5802,0.096 4.4398,-0.6543 4.7578,-0.7383 0.318,0.084 3.1776,0.8346 4.7578,0.7383 1.2846,-0.078 2.5693,-0.4703 3.7129,-1.0606 1.1735,-0.6057 2.1747,-1.5263 3.0938,-2.4746 1.0253,-1.0578 1.9542,-2.2369 2.6504,-3.5351 0.91604,-1.7082 1.4874,-3.5971 1.9453,-5.4805 0.41073,-1.6895 0.41356,-3.4542 0.70703,-5.168 0.2464,-1.4389 0.43646,-2.901 0.88281,-4.291 0.35487,-1.1051 0.79373,-2.2006 1.4141,-3.1816 0.5189,-0.8206 1.8984,-2.209 1.8984,-2.209 0,0 -2.2691,-0.4895 -3.4004,-0.3535 -1.3046,0.157 -2.6247,0.5895 -3.7129,1.3261 -1.4001,0.9477 -2.5386,2.3216 -3.3574,3.8008 -0.85594,1.5464 -1.183,3.3459 -1.5039,5.084 -0.20641,1.118 -0.14527,2.2697 -0.26367,3.4004 -0.1176,1.1231 -0.13723,2.2724 -0.44336,3.3594 -0.39332,1.3965 -1.0012,2.7446 -1.7676,3.9765 -0.72928,1.1724 -1.5366,2.3658 -2.6504,3.1817 -0.56497,0.4138 -1.2462,0.7562 -1.9453,0.7968 -0.58138,0.034 -1.3846,-0.281 -1.8203,-0.4629 v -0.1562 c 0,0 -0.1591,0.061 -0.19727,0.078 -0.0382,-0.017 -0.19726,-0.078 -0.19726,-0.078 v 0.1562 c -0.43573,0.1819 -1.2389,0.4964 -1.8203,0.4629 -0.69915,-0.041 -1.3803,-0.383 -1.9453,-0.7968 -1.1138,-0.8159 -1.9231,-2.0093 -2.6523,-3.1817 -0.76634,-1.2319 -1.3743,-2.58 -1.7676,-3.9765 -0.30613,-1.087 -0.32381,-2.2363 -0.44141,-3.3594 -0.1184,-1.1307 -0.0592,-2.2824 -0.26562,-3.4004 -0.3209,-1.7381 -0.64601,-3.5376 -1.502,-5.084 -0.81877,-1.4792 -1.9593,-2.8531 -3.3594,-3.8008 -1.0882,-0.7366 -2.4083,-1.1691 -3.7129,-1.3261 -0.14141,-0.017 -0.3004,-0.024 -0.4707,-0.024 z"
       fill="#e9c13a"
       fill-rule="evenodd"
       stroke="#000000"
       stroke-width="1px"
       id="path11514" />
    <path
       d="m 572.98,1523.6 c 0,0 1.2992,2.7463 1.7236,4.1984 0.48714,1.6669 0.56567,3.4282 0.92807,5.1266 0.41156,1.9288 0.66277,3.9217 1.4142,5.7452 0.39273,0.953 0.97616,1.8243 1.591,2.6516 0.78379,1.0547 2.6516,2.9169 2.6516,2.9169"
       fill="none"
       stroke="#000000"
       stroke-linecap="round"
       stroke-width="1px"
       id="path11516" />
    <path
       d="m 603.49,1523.6 c 0,0 -1.2992,2.7463 -1.7236,4.1984 -0.48714,1.6669 -0.56567,3.4282 -0.92807,5.1266 -0.41156,1.9288 -0.66277,3.9217 -1.4142,5.7452 -0.39273,0.953 -0.97616,1.8243 -1.591,2.6516 -0.78379,1.0547 -2.6516,2.9169 -2.6516,2.9169"
       fill="none"
       stroke="#000000"
       stroke-linecap="round"
       stroke-width="1px"
       id="path11518" />
    <path
       d="m 528,1525.3 v 1.7717"
       fill="none"
       stroke="#000000"
       stroke-width="1px"
       id="path11520" />
    <path
       d="m 528,1525.3 -3.5344,-6.2798 -7.2056,0.079 3.6712,-6.2008 -3.6712,-6.2008 7.2056,0.079 3.5344,-6.2798 3.5344,6.2798 7.2056,-0.079 -3.6712,6.2008 3.6712,6.2008 -7.2056,-0.079 z"
       fill="#dd1d1d"
       stroke="#000000"
       stroke-linecap="round"
       stroke-linejoin="round"
       stroke-width="0.99921"
       id="path11522" />
    <path
       d="m 526.23,1580.2 c 0,0 -2.1185,-11.792 -1.7716,-17.717 0.31653,-5.4075 3.4924,-15.87 3.4924,-15.87 0,0 3.2607,10.457 3.5942,15.871 0.36489,5.9238 -1.7717,17.717 -1.7717,17.717 H 526.23"
       fill="#287028"
       fill-rule="evenodd"
       stroke="#000000"
       stroke-linejoin="round"
       stroke-width="0.99921"
       id="path11524" />
    <path
       d="m 528.08,1527.1 c 0,0 0.94729,1.6378 1.7717,1.7716 1.3034,0.2115 3.5433,-1.7716 3.5433,-1.7716 0,0 0.81408,7.1814 0,10.63 -0.30339,1.2852 -0.99953,2.472 -1.7716,3.5433 -0.97666,1.355 -3.5433,3.5433 -3.5433,3.5433 v -17.716"
       fill="#287028"
       fill-rule="evenodd"
       stroke="#000000"
       stroke-width="1px"
       id="path11526" />
    <path
       d="m 528,1527.1 c 0,0 -0.94729,1.6378 -1.7717,1.7716 -1.3034,0.2115 -3.5433,-1.7716 -3.5433,-1.7716 0,0 -0.81408,7.1814 0,10.63 0.30339,1.2852 0.99953,2.472 1.7716,3.5433 0.97666,1.355 3.5433,3.5433 3.5433,3.5433 v -17.716"
       fill="#287028"
       fill-rule="evenodd"
       stroke="#000000"
       stroke-width="1px"
       id="path11528" />
    <path
       d="m 528,1527.1 c 0,0 -1.4725,3.4715 -1.7717,5.3149 -0.28379,1.7488 -0.21647,3.5566 0,5.315 0.29751,2.4167 1.7717,7.0866 1.7717,7.0866 0,0 1.4742,-4.6699 1.7716,-7.0866 0.21647,-1.7584 0.28379,-3.5662 0,-5.315 C 529.47246,1530.5715 528,1527.1 528,1527.1"
       fill="#1780ce"
       fill-rule="evenodd"
       stroke="#000000"
       stroke-linejoin="round"
       stroke-width="1px"
       id="path11530" />
    <path
       d="m 509.88,1519.7 c -1.1921,0 -2.9297,0.377 -2.9297,0.377 0,0 1.3776,1.3884 1.8965,2.209 0.62033,0.981 1.0611,2.0765 1.416,3.1816 0.44636,1.39 0.63642,2.8521 0.88282,4.291 0.29347,1.7138 0.2963,3.4785 0.70703,5.168 0.45787,1.8834 1.0293,3.7723 1.9453,5.4805 0.6962,1.2982 1.6251,2.4773 2.6504,3.5351 0.91909,0.9483 1.9203,1.8689 3.0938,2.4746 1.1436,0.5903 2.4283,0.9826 3.7129,1.0606 1.5802,0.096 4.4398,-0.6543 4.7578,-0.7383 0.318,0.084 3.1776,0.8346 4.7578,0.7383 1.2846,-0.078 2.5693,-0.4703 3.7129,-1.0606 1.1735,-0.6057 2.1747,-1.5263 3.0938,-2.4746 1.0253,-1.0578 1.9561,-2.2369 2.6523,-3.5351 0.91604,-1.7082 1.4855,-3.5971 1.9434,-5.4805 0.41073,-1.6895 0.41356,-3.4542 0.70703,-5.168 0.2464,-1.4389 0.43842,-2.901 0.88477,-4.291 0.35487,-1.1051 0.79373,-2.2006 1.4141,-3.1816 0.5189,-0.8206 1.8965,-2.209 1.8965,-2.209 0,0 -2.2671,-0.4895 -3.3984,-0.3535 -1.3046,0.157 -2.6247,0.5895 -3.7129,1.3261 -1.4001,0.9477 -2.5406,2.3216 -3.3594,3.8008 -0.85594,1.5464 -1.181,3.3459 -1.502,5.084 -0.20641,1.118 -0.14723,2.2697 -0.26563,3.4004 -0.1176,1.1231 -0.13527,2.2724 -0.4414,3.3594 -0.39332,1.3965 -1.0012,2.7446 -1.7676,3.9765 -0.72928,1.1724 -1.5385,2.3658 -2.6523,3.1817 -0.56497,0.4138 -1.2462,0.7562 -1.9453,0.7968 -0.58138,0.034 -1.3846,-0.281 -1.8203,-0.4629 v -0.1562 c 0,0 -0.1591,0.061 -0.19727,0.078 -0.0382,-0.017 -0.19726,-0.078 -0.19726,-0.078 v 0.1562 c -0.43573,0.1819 -1.2389,0.4964 -1.8203,0.4629 -0.69915,-0.041 -1.3804,-0.383 -1.9453,-0.7968 -1.1138,-0.8159 -1.9211,-2.0093 -2.6504,-3.1817 -0.76634,-1.2319 -1.3742,-2.58 -1.7676,-3.9765 -0.30613,-1.087 -0.32576,-2.2363 -0.44336,-3.3594 -0.1184,-1.1307 -0.0573,-2.2824 -0.26368,-3.4004 -0.3209,-1.7381 -0.64796,-3.5376 -1.5039,-5.084 -0.81877,-1.4792 -1.9593,-2.8531 -3.3594,-3.8008 -1.0882,-0.7366 -2.4063,-1.1691 -3.7109,-1.3261 -0.14142,-0.017 -0.3004,-0.024 -0.47071,-0.024 z"
       fill="#e9c13a"
       fill-rule="evenodd"
       stroke="#000000"
       stroke-width="1px"
       id="path11532" />
    <path
       d="m 512.76,1523.6 c 0,0 1.2992,2.7463 1.7236,4.1984 0.48714,1.6669 0.56567,3.4282 0.92807,5.1266 0.41156,1.9288 0.66277,3.9217 1.4142,5.7452 0.39273,0.953 0.97616,1.8243 1.591,2.6516 0.78379,1.0547 2.6516,2.9169 2.6516,2.9169"
       fill="none"
       stroke="#000000"
       stroke-linecap="round"
       stroke-width="1px"
       id="path11534" />
    <path
       d="m 543.27,1523.6 c 0,0 -1.2992,2.7463 -1.7236,4.1984 -0.48714,1.6669 -0.56567,3.4282 -0.92807,5.1266 -0.41156,1.9288 -0.66277,3.9217 -1.4142,5.7452 -0.39273,0.953 -0.97616,1.8243 -1.591,2.6516 -0.78379,1.0547 -2.6516,2.9169 -2.6516,2.9169"
       fill="none"
       stroke="#000000"
       stroke-linecap="round"
       stroke-width="1px"
       id="path11536" />
  </g>
</svg>
