<?xml version="1.0" encoding="UTF-8" standalone="no"?>
<svg
   width="42.999779mm"
   height="87.997734mm"
   enable-background="new"
   version="1.1"
   viewBox="0 0 152.36255 311.80203"
   id="svg20076"
   sodipodi:docname="Mazzo.svg"
   inkscape:version="1.2.1 (9c6d41e410, 2022-07-14)"
   xmlns:inkscape="http://www.inkscape.org/namespaces/inkscape"
   xmlns:sodipodi="http://sodipodi.sourceforge.net/DTD/sodipodi-0.dtd"
   xmlns="http://www.w3.org/2000/svg"
   xmlns:svg="http://www.w3.org/2000/svg"
   xmlns:rdf="http://www.w3.org/1999/02/22-rdf-syntax-ns#"
   xmlns:cc="http://creativecommons.org/ns#"
   xmlns:dc="http://purl.org/dc/elements/1.1/">
  <sodipodi:namedview
     id="namedview20078"
     pagecolor="#ffffff"
     bordercolor="#000000"
     borderopacity="0.25"
     inkscape:showpageshadow="2"
     inkscape:pageopacity="0.0"
     inkscape:pagecheckerboard="0"
     inkscape:deskcolor="#d1d1d1"
     inkscape:document-units="mm"
     showgrid="false"
     inkscape:zoom="2.8284271"
     inkscape:cx="196.57568"
     inkscape:cy="470.75634"
     inkscape:window-width="2560"
     inkscape:window-height="1409"
     inkscape:window-x="0"
     inkscape:window-y="31"
     inkscape:window-maximized="1"
     inkscape:current-layer="svg20076" />
  <title
     id="title2">Bresciane</title>
  <defs
     id="defs191" />
  <metadata
     id="metadata193">
    <rdf:RDF>
      <cc:Work
         rdf:about="">
        <dc:format>image/svg+xml</dc:format>
        <dc:type
           rdf:resource="http://purl.org/dc/dcmitype/StillImage" />
        <dc:title>Bresciane</dc:title>
        <dc:date>2020</dc:date>
        <dc:creator>
          <cc:Agent>
            <dc:title>ZZandro</dc:title>
          </cc:Agent>
        </dc:creator>
        <dc:rights>
          <cc:Agent>
            <dc:title />
          </cc:Agent>
        </dc:rights>
        <cc:license
           rdf:resource="http://creativecommons.org/licenses/by-sa/4.0/" />
      </cc:Work>
      <cc:License
         rdf:about="http://creativecommons.org/licenses/by-sa/4.0/">
        <cc:permits
           rdf:resource="http://creativecommons.org/ns#Reproduction" />
        <cc:permits
           rdf:resource="http://creativecommons.org/ns#Distribution" />
        <cc:requires
           rdf:resource="http://creativecommons.org/ns#Notice" />
        <cc:requires
           rdf:resource="http://creativecommons.org/ns#Attribution" />
        <cc:permits
           rdf:resource="http://creativecommons.org/ns#DerivativeWorks" />
        <cc:requires
           rdf:resource="http://creativecommons.org/ns#ShareAlike" />
      </cc:License>
    </rdf:RDF>
  </metadata>
  <g
     id="g12436"
     style="display:inline"
     transform="translate(-162.98849,-637.80399)">
    <g
       transform="matrix(0.97008,0,0,0.9964,-802.93,-1109.7)"
       enable-background="new"
       fill="#f4f2ef"
       id="g11958">
      <g
         transform="matrix(0.70046,0,0,1.0004,298.31,-0.79223)"
         fill="#f4f2ef"
         id="g11956">
        <rect
           x="996.13"
           y="1754.4"
           width="223.23"
           height="311.81"
           rx="10.63"
           ry="10.63"
           fill="#f4f2ef"
           stroke="#000000"
           stroke-width="0.99673"
           id="rect11954" />
      </g>
    </g>
    <g
       transform="matrix(0.76704,0,0,0.8945,-584.82,-915.04)"
       enable-background="new"
       fill="none"
       id="g11964">
      <g
         transform="matrix(0.70046,0,0,1.0004,298.31,-0.79223)"
         fill="none"
         id="g11962">
        <rect
           x="996.13"
           y="1754.4"
           width="223.23"
           height="311.81"
           rx="10.63"
           ry="10.63"
           fill="none"
           stroke="#000000"
           stroke-width="0.99673"
           id="rect11960" />
      </g>
    </g>
    <g
       transform="translate(162.99,-102.76)"
       id="g12434">
      <g
         stroke="#000000"
         id="g12432">
        <ellipse
           transform="matrix(0.63408,0.77327,-0.79904,0.60128,0,0)"
           cx="688.39001"
           cy="488.41"
           rx="10.638"
           ry="11.967"
           fill="#dd1d1d"
           stroke-linecap="round"
           stroke-linejoin="round"
           stroke-width="0.99965"
           id="ellipse11966" />
        <ellipse
           transform="matrix(-0.63408,0.77327,0.79904,0.60128,0,0)"
           cx="596.69"
           cy="606.32001"
           rx="10.638"
           ry="11.967"
           fill="#dd1d1d"
           stroke-linecap="round"
           stroke-linejoin="round"
           stroke-width="0.99965"
           id="ellipse11968" />
        <path
           d="m 63.816,833.86 h 24.729 l -5e-5,51.235 -24.729,10e-6 10e-7,-51.235"
           fill="#1780ce"
           fill-rule="evenodd"
           stroke-width="1px"
           id="path11970" />
        <path
           d="m 83.95,845 0.70706,-10.079 c 0,0 -2.7028,2.2132 -3.5445,3.4376 -0.62361,0.90715 -1.2704,1.8328 -1.625,2.875 -0.5237,1.5393 -0.6875,3.7669 -0.6875,3.7669 0,0 0.2954,-4.4167 -0.5625,-6.9544 -0.39933,-1.1812 -2.0561,-3.125 -2.0561,-3.125 0,0 -1.6568,1.9438 -2.0561,3.125 -0.8579,2.5377 -0.5625,6.9544 -0.5625,6.9544 0,0 -0.1638,-2.2276 -0.6875,-3.7669 -0.35456,-1.0422 -1.0014,-1.9678 -1.625,-2.875 -0.84168,-1.2244 -3.5445,-3.4376 -3.5445,-3.4376 L 67.705811,845"
           fill="none"
           stroke-linejoin="round"
           stroke-width="1px"
           id="path11972" />
        <path
           d="m 51.559,913.77 h 49.244 l 3.918,3.9668 -11.02,8.709 H 58.662 l -11.021,-8.709 z"
           fill="#e9c13a"
           fill-rule="evenodd"
           stroke-linejoin="round"
           stroke-width="0.99921"
           id="path11974" />
        <path
           d="m 65.736,913.71 c -0.26218,6.9e-4 -0.52805,0.021 -0.79883,0.0625 1.0995,3.42 3.2042,5.3924 5.3574,6.3379 -2.1532,0.94553 -4.2579,2.9178 -5.3574,6.3379 0.27078,0.0415 0.53664,0.0618 0.79883,0.0625 3.9328,0.0103 6.9461,-4.3513 10.445,-6.4004 -3.4992,-2.0491 -6.5126,-6.4106 -10.445,-6.4004 z m 10.455,6.4 c 3.4992,2.0491 6.5033,6.411 10.436,6.4007 0.26218,-7e-4 0.52805,-0.021 0.79883,-0.0625 -1.0995,-3.42 -3.2042,-5.3924 -5.3574,-6.3379 2.1532,-0.94553 4.2579,-2.9178 5.3574,-6.3379 -0.27078,-0.0415 -0.53664,-0.0618 -0.79883,-0.0625 -3.9328,-0.0103 -6.9368,4.351 -10.436,6.4 z"
           fill-rule="evenodd"
           stroke-width="1px"
           id="path11976" />
        <path
           d="m 49.387,908.61 -9.0098,9.125 15.662,12.375 h 40.285 l 15.662,-12.375 -9.0098,-9.125 h -26.795 z m 2.1719,5.1582 h 49.244 l 3.918,3.9668 -11.02,8.709 h -35.039 l -11.021,-8.709 z"
           fill="#f4f2ef"
           fill-rule="evenodd"
           stroke-linejoin="round"
           stroke-width="0.99921"
           id="path11978" />
        <path
           d="m 58.305,917.95 c -2.6467,0.0937 -5.2212,0.67695 -7.6641,2.1562 7.8173,4.7338 16.985,0.29001 25.541,0 -5.8823,-0.19938 -12.054,-2.3623 -17.877,-2.1562 z"
           fill-rule="evenodd"
           stroke-width="1px"
           id="path11980" />
        <path
           d="m 56.039,930.11 v 5.75 h 40.285 v -5.75 H 76.181 Z"
           fill="#f4f2ef"
           fill-rule="evenodd"
           stroke-linejoin="round"
           stroke-width="0.99921"
           id="path11982" />
        <path
           d="m 56.038,935.86 -18.851,-14.895 3.1892,-3.2301 15.662,12.375 z"
           fill="#f4f2ef"
           fill-rule="evenodd"
           stroke-linejoin="round"
           stroke-width="0.99921"
           id="path11984" />
        <path
           d="m 96.324,935.86 18.851,-14.895 -3.1892,-3.2301 -15.662,12.375 z"
           fill="#f4f2ef"
           fill-rule="evenodd"
           stroke-linejoin="round"
           stroke-width="0.99921"
           id="path11986" />
        <path
           d="m 94.058,917.95 c 2.6467,0.0937 5.2212,0.67695 7.6641,2.1562 -7.8173,4.7338 -16.985,0.29001 -25.541,0 5.8823,-0.19938 12.054,-2.3623 17.877,-2.1562 z"
           fill-rule="evenodd"
           stroke-width="1px"
           id="path11988" />
        <path
           d="m 56.039,935.86 0.06875,67.251 -0.06875,7.3274 3.8359,3.2967 h 32.611 l 3.7681,-3.2392 v -74.636 l -40.216,8.8e-4"
           fill="#dd1d1d"
           fill-rule="evenodd"
           stroke-linejoin="round"
           stroke-width="1px"
           id="path11990" />
        <path
           d="m 63.78,1013.7 h 24.797 v -77.875 l -24.797,3.5e-4 z"
           fill="#1780ce"
           fill-rule="evenodd"
           stroke-width="1px"
           id="path11992" />
        <path
           d="m 92.487,1013.7 25.903,-22.267 -3.8665,-4.0627 -24.614,21.159 2.5776,5.1707"
           fill="#dd1d1d"
           fill-rule="evenodd"
           stroke-linejoin="round"
           stroke-width="1px"
           id="path11994" />
        <path
           d="m 100.11,1029 29.713,-25.543 -6.6348,-6.9727 -27.502,23.643 z"
           fill="#e9c13a"
           fill-rule="evenodd"
           stroke-linejoin="round"
           stroke-width="1px"
           id="path11996" />
        <path
           d="m 56.676,1020.2 -27.502,-23.643 -6.6348,6.9727 29.715,25.543 z"
           fill="#e9c13a"
           fill-rule="evenodd"
           stroke-linejoin="round"
           stroke-width="1px"
           id="path11998" />
        <g
           transform="matrix(-1,0,0,1,152.35,-0.01034)"
           fill="none"
           stroke-width="0.64488"
           id="g12046">
          <path
             d="m 37.829,987.42 -15.287,16.063"
             id="path12000" />
          <path
             d="m 37.829,987.42 -15.287,16.063"
             id="path12002" />
          <path
             d="m 23.882,1004.6 15.3,-16.077"
             id="path12004" />
          <path
             d="m 25.226,1005.8 15.3,-16.077"
             id="path12006" />
          <path
             d="m 26.569,1006.9 15.3,-16.077"
             id="path12008" />
          <path
             d="m 27.913,1008.1 15.3,-16.077"
             id="path12010" />
          <path
             d="m 29.256,1009.3 15.3,-16.077"
             id="path12012" />
          <path
             d="M 30.6,1010.4 45.9,994.323"
             id="path12014" />
          <path
             d="m 31.943,1011.6 15.3,-16.077"
             id="path12016" />
          <path
             d="m 33.287,1012.7 15.3,-16.077"
             id="path12018" />
          <path
             d="m 34.63,1013.9 15.3,-16.077"
             id="path12020" />
          <path
             d="m 35.974,1015 15.3,-16.077"
             id="path12022" />
          <path
             d="m 37.317,1016.2 15.3,-16.077"
             id="path12024" />
          <path
             d="m 38.661,1017.3 15.3,-16.077"
             id="path12026" />
          <path
             d="m 40.004,1018.5 15.3,-16.077"
             id="path12028" />
          <path
             d="m 41.348,1019.7 15.3,-16.077"
             id="path12030" />
          <path
             d="m 42.691,1020.8 15.3,-16.077"
             id="path12032" />
          <path
             d="m 44.035,1022 15.3,-16.077"
             id="path12034" />
          <path
             d="m 45.378,1023.1 15.3,-16.077"
             id="path12036" />
          <path
             d="m 46.722,1024.3 15.3,-16.077"
             id="path12038" />
          <path
             d="m 48.065,1025.4 15.3,-16.077"
             id="path12040" />
          <path
             d="m 49.409,1026.6 15.3,-16.077"
             id="path12042" />
          <path
             d="m 50.752,1027.7 15.3,-16.077"
             id="path12044" />
        </g>
        <ellipse
           transform="rotate(42.857)"
           cx="666.22998"
           cy="658.23999"
           rx="8.1759005"
           ry="9.1040001"
           fill="#dd1d1d"
           stroke-linecap="round"
           stroke-linejoin="round"
           stroke-width="0.99921"
           id="ellipse12048" />
        <path
           d="m 38.559,922.05 -6.6341,6.7192 17.48,13.811 6.6341,-6.7192 z"
           fill="#dd1d1d"
           fill-rule="evenodd"
           stroke-width="1px"
           id="path12050" />
        <path
           d="m 35.199,925.45 17.48,13.811"
           fill="none"
           stroke-width="1px"
           id="path12052" />
        <ellipse
           transform="matrix(-0.73305,0.68017,0.68017,0.73305,0,0)"
           cx="554.59003"
           cy="761.82001"
           rx="8.1759005"
           ry="9.1040001"
           fill="#dd1d1d"
           stroke-linecap="round"
           stroke-linejoin="round"
           stroke-width="0.99921"
           id="ellipse12054" />
        <path
           d="m 113.73,922.05 6.6341,6.7192 -17.48,13.811 -6.6341,-6.7192 z"
           fill="#dd1d1d"
           fill-rule="evenodd"
           stroke-width="1px"
           id="path12056" />
        <path
           d="M 117.09,925.45 99.61,939.261"
           fill="none"
           stroke-width="1px"
           id="path12058" />
        <path
           d="m 76.182,987.57 c -0.9283,2.161 -2.5691,5.6156 -2.5659,8.0886 0,0 -0.05621,2.483 0.08858,3.7122 0.14802,1.2567 0.79372,3.7122 0.79372,3.7122 l -1.5156,0.793 c -3.7128,2.8068 -4.6761,5.4977 -5.0293,8.1621 3.2938,-1.5164 6.3168,-3.3931 8.1621,-6.8359 l 0.06641,0.086 0.06641,-0.086 c 1.8453,3.4428 4.8684,5.3195 8.1621,6.8359 -0.35319,-2.6644 -1.3164,-5.3553 -5.0293,-8.1621 l -1.5176,-0.793 c 0,0 0.68445,-2.4537 0.85128,-3.7122 0.16273,-1.2276 0.14173,-3.7122 0.14173,-3.7122 -3e-6,-2.473 -1.8556,-6.6018 -2.6747,-8.0886 z"
           fill="none"
           stroke-linejoin="round"
           stroke-width="1px"
           id="path12060" />
        <path
           d="m 85.111,937.61 c -5.6666,1.0881 -8.9297,3.6559 -8.9297,7.0234 1.4e-5,-3.3676 -3.1927,-5.863 -8.8594,-6.9512 1.0881,5.6666 3.5836,8.8594 6.9512,8.8594 -3.3675,-10e-6 -5.863,3.1908 -6.9512,8.8574 5.6666,-1.0881 8.8594,-3.5817 8.8594,-6.9492 -4e-6,3.3676 3.263,5.9334 8.9297,7.0215 -1.0881,-5.6666 -3.6539,-8.9297 -7.0215,-8.9297 3.3675,0 5.9333,-3.265 7.0215,-8.9316 z"
           fill="none"
           stroke-linejoin="round"
           stroke-width="1px"
           id="path12062" />
        <path
           d="m 60.236,980.43 2e-6,21.294"
           fill="none"
           stroke-width="0.99921"
           id="path12064" />
        <path
           d="m 92.126,980.43 -4e-6,21.299"
           fill="none"
           stroke-width="0.99921"
           id="path12066" />
        <g
           fill="none"
           stroke-width="0.29055"
           id="g12088">
          <path
             d="m 40.152,923.31 -6.6341,6.7192"
             id="path12068" />
          <path
             d="m 41.746,924.57 -9.3119,9.4307"
             id="path12070" />
          <path
             d="M 43.34,925.83 32.07,937.244"
             id="path12072" />
          <path
             d="M 44.934,927.09 32.598,939.585"
             id="path12074" />
          <path
             d="m 46.324,928.55 -12.7,12.863"
             id="path12076" />
          <path
             d="M 48.121,929.61 35.057,942.842"
             id="path12078" />
          <path
             d="M 49.715,930.87 36.896,943.853"
             id="path12080" />
          <path
             d="M 51.309,932.13 39.242,944.352"
             id="path12082" />
          <path
             d="M 52.903,933.38 42.507,943.91"
             id="path12084" />
          <path
             d="m 54.497,934.64 -6.6341,6.7192"
             id="path12086" />
        </g>
        <g
           transform="matrix(-1,0,0,1,152.29,-2.5676e-6)"
           fill="none"
           stroke-width="0.64488"
           id="g12110">
          <path
             d="m 40.152,923.31 -6.6341,6.7192"
             id="path12090" />
          <path
             d="m 41.746,924.57 -9.3119,9.4307"
             id="path12092" />
          <path
             d="M 43.34,925.83 32.07,937.244"
             id="path12094" />
          <path
             d="M 44.934,927.09 32.598,939.585"
             id="path12096" />
          <path
             d="m 46.324,928.55 -12.7,12.863"
             id="path12098" />
          <path
             d="M 48.121,929.61 35.057,942.842"
             id="path12100" />
          <path
             d="M 49.715,930.87 36.896,943.853"
             id="path12102" />
          <path
             d="M 51.309,932.13 39.242,944.352"
             id="path12104" />
          <path
             d="M 52.903,933.38 42.507,943.91"
             id="path12106" />
          <path
             d="m 54.497,934.64 -6.6341,6.7192"
             id="path12108" />
        </g>
        <path
           d="m 59.875,1013.7 -25.903,-22.267 3.8665,-4.0627 24.614,21.159 -2.5776,5.1707"
           fill="#dd1d1d"
           fill-rule="evenodd"
           stroke-linejoin="round"
           stroke-width="1px"
           id="path12112" />
        <g
           fill="none"
           stroke-width="0.64488"
           id="g12160">
          <path
             d="m 37.829,987.42 -15.287,16.063"
             id="path12114" />
          <path
             d="m 37.829,987.42 -15.287,16.063"
             id="path12116" />
          <path
             d="m 23.882,1004.6 15.3,-16.077"
             id="path12118" />
          <path
             d="m 25.226,1005.8 15.3,-16.077"
             id="path12120" />
          <path
             d="m 26.569,1006.9 15.3,-16.077"
             id="path12122" />
          <path
             d="m 27.913,1008.1 15.3,-16.077"
             id="path12124" />
          <path
             d="m 29.256,1009.3 15.3,-16.077"
             id="path12126" />
          <path
             d="M 30.6,1010.4 45.9,994.323"
             id="path12128" />
          <path
             d="m 31.943,1011.6 15.3,-16.077"
             id="path12130" />
          <path
             d="m 33.287,1012.7 15.3,-16.077"
             id="path12132" />
          <path
             d="m 34.63,1013.9 15.3,-16.077"
             id="path12134" />
          <path
             d="m 35.974,1015 15.3,-16.077"
             id="path12136" />
          <path
             d="m 37.317,1016.2 15.3,-16.077"
             id="path12138" />
          <path
             d="m 38.661,1017.3 15.3,-16.077"
             id="path12140" />
          <path
             d="m 40.004,1018.5 15.3,-16.077"
             id="path12142" />
          <path
             d="m 41.348,1019.7 15.3,-16.077"
             id="path12144" />
          <path
             d="m 42.691,1020.8 15.3,-16.077"
             id="path12146" />
          <path
             d="m 44.035,1022 15.3,-16.077"
             id="path12148" />
          <path
             d="m 45.378,1023.1 15.3,-16.077"
             id="path12150" />
          <path
             d="m 46.722,1024.3 15.3,-16.077"
             id="path12152" />
          <path
             d="m 48.065,1025.4 15.3,-16.077"
             id="path12154" />
          <path
             d="m 49.409,1026.6 15.3,-16.077"
             id="path12156" />
          <path
             d="m 50.752,1027.7 15.3,-16.077"
             id="path12158" />
        </g>
        <path
           d="m 63.78,943.82 c 0,0 -1.4068,0.39295 -2.1287,0.48614 -0.9063,0.117 -1.8542,0.31263 -2.74,0.0884 -0.5952,-0.15066 -1.1621,-0.48874 -1.591,-0.92808 -0.58756,-0.60191 -1.0817,-1.3798 -1.2185,-2.2097 -0.17146,-1.0397 0.10699,-2.159 0.55694,-3.1119 0.29112,-0.61653 0.7589,-1.1788 1.3258,-1.5575 0.65598,-0.43824 1.4649,-0.67676 2.2522,-0.7273 0.82005,-0.0526 1.6702,0.12316 2.4235,0.45142 0.85028,0.37051 1.5799,1.0006 2.2356,1.6566 0.58309,0.58336 1.1005,1.2524 1.4723,1.9887 0.48904,0.96861 0.95521,3.1119 0.95521,3.1119 v 66.02602 c 0,0 -0.6202,1.9062 -1.2525,2.6517 -0.49508,0.5837 -1.1891,0.995 -1.8883,1.3062 -0.90273,0.4017 -1.9012,0.7784 -2.8846,0.6823 -1.1024,-0.1077 -2.1465,-0.7009 -3.0244,-1.3763 -0.72297,-0.5562 -1.3702,-1.2805 -1.7341,-2.1169 -0.46212,-1.0622 -0.46445,-2.2855 -0.46558,-3.4439 -7.35e-4,-0.7508 0.08544,-1.5124 0.29739,-2.2327 0.19996,-0.6795 0.40504,-1.4209 0.90504,-1.9227 0.46047,-0.4621 1.1257,-0.7242 1.7678,-0.8397 0.8296,-0.1492 1.7458,-0.1146 2.5191,0.2209 0.91077,0.3951 2.217,1.9888 2.217,1.9888 z"
           fill="#dd1d1d"
           fill-rule="evenodd"
           stroke-linejoin="round"
           stroke-width="1px"
           id="path12162" />
        <path
           d="m 31.113,989.01 -4.7988,5.043 30.361,26.1 h 39.01 l 30.361,-26.1 -4.7988,-5.043 -28.762,24.725 h -32.611 z"
           fill="#1780ce"
           fill-rule="evenodd"
           stroke-linejoin="round"
           stroke-width="1px"
           id="path12164" />
        <path
           d="m 56.676,1020.2 -4.4219,8.873 h 47.855 l -4.4238,-8.873 z"
           fill="#e9c13a"
           fill-rule="evenodd"
           stroke-linejoin="round"
           stroke-width="1px"
           id="path12166" />
        <path
           d="m 100.11,1029 -7.6237,-15.291"
           fill="none"
           stroke-linejoin="round"
           stroke-width="0.99921"
           id="path12168" />
        <path
           d="m 52.254,1029 7.6202,-15.291"
           fill="none"
           stroke-linejoin="round"
           stroke-width="1px"
           id="path12170" />
        <path
           d="m 88.576,943.82 c 0,0 1.4068,0.39295 2.1287,0.48614 0.9063,0.117 1.8542,0.31263 2.74,0.0884 0.5952,-0.15066 1.1621,-0.48874 1.591,-0.92808 0.58756,-0.60191 1.0817,-1.3798 1.2185,-2.2097 0.17146,-1.0397 -0.10699,-2.159 -0.55694,-3.1119 -0.29112,-0.61653 -0.7589,-1.1788 -1.3258,-1.5575 -0.65598,-0.43824 -1.4649,-0.67676 -2.2522,-0.7273 -0.82005,-0.0526 -1.6702,0.12316 -2.4235,0.45142 -0.85028,0.37051 -1.5799,1.0006 -2.2356,1.6566 -0.58309,0.58336 -1.1005,1.2524 -1.4723,1.9887 -0.48904,0.96861 -0.95521,3.1119 -0.95521,3.1119 v 66.02602 c 0,0 0.6202,1.9062 1.2525,2.6517 0.49508,0.5837 1.1891,0.995 1.8883,1.3062 0.90273,0.4017 1.9012,0.7784 2.8846,0.6823 1.1024,-0.1077 2.1465,-0.7009 3.0244,-1.3763 0.72297,-0.5562 1.3702,-1.2805 1.7341,-2.1169 0.46212,-1.0622 0.46445,-2.2855 0.46558,-3.4439 7.35e-4,-0.7508 -0.08544,-1.5124 -0.29739,-2.2327 -0.19996,-0.6795 -0.40504,-1.4209 -0.90504,-1.9227 -0.46047,-0.4621 -1.1257,-0.7242 -1.7678,-0.8397 -0.8296,-0.1492 -1.7458,-0.1146 -2.5191,0.2209 -0.91077,0.3951 -2.217,1.9888 -2.217,1.9888 z"
           fill="#dd1d1d"
           fill-rule="evenodd"
           stroke-linejoin="round"
           stroke-width="1px"
           id="path12172" />
        <g
           fill="#e9c13a"
           fill-rule="evenodd"
           stroke-linejoin="round"
           stroke-width="1px"
           id="g12190">
          <path
             d="m 49.605,956.69 v 5.3144 h 53.15 V 956.69 H 76.181 Z"
             id="path12174" />
          <path
             d="m 49.605,975.12 v 5.3144 h 53.15 V 975.12 H 76.181 Z"
             id="path12176" />
          <path
             d="m 54.921,962.01 v 13.11 h 5.315 v -13.11 h -5.315"
             id="path12178" />
          <path
             d="m 60.236,962.01 3.5433,6e-5 v 13.11 H 60.236 v -13.11"
             id="path12180" />
          <path
             d="m 63.78,962.01 h 3.5433 v 13.11 H 63.78 Z"
             id="path12182" />
          <path
             d="m 97.441,962.01 v 13.11 h -5.315 v -13.11 h 5.315"
             id="path12184" />
          <path
             d="m 92.126,962.01 -3.5433,6e-5 v 13.11 h 3.5433 v -13.11"
             id="path12186" />
          <path
             d="m 88.583,962.01 h -3.5433 v 13.11 h 3.5433 z"
             id="path12188" />
        </g>
        <path
           d="M 58.25,796.86 42.873,808.938 60.166,824.12 H 92.195 L 109.488,808.938 94.111,796.86 h -17.93 z"
           fill="#f4f2ef"
           fill-rule="evenodd"
           stroke-linejoin="round"
           stroke-width="1px"
           id="path12192" />
        <path
           d="m 61.471,800.99 h 29.422 l 10.301,8.0918 -11.219,9.8476 H 62.387 l -11.219,-9.8476 z"
           fill="#e9c13a"
           fill-rule="evenodd"
           stroke-linejoin="round"
           stroke-width="1px"
           id="path12194" />
        <path
           d="m 42.873,808.94 -3.4467,2.7081 18.957,16.642 1.7834,-4.1683 -17.293,-15.182"
           fill="#e9c13a"
           fill-rule="evenodd"
           stroke-linejoin="round"
           stroke-width="1px"
           id="path12196" />
        <path
           d="m 109.49,808.94 3.4467,2.7081 -18.957,16.642 -1.7834,-4.1683 17.293,-15.182"
           fill="#e9c13a"
           fill-rule="evenodd"
           stroke-linejoin="round"
           stroke-width="1px"
           id="path12198" />
        <path
           d="m 58.383,828.29 35.596,-4.6e-4 -1.7834,-4.1683 -32.029,4.6e-4 z"
           fill="#e9c13a"
           fill-rule="evenodd"
           stroke-linejoin="round"
           stroke-width="1px"
           id="path12200" />
        <path
           d="m 56,833.86 -0.31532,51.235 h 8.1318 l -5.1e-5,-51.235 h -7.8164"
           fill="#dd1d1d"
           fill-rule="evenodd"
           stroke-width="1px"
           id="path12202" />
        <path
           d="m 59.927,833.86 v 51.235"
           fill="none"
           stroke-width="1px"
           id="path12204" />
        <path
           d="m 55.102,833.07 c 0,0 -1.0215,1.0785 -1.2293,1.7646 -0.20924,0.69101 -0.12176,1.4629 0.04419,2.1655 0.14994,0.63488 0.42093,1.2676 0.83969,1.7678 0.48808,0.58301 1.138,1.0762 1.8562,1.3258 0.57119,0.19852 1.2112,0.15699 1.812,0.0884 0.91275,-0.10421 1.8594,-0.2863 2.6516,-0.75131 0.53902,-0.31636 1.0062,-0.7887 1.3258,-1.3258 0.21212,-0.35651 0.31768,-0.77996 0.35355,-1.1932 0.03334,-0.38411 -0.13258,-1.149 -0.13258,-1.149 0,0 0.68022,0.64795 0.88388,1.0607 0.20718,0.41984 0.30936,1.37 0.30936,1.37 v 43.487 c 0,0 -0.65432,-1.7449 -1.3044,-2.3698 -0.26123,-0.2511 -0.45521,-0.40582 -0.7955,-0.53032 -0.23488,-0.0859 -0.65595,-0.13898 -0.90598,-0.13259 -0.28423,0.007 -0.56792,0.10706 -0.81759,0.24307 -0.23854,0.12994 -0.44761,0.31937 -0.61872,0.53033 -0.31864,0.39286 -0.61405,0.83848 -0.72855,1.3312 -0.11349,0.48834 -0.09664,1.0285 0.06629,1.5026 0.22726,0.66133 1.2153,1.71 1.2153,1.71 l 1.3676,1.1289 h 2.5215 c 0,0 1.3859,-0.24715 1.9887,-0.58493 0.36395,-0.20393 0.67377,-0.50897 0.92808,-0.83969 0.33335,-0.4335 0.53184,-0.95752 0.7513,-1.4584 0.47122,-1.0754 1.0158,-3.2301 0.92808,-3.7123 v -35.355 c 0,-0.83784 -0.09122,-2.7578 -0.26516,-3.5134 -0.24303,-1.0558 -0.36097,-2.0166 -0.7513,-3.0273 -0.20935,-0.54207 -0.53061,-1.0412 -0.88388,-1.5026 -0.57584,-0.75205 -1.9887,-2.0296 -1.9887,-2.0296 z"
           fill="#dd1d1d"
           fill-rule="evenodd"
           stroke-linejoin="round"
           stroke-width="1px"
           id="path12206" />
        <path
           d="M 34.818,815.27 56,833.865 l 2.3833,-5.5728 -18.954,-16.644 z"
           fill="#1780ce"
           fill-rule="evenodd"
           stroke-linejoin="round"
           stroke-width="1px"
           id="path12208" />
        <g
           transform="translate(-3.3721e-4,-1.856)"
           stroke-width="1px"
           id="g12216">
          <path
             d="m 96.362,835.72 0.31532,51.235 h -8.1318 l 5.1e-5,-51.235 h 7.8164"
             fill="#dd1d1d"
             fill-rule="evenodd"
             id="path12210" />
          <path
             d="m 92.435,835.72 v 51.235"
             fill="none"
             id="path12212" />
          <path
             d="m 97.26,834.93 c 0,0 1.0215,1.0785 1.2293,1.7646 0.20924,0.69101 0.12176,1.4629 -0.04419,2.1655 -0.14994,0.63488 -0.42093,1.2676 -0.83969,1.7678 -0.48808,0.58301 -1.138,1.0762 -1.8562,1.3258 -0.57119,0.19852 -1.2112,0.15699 -1.812,0.0884 -0.91275,-0.10421 -1.8594,-0.2863 -2.6516,-0.75131 -0.53902,-0.31636 -1.0062,-0.7887 -1.3258,-1.3258 -0.21212,-0.35651 -0.31768,-0.77996 -0.35355,-1.1932 -0.03334,-0.38411 0.13258,-1.149 0.13258,-1.149 0,0 -0.68022,0.64795 -0.88388,1.0607 -0.20718,0.41984 -0.30936,1.37 -0.30936,1.37 v 43.487 c 0,0 0.65432,-1.7449 1.3044,-2.3698 0.26123,-0.2511 0.45521,-0.40582 0.7955,-0.53032 0.23488,-0.0859 0.65595,-0.13898 0.90598,-0.13259 0.28423,0.007 0.56792,0.10706 0.81759,0.24307 0.23854,0.12994 0.44761,0.31937 0.61872,0.53033 0.31864,0.39286 0.61405,0.83848 0.72855,1.3312 0.11349,0.48834 0.09664,1.0285 -0.06629,1.5026 -0.22726,0.66133 -1.2153,1.71 -1.2153,1.71 l -1.3676,1.1289 h -2.5215 c 0,0 -1.3859,-0.24715 -1.9887,-0.58493 -0.36395,-0.20393 -0.67377,-0.50897 -0.92808,-0.83969 -0.33335,-0.4335 -0.53184,-0.95752 -0.7513,-1.4584 -0.47122,-1.0754 -1.0158,-3.2301 -0.92808,-3.7123 v -35.355 c 0,-0.83784 0.09122,-2.7578 0.26516,-3.5134 0.24303,-1.0558 0.36097,-2.0166 0.7513,-3.0273 0.20935,-0.54207 0.53061,-1.0412 0.88388,-1.5026 0.57584,-0.75205 1.9887,-2.0296 1.9887,-2.0296 z"
             fill="#dd1d1d"
             fill-rule="evenodd"
             stroke-linejoin="round"
             id="path12214" />
        </g>
        <path
           d="m 117.54,815.27 -21.182,18.595 -2.3833,-5.5728 18.954,-16.644 z"
           fill="#1780ce"
           fill-rule="evenodd"
           stroke-linejoin="round"
           stroke-width="1px"
           id="path12218" />
        <path
           d="m 56,833.86 40.363,-4.6e-4 -2.3831,-5.5724 h -35.596 z"
           fill="#1780ce"
           fill-rule="evenodd"
           stroke-linejoin="round"
           stroke-width="1px"
           id="path12220" />
        <path
           d="m 36.339,876.84 -3.2754,3.5254 21.715,17.926 h 42.807 l 21.715,-17.926 -3.2734,-3.5254 -20.627,17.025 h -38.434 z"
           fill="#e9c13a"
           fill-rule="evenodd"
           stroke-width="1px"
           id="path12222" />
        <path
           d="m 93.529,890.08 19.695,-16.258 -3.6856,-3.9688 -18.473,15.246 z"
           fill="#dd1d1d"
           fill-rule="evenodd"
           stroke-width="1px"
           id="path12224" />
        <path
           d="m 61.295,885.1 -18.471,-15.246 -3.6875,3.9688 19.697,16.258 z"
           fill="#dd1d1d"
           fill-rule="evenodd"
           stroke-width="1px"
           id="path12226" />
        <path
           d="m 76.182,803.2 c 0,0 -1.4045,0.75198 -1.9355,1.3262 -0.76161,0.82354 -1.2202,1.8927 -1.6797,2.916 -0.68699,1.5299 -1.3103,3.1198 -1.5898,4.7734 -0.37317,2.2078 -0.08984,6.7168 -0.08984,6.7168 h 10.588 c 0,0 0.28536,-4.509 -0.08789,-6.7168 -0.2796,-1.6538 -0.90444,-3.2435 -1.5918,-4.7734 -0.45969,-1.0232 -0.91827,-2.0923 -1.6797,-2.916 -0.53051,-0.57392 -1.9336,-1.3262 -1.9336,-1.3262 z"
           fill="#dd1d1d"
           fill-rule="evenodd"
           stroke-linejoin="round"
           stroke-width="1px"
           id="path12228" />
        <path
           d="m 75.547,809.42 c -0.21252,0.54989 -0.37178,1.2933 -0.5,1.9766 -0.1917,1.0215 -0.24037,1.5834 -0.31836,2.6875 -0.10413,1.4742 -0.02539,4.4863 -0.02539,4.4863 h 2.9551 c 0,0 0.07874,-3.0121 -0.02539,-4.4863 -0.07799,-1.1041 -0.12666,-1.666 -0.31836,-2.6875 -0.12822,-0.68328 -0.28748,-1.4267 -0.5,-1.9766 -0.14817,-0.38339 -0.63284,-1.3633 -0.63284,-1.3633 0,0 -0.48662,0.97989 -0.63479,1.3633 z"
           fill-rule="evenodd"
           stroke-linejoin="round"
           stroke-width="1px"
           id="path12230" />
        <path
           d="m 76.181,761.87 c 0,0 -1.3141,0.77436 -1.8672,1.3711 -0.80551,0.86908 -1.5651,1.9029 -2.0387,3.1367 -0.58383,1.5211 -0.88783,4.9941 -0.88783,4.9941 l 4.7937,5.2363 4.7923,-5.2363 c 0,0 -0.3042,-3.4729 -0.88783,-4.9941 -0.47327,-1.2336 -1.2321,-2.2677 -2.0372,-3.1367 -0.553,-0.59686 -1.8672,-1.3711 -1.8672,-1.3711 z"
           fill="#dd1d1d"
           fill-rule="evenodd"
           stroke-linejoin="round"
           stroke-width="1px"
           id="path12232" />
        <path
           d="m 76.181,777.99 c 0,0 3.6501,0.07 5.2995,-0.625 1.6705,-0.70395 2.9998,-2.1234 4.2922,-3.4375 1.085,-1.1032 1.7645,-2.5974 2.8615,-3.6875 1.225,-1.2173 2.702,-2.1229 4.093,-3.125 0.57248,-0.41242 1.7491,-1.1875 1.7491,-1.1875 0,0 -2.2568,-0.43879 -3.398,-0.4375 -1.2817,10e-4 -2.5794,0.14416 -3.8153,0.5 -1.4845,0.42742 -2.94,1.0609 -4.2326,1.9375 -1.9372,1.3137 -3.4572,3.2056 -5.1268,4.875 -0.58866,0.5886 -1.4125,1.0235 -1.7232,1.8116 -0.40998,1.04 5.12e-4,3.3759 5.12e-4,3.3759 z"
           fill="#dd1d1d"
           fill-rule="evenodd"
           stroke-linejoin="round"
           stroke-width="1px"
           id="path12234" />
        <path
           d="m 76.181,777.99 c 0,0 -3.6501,0.07 -5.2995,-0.625 -1.6705,-0.70395 -2.9998,-2.1234 -4.2922,-3.4375 -1.0849,-1.1032 -1.7645,-2.5974 -2.8615,-3.6875 -1.225,-1.2173 -2.702,-2.1229 -4.093,-3.125 -0.57248,-0.41242 -1.7491,-1.1875 -1.7491,-1.1875 0,0 2.2568,-0.43879 3.398,-0.4375 1.2817,10e-4 2.5794,0.14416 3.8153,0.5 1.4845,0.42742 2.94,1.0609 4.2326,1.9375 1.9372,1.3137 3.4572,3.2056 5.1268,4.875 0.58865,0.5886 1.4125,1.0235 1.7232,1.8116 0.40998,1.04 -5.13e-4,3.3759 -5.13e-4,3.3759 z"
           fill="#dd1d1d"
           fill-rule="evenodd"
           stroke-linejoin="round"
           stroke-width="1px"
           id="path12236" />
        <path
           d="m 76.181,777.99 c 0,0 -3.3373,-2.6486 -4.8681,-4.1253 -0.91277,-0.88055 -1.6053,-1.9805 -2.5625,-2.8125 -0.78067,-0.67855 -2.5625,-1.75 -2.5625,-1.75"
           fill="none"
           stroke-linecap="round"
           stroke-linejoin="round"
           stroke-width="1px"
           id="path12238" />
        <path
           d="m 76.181,777.99 c 0,0 3.3373,-2.6486 4.8681,-4.1253 0.91277,-0.88055 1.6053,-1.9805 2.5625,-2.8125 0.78067,-0.67855 2.5625,-1.75 2.5625,-1.75"
           fill="none"
           stroke-linecap="round"
           stroke-linejoin="round"
           stroke-width="1px"
           id="path12240" />
        <path
           d="m 76.181,774.61 c 0,0 -0.9498,1.2492 -1.2976,2 -0.9327,2.0134 -1.5051,4.3048 -2.0459,6.5625 -0.5508,2.2994 -1.5375,4.6875 -1.209,7.0625 0.49575,3.5834 4.5525,9.0625 4.5525,9.0625 0,0 4.0553,-5.479 4.5511,-9.0625 0.32856,-2.375 -0.65817,-4.7631 -1.209,-7.0625 -0.54079,-2.2577 -1.1132,-4.5491 -2.0459,-6.5625 -0.3478,-0.75079 -1.2961,-2 -1.2961,-2 z"
           fill="#1780ce"
           fill-rule="evenodd"
           stroke-linejoin="round"
           stroke-width="1px"
           id="path12242" />
        <g
           stroke-width="1px"
           id="g12252">
          <path
             d="m 69.738,803.02 c -1.0726,-1.3228 -1.7304,-2.934 -2.5633,-4.4194 -1.1799,-2.1043 -2.2493,-4.2698 -3.4471,-6.364 -1.0763,-1.8816 -2.2067,-3.7323 -3.3588,-5.5685 -0.85993,-1.3706 -1.6859,-2.7676 -2.6517,-4.0659 -1.0357,-1.3923 -2.1782,-2.7056 -3.3588,-3.9775 -1.4599,-1.5728 -2.9665,-3.1117 -4.5962,-4.5078 -1.7587,-1.5066 -3.5846,-2.9596 -5.5685,-4.1543 -1.6483,-0.99261 -3.438,-1.7368 -5.2149,-2.4749 -1.532,-0.63628 -3.0558,-1.3651 -4.6846,-1.6794 -1.5632,-0.30165 -3.1895,-0.34202 -4.773,-0.17678 -2.1748,0.22695 -6.364,1.591 -6.364,1.591 0,0 3.9871,0.64364 5.8336,1.4142 1.5016,0.62664 2.8974,1.5299 4.1543,2.5633 1.2722,1.046 2.3389,2.3306 3.3588,3.6239 1.7102,2.1688 3.1463,4.5435 4.5962,6.8943 1.0321,1.6734 1.9487,3.4153 2.9168,5.1265 1.0653,1.883 2.0586,3.8079 3.182,5.6568 1.0056,1.6552 2.0062,3.3224 3.182,4.8614 1.0517,1.3765 2.1835,2.7041 3.4471,3.8891 0.73511,0.68938 1.8425,1.6973 2.6516,2.2981 1.3915,1.0331 2.4453,1.7534 3.9775,2.5633 1.1951,0.63171 2.5056,1.0271 3.8007,1.4142 1.0135,0.30295 2.0492,0.53953 3.0936,0.70711 0.93498,0.15002 1.8816,0.25378 2.8284,0.26516 0.66307,0.008 1.9846,-0.13802 1.9846,-0.13802 l 1.0147,-2.2391 c 0,0 -2.4684,-1.9032 -3.4412,-3.103 z"
             fill="#e9c13a"
             fill-rule="evenodd"
             id="path12244" />
          <path
             d="m 72.847,806.81 c 0,0 -2.1575,-1.0374 -3.0972,-1.7646 -0.8272,-0.64025 -1.8722,-1.7057 -2.5852,-2.471 -1.0662,-1.1443 -1.7683,-2.0435 -2.7273,-3.279 -1.123,-1.447 -2.0632,-3.0274 -3.0625,-4.5625 -1.3843,-2.1265 -2.6415,-4.3353 -4.0625,-6.4375 -1.4539,-2.151 -2.9733,-4.2595 -4.5625,-6.3125 -1.0597,-1.3689 -2.1207,-2.7444 -3.3125,-4 -0.97446,-1.0266 -2.0279,-1.9807 -3.125,-2.875 -1.4924,-1.2165 -3.0399,-2.3788 -4.6875,-3.375 -1.2358,-0.74722 -2.7973,-1.6194 -4.125,-2.1875 -1.3026,-0.55737 -1.9625,-0.81995 -3.3125,-1.25 -1.257,-0.40044 -2.9487,-0.78324 -4.25,-1 -1.8939,-0.31547 -5.7503,-0.33568 -5.7503,-0.33568"
             fill="none"
             id="path12246" />
          <path
             d="m 72.165,808.36 c 0,0 -2.8337,-1.5334 -4.1649,-2.436 -1.0934,-0.74138 -1.1626,-0.86431 -2.1969,-1.6862 -0.88137,-0.70039 -2.5099,-2.1953 -3.2879,-3.0089 -0.75163,-0.78599 -1.5796,-1.6011 -2.2027,-2.4924 -0.88718,-1.2692 -1.6961,-2.3072 -2.5594,-3.5928 -0.92775,-1.3816 -1.8787,-3.0318 -2.8156,-4.4072 -1.0215,-1.4996 -1.9782,-3.0452 -3.0625,-4.5 -1.1238,-1.5079 -1.9088,-2.6834 -3.1875,-4.0625 -1.1322,-1.2211 -2.8541,-3.2447 -4.0839,-4.3674 -1.3519,-1.2342 -2.8418,-2.2644 -4.2911,-3.3826 -0.85548,-0.66006 -1.4778,-0.941 -2.4375,-1.4375 -1.4969,-0.77444 -4.7294,-1.7883 -4.7294,-1.7883"
             fill="none"
             id="path12248" />
          <path
             d="m 72.165,808.36 c 0,0 -3.2912,-0.50968 -4.8524,-1.061 -1.0542,-0.37228 -2.0377,-0.93082 -3,-1.5 -1.1987,-0.70902 -2.3619,-1.4903 -3.4375,-2.375 -0.85336,-0.70192 -1.865,-1.525 -2.6402,-2.3125 -1.0649,-1.0818 -1.9171,-2.1228 -2.8598,-3.3125 -0.86842,-1.096 -2.1786,-2.7929 -2.9754,-3.9419 -1.4533,-2.0957 -2.3675,-3.6613 -3.8371,-5.7456 -0.87241,-1.2373 -3.5563,-5.2962 -4.5026,-6.478 -1.0687,-1.3347 -2.9469,-3.4676 -4.1849,-4.647 -1.5499,-1.4765 -4.3272,-3.3459 -4.3272,-3.3459"
             fill="none"
             id="path12250" />
        </g>
        <g
           transform="matrix(-1,0,0,1,152.36,-5.7952e-5)"
           stroke-width="1px"
           id="g12262">
          <path
             d="m 69.738,803.02 c -1.0726,-1.3228 -1.7304,-2.934 -2.5633,-4.4194 -1.1799,-2.1043 -2.2493,-4.2698 -3.4471,-6.364 -1.0763,-1.8816 -2.2067,-3.7323 -3.3588,-5.5685 -0.85993,-1.3706 -1.6859,-2.7676 -2.6517,-4.0659 -1.0357,-1.3923 -2.1782,-2.7056 -3.3588,-3.9775 -1.4599,-1.5728 -2.9665,-3.1117 -4.5962,-4.5078 -1.7587,-1.5066 -3.5846,-2.9596 -5.5685,-4.1543 -1.6483,-0.99261 -3.438,-1.7368 -5.2149,-2.4749 -1.532,-0.63628 -3.0558,-1.3651 -4.6846,-1.6794 -1.5632,-0.30165 -3.1895,-0.34202 -4.773,-0.17678 -2.1748,0.22695 -6.364,1.591 -6.364,1.591 0,0 3.9871,0.64364 5.8336,1.4142 1.5016,0.62664 2.8974,1.5299 4.1543,2.5633 1.2722,1.046 2.3389,2.3306 3.3588,3.6239 1.7102,2.1688 3.1463,4.5435 4.5962,6.8943 1.0321,1.6734 1.9487,3.4153 2.9168,5.1265 1.0653,1.883 2.0586,3.8079 3.182,5.6568 1.0056,1.6552 2.0062,3.3224 3.182,4.8614 1.0517,1.3765 2.1835,2.7041 3.4471,3.8891 0.73511,0.68938 1.8425,1.6973 2.6516,2.2981 1.3915,1.0331 2.4453,1.7534 3.9775,2.5633 1.1951,0.63171 2.5056,1.0271 3.8007,1.4142 1.0135,0.30295 2.0492,0.53953 3.0936,0.70711 0.93498,0.15002 1.8816,0.25378 2.8284,0.26516 0.66307,0.008 1.9846,-0.13802 1.9846,-0.13802 l 1.0147,-2.2391 c 0,0 -2.4684,-1.9032 -3.4412,-3.103 z"
             fill="#e9c13a"
             fill-rule="evenodd"
             id="path12254" />
          <path
             d="m 72.847,806.81 c 0,0 -2.1575,-1.0374 -3.0972,-1.7646 -0.8272,-0.64025 -1.8722,-1.7057 -2.5852,-2.471 -1.0662,-1.1443 -1.7683,-2.0435 -2.7273,-3.279 -1.123,-1.447 -2.0632,-3.0274 -3.0625,-4.5625 -1.3843,-2.1265 -2.6415,-4.3353 -4.0625,-6.4375 -1.4539,-2.151 -2.9733,-4.2595 -4.5625,-6.3125 -1.0597,-1.3689 -2.1207,-2.7444 -3.3125,-4 -0.97446,-1.0266 -2.0279,-1.9807 -3.125,-2.875 -1.4924,-1.2165 -3.0399,-2.3788 -4.6875,-3.375 -1.2358,-0.74722 -2.7973,-1.6194 -4.125,-2.1875 -1.3026,-0.55737 -1.9625,-0.81995 -3.3125,-1.25 -1.257,-0.40044 -2.9487,-0.78324 -4.25,-1 -1.8939,-0.31547 -5.7503,-0.33568 -5.7503,-0.33568"
             fill="none"
             id="path12256" />
          <path
             d="m 72.165,808.36 c 0,0 -2.8337,-1.5334 -4.1649,-2.436 -1.0934,-0.74138 -1.1626,-0.86431 -2.1969,-1.6862 -0.88137,-0.70039 -2.5099,-2.1953 -3.2879,-3.0089 -0.75163,-0.78599 -1.5796,-1.6011 -2.2027,-2.4924 -0.88718,-1.2692 -1.6961,-2.3072 -2.5594,-3.5928 -0.92775,-1.3816 -1.8787,-3.0318 -2.8156,-4.4072 -1.0215,-1.4996 -1.9782,-3.0452 -3.0625,-4.5 -1.1238,-1.5079 -1.9088,-2.6834 -3.1875,-4.0625 -1.1322,-1.2211 -2.8541,-3.2447 -4.0839,-4.3674 -1.3519,-1.2342 -2.8418,-2.2644 -4.2911,-3.3826 -0.85548,-0.66006 -1.4778,-0.941 -2.4375,-1.4375 -1.4969,-0.77444 -4.7294,-1.7883 -4.7294,-1.7883"
             fill="none"
             id="path12258" />
          <path
             d="m 72.165,808.36 c 0,0 -3.2912,-0.50968 -4.8524,-1.061 -1.0542,-0.37228 -2.0377,-0.93082 -3,-1.5 -1.1987,-0.70902 -2.3619,-1.4903 -3.4375,-2.375 -0.85336,-0.70192 -1.865,-1.525 -2.6402,-2.3125 -1.0649,-1.0818 -1.9171,-2.1228 -2.8598,-3.3125 -0.86842,-1.096 -2.1786,-2.7929 -2.9754,-3.9419 -1.4533,-2.0957 -2.3675,-3.6613 -3.8371,-5.7456 -0.87241,-1.2373 -3.5563,-5.2962 -4.5026,-6.478 -1.0687,-1.3347 -2.9469,-3.4676 -4.1849,-4.647 -1.5499,-1.4765 -4.3272,-3.3459 -4.3272,-3.3459"
             fill="none"
             id="path12260" />
        </g>
        <path
           d="m 63.738,782.4 c -0.62003,-0.006 -1.1211,0.0254 -1.1211,0.0254 0,0 1.7627,1.6177 2.3594,2.6523 0.61619,1.0685 0.74356,2.3741 1.1816,3.5352 0.68958,1.8276 1.3253,3.6983 2.2754,5.3926 1.017,1.8134 2.2933,3.4636 3.625,5.0371 1.265,1.4947 4.123,4.1543 4.123,4.1543 0,0 2.8561,-2.6596 4.1211,-4.1543 1.3317,-1.5735 2.608,-3.2237 3.625,-5.0371 0.95012,-1.6943 1.5878,-3.565 2.2773,-5.3926 0.43808,-1.1611 0.5635,-2.4667 1.1797,-3.5352 0.59666,-1.0346 2.3613,-2.6523 2.3613,-2.6523 0,0 -2.01,-0.12742 -2.9512,0.17773 -1.9753,0.64041 -3.7479,1.94 -5.3105,3.3594 -0.90562,0.82257 -1.6696,1.8334 -2.2773,2.916 -1.3856,2.4682 -2.5118,5.1715 -3.0254,7.9844 -4.33e-4,0.002 -0.0015,0.005 -0.002,0.008 -4.18e-4,-0.002 4.19e-4,-0.006 0,-0.008 -0.51357,-2.8129 -1.6398,-5.5162 -3.0254,-7.9844 -0.60776,-1.0826 -1.3698,-2.0934 -2.2754,-2.916 -1.5627,-1.4194 -3.3372,-2.719 -5.3125,-3.3594 -0.4706,-0.15257 -1.2081,-0.19707 -1.8281,-0.20312 z"
           fill="#1780ce"
           fill-rule="evenodd"
           stroke-linejoin="round"
           stroke-width="1px"
           id="path12264" />
        <path
           d="m 76.181,766.87 -5.13e-4,7.7425"
           fill="none"
           stroke-linecap="round"
           stroke-linejoin="round"
           stroke-width="1px"
           id="path12266" />
        <path
           d="m 76.182,796.86 v 6.334"
           fill="none"
           stroke-width="1px"
           id="path12268" />
        <path
           d="m 76.182,803.2 c 0,0 -2.1044,-5.6061 -3.4377,-8.281 -1.2272,-2.4619 -4.1814,-7.1147 -4.1814,-7.1147"
           fill="none"
           stroke-linecap="round"
           stroke-linejoin="round"
           stroke-width="1px"
           id="path12270" />
        <path
           d="m 76.182,803.2 c 0,0 2.1044,-5.6061 3.4377,-8.281 1.2272,-2.4619 4.1814,-7.1147 4.1814,-7.1147"
           fill="none"
           stroke-linecap="round"
           stroke-linejoin="round"
           stroke-width="1px"
           id="path12272" />
        <path
           d="m 76.181,783.42 5.37e-4,19.771"
           fill="none"
           stroke-linecap="round"
           stroke-linejoin="round"
           stroke-width="1px"
           id="path12274" />
        <g
           fill="none"
           stroke-width="0.64488"
           id="g12296">
          <path
             d="m 40.152,923.31 -6.6341,6.7192"
             id="path12276" />
          <path
             d="m 41.746,924.57 -9.3119,9.4307"
             id="path12278" />
          <path
             d="M 43.34,925.83 32.07,937.244"
             id="path12280" />
          <path
             d="M 44.934,927.09 32.598,939.585"
             id="path12282" />
          <path
             d="m 46.324,928.55 -12.7,12.863"
             id="path12284" />
          <path
             d="M 48.121,929.61 35.057,942.842"
             id="path12286" />
          <path
             d="M 49.715,930.87 36.896,943.853"
             id="path12288" />
          <path
             d="M 51.309,932.13 39.242,944.352"
             id="path12290" />
          <path
             d="M 52.903,933.38 42.507,943.91"
             id="path12292" />
          <path
             d="m 54.497,934.64 -6.6341,6.7192"
             id="path12294" />
        </g>
        <path
           d="m 51.619,845 v 4.9492 h 49.125 V 845 H 76.182 Z"
           fill="#e9c13a"
           fill-rule="evenodd"
           stroke-width="1px"
           id="path12298" />
        <path
           d="m 51.619,861.8 v 4.4199 h 49.125 V 861.8 H 76.182 Z"
           fill="#e9c13a"
           fill-rule="evenodd"
           stroke-width="1px"
           id="path12300" />
        <path
           d="m 68.413,849.95 v 11.844 H 55.685 V 849.95 Z"
           fill="#e9c13a"
           fill-rule="evenodd"
           stroke-width="1px"
           id="path12302" />
        <path
           d="m 59.927,849.95 v 11.844"
           fill="none"
           stroke-width="1px"
           id="path12304" />
        <path
           d="m 63.816,849.95 v 11.844"
           fill="none"
           stroke-width="1px"
           id="path12306" />
        <path
           d="m 83.95,849.95 v 11.844 H 96.678 V 849.95 Z"
           fill="#e9c13a"
           fill-rule="evenodd"
           stroke-width="1px"
           id="path12308" />
        <path
           d="m 92.435,849.95 v 11.844"
           fill="none"
           stroke-width="1px"
           id="path12310" />
        <path
           d="m 88.546,849.95 v 11.844"
           fill="none"
           stroke-width="1px"
           id="path12312" />
        <path
           d="m 81.261,883.33 c -0.74415,-0.28954 -1.4546,-0.67487 -2.1174,-1.1202 -0.64078,-0.4305 -1.2835,-0.89172 -1.7764,-1.4858 -0.51647,-0.6225 -1.1865,-2.1156 -1.1865,-2.1156 0,0 -0.67006,1.493 -1.1865,2.1156 -0.49291,0.5941 -1.1356,1.0553 -1.7764,1.4858 -0.6628,0.44529 -1.3733,0.83062 -2.1174,1.1202 -0.86309,0.33581 -2.6881,0.70342 -2.6881,0.70342 0,0 0.42981,-1.8123 0.7955,-2.6632 0.31529,-0.73361 0.72513,-1.4302 1.1932,-2.0771 0.45256,-0.62539 0.93588,-1.2517 1.5468,-1.7236 0.83947,-0.64848 2.8284,-1.4573 2.8284,-1.4573 0,0 -0.68238,-2.5198 -0.61872,-3.8018 0.05671,-1.1421 0.33328,-2.3124 0.88388,-3.3146 0.26999,-0.49142 1.1394,-1.5908 1.1394,-1.5908 0,0 0.86941,1.0994 1.1394,1.5908 0.5506,1.0022 0.82718,2.1725 0.88388,3.3146 0.06366,1.282 -0.61872,3.8018 -0.61872,3.8018 0,0 1.989,0.80879 2.8284,1.4573 0.61091,0.47191 1.0942,1.0982 1.5468,1.7236 0.46811,0.64688 0.87796,1.3435 1.1932,2.0771 0.36568,0.85087 0.7955,2.6632 0.7955,2.6632 0,0 -1.8251,-0.36761 -2.6881,-0.70342 z"
           fill="none"
           stroke-linejoin="round"
           stroke-width="1px"
           id="path12314" />
        <path
           d="M 54.912,1023.7 H 97.45"
           fill="none"
           stroke-width="1px"
           id="path12316" />
        <path
           d="m 44.187,870.98 -9.7618,10.51"
           fill="none"
           stroke-width="0.64488"
           id="path12318" />
        <path
           d="m 45.55,872.1 -9.7618,10.51"
           fill="none"
           stroke-width="0.64488"
           id="path12320" />
        <path
           d="m 46.913,873.23 -9.7618,10.51"
           fill="none"
           stroke-width="0.64488"
           id="path12322" />
        <path
           d="m 48.276,874.35 -9.7618,10.51"
           fill="none"
           stroke-width="0.64488"
           id="path12324" />
        <path
           d="m 49.64,875.48 -9.7618,10.51"
           fill="none"
           stroke-width="0.64488"
           id="path12326" />
        <path
           d="m 51.003,876.6 -9.7618,10.51"
           fill="none"
           stroke-width="0.64488"
           id="path12328" />
        <path
           d="m 52.366,877.73 -9.7618,10.51"
           fill="none"
           stroke-width="0.64488"
           id="path12330" />
        <path
           d="m 53.729,878.85 -9.7618,10.51"
           fill="none"
           stroke-width="0.64488"
           id="path12332" />
        <path
           d="m 55.092,879.98 -9.7618,10.51"
           fill="none"
           stroke-width="0.64488"
           id="path12334" />
        <path
           d="m 56.455,881.1 -9.7618,10.51"
           fill="none"
           stroke-width="0.64488"
           id="path12336" />
        <path
           d="m 57.818,882.23 -9.7618,10.51"
           fill="none"
           stroke-width="0.64488"
           id="path12338" />
        <path
           d="m 60.611,884.53 -9.7618,10.51"
           fill="none"
           stroke-width="0.64488"
           id="path12340" />
        <path
           d="m 59.181,883.35 -9.7618,10.51"
           fill="none"
           stroke-width="0.64488"
           id="path12342" />
        <path
           d="m 62.04,885.71 -9.7618,10.51"
           fill="none"
           stroke-width="0.64488"
           id="path12344" />
        <g
           transform="matrix(-1,0,0,1,152.36,-1.4694e-6)"
           fill="none"
           stroke-width="0.64488"
           id="g12376">
          <path
             d="m 44.187,870.98 -9.7618,10.51"
             id="path12346" />
          <path
             d="m 45.55,872.1 -9.7618,10.51"
             id="path12348" />
          <path
             d="m 46.913,873.23 -9.7618,10.51"
             id="path12350" />
          <path
             d="m 48.276,874.35 -9.7618,10.51"
             id="path12352" />
          <path
             d="m 49.64,875.48 -9.7618,10.51"
             id="path12354" />
          <path
             d="m 51.003,876.6 -9.7618,10.51"
             id="path12356" />
          <path
             d="m 52.366,877.73 -9.7618,10.51"
             id="path12358" />
          <path
             d="m 53.729,878.85 -9.7618,10.51"
             id="path12360" />
          <path
             d="m 55.092,879.98 -9.7618,10.51"
             id="path12362" />
          <path
             d="m 56.455,881.1 -9.7618,10.51"
             id="path12364" />
          <path
             d="m 57.818,882.23 -9.7618,10.51"
             id="path12366" />
          <path
             d="m 60.611,884.53 -9.7618,10.51"
             id="path12368" />
          <path
             d="m 59.181,883.35 -9.7618,10.51"
             id="path12370" />
          <path
             d="m 62.04,885.71 -9.7618,10.51"
             id="path12372" />
          <path
             d="M 63.47,886.89 53.7082,897.4"
             id="path12374" />
        </g>
        <path
           d="M 63.47,886.89 53.7082,897.4"
           fill="none"
           stroke-width="0.64488"
           id="path12378" />
        <path
           d="M 91.066,885.1 H 61.295 l -2.4609,4.9805 h 34.695 z"
           fill="#dd1d1d"
           fill-rule="evenodd"
           stroke-width="1px"
           id="path12380" />
        <path
           d="m 36.459,871.61 -2.8008,3.0156 23.307,19.236 h 38.434 l 23.305,-19.236 -2.7988,-3.0156 -22.375,18.469 h -34.695 z"
           fill="#1780ce"
           fill-rule="evenodd"
           stroke-width="1px"
           id="path12382" />
        <path
           d="m 91.066,885.1 6.5181,13.189"
           fill="none"
           stroke-width="1px"
           id="path12384" />
        <path
           d="m 61.295,885.1 -6.5177,13.189"
           fill="none"
           stroke-width="1px"
           id="path12386" />
        <g
           fill="none"
           stroke-width="0.64488"
           id="g12408">
          <path
             d="m 40.052,819.86 -4.9633,3.898"
             id="path12388" />
          <path
             d="m 41.562,821.19 -7.0175,5.5118"
             id="path12390" />
          <path
             d="m 43.072,822.51 -8.3423,6.5527"
             id="path12392" />
          <path
             d="m 44.582,823.84 -9.2086,7.2333"
             id="path12394" />
          <path
             d="m 46.091,825.16 -9.712,7.629"
             id="path12396" />
          <path
             d="m 47.601,826.49 -9.8862,7.766"
             id="path12398" />
          <path
             d="m 49.111,827.81 -9.7264,7.6407"
             id="path12400" />
          <path
             d="m 50.621,829.14 -9.187,7.2171"
             id="path12402" />
          <path
             d="m 52.13,830.46 -8.1455,6.3987"
             id="path12404" />
          <path
             d="m 53.64,831.79 -6.2215,4.8874"
             id="path12406" />
        </g>
        <g
           transform="matrix(-1,0,0,1,152.36,-3.9679e-7)"
           fill="none"
           stroke-width="0.64488"
           id="g12430">
          <path
             d="m 40.052,819.86 -4.9633,3.898"
             id="path12410" />
          <path
             d="m 41.562,821.19 -7.0175,5.5118"
             id="path12412" />
          <path
             d="m 43.072,822.51 -8.3423,6.5527"
             id="path12414" />
          <path
             d="m 44.582,823.84 -9.2086,7.2333"
             id="path12416" />
          <path
             d="m 46.091,825.16 -9.712,7.629"
             id="path12418" />
          <path
             d="m 47.601,826.49 -9.8862,7.766"
             id="path12420" />
          <path
             d="m 49.111,827.81 -9.7264,7.6407"
             id="path12422" />
          <path
             d="m 50.621,829.14 -9.187,7.2171"
             id="path12424" />
          <path
             d="m 52.13,830.46 -8.1455,6.3987"
             id="path12426" />
          <path
             d="m 53.64,831.79 -6.2215,4.8874"
             id="path12428" />
        </g>
      </g>
    </g>
  </g>
</svg>
