<?xml version="1.0" encoding="UTF-8" standalone="no"?>
<svg
   width="42.999779mm"
   height="87.997711mm"
   enable-background="new"
   version="1.1"
   viewBox="0 0 152.36255 311.80195"
   id="svg20076"
   sodipodi:docname="Mazzo.svg"
   inkscape:version="1.2.1 (9c6d41e410, 2022-07-14)"
   xmlns:inkscape="http://www.inkscape.org/namespaces/inkscape"
   xmlns:sodipodi="http://sodipodi.sourceforge.net/DTD/sodipodi-0.dtd"
   xmlns="http://www.w3.org/2000/svg"
   xmlns:svg="http://www.w3.org/2000/svg"
   xmlns:rdf="http://www.w3.org/1999/02/22-rdf-syntax-ns#"
   xmlns:cc="http://creativecommons.org/ns#"
   xmlns:dc="http://purl.org/dc/elements/1.1/">
  <sodipodi:namedview
     id="namedview20078"
     pagecolor="#ffffff"
     bordercolor="#000000"
     borderopacity="0.25"
     inkscape:showpageshadow="2"
     inkscape:pageopacity="0.0"
     inkscape:pagecheckerboard="0"
     inkscape:deskcolor="#d1d1d1"
     inkscape:document-units="mm"
     showgrid="false"
     inkscape:zoom="2.8284271"
     inkscape:cx="196.57568"
     inkscape:cy="470.75634"
     inkscape:window-width="2560"
     inkscape:window-height="1409"
     inkscape:window-x="0"
     inkscape:window-y="31"
     inkscape:window-maximized="1"
     inkscape:current-layer="svg20076" />
  <title
     id="title2">Bresciane</title>
  <defs
     id="defs191" />
  <metadata
     id="metadata193">
    <rdf:RDF>
      <cc:Work
         rdf:about="">
        <dc:format>image/svg+xml</dc:format>
        <dc:type
           rdf:resource="http://purl.org/dc/dcmitype/StillImage" />
        <dc:title>Bresciane</dc:title>
        <dc:date>2020</dc:date>
        <dc:creator>
          <cc:Agent>
            <dc:title>ZZandro</dc:title>
          </cc:Agent>
        </dc:creator>
        <dc:rights>
          <cc:Agent>
            <dc:title />
          </cc:Agent>
        </dc:rights>
        <cc:license
           rdf:resource="http://creativecommons.org/licenses/by-sa/4.0/" />
      </cc:Work>
      <cc:License
         rdf:about="http://creativecommons.org/licenses/by-sa/4.0/">
        <cc:permits
           rdf:resource="http://creativecommons.org/ns#Reproduction" />
        <cc:permits
           rdf:resource="http://creativecommons.org/ns#Distribution" />
        <cc:requires
           rdf:resource="http://creativecommons.org/ns#Notice" />
        <cc:requires
           rdf:resource="http://creativecommons.org/ns#Attribution" />
        <cc:permits
           rdf:resource="http://creativecommons.org/ns#DerivativeWorks" />
        <cc:requires
           rdf:resource="http://creativecommons.org/ns#ShareAlike" />
      </cc:License>
    </rdf:RDF>
  </metadata>
  <g
     transform="translate(-641.32849,-1158.694)"
     id="g16482"
     style="display:inline">
    <g
       transform="matrix(0.97008,0,0,0.9964,-324.59,-588.81)"
       fill="#f4f2ef"
       id="g16248">
      <g
         transform="matrix(0.70046,0,0,1.0004,298.31,-0.79223)"
         fill="#f4f2ef"
         id="g16246">
        <rect
           x="996.13"
           y="1754.4"
           width="223.23"
           height="311.81"
           rx="10.63"
           ry="10.63"
           fill="#f4f2ef"
           stroke="#000000"
           stroke-width="0.99673"
           id="rect16244" />
      </g>
    </g>
    <g
       transform="translate(0,3.5445)"
       stroke="#000000"
       id="g16276">
      <path
         d="m 673.23,1311 h 14.173"
         fill="none"
         stroke-width="1px"
         id="path16250" />
      <path
         d="m 695.79,1307.4 -8.2201,3.6063 8.4411,3.9067 1.591,-3.9067 -1.5468,-3.4737"
         fill="#e9c13a"
         fill-rule="evenodd"
         stroke-width="1px"
         id="path16252" />
      <g
         id="g16258">
        <path
           d="m 657.99,1282.7 v 13.678 c 0,0 8.2665,0.4938 12.308,1.3405 1.8126,0.3798 3.5735,0.9992 5.3042,1.6666 1.7261,0.6658 3.3822,1.5101 5.0454,2.3254 2.2491,1.1023 4.3395,2.5522 6.6677,3.4682 2.7203,1.0705 8.4434,2.3352 8.4434,2.3352 l -2.8228,-7.0091 c 0,0 -3.0557,-1.0179 -4.424,-1.8524 -2.9292,-1.7863 -5.2263,-4.48 -7.9084,-6.6319 -1.7107,-1.3725 -3.3871,-2.8029 -5.2179,-4.0037 -1.6653,-1.0923 -3.3546,-2.2102 -5.2179,-2.894 -3.8908,-1.4277 -12.177,-2.4229 -12.177,-2.4229 z"
           fill="#e9c13a"
           fill-rule="evenodd"
           stroke-width="0.99032"
           id="path16254" />
        <path
           d="m 694.6,1303.9 c 0,0 -4.3822,-0.83 -6.4082,-1.7163 -2.027,-0.8868 -3.7411,-2.3633 -5.6127,-3.5433 -2.5254,-1.5923 -4.9185,-3.418 -7.5791,-4.7724 -1.7,-0.8654 -3.4728,-1.6261 -5.315,-2.1213 -4.0348,-1.0845 -12.402,-1.8165 -12.402,-1.8165"
           fill="none"
           stroke-width="1px"
           id="path16256" />
      </g>
      <g
         transform="matrix(1,0,0,-1,0.0010726,2622.2)"
         id="g16264">
        <path
           d="m 657.99,1282.7 v 13.678 c 0,0 8.2665,0.4938 12.308,1.3405 1.8126,0.3798 3.5735,0.9992 5.3042,1.6666 1.7261,0.6658 3.3822,1.5101 5.0454,2.3254 2.2491,1.1023 4.3395,2.5522 6.6677,3.4682 2.7203,1.0705 8.4434,2.3352 8.4434,2.3352 l -2.8228,-7.0091 c 0,0 -3.0557,-1.0179 -4.424,-1.8524 -2.9292,-1.7863 -5.2263,-4.48 -7.9084,-6.6319 -1.7107,-1.3725 -3.3871,-2.8029 -5.2179,-4.0037 -1.6653,-1.0923 -3.3546,-2.2102 -5.2179,-2.894 -3.8908,-1.4277 -12.177,-2.4229 -12.177,-2.4229 z"
           fill="#e9c13a"
           fill-rule="evenodd"
           stroke-width="0.99032"
           id="path16260" />
        <path
           d="m 694.6,1303.9 c 0,0 -4.3822,-0.83 -6.4082,-1.7163 -2.027,-0.8868 -3.7411,-2.3633 -5.6127,-3.5433 -2.5254,-1.5923 -4.9185,-3.418 -7.5791,-4.7724 -1.7,-0.8654 -3.4728,-1.6261 -5.315,-2.1213 -4.0348,-1.0845 -12.402,-1.8165 -12.402,-1.8165"
           fill="none"
           stroke-width="1px"
           id="path16262" />
      </g>
      <circle
         cx="667.90997"
         cy="1311"
         r="2.6575"
         fill="#dd1d1d"
         stroke-linecap="round"
         stroke-linejoin="round"
         stroke-width="0.99921"
         id="circle16266" />
      <circle
         cx="678.53998"
         cy="1311"
         r="2.6575"
         fill="#dd1d1d"
         stroke-linecap="round"
         stroke-linejoin="round"
         stroke-width="0.99921"
         id="circle16268" />
      <circle
         cx="673.22998"
         cy="1311"
         r="2.6575"
         stroke-linecap="round"
         stroke-linejoin="round"
         stroke-width="0.99921"
         id="circle16270" />
      <circle
         cx="673.22998"
         cy="1307.5"
         r="2.6575"
         fill="#dd1d1d"
         stroke-linecap="round"
         stroke-linejoin="round"
         stroke-width="0.99921"
         id="circle16272" />
      <circle
         cx="673.22998"
         cy="1314.6"
         r="2.6575"
         fill="#dd1d1d"
         stroke-linecap="round"
         stroke-linejoin="round"
         stroke-width="0.99921"
         id="circle16274" />
    </g>
    <g
       transform="matrix(0.76704,0,0,0.8945,-106.47,-394.15)"
       fill="none"
       id="g16282">
      <g
         transform="matrix(0.70046,0,0,1.0004,298.31,-0.79223)"
         fill="none"
         id="g16280">
        <rect
           x="996.13"
           y="1754.4"
           width="223.23"
           height="311.81"
           rx="10.63"
           ry="10.63"
           fill="none"
           stroke="#000000"
           stroke-width="0.99673"
           id="rect16278" />
      </g>
    </g>
    <g
       transform="matrix(-1,0,0,1,1435,3.4804)"
       stroke="#000000"
       id="g16310">
      <path
         d="m 673.23,1311 h 14.173"
         fill="none"
         stroke-width="1px"
         id="path16284" />
      <path
         d="m 695.79,1307.4 -8.2201,3.6063 8.4411,3.9067 1.591,-3.9067 -1.5468,-3.4737"
         fill="#e9c13a"
         fill-rule="evenodd"
         stroke-width="1px"
         id="path16286" />
      <g
         id="g16292">
        <path
           d="m 657.99,1282.7 v 13.678 c 0,0 8.2665,0.4938 12.308,1.3405 1.8126,0.3798 3.5735,0.9992 5.3042,1.6666 1.7261,0.6658 3.3822,1.5101 5.0454,2.3254 2.2491,1.1023 4.3395,2.5522 6.6677,3.4682 2.7203,1.0705 8.4434,2.3352 8.4434,2.3352 l -2.8228,-7.0091 c 0,0 -3.0557,-1.0179 -4.424,-1.8524 -2.9292,-1.7863 -5.2263,-4.48 -7.9084,-6.6319 -1.7107,-1.3725 -3.3871,-2.8029 -5.2179,-4.0037 -1.6653,-1.0923 -3.3546,-2.2102 -5.2179,-2.894 -3.8908,-1.4277 -12.177,-2.4229 -12.177,-2.4229 z"
           fill="#e9c13a"
           fill-rule="evenodd"
           stroke-width="0.99032"
           id="path16288" />
        <path
           d="m 694.6,1303.9 c 0,0 -4.3822,-0.83 -6.4082,-1.7163 -2.027,-0.8868 -3.7411,-2.3633 -5.6127,-3.5433 -2.5254,-1.5923 -4.9185,-3.418 -7.5791,-4.7724 -1.7,-0.8654 -3.4728,-1.6261 -5.315,-2.1213 -4.0348,-1.0845 -12.402,-1.8165 -12.402,-1.8165"
           fill="none"
           stroke-width="1px"
           id="path16290" />
      </g>
      <g
         transform="matrix(1,0,0,-1,0.0010726,2622.2)"
         id="g16298">
        <path
           d="m 657.99,1282.7 v 13.678 c 0,0 8.2665,0.4938 12.308,1.3405 1.8126,0.3798 3.5735,0.9992 5.3042,1.6666 1.7261,0.6658 3.3822,1.5101 5.0454,2.3254 2.2491,1.1023 4.3395,2.5522 6.6677,3.4682 2.7203,1.0705 8.4434,2.3352 8.4434,2.3352 l -2.8228,-7.0091 c 0,0 -3.0557,-1.0179 -4.424,-1.8524 -2.9292,-1.7863 -5.2263,-4.48 -7.9084,-6.6319 -1.7107,-1.3725 -3.3871,-2.8029 -5.2179,-4.0037 -1.6653,-1.0923 -3.3546,-2.2102 -5.2179,-2.894 -3.8908,-1.4277 -12.177,-2.4229 -12.177,-2.4229 z"
           fill="#e9c13a"
           fill-rule="evenodd"
           stroke-width="0.99032"
           id="path16294" />
        <path
           d="m 694.6,1303.9 c 0,0 -4.3822,-0.83 -6.4082,-1.7163 -2.027,-0.8868 -3.7411,-2.3633 -5.6127,-3.5433 -2.5254,-1.5923 -4.9185,-3.418 -7.5791,-4.7724 -1.7,-0.8654 -3.4728,-1.6261 -5.315,-2.1213 -4.0348,-1.0845 -12.402,-1.8165 -12.402,-1.8165"
           fill="none"
           stroke-width="1px"
           id="path16296" />
      </g>
      <circle
         cx="667.90997"
         cy="1311"
         r="2.6575"
         fill="#dd1d1d"
         stroke-linecap="round"
         stroke-linejoin="round"
         stroke-width="0.99921"
         id="circle16300" />
      <circle
         cx="678.53998"
         cy="1311"
         r="2.6575"
         fill="#dd1d1d"
         stroke-linecap="round"
         stroke-linejoin="round"
         stroke-width="0.99921"
         id="circle16302" />
      <circle
         cx="673.22998"
         cy="1311"
         r="2.6575"
         stroke-linecap="round"
         stroke-linejoin="round"
         stroke-width="0.99921"
         id="circle16304" />
      <circle
         cx="673.22998"
         cy="1307.5"
         r="2.6575"
         fill="#dd1d1d"
         stroke-linecap="round"
         stroke-linejoin="round"
         stroke-width="0.99921"
         id="circle16306" />
      <circle
         cx="673.22998"
         cy="1314.6"
         r="2.6575"
         fill="#dd1d1d"
         stroke-linecap="round"
         stroke-linejoin="round"
         stroke-width="0.99921"
         id="circle16308" />
    </g>
    <g
       transform="translate(0,1055.9)"
       id="g16340">
      <ellipse
         cx="717.52002"
         cy="143.5"
         rx="8.8583002"
         ry="19.488001"
         fill="#1780ce"
         stroke="#00000f"
         stroke-linejoin="round"
         stroke-opacity="0.94118"
         stroke-width="0.99921"
         id="ellipse16312" />
      <ellipse
         cx="717.52002"
         cy="373.82001"
         rx="8.8583002"
         ry="19.488001"
         fill="#1780ce"
         stroke="#00000f"
         stroke-linejoin="round"
         stroke-opacity="0.94118"
         stroke-width="0.99921"
         id="ellipse16314" />
      <rect
         x="712.89001"
         y="152.86"
         width="5.3379998"
         height="211.60001"
         rx="1.7724"
         ry="13.896"
         fill="#00000f"
         fill-opacity="0.94118"
         opacity="0.99"
         stroke="#000000"
         stroke-linejoin="round"
         stroke-width="0.99707"
         id="rect16316" />
      <rect
         x="717"
         y="152.86"
         width="5.3379998"
         height="211.60001"
         rx="1.7724"
         ry="13.896"
         fill="#e9c13a"
         opacity="0.99"
         stroke="#000000"
         stroke-linejoin="round"
         stroke-width="0.99707"
         id="rect16318" />
      <path
         d="m 710.43,153.63 -1.7716,-7.0866 c -0.058,-1.1771 0.2527,-3.0971 1.7716,-3.5433 0.4067,-0.05 0.4271,-0.2057 1.7717,0 1.0454,0.3306 1.3388,1.091 1.7716,1.7717 l 1.7717,8.8582 -1.7717,-8.8582 c -0.2428,-1.7424 0.027,-2.9192 1.7717,-3.5433 1.9968,-0.7928 2.6696,-0.2292 3.5433,0 2.1516,0.9845 1.6683,2.8702 1.7716,3.5433 l -1.7716,8.8582 1.7716,-8.8582 c 0.4657,-1.2178 1.1283,-1.4408 1.7717,-1.7717 0.8536,-0.1362 1.5612,-0.1384 1.7716,0 2.1424,1.1072 1.3529,2.354 1.7717,3.5433 l -1.7717,7.0866"
         fill="none"
         stroke="#000000"
         stroke-width="1px"
         id="path16320" />
      <path
         d="m 710.43,363.69 -1.7716,7.0866 c -0.058,1.1771 0.2527,3.0971 1.7716,3.5433 0.4067,0.05 0.4271,0.2056 1.7717,0 1.0454,-0.3307 1.3388,-1.091 1.7716,-1.7717 l 1.7717,-8.8582 -1.7717,8.8582 c -0.2428,1.7424 0.027,2.9192 1.7717,3.5433 1.9968,0.7927 2.6696,0.2291 3.5433,0 2.1516,-0.9846 1.6683,-2.8702 1.7716,-3.5433 l -1.7716,-8.8582 1.7716,8.8582 c 0.4657,1.2178 1.1283,1.4407 1.7717,1.7717 0.8536,0.1361 1.5612,0.1383 1.7716,0 2.1424,-1.1072 1.3529,-2.3541 1.7717,-3.5433 l -1.7717,-7.0866"
         fill="none"
         stroke="#000000"
         stroke-width="1px"
         id="path16322" />
      <ellipse
         cx="717.52002"
         cy="155.91"
         rx="9.7440996"
         ry="4.4291"
         fill="#e9c13a"
         opacity="0.99"
         stroke="#00000f"
         stroke-linejoin="round"
         stroke-opacity="0.94118"
         stroke-width="0.99921"
         id="ellipse16324" />
      <ellipse
         cx="717.52002"
         cy="155.91"
         rx="6.2007999"
         ry="0.88582999"
         fill="#e9c13a"
         opacity="0.99"
         stroke="#00000f"
         stroke-linejoin="round"
         stroke-opacity="0.94118"
         stroke-width="0.99921"
         id="ellipse16326" />
      <ellipse
         cx="717.52002"
         cy="361.42001"
         rx="9.7440996"
         ry="4.4291"
         fill="#e9c13a"
         opacity="0.99"
         stroke="#00000f"
         stroke-linejoin="round"
         stroke-opacity="0.94118"
         stroke-width="0.99921"
         id="ellipse16328" />
      <ellipse
         cx="717.52002"
         cy="361.42001"
         rx="6.2007999"
         ry="0.88582999"
         fill="#e9c13a"
         opacity="0.99"
         stroke="#00000f"
         stroke-linejoin="round"
         stroke-opacity="0.94118"
         stroke-width="0.99921"
         id="ellipse16330" />
      <path
         d="m 708.66,141.73 c 0.5872,-1.7739 0.026,-4.3431 1.7716,-5.315 4.7244,-1.3668 9.4488,-1.3952 14.173,0 1.2165,0.4415 1.21,3.482 1.7717,5.315 -6.205,-2.3958 -12.063,-2.0167 -17.716,0"
         fill="#dd1d1d"
         fill-rule="evenodd"
         stroke="#000000"
         stroke-linejoin="round"
         stroke-width="0.99921"
         id="path16332" />
      <path
         d="m 708.65,375.96 c 0.5872,1.7739 0.026,4.3431 1.7716,5.315 4.7244,1.3668 9.4488,1.3952 14.173,0 1.2165,-0.4415 1.21,-3.482 1.7717,-5.315 -6.205,2.3958 -12.063,2.0167 -17.716,0"
         fill="#dd1d1d"
         fill-rule="evenodd"
         stroke="#000000"
         stroke-linejoin="round"
         stroke-width="0.99921"
         id="path16334" />
      <circle
         cx="717.52002"
         cy="122.24"
         r="1.7717"
         fill="#00000f"
         fill-opacity="0.94118"
         stroke="#00000f"
         stroke-linejoin="round"
         stroke-opacity="0.94118"
         stroke-width="0.99921"
         id="circle16336" />
      <circle
         cx="717.52002"
         cy="395.07999"
         r="1.7717"
         fill="#00000f"
         fill-opacity="0.94118"
         stroke="#00000f"
         stroke-linejoin="round"
         stroke-opacity="0.94118"
         stroke-width="0.99921"
         id="circle16338" />
    </g>
    <g
       transform="translate(-1686.6,1046.4)"
       id="g16468">
      <ellipse
         transform="rotate(23)"
         cx="2331.7"
         cy="-581.62"
         rx="8.8583002"
         ry="19.488001"
         fill="#dd1d1d"
         stroke="#00000f"
         stroke-linejoin="round"
         stroke-opacity="0.94118"
         stroke-width="0.99921"
         id="ellipse16342" />
      <path
         d="m 2411.3,291.59 -5.5379,13.046"
         fill="none"
         stroke="#1780ce"
         stroke-width="6.0236"
         id="path16344" />
      <path
         d="m 2405.7,304.63 -26.305,61.971"
         fill="#1780ce"
         fill-rule="evenodd"
         stroke="#1780ce"
         stroke-width="6.0236"
         id="path16346" />
      <path
         d="m 2408.7,305.88 -26.305,61.971"
         fill="none"
         stroke="#000000"
         stroke-width="1px"
         id="path16348" />
      <path
         d="m 2407.7,290.06 -5.5379,13.046"
         fill="none"
         stroke="#000000"
         stroke-width="5.315"
         id="path16350" />
      <path
         d="m 2402.1,303.11 -26.305,61.971"
         fill="none"
         stroke="#000000"
         stroke-width="5.315"
         id="path16352" />
      <path
         d="m 2414.2,292.83 -5.538,13.046"
         fill="none"
         stroke="#000000"
         stroke-width="0.99921"
         id="path16354" />
      <ellipse
         transform="rotate(-23)"
         cx="2094.3"
         cy="1112.9"
         rx="8.8583002"
         ry="19.488001"
         fill="#1780ce"
         stroke="#00000f"
         stroke-linejoin="round"
         stroke-opacity="0.94118"
         stroke-width="0.99921"
         id="ellipse16356" />
      <ellipse
         transform="rotate(-23)"
         cx="2094.3"
         cy="1297.1"
         rx="8.8583002"
         ry="19.488001"
         fill="#dd1d1d"
         stroke="#00000f"
         stroke-linejoin="round"
         stroke-opacity="0.94118"
         stroke-width="0.99921"
         id="ellipse16358" />
      <rect
         transform="rotate(-23)"
         x="2089.6001"
         y="1122.2"
         width="5.4000001"
         height="165.64999"
         rx="1.793"
         ry="10.878"
         fill="#00000f"
         fill-opacity="0.94118"
         opacity="0.99"
         stroke="#000000"
         stroke-linejoin="round"
         stroke-width="0.8873"
         id="rect16360" />
      <rect
         transform="rotate(-23)"
         x="2093.8"
         y="1122.2"
         width="5.4000001"
         height="165.64999"
         rx="1.793"
         ry="10.878"
         fill="#dd1d1d"
         opacity="0.99"
         stroke="#000000"
         stroke-linejoin="round"
         stroke-width="0.8873"
         id="rect16362" />
      <path
         d="m 2360.1,218.19 -4.3998,-5.831 c -0.5133,-1.0609 -0.9775,-2.9496 0.2463,-3.9538 0.3549,-0.20494 0.3128,-0.35623 1.6309,-0.69226 1.0915,-0.10415 1.6586,0.48116 2.323,0.93864 l 5.092,7.4618 -5.092,-7.4618 c -0.9043,-1.509 -1.1158,-2.6977 0.2464,-3.9539 1.5283,-1.51 2.3678,-1.2541 3.2616,-1.3845 2.3653,0.0655 2.6572,1.9902 3.0153,2.5694 l 1.8304,8.8462 -1.8304,-8.8462 c -0.047,-1.303 0.4756,-1.7671 0.9386,-2.3231 0.7325,-0.4589 1.383,-0.73741 1.6307,-0.69222 2.4047,0.18208 2.1652,1.6382 3.0154,2.5694 l 1.1381,7.2155"
         fill="none"
         stroke="#000000"
         stroke-width="1px"
         id="path16364" />
      <path
         d="m 2424.1,369.15 1.1381,7.2155 c 0.4066,1.1062 1.4428,2.7522 3.0153,2.5694 0.3939,-0.11288 0.4735,0.0224 1.6308,-0.69226 0.8331,-0.71288 0.8061,-1.5274 0.9386,-2.3231 l -1.8304,-8.8463 1.8304,8.8463 c 0.4573,1.6988 1.1654,2.6766 3.0153,2.5694 2.1478,-0.0505 2.5469,-0.8322 3.2616,-1.3845 1.5959,-1.747 0.4142,-3.2939 0.2463,-3.9538 l -5.0919,-7.4618 5.0919,7.4618 c 0.9045,0.93903 1.6015,0.88531 2.3231,0.9386 0.8389,-0.20825 1.4912,-0.4827 1.6308,-0.69222 1.5395,-1.8563 0.3255,-2.6956 0.2464,-3.9539 l -4.3998,-5.831"
         fill="none"
         stroke="#000000"
         stroke-width="1px"
         id="path16366" />
      <ellipse
         transform="rotate(-23)"
         cx="2094.3"
         cy="1125.3"
         rx="9.7440996"
         ry="4.4291"
         fill="#e9c13a"
         opacity="0.99"
         stroke="#00000f"
         stroke-linejoin="round"
         stroke-opacity="0.94118"
         stroke-width="0.99921"
         id="ellipse16368" />
      <ellipse
         transform="rotate(-23)"
         cx="2094.3"
         cy="1125.3"
         rx="6.2007999"
         ry="0.88582999"
         fill="#e9c13a"
         opacity="0.99"
         stroke="#00000f"
         stroke-linejoin="round"
         stroke-opacity="0.94118"
         stroke-width="0.99921"
         id="ellipse16370" />
      <ellipse
         transform="rotate(-23)"
         cx="2094.3"
         cy="1284.7"
         rx="9.7440996"
         ry="4.4291"
         fill="#e9c13a"
         opacity="0.99"
         stroke="#00000f"
         stroke-linejoin="round"
         stroke-opacity="0.94118"
         stroke-width="0.99921"
         id="ellipse16372" />
      <ellipse
         transform="rotate(-23)"
         cx="2094.3"
         cy="1284.7"
         rx="6.2007999"
         ry="0.88582999"
         fill="#e9c13a"
         opacity="0.99"
         stroke="#00000f"
         stroke-linejoin="round"
         stroke-opacity="0.94118"
         stroke-width="0.99921"
         id="ellipse16374" />
      <path
         d="m 2353.8,207.92 c -0.1526,-1.8623 -1.673,-4.008 -0.446,-5.5847 3.8148,-3.1041 8.1526,-4.9762 13.046,-5.5379 1.2923,-0.0689 2.4744,2.7324 3.7076,4.2002 -6.6478,0.21914 -11.892,2.857 -16.308,6.9224"
         fill="#e9c13a"
         fill-rule="evenodd"
         stroke="#000000"
         stroke-linejoin="round"
         stroke-width="0.99921"
         id="path16376" />
      <path
         d="m 2427.3,381.13 c 1.2336,1.4034 1.7209,3.9877 3.7075,4.2003 4.8829,-0.58782 9.2428,-2.4076 13.046,-5.5379 0.9473,-0.88172 -0.2467,-3.678 -0.4459,-5.5847 -4.7756,4.6298 -10.316,6.5698 -16.308,6.9224"
         fill="#287028"
         fill-rule="evenodd"
         stroke="#000000"
         stroke-linejoin="round"
         stroke-width="0.99921"
         id="path16378" />
      <circle
         transform="rotate(-23)"
         cx="2094.3"
         cy="1091.6"
         r="1.7717"
         fill="#00000f"
         fill-opacity="0.94118"
         stroke="#00000f"
         stroke-linejoin="round"
         stroke-opacity="0.94118"
         stroke-width="0.99921"
         id="circle16380" />
      <circle
         transform="rotate(-23)"
         cx="2094.3"
         cy="1318.4"
         r="1.7717"
         fill="#00000f"
         fill-opacity="0.94118"
         stroke="#00000f"
         stroke-linejoin="round"
         stroke-opacity="0.94118"
         stroke-width="0.99921"
         id="circle16382" />
      <ellipse
         transform="rotate(23)"
         cx="2304"
         cy="-804.12"
         rx="8.8583002"
         ry="19.488001"
         fill="#dd1d1d"
         stroke="#00000f"
         stroke-linejoin="round"
         stroke-opacity="0.94118"
         stroke-width="0.99921"
         id="ellipse16384" />
      <ellipse
         transform="rotate(23)"
         cx="2304"
         cy="-619.87"
         rx="8.8583002"
         ry="19.488001"
         fill="#1780ce"
         stroke="#00000f"
         stroke-linejoin="round"
         stroke-opacity="0.94118"
         stroke-width="0.99921"
         id="ellipse16386" />
      <rect
         transform="rotate(23)"
         x="2299.3"
         y="-794.82001"
         width="5.4000001"
         height="165.64999"
         rx="1.793"
         ry="10.878"
         fill="#00000f"
         fill-opacity="0.94118"
         opacity="0.99"
         stroke="#000000"
         stroke-linejoin="round"
         stroke-width="0.8873"
         id="rect16388" />
      <rect
         transform="rotate(23)"
         x="2303.3999"
         y="-794.82001"
         width="5.4000001"
         height="165.64999"
         rx="1.793"
         ry="10.878"
         fill="#1780ce"
         opacity="0.99"
         stroke="#000000"
         stroke-linejoin="round"
         stroke-width="0.8873"
         id="rect16390" />
      <path
         d="m 2424.5,166.58 1.1382,-7.2155 c 0.4066,-1.1062 1.4428,-2.7522 3.0153,-2.5694 0.3939,0.11288 0.4735,-0.0225 1.6308,0.69225 0.8331,0.71279 0.8061,1.5274 0.9385,2.3231 l -1.8303,8.8463 1.8303,-8.8463 c 0.4573,-1.6988 1.1655,-2.6766 3.0154,-2.5694 2.1478,0.0504 2.5469,0.83212 3.2616,1.3845 1.5959,1.7469 0.4142,3.2939 0.2463,3.9538 l -5.092,7.4618 5.092,-7.4618 c 0.9045,-0.93903 1.6015,-0.8854 2.3231,-0.9386 0.8389,0.20815 1.4912,0.48261 1.6308,0.69222 1.5394,1.8563 0.3255,2.6955 0.2463,3.9539 l -4.3998,5.831"
         fill="none"
         stroke="#000000"
         stroke-width="1px"
         id="path16392" />
      <path
         d="m 2360.4,317.54 -4.3997,5.831 c -0.5133,1.0609 -0.9775,2.9496 0.2463,3.9538 0.3548,0.20493 0.3128,0.35613 1.6308,0.69225 1.0915,0.10406 1.6587,-0.48116 2.3231,-0.93863 l 5.092,-7.4618 -5.092,7.4618 c -0.9043,1.509 -1.1158,2.6977 0.2463,3.9539 1.5284,1.5099 2.3679,1.254 3.2617,1.3845 2.3652,-0.0656 2.6571,-1.9902 3.0152,-2.5694 l 1.8304,-8.8462 -1.8304,8.8462 c -0.047,1.303 0.4757,1.767 0.9386,2.3231 0.7326,0.45881 1.3831,0.73731 1.6308,0.69222 2.4047,-0.18208 2.1652,-1.6383 3.0153,-2.5694 l 1.1381,-7.2155"
         fill="none"
         stroke="#000000"
         stroke-width="1px"
         id="path16394" />
      <ellipse
         transform="rotate(23)"
         cx="2304"
         cy="-791.71997"
         rx="9.7440996"
         ry="4.4291"
         fill="#e9c13a"
         opacity="0.99"
         stroke="#00000f"
         stroke-linejoin="round"
         stroke-opacity="0.94118"
         stroke-width="0.99921"
         id="ellipse16396" />
      <ellipse
         transform="rotate(23)"
         cx="2304"
         cy="-791.71997"
         rx="6.2007999"
         ry="0.88582999"
         fill="#e9c13a"
         opacity="0.99"
         stroke="#00000f"
         stroke-linejoin="round"
         stroke-opacity="0.94118"
         stroke-width="0.99921"
         id="ellipse16398" />
      <ellipse
         transform="rotate(23)"
         cx="2304"
         cy="-632.27002"
         rx="9.7440996"
         ry="4.4291"
         fill="#e9c13a"
         opacity="0.99"
         stroke="#00000f"
         stroke-linejoin="round"
         stroke-opacity="0.94118"
         stroke-width="0.99921"
         id="ellipse16400" />
      <ellipse
         transform="rotate(23)"
         cx="2304"
         cy="-632.27002"
         rx="6.2007999"
         ry="0.88582999"
         fill="#e9c13a"
         opacity="0.99"
         stroke="#00000f"
         stroke-linejoin="round"
         stroke-opacity="0.94118"
         stroke-width="0.99921"
         id="ellipse16402" />
      <path
         d="m 2427.5,154.94 c 1.2336,-1.4034 1.7209,-3.9877 3.7075,-4.2003 4.8829,0.58782 9.2428,2.4076 13.046,5.5379 0.9473,0.88173 -0.2467,3.678 -0.4459,5.5847 -4.7756,-4.6298 -10.316,-6.5698 -16.308,-6.9224"
         fill="#287028"
         fill-rule="evenodd"
         stroke="#000000"
         stroke-linejoin="round"
         stroke-width="0.99921"
         id="path16404" />
      <path
         d="m 2354,328.14 c -0.1526,1.8623 -1.673,4.008 -0.446,5.5847 3.8148,3.1041 8.1526,4.9762 13.046,5.5379 1.2923,0.0689 2.4744,-2.7324 3.7076,-4.2002 -6.6478,-0.21914 -11.892,-2.857 -16.308,-6.9224"
         fill="#f4f2ef"
         fill-rule="evenodd"
         stroke="#000000"
         stroke-linejoin="round"
         stroke-width="0.99921"
         id="path16406" />
      <circle
         transform="rotate(23)"
         cx="2304"
         cy="-825.38"
         r="1.7717"
         fill="#00000f"
         fill-opacity="0.94118"
         stroke="#00000f"
         stroke-linejoin="round"
         stroke-opacity="0.94118"
         stroke-width="0.99921"
         id="circle16408" />
      <circle
         transform="rotate(23)"
         cx="2304"
         cy="-598.60999"
         r="1.7717"
         fill="#00000f"
         fill-opacity="0.94118"
         stroke="#00000f"
         stroke-linejoin="round"
         stroke-opacity="0.94118"
         stroke-width="0.99921"
         id="circle16410" />
      <ellipse
         transform="rotate(-23)"
         cx="2122.1001"
         cy="1074.6"
         rx="8.8583002"
         ry="19.488001"
         fill="#dd1d1d"
         stroke="#00000f"
         stroke-linejoin="round"
         stroke-opacity="0.94118"
         stroke-width="0.99921"
         id="ellipse16412" />
      <ellipse
         transform="rotate(-23)"
         cx="2122.1001"
         cy="1258.9"
         rx="8.8583002"
         ry="19.488001"
         fill="#1780ce"
         stroke="#00000f"
         stroke-linejoin="round"
         stroke-opacity="0.94118"
         stroke-width="0.99921"
         id="ellipse16414" />
      <rect
         transform="rotate(-23)"
         x="2117.3999"
         y="1083.9"
         width="5.4000001"
         height="165.64999"
         rx="1.793"
         ry="10.878"
         fill="#00000f"
         fill-opacity="0.94118"
         opacity="0.99"
         stroke="#000000"
         stroke-linejoin="round"
         stroke-width="0.8873"
         id="rect16416" />
      <rect
         transform="rotate(-23)"
         x="2121.5"
         y="1083.9"
         width="5.4000001"
         height="165.64999"
         rx="1.793"
         ry="10.878"
         fill="#dd1d1d"
         opacity="0.99"
         stroke="#000000"
         stroke-linejoin="round"
         stroke-width="0.8873"
         id="rect16418" />
      <path
         d="m 2370.7,172.12 -4.3997,-5.831 c -0.5133,-1.0609 -0.9775,-2.9496 0.2463,-3.9538 0.3548,-0.20493 0.3127,-0.35623 1.6308,-0.69225 1.0915,-0.10416 1.6587,0.48116 2.3231,0.93863 l 5.092,7.4618 -5.092,-7.4618 c -0.9044,-1.509 -1.1158,-2.6977 0.2463,-3.9539 1.5283,-1.51 2.3679,-1.2541 3.2617,-1.3845 2.3652,0.0655 2.6571,1.9902 3.0152,2.5694 l 1.8304,8.8462 -1.8304,-8.8462 c -0.047,-1.303 0.4756,-1.7671 0.9386,-2.3231 0.7325,-0.4589 1.383,-0.7374 1.6308,-0.69222 2.4047,0.18208 2.1651,1.6382 3.0153,2.5694 l 1.1381,7.2155"
         fill="none"
         stroke="#000000"
         stroke-width="1px"
         id="path16420" />
      <path
         d="m 2434.8,323.08 1.1382,7.2155 c 0.4065,1.1062 1.4427,2.7522 3.0152,2.5694 0.3939,-0.11289 0.4735,0.0224 1.6309,-0.69226 0.8331,-0.71288 0.8061,-1.5274 0.9385,-2.3231 l -1.8303,-8.8463 1.8303,8.8463 c 0.4573,1.6988 1.1655,2.6766 3.0153,2.5694 2.1478,-0.0505 2.5469,-0.83221 3.2617,-1.3845 1.5958,-1.747 0.4142,-3.2939 0.2462,-3.9538 l -5.0919,-7.4618 5.0919,7.4618 c 0.9046,0.93903 1.6016,0.88531 2.3232,0.9386 0.8389,-0.20824 1.4911,-0.4827 1.6307,-0.69222 1.5395,-1.8563 0.3256,-2.6956 0.2464,-3.9539 l -4.3998,-5.831"
         fill="none"
         stroke="#000000"
         stroke-width="1px"
         id="path16422" />
      <ellipse
         transform="rotate(-23)"
         cx="2122.1001"
         cy="1087"
         rx="9.7440996"
         ry="4.4291"
         fill="#e9c13a"
         opacity="0.99"
         stroke="#00000f"
         stroke-linejoin="round"
         stroke-opacity="0.94118"
         stroke-width="0.99921"
         id="ellipse16424" />
      <ellipse
         transform="rotate(-23)"
         cx="2122.1001"
         cy="1087"
         rx="6.2007999"
         ry="0.88582999"
         fill="#e9c13a"
         opacity="0.99"
         stroke="#00000f"
         stroke-linejoin="round"
         stroke-opacity="0.94118"
         stroke-width="0.99921"
         id="ellipse16426" />
      <ellipse
         transform="rotate(-23)"
         cx="2122.1001"
         cy="1246.5"
         rx="9.7440996"
         ry="4.4291"
         fill="#e9c13a"
         opacity="0.99"
         stroke="#00000f"
         stroke-linejoin="round"
         stroke-opacity="0.94118"
         stroke-width="0.99921"
         id="ellipse16428" />
      <ellipse
         transform="rotate(-23)"
         cx="2122.1001"
         cy="1246.5"
         rx="6.2007999"
         ry="0.88582999"
         fill="#e9c13a"
         opacity="0.99"
         stroke="#00000f"
         stroke-linejoin="round"
         stroke-opacity="0.94118"
         stroke-width="0.99921"
         id="ellipse16430" />
      <path
         d="m 2364.4,161.86 c -0.1526,-1.8623 -1.673,-4.008 -0.4459,-5.5847 3.8148,-3.1041 8.1525,-4.9762 13.046,-5.5379 1.2923,-0.0689 2.4743,2.7324 3.7076,4.2002 -6.6479,0.21914 -11.892,2.857 -16.308,6.9224"
         fill="#287028"
         fill-rule="evenodd"
         stroke="#000000"
         stroke-linejoin="round"
         stroke-width="0.99921"
         id="path16432" />
      <path
         d="m 2437.9,335.07 c 1.2336,1.4034 1.7209,3.9877 3.7075,4.2003 4.8829,-0.58783 9.2428,-2.4077 13.046,-5.5379 0.9473,-0.88172 -0.2467,-3.678 -0.4459,-5.5847 -4.7756,4.6298 -10.316,6.5698 -16.308,6.9224"
         fill="#e9c13a"
         fill-rule="evenodd"
         stroke="#000000"
         stroke-linejoin="round"
         stroke-width="0.99921"
         id="path16434" />
      <circle
         transform="rotate(-23)"
         cx="2122.1001"
         cy="1053.4"
         r="1.7717"
         fill="#00000f"
         fill-opacity="0.94118"
         stroke="#00000f"
         stroke-linejoin="round"
         stroke-opacity="0.94118"
         stroke-width="0.99921"
         id="circle16436" />
      <circle
         transform="rotate(-23)"
         cx="2122.1001"
         cy="1280.1"
         r="1.7717"
         fill="#00000f"
         fill-opacity="0.94118"
         stroke="#00000f"
         stroke-linejoin="round"
         stroke-opacity="0.94118"
         stroke-width="0.99921"
         id="circle16438" />
      <ellipse
         transform="rotate(23)"
         cx="2331.7"
         cy="-765.87"
         rx="8.8583002"
         ry="19.488001"
         fill="#1780ce"
         stroke="#00000f"
         stroke-linejoin="round"
         stroke-opacity="0.94118"
         stroke-width="0.99921"
         id="ellipse16440" />
      <path
         d="m 2443.1,216.57 -31.843,75.017"
         fill="none"
         stroke="#1780ce"
         stroke-width="6.0236"
         id="path16442" />
      <path
         d="m 2446,217.82 -31.843,75.017"
         fill="none"
         stroke="#000000"
         stroke-width="0.99921"
         id="path16444" />
      <path
         d="m 2439.5,215.05 -31.843,75.017"
         fill="none"
         stroke="#000000"
         stroke-width="5.315"
         id="path16446" />
      <path
         d="m 2435.1,212.64 1.1382,-7.2155 c 0.4065,-1.1062 1.4427,-2.7522 3.0152,-2.5694 0.394,0.11288 0.4736,-0.0225 1.6309,0.69225 0.8331,0.71279 0.8061,1.5274 0.9385,2.3231 l -1.8303,8.8463 1.8303,-8.8463 c 0.4573,-1.6988 1.1655,-2.6766 3.0154,-2.5694 2.1478,0.0504 2.5469,0.83211 3.2616,1.3845 1.5959,1.7469 0.4142,3.2939 0.2463,3.9538 l -5.092,7.4618 5.092,-7.4618 c 0.9045,-0.93903 1.6015,-0.8854 2.3231,-0.9386 0.8389,0.20815 1.4912,0.48261 1.6307,0.69222 1.5395,1.8563 0.3256,2.6955 0.2464,3.9539 l -4.3998,5.831"
         fill="none"
         stroke="#000000"
         stroke-width="1px"
         id="path16448" />
      <path
         d="m 2371.1,363.6 -4.3997,5.831 c -0.5133,1.0609 -0.9775,2.9496 0.2463,3.9538 0.3548,0.20493 0.3128,0.35613 1.6308,0.69226 1.0915,0.10405 1.6587,-0.48116 2.3231,-0.93864 l 5.092,-7.4618 -5.092,7.4618 c -0.9044,1.509 -1.1158,2.6977 0.2463,3.9539 1.5284,1.5099 2.3679,1.254 3.2617,1.3845 2.3652,-0.0656 2.6571,-1.9902 3.0152,-2.5694 l 1.8304,-8.8462 -1.8304,8.8462 c -0.047,1.303 0.4757,1.767 0.9386,2.3231 0.7326,0.45881 1.3831,0.73731 1.6308,0.69222 2.4047,-0.18208 2.1651,-1.6383 3.0153,-2.5694 l 1.1381,-7.2155"
         fill="none"
         stroke="#000000"
         stroke-width="1px"
         id="path16450" />
      <ellipse
         transform="rotate(23)"
         cx="2331.7"
         cy="-753.46997"
         rx="9.7440996"
         ry="4.4291"
         fill="#e9c13a"
         opacity="0.99"
         stroke="#00000f"
         stroke-linejoin="round"
         stroke-opacity="0.94118"
         stroke-width="0.99921"
         id="ellipse16452" />
      <ellipse
         transform="rotate(23)"
         cx="2331.7"
         cy="-753.46997"
         rx="6.2007999"
         ry="0.88582999"
         fill="#e9c13a"
         opacity="0.99"
         stroke="#00000f"
         stroke-linejoin="round"
         stroke-opacity="0.94118"
         stroke-width="0.99921"
         id="ellipse16454" />
      <ellipse
         transform="rotate(23)"
         cx="2331.7"
         cy="-594.02002"
         rx="9.7440996"
         ry="4.4291"
         fill="#e9c13a"
         opacity="0.99"
         stroke="#00000f"
         stroke-linejoin="round"
         stroke-opacity="0.94118"
         stroke-width="0.99921"
         id="ellipse16456" />
      <ellipse
         transform="rotate(23)"
         cx="2331.7"
         cy="-594.02002"
         rx="6.2007999"
         ry="0.88582999"
         fill="#e9c13a"
         opacity="0.99"
         stroke="#00000f"
         stroke-linejoin="round"
         stroke-opacity="0.94118"
         stroke-width="0.99921"
         id="ellipse16458" />
      <path
         d="m 2438.2,201 c 1.2336,-1.4034 1.7209,-3.9877 3.7075,-4.2003 4.8828,0.58783 9.2428,2.4076 13.046,5.5379 0.9472,0.88173 -0.2468,3.678 -0.4459,5.5847 -4.7756,-4.6298 -10.316,-6.5698 -16.308,-6.9224"
         fill="#dd1d1d"
         fill-rule="evenodd"
         stroke="#000000"
         stroke-linejoin="round"
         stroke-width="0.99921"
         id="path16460" />
      <path
         d="m 2364.6,374.2 c -0.1526,1.8623 -1.673,4.008 -0.446,5.5847 3.8148,3.1041 8.1526,4.9762 13.046,5.5379 1.2923,0.0689 2.4744,-2.7324 3.7076,-4.2002 -6.6478,-0.21914 -11.892,-2.857 -16.308,-6.9224"
         fill="#1780ce"
         fill-rule="evenodd"
         stroke="#000000"
         stroke-linejoin="round"
         stroke-width="0.99921"
         id="path16462" />
      <circle
         transform="rotate(23)"
         cx="2331.7"
         cy="-787.13"
         r="1.7717"
         fill="#00000f"
         fill-opacity="0.94118"
         stroke="#00000f"
         stroke-linejoin="round"
         stroke-opacity="0.94118"
         stroke-width="0.99921"
         id="circle16464" />
      <circle
         transform="rotate(23)"
         cx="2331.7"
         cy="-560.35999"
         r="1.7717"
         fill="#00000f"
         fill-opacity="0.94118"
         stroke="#00000f"
         stroke-linejoin="round"
         stroke-opacity="0.94118"
         stroke-width="0.99921"
         id="circle16466" />
    </g>
    <path
       d="m 717.58,1291.8 -9.9879,23.423 9.9879,22.598 9.568,-22.598 -9.568,-23.423"
       fill-rule="evenodd"
       stroke="#000000"
       stroke-width="1px"
       id="path16470" />
    <path
       d="m 717.52,1305 5.315,10.276 -5.315,10.276 -5.3149,-10.276 z"
       fill-rule="evenodd"
       stroke="#000000"
       stroke-width="0.5315"
       id="path16472" />
    <path
       d="m 717.52,1302.3 -0.88527,6.4928 0.88527,6.493 0.8856,-6.493 -0.8856,-6.4928"
       fill="#e9c13a"
       fill-rule="evenodd"
       stroke="#e9c13a"
       stroke-linecap="round"
       stroke-linejoin="round"
       stroke-width="1px"
       id="path16474" />
    <path
       d="m 717.52,1315.3 -0.88527,6.4931 0.88527,6.4933 0.8856,-6.4933 -0.8856,-6.4931"
       fill="#e9c13a"
       fill-rule="evenodd"
       stroke="#e9c13a"
       stroke-linecap="round"
       stroke-linejoin="round"
       stroke-width="1px"
       id="path16476" />
    <path
       d="m 724.1,1315.3 -3.0384,-0.8676 -3.038,0.8676 3.038,0.8678 3.0384,-0.8678"
       fill="#e9c13a"
       fill-rule="evenodd"
       stroke="#e9c13a"
       stroke-linecap="round"
       stroke-linejoin="round"
       stroke-width="1px"
       id="path16478" />
    <path
       d="m 717.01,1315.3 -3.039,-0.8677 -3.0387,0.8677 3.0387,0.8677 3.039,-0.8677"
       fill="#e9c13a"
       fill-rule="evenodd"
       stroke="#e9c13a"
       stroke-linecap="round"
       stroke-linejoin="round"
       stroke-width="1px"
       id="path16480" />
  </g>
</svg>
