<?xml version="1.0" encoding="UTF-8" standalone="no"?>
<svg
   width="42.999779mm"
   height="87.997726mm"
   enable-background="new"
   version="1.1"
   viewBox="0 0 152.36255 311.802"
   id="svg20076"
   sodipodi:docname="Mazzo.svg"
   inkscape:version="1.2.1 (9c6d41e410, 2022-07-14)"
   xmlns:inkscape="http://www.inkscape.org/namespaces/inkscape"
   xmlns:sodipodi="http://sodipodi.sourceforge.net/DTD/sodipodi-0.dtd"
   xmlns="http://www.w3.org/2000/svg"
   xmlns:svg="http://www.w3.org/2000/svg"
   xmlns:rdf="http://www.w3.org/1999/02/22-rdf-syntax-ns#"
   xmlns:cc="http://creativecommons.org/ns#"
   xmlns:dc="http://purl.org/dc/elements/1.1/">
  <sodipodi:namedview
     id="namedview20078"
     pagecolor="#ffffff"
     bordercolor="#000000"
     borderopacity="0.25"
     inkscape:showpageshadow="2"
     inkscape:pageopacity="0.0"
     inkscape:pagecheckerboard="0"
     inkscape:deskcolor="#d1d1d1"
     inkscape:document-units="mm"
     showgrid="false"
     inkscape:zoom="8"
     inkscape:cx="81.25"
     inkscape:cy="148.1875"
     inkscape:window-width="2560"
     inkscape:window-height="1409"
     inkscape:window-x="0"
     inkscape:window-y="31"
     inkscape:window-maximized="1"
     inkscape:current-layer="svg20076" />
  <title
     id="title2">Bresciane</title>
  <defs
     id="defs191" />
  <metadata
     id="metadata193">
    <rdf:RDF>
      <cc:Work
         rdf:about="">
        <dc:format>image/svg+xml</dc:format>
        <dc:type
           rdf:resource="http://purl.org/dc/dcmitype/StillImage" />
        <dc:title>Bresciane</dc:title>
        <dc:date>2020</dc:date>
        <dc:creator>
          <cc:Agent>
            <dc:title>ZZandro</dc:title>
          </cc:Agent>
        </dc:creator>
        <dc:rights>
          <cc:Agent>
            <dc:title />
          </cc:Agent>
        </dc:rights>
        <cc:license
           rdf:resource="http://creativecommons.org/licenses/by-sa/4.0/" />
      </cc:Work>
      <cc:License
         rdf:about="http://creativecommons.org/licenses/by-sa/4.0/">
        <cc:permits
           rdf:resource="http://creativecommons.org/ns#Reproduction" />
        <cc:permits
           rdf:resource="http://creativecommons.org/ns#Distribution" />
        <cc:requires
           rdf:resource="http://creativecommons.org/ns#Notice" />
        <cc:requires
           rdf:resource="http://creativecommons.org/ns#Attribution" />
        <cc:permits
           rdf:resource="http://creativecommons.org/ns#DerivativeWorks" />
        <cc:requires
           rdf:resource="http://creativecommons.org/ns#ShareAlike" />
      </cc:License>
    </rdf:RDF>
  </metadata>
  <g
     transform="translate(-162.98849,-843.27398)"
     opacity="0.96"
     id="g19946"
     style="display:inline">
    <g
       transform="matrix(0.97008,0,0,0.9964,-802.93,-904.23)"
       enable-background="new"
       fill="#f4f2ef"
       id="g19648">
      <g
         transform="matrix(0.70046,0,0,1.0004,298.31,-0.79223)"
         fill="#f4f2ef"
         id="g19646">
        <rect
           x="996.13"
           y="1754.4"
           width="223.23"
           height="311.81"
           rx="10.63"
           ry="10.63"
           fill="#f4f2ef"
           stroke="#000000"
           stroke-width="0.99673"
           id="rect19644" />
      </g>
    </g>
    <g
       transform="matrix(0.76704,0,0,0.8945,-584.82,-709.56)"
       enable-background="new"
       fill="none"
       id="g19654">
      <g
         transform="matrix(0.70046,0,0,1.0004,298.31,-0.79223)"
         fill="none"
         id="g19652">
        <rect
           x="996.13"
           y="1754.4"
           width="223.23"
           height="311.81"
           rx="10.63"
           ry="10.63"
           fill="none"
           stroke="#000000"
           stroke-width="0.99673"
           id="rect19650" />
      </g>
    </g>
    <g
       transform="translate(162.99,102.47)"
       stroke="#000000"
       id="g19944">
      <path
         d="m 24.777,850.47 c 0,0 0.39103,8.1505 0.76772,12.212 0.07814,0.84238 0.19732,1.6805 0.30936,2.5191 0.35481,2.6556 0.33843,5.4014 1.149,7.955 0.52027,1.6389 1.2947,3.2326 2.3423,4.5962 0.71181,0.92647 1.6668,1.6494 2.6075,2.3423 0.78722,0.57985 2.5191,1.5026 2.5191,1.5026 0,0 -0.97227,-1.9004 -0.97227,-2.2981 0,-0.3977 -0.25471,-5.7445 -0.35355,-8.6179 -0.03648,-1.0604 0.13606,-2.1449 -0.08839,-3.182 -0.19273,-0.89047 -0.63083,-1.7158 -1.0607,-2.5191 -0.49153,-0.91864 -1.1473,-1.7394 -1.7236,-2.6075 -0.88128,-1.3276 -1.9352,-2.5542 -2.6516,-3.9775 -1.2619,-2.507 -2.8448,-7.9249 -2.8448,-7.9249 z"
         fill="#1780ce"
         fill-rule="evenodd"
         stroke-linecap="round"
         stroke-linejoin="round"
         stroke-width="1px"
         id="path19656" />
      <path
         d="m 36.965,868.35 c -10.49,-10.49 -16.978,-24.981 -16.978,-40.987 -10e-7,-32.013 25.952,-57.965 57.965,-57.965 32.013,0 57.965,25.952 57.965,57.965"
         fill="none"
         opacity="1"
         stroke-linecap="round"
         stroke-linejoin="round"
         stroke-width="0.99921"
         id="path19658" />
      <path
         d="m 132.37,965.55 c 0,32.013 -25.952,57.965 -57.965,57.965 -32.013,0 -57.965,-25.952 -57.965,-57.965"
         fill="none"
         opacity="1"
         stroke-linecap="round"
         stroke-linejoin="round"
         stroke-width="0.99921"
         id="path19660" />
      <path
         d="m 132.81,939.3 -2.1875,2.8125 -2.125,4.0625 -2,4.8125 -0.4375,2.8125 -0.25,4.3125 0.1875,5.1875 -0.75,12.562 3.4375,-6.6875 2.375,-7.9375 0.625,-5.125 0.6875,-7.5 z"
         fill="#1780ce"
         fill-rule="evenodd"
         stroke-linecap="round"
         stroke-linejoin="round"
         stroke-width="1px"
         id="path19662" />
      <path
         d="m 130.51,947.09 c -2.3241,11.453 -3.212,23.086 -4.6964,34.644"
         fill="none"
         stroke-linecap="round"
         stroke-linejoin="round"
         stroke-width="0.64488"
         id="path19664" />
      <path
         d="m 133.91,961.59 c 0,0 -1.8887,1.092 -2.74,1.7678 -0.99546,0.79026 -1.9884,1.6267 -2.74,2.6516 -0.58437,0.79692 -0.94359,1.7404 -1.3258,2.6516 -0.80729,1.9246 -1.5838,3.8838 -2.0329,5.922 -0.55451,2.5166 -0.63282,5.118 -0.79549,7.6898 -0.15999,2.5294 0.19218,5.0939 -0.17678,7.6014 -0.47948,3.2586 -2.6254,9.5259 -2.6254,9.5259 0,0 3.9113,-1.8014 5.4539,-3.2503 0.98879,-0.92875 1.6778,-2.1523 2.2981,-3.3588 1.2188,-2.3707 2.0839,-4.9293 2.74,-7.513 0.88715,-3.4933 1.2762,-7.1045 1.591,-10.695 0.37837,-4.3161 0.35356,-12.993 0.35356,-12.993 z"
         fill="#1780ce"
         fill-rule="evenodd"
         stroke-linecap="round"
         stroke-linejoin="round"
         stroke-width="1px"
         id="path19666" />
      <path
         d="m 114.81,843.91 c -1.4336,3.764 -5.1516,10.354 -5.8203,11.107 -0.6687,0.75284 -2.579,3.573 -4.5842,5.559 -2.0052,1.986 -4.0695,3.7315 -7.1621,6.239 -3.0926,2.5074 -9.8739,7.4433 -11.491,8.6621 -1.6167,1.2188 -6.2986,4.0697 -9.8993,5.922 -2.0957,1.0781 -6.3938,3.018 -6.3938,3.018 l 9.9889,24.975 c 0,0 16.728,-8.9222 19.915,-11.818 3.1868,-2.8958 6.4962,-5.731 9.1938,-8.6254 2.6976,-2.8944 4.9321,-5.3531 7.7035,-8.7264 2.7715,-3.3733 5.9296,-7.518 8.4791,-11.566 2.5495,-4.048 6.0648,-11.19 6.7868,-12.606 0.722,-1.416 2.1713,-5.9949 2.8284,-9.104 0.93841,-4.4399 1.567,-13.523 1.567,-13.523 v -21.302 l -18.803,-16.705 c 0,0 1.3254,4.7414 1.7678,7.1594 0.57672,3.1526 0.92318,6.349 1.149,9.546 0.19522,2.7632 0.25197,5.5394 0.17808,8.3085 -0.0843,3.1602 -0.43762,6.3586 -1.0622,9.4576 -0.97389,4.832 -2.5875,9.4158 -4.3419,14.022 z"
         fill="#1780ce"
         fill-rule="evenodd"
         stroke-linecap="round"
         stroke-linejoin="round"
         stroke-width="1px"
         id="path19668" />
      <path
         d="m 37.557,949 c 1.4336,-3.764 5.1516,-10.354 5.8203,-11.107 0.6687,-0.75284 2.579,-3.573 4.5842,-5.559 2.0052,-1.986 4.0695,-3.7315 7.1621,-6.239 3.0926,-2.5074 9.8739,-7.4433 11.491,-8.6621 1.6167,-1.2188 6.2986,-4.0697 9.8993,-5.922 2.0957,-1.0781 6.3938,-3.018 6.3938,-3.018 l -9.9889,-24.975 c 0,0 -16.728,8.9222 -19.915,11.818 -3.1868,2.8958 -6.4962,5.731 -9.1938,8.6254 -2.6976,2.8944 -4.9321,5.3531 -7.7035,8.7264 -2.7715,3.3733 -5.9296,7.518 -8.4791,11.566 -2.5495,4.048 -6.0648,11.19 -6.7868,12.606 -0.722,1.416 -2.1713,5.9949 -2.8284,9.104 -0.93841,4.4399 -1.567,13.523 -1.567,13.523 v 10.672 l 18.803,27.335 c 0,0 -1.3254,-4.7414 -1.7678,-7.1594 -0.57672,-3.1526 -0.92318,-6.349 -1.149,-9.546 -0.19522,-2.7632 -0.25197,-5.5394 -0.17808,-8.3085 0.0843,-3.1602 0.43762,-6.3586 1.0622,-9.4576 0.97389,-4.832 2.5875,-9.4158 4.3419,-14.022 z"
         fill="#1780ce"
         fill-rule="evenodd"
         stroke-width="1px"
         id="path19670" />
      <path
         d="m 58.757,893.78 c 0,0 -0.37524,3.3019 -0.42052,4.9609 -0.04021,1.4732 0.08839,4.0217 0.13258,4.4194 0.04419,0.39775 0.49018,3.3 0.92808,4.9056 0.103,0.37763 0.39775,1.1048 0.39775,1.1048 0,0 1.1074,-1.9503 1.591,-2.961 0.31058,-0.6491 0.61564,-1.3049 0.83969,-1.9887 0.49508,-1.511 0.85851,-3.0696 1.1049,-4.6404 0.2953,-1.883 1.4551,-4.0866 0.44194,-5.701 -0.73144,-1.1655 -3.8449,-1.5026 -3.8449,-1.5026 l -1.2402,1.3913"
         fill="#e9c13a"
         fill-rule="evenodd"
         stroke-linecap="round"
         stroke-linejoin="round"
         stroke-width="1px"
         id="path19672" />
      <path
         d="m 51.311,892.52 11.185,1.8982 -1.7531,8.6822 8.8258,-0.748 -1.7531,8.6822 8.8271,-0.74655 0.60445,11.327 c 0,0 6.4856,-8.6294 10.488,-12.197 4.0025,-3.5678 13.316,-9.022 13.316,-9.022 l -11.183,-1.8968 1.7518,-8.6836 -8.8258,0.74801 1.7531,-8.6822 -8.8258,0.74801 -0.60572,-11.328 c 0,0 -6.484,8.6283 -10.486,12.196 -4.0024,3.5679 -13.318,9.0231 -13.318,9.0231 z"
         fill="#dd1d1d"
         fill-rule="evenodd"
         stroke-linejoin="round"
         stroke-width="1px"
         id="path19674" />
      <path
         d="m 61.61,890.76 6.6382,2.7146 0.22146,4.9806 4.9226,0.79001 0.22146,4.9806 4.9235,0.79107 1.9362,6.9042 c 0,0 2.4818,-4.2838 4.2605,-5.8693 1.7787,-1.5854 6.3177,-3.5602 6.3177,-3.5602 l -6.6373,-2.7136 -0.22241,-4.9817 -4.9226,-0.79 -0.22147,-4.9806 -4.9226,-0.79 -1.9371,-6.9052 c 0,0 -2.4811,4.2833 -4.2597,5.8688 -1.7786,1.5855 -6.3184,3.5607 -6.3184,3.5607 z"
         fill="none"
         stroke-linejoin="round"
         stroke-width="1px"
         id="path19676" />
      <ellipse
         transform="rotate(-41.714)"
         cx="-539.65002"
         cy="719.87"
         rx="3.5432999"
         ry="12.402"
         fill="none"
         opacity="1"
         stroke-linecap="round"
         stroke-linejoin="round"
         stroke-width="0.99921"
         id="ellipse19678" />
      <ellipse
         transform="matrix(0.66535,0.74653,-0.74644,0.66545,0,0)"
         cx="719.84998"
         cy="539.58002"
         rx="8.8548002"
         ry="1.1068"
         opacity="1"
         stroke-linecap="round"
         stroke-linejoin="round"
         stroke-width="0.64488"
         id="ellipse19680" />
      <g
         stroke-linecap="round"
         stroke-linejoin="round"
         id="g19704">
        <path
           d="m 112.59,884.52 c 0.23481,-0.26599 0.0522,-9.5811 0.27836,-13.62 0.22615,-4.0394 0.54135,-7.9732 0.97227,-10.607 0.43092,-2.6338 1.2374,-5.2149 1.2374,-5.2149 0,0 0.63585,2.2972 1.0607,3.7123 0.42485,1.4151 1.1465,3.1312 1.5026,4.773 0.3561,1.6418 0.33766,2.9121 0.61872,5.0381 0.28106,2.126 1.0924,7.7141 1.0924,7.7141 l -3.1001,3.9066 -3.8665,4.5282"
           fill="#e9c13a"
           fill-rule="evenodd"
           stroke-width="1px"
           id="path19682" />
        <path
           d="m 121.89,842.09 c 0,0 0.75148,8.2907 0.88388,11.844 0.1324,3.5533 0.097,6.3699 0,9.4576 -0.097,3.0877 -0.56991,9.0598 -0.56991,9.0598 l 5.0149,-8.0816 c 0,0 0.49966,-5.4116 0.32795,-8.0493 -0.17171,-2.6377 -0.36379,-5.2657 -1.3258,-7.6898 -0.96201,-2.4241 -4.331,-6.5407 -4.331,-6.5407 z"
           fill="#e9c13a"
           fill-rule="evenodd"
           stroke-width="1px"
           id="path19684" />
        <path
           d="m 115.62,866.19 c 0.18796,4.5341 0.53256,9.1593 0.63326,14.029"
           fill="none"
           stroke-width="0.64488"
           id="path19686" />
        <path
           d="m 124.94,852.28 c 0.65954,5.4076 0.36795,10.718 -0.2311,16.13"
           fill="none"
           stroke-width="0.64488"
           id="path19688" />
        <path
           d="m 130.33,829.58 c 0,0 -0.20152,-5.7511 -0.48614,-7.9991 -0.28462,-2.248 -0.55524,-3.7209 -1.0607,-5.4801 -0.50546,-1.7592 -1.1687,-3.1646 -1.9445,-5.0381 -0.7758,-1.8735 -1.1889,-3.5181 -2.74,-6.1872 -1.5511,-2.6691 -6.9827,-9.4576 -6.9827,-9.4576 0,0 2.9031,0.0344 4.2426,0.35355 1.3396,0.31914 2.5934,0.81232 3.7123,1.5026 1.1189,0.69028 1.9586,1.544 2.9168,2.5633 0.9582,1.0193 2.7631,3.5652 2.7631,3.5652 0,0 -2.1183,-5.2953 -2.6747,-7.3659 -0.5564,-2.0706 -0.319,-3.5243 -0.0884,-4.9498 0.2306,-1.4255 1.6818,-4.5962 1.6818,-4.5962 0,0 0.41631,2.3948 0.88388,4.2426 0.46757,1.8478 1.6387,5.5181 2.0329,6.8059 0.39423,1.2878 2.0915,5.6829 2.6517,8.6621 0.5602,2.9792 0.26417,3.5352 0.47207,9.104 0.2079,5.5688 0,24.307 0,24.307 l -1.0574,5.7027 -4.3226,-15.735"
           fill="#e9c13a"
           fill-rule="evenodd"
           stroke-width="1px"
           id="path19690" />
        <path
           d="m 129.85,859.35 c 0,0 -0.59505,-11.298 -1.3549,-15.612 -0.75985,-4.314 -1.7244,-6.6736 -2.75,-10.25 -1.0256,-3.5764 -3.4205,-11.2 -3.4205,-11.2 0,0 2.2662,0.82506 3.2704,1.4584 1.0042,0.63334 1.8841,1.3212 2.6958,2.2981 0.8117,0.9769 1.2464,1.7377 2.0329,3.5355 0.7865,1.7978 1.8831,4.5353 2.6089,7.1578 0.7258,2.6225 1.7458,5.6548 1.7137,8.577 -0.032,2.9221 -2.2793,8.6065 -2.2793,8.6065 l -2.5046,5.4044"
           fill="#e9c13a"
           fill-rule="evenodd"
           stroke-width="1px"
           id="path19692" />
        <path
           d="m 131.94,833.62 c 0.29683,-6.5398 0.65761,-12.469 -1.1874,-18.255"
           fill="none"
           stroke-width="0.64488"
           id="path19694" />
        <path
           d="m 90.245,889.93 c 0,0 2.3016,-5.8896 3.5673,-8.6308 1.2657,-2.7412 4,-7.8125 4,-7.8125 0,0 1.3088,5.2359 1.5625,8.25 0.2537,3.0141 0.04834,6.9469 -0.1875,9.75 -0.23584,2.8031 -1.0554,7.0478 -1.0554,7.0478 l -1.4103,1.1252 -6.8545,-1.1626 1.7518,-8.6836 z"
           fill="#e9c13a"
           fill-rule="evenodd"
           stroke-width="1px"
           id="path19696" />
        <path
           d="m 101.42,895.72 c 0,0 0.25462,-5.1999 0.64583,-8.4215 0.39121,-3.2216 0.92138,-7.4582 1.8125,-10.875 0.89112,-3.4168 3.4375,-9.5625 3.4375,-9.5625 0,0 1.3078,4.2977 1.75,6.3125 0.4422,2.0148 0.75391,4.1109 0.9375,5.75 0.18359,1.6391 0.27963,2.6059 0.25,4.0625 -0.0296,1.4566 -0.47631,4.6469 -0.47631,4.6469 l -3.7196,3.8363 z"
           fill="#e9c13a"
           fill-rule="evenodd"
           stroke-width="1px"
           id="path19698" />
        <path
           d="m 96.562,883.42 c -0.28857,5.4233 -1.493,10.537 -3.268,15.654"
           fill="none"
           stroke-width="0.64488"
           id="path19700" />
        <path
           d="m 107,875.05 c 0.20455,5.8432 -0.034,11.424 -0.94596,16.421"
           fill="none"
           stroke-width="0.64488"
           id="path19702" />
      </g>
      <path
         d="m 124.84,793.28 c 0,0 -0.29329,-4.1118 -0.21764,-6.2281 0.0756,-2.1163 0.75811,-4.3338 0.6875,-6.4375 -0.0706,-2.1036 -0.38607,-4.1308 -1.0625,-6.0625 -0.67643,-1.9317 -1.803,-4.0534 -2.9375,-5.375 -1.1345,-1.3216 -3.4375,-2.625 -3.4375,-2.625 0,0 1.197,3.0661 1.4375,4.4375 0.2405,1.3714 0.14802,2.4984 0.125,3.6875 -0.023,1.1891 -0.26884,2.3812 -0.25,3.4375 0.0188,1.0562 0.0847,1.8042 0.3125,2.875 0.22781,1.0708 0.63029,1.959 1.125,3.5 0.49471,1.541 1.8424,5.7462 1.8424,5.7462 l 2.0343,2.581"
         fill="#1780ce"
         fill-rule="evenodd"
         stroke-linecap="round"
         stroke-linejoin="round"
         stroke-width="1px"
         id="path19706" />
      <path
         d="m 123.48,791.52 c 0,0 -3.3788,-1.2082 -5.1096,-1.4742 -1.7308,-0.266 -3.7444,-0.35362 -5.1875,-0.125 -1.4431,0.22862 -2.3414,0.71208 -3.375,1.1875 -1.0336,0.47542 -2.0787,1.0507 -2.8125,1.625 -0.7338,0.5743 -1.625,1.6875 -1.625,1.6875 0,0 2.0625,0.4375 2.3125,0.4375 0.25,0 1.7468,0.11582 2.8125,0.0625 1.0657,-0.0533 2.5731,-0.24746 3.5625,-0.4375 0.9894,-0.19004 1.1977,-0.44067 2.375,-0.625 1.1773,-0.18433 3.3407,-0.0566 4.6875,-0.25 1.3468,-0.19342 3.3768,-0.79776 3.3768,-0.79776 l -1.0172,-1.2905"
         fill="#1780ce"
         fill-rule="evenodd"
         stroke-linecap="round"
         stroke-linejoin="round"
         stroke-width="1px"
         id="path19708" />
      <path
         d="m 102.62,763.3 c 0.5625,0.3125 2.0842,0.91301 2.9375,1.9375 0.8533,1.02449 1.1437,2.823 1.75,4.125 0.6063,1.302 1.1586,2.4138 1.875,3.6875 0.7164,1.2737 1.656,2.4746 2.4375,3.9375 0.7815,1.4629 2.2031,4.8429 2.2031,4.8429 l 2.3619,1.9668 c 0,0 -0.54519,-2.4529 -0.69,-3.8722 -0.14481,-1.4193 0.16165,-3.0529 -0.125,-4.625 -0.28665,-1.5721 -1.0134,-3.3448 -1.625,-4.6875 -0.6116,-1.3427 -1.5,-3.3125 -1.9375,-3.375 -0.4375,-0.0625 -2.3642,-2.6721 -3.75,-3.375 -1.3858,-0.7029 -3.2599,-0.89308 -4.1875,-0.875 -0.92756,0.0181 -1.25,0.3125 -1.25,0.3125 z"
         fill="#1780ce"
         fill-rule="evenodd"
         stroke-linecap="round"
         stroke-linejoin="round"
         stroke-width="1px"
         id="path19710" />
      <path
         d="m 96.188,762.11 c 0,0 1.7479,2.4743 2.3125,3.6875 0.5646,1.2132 0.67164,2.4144 1.125,3.5 0.45336,1.0856 0.78499,1.8955 1.5625,3 0.77751,1.1045 3.2067,3.4659 3.2067,3.4659 l 3.292,1.8282 c 0,0 -1.5234,-3.3995 -2.1236,-4.8566 -0.6002,-1.4571 -0.6768,-2.4927 -1.5,-3.875 -0.8232,-1.3823 -2.2234,-3.0572 -3.5625,-4.1875 -1.3392,-1.1303 -4.3125,-2.5625 -4.3125,-2.5625 z"
         fill="#1780ce"
         fill-rule="evenodd"
         stroke-linecap="round"
         stroke-linejoin="round"
         stroke-width="1px"
         id="path19712" />
      <path
         d="m 106.04,776.68 c 0,0 -3.9341,-0.0872 -5.4777,0.11996 -1.5436,0.2072 -2.5226,0.47856 -3.75,0.9375 -1.2274,0.45894 -2.514,0.95264 -3.5625,1.8125 -1.0485,0.85986 -1.9941,2.3081 -2.5625,3.25 -0.5684,0.9419 -1,2.25 -1,2.25 0,0 1.0317,-0.25841 1.8125,-0.4375 0.7808,-0.17909 1.8595,-0.31765 2.875,-0.625 1.0155,-0.30735 2.2334,-0.6433 3.1875,-1.25 0.9541,-0.6067 1.6382,-1.6706 2.4375,-2.3125 0.79927,-0.64192 1.4154,-1.1728 2.3125,-1.5625 0.8971,-0.3897 2.1046,-0.47535 3,-0.6875 0.8954,-0.21215 2.3736,-0.58085 2.3736,-0.58085 z"
         fill="#1780ce"
         fill-rule="evenodd"
         stroke-linecap="round"
         stroke-linejoin="round"
         stroke-width="1px"
         id="path19714" />
      <path
         d="m 113.83,781.83 c 0,0 -2.1479,-0.0288 -3.4531,-0.0929 -1.3052,-0.0641 -3.083,-0.39876 -4.375,-0.3125 -1.292,0.0863 -2.3548,0.23314 -3.3125,0.6875 -0.9577,0.45436 -1.2857,0.89652 -2.3125,1.875 -1.0268,0.97848 -3.6875,4.125 -3.6875,4.125 0,0 1.7293,0.42563 2.625,0.4375 0.89571,0.0119 1.6025,-0.0502 2.6875,-0.375 1.085,-0.3248 2.6266,-1.2149 3.6875,-1.75 1.0609,-0.5351 1.7376,-1.0181 2.6875,-1.4375 0.9499,-0.4194 1.8948,-0.69799 3,-1.0625 1.1052,-0.36451 3.634,-1.1112 3.634,-1.1112 L 113.83,781.83"
         fill="#1780ce"
         fill-rule="evenodd"
         stroke-linecap="round"
         stroke-linejoin="round"
         stroke-width="1px"
         id="path19716" />
      <path
         d="m 74.438,758.92 c 0,0 2.0714,1.1593 3.25,2.125 1.1786,0.9657 2.3183,2.6068 3.6875,3.75 1.3692,1.1432 2.6886,1.9819 4.5,3.0625 1.8114,1.0806 6.4031,3.3187 6.4031,3.3187 l 6.0265,1.8898 c 0,0 -1.1439,-2.3403 -2.2421,-3.8335 -1.0982,-1.4932 -2.929,-3.6209 -4.5,-4.9375 -1.571,-1.3166 -3.1477,-2.2562 -4.75,-3 -1.6023,-0.7438 -3.3101,-1.099 -4.75,-1.5 -1.4399,-0.401 -2.5933,-0.79548 -3.875,-0.9375 -1.2817,-0.14202 -3.75,0.0625 -3.75,0.0625 z"
         fill="#e9c13a"
         fill-rule="evenodd"
         stroke-linecap="round"
         stroke-linejoin="round"
         stroke-width="1px"
         id="path19718" />
      <path
         d="m 93.532,771.57 c 0,0 -3.8081,1.119 -5.4691,1.7257 -1.661,0.6067 -3.1248,0.99822 -4.5,1.875 -1.3752,0.87678 -2.582,1.9768 -3.625,3.3125 -1.043,1.3357 -2.5,4.625 -2.5,4.625 0,0 1.87,-0.3938 3.375,-0.9375 1.505,-0.5437 4.092,-1.7036 5.5625,-2.5 1.4705,-0.7964 2.0949,-1.3928 3.3125,-2.125 1.2176,-0.7322 2.5644,-1.5006 4,-2.25 1.4356,-0.7494 4.6171,-2.229 4.6171,-2.229 z"
         fill="#e9c13a"
         fill-rule="evenodd"
         stroke-linecap="round"
         stroke-linejoin="round"
         stroke-width="1px"
         id="path19720" />
      <path
         d="m 77.953,769.4 c 0,0 -2.6545,-3.2834 -4.3278,-4.535 -1.2386,-0.92647 -2.738,-1.4405 -4.125,-2.125 -1.4876,-0.73411 -2.9441,-1.5496 -4.5,-2.125 -1.7018,-0.62934 -3.453,-1.1866 -5.25,-1.4375 -2.0222,-0.28235 -6.125,-0.0625 -6.125,-0.0625 0,0 1.0739,2.2506 1.875,3.1875 0.98119,1.1475 2.1982,2.1102 3.5,2.875 1.7179,1.0092 3.6589,1.5993 5.5625,2.1875 1.4293,0.44165 2.9246,0.63382 4.375,1 1.4744,0.37224 4.397,1.2163 4.397,1.2163 z"
         fill="#e9c13a"
         fill-rule="evenodd"
         stroke-linecap="round"
         stroke-linejoin="round"
         stroke-width="1px"
         id="path19722" />
      <path
         d="m 66.508,770.53 c -1.4021,0.50506 -3.3808,1.6929 -4.4454,2.5854 -1.0646,0.8925 -1.5726,1.3796 -2.0625,2.4375 -0.4899,1.0579 -0.24964,1.8802 -0.625,3.75 -0.37536,1.8698 -1.75,7.4375 -1.75,7.4375 0,0 0.79832,-0.20566 1.75,-0.9375 0.95168,-0.73184 1.6912,-1.9718 3.5625,-3.8125 1.8713,-1.8407 5.4205,-5.379 7.8125,-7.0625 2.392,-1.6835 4.5443,-2.394 6.1875,-3.3125 1.6432,-0.9185 3.6945,-2.1542 3.6945,-2.1542 l -4.9884,0.0298 c 0,0 -3.8654,0.23095 -5.3881,0.41594 -1.5227,0.18499 -2.3455,0.11801 -3.7476,0.62307 z"
         fill="#e9c13a"
         fill-rule="evenodd"
         stroke-linecap="round"
         stroke-linejoin="round"
         stroke-width="1px"
         id="path19724" />
      <path
         d="m 89.913,770.63 c 0,0 -3.3359,1.187 -5.1006,2.0422 -1.7647,0.8552 -4.0111,2.1269 -5.4375,3.125 -1.4264,0.9981 -2.1077,1.6994 -3.1939,2.6875 -1.0862,0.9881 -1.525,2.0629 -3.3061,3.25 -1.7811,1.1871 -7.5625,3.1875 -7.5625,3.1875 0,0 -0.13499,-1.5356 0.125,-2.8125 0.25999,-1.2769 0.9023,-3.3126 1.75,-4.6875 0.8477,-1.3749 2.0569,-2.4906 3.1875,-3.4375 1.1306,-0.9469 1.804,-1.4342 3.5,-2.25 1.696,-0.8158 4.0149,-2.0054 6.757,-2.2792 2.7421,-0.2738 9.3288,1.1845 9.3288,1.1845"
         fill="#e9c13a"
         fill-rule="evenodd"
         stroke-linecap="round"
         stroke-linejoin="round"
         stroke-width="1px"
         id="path19726" />
      <path
         d="m 63.591,771.19 c 0,0 -3.5309,-0.4657 -5.1222,-1.203 -1.7637,-0.81715 -2.9669,-2.5645 -4.6875,-3.4688 -1.3064,-0.68656 -2.7356,-1.1731 -4.1875,-1.4375 -2.4299,-0.44242 -7.4062,-0.21875 -7.4062,-0.21875 0,0 3.9375,4.0938 4.0625,4.1562 0.125,0.0624 1.3693,1.7825 2.3125,2.3438 0.77342,0.46025 1.7046,0.61044 2.5938,0.75 2.78,0.43635 8.4383,0.25238 8.4383,0.25238 z"
         fill="#e9c13a"
         fill-rule="evenodd"
         stroke-linecap="round"
         stroke-linejoin="round"
         stroke-width="1px"
         id="path19728" />
      <path
         d="m 59.595,772.36 c 0,0 -3.5778,2.1146 -5.2508,3.3414 -1.0971,0.80443 -2.1436,1.6829 -3.125,2.625 -0.92552,0.88852 -1.9445,1.7372 -2.5938,2.8438 -0.40007,0.68187 -0.81792,1.5137 -1.1057,2.25 -0.29532,0.75557 -0.44156,1.4333 -0.64429,2.2188 -0.76529,2.9651 -0.75,9.1562 -0.75,9.1562 0,0 3.5575,-3.0004 5.1875,-4.6562 1.1136,-1.1313 2.232,-2.2812 3.125,-3.5938 0.50843,-0.74729 0.97267,-1.546 1.25,-2.4062 0.33268,-1.0319 0.17498,-2.1751 0.46875,-3.2188 0.48807,-1.734 2.125,-4.9688 2.125,-4.9688 1.2438,-2.0489 3.4676,-3.2404 5.3097,-4.7657 l -3.9964,1.1744"
         fill="#e9c13a"
         fill-rule="evenodd"
         stroke-linecap="round"
         stroke-linejoin="round"
         stroke-width="1px"
         id="path19730" />
      <path
         d="m 48.393,775.44 c -0.57452,-0.17678 -3.5548,-1.8127 -5.4801,-2.2539 -2.1434,-0.49117 -4.3871,-0.46813 -6.5849,-0.39775 -1.7806,0.057 -3.5729,0.23925 -5.3033,0.66291 -1.725,0.42232 -3.4529,0.97349 -4.9939,1.8562 -1.4355,0.82221 -3.8449,3.1378 -3.8449,3.1378 0,0 1.0214,0.96918 2.0771,1.591 1.2759,0.75151 2.8083,1.0482 4.331,1.149 1.8558,0.12285 3.7234,-0.11927 5.5685,-0.35355 2.098,-0.2664 4.1765,-0.69305 6.2314,-1.1932 1.7617,-0.42883 3.4679,-1.0617 5.2149,-1.5468 1.0425,-0.28946 3.1422,-0.81352 3.1422,-0.81352 l 2.4933,-1.3757 c 0,0 -2.2767,-0.28564 -2.8512,-0.46242 z"
         fill="#e9c13a"
         fill-rule="evenodd"
         stroke-linecap="round"
         stroke-linejoin="round"
         stroke-width="1px"
         id="path19732" />
      <path
         d="m 39.324,784.14 c -1.0937,1.3275 -1.7836,2.9591 -2.4222,4.5562 -0.73253,1.8319 -1.2637,3.7554 -1.591,5.701 -0.35988,2.1395 -0.3796,4.327 -0.39775,6.4966 -0.02221,2.6542 0.35355,7.955 0.35355,7.955 0,0 2.1497,-4.5242 3.182,-6.8059 0.95444,-2.1096 1.987,-4.1901 2.7842,-6.364 0.56647,-1.5446 1.4142,-4.552 1.4142,-4.7288 0,-0.17678 0.7955,-4.5962 0.83969,-4.8614 0.04419,-0.26517 0.96708,-3.372 1.8562,-4.8614 0.89145,-1.4933 3.4073,-3.9513 3.4073,-3.9513 l -5.0323,3.3023 c 0,0 -3.195,2.1065 -4.3939,3.5616 z"
         fill="#e9c13a"
         fill-rule="evenodd"
         stroke-linecap="round"
         stroke-linejoin="round"
         stroke-width="1px"
         id="path19734" />
      <path
         d="m 36.242,787.11 c 0,0 -2.0616,0.2847 -3.0961,0.39528 -1.7055,0.1823 -4.9056,0.44194 -5.1265,0.44194 -0.2209,0 -2.4098,0.35753 -3.5355,0.7955 -1.0762,0.41869 -2.0716,1.0439 -3.0052,1.7236 -0.88525,0.64446 -1.7921,1.3202 -2.4307,2.2097 -0.45014,0.62695 -0.92808,2.1213 -0.92808,2.1213 0,0 1.2967,-0.66643 1.9887,-0.88388 0.81586,-0.25634 1.6656,-0.43135 2.5191,-0.48614 0.47136,-0.0303 0.94198,0.0792 1.4142,0.0884 0.6335,0.0124 1.2814,0.0914 1.9003,-0.0442 1.1602,-0.2542 2.2071,-0.88499 3.2704,-1.4142 1.7742,-0.88309 5.1729,-2.9311 5.1729,-2.9311 z"
         fill="#e9c13a"
         fill-rule="evenodd"
         stroke-linecap="round"
         stroke-linejoin="round"
         stroke-width="1px"
         id="path19736" />
      <path
         d="m 32.135,791.85 c 0,0 -1.0222,9.8851 -0.97803,10.106 0.04419,0.22097 0.60457,6.188 0.44194,9.2808 -0.03052,0.58048 -0.08017,1.1725 -0.26516,1.7236 -0.26641,0.79358 -0.87124,1.437 -1.1932,2.2097 -0.52702,1.2647 -0.86948,3.651 -0.88074,4.0583 l -0.17992,6.5041 c 0,0 -1.1362,-2.6743 -1.6794,-4.0217 -0.74469,-1.8471 -1.7559,-3.6195 -2.1655,-5.5685 -0.3488,-1.6594 -0.31935,-3.3895 -0.22097,-5.0823 0.07531,-1.2959 0.32558,-2.5803 0.61872,-3.8449 0.49037,-2.1155 1.2582,-4.1569 1.9003,-6.2314 0.48432,-1.5646 1.4727,-4.6875 1.4727,-4.6875 z"
         fill="#e9c13a"
         fill-rule="evenodd"
         stroke-linecap="round"
         stroke-linejoin="round"
         stroke-width="1px"
         id="path19738" />
      <path
         d="m 22.75,809.63 c 0,0 -2.3894,3.1039 -3.1721,4.8787 -0.78002,1.7686 -1.194,3.6978 -1.4584,5.6127 -0.19952,1.445 -0.10258,2.9166 -0.08839,4.3752 0.01808,1.8575 0.01749,3.722 0.22097,5.5685 0.19845,1.8008 0.34932,3.6462 0.97227,5.3475 0.42772,1.1681 1.1594,2.2074 1.8612,3.2345 0.75494,1.1048 1.5764,2.1749 2.514,3.1295 1.1287,1.1492 3.5355,3.0936 3.7123,3.0936 0.17678,0 1.9788,0.96519 3.0494,1.149 1.4377,0.2469 4.3752,-0.0884 4.3752,-0.0884 0,0 -2.5208,-1.3314 -3.4913,-2.3423 -0.89763,-0.93497 -1.4612,-2.1514 -2.0329,-3.3146 -0.63965,-1.3013 -1.1542,-2.67 -1.5468,-4.0659 -0.43414,-1.5437 -0.63918,-3.144 -0.88388,-4.7288 -0.20383,-1.32 -0.20099,-2.6726 -0.48614,-3.9775 -0.22776,-1.0423 -0.57954,-2.0574 -0.97227,-3.0494 -0.52877,-1.3356 -1.4676,-2.5062 -1.8562,-3.8891 -0.54486,-1.939 -0.51067,-3.9992 -0.61872,-6.0104 -0.09211,-1.7145 -0.02456,-5.151 -0.02456,-5.151"
         fill="#e9c13a"
         fill-rule="evenodd"
         stroke-linecap="round"
         stroke-linejoin="round"
         stroke-width="1px"
         id="path19740" />
      <path
         d="m 21.482,840.49 c 0,0 -0.26627,2.888 -0.40112,4.3318 -0.18989,2.0331 -0.30948,4.0741 -0.57452,6.0988 -0.49638,3.7917 -0.95489,7.6084 -1.9004,11.314 -0.20042,0.78546 -0.75658,1.4884 -0.7955,2.2981 -0.0662,1.3776 0.69154,2.6714 0.97227,4.0217 0.45354,2.1815 0.94162,4.3665 1.149,6.5849 0.20024,2.1416 0.08839,6.4524 0.08839,6.4524 0,0 1.7433,-2.4777 2.4749,-3.8007 0.83244,-1.5055 1.4702,-3.1111 2.1655,-4.6846 0.82723,-1.8719 1.8395,-3.6848 2.3865,-5.6569 0.33409,-1.2045 0.66796,-2.4699 0.53033,-3.7123 -0.45275,-4.0872 -3.1821,-7.5994 -4.3752,-11.535 -0.55264,-1.8228 -0.99937,-3.6848 -1.2816,-5.5685 -0.30426,-2.0305 -0.43856,-6.1438 -0.43856,-6.1438 z"
         fill="#1780ce"
         fill-rule="evenodd"
         stroke-linecap="round"
         stroke-linejoin="round"
         stroke-width="1px"
         id="path19742" />
      <path
         d="m 27.599,855.92 c 0,0 1.0994,2.0153 1.7132,2.9843 0.66108,1.0437 1.2762,2.1371 2.1175,3.0418 0.38494,0.4139 1.2295,1.045 1.3179,1.0671 0.08839,0.0221 1.0541,0.57887 1.6131,0.79549 0.9651,0.37399 1.9928,0.56092 2.9831,0.86179 1.0208,0.31013 2.0142,0.71427 3.0494,0.97227 0.79907,0.19915 1.6113,0.35979 2.4307,0.44194 0.73304,0.0735 1.4731,0.0303 2.2097,0.0442 0.82494,0.0156 1.6602,-0.0866 2.4749,0.0442 1.0811,0.17355 3.1378,0.97227 3.1378,0.97227 0,0 -0.97647,-1.5418 -1.591,-2.2097 -0.81354,-0.88427 -1.7365,-1.6814 -2.74,-2.3423 -0.89135,-0.58703 -1.8698,-1.049 -2.8726,-1.4142 -2.4945,-0.90831 -5.2114,-1.0733 -7.734,-1.9004 -2.7803,-0.9115 -8.1096,-3.3588 -8.1096,-3.3588 z"
         fill="#1780ce"
         fill-rule="evenodd"
         stroke-linecap="round"
         stroke-linejoin="round"
         stroke-width="1px"
         id="path19744" />
      <path
         d="m 39.819,862.06 c 0.95813,0.25295 2.9168,0.57453 2.9168,0.57453 0,0 -1.1264,-2.4401 -1.9445,-3.4913 -0.65924,-0.84707 -1.4094,-1.6789 -2.3423,-2.2097 -1.4914,-0.84858 -3.2769,-1.0322 -4.9497,-1.4142 -1.2679,-0.28955 -2.5583,-0.47264 -3.8449,-0.66291 -1.1481,-0.16979 -3.4554,-0.4269 -3.4554,-0.4269 0,0 4.3392,3.8298 4.516,3.874 0.1768,0.0442 2.2826,1.3306 3.4913,1.8562 0.87157,0.37891 1.7957,0.62313 2.6958,0.92808 0.97067,0.32885 1.9259,0.71066 2.9168,0.97227 z"
         fill="#1780ce"
         fill-rule="evenodd"
         stroke-linecap="round"
         stroke-linejoin="round"
         stroke-width="1px"
         id="path19746" />
      <path
         d="m 38.369,859.95 c -10.391,-5.1106 -6.8408,-3.9719 -10.261,-5.9578"
         fill="none"
         stroke-linecap="round"
         stroke-linejoin="round"
         stroke-width="0.64488"
         id="path19748" />
      <path
         d="m 21.862,846.21 c -0.77718,17.86 3.6876,18.798 0.29394,25.87"
         fill="none"
         stroke-linecap="round"
         stroke-linejoin="round"
         stroke-width="0.64488"
         id="path19750" />
      <path
         d="m 21.482,840.49 c 0,0 -0.89673,1.9551 -1.0198,3.006 -0.14634,1.2492 0.10971,2.5227 0.35355,3.7565 0.24936,1.2618 0.57052,2.5307 1.127,3.6902 0.5091,1.0609 1.8783,2.8726 1.9887,2.9168 0.11049,0.0442 1.2223,0.87437 1.8783,1.2374 1.1478,0.63527 2.3075,1.3153 3.5797,1.6352 0.78023,0.19616 1.6093,0.0635 2.4086,0.15468 1.7132,0.19544 5.1044,0.83969 5.1044,0.83969 0,0 -2.276,-3.0052 -2.4307,-3.0936 -0.15468,-0.0884 -2.752,-2.8927 -4.3089,-4.1322 -1.2403,-0.9874 -2.7279,-1.6319 -3.9775,-2.6075 -0.92446,-0.72171 -1.8506,-1.4723 -2.5854,-2.3865 -0.60384,-0.75131 -1.0899,-1.6063 -1.4584,-2.497 -0.33195,-0.80228 -0.65954,-2.5198 -0.65954,-2.5198"
         fill="#1780ce"
         fill-rule="evenodd"
         stroke-linecap="round"
         stroke-linejoin="round"
         stroke-width="1px"
         id="path19752" />
      <path
         d="m 38.184,872.62 c 0.81535,1.454 1.6478,2.9346 2.7842,4.1542 0.34351,0.36866 1.0165,0.83969 1.1932,0.92808 0.17678,0.0884 1.9015,0.8863 2.8726,1.2816 1.2217,0.49732 2.5239,0.79785 3.7123,1.37 0.66697,0.32111 1.2908,0.72908 1.9003,1.149 0.63093,0.43469 1.2513,0.89198 1.812,1.4142 1.0304,0.95981 2.8284,3.1378 2.8284,3.1378 0,0 -0.2018,-1.8984 -0.53033,-2.7842 -0.43143,-1.1632 -1.0816,-2.257 -1.8562,-3.2262 -1.1129,-1.3927 -2.5771,-2.4668 -3.9333,-3.6239 -0.81383,-0.69441 -1.598,-1.4445 -2.5191,-1.9887 -1.1424,-0.67503 -2.4897,-0.9367 -3.6681,-1.5468 -1.2633,-0.65404 -2.5187,-1.3583 -3.6239,-2.2539 -1.3781,-1.1167 -2.1098,-2.1931 -2.1098,-2.1931 0,0 0.10301,2.3369 1.1376,4.1818 z"
         fill="#1780ce"
         fill-rule="evenodd"
         stroke-linecap="round"
         stroke-linejoin="round"
         stroke-width="1px"
         id="path19754" />
      <path
         d="m 35.47,866.8 c 0,0 1.0531,4.4157 1.2995,6.6662 0.1877,1.7139 0.04261,3.4489 0.13258,5.1707 0.05861,1.1215 0.04175,2.2581 0.26516,3.3588 0.12974,0.63915 0.36502,1.2553 0.61872,1.8562 0.3742,0.88618 0.74778,1.7944 1.3258,2.5633 0.70757,0.94119 2.3865,2.2981 2.5633,2.4307 0.1768,0.1326 3.5797,2.5191 3.5797,2.5191 0,0 -0.17678,-2.3423 -0.39775,-2.3865 -0.22097,-0.0442 -0.46215,-2.1468 -0.66291,-3.2262 -0.2458,-1.3214 -0.39373,-2.6606 -0.66291,-3.9775 -0.15635,-0.76488 -0.32413,-1.5294 -0.55243,-2.276 -0.52613,-1.7205 -0.97866,-3.5021 -1.8783,-5.0602 -0.5774,-1.0001 -1.5136,-1.7468 -2.21,-2.668 -1.2128,-1.6044 -3.4206,-4.9704 -3.4206,-4.9704"
         fill="#1780ce"
         fill-rule="evenodd"
         stroke-linecap="round"
         stroke-linejoin="round"
         stroke-width="1px"
         id="path19756" />
      <path
         d="m 51.255,896.91 c 0,0 -1.2641,2.7365 -1.7132,4.1708 -0.30651,0.97895 -0.50491,1.9916 -0.66291,3.0052 -0.27117,1.7395 -0.45254,3.4989 -0.48614,5.2591 -0.03125,1.6373 0.09869,3.2765 0.26516,4.9056 0.19083,1.8674 0.83969,5.5685 0.83969,5.5685 0,0 1.0395,-1.5087 1.5026,-2.2981 0.72355,-1.2333 1.4262,-2.4861 1.9887,-3.8007 0.37936,-0.88656 0.69475,-1.8044 0.92808,-2.74 0.19865,-0.79661 0.60709,-2.3322 0.75279,-3.1402 0.55424,-3.0735 0.76802,-5.4368 1.4569,-8.4829 0.30185,-1.3347 0.60091,-2.6737 1.0165,-3.9775 0.19098,-0.59919 0.67678,-1.7611 0.67678,-1.7611 l -2.085,-0.35385 -4.3749,3.5508"
         fill="#e9c13a"
         fill-rule="evenodd"
         stroke-linecap="round"
         stroke-linejoin="round"
         stroke-width="1px"
         id="path19758" />
      <path
         d="m 38.414,909.94 c 0,0 -0.34334,2.2209 -0.45091,3.3387 -0.147,1.5276 -0.23727,3.0618 -0.26516,4.5962 -0.03776,2.0772 -0.03295,4.1604 0.13258,6.2314 0.13628,1.705 0.25168,3.4336 0.70711,5.0823 0.50269,1.8198 0.71256,2.6371 1.6472,4.2774 0.17212,0.30208 1.0447,2.097 1.1812,1.7772 0.53768,-1.2597 0.66924,-1.7219 0.92808,-2.6074 0.44113,-1.5092 0.76212,-2.3454 1.0607,-3.8891 0.32558,-1.6835 0.68944,-4.078 0.7955,-5.7894 0.11577,-1.8682 0.45381,-4.7413 0.49569,-6.6127 0.0476,-2.127 0.1211,-2.7493 0.35433,-4.864 0.14685,-1.3315 0.39494,-3.361 0.70158,-4.665 0.3231,-1.374 0.5468,-2.502 1.0134,-3.8342 0.28828,-0.82308 2.0733,-3.8503 2.0733,-3.8503 l -6.0291,5.9591 -4.3516,4.8569"
         fill="#e9c13a"
         fill-rule="evenodd"
         stroke-linecap="round"
         stroke-linejoin="round"
         stroke-width="1px"
         id="path19760" />
      <path
         d="m 26.849,925.53 c 0,0 -0.52278,2.8751 -0.66157,4.3278 -0.20424,2.1377 -0.2883,4.2904 -0.25,6.4375 0.02497,1.3995 0.12881,2.7999 0.3125,4.1875 0.24773,1.8714 0.56649,3.7411 1.0625,5.5625 0.48828,1.793 1.1153,3.5541 1.875,5.25 0.4269,0.95291 1.5,2.75 1.5,2.75 0,0 0.58604,-1.2748 0.8125,-1.9375 0.49514,-1.449 0.8212,-2.5959 1.1875,-4.0827 0.36272,-1.4722 0.7116,-2.5969 1,-4.0854 0.32117,-1.6577 0.67782,-4.0238 0.81368,-5.7069 0.11566,-1.4328 0.11868,-2.9634 0.13138,-4.4009 0.02083,-2.3544 -0.19505,-4.1822 -0.17422,-6.5366 0.01327,-1.4999 -0.01695,-4.1924 0.10413,-5.6875 0.15676,-1.9356 0.04073,-2.5757 0.46967,-4.4697 0.38653,-1.7067 2.6271,-6.3146 2.6271,-6.3146 l -6.9739,8.8989 z"
         fill="#e9c13a"
         fill-rule="evenodd"
         stroke-linecap="round"
         stroke-linejoin="round"
         stroke-width="1px"
         id="path19762" />
      <path
         d="m 21.663,979.82 c 0,0 -1.5381,5.7653 -2.4442,8.6066 -0.36937,1.1582 -0.8541,2.2778 -1.2188,3.4375 -0.5833,1.8552 -1.548,5.625 -1.548,5.625 v 19.875 c 0,0 1.4686,-3.126 2.048,-4.75 0.35675,-1 0.67667,-2.0195 0.875,-3.0625 0.35975,-1.8919 0.33252,-3.838 0.5625,-5.75 0.29907,-2.4864 0.6693,-4.9642 1.0625,-7.4375 0.45495,-2.8617 1.4002,-5.6666 1.5,-8.5625 0.09218,-2.6735 -0.83706,-7.9816 -0.83706,-7.9816 z"
         fill="#1780ce"
         fill-rule="evenodd"
         stroke-linecap="round"
         stroke-linejoin="round"
         stroke-width="1px"
         id="path19764" />
      <path
         d="m 24.572,977.76 c -2.2515,7.4479 -5.2181,14.538 -6.1872,22.627"
         fill="none"
         stroke-linecap="round"
         stroke-linejoin="round"
         stroke-width="0.64488"
         id="path19766" />
      <path
         d="m 28.425,993.87 c 0,0 -0.415,3.1113 -0.48781,4.677 -0.08807,1.8939 -0.04558,3.7946 0.0625,5.6875 0.10387,1.8192 0.25113,3.6421 0.5625,5.4375 0.37386,2.1557 0.88402,4.295 1.5625,6.375 0.985,3.0197 3.5,8.125 3.625,8.8125 0.125,0.6875 4,6 4,6 0,0 1.1664,-1.5777 1.4375,-2.5 0.70592,-2.4015 0.45808,-4.9983 0.375,-7.5 -0.05361,-1.6142 -0.25541,-3.2269 -0.5625,-4.8125 -0.54198,-2.7984 -1.1944,-5.6022 -2.25,-8.25 -0.71798,-1.8009 -1.7724,-3.4508 -2.75,-5.125 -1.7513,-2.9991 -5.5747,-8.802 -5.5747,-8.802 z"
         fill="#e9c13a"
         fill-rule="evenodd"
         stroke-linecap="round"
         stroke-linejoin="round"
         stroke-width="1px"
         id="path19768" />
      <path
         d="m 26.163,997.69 c 0,0 -2.6319,5.5391 -3.6632,8.4214 -0.69315,1.9373 -1.1567,3.9496 -1.6875,5.9375 -0.42106,1.5768 -0.98809,3.1302 -1.1875,4.75 -0.35891,2.9155 -0.12065,5.8775 0,8.8125 0.07298,1.7753 0.4375,5.3125 0.4375,5.3125 0,0 1.826,-2.4761 2.6875,-3.75 1.2594,-1.8623 2.4892,-3.7473 3.625,-5.6875 0.66866,-1.1422 1.4305,-2.2533 1.875,-3.5 0.32796,-0.9198 0.45536,-1.9044 0.5625,-2.875 0.17149,-1.5536 0.22108,-3.1274 0.125,-4.6875 -0.23114,-3.7532 -1.6822,-11.155 -1.6822,-11.155 z"
         fill="#1780ce"
         fill-rule="evenodd"
         stroke-linecap="round"
         stroke-linejoin="round"
         stroke-width="1px"
         id="path19770" />
      <path
         d="m 24.438,981.61 c 0,0 -2.0427,3.3627 -2.75,5.1875 -0.51315,1.3239 -0.89899,2.7146 -1.0625,4.125 -0.11278,0.97287 -0.0073,1.9606 0.0625,2.9375 0.12262,1.7166 0.18926,3.4601 0.625,5.125 0.48488,1.8527 2.1875,5.3125 2.1875,5.3125 0,0 1.812,-2.4145 2.5,-3.75 0.72472,-1.4068 1.3294,-2.896 1.6875,-4.4375 0.50669,-2.1808 0.84852,-4.4598 0.625,-6.6875 -0.11515,-1.1476 -0.51829,-2.2645 -1,-3.3125 -0.74342,-1.6173 -2.875,-4.5 -2.875,-4.5 z"
         fill="#1780ce"
         fill-rule="evenodd"
         stroke-linecap="round"
         stroke-linejoin="round"
         stroke-width="1px"
         id="path19772" />
      <path
         d="m 26.187,981.55 c -0.99144,5.6326 -3.3692,10.711 -2.25,17.188"
         fill="none"
         stroke-linecap="round"
         stroke-linejoin="round"
         stroke-width="0.64488"
         id="path19774" />
      <path
         d="m 26,968.49 c -3.1779,4.778 -3.0165,8.0741 -3.6616,13.448 0.88648,3.0784 0.71698,4.7665 2.4501,7.4608 1.1085,1.7233 3.8637,4.6665 5.3365,6.091 1.5285,1.4783 3.0133,3.0542 4.8125,4.1875 0.7106,0.4476 2.3125,1 2.3125,1 0,0 -0.95471,-2.6851 -1.3125,-4.0625 -0.64614,-2.4874 -0.91959,-5.059 -1.5,-7.5625 -0.38461,-1.659 -0.7874,-3.3175 -1.3125,-4.9375 -0.91505,-2.8231 -1.958,-5.6124 -3.1952,-8.3098 C 28.7758,973.289 26,968.4898 26,968.4898 Z"
         fill="#1780ce"
         fill-rule="evenodd"
         stroke-linecap="round"
         stroke-linejoin="round"
         stroke-width="1px"
         id="path19776" />
      <path
         d="m 49.497,1018.5 c 0,0 1.3331,3.3121 2.2097,4.8613 0.79287,1.4012 1.6221,2.8189 2.74,3.9775 1.784,1.8488 3.9132,3.4004 6.1872,4.5962 2.1771,1.1448 4.5977,1.7846 6.9827,2.3865 0.69506,0.1754 2.1213,0.3535 2.1213,0.3535 0,0 -0.37779,-1.6826 -0.70711,-2.4748 -0.44047,-1.0596 -1.0152,-2.0694 -1.6794,-3.0052 -1.5946,-2.2467 -3.3458,-4.445 -5.4801,-6.1872 -1.3702,-1.1185 -2.9528,-1.9977 -4.5962,-2.6517 -2.4766,-0.9856 -7.7782,-1.8561 -7.7782,-1.8561 z"
         fill="#e9c13a"
         fill-rule="evenodd"
         stroke-linecap="round"
         stroke-linejoin="round"
         stroke-width="1px"
         id="path19778" />
      <path
         d="m 64.344,1016 c 0.54219,-0.3627 1.0622,-0.7653 1.5312,-1.2187 0.3347,-0.3235 0.59874,-0.713 0.90625,-1.0625 0.60407,-0.6865 1.1255,-1.4653 1.8438,-2.0313 0.78356,-0.6175 1.6969,-1.0716 2.625,-1.4375 0.94017,-0.3706 1.9403,-0.586 2.9375,-0.75 1.8967,-0.3119 3.8424,-0.201 5.75,-0.4375 1.8253,-0.2263 5.4375,-0.9375 5.4375,-0.9375 0,0 -1.9667,1.7407 -2.9375,2.625 -1.4712,1.3402 -2.8299,2.8083 -4.375,4.0625 -1.1489,0.9326 -2.3033,1.8971 -3.625,2.5625 -1.3711,0.6903 -2.8675,1.1482 -4.375,1.4375 -1.4108,0.2708 -2.9157,0.6444 -4.3016,0.266 -1.2181,-0.3326 -3.1375,-2.1228 -3.1375,-2.1228 0,0 1.1751,-0.5909 1.7203,-0.9557 z"
         fill="#e9c13a"
         fill-rule="evenodd"
         stroke-linecap="round"
         stroke-linejoin="round"
         stroke-width="1px"
         id="path19780" />
      <path
         d="m 71.417,1027.2 c 0,0 2.0956,1.933 3.2714,2.7296 1.0259,0.695 2.1314,1.2794 3.2704,1.7677 2.3635,1.0133 4.8032,1.9429 7.3362,2.3865 1.8002,0.3153 5.4801,0.1768 5.4801,0.1768 0,0 -1.4127,-2.1072 -2.2981,-3.0052 -1.2374,-1.2549 -2.6839,-2.2988 -4.1543,-3.2704 -1.177,-0.7778 -2.3649,-1.6146 -3.7123,-2.0329 -1.9515,-0.6059 -4.0571,-0.7024 -6.0988,-0.6187 -0.80834,0.033 -2.3865,0.4419 -2.3865,0.4419 z"
         fill="#e9c13a"
         fill-rule="evenodd"
         stroke-width="1px"
         id="path19782" />
      <path
         d="m 72.06,1022.3 c 0,0 1.7257,-1.5297 2.6279,-2.2468 1.204,-0.957 2.4316,-1.8884 3.7123,-2.7401 1.6283,-1.0828 3.428,-1.8955 5.0381,-3.0052 1.3298,-0.9165 2.7614,-1.769 3.8007,-3.0052 0.5175,-0.6155 1.149,-2.1213 1.149,-2.1213 0,0 0.28605,1.5963 0.17678,2.3865 -0.14172,1.0248 -0.6157,1.9828 -1.0607,2.9168 -0.73888,1.5509 -1.4908,3.153 -2.6516,4.4194 -0.98363,1.073 -1.7839,2.0364 -3.0052,2.8285 -1.1122,0.7214 -2.6963,1.3725 -3.9749,1.7229 -1.7893,0.4904 -5.5654,0.064 -5.5654,0.064 z"
         fill="#e9c13a"
         fill-rule="evenodd"
         stroke-linecap="round"
         stroke-linejoin="round"
         stroke-width="1px"
         id="path19784" />
      <path
         d="m 54.694,1020.1 c 2.9385,3.4681 5.3123,7.3126 9.5564,9.9103"
         fill="none"
         stroke-linecap="round"
         stroke-linejoin="round"
         stroke-width="0.64488"
         id="path19786" />
      <path
         d="m 61.121,1018.7 c 6.5133,-1.7668 12.88,-3.9241 18.692,-7.5613"
         fill="none"
         stroke-linecap="round"
         stroke-linejoin="round"
         stroke-width="0.64488"
         id="path19788" />
      <path
         d="m 86.437,1032.3 c -4.8497,-1.5654 -10.633,-5.6198 -16.136,-8.9268"
         fill="none"
         stroke-linecap="round"
         stroke-linejoin="round"
         stroke-width="0.64488"
         id="path19790" />
      <path
         d="m 84.5,1015.8 c -3.0869,3.506 -7.9671,5.7567 -13.395,7.6239"
         fill="none"
         stroke-linecap="round"
         stroke-linejoin="round"
         stroke-width="0.64488"
         id="path19792" />
      <path
         d="m 43.229,1009.8 c 0,0 2.6978,0.5443 4.0587,0.7445 1.8477,0.2718 3.7511,0.1887 5.5685,0.6187 1.4061,0.3327 2.8048,0.7973 4.0659,1.5026 0.91565,0.5122 1.6341,1.3171 2.4749,1.9446 2.0833,1.5548 4.1595,3.1301 6.364,4.5078 3.9022,2.4388 8.6446,3.6006 12.109,6.6291 0.52354,0.4576 1.2374,1.6794 1.2374,1.6794 0,0 -3.2703,0.4418 -4.9497,0.088 -1.6793,-0.3537 -7.0792,-0.5846 -10.518,-1.4142 -3.5238,-0.85 -6.9376,-2.1584 -10.253,-3.624 -2.9056,-1.2844 -5.9509,-2.4807 -8.3969,-4.5078 -0.75816,-0.6283 -1.8562,-2.2981 -1.8562,-2.2981 z"
         fill="#e9c13a"
         fill-rule="evenodd"
         stroke-linecap="round"
         stroke-linejoin="round"
         stroke-width="1px"
         id="path19794" />
      <path
         d="m 28.425,993.87 8.4326,30.824"
         fill="none"
         stroke-linecap="round"
         stroke-linejoin="round"
         stroke-width="0.64488"
         id="path19796" />
      <path
         d="m 43.181,1012.7 c 8.7998,1.9658 20.193,10.366 28.974,12.906"
         fill="none"
         stroke-linecap="round"
         stroke-linejoin="round"
         stroke-width="0.64488"
         id="path19798" />
      <path
         d="m 30.312,996.92 c 0,0 0.04758,4.5963 0.3125,6.875 0.20809,1.7899 0.50347,3.5803 1,5.3125 0.64709,2.2574 1.3994,4.5224 2.5625,6.5625 0.60272,1.0572 1.4094,1.9951 2.25,2.875 1.347,1.4101 2.8614,2.6641 4.4375,3.8125 1.5796,1.1509 3.3107,2.0795 5,3.0625 1.9746,1.149 6,3.3125 6,3.3125 0,0 -1.278,-3.9948 -2.0625,-5.9375 -1.2635,-3.1288 -2.6009,-6.2437 -4.25,-9.1875 -1.2115,-2.1626 -2.5412,-4.2806 -4.125,-6.1875 -1.4684,-1.768 -3.2684,-3.2326 -4.9375,-4.8125 C 34.465,1000.6817 30.312,996.92 30.312,996.92 Z"
         fill="#e9c13a"
         fill-rule="evenodd"
         stroke-linecap="round"
         stroke-linejoin="round"
         stroke-width="1px"
         id="path19800" />
      <path
         d="m 39.688,994.42 c 0.99497,0.0629 2.0301,0.14963 2.9375,0.5625 1.7829,0.81119 3.1386,2.3492 4.625,3.625 1.0625,0.91194 1.9444,2.0322 3.0625,2.875 1.2012,0.9054 2.5297,1.6397 3.875,2.3125 2.6989,1.3499 8.375,3.4375 8.375,3.4375 0,0 -1.5664,0.5283 -2.375,0.6875 -1.9119,0.3765 -3.8652,0.6986 -5.8125,0.625 -1.9477,-0.074 -3.9239,-0.3809 -5.75,-1.0625 -1.5398,-0.5747 -2.9563,-1.2855 -4.3826,-2.1023 -1.2625,-0.723 -2.5441,-1.6135 -3.6799,-2.5227 -1.0252,-0.8206 -1.8448,-1.8813 -2.625,-2.9375 -0.76637,-1.0374 -2,-3.3125 -2,-3.3125 l -0.2185,-1.9376 c 0,0 2.6457,-0.3336 3.9685,-0.24995 z"
         fill="#e9c13a"
         fill-rule="evenodd"
         stroke-linecap="round"
         stroke-linejoin="round"
         stroke-width="1px"
         id="path19802" />
      <path
         d="m 24.133,930.43 c 0,0 -2.3475,4.2133 -3.2922,6.4273 -0.78224,1.8331 -1.4691,3.7175 -1.9561,5.6502 -1.0843,4.3032 -2.128,13.142 -2.128,13.142 v 14.486 l 2.4625,18.285 c 0,0 1.5629,-4.6952 2.2812,-7.0625 0.55341,-1.8238 1.169,-3.6352 1.5625,-5.5 0.65145,-3.0875 1.0249,-6.2327 1.3125,-9.375 0.34973,-3.821 0.45834,-7.6633 0.5,-11.5 0.04163,-3.834 -0.11156,-7.6683 -0.25,-11.5 -0.15381,-4.2573 -0.645,-12.764 -0.645,-12.764"
         fill="#e9c13a"
         fill-rule="evenodd"
         stroke-linecap="round"
         stroke-linejoin="round"
         stroke-width="1px"
         id="path19804" />
      <path
         d="m 104.21,1000.1 c 0,0 -3.6672,1.9911 -5.3033,3.2704 -1.5264,1.1935 -2.9211,2.5713 -4.1543,4.0658 -1.191,1.4434 -2.1524,3.0672 -3.0936,4.6846 -0.98083,1.6855 -1.6127,3.5646 -2.6517,5.2149 -1.1591,1.8412 -3.967,5.1831 -3.967,5.1831 l 2.7919,-0.5892 c 0,0 3.7176,-2.3315 5.4178,-3.71 1.3921,-1.1287 2.5834,-2.4847 3.8891,-3.7123 0.78988,-0.7426 1.6901,-1.3788 2.3865,-2.2097 0.62999,-0.7516 1.1227,-1.6132 1.591,-2.4749 0.47849,-0.8805 0.91616,-1.7907 1.2374,-2.74 0.41699,-1.2321 0.54633,-2.5446 0.88388,-3.8007 0.28782,-1.0711 0.97227,-3.182 0.97227,-3.182 z"
         fill="#e9c13a"
         fill-rule="evenodd"
         stroke-linecap="round"
         stroke-linejoin="round"
         stroke-width="1px"
         id="path19806" />
      <path
         d="m 81.052,1023.3 c 0,0 2.4664,1.4293 3.7123,2.1214 1.8439,1.0242 3.6326,2.1677 5.5685,3.0052 1.8812,0.8139 3.9071,1.2445 5.8336,1.9445 1.9643,0.7137 3.8376,1.6784 5.8336,2.2981 1.5016,0.4662 4.5962,1.0607 4.5962,1.0607 0,0 -1.1029,-1.9947 -1.7678,-2.9169 -0.90457,-1.2546 -1.8091,-2.5549 -3.0052,-3.5355 -1.1729,-0.9616 -2.5872,-1.6035 -3.9775,-2.2097 -1.3067,-0.5697 -2.6653,-1.06 -4.0659,-1.3258 -1.4499,-0.2752 -2.9467,-0.1701 -4.4194,-0.2652 -2.3341,-0.1507 -7.0001,-0.4838 -7.0001,-0.4838 z"
         fill="#e9c13a"
         fill-rule="evenodd"
         stroke-linecap="round"
         stroke-linejoin="round"
         stroke-width="1px"
         id="path19808" />
      <path
         d="m 94.69,1019.9 c 0,0 4.158,1.4055 6.1848,2.2429 2.4637,1.0179 4.8584,2.1977 7.25,3.375 2.1485,1.0577 6.1249,3.2502 6.375,3.3125 0.24994,0.062 2.5,1.5 2.5,1.5 0,0 -1.2241,-2.2916 -1.9375,-3.375 -0.68745,-1.044 -1.4007,-2.0828 -2.25,-3 -0.92281,-0.9965 -1.9686,-1.8825 -3.0625,-2.6875 -0.70793,-0.521 -1.4213,-1.0821 -2.25,-1.375 -0.75286,-0.2661 -1.5786,-0.2552 -2.375,-0.3125 -1.621,-0.1165 -3.2499,-0.054 -4.875,-0.062 -1.5319,-0.01 -4.5956,0.012 -4.5956,0.012 z"
         fill="#e9c13a"
         fill-rule="evenodd"
         stroke-linecap="round"
         stroke-linejoin="round"
         stroke-width="1px"
         id="path19810" />
      <path
         d="m 115.94,985.86 c 0.0588,-0.31804 -0.0133,-0.74973 0.25,-0.9375 0.23808,-0.16977 0.62978,-0.0968 0.875,0.0625 0.59401,0.38585 0.74937,1.2125 1,1.875 0.92438,2.4435 1.5489,5.0258 1.8125,7.625 0.13459,1.3272 0.0654,2.6797 -0.125,4 -0.35338,2.4507 -0.86735,4.9258 -1.875,7.1875 -0.47736,1.0714 -1.1586,2.0605 -1.9375,2.9375 -1.0504,1.1827 -2.3628,2.109 -3.625,3.0625 -1.042,0.7871 -2.0963,1.5757 -3.25,2.1875 -2.6672,1.4145 -8.4018,3.3828 -8.4018,3.3828 0,0 3.558,-2.9641 4.9018,-4.8203 1.2948,-1.7886 2.1867,-3.8609 2.9375,-5.9375 0.48793,-1.3496 0.71856,-2.7803 1,-4.1875 0.28144,-1.4072 0.37368,-2.8496 0.6875,-4.25 0.27972,-1.2482 0.57714,-2.504 1.0625,-3.6875 0.41385,-1.0092 0.97683,-1.9549 1.5625,-2.875 0.58396,-0.91745 1.3388,-1.7171 1.9375,-2.625 0.38556,-0.58463 0.84383,-1.1472 1.0625,-1.8125 0.12428,-0.37812 0.0527,-0.79611 0.125,-1.1875 z"
         fill="#e9c13a"
         fill-rule="evenodd"
         stroke-linecap="round"
         stroke-linejoin="round"
         stroke-width="1px"
         id="path19812" />
      <path
         d="m 110.31,1015.4 c 0,0 3.2602,-1.77 4.6875,-2.9375 1.3117,-1.073 2.3096,-2.4814 3.5,-3.6875 0.79688,-0.8074 1.5881,-1.623 2.4375,-2.375 1.1206,-0.9921 2.1959,-2.0781 3.5,-2.8125 1.2749,-0.7179 2.718,-1.0989 4.125,-1.5 1.2692,-0.3618 3.875,-0.8125 3.875,-0.8125 0,0 -1.4098,2.4776 -2.25,3.625 -0.79435,1.0848 -1.6415,2.1458 -2.625,3.0625 -1.1766,1.0966 -2.4467,2.1356 -3.875,2.875 -1.2462,0.6451 -2.6429,0.9555 -4,1.3125 -0.71914,0.1892 -1.476,0.2214 -2.1875,0.4375 -2.5025,0.7601 -7.25,3 -7.25,3"
         fill="#e9c13a"
         fill-rule="evenodd"
         stroke-linecap="round"
         stroke-linejoin="round"
         stroke-width="1px"
         id="path19814" />
      <path
         d="m 116.31,991.74 c 0.021,9.8014 -4.282,17.477 -11.204,23.866"
         fill="none"
         stroke-linecap="round"
         stroke-linejoin="round"
         stroke-width="0.64488"
         id="path19816" />
      <path
         d="m 100.66,1017.2 c 0,0 3.199,-1.5665 4.8392,-2.2578 0.9235,-0.3892 1.8492,-0.7862 2.8125,-1.0625 1.1232,-0.3221 2.2762,-0.5579 3.4375,-0.6875 0.82845,-0.092 1.6677,-0.1088 2.5,-0.062 1.2178,0.068 2.4088,0.4061 3.625,0.5 1.2049,0.093 2.4172,0.1019 3.625,0.062 1.2536,-0.041 2.4981,-0.2337 3.75,-0.3125 0.97812,-0.062 1.9637,-0.2358 2.9375,-0.125 0.62271,0.071 1.5735,-0.079 1.8125,0.5 0.19215,0.4658 -0.40274,0.9474 -0.75,1.3125 -0.8523,0.8962 -2.0211,1.4423 -3.125,2 -1.4539,0.7345 -2.9908,1.3223 -4.5625,1.75 -1.1005,0.2995 -2.2346,0.5445 -3.375,0.5625 -1.4082,0.022 -2.8155,-0.2447 -4.1875,-0.5625 -0.96272,-0.223 -1.8738,-0.6285 -2.8125,-0.9375 -0.83231,-0.274 -1.6399,-0.6451 -2.5,-0.8125 -1.4555,-0.2833 -2.9552,-0.3519 -4.4375,-0.3125 -1.2052,0.032 -3.5892,0.4453 -3.5892,0.4453 z"
         fill="#e9c13a"
         fill-rule="evenodd"
         stroke-linecap="round"
         stroke-linejoin="round"
         stroke-width="1px"
         id="path19818" />
      <path
         d="m 123.04,960.88 c 0,0 -2.1506,8.1858 -2.6516,12.374 -0.25906,2.1656 -0.17492,4.3597 -0.17679,6.5407 -0.002,2.3283 -0.0616,4.6666 0.17678,6.9827 0.20239,1.966 0.87937,3.8655 1.0607,5.8336 0.20749,2.2524 0.0262,6.7858 0.0262,6.7858 1.5151,-0.91924 2.2221,-2.3655 3.2271,-3.6878 0.48214,-0.89424 1.2416,-2.3592 1.4464,-3.3543 0.69308,-3.3685 1.188,-5.9455 1.399,-9.378 0.16096,-2.6174 0.43496,-5.2672 0.0884,-7.8666 -0.27117,-2.0338 -1.0594,-3.9661 -1.6794,-5.922 -0.88695,-2.798 -2.9168,-8.3085 -2.9168,-8.3085 z"
         fill="#e9c13a"
         fill-rule="evenodd"
         stroke-linecap="round"
         stroke-linejoin="round"
         stroke-width="1px"
         id="path19820" />
      <path
         d="m 124.89,918.1 c 0,0 -2.1031,4.5553 -3.0052,6.8943 -0.99572,2.5818 -2.0634,5.1626 -2.6516,7.8666 -1.0326,4.7468 -1.2955,9.6423 -1.5026,14.496 -0.13942,3.2679 -0.102,6.5521 0.17678,9.8111 0.4624,5.4056 2.4749,16.087 2.4749,16.087 0,0 1.911,-8.2215 2.6516,-12.374 0.58527,-3.2816 1.0058,-6.5913 1.4142,-9.8995 0.52269,-4.2334 1.0648,-8.4703 1.3258,-12.728 0.19298,-3.1472 0.30312,-6.307 0.17678,-9.4576 -0.14355,-3.5796 -1.0607,-10.695 -1.0607,-10.695 z"
         fill="#1780ce"
         fill-rule="evenodd"
         stroke-linecap="round"
         stroke-linejoin="round"
         stroke-width="1px"
         id="path19822" />
      <path
         d="m 123.31,928.49 c -2.1139,13.265 -1.9896,27.391 -2.7265,41.186"
         fill="none"
         stroke-linecap="round"
         stroke-linejoin="round"
         stroke-width="0.64488"
         id="path19824" />
      <path
         d="m 111.72,927.56 c 0,0 -0.0389,5.5418 0.0884,8.3085 0.18339,3.9864 0.28465,8.0015 0.97227,11.932 0.36823,2.105 1.1428,4.1186 1.6794,6.1872 0.7392,2.8498 1.2738,5.7542 2.1213,8.5737 1.0891,3.6233 3.8007,10.695 3.8007,10.695 0,0 0.31725,-5.0651 0.35355,-7.6014 0.0472,-3.3 0.0135,-6.6046 -0.17677,-9.8995 -0.15702,-2.719 -0.33949,-5.4467 -0.7955,-8.1317 -0.39603,-2.3319 -0.99285,-4.6308 -1.6794,-6.8943 -0.57353,-1.8909 -1.2021,-3.7756 -2.0329,-5.5685 -1.2262,-2.6459 -4.331,-7.6014 -4.331,-7.6014 z"
         fill="#1780ce"
         fill-rule="evenodd"
         stroke-linecap="round"
         stroke-linejoin="round"
         stroke-width="1px"
         id="path19826" />
      <g
         stroke-linecap="round"
         stroke-linejoin="round"
         id="g19844">
        <circle
           cx="76.181"
           cy="965.54999"
           r="42.02"
           fill="#f4f2ef"
           opacity="1"
           stroke-width="0.99921"
           id="circle19828" />
        <circle
           cx="76.181"
           cy="965.54999"
           r="38.477001"
           enable-background="new"
           opacity="1"
           stroke-width="0.99921"
           id="circle19830" />
        <circle
           cx="76.181"
           cy="965.54999"
           r="34.932999"
           enable-background="new"
           opacity="1"
           stroke-width="0.99921"
           id="circle19832" />
        <path
           d="m 111.11,965.55 -7.267,2.4205 6.7363,3.6456 -7.577,1.1218 6.0009,4.76 -7.6566,-0.21095 5.0832,5.7297 -7.5037,-1.5373 4.011,6.5254 -7.1227,-2.817 2.817,7.1227 -6.5254,-4.011 1.5373,7.5037 -5.7297,-5.0832 0.21095,7.6566 -4.76,-6.0009 -1.1218,7.577 -3.6456,-6.7363 -2.4205,7.26695 -2.4205,-7.26695 -3.6456,6.7363 -1.1218,-7.577 -4.76,6.0009 0.21095,-7.6566 -5.7297,5.0832 1.5373,-7.5037 -6.5254,4.011 2.817,-7.1228 -7.1227,2.817 4.011,-6.5254 -7.5037,1.5373 5.0832,-5.7297 -7.6566,0.21095 6.0009,-4.76 -7.577,-1.1218 6.7363,-3.6456 -7.267,-2.4205 7.267,-2.4205 -6.7363,-3.6456 7.577,-1.1218 -6.0009,-4.76 7.6566,0.21095 -5.0832,-5.7297 7.5037,1.5373 -4.011,-6.5254 7.1227,2.817 -2.817,-7.1228 6.5254,4.011 -1.5373,-7.5037 5.7297,5.0832 -0.21095,-7.6566 4.76,6.0009 1.1218,-7.577 3.6456,6.7363 2.4205,-7.267 2.4205,7.267 3.6456,-6.7363 1.1218,7.577 4.76,-6.0009 -0.21095,7.6566 5.7297,-5.0832 -1.5373,7.5037 6.5254,-4.011 -2.817,7.1227 7.1227,-2.817 -4.011,6.5254 7.5037,-1.5373 -5.0832,5.7297 7.6566,-0.21096 -6.0009,4.76 7.577,1.1218 -6.7363,3.6456 z"
           enable-background="new"
           fill="#dd1d1d"
           opacity="1"
           stroke-width="0.99921"
           id="path19834" />
        <path
           d="m 93.898,972.64 c 0,0 -5.9,0.6123 -7.8159,2.5755 -1.9159,1.9632 -2.3841,7.8764 -2.3841,7.8764 0,0 -4.6049,-3.739 -7.3478,-3.7056 -2.7429,0.033 -7.2553,3.8836 -7.2553,3.8836 0,0 -0.6123,-5.9 -2.5755,-7.8159 -1.9632,-1.9159 -7.8764,-2.3841 -7.8764,-2.3841 0,0 3.739,-4.6049 3.7056,-7.3478 -0.0335,-2.7429 -3.8836,-7.2553 -3.8836,-7.2553 0,0 5.9,-0.61229 7.8159,-2.5755 1.9159,-1.9632 2.3841,-7.8764 2.3841,-7.8764 0,0 4.6049,3.739 7.3478,3.7056 2.7429,-0.0335 7.2553,-3.8836 7.2553,-3.8836 0,0 0.6123,5.9 2.5755,7.8159 1.9632,1.9159 7.8764,2.3841 7.8764,2.3841 0,0 -3.739,4.6049 -3.7056,7.3478 0.0335,2.7429 3.8836,7.2553 3.8836,7.2553 z"
           opacity="1"
           stroke-width="0.99921"
           id="path19836" />
        <circle
           cx="76.181"
           cy="965.54999"
           r="12.965"
           opacity="1"
           stroke-width="0.99921"
           id="circle19838" />
        <circle
           cx="76.181"
           cy="965.54999"
           r="9.2445002"
           enable-background="new"
           fill="#dd1d1d"
           opacity="1"
           stroke-width="0.99921"
           id="circle19840" />
        <circle
           cx="76.181"
           cy="965.54999"
           r="6.5869999"
           opacity="1"
           stroke-width="1.3535"
           id="circle19842" />
      </g>
      <g
         stroke-linecap="round"
         stroke-linejoin="round"
         id="g19862">
        <circle
           cx="76.181"
           cy="827.35999"
           r="42.02"
           fill="#f4f2ef"
           opacity="1"
           stroke-width="0.99921"
           id="circle19846" />
        <circle
           cx="76.181"
           cy="827.35999"
           r="38.477001"
           enable-background="new"
           opacity="1"
           stroke-width="0.99921"
           id="circle19848" />
        <circle
           cx="76.181"
           cy="827.35999"
           r="34.932999"
           enable-background="new"
           opacity="1"
           stroke-width="0.99921"
           id="circle19850" />
        <path
           d="m 111.11,827.36 -7.267,2.4205 6.7363,3.6456 -7.577,1.1218 6.0009,4.76 -7.6566,-0.21095 5.0832,5.7297 -7.5037,-1.5373 4.011,6.5254 -7.1227,-2.817 2.817,7.1227 -6.5254,-4.011 1.5373,7.5037 -5.7297,-5.0832 0.21095,7.6566 -4.76,-6.0009 -1.1218,7.577 -3.6456,-6.7363 -2.4205,7.267 -2.4205,-7.267 -3.6456,6.7363 -1.1218,-7.577 -4.76,6.0009 0.21095,-7.6566 -5.7297,5.0832 1.5373,-7.5037 -6.5254,4.011 2.817,-7.1227 -7.1227,2.817 4.011,-6.5254 -7.5037,1.5373 5.0832,-5.7297 -7.6566,0.21095 6.0009,-4.76 -7.577,-1.1218 6.7363,-3.6456 -7.267,-2.4205 7.267,-2.4205 -6.7363,-3.6456 7.577,-1.1218 -6.0009,-4.76 7.6566,0.21095 -5.0832,-5.7297 7.5037,1.5373 -4.011,-6.5254 7.1227,2.817 -2.817,-7.1227 6.5254,4.011 -1.5373,-7.5037 5.7297,5.0832 -0.21095,-7.6566 4.76,6.0009 1.1218,-7.577 3.6456,6.7363 2.4205,-7.267 2.4205,7.267 3.6456,-6.7363 1.1218,7.577 4.76,-6.0009 -0.21095,7.6566 5.7297,-5.0832 -1.5373,7.5037 6.5254,-4.011 -2.817,7.1227 7.1227,-2.817 -4.011,6.5254 7.5037,-1.5373 -5.0832,5.7297 7.6566,-0.21095 -6.0009,4.76 7.577,1.1218 -6.7363,3.6456 z"
           enable-background="new"
           fill="#dd1d1d"
           opacity="1"
           stroke-width="0.99921"
           id="path19852" />
        <path
           d="m 93.898,834.45 c 0,0 -5.9,0.6123 -7.8159,2.5755 -1.9159,1.9632 -2.3841,7.8764 -2.3841,7.8764 0,0 -4.6049,-3.739 -7.3478,-3.7056 -2.7429,0.033 -7.2553,3.8836 -7.2553,3.8836 0,0 -0.6123,-5.9 -2.5755,-7.8159 -1.9632,-1.9159 -7.8764,-2.3841 -7.8764,-2.3841 0,0 3.739,-4.6049 3.7056,-7.3478 -0.0335,-2.7429 -3.8836,-7.2553 -3.8836,-7.2553 0,0 5.9,-0.61229 7.8159,-2.5755 1.9159,-1.9632 2.3841,-7.8764 2.3841,-7.8764 0,0 4.6049,3.739 7.3478,3.7056 2.7429,-0.0335 7.2553,-3.8836 7.2553,-3.8836 0,0 0.6123,5.9 2.5755,7.8159 1.9632,1.9159 7.8764,2.3841 7.8764,2.3841 0,0 -3.739,4.6049 -3.7056,7.3478 0.0335,2.7429 3.8836,7.2553 3.8836,7.2553 z"
           opacity="1"
           stroke-width="0.99921"
           id="path19854" />
        <circle
           cx="76.181"
           cy="827.35999"
           r="12.965"
           opacity="1"
           stroke-width="0.99921"
           id="circle19856" />
        <circle
           cx="76.181"
           cy="827.35999"
           r="9.2445002"
           enable-background="new"
           fill="#dd1d1d"
           opacity="1"
           stroke-width="0.99921"
           id="circle19858" />
        <circle
           cx="76.181"
           cy="827.35999"
           r="6.5869999"
           opacity="1"
           stroke-width="1.3535"
           id="circle19860" />
      </g>
      <path
         d="m 132.94,852.21 c -0.85176,-10.405 -2.2279,-14.6 -4.5606,-20.352"
         fill="none"
         stroke-linecap="round"
         stroke-linejoin="round"
         stroke-width="0.64488"
         id="path19864" />
      <path
         d="m 123.48,791.52 c -0.5511,-5.0316 -0.46489,-13.188 -1.9064,-18.292"
         fill="none"
         stroke-linecap="round"
         stroke-linejoin="round"
         stroke-width="0.64488"
         id="path19866" />
      <path
         d="m 123.99,792.17 c -5.3578,-0.17956 -10.684,-0.34865 -12.933,0.50806"
         fill="none"
         stroke-linecap="round"
         stroke-linejoin="round"
         stroke-width="0.64488"
         id="path19868" />
      <path
         d="m 115.01,782.81 c 0.48581,-0.49174 -4.209,-14.089 -5.0098,-14.089"
         fill="none"
         stroke-linecap="round"
         stroke-linejoin="round"
         stroke-width="0.64488"
         id="path19870" />
      <path
         d="m 114.42,782.32 c -6.0383,0.90628 -11.029,2.0591 -13.081,3.9032"
         fill="none"
         stroke-linecap="round"
         stroke-linejoin="round"
         stroke-width="0.64488"
         id="path19872" />
      <path
         d="m 106.04,776.68 c -1.7767,-2.8038 -3.459,-5.6075 -4.8839,-8.4113"
         fill="none"
         stroke-linecap="round"
         stroke-linejoin="round"
         stroke-width="0.64488"
         id="path19874" />
      <path
         d="m 106.86,777.14 c -6.1695,0.8915 -10.409,2.4055 -12.926,4.4754"
         fill="none"
         stroke-linecap="round"
         stroke-linejoin="round"
         stroke-width="0.64488"
         id="path19876" />
      <path
         d="m 95.291,772.13 c -3.4432,-3.8235 -7.3157,-7.3036 -12.516,-9.7216"
         fill="none"
         stroke-linecap="round"
         stroke-linejoin="round"
         stroke-width="0.64488"
         id="path19878" />
      <path
         d="m 95.918,772.32 c -5.0639,1.7199 -9.0919,4.8513 -12.877,6.9198"
         fill="none"
         stroke-linecap="round"
         stroke-linejoin="round"
         stroke-width="0.64488"
         id="path19880" />
      <path
         d="m 89.039,770.41 c -11.376,0.70442 -13.374,5.069 -18.505,8.2106"
         fill="none"
         stroke-linecap="round"
         stroke-linejoin="round"
         stroke-width="0.64488"
         id="path19882" />
      <path
         d="m 75.644,769.49 c -5.8307,-3.3727 -11.483,-6.3433 -16.379,-7.614"
         fill="none"
         stroke-linecap="round"
         stroke-linejoin="round"
         stroke-width="0.64488"
         id="path19884" />
      <path
         d="m 74.084,769.97 c -5.5334,1.068 -12.077,6.4026 -12.654,10.778"
         fill="none"
         stroke-linecap="round"
         stroke-linejoin="round"
         stroke-width="0.64488"
         id="path19886" />
      <path
         d="m 60.737,772 c -4.744,-1.0132 -9.3943,-2.195 -13.317,-4.6868"
         fill="none"
         stroke-linecap="round"
         stroke-linejoin="round"
         stroke-width="0.64488"
         id="path19888" />
      <path
         d="m 60.02,772.24 c -5.7115,5.0023 -9.052,10.682 -11.274,16.681"
         fill="none"
         stroke-linecap="round"
         stroke-linejoin="round"
         stroke-width="0.64488"
         id="path19890" />
      <path
         d="m 49.997,776.59 c -7.8372,-0.20858 -15.833,-1.0122 -23.039,1.1478"
         fill="none"
         stroke-linecap="round"
         stroke-linejoin="round"
         stroke-width="0.64488"
         id="path19892" />
      <path
         d="m 45.472,779.43 c -4.4151,3.1267 -6.6987,13.621 -8.565,21.683"
         fill="none"
         stroke-linecap="round"
         stroke-linejoin="round"
         stroke-width="0.64488"
         id="path19894" />
      <path
         d="m 35.313,788.12 c -4.4391,1.1688 -9.4189,2.0221 -12.956,3.7169"
         fill="none"
         stroke-linecap="round"
         stroke-linejoin="round"
         stroke-width="0.64488"
         id="path19896" />
      <path
         d="m 30.57,794.08 c -1.6162,6.359 -3.2123,15.784 -2.8217,22.839"
         fill="none"
         stroke-linecap="round"
         stroke-linejoin="round"
         stroke-width="0.64488"
         id="path19898" />
      <path
         d="m 22.247,810.3 c -1.6608,5.2198 -1.9001,10.946 -0.98946,17.111 0.91524,6.1965 3.4463,9.536 5.5479,13.65"
         fill="none"
         stroke-linecap="round"
         stroke-linejoin="round"
         stroke-width="0.64488"
         id="path19900" />
      <path
         d="m 21.482,840.49 c 0.86499,3.0467 -2.3453,3.0105 3.2948,9.9746 2.8205,3.4826 4.3481,2.7938 6.0985,3.7994"
         fill="none"
         stroke-linecap="round"
         stroke-linejoin="round"
         stroke-width="0.64488"
         id="path19902" />
      <path
         d="m 31.312,876.08 c -0.88724,-8.0451 -4.064,-14.055 -6.2868,-20.913"
         fill="none"
         stroke-linecap="round"
         stroke-linejoin="round"
         stroke-width="0.64488"
         id="path19904" />
      <path
         d="m 36.328,868.09 c 1.7371,5.927 3.2906,13.689 5.3278,16.615"
         fill="none"
         stroke-linecap="round"
         stroke-linejoin="round"
         stroke-width="0.64488"
         id="path19906" />
      <path
         d="m 51.044,880.09 c -2.4271,-1.2754 -5.9994,-3.0008 -7.513,-4.4636 -1.5136,-1.4628 -7.1318,-6.735 -7.1318,-6.735"
         fill="none"
         stroke-linecap="round"
         stroke-linejoin="round"
         stroke-width="0.64488"
         id="path19908" />
      <path
         d="m 60.87,894.14 c -0.66803,3.2592 -0.71098,6.9352 -0.6826,10.659"
         fill="none"
         stroke-linecap="round"
         stroke-linejoin="round"
         stroke-width="0.64488"
         id="path19910" />
      <path
         d="m 54.154,894.55 c -1.8978,6.6056 -2.7887,11.421 -2.9036,16.372"
         fill="none"
         stroke-linecap="round"
         stroke-linejoin="round"
         stroke-width="0.64488"
         id="path19912" />
      <path
         d="m 42.759,905.09 c -1.8812,8.3327 -1.9895,14.76 -1.7592,21.08"
         fill="none"
         stroke-linecap="round"
         stroke-linejoin="round"
         stroke-width="0.64488"
         id="path19914" />
      <path
         d="m 31.853,918.13 c -1.6281,6.776 -2.9582,17.377 -1.417,25.421"
         fill="none"
         stroke-linecap="round"
         stroke-linejoin="round"
         stroke-width="0.64488"
         id="path19916" />
      <path
         d="m 22.538,933.5 c -1.3851,13.209 -2.9997,33.397 -2.5318,42.335"
         fill="none"
         stroke-linecap="round"
         stroke-linejoin="round"
         stroke-width="0.64488"
         id="path19918" />
      <path
         d="m 26,968.49 c 0.62234,9.1886 2.4612,19.605 6.3401,25.305"
         fill="none"
         stroke-linecap="round"
         stroke-linejoin="round"
         stroke-width="0.64488"
         id="path19920" />
      <path
         d="m 26.709,998.48 c -0.85134,7.5736 -0.56511,15.41 -4.2586,22.327"
         fill="none"
         stroke-linecap="round"
         stroke-linejoin="round"
         stroke-width="0.64488"
         id="path19922" />
      <path
         d="m 30.312,996.92 c 4.3001,9.0597 8.2743,19.051 14.147,23.618"
         fill="none"
         stroke-linecap="round"
         stroke-linejoin="round"
         stroke-width="0.64488"
         id="path19924" />
      <path
         d="m 35.828,995.64 c 6.779,2.031 13.23,10.323 18.089,10.58"
         fill="none"
         stroke-linecap="round"
         stroke-linejoin="round"
         stroke-width="0.64488"
         id="path19926" />
      <path
         d="m 100.44,1029.6 c -6.5278,-3.392 -12.518,-4.4565 -18.731,-6.4833"
         fill="none"
         stroke-linecap="round"
         stroke-linejoin="round"
         stroke-width="0.64488"
         id="path19928" />
      <path
         d="m 86.436,1022.2 c 4.0493,-4.5487 10.403,-10.43 12.994,-15.764"
         fill="none"
         stroke-linecap="round"
         stroke-linejoin="round"
         stroke-width="0.64488"
         id="path19930" />
      <path
         d="m 110.19,1024.2 c -4.9191,-3.13 -9.9858,-3.456 -15.015,-4.4902"
         fill="none"
         stroke-linecap="round"
         stroke-linejoin="round"
         stroke-width="0.64488"
         id="path19932" />
      <path
         d="m 103.72,1015.8 c 5.9044,-2.1946 14.581,2.1656 20.097,0.2624"
         fill="none"
         stroke-linecap="round"
         stroke-linejoin="round"
         stroke-width="0.64488"
         id="path19934" />
      <path
         d="m 127.56,1004.4 c -3.0499,3.6173 -7.563,6.4217 -12.727,8.8646"
         fill="none"
         stroke-linecap="round"
         stroke-linejoin="round"
         stroke-width="0.64488"
         id="path19936" />
      <path
         d="m 123.89,971.71 c 0.77184,8.9829 0.33199,18.984 -2.0431,27.151"
         fill="none"
         stroke-linecap="round"
         stroke-linejoin="round"
         stroke-width="0.64488"
         id="path19938" />
      <path
         d="m 131.22,968.18 c -1.4808,11.285 -1.571,24.079 -8.9957,29.691"
         fill="none"
         stroke-linecap="round"
         stroke-linejoin="round"
         stroke-width="0.64488"
         id="path19940" />
      <path
         d="m 113.62,935.31 c 5.7965,12.54 4.6809,25.668 6.8155,37.058"
         fill="none"
         stroke-linecap="round"
         stroke-linejoin="round"
         stroke-width="0.64488"
         id="path19942" />
    </g>
  </g>
</svg>
