<?xml version="1.0" encoding="UTF-8" standalone="no"?>
<svg
   width="42.999779mm"
   height="87.997749mm"
   enable-background="new"
   version="1.1"
   viewBox="0 0 152.36255 311.80208"
   id="svg20076"
   sodipodi:docname="Mazzo.svg"
   inkscape:version="1.2.1 (9c6d41e410, 2022-07-14)"
   xmlns:inkscape="http://www.inkscape.org/namespaces/inkscape"
   xmlns:sodipodi="http://sodipodi.sourceforge.net/DTD/sodipodi-0.dtd"
   xmlns="http://www.w3.org/2000/svg"
   xmlns:svg="http://www.w3.org/2000/svg"
   xmlns:rdf="http://www.w3.org/1999/02/22-rdf-syntax-ns#"
   xmlns:cc="http://creativecommons.org/ns#"
   xmlns:dc="http://purl.org/dc/elements/1.1/">
  <sodipodi:namedview
     id="namedview20078"
     pagecolor="#ffffff"
     bordercolor="#000000"
     borderopacity="0.25"
     inkscape:showpageshadow="2"
     inkscape:pageopacity="0.0"
     inkscape:pagecheckerboard="0"
     inkscape:deskcolor="#d1d1d1"
     inkscape:document-units="mm"
     showgrid="false"
     inkscape:zoom="2.8284271"
     inkscape:cx="196.57568"
     inkscape:cy="470.75634"
     inkscape:window-width="2560"
     inkscape:window-height="1409"
     inkscape:window-x="0"
     inkscape:window-y="31"
     inkscape:window-maximized="1"
     inkscape:current-layer="svg20076" />
  <title
     id="title2">Bresciane</title>
  <defs
     id="defs191" />
  <metadata
     id="metadata193">
    <rdf:RDF>
      <cc:Work
         rdf:about="">
        <dc:format>image/svg+xml</dc:format>
        <dc:type
           rdf:resource="http://purl.org/dc/dcmitype/StillImage" />
        <dc:title>Bresciane</dc:title>
        <dc:date>2020</dc:date>
        <dc:creator>
          <cc:Agent>
            <dc:title>ZZandro</dc:title>
          </cc:Agent>
        </dc:creator>
        <dc:rights>
          <cc:Agent>
            <dc:title />
          </cc:Agent>
        </dc:rights>
        <cc:license
           rdf:resource="http://creativecommons.org/licenses/by-sa/4.0/" />
      </cc:Work>
      <cc:License
         rdf:about="http://creativecommons.org/licenses/by-sa/4.0/">
        <cc:permits
           rdf:resource="http://creativecommons.org/ns#Reproduction" />
        <cc:permits
           rdf:resource="http://creativecommons.org/ns#Distribution" />
        <cc:requires
           rdf:resource="http://creativecommons.org/ns#Notice" />
        <cc:requires
           rdf:resource="http://creativecommons.org/ns#Attribution" />
        <cc:permits
           rdf:resource="http://creativecommons.org/ns#DerivativeWorks" />
        <cc:requires
           rdf:resource="http://creativecommons.org/ns#ShareAlike" />
      </cc:License>
    </rdf:RDF>
  </metadata>
  <g
     id="g5829"
     style="display:inline"
     transform="translate(-481.87848,-953.15395)">
    <g
       transform="matrix(0.97008,0,0,0.9964,-484.04,-794.35)"
       enable-background="new"
       fill="#f4f2ef"
       id="g5475">
      <g
         transform="matrix(0.70046,0,0,1.0004,298.31,-0.79223)"
         fill="#f4f2ef"
         id="g5473">
        <rect
           x="996.13"
           y="1754.4"
           width="223.23"
           height="311.81"
           rx="10.63"
           ry="10.63"
           fill="#f4f2ef"
           stroke="#000000"
           stroke-width="0.99673"
           id="rect5471" />
      </g>
    </g>
    <g
       transform="matrix(0.76704,0,0,0.8945,-265.92,-599.69)"
       enable-background="new"
       fill="none"
       id="g5481">
      <g
         transform="matrix(0.70046,0,0,1.0004,298.31,-0.79223)"
         fill="none"
         id="g5479">
        <rect
           x="996.13"
           y="1754.4"
           width="223.23"
           height="311.81"
           rx="10.63"
           ry="10.63"
           fill="none"
           stroke="#000000"
           stroke-width="0.99673"
           id="rect5477" />
      </g>
    </g>
    <g
       transform="translate(233.71,184.87)"
       enable-background="new"
       id="g5491">
      <path
         transform="translate(248.18,27.727)"
         d="m 66.287,892.75 c -2.1262,-0.0568 -4.5482,2.5133 -4.8848,4.5137 -0.10714,0.63665 -0.22972,1.4543 0.07813,2.0527 0.26695,0.51895 0.75568,0.83692 1.0547,1.3281 0.16139,0.26532 0.189,0.58144 0.35352,0.84765 0.28307,0.45812 1.053,1.0572 1.0098,1.6309 -0.0126,0.16683 -0.0795,0.27883 -0.17383,0.36328 v 0.002 c -0.0745,0.0511 -0.25095,0.10428 -0.31641,0.14062 -0.54745,0.30394 -1.0943,0.46154 -1.5176,0.95117 -1.124,1.3 -0.83925,3.2153 -1.8027,4.6113 -0.24189,0.35053 -0.44656,0.71523 -0.85547,0.90235 -0.3775,0.17288 -0.8541,-0.0516 -1.2285,-0.14649 -1.1,-0.27881 -2.5735,-0.74283 -3.4219,-1.4941 -0.39902,-0.35344 -0.5137,-0.89769 -0.99609,-1.2031 -0.71116,-0.45019 -1.2663,-0.303 -2.0234,-0.41016 h -0.0059 c -0.16415,0.14887 -0.43028,0.2009 -0.50977,0.43359 -0.26295,0.76912 1.305,1.101 0.82031,2.0234 v 0.0605 c 0.22335,0.16125 0.49371,0.15218 0.71094,0.30273 0.58268,0.40378 1.064,0.94994 1.6816,1.3281 1.299,0.79528 2.7627,1.3314 4.1113,2.0273 0.39321,0.20288 0.77421,0.50996 1.168,0.68359 0.24538,0.10829 0.56351,4.8e-4 0.78125,0.17579 0.23385,0.18394 0.58636,0.87519 0.69727,1.1543 0.34974,0.88134 -0.14204,1.3813 -0.4668,2.123 -0.21541,0.4921 -0.31195,1.0825 -0.48828,1.5957 -0.26622,0.77456 -0.29853,1.7071 -0.42969,2.5156 -0.19594,1.2078 -0.44507,2.4106 -0.61914,3.623 -0.40037,2.7889 -0.27732,5.5975 -0.40039,8.4082 -0.0522,1.1909 -0.27634,2.3751 -0.35938,3.5606 -0.0387,0.55172 -0.03524,0.78959 -0.08594,1.332 -0.028,0.30084 -0.0709,0.87975 -0.0957,1.1836 -0.053,0.64547 -0.1774,1.2976 -0.27539,1.9512 -0.0844,0.93441 -1.1514,1.4047 -0.57422,2.6445 0.14127,0.9419 1.1818,1.5259 0.79492,2.6465 1.0299,0.93544 0.24794,2.4992 1.2129,3.4648 0.42832,1.3501 1.6147,2.3597 2.1523,3.6504 0.83999,1.0015 3.5071,-0.77007 3.2676,0.73828 -0.7676,2.2403 2.8039,0.76764 2.873,2.4961 0.15174,1.5318 1.0262,0.65646 1.4199,-0.10938 0.72743,-0.30863 1.8121,1.3785 1.9492,0.0117 0.77604,-0.71756 3.1702,-0.58175 1.3594,-1.7305 -0.45908,-0.96562 -2.3611,-1.1772 -2.4375,-1.8516 1.0948,0.43022 2.6244,0.2454 3.1152,1.6113 1.2528,-0.11868 2.6617,1.2763 3.6719,0.3125 -1.4154,-0.0131 -1.2138,-1.891 -2.7637,-1.5684 -0.84924,-0.68044 0.995,-1.146 1.4277,-1.1445 1.1378,0.78694 2.6064,0.90798 3.9121,1.0644 0.96665,0.17175 1.7983,-0.18731 2.5508,0.69141 0.99996,-0.0366 3.1492,0.04 2.3535,-1.5293 -0.88268,0.40997 -1.5553,1.4789 -1.4473,-0.082 0.0576,-0.47813 1.0888,-0.0267 1.3633,-0.5918 1.213,-0.3811 0.74877,1.8643 1.9883,1.4531 0.42101,-0.4185 0.23988,-1.3696 0.76172,-0.29493 0.55941,1.298 -0.38027,1.6731 -1.3672,1.1699 -0.94779,-0.30525 -2.1206,1.049 -0.73828,1.3848 0.26104,-1.2075 1.2513,-0.86327 1.8613,-0.50195 -0.0256,-0.0141 -0.03853,-0.0486 -0.01953,-0.12891 0.28993,-0.0272 0.10917,0.16141 0.02539,0.13281 0.0678,0.0403 0.15314,0.0788 0.20898,0.11719 1.5793,-0.6767 -0.3376,-3.1585 1.8672,-3.0215 0.62492,-1.1999 0.60763,-2.3712 0.53711,-3.7793 -0.74986,1.6799 -2.384,0.53989 -2.3633,-0.94922 -0.65546,-0.74946 -0.59107,2.2796 -2.0508,1.793 -0.28138,0.77672 -1.3247,2.0287 -2.2168,1.5508 0.725,-0.47325 -0.1626,-0.33876 0.70117,-0.54492 1.5587,-1.3863 -1.8608,-1.3716 -2.6426,-0.97461 -1.0938,0.82687 3.0771,1.4324 0.77734,1.834 -1.5228,-0.53841 -2.1195,0.8535 -3.377,1.2188 -0.6168,-1.1974 2.057,-1.4805 0.25195,-1.877 -1.6542,0.25106 -2.1687,-1.0938 -1.6133,-2.418 -0.44943,-0.5626 -0.77025,-0.48237 -0.61914,-0.52343 -1.1206,-0.51469 0.48148,-2.8756 1.0879,-2.793 0.79658,0.0459 2.1611,1.8568 2.4727,0.37109 -0.77029,-0.32156 -2.1892,-0.0428 -2.1953,-1.4746 -0.29492,1.3406 -1.2223,0.17936 -0.45703,-0.3418 0.72631,0.7799 3.0338,-0.80825 1.0586,-1.0625 -0.77163,-0.17362 -1.3363,-0.24824 -1.6211,0.16407 L 76.4,942.18128 c -0.15632,-0.0619 -0.38827,-0.0204 -0.47656,-0.17188 l -0.19336,-0.0469 c -0.009,-0.0862 -0.01609,-0.17139 -0.02539,-0.25782 0.0154,-0.32738 -0.0505,-0.68298 -0.10156,-1.0176 -0.44785,-4.8038 -0.53614,-9.3664 -1.7871,-14.518 -0.0234,-0.12084 -0.04211,-0.24422 -0.07031,-0.36328 -0.48366,-2.0475 -1.1791,-4.0233 -1.8633,-6.0156 -0.31418,-0.91518 -0.77946,-1.909 -1.3359,-2.6992 -0.42965,-0.61012 -1.0033,-0.87483 -1.1367,-1.6582 -0.12017,-0.70613 0.50874,-1.538 0.78906,-2.1484 0.62742,-1.3656 1.489,-2.9831 1.7168,-4.4805 0.16548,-1.0877 0.0406,-2.2784 -0.6543,-3.1777 -0.29371,-0.38016 -0.80224,-0.73489 -1.1621,-1.0527 -0.32006,-0.28272 -0.65947,-0.62865 -0.86719,-1.0859 -0.22467,-0.39496 -0.47965,-0.77959 -0.44531,-1.2129 0.0642,-0.81022 0.75832,-0.52453 1.2383,-0.73242 0.37608,-0.16295 0.75652,-0.66917 0.94531,-1.0195 0.41855,-0.77651 -0.26416,-1.2134 -0.33008,-1.9316 -0.0514,-0.56059 0.32007,-1.0919 0.29297,-1.6894 -0.0559,-1.2292 -1.2644,-2.8917 -2.293,-3.5039 -0.37355,-0.22226 -0.72464,0.0283 -1.0859,-0.0859 -0.48363,-0.15078 -0.69026,-0.54697 -1.2676,-0.5625 z m 1.2676,1.0117 c 0.37463,0.47198 1.3692,1.1552 1.1484,1.8125 -0.65963,-0.19131 -2.0678,-1.0652 -1.1484,-1.8125 z m -2.1758,0.72071 0.002,0.002 c 0.5034,0 0.68582,0.45823 1.0859,0.68164 0.86385,0.48255 1.9065,1.0934 2.2637,2.0938 0.14592,0.40859 0.0661,0.85002 0.18359,1.2676 0.13293,0.47198 0.47442,0.80243 0.38086,1.3301 -0.11457,0.64615 -0.9316,1.074 -1.0957,1.75 -0.14533,0.59886 0.11265,1.2664 -0.02734,1.8809 -0.0735,0.44689 -0.18476,0.88126 -0.44531,1.2637 -0.52119,0.76485 -1.1137,1.6773 -1.9883,2.0606 -0.3269,0.14325 -0.77946,0.32235 -1.0957,0.0605 -0.34844,-0.28959 -0.22516,-0.69705 -0.1582,-1.0762 0.19238,-1.0885 0.87237,-1.5904 1.7754,-2.166 0.0717,-0.0457 0.10568,-0.0942 0.19531,-0.14258 0.0252,-0.0166 0.05067,-0.032 0.07227,-0.0508 0.20306,-0.17483 0.68496,-0.55211 0.51562,-0.88086 -0.10438,-0.20239 -0.36034,-0.1305 -0.51562,-0.041 -0.48214,0.27789 -0.782,0.61118 -1.3887,0.55469 -0.74227,-0.0697 -1.1802,-1.0593 -1.4922,-1.6426 -0.2621,-0.48992 -1.0122,-1.8058 -0.75195,-2.3477 0.0595,-0.12385 0.12688,-0.163 0.23438,-0.1621 0.0258,-0.007 0.07,-0.0162 0.10156,-0.0195 0.10006,-0.0106 0.16982,-0.037 0.24414,-0.0605 0.04362,0.007 0.09375,0.005 0.14453,0.002 0.06452,0.0517 0.13601,0.0969 0.23047,0.11328 0.0316,0.005 0.05479,-0.003 0.08398,-0.002 -0.0612,0.11447 -0.09561,0.19913 -0.03711,0.24219 0.0465,0.0179 0.09921,0.0473 0.13672,0.0508 0.44487,0.0414 0.66747,-0.74353 0.70703,-1.0781 0.0416,-0.35191 -0.07139,-0.42926 -0.24609,-0.41015 -0.0399,0.0328 -0.07935,0.0635 -0.09375,0.11718 -0.0229,0.0851 -0.05077,0.14013 -0.07617,0.21485 -0.06376,-0.0812 -0.15503,-0.1431 -0.26562,-0.18555 -0.07743,-0.0992 -0.19449,-0.16487 -0.35547,-0.16211 -0.0417,0.002 -0.0856,4.2e-4 -0.13281,0.0156 -0.09905,0.0216 -0.17949,0.0635 -0.24805,0.11523 -0.153,-0.25359 0.12487,-0.43066 0.19922,-0.64453 0.0881,0.0104 0.18091,0.0254 0.26758,0.01 0.60093,-0.10476 0.3239,-0.60354 0.02148,-0.56054 v -0.004 c -0.10081,0.014 -0.2048,0.0882 -0.2793,0.25781 -0.0113,0.0263 -0.008,0.055 -0.01367,0.082 -0.0755,-0.23374 -0.31315,-0.41517 -0.27344,-0.71679 0.0944,-0.7167 1.4237,-1.8125 2.1348,-1.8125 z m 1.6113,2.3476 v 0.004 c -0.30243,-0.043 -0.57948,0.45579 0.02148,0.56055 0.0987,0.018 0.20411,-0.002 0.30273,-0.0117 -0.006,-0.10034 -0.004,-0.20035 -0.04492,-0.29492 -0.0745,-0.16963 -0.17849,-0.2438 -0.2793,-0.25782 z m -0.02734,1.1797 c -0.0417,0.002 -0.0856,4.2e-4 -0.13281,0.0156 -0.70435,0.15331 -0.63077,1.216 0.12109,1.0859 0.63177,-0.1097 0.63638,-1.1123 0.01172,-1.1016 z m -2.0938,2.2539 c -0.0292,0 -0.05834,-1.8e-4 -0.08594,0.0117 -0.79378,0.26158 -0.3277,1.9242 0.64453,1.4863 0.46831,-0.211 -0.11944,-1.4606 -0.55859,-1.4961 v -0.002 z m -12.57,6.5938 c -0.0475,0 -0.01272,0.0318 0.01758,0.0215 z m -0.01758,0.16797 c 0.56389,0.0525 1.1658,0.30977 1.4082,0.79492 0.24213,0.4846 0.40562,1.7049 -0.34961,1.8242 -0.17088,0.0272 -0.4388,8.2e-4 -0.57617,-0.11524 -0.19858,-0.16772 -0.2153,-0.62076 -0.36328,-0.84961 -0.2667,-0.4124 -0.97208,-0.69651 -1.1074,-1.168 -0.0833,-0.29034 0.21884,-0.43478 0.45312,-0.47265 0.1648,-0.0263 0.34721,-0.0306 0.53516,-0.0137 z m 15.793,9.4609 h 0.002 c 0.40007,-0.0366 0.79766,-3.2e-4 1.0977,0.16993 0.43788,0.25134 0.822,0.87553 1.0977,1.2891 0.7926,1.189 1.4857,2.7012 1.7852,4.1133 0.18107,0.85387 0.50886,1.6708 0.70898,2.5176 0.62281,2.6358 1.2118,5.3564 1.6055,8.0391 0.24497,1.6693 0.23932,3.3556 0.40234,5.0332 0.0858,0.88341 0.24161,1.5887 0.2793,2.4824 0.031,0.73407 0.04778,1.5695 0.08008,2.3066 0.0668,1.5253 0.2279,3.0782 -0.93359,4.291 -0.20551,0.21375 -0.93784,0.74641 -1.2344,0.46094 -0.28165,-0.27075 -0.11714,-0.79514 -0.14648,-1.1309 -0.078,-0.89372 -0.1898,-1.9757 -0.36523,-2.8535 -0.16234,-1.659 -0.28368,-3.0522 -0.39648,-4.6973 -0.15389,-2.2456 -0.36522,-4.4763 -0.47852,-6.7246 -0.0601,-1.1933 -0.10329,-2.3858 -0.13281,-3.5859 -0.008,-0.30262 -0.12221,-1.0116 -0.59766,-0.82226 -0.34513,0.13734 -0.21442,1.0804 -0.17969,1.375 0.16112,1.3655 0.21182,2.8036 0.2207,4.1738 0.01,1.4842 0.23048,3.0719 0.36914,4.541 0.0774,0.82125 0.13054,1.718 0.1582,2.5332 0.0288,0.85865 0.059,1.7032 0.16602,2.5625 0.0781,0.62738 0.2141,1.348 0.31445,1.9648 0.11828,0.72675 0.16406,1.3518 0.16406,2.0859 0,0.39787 0.08136,0.90217 -0.02734,1.2871 -0.33564,0.76622 -1.0089,1.6718 -1.5664,1.5352 -0.2562,-0.57629 -0.39831,-1.4362 -0.47656,-2.0566 -0.10884,-0.86315 -0.11836,-1.6938 -0.27734,-2.5469 -0.59906,-3.2163 -0.49643,-6.5029 -0.53516,-9.7578 -0.0241,-2.0258 -0.11184,-4.0479 -0.09766,-6.0098 0.003,-0.37528 -0.04583,-0.94069 -0.04883,-1.3242 -0.008,-1.007 -0.02822,-2.6401 -0.07422,-3.6504 -0.0126,-0.27591 0.11415,-0.83682 -0.38672,-0.83399 -0.43083,0 -0.35744,1.3226 -0.3457,1.6367 0.0257,0.68747 0.04025,1.1244 0.06055,1.7676 0.0251,0.79744 0.09375,1.8281 0.09375,2.6426 0,3.5575 -0.04855,7.1371 0.06445,10.682 0.0617,1.9341 0.31622,3.7837 0.42578,5.7715 3.4e-4,0.9778 0.14498,1.9105 0.1875,2.8828 0.0157,0.35776 0.13092,0.74941 0.0332,1.1055 -0.13256,0.48179 -1.0773,1.0059 -1.5703,0.94336 -0.23196,-0.03 -0.35724,-0.035 -0.55078,-0.15039 -0.23987,-0.14314 -0.39712,-0.38443 -0.59961,-0.58008 -0.4277,-0.41381 -0.19031,-1.2305 -0.21289,-1.748 -0.057,-1.3031 -0.10001,-1.9644 -0.06641,-3.2715 0.0611,-2.3754 0.01583,-5.749 0.07813,-8.3301 0.0443,-1.8361 -0.08594,-3.6823 -0.08594,-5.5234 0,-2.2773 0.11626,-4.7024 0.01758,-6.9668 -0.0386,-0.88696 0.01801,-1.4989 0.0078,-2.3008 -0.0189,-1.4552 -0.80676,-3.1502 0.27539,-4.4375 0.1951,-0.23193 0.28556,-0.50316 0.58594,-0.62305 0.30608,-0.12199 0.7054,-0.23083 1.1055,-0.26758 z m -4.834,2.8887 c 0.63257,0.0703 1.1097,0.65937 1.4688,1.1445 0.72526,0.98025 0.51698,2.1111 0.57227,3.2441 0.0284,0.58256 -0.02404,1.0978 0.0059,1.8555 0.029,0.75768 0.01269,1.3158 0.02148,2.0254 0.0205,1.6225 0.05,3.2279 0.12109,4.8496 0.14583,3.325 0.14417,6.671 0.0625,10.004 -0.0456,1.8672 -0.10105,3.8094 -0.46289,5.6465 -0.17772,0.49678 -0.22498,1.0289 -0.5957,1.4043 -0.21335,0.20887 -0.33694,0.45908 -0.51758,0.22461 -0.38295,-0.57469 -0.45491,-2.8192 -0.41992,-3.5078 -0.003,-0.36178 -0.02589,-0.49134 0.0078,-1.0664 0.0624,-1.4711 -0.01796,-1.1094 -0.03516,-3.5605 -0.0104,-1.4912 -0.05611,-4.3381 -0.0078,-7.2988 0.0324,-1.9545 0.0058,-3.8599 0.0078,-5.5293 9.4e-4,-0.80053 -0.0625,-1.5903 -0.0625,-2.3926 0,-0.38419 0.05379,-1.0012 -0.13477,-1.3457 -0.13491,-0.24637 -0.38045,-0.21632 -0.38672,0.043 l -0.09375,0.35938 c -0.0226,0.93272 0.03425,1.0217 0.06055,1.9238 0.088,3.0478 0.18624,6.1507 0.0957,9.1621 -0.0478,1.5894 0.007,3.1811 0.02734,4.7715 0.0537,1.444 0.05349,2.4989 0.05859,3.748 l 0.0059,1.4941 c -0.0127,1.2425 -0.0494,2.6351 -0.22656,3.4434 -0.0884,0.40322 -0.50379,-0.31703 -0.55469,-0.70703 -0.17511,-1.3436 -0.01758,-2.7598 -0.01758,-4.1113 0,-2.9504 0.11915,-5.8972 0.11914,-8.8398 0,-0.61519 0.0535,-1.406 0.0293,-2.0234 -0.0884,-2.2458 0.1081,-6.0852 -0.20898,-6.0781 -0.4704,0.0103 -0.3816,0.73856 -0.38672,1.1719 -0.009,0.71484 -0.003,1.4261 0.01563,2.1445 0.0769,3.0247 -0.16828,6.0661 -0.24219,9.084 -0.0234,0.95381 -0.0293,1.8271 -0.14258,2.7871 -0.0264,0.22406 0.0716,0.86563 -0.15625,0.99023 -0.4283,0.23465 -0.28206,-0.65831 -0.29883,-0.83203 -0.0326,-0.3375 -0.03414,-0.68306 -0.02734,-1.0312 0.0103,-0.51375 0.10986,-0.84156 0.07422,-1.3633 -0.0505,-0.73715 0.07289,-1.47 0.05469,-2.209 -0.009,-0.35466 -0.03329,-0.681 -0.02539,-1.0332 0.0515,-2.347 0.07813,-4.6581 0.07813,-7.0078 0,-0.96159 0.03605,-1.9856 0.03125,-2.9473 -8.7e-4,-0.18919 -0.0658,-0.93198 -0.41602,-0.82031 -0.27675,0.0881 -0.22319,0.55671 -0.23828,0.75977 -0.0528,0.71044 0.01758,1.4313 0.01758,2.1484 1e-4,2.2291 -0.10389,4.3314 -0.17773,6.6309 -0.0277,0.86063 0.0623,1.737 -0.25195,2.5801 -0.46954,-0.14119 -0.4356,-0.96831 -0.41016,-1.375 0.0713,-1.1404 0.04492,-2.2114 0.04492,-3.3555 0,-1.674 0.10633,-3.3588 0.17969,-5.0332 0.047,-1.0721 -0.0638,-2.1961 0.1543,-3.252 0.0922,-0.44663 0.41979,-0.66617 0.63867,-1.0449 0.24889,-0.43097 0.50544,-1.1089 0.60352,-1.5957 0.21143,-1.0495 0.38909,-2.1082 0.70703,-3.1309 0.0939,-0.30216 0.29531,-0.91618 0.60742,-1.0469 0.11908,-0.0497 0.23325,-0.0832 0.34375,-0.0977 0.0967,-0.0131 0.19089,-0.0131 0.28125,0 l 0.002,-0.004 z m 21.418,21.053 c -0.23854,0.82069 -0.43851,2.5497 -1.25,0.87695 -1.1092,0.30872 -2.0331,1.0019 -3.2109,0.76758 -0.51469,1.3281 2.0317,0.26174 2.7754,0.84571 1.0712,-0.1097 3.5721,0.62603 2.5527,-1.3086 -0.24532,-0.35756 -0.34917,-1.1457 -0.86719,-1.1816 z m 0.04687,0.29102 c 0.54841,0.0328 -0.48657,0.34003 0,0 z m 3.6172,0.70507 c -0.8195,0.29053 -1.7231,1.4873 -1.9746,1.9824 1.0186,0.17775 2.5945,0.0565 3.8516,0.60351 0.91039,1.1904 2.9335,-0.73858 0.96289,-0.83008 -0.72244,-1.0305 -2.321,0.89051 -2.4688,-1.0156 -0.0268,-0.25125 -0.0269,-0.70377 -0.37109,-0.74024 z m -5.1523,0.21289 c 0.20317,0.1876 -0.22162,0.18282 0,0 z m -0.24414,0.0606 c 0.39392,-0.0366 -0.0782,0.32944 0,0 z m -0.55469,0.0605 c -0.22817,0.23006 -0.26685,0.0413 0,0 z m -1.7852,0.37109 h 0.0078 c -0.0376,0.14832 -0.31771,0.0263 -0.0078,0 z m 0.31445,0.0547 c 0.39643,0.0609 0.0925,0.5879 0,0 z m -0.49219,0.30469 c 0.50671,0.0834 -0.13049,0.18628 0,0 z m 9.8965,2.1406 c -0.98921,0.0991 0.40668,0.41614 0,0 z m -8.875,1.1914 c -1.8598,0.21544 1.2085,0.41985 0.36719,0.0488 z m 5.8691,0.0195 c -1.387,0.2775 1.007,0.73913 0,0 z m 1.9395,0.0781 c -2.4177,-0.0919 1.3554,2.0991 1.6992,0.62695 -0.52548,-0.27375 -1.0952,-0.5692 -1.6992,-0.62695 z m 1.0352,1.5586 c -0.8579,0.46941 0.59421,0.87844 0,0 z m -11.744,0.26367 c -1.2015,0.48094 1.1995,0.21862 0,0 z m -0.77734,0.27539 v 0.002 h -0.002 c -0.73157,0.0516 -0.32083,1.1969 0.3457,0.50782 l 0.03125,-0.14649 0.01172,-0.30859 c -0.15364,-0.0459 -0.28226,-0.0622 -0.38672,-0.0547 z m 8.8164,0.12305 c 0.75057,0.16013 -0.33454,0.135 0,0 z m -10.148,0.49023 c 0.0496,0.26652 -0.14239,0.26811 0,0 z m 10.555,0.55078 c 0.59466,0.38812 -0.1201,0.23156 0,0 z m -1.2266,0.1836 c -0.0254,0.18094 -0.35501,0.11653 0,0 z m -2.8223,0.0605 c -0.0684,0.17907 -0.43036,0 0,0 z m 2.3887,0.0606 h 0.0059 c -0.0375,0.14822 -0.31586,0.0253 -0.0059,0 z m -3.0644,0.0586 c 0.063,0.21758 -0.26672,0.1183 0,0 z m 2.7598,0 c -0.4207,0.7483 -0.72007,0.44736 0,0 z m -2.9434,0.0586 c 0.41884,0.72806 0.5101,1.37 -0.25195,0.35351 -0.0993,-0.16734 0.09869,-0.34161 0.25195,-0.35351 z m 3.8848,0.55273 v 0.002 c 0.62324,0.0988 -0.58559,0.51513 -0.07617,0.0703 0.031,0.0684 0.29732,-0.0607 0.01367,-0.0176 0.0241,-0.0206 0.0311,-0.0304 0.0625,-0.0547 z m -0.38672,0.73438 c 0.0769,0.72872 -1.1765,0.64734 -0.19922,0.23437 -0.23967,0.27412 0.25246,-0.18684 0.19922,-0.23437 z m -1.8438,0.125 c 0.48266,0.55022 -0.26034,0.65756 0,0 z m -3.4336,0.42773 c 0.52722,0.6121 -0.62556,0.55547 0,0 z m 0.42969,0 c 0.52947,0.16003 -0.35253,0.70294 0,0 z m 4.8809,0.56055 c 1.6448,0.73987 -1.8297,0.33253 0,0 z m -5.8574,0.0371 c 0.25336,0.0338 0.15264,0.47235 -0.12891,0.0137 0.0512,-0.0159 0.0927,-0.0184 0.12891,-0.0137 z m -0.36719,0.18945 c 0.47245,0.0394 -0.71978,0.42285 -0.31445,0.008 0.14492,-0.0122 0.24695,-0.0115 0.31445,-0.008 z m 0.29883,0.49805 c 0.048,0.26653 -0.13779,0.26746 0,0 z m -1.168,0.18359 c 0.048,0.26653 -0.13781,0.26748 0,0 z m 8.5957,0.73633 c 0.39003,0 -0.16567,0.21684 0,0 z m 0,0.42773 c 0.23457,0.26167 -0.4331,1.0086 -0.02148,0.0664 z m -23.799,0.35352 c -0.55888,0.39834 0.66352,0.2565 0,0 z m 14.734,0.45898 c -0.95392,-0.0675 -1.2249,0.58841 -0.14453,0.48829 0.58354,0.432 2.1501,0.009 0.79688,-0.41797 l -0.31445,-0.0547 -0.33789,-0.0156 z m 4.6406,0.17579 c -1.3983,0.29485 1.0725,0.31406 0.21289,0 z m -9.0312,0.77148 c -0.0732,0 -0.16994,0.007 -0.29688,0.0215 0.12995,0.36177 0.80918,-0.014 0.29688,-0.0215 z m 5.5039,0.23438 c -0.90804,0.12629 -3.3091,0.12556 -1.3477,0.87304 0.56306,0.92849 -3.0554,0.66371 -1.0137,0.90821 1.1623,0.94866 2.3758,-2.3554 2.6465,-0.62891 -0.18636,1.9019 2.2482,-0.3008 0.71289,-0.94336 -0.30815,-0.15357 -0.6567,-0.20973 -0.99805,-0.20898 z m 6.6738,0.22265 c -0.0587,0.0379 0.10373,0.16867 0.14648,0.11133 0.013,-0.0174 0.01745,-0.0466 -0.002,-0.10742 -0.08161,-0.0181 -0.12496,-0.0165 -0.14453,-0.004 z m 0.14648,0.11133 c 0.002,3.2e-4 3.43e-4,0.003 0.002,0.004 3.1e-4,-0.002 -3.3e-4,-0.002 0,-0.004 z m 0.002,0.004 c -0.01,0.0698 -0.0089,0.11037 -0.0059,0.125 -0.0868,0.0122 0.08786,0.13807 0.0059,-0.01 0.0193,-0.009 0.0452,-0.1003 0,-0.11523 z m -0.07813,0.0176 c -0.0415,-0.0375 -0.05693,0.0991 0.04687,0.10743 -0.0162,-0.0628 -0.03297,-0.0948 -0.04687,-0.10743 z m -13.092,0.39454 c -1.8256,0.57385 1.8582,0.50082 0,0 z m -6.6777,0.14062 c -0.82637,-0.0431 -2.4973,0.98454 -0.68945,0.94141 0.63468,-0.21806 2.5831,0.71494 1.4453,-0.55078 -0.23564,-0.15515 -0.45518,-0.37572 -0.75586,-0.39063 z m 4.127,0.2207 c 0.0199,0 0.0527,-9e-5 0.10156,0.01 0.2345,0.31969 -0.24054,0.0137 -0.10156,-0.01 z m 4.3047,0.46875 c -0.94736,0.32793 1.0099,0.0872 0,0 z m -3.8106,0.34754 c -0.60642,0.0263 -3.1854,0.28617 -1.4473,0.80273 0.72307,0.94932 3.5562,0.5552 2.6934,2.332 0.16604,0.88097 -1.1504,2.6219 0.70898,1.998 1.2321,0.86455 1.6736,-1.2559 1.3145,-0.66601 -9.4e-4,-0.0272 -0.71811,-0.99805 -0.87695,-1.6191 0.15842,0.009 0.79894,1.6324 0.40625,0.26172 -0.57884,-0.64585 -0.89495,-1.0696 -0.7168,-1.9668 -0.34937,-0.78637 -1.2674,-1.1515 -2.082,-1.1426 z m 6.1816,0.39648 c -0.30752,-0.009 -0.64864,0.086 -0.99805,0.31055 -0.44282,-0.0281 -0.85201,-0.2242 -1.293,-0.26367 -1.3626,-0.13566 -0.73728,1.7416 0.35938,1.1348 0.4127,0.53841 2.8198,0.58643 1.1191,0.94727 -1.3513,0.0973 1.0953,1.0454 0.85742,-0.12305 1.9919,-0.19004 1.2907,-1.9828 -0.04297,-2.0059 h -0.002 z m 6.8926,0.15821 v 0.002 c -1.1755,1.1072 0.24351,0.84805 0.42383,0.43555 0.0465,0.0206 0.04127,-0.0617 0.01367,-0.043 0.0294,-0.13312 -0.0718,-0.27669 -0.4375,-0.39453 z m -8.9961,0.0664 c -0.17054,0.15375 -0.6472,0.0281 0,0 z m 2.5781,0 c -0.35154,0.23072 -0.81788,0.022 -0.08203,0.0117 z m -3.0684,0.0586 c -0.0101,0.54957 -0.57355,0.46847 0,0 z m 7.5293,0.2207 c -1.0092,0.56944 0.86214,1.8561 0.51367,0.39844 -0.0751,-0.19884 -0.27206,-0.43444 -0.51367,-0.39844 z m -2.0684,0.0234 c -0.27292,0.23897 -1.371,1.7898 -0.11719,1.3144 1.3268,-0.0459 1.5145,-1.1626 0.11719,-1.3144 z m -5.4609,0.30469 c 0.19539,0.0562 0.15219,0.22163 0,0 z m 9.207,0.36914 c -1.0214,0.59315 0.79345,1.1166 0,0 z m -2.4219,0.67382 c -1.8291,0.48807 -0.83062,3.3094 0.16211,0.99805 0.10704,-0.30544 0.21597,-0.83108 -0.16211,-0.99805 z m -2.3926,0.58985 c -2.0433,0.0945 -1.6285,2.3022 0.23633,1.1602 0.279,-0.32747 0.18672,-0.99318 -0.23633,-1.1602 z m -4.9336,0.81055 c 0.1635,0.61238 0.31461,0.23878 0,0 z m 2.2246,0.26953 c -0.74206,0.43612 0.89605,0.27694 0,0 z m 2.5645,1.0644 c -0.98219,0.0431 -2.8573,1.1594 -1.1797,0.99219 0.60588,-0.46059 1.5539,-0.57966 2.0879,-0.84375 l -0.26562,-0.0606 -0.28906,-0.0312 c -0.0909,-0.0441 -0.21322,-0.0622 -0.35352,-0.0566 z m -8.0762,0.66406 c -0.039,2.8e-4 -0.0919,0.0118 -0.16211,0.0371 0.0217,0.47635 0.43528,-0.0389 0.16211,-0.0371 z m 5.2227,0.43164 c -1.4001,0.11785 -2.0271,1.835 -0.25781,1.9141 1.1736,-0.0778 1.7945,-1.7606 0.25781,-1.9141 z m -0.10937,0.0957 h 0.0039 c -0.0342,0.15197 -0.31505,0.0263 -0.0039,0 z m 3.4004,0.10156 c -0.0525,-6.5e-4 -0.12252,0.009 -0.21484,0.0215 h -0.05078 c 0.0956,0.28584 0.49238,0.0694 0.37305,0 -0.0199,-0.0122 -0.0549,-0.0215 -0.10742,-0.0215 z m -9.4434,0.47461 c -0.95941,0.22069 0.69889,2.8404 0.94336,0.95117 0.46461,-0.91613 -0.15386,-0.90533 -0.94336,-0.95117 z m 3.959,0.2207 c 0.17308,0.279 0.64072,-0.0722 0.08398,0 z m -3.8047,0.0586 c 0.32557,0.249 -0.26691,0.89775 0,0 z m 1.832,0.93555 c -1.4575,-0.12693 -0.0394,2.5796 0.28711,0.6836 0.27083,-0.27498 0.12365,-0.73619 -0.28711,-0.6836 z m -1.4688,0.16992 h 0.0059 c -0.0376,0.14822 -0.31583,0.0253 -0.0059,0 z m 6.2871,0.36719 c -1.0216,-0.0666 -1.0533,2.7286 0.03711,1.3496 0.90952,-0.92747 -0.25265,-0.26889 0.36523,-0.85352 0.51853,-0.20728 -0.19934,-0.0669 -0.10938,-0.41406 l -0.29297,-0.082 z m 0.53125,0.55273 c -0.17068,0.14711 0.0736,0.0788 0,0 z m -2.666,0.65235 v 0.002 c -0.0497,-0.009 -0.10605,-0.009 -0.16797,0 -1.6931,0.33197 0.9653,2.603 0.61914,0.64258 -0.11056,-0.5446 -0.0273,1.1584 -0.14062,-0.11719 0.0932,-0.0488 0.0372,-0.47438 -0.31055,-0.52734 z m 0.38476,0.39844 c -0.0124,0.16997 0.0462,-0.0431 0,0 z m -0.66602,0.0566 c 0.0581,0.27966 -0.1345,0.38185 0,0 z m -1.5332,0.0117 c -1.3798,0.8025 1.6346,2.1037 0.45312,0.35546 -0.10265,-0.1515 -0.23311,-0.37515 -0.45312,-0.35546 z m 0.30664,0.48437 c 0.0585,0.28622 -0.13772,0.37931 0,0 z m 2.6582,0.59961 c -0.0483,-0.0103 -0.11428,10e-4 -0.20312,0.0156 -0.009,0.53885 0.54138,0.0294 0.20312,-0.0156 z m -1.7988,2.2227 c -0.30161,0.89909 0.69512,0.03 0,0 z"
         fill="#050505"
         id="path5483" />
      <path
         d="m 319.12,924.72 c -0.002,0.0416 0.0141,0.0854 0.0117,0.12696 v -0.16211 l -0.0117,0.0351 z"
         fill="#050505"
         id="path5485" />
      <path
         d="m 316.89,931.93 c -0.0517,0.001 -0.10037,0.0125 -0.14649,0.0352 -0.49927,0.24584 -0.82857,1.005 -1.1523,1.4375 -0.62951,0.84082 -1.4046,1.5109 -2.3477,1.959 -0.199,0.0946 -0.39098,0.30504 -0.61133,0.33984 -0.36983,0.0588 -0.36709,-0.4687 -0.37109,-0.70313 -0.0102,-0.62041 -0.0492,-1.2239 -0.11133,-1.8418 -0.0273,-0.27213 -0.0131,-0.61221 -0.38086,-0.59961 -0.66799,0.0227 -0.94898,0.56634 -1.3379,1.0273 -0.53707,0.63667 -0.60712,1.5342 -0.93164,2.2715 -0.39019,0.88655 -1.306,1.8465 -0.84961,2.9453 0.24577,0.59113 1.5487,0.90623 2.0762,0.57031 0.30922,-0.19711 0.42608,-0.53327 0.48828,-0.875 0.13588,-0.74647 0.47564,-1.4387 0.74024,-2.1484 h 0.12305 c 0.15055,0.81164 -0.53615,1.3961 -0.38086,2.209 0.19537,1.023 1.2976,2.5094 2.5293,1.873 0.56727,-0.29308 0.6631,-0.69873 0.98828,-1.1973 0.367,-0.56262 0.69195,-0.93979 0.85547,-1.5957 0.091,-0.36492 0.2591,-0.79778 0.47461,-1.1055 0.0646,-0.0922 0.20518,-0.3438 0.35156,-0.25 0.26117,0.16714 -0.1334,0.88731 -0.1914,1.1094 -0.24478,0.93778 -0.56688,1.9849 -1.0176,2.8242 -0.11693,0.21779 -0.13613,0.53459 -0.31445,0.70899 -0.28345,0.27401 -0.84212,0.21655 -1.207,0.28515 -0.55463,0.10347 -0.97379,7.8e-4 -1.5,-0.0391 -0.90946,-0.0679 -1.7857,-0.015 -2.6738,-0.34766 -0.44206,-0.16559 -0.56957,-0.92063 -1.041,-0.89843 -0.58232,0.0275 -0.43972,0.99163 -0.30273,1.3301 0.11688,0.28847 0.49304,0.30883 0.67969,0.5586 1.2521,1.6753 4.4903,2.4368 6.4336,1.7598 0.38111,-0.13273 0.83626,-0.17711 1.1582,-0.4414 0.27356,-0.22465 0.21566,-0.52887 0.32227,-0.83008 0.13424,-0.37933 0.36185,-0.74226 0.53906,-1.1035 0.87526,-1.7835 2.133,-3.9012 2.0176,-5.9551 -0.0666,-1.1847 -1.0909,-1.9011 -1.8535,-2.6426 -0.22,-0.21384 -0.69301,-0.67873 -1.0547,-0.66993 z m -13.693,5.3125 c -0.12952,0.003 -0.2586,0.0192 -0.38477,0.0527 -0.58096,0.15439 -0.10395,0.85351 0.18164,1.0449 0.94193,0.63075 2.0577,1.0319 3.0684,1.5312 0.35152,0.17362 0.64851,0.62896 1.1035,0.4707 0.4984,-0.17342 0.40496,-1.4703 0.0488,-1.748 -0.33024,-0.25762 -0.9382,-0.34592 -1.3359,-0.47266 -0.80406,-0.25603 -1.775,-0.90106 -2.6816,-0.87891 z"
         fill="#dd1d1d"
         fill-rule="evenodd"
         id="path5487" />
      <path
         d="m 316.25,944.22 c -0.40007,0.0366 -0.79987,0.14719 -1.106,0.26915 -0.30038,0.11991 -0.39084,0.39066 -0.58593,0.6226 -1.0822,1.2873 -0.29539,2.9814 -0.27649,4.4366 0.009,0.80185 -0.0459,1.4147 -0.007,2.3017 0.0987,2.2643 -0.0183,4.6898 -0.0183,6.9671 0,1.8412 0.13036,3.6864 0.0861,5.5224 -0.0623,2.5811 -0.0158,5.9558 -0.0769,8.3313 -0.0336,1.3071 0.009,1.9672 0.0659,3.2703 0.0226,0.5175 -0.2153,1.3348 0.21241,1.7487 0.20249,0.19557 0.36071,0.43735 0.60058,0.58041 0.19353,0.1155 0.31736,0.12019 0.54932,0.15019 0.493,0.0628 1.4385,-0.46125 1.571,-0.94303 0.0978,-0.35607 -0.0173,-0.74822 -0.033,-1.106 -0.0425,-0.97228 -0.18642,-1.9061 -0.18676,-2.8839 -0.10956,-1.9878 -0.36494,-3.8356 -0.42663,-5.7697 -0.11301,-3.5445 -0.0641,-7.1248 -0.0641,-10.682 0,-0.8145 -0.0683,-1.8448 -0.0934,-2.6422 -0.0202,-0.64303 -0.0366,-1.0813 -0.0622,-1.7688 -0.0117,-0.31416 -0.0848,-1.6351 0.34607,-1.6351 0.50085,0 0.37559,0.55725 0.38819,0.83316 0.0461,1.0102 0.0653,2.6439 0.0732,3.6511 0.003,0.38354 0.0524,0.94857 0.0494,1.3238 -0.0143,1.9619 0.0729,3.9838 0.097,6.0096 0.0387,3.2549 -0.0644,6.5414 0.53467,9.7577 0.159,0.85312 0.16949,1.6838 0.27832,2.547 0.0783,0.62044 0.21987,1.4799 0.47607,2.0562 0.55755,0.13659 1.2318,-0.76819 1.5674,-1.5344 0.1087,-0.38494 0.0275,-0.88941 0.0275,-1.2872 0,-0.73425 -0.0465,-1.3589 -0.16479,-2.0856 -0.10035,-0.61688 -0.23684,-1.3391 -0.31495,-1.9665 -0.10698,-0.85932 -0.13599,-1.703 -0.16479,-2.5616 -0.0277,-0.81515 -0.0819,-1.7111 -0.1593,-2.5324 -0.13866,-1.4694 -0.35987,-3.0568 -0.36987,-4.5411 -0.008,-1.3702 -0.0586,-2.8093 -0.21973,-4.1748 -0.0347,-0.29456 -0.16569,-1.2378 0.17944,-1.3751 0.47546,-0.18938 0.59076,0.51956 0.59876,0.82219 0.0295,1.2001 0.0717,2.3936 0.13184,3.587 0.11329,2.2483 0.32401,4.4781 0.4779,6.7237 0.11281,1.645 0.23499,3.0395 0.39734,4.6985 0.17542,0.87778 0.28638,1.9591 0.36438,2.8528 0.0293,0.33572 -0.13517,0.85903 0.14648,1.1298 0.29653,0.28547 1.0286,-0.2459 1.2341,-0.45956 1.1615,-1.2128 1.0006,-2.7668 0.93384,-4.2921 -0.0322,-0.73716 -0.0477,-1.5712 -0.0787,-2.3053 -0.0377,-0.89372 -0.19435,-1.5995 -0.28015,-2.4829 -0.16303,-1.6776 -0.15788,-3.3642 -0.40284,-5.0335 -0.39363,-2.6827 -0.98119,-5.4025 -1.604,-8.0384 -0.20012,-0.84675 -0.52935,-1.6638 -0.71045,-2.5176 -0.29941,-1.4121 -0.99267,-2.9254 -1.7853,-4.1144 -0.27566,-0.41353 -0.65892,-1.0377 -1.0968,-1.2891 -0.3,-0.17025 -0.69856,-0.20691 -1.0986,-0.17025 z m -4.8358,2.8894 h -0.002 c -0.0904,-0.0131 -0.18345,-0.0131 -0.28016,0 -0.11048,0.0141 -0.22515,0.0478 -0.34423,0.097 -0.31211,0.13069 -0.51401,0.74522 -0.60791,1.0474 -0.31794,1.0226 -0.49536,2.0816 -0.70679,3.1312 -0.0981,0.48684 -0.35351,1.1658 -0.60241,1.5966 -0.21889,0.37875 -0.54685,0.5971 -0.63904,1.0437 -0.21812,1.0558 -0.10681,2.1798 -0.15381,3.2519 -0.0734,1.6744 -0.18128,3.3596 -0.18128,5.0336 0,1.1441 0.0273,2.2159 -0.044,3.3562 -0.0254,0.40669 -0.0594,1.2339 0.41016,1.3751 0.31428,-0.8431 0.22498,-1.7212 0.25268,-2.5818 0.0738,-2.2995 0.17771,-4.4011 0.17761,-6.6302 0,-0.71719 -0.0712,-1.4374 -0.0183,-2.1478 0.0151,-0.20307 -0.0387,-0.67182 0.23804,-0.75994 0.35025,-0.11166 0.41478,0.63112 0.41565,0.82031 0.005,0.96169 -0.0311,1.9846 -0.0311,2.9462 0,2.3498 -0.0254,4.6622 -0.0769,7.0092 -0.008,0.35222 0.0167,0.67809 0.0256,1.0328 0.0182,0.73903 -0.10543,1.4711 -0.0549,2.2083 0.0356,0.52172 -0.0648,0.8504 -0.0751,1.3642 -0.007,0.34819 -0.005,0.69338 0.0275,1.0309 0.0168,0.17372 -0.12984,1.0658 0.29846,0.83128 0.22785,-0.12459 0.12925,-0.76472 0.15565,-0.98878 0.11331,-0.96 0.11942,-1.8349 0.14282,-2.7887 0.0739,-3.0179 0.32043,-6.0592 0.24353,-9.0839 -0.0185,-0.71841 -0.0255,-1.4293 -0.0165,-2.1442 0.005,-0.43331 -0.0841,-1.1616 0.38635,-1.1719 0.31707,-0.009 0.12034,3.8334 0.20874,6.0791 0.0243,0.61744 -0.0292,1.4081 -0.0292,2.0233 0,2.9426 -0.11902,5.8898 -0.11902,8.8404 0,1.3515 -0.1568,2.7671 0.0183,4.1108 0.0509,0.39 0.46641,1.11 0.55482,0.70678 0.17715,-0.80822 0.21435,-2.2018 0.22705,-3.4443 l -0.007,-1.4941 c -0.005,-1.2491 -0.005,-2.3023 -0.0586,-3.7463 -0.0195,-1.5906 -0.0753,-3.1824 -0.0275,-4.7718 0.0906,-3.0114 -0.007,-6.1148 -0.0952,-9.1626 -0.0262,-0.90215 -0.0831,-0.99168 -0.0605,-1.9244 l 0.0934,-0.35888 c 0.007,-0.25903 0.25327,-0.28856 0.38818,-0.0422 0.18857,0.34453 0.13367,0.95981 0.13367,1.344 0,0.80231 0.0632,1.5927 0.0623,2.3932 -0.002,1.6694 0.025,3.5752 -0.007,5.5298 -0.0496,2.9607 -0.003,5.8074 0.007,7.2986 0.0172,2.4511 0.0972,2.0902 0.0348,3.5614 -0.0324,0.57496 -0.0103,0.70387 -0.007,1.0656 -0.035,0.6886 0.0364,2.9337 0.41932,3.5083 0.18065,0.23447 0.30484,-0.0159 0.51818,-0.22518 0.37074,-0.37538 0.41739,-0.90769 0.5951,-1.4045 0.36185,-1.8371 0.41746,-3.7797 0.46326,-5.6469 0.0817,-3.3329 0.0836,-6.678 -0.0622,-10.003 -0.0711,-1.6217 -0.10035,-3.228 -0.12085,-4.8505 -0.009,-0.7096 0.007,-1.2674 -0.0219,-2.0251 -0.0291,-0.75768 0.0229,-1.2723 -0.006,-1.8548 -0.0553,-1.1331 0.15398,-2.2644 -0.57128,-3.2447 -0.35906,-0.48515 -0.83776,-1.0741 -1.4703,-1.1444 z"
         fill="#e9c13a"
         fill-rule="evenodd"
         id="path5489" />
    </g>
    <g
       transform="translate(481.89,212.6)"
       id="g5763">
      <g
         opacity="0.97"
         stroke="#000000"
         id="g5581">
        <path
           d="m 104.87,989.18 -3.2523,3.2953 -3.2523,3.2953 -9.5931,-5.8171 6.3625,-6.4585 z"
           fill="#1780ce"
           fill-rule="evenodd"
           stroke-width="1px"
           id="path5493" />
        <path
           d="m 92.279,999.63 -6.5047,6.5906 -9.5931,-5.817 6.3625,-6.4586 z"
           fill="#dd1d1d"
           fill-rule="evenodd"
           stroke-width="1px"
           id="path5495" />
        <path
           d="m 101.61,992.48 -9.7571,-5.6533"
           fill="none"
           stroke-width="4.5425"
           id="path5497" />
        <path
           d="m 89.027,1002.9 -9.6797,-5.7353"
           fill="none"
           stroke-width="4.5425"
           id="path5499" />
        <ellipse
           transform="matrix(0.44879,-0.89364,-0.8937,-0.44867,0,0)"
           cx="-814.84003"
           cy="-545.76001"
           rx="3.0455"
           ry="3.0455999"
           opacity="1"
           stroke-linecap="round"
           stroke-linejoin="round"
           stroke-width="0.99921"
           id="ellipse5501" />
        <ellipse
           transform="matrix(0.44879,-0.89364,-0.8937,-0.44867,0,0)"
           cx="-889.06"
           cy="-520.73999"
           rx="3.0455"
           ry="3.0455999"
           opacity="1"
           stroke-linecap="round"
           stroke-linejoin="round"
           stroke-width="0.99921"
           id="ellipse5503" />
        <g
           transform="rotate(180,76.246,896.49)"
           id="g5575">
          <g
             transform="matrix(0.71631,0.42993,-0.43072,0.71498,319.44,-17.623)"
             id="g5513">
            <ellipse
               transform="matrix(0.0063648,0.99998,0.99998,-0.0064951,0,0)"
               cx="1007.7"
               cy="187.05"
               rx="6.9699001"
               ry="10.076"
               fill="#dd1d1d"
               opacity="1"
               stroke-linecap="round"
               stroke-linejoin="round"
               stroke-width="1.1966"
               id="ellipse5505" />
            <ellipse
               transform="matrix(0.0063648,0.99998,0.99998,-0.0064951,0,0)"
               cx="1007.7"
               cy="187.05"
               rx="4.9102998"
               ry="10.076"
               fill="none"
               opacity="1"
               stroke-linecap="round"
               stroke-linejoin="round"
               stroke-width="1.1966"
               id="ellipse5507" />
            <ellipse
               transform="matrix(0.0063648,0.99998,0.99998,-0.0064951,0,0)"
               cx="1007.7"
               cy="187.05"
               rx="2.6451001"
               ry="10.076"
               fill="none"
               opacity="1"
               stroke-linecap="round"
               stroke-linejoin="round"
               stroke-width="1.1966"
               id="ellipse5509" />
            <path
               d="m 183.38,1006.5 20.151,-0.1309"
               fill="none"
               stroke-width="1.1975px"
               id="path5511" />
          </g>
          <ellipse
             transform="matrix(-0.44879,0.89364,0.8937,0.44867,0,0)"
             cx="674.59003"
             cy="368.26999"
             rx="1.7424999"
             ry="1.7426"
             opacity="1"
             stroke-linecap="round"
             stroke-linejoin="round"
             stroke-width="0.99921"
             id="ellipse5515" />
          <g
             transform="matrix(0.71631,0.42993,-0.43072,0.71498,330.58,-28.905)"
             fill="#1780ce"
             id="g5525">
            <ellipse
               transform="matrix(0.0063648,0.99998,0.99998,-0.0064951,0,0)"
               cx="1007.7"
               cy="187.05"
               rx="6.9699001"
               ry="10.076"
               opacity="1"
               stroke-linecap="round"
               stroke-linejoin="round"
               stroke-width="1.1966"
               id="ellipse5517" />
            <ellipse
               transform="matrix(0.0063648,0.99998,0.99998,-0.0064951,0,0)"
               cx="1007.7"
               cy="187.05"
               rx="4.9102998"
               ry="10.076"
               opacity="1"
               stroke-linecap="round"
               stroke-linejoin="round"
               stroke-width="1.1966"
               id="ellipse5519" />
            <ellipse
               transform="matrix(0.0063648,0.99998,0.99998,-0.0064951,0,0)"
               cx="1007.7"
               cy="187.05"
               rx="2.6451001"
               ry="10.076"
               opacity="1"
               stroke-linecap="round"
               stroke-linejoin="round"
               stroke-width="1.1966"
               id="ellipse5521" />
            <path
               d="m 183.38,1006.5 20.151,-0.1309"
               fill-rule="evenodd"
               stroke-width="1.1975px"
               id="path5523" />
          </g>
          <g
             transform="rotate(-60.005,-8.8106,1000.8)"
             fill="#1780ce"
             stroke-linecap="round"
             stroke-linejoin="round"
             id="g5549">
            <ellipse
               transform="matrix(-0.99843,-0.055947,0,1,0,0)"
               cx="-195.19"
               cy="930.78003"
               rx="6.6971998"
               ry="13.217"
               opacity="1"
               stroke-width="0.97068"
               id="ellipse5527" />
            <path
               d="m 191.5,930.12 6.4391,6e-5"
               fill-rule="evenodd"
               stroke-width="0.64488"
               id="path5529" />
            <path
               d="m 190.01,932.37 9.4728,3.3e-4"
               fill-rule="evenodd"
               stroke-width="0.64488"
               id="path5531" />
            <path
               d="m 189.13,934.63 11.295,2e-5"
               fill-rule="evenodd"
               stroke-width="0.64488"
               id="path5533" />
            <path
               d="m 188.59,936.89 12.45,-2.8e-4"
               fill-rule="evenodd"
               stroke-width="0.64488"
               id="path5535" />
            <path
               d="m 188.29,939.15 13.116,7e-5"
               fill-rule="evenodd"
               stroke-width="0.64488"
               id="path5537" />
            <path
               d="m 188.2,941.4 13.365,10e-6"
               fill-rule="evenodd"
               stroke-width="0.64488"
               id="path5539" />
            <path
               d="m 188.3,943.66 13.221,-5e-5"
               fill-rule="evenodd"
               stroke-width="0.64488"
               id="path5541" />
            <path
               d="m 188.61,945.92 12.671,-2.3e-4"
               fill-rule="evenodd"
               stroke-width="0.64488"
               id="path5543" />
            <path
               d="m 189.15,948.18 11.657,4e-4"
               fill-rule="evenodd"
               stroke-width="0.64488"
               id="path5545" />
            <path
               d="m 189.99,950.43 10.04,-1.9e-4"
               fill-rule="evenodd"
               stroke-width="0.64488"
               id="path5547" />
          </g>
          <g
             transform="rotate(-60.005,-12.667,985.7)"
             stroke-linecap="round"
             stroke-linejoin="round"
             id="g5573">
            <ellipse
               transform="matrix(-0.99843,-0.055947,0,1,0,0)"
               cx="-195.19"
               cy="930.78003"
               rx="6.6971998"
               ry="13.217"
               fill="#dd1d1d"
               opacity="1"
               stroke-width="0.97068"
               id="ellipse5551" />
            <path
               d="m 191.5,930.12 6.4391,6e-5"
               fill="none"
               stroke-width="0.64488"
               id="path5553" />
            <path
               d="m 190.01,932.37 9.4728,3.3e-4"
               fill="none"
               stroke-width="0.64488"
               id="path5555" />
            <path
               d="m 189.13,934.63 11.295,2e-5"
               fill="none"
               stroke-width="0.64488"
               id="path5557" />
            <path
               d="m 188.59,936.89 12.45,-2.8e-4"
               fill="none"
               stroke-width="0.64488"
               id="path5559" />
            <path
               d="m 188.29,939.15 13.116,7e-5"
               fill="none"
               stroke-width="0.64488"
               id="path5561" />
            <path
               d="m 188.2,941.4 13.365,10e-6"
               fill="none"
               stroke-width="0.64488"
               id="path5563" />
            <path
               d="m 188.3,943.66 13.221,-5e-5"
               fill="none"
               stroke-width="0.64488"
               id="path5565" />
            <path
               d="m 188.61,945.92 12.671,-2.3e-4"
               fill="none"
               stroke-width="0.64488"
               id="path5567" />
            <path
               d="m 189.15,948.18 11.657,4e-4"
               fill="none"
               stroke-width="0.64488"
               id="path5569" />
            <path
               d="m 189.99,950.43 10.04,-1.9e-4"
               fill="none"
               stroke-width="0.64488"
               id="path5571" />
          </g>
        </g>
        <path
           d="m 76.05,1031.9 0.91406,-1.5137 c 0,0 10.05,-16.591 15.953,-23.824 3.2815,-4.0206 6.938,-7.7627 10.92,-11.066 5.883,-4.881 19.598,-13.205 19.598,-13.205 l 1.4688,-0.88672 -10.459,-14.131 -1.2676,1.6016 c 0,0 -11.379,14.375 -17.453,21 -3.5745,3.8988 -7.2019,7.7175 -11.172,11.06302 -7.4751,6.2983 -23.285,16.711 -23.285,16.711 l -1.8125,1.1914 z"
           color="#000000"
           color-rendering="auto"
           enable-background="accumulate"
           fill="#e9c13a"
           fill-rule="evenodd"
           image-rendering="auto"
           opacity="1"
           shape-rendering="auto"
           solid-color="#000000"
           stroke-linejoin="round"
           stroke-width="0.99921"
           style="text-indent:0;text-decoration-line:none;text-decoration-style:solid;text-decoration-color:#000000;text-transform:none;white-space:normal;isolation:auto;mix-blend-mode:normal"
           id="path5577" />
        <path
           d="m 75.223,1027.3 -10.449,-8.2246 c 2.6438,-1.7483 14.751,-9.7913 21.791,-15.723 4.1478,-3.4948 7.8619,-7.4124 11.461,-11.338 5.6578,-6.1711 14.451,-17.223 16.326,-19.586 l 6.0117,8.123 c -2.1808,1.3249 -12.769,7.7937 -18.521,12.566 -4.1506,3.4436 -7.9475,7.3301 -11.348,11.496 -5.7652,7.0636 -13.87,20.374 -15.271,22.686 z"
           color="#000000"
           color-rendering="auto"
           enable-background="accumulate"
           fill-rule="evenodd"
           image-rendering="auto"
           opacity="1"
           shape-rendering="auto"
           solid-color="#000000"
           stroke-linejoin="round"
           stroke-width="0.29055"
           style="text-indent:0;text-decoration-line:none;text-decoration-style:solid;text-decoration-color:#000000;text-transform:none;white-space:normal;isolation:auto;mix-blend-mode:normal"
           id="path5579" />
      </g>
      <path
         d="m 83.545,798.12 a 128.83,128.83 0 0 0 -0.21094,-0.19726 128.83,128.83 0 0 0 -7.1367,-5.4258 128.83,128.83 0 0 0 -53.006,103.96 128.83,128.83 0 0 0 52.973,103.95996 128.83,128.83 0 0 0 4.2578,-3.04496 128.83,128.83 0 0 0 2.9492,-2.5898 119.97,119.97 0 0 1 -8.6367,-6.5664 119.97,119.97 0 0 1 -8.7734,-8.1738 119.97,119.97 0 0 1 -7.916,-9.0098 119.97,119.97 0 0 1 -6.9746,-9.7559 119.97,119.97 0 0 1 -5.9668,-10.402 119.97,119.97 0 0 1 -4.9004,-10.945 119.97,119.97 0 0 1 -3.7812,-11.381 119.97,119.97 0 0 1 -2.625,-11.701 119.97,119.97 0 0 1 -1.4453,-11.904 119.97,119.97 0 0 1 -0.30078,-8.4863 119.97,119.97 0 0 1 0.59961,-11.979 119.97,119.97 0 0 1 1.791,-11.857 119.97,119.97 0 0 1 2.9668,-11.619 119.97,119.97 0 0 1 4.1133,-11.266 119.97,119.97 0 0 1 5.2148,-10.797 119.97,119.97 0 0 1 6.2695,-10.225 119.97,119.97 0 0 1 7.2578,-9.5469 119.97,119.97 0 0 1 8.1738,-8.7754 119.97,119.97 0 0 1 9.0098,-7.9141 119.97,119.97 0 0 1 6.0977,-4.3594 z"
         fill="#dd1d1d"
         stroke="#000000"
         stroke-linecap="round"
         stroke-linejoin="round"
         stroke-width="0.99921"
         id="path5583" />
      <path
         d="m 81.768,984.41 a 112.89,112.89 0 0 0 7.248,5.4102 128.83,128.83 0 0 0 1.0801,-0.94922 128.83,128.83 0 0 0 8.7793,-9.4238 128.83,128.83 0 0 0 7.793,-10.252 128.83,128.83 0 0 0 6.7305,-10.979 128.83,128.83 0 0 0 5.6016,-11.596 128.83,128.83 0 0 0 4.416,-12.096 128.83,128.83 0 0 0 3.1855,-12.479 128.83,128.83 0 0 0 1.9238,-12.732 128.83,128.83 0 0 0 0.64453,-12.861 128.83,128.83 0 0 0 -0.32226,-9.1133 128.83,128.83 0 0 0 -1.5527,-12.783 128.83,128.83 0 0 0 -2.8203,-12.566 128.83,128.83 0 0 0 -4.0606,-12.221 128.83,128.83 0 0 0 -5.2598,-11.754 128.83,128.83 0 0 0 -6.4082,-11.17 128.83,128.83 0 0 0 -7.4902,-10.477 128.83,128.83 0 0 0 -8.5,-9.6738 128.83,128.83 0 0 0 -3.9043,-3.6367 112.89,112.89 0 0 0 -7.1855,5.3984 119.97,119.97 0 0 1 4.7363,4.4102 119.97,119.97 0 0 1 7.9141,9.0098 119.97,119.97 0 0 1 6.9766,9.7539 119.97,119.97 0 0 1 5.9668,10.402 119.97,119.97 0 0 1 4.8984,10.947 119.97,119.97 0 0 1 3.7812,11.379 119.97,119.97 0 0 1 2.627,11.701 119.97,119.97 0 0 1 1.4453,11.906 119.97,119.97 0 0 1 0.29883,8.4863 119.97,119.97 0 0 1 -0.59766,11.977 119.97,119.97 0 0 1 -1.793,11.857 119.97,119.97 0 0 1 -2.9668,11.619 119.97,119.97 0 0 1 -4.1113,11.266 119.97,119.97 0 0 1 -5.2168,10.799 119.97,119.97 0 0 1 -6.2676,10.225 119.97,119.97 0 0 1 -7.2578,9.5469 119.97,119.97 0 0 1 -8.1758,8.7734 119.97,119.97 0 0 1 -2.1562,1.8945 z"
         fill="#1780ce"
         stroke="#000000"
         stroke-linecap="round"
         stroke-linejoin="round"
         stroke-width="0.99917"
         id="path5585" />
      <path
         d="m 69.959,973.59 a 112.89,113 0 0 0 6.2266,6.3108 112.89,113 0 0 0 2.8008,-2.4633 112.89,113 0 0 0 7.6934,-8.2638 112.89,113 0 0 0 6.8281,-8.9911 112.89,113 0 0 0 5.8984,-9.6284 112.89,113 0 0 0 4.9082,-10.172 112.89,113 0 0 0 3.8691,-10.61 112.89,113 0 0 0 2.791,-10.944 112.89,113 0 0 0 1.6856,-11.167 112.89,113 0 0 0 0.56445,-11.28 112.89,113 0 0 0 -0.2832,-7.994 112.89,113 0 0 0 -1.3594,-11.212 112.89,113 0 0 0 -2.4707,-11.02 112.89,113 0 0 0 -3.5586,-10.719 112.89,113 0 0 0 -4.6094,-10.309 112.89,113 0 0 0 -5.6133,-9.7966 112.89,113 0 0 0 -6.5645,-9.1885 112.89,113 0 0 0 -7.4473,-8.4848 112.89,113 0 0 0 -5.1426,-4.7956 112.89,113 0 0 0 -6.252,6.2736 104.03,104.13 0 0 1 5.0391,4.6998 104.03,104.13 0 0 1 6.8633,7.8181 104.03,104.13 0 0 1 6.0488,8.4671 104.03,104.13 0 0 1 5.1738,9.0282 104.03,104.13 0 0 1 4.248,9.5014 104.03,104.13 0 0 1 3.2793,9.8767 104.03,104.13 0 0 1 2.2774,10.156 104.03,104.13 0 0 1 1.252,10.332 104.03,104.13 0 0 1 0.26172,7.3665 104.03,104.13 0 0 1 -0.51953,10.395 104.03,104.13 0 0 1 -1.5547,10.291 104.03,104.13 0 0 1 -2.5723,10.086 104.03,104.13 0 0 1 -3.5664,9.777 104.03,104.13 0 0 1 -4.5234,9.3723 104.03,104.13 0 0 1 -5.4336,8.8738 104.03,104.13 0 0 1 -6.293,8.2853 104.03,104.13 0 0 1 -7.0879,7.6167 104.03,104.13 0 0 1 -2.8574,2.5122 z"
         fill="#dd1d1d"
         stroke="#000000"
         stroke-linecap="round"
         stroke-linejoin="round"
         stroke-width="0.99917"
         id="path5587" />
      <path
         d="m 76.283,825.33 a 104.03,104.13 0 0 0 -1.3203,-1.5039 104.03,104.13 0 0 0 -5.0391,-4.6992 112.89,113 0 0 0 -30.787,77.248 112.89,113 0 0 0 30.822,77.213 104.03,104.13 0 0 0 2.8574,-2.5117 104.03,104.13 0 0 0 3.3262,-3.5762 104.03,104.03 0 0 1 -5.6074,-6.3828 104.03,104.03 0 0 1 -6.0488,-8.457 104.03,104.03 0 0 1 -5.1738,-9.0215 104.03,104.03 0 0 1 -4.248,-9.4902 104.03,104.03 0 0 1 -3.2773,-9.8691 104.03,104.03 0 0 1 -2.2773,-10.145 104.03,104.03 0 0 1 -1.2539,-10.324 104.03,104.03 0 0 1 -0.25976,-7.3574 104.03,104.03 0 0 1 0.51953,-10.387 104.03,104.03 0 0 1 1.5527,-10.281 104.03,104.03 0 0 1 2.5723,-10.074 104.03,104.03 0 0 1 3.5664,-9.7695 104.03,104.03 0 0 1 4.5234,-9.3633 104.03,104.03 0 0 1 5.4355,-8.8633 104.03,104.03 0 0 1 6.293,-8.2793 104.03,104.03 0 0 1 3.8242,-4.1055 z"
         fill="#1780ce"
         stroke="#000000"
         stroke-linecap="round"
         stroke-linejoin="round"
         stroke-width="0.99917"
         id="path5589" />
      <path
         d="m 38.281,858.3 -8.4222,-2.5554"
         fill="none"
         stroke="#000000"
         stroke-width="1px"
         id="path5591" />
      <path
         d="m 37.247,861.53 -8.4229,-2.5558"
         fill="none"
         stroke="#000000"
         stroke-width="1px"
         id="path5593" />
      <path
         d="m 37.247,861.53 -9.9017,2.6714 7.3661,7.1274 -9.6568,3.4921 7.9568,6.4861 -9.3435,4.2905 8.49,5.7958 -8.9664,5.0606 8.9661,5.0616 -8.4941,5.7953 9.3472,4.2909 -7.962,6.4862 9.6616,3.492 -7.3173,7.114 9.8495,2.6772"
         fill="none"
         stroke="#000000"
         stroke-linecap="round"
         stroke-linejoin="round"
         stroke-width="1px"
         id="path5595" />
      <path
         d="m 28.876,933.91 8.3656,-2.5373"
         fill="none"
         stroke="#000000"
         stroke-width="1px"
         id="path5597" />
      <path
         d="m 29.845,937.16 8.4302,-2.5564"
         fill="none"
         stroke="#000000"
         stroke-width="1px"
         id="path5599" />
      <g
         transform="matrix(-1,0,0,1,152.43,-1.3549e-5)"
         fill="none"
         stroke="#000000"
         stroke-width="1px"
         id="g5611">
        <path
           d="m 38.281,858.3 -8.4222,-2.5554"
           id="path5601" />
        <path
           d="m 37.247,861.53 -8.4229,-2.5558"
           id="path5603" />
        <path
           d="m 37.247,861.53 -9.9017,2.6714 7.3661,7.1274 -9.6568,3.4921 7.9568,6.4861 -9.3435,4.2905 8.49,5.7958 -8.9664,5.0606 8.9661,5.0616 -8.4941,5.7953 9.3472,4.2909 -7.962,6.4862 9.6616,3.492 -7.3173,7.114 9.8495,2.6772"
           stroke-linecap="round"
           stroke-linejoin="round"
           id="path5605" />
        <path
           d="m 28.876,933.91 8.3656,-2.5373"
           id="path5607" />
        <path
           d="m 29.845,937.16 8.4302,-2.5564"
           id="path5609" />
      </g>
      <g
         fill="none"
         stroke="#000000"
         stroke-linecap="round"
         stroke-linejoin="round"
         stroke-width="1px"
         id="g5623">
        <path
           d="m 53.545,862.93 -8.4211,-2.5553"
           id="path5613" />
        <path
           d="m 52.505,866.16 -8.4212,-2.5552"
           id="path5615" />
        <path
           d="m 44.143,929.28 8.359,-2.535"
           id="path5617" />
        <path
           d="m 45.189,932.5 8.3521,-2.5329"
           id="path5619" />
        <path
           d="m 52.505,866.16 -10.183,3.8746 7.304,8.0744 -9.6767,5.0431 8.228,7.1629 -9.0406,6.1448 9.0402,6.1471 -8.2003,7.1598 9.6508,5.0459 -7.2526,8.0622 10.126,3.8691"
           id="path5621" />
      </g>
      <g
         transform="matrix(-1,0,0,1,152.47,1.012e-4)"
         fill="none"
         stroke="#000000"
         stroke-linecap="round"
         stroke-linejoin="round"
         stroke-width="1px"
         id="g5635">
        <path
           d="m 53.545,862.93 -8.4211,-2.5553"
           id="path5625" />
        <path
           d="m 52.505,866.16 -8.4212,-2.5552"
           id="path5627" />
        <path
           d="m 44.143,929.28 8.359,-2.535"
           id="path5629" />
        <path
           d="m 45.189,932.5 8.3521,-2.5329"
           id="path5631" />
        <path
           d="m 52.505,866.16 -10.183,3.8746 7.304,8.0744 -9.6767,5.0431 8.228,7.1629 -9.0406,6.1448 9.0402,6.1471 -8.2003,7.1598 9.6508,5.0459 -7.2526,8.0622 10.126,3.8691"
           id="path5633" />
      </g>
      <path
         d="m 43.654,999.34 c 1.4541,0.0239 5.2257,-0.94696 7.8893,-2.277 2.6636,-1.33004 6.6217,-3.5814 9.7891,-5.6152 0.73138,-0.51027 1.4567,-1.0292 2.1758,-1.5566 l -6.2695,-6.3457 -0.12891,0.0469 c -0.1877,0.13474 -0.37586,0.26885 -0.56445,0.40234 -2.9184,1.8739 -5.9287,3.6006 -9.0195,5.1738 -3.0913,1.5727 -6.2593,2.9898 -9.4922,4.2461 -2.9876,1.1487 -6.0267,2.1589 -9.1074,3.0274 0,0 5.2187,1.8915 7.6918,2.3594 2.4731,0.4679 5.582,0.51473 7.0361,0.53859 z"
         fill="#e9c13a"
         fill-rule="evenodd"
         stroke="#000000"
         stroke-width="0.99921"
         id="path5637" />
      <path
         d="m 56.327,1009.9 c 1.4541,0.024 5.2257,-0.947 7.8893,-2.277 2.6636,-1.33 6.6217,-3.5814 9.7891,-5.6152 0.73138,-0.5103 1.4567,-1.0292 2.1758,-1.5567 l -6.2695,-6.3457 -0.12891,0.0469 c -0.1877,0.13474 -0.37586,0.26885 -0.56445,0.40234 -2.9184,1.8739 -5.9287,3.6006 -9.0195,5.1738 -3.0913,1.57266 -6.2593,2.98976 -9.4922,4.24606 -2.9876,1.1487 -6.0267,2.1589 -9.1074,3.0273 0,0 5.2187,1.8915 7.6918,2.3595 2.4731,0.468 5.582,0.5147 7.0361,0.5386 z"
         fill="#1780ce"
         fill-rule="evenodd"
         opacity="0.97"
         stroke="#000000"
         stroke-width="1px"
         id="path5639" />
      <g
         opacity="0.97"
         stroke="#000000"
         id="g5727">
        <path
           d="m 47.628,803.8 6.5047,-6.5906 9.5931,5.8171 -6.3625,6.4585 z"
           fill="#dd1d1d"
           fill-rule="evenodd"
           stroke-width="1px"
           id="path5641" />
        <path
           d="m 60.214,793.35 6.5047,-6.5906 9.5931,5.8171 -6.3625,6.4585 z"
           fill="#1780ce"
           fill-rule="evenodd"
           stroke-width="1px"
           id="path5643" />
        <path
           d="m 50.881,800.51 9.7571,5.6533"
           fill="none"
           stroke-width="4.5425"
           id="path5645" />
        <path
           d="m 63.466,790.06 9.6797,5.7353"
           fill="none"
           stroke-width="4.5425"
           id="path5647" />
        <ellipse
           transform="matrix(-0.44879,0.89364,0.8937,0.44867,0,0)"
           cx="719.13"
           cy="395.17999"
           rx="3.0455"
           ry="3.0455999"
           opacity="1"
           stroke-linecap="round"
           stroke-linejoin="round"
           stroke-width="0.99921"
           id="ellipse5649" />
        <ellipse
           transform="matrix(-0.44879,0.89364,0.8937,0.44867,0,0)"
           cx="644.90997"
           cy="420.20001"
           rx="3.0455"
           ry="3.0455999"
           opacity="1"
           stroke-linecap="round"
           stroke-linejoin="round"
           stroke-width="0.99921"
           id="ellipse5651" />
        <g
           transform="matrix(0.71631,0.42993,-0.43072,0.71498,319.44,-17.623)"
           id="g5661">
          <ellipse
             transform="matrix(0.0063648,0.99998,0.99998,-0.0064951,0,0)"
             cx="1007.7"
             cy="187.05"
             rx="6.9699001"
             ry="10.076"
             fill="#dd1d1d"
             opacity="1"
             stroke-linecap="round"
             stroke-linejoin="round"
             stroke-width="1.1966"
             id="ellipse5653" />
          <ellipse
             transform="matrix(0.0063648,0.99998,0.99998,-0.0064951,0,0)"
             cx="1007.7"
             cy="187.05"
             rx="4.9102998"
             ry="10.076"
             fill="none"
             opacity="1"
             stroke-linecap="round"
             stroke-linejoin="round"
             stroke-width="1.1966"
             id="ellipse5655" />
          <ellipse
             transform="matrix(0.0063648,0.99998,0.99998,-0.0064951,0,0)"
             cx="1007.7"
             cy="187.05"
             rx="2.6451001"
             ry="10.076"
             fill="none"
             opacity="1"
             stroke-linecap="round"
             stroke-linejoin="round"
             stroke-width="1.1966"
             id="ellipse5657" />
          <path
             d="m 183.38,1006.5 20.151,-0.1309"
             fill="none"
             stroke-width="1.1975px"
             id="path5659" />
        </g>
        <ellipse
           transform="matrix(-0.44879,0.89364,0.8937,0.44867,0,0)"
           cx="674.59003"
           cy="368.26999"
           rx="1.7424999"
           ry="1.7426"
           opacity="1"
           stroke-linecap="round"
           stroke-linejoin="round"
           stroke-width="0.99921"
           id="ellipse5663" />
        <g
           transform="matrix(0.71631,0.42993,-0.43072,0.71498,330.58,-28.905)"
           fill="#1780ce"
           id="g5673">
          <ellipse
             transform="matrix(0.0063648,0.99998,0.99998,-0.0064951,0,0)"
             cx="1007.7"
             cy="187.05"
             rx="6.9699001"
             ry="10.076"
             opacity="1"
             stroke-linecap="round"
             stroke-linejoin="round"
             stroke-width="1.1966"
             id="ellipse5665" />
          <ellipse
             transform="matrix(0.0063648,0.99998,0.99998,-0.0064951,0,0)"
             cx="1007.7"
             cy="187.05"
             rx="4.9102998"
             ry="10.076"
             opacity="1"
             stroke-linecap="round"
             stroke-linejoin="round"
             stroke-width="1.1966"
             id="ellipse5667" />
          <ellipse
             transform="matrix(0.0063648,0.99998,0.99998,-0.0064951,0,0)"
             cx="1007.7"
             cy="187.05"
             rx="2.6451001"
             ry="10.076"
             opacity="1"
             stroke-linecap="round"
             stroke-linejoin="round"
             stroke-width="1.1966"
             id="ellipse5669" />
          <path
             d="m 183.38,1006.5 20.151,-0.1309"
             fill-rule="evenodd"
             stroke-width="1.1975px"
             id="path5671" />
        </g>
        <g
           transform="rotate(-60.005,-8.8106,1000.8)"
           fill="#1780ce"
           stroke-linecap="round"
           stroke-linejoin="round"
           id="g5697">
          <ellipse
             transform="matrix(-0.99843,-0.055947,0,1,0,0)"
             cx="-195.19"
             cy="930.78003"
             rx="6.6971998"
             ry="13.217"
             opacity="1"
             stroke-width="0.97068"
             id="ellipse5675" />
          <path
             d="m 191.5,930.12 6.4391,6e-5"
             fill-rule="evenodd"
             stroke-width="0.64488"
             id="path5677" />
          <path
             d="m 190.01,932.37 9.4728,3.3e-4"
             fill-rule="evenodd"
             stroke-width="0.64488"
             id="path5679" />
          <path
             d="m 189.13,934.63 11.295,2e-5"
             fill-rule="evenodd"
             stroke-width="0.64488"
             id="path5681" />
          <path
             d="m 188.59,936.89 12.45,-2.8e-4"
             fill-rule="evenodd"
             stroke-width="0.64488"
             id="path5683" />
          <path
             d="m 188.29,939.15 13.116,7e-5"
             fill-rule="evenodd"
             stroke-width="0.64488"
             id="path5685" />
          <path
             d="m 188.2,941.4 13.365,10e-6"
             fill-rule="evenodd"
             stroke-width="0.64488"
             id="path5687" />
          <path
             d="m 188.3,943.66 13.221,-5e-5"
             fill-rule="evenodd"
             stroke-width="0.64488"
             id="path5689" />
          <path
             d="m 188.61,945.92 12.671,-2.3e-4"
             fill-rule="evenodd"
             stroke-width="0.64488"
             id="path5691" />
          <path
             d="m 189.15,948.18 11.657,4e-4"
             fill-rule="evenodd"
             stroke-width="0.64488"
             id="path5693" />
          <path
             d="m 189.99,950.43 10.04,-1.9e-4"
             fill-rule="evenodd"
             stroke-width="0.64488"
             id="path5695" />
        </g>
        <g
           transform="rotate(-60.005,-12.667,985.7)"
           stroke-linecap="round"
           stroke-linejoin="round"
           id="g5721">
          <ellipse
             transform="matrix(-0.99843,-0.055947,0,1,0,0)"
             cx="-195.19"
             cy="930.78003"
             rx="6.6971998"
             ry="13.217"
             fill="#dd1d1d"
             opacity="1"
             stroke-width="0.97068"
             id="ellipse5699" />
          <path
             d="m 191.5,930.12 6.4391,6e-5"
             fill="none"
             stroke-width="0.64488"
             id="path5701" />
          <path
             d="m 190.01,932.37 9.4728,3.3e-4"
             fill="none"
             stroke-width="0.64488"
             id="path5703" />
          <path
             d="m 189.13,934.63 11.295,2e-5"
             fill="none"
             stroke-width="0.64488"
             id="path5705" />
          <path
             d="m 188.59,936.89 12.45,-2.8e-4"
             fill="none"
             stroke-width="0.64488"
             id="path5707" />
          <path
             d="m 188.29,939.15 13.116,7e-5"
             fill="none"
             stroke-width="0.64488"
             id="path5709" />
          <path
             d="m 188.2,941.4 13.365,10e-6"
             fill="none"
             stroke-width="0.64488"
             id="path5711" />
          <path
             d="m 188.3,943.66 13.221,-5e-5"
             fill="none"
             stroke-width="0.64488"
             id="path5713" />
          <path
             d="m 188.61,945.92 12.671,-2.3e-4"
             fill="none"
             stroke-width="0.64488"
             id="path5715" />
          <path
             d="m 189.15,948.18 11.657,4e-4"
             fill="none"
             stroke-width="0.64488"
             id="path5717" />
          <path
             d="m 189.99,950.43 10.04,-1.9e-4"
             fill="none"
             stroke-width="0.64488"
             id="path5719" />
        </g>
        <path
           d="m 76.443,761.04 -0.91406,1.5137 c 0,0 -10.05,16.591 -15.953,23.824 -3.2815,4.0206 -6.938,7.7627 -10.92,11.066 -5.883,4.881 -19.598,13.205 -19.598,13.205 l -1.4688,0.88672 10.459,14.131 1.2676,-1.6016 c 0,0 11.379,-14.375 17.453,-21 3.5745,-3.8988 7.2019,-7.7175 11.172,-11.062 7.4751,-6.2983 23.285,-16.711 23.285,-16.711 l 1.8125,-1.1914 z"
           color="#000000"
           color-rendering="auto"
           enable-background="accumulate"
           fill="#e9c13a"
           fill-rule="evenodd"
           image-rendering="auto"
           opacity="1"
           shape-rendering="auto"
           solid-color="#000000"
           stroke-linejoin="round"
           stroke-width="0.99921"
           style="text-indent:0;text-decoration-line:none;text-decoration-style:solid;text-decoration-color:#000000;text-transform:none;white-space:normal;isolation:auto;mix-blend-mode:normal"
           id="path5723" />
        <path
           d="m 77.269,765.66 10.449,8.2246 c -2.6438,1.7483 -14.751,9.7914 -21.791,15.723 -4.1478,3.4948 -7.8619,7.4123 -11.461,11.338 -5.6578,6.1711 -14.451,17.223 -16.326,19.586 l -6.0117,-8.123 c 2.1808,-1.3249 12.769,-7.7937 18.521,-12.566 4.1506,-3.4436 7.9475,-7.3301 11.348,-11.496 5.7652,-7.0636 13.87,-20.374 15.271,-22.686 z"
           color="#000000"
           color-rendering="auto"
           enable-background="accumulate"
           fill-rule="evenodd"
           image-rendering="auto"
           opacity="1"
           shape-rendering="auto"
           solid-color="#000000"
           stroke-linejoin="round"
           stroke-width="0.29055"
           style="text-indent:0;text-decoration-line:none;text-decoration-style:solid;text-decoration-color:#000000;text-transform:none;white-space:normal;isolation:auto;mix-blend-mode:normal"
           id="path5725" />
      </g>
      <path
         d="m 108.03,794.06 c -1.4541,-0.0239 -5.2257,0.94696 -7.8893,2.277 -2.6636,1.33 -6.6217,3.5814 -9.7891,5.6152 -0.73138,0.51027 -1.4567,1.0292 -2.1758,1.5566 l 6.2695,6.3457 0.12891,-0.0469 c 0.1877,-0.13474 0.37586,-0.26885 0.56445,-0.40234 2.9184,-1.8739 5.9287,-3.6006 9.0195,-5.1738 3.0913,-1.5727 6.2593,-2.9898 9.4922,-4.2461 2.9876,-1.1487 6.0266,-2.1589 9.1074,-3.0274 0,0 -5.2187,-1.8915 -7.6918,-2.3594 -2.4731,-0.4679 -5.582,-0.51473 -7.0361,-0.53859 z"
         fill="#e9c13a"
         fill-rule="evenodd"
         opacity="0.97"
         stroke="#000000"
         stroke-width="1px"
         id="path5729" />
      <path
         d="m 96.166,783.13 c -1.4541,-0.0239 -5.2257,0.94696 -7.8893,2.277 -2.6636,1.33 -6.6217,3.5814 -9.7891,5.6152 -0.73138,0.51027 -1.4567,1.0292 -2.1758,1.5566 l 6.2695,6.3457 0.12891,-0.0469 c 0.1877,-0.13474 0.37586,-0.26885 0.56445,-0.40234 2.9184,-1.8739 5.9287,-3.6006 9.0195,-5.1738 3.0913,-1.5727 6.2593,-2.9898 9.4922,-4.2461 2.9876,-1.1487 6.0266,-2.1589 9.1074,-3.0274 0,0 -5.2187,-1.8915 -7.6918,-2.3594 -2.4731,-0.4679 -5.582,-0.51473 -7.0361,-0.53859 z"
         fill="#1780ce"
         fill-rule="evenodd"
         stroke="#000000"
         stroke-width="1px"
         id="path5731" />
      <g
         stroke-linejoin="round"
         id="g5761">
        <path
           d="m 95.135,809.41 a 128.83,128.83 0 0 0 -2.3789,-2.707 128.83,128.83 0 0 0 -9.4219,-8.7773 128.83,128.83 0 0 0 -7.1367,-5.4258 128.83,128.83 0 0 0 -18.994,16.953 104.03,104.03 0 0 1 1.875,1.1504 104.03,104.03 0 0 1 8.2773,6.293 104.03,104.03 0 0 1 7.6074,7.0879 104.03,104.03 0 0 1 1.2539,1.4258 104.03,104.03 0 0 1 3.3301,-3.5742 104.03,104.03 0 0 1 7.8125,-6.8633 104.03,104.03 0 0 1 7.7754,-5.5625 z"
           fill="#dd1d1d"
           stroke="#000000"
           stroke-linecap="round"
           stroke-width="0.99921"
           id="path5733" />
        <path
           d="m 91.067,809.31 a 101.2,101.09 0 0 0 -1.8687,-2.1241 101.2,101.09 0 0 0 -7.401,-6.8873 101.2,101.09 0 0 0 -5.606,-4.2575 101.2,101.09 0 0 0 -14.92,13.303 81.715,81.628 0 0 1 1.4728,0.90267 81.715,81.628 0 0 1 6.5019,4.9379 81.715,81.628 0 0 1 5.9757,5.5617 81.715,81.628 0 0 1 0.98496,1.1188 81.715,81.628 0 0 1 2.6158,-2.8046 81.715,81.628 0 0 1 6.1368,-5.3854 81.715,81.628 0 0 1 6.1077,-4.3647 z"
           stroke="#dd1d1d"
           stroke-linecap="round"
           stroke-width="0.99921"
           id="path5735" />
        <g
           transform="matrix(1.0112,0,0,1.0113,-0.86814,-9.6535)"
           fill="#dd1d1d"
           fill-rule="evenodd"
           stroke="#dd1d1d"
           stroke-width="0.98885px"
           id="g5745">
          <path
             d="m 75.207,803.83 c -0.0047,-1.933 0.97409,-5.7853 0.97409,-5.7853 0,0 0.97879,3.8523 0.97409,5.7853 -0.0047,1.933 -0.97409,5.6166 -0.97409,5.6166 0,0 -0.96936,-3.6835 -0.97409,-5.6166 z"
             id="path5737" />
          <path
             d="m 75.207,815.07 c -0.0047,1.933 0.97409,5.7853 0.97409,5.7853 0,0 0.97879,-3.8523 0.97409,-5.7853 -0.0047,-1.933 -0.97409,-5.6166 -0.97409,-5.6166 0,0 -0.96936,3.6835 -0.97409,5.6166 z"
             id="path5739" />
          <path
             d="m 82.841,808.48 c 2.2923,-0.005 6.8605,0.97408 6.8605,0.97408 0,0 -4.5682,0.97879 -6.8605,0.97409 -2.2923,-0.005 -6.6604,-0.97409 -6.6604,-0.97409 0,0 4.3681,-0.96936 6.6604,-0.97408 z"
             id="path5741" />
          <path
             d="m 69.52,808.48 c -2.2925,-0.005 -6.8611,0.97408 -6.8611,0.97408 0,0 4.5686,0.97879 6.8611,0.97409 2.2925,-0.005 6.661,-0.97409 6.661,-0.97409 0,0 -4.3685,-0.96936 -6.661,-0.97408 z"
             id="path5743" />
        </g>
        <path
           d="m 76.146,967.51 a 104.03,104.03 0 0 1 -3.3301,3.5742 104.03,104.03 0 0 1 -7.8125,6.8633 104.03,104.03 0 0 1 -7.6621,5.4785 128.83,128.83 0 0 0 18.822,16.994 128.83,128.83 0 0 0 4.2578,-3.045 128.83,128.83 0 0 0 9.6738,-8.498 128.83,128.83 0 0 0 5.0488,-5.4199 104.03,104.03 0 0 1 -1.8594,-1.1406 104.03,104.03 0 0 1 -8.2793,-6.293 104.03,104.03 0 0 1 -7.6074,-7.0879 104.03,104.03 0 0 1 -1.252,-1.4258 z"
           fill="#dd1d1d"
           stroke="#000000"
           stroke-linecap="round"
           stroke-width="0.99921"
           id="path5747" />
        <path
           d="m 76.167,971.05 a 81.713,81.628 0 0 1 -2.6157,2.8046 81.713,81.628 0 0 1 -6.1367,5.3854 81.713,81.628 0 0 1 -6.0185,4.2988 101.2,101.09 0 0 0 14.785,13.335 101.2,101.09 0 0 0 3.3445,-2.3893 101.2,101.09 0 0 0 7.5987,-6.6682 101.2,101.09 0 0 0 3.9658,-4.2528 81.713,81.628 0 0 1 -1.4605,-0.89502 81.713,81.628 0 0 1 -6.5033,-4.9379 81.713,81.628 0 0 1 -5.9756,-5.5617 81.713,81.628 0 0 1 -0.9834,-1.1188 z"
           stroke="#dd1d1d"
           stroke-linecap="round"
           stroke-width="0.99921"
           id="path5749" />
        <g
           transform="matrix(1.0088,0,0,1.0089,-0.60827,167.34)"
           fill="#dd1d1d"
           fill-rule="evenodd"
           stroke="#dd1d1d"
           stroke-width="0.99125px"
           id="g5759">
          <path
             d="m 75.207,803.83 c -0.0047,-1.933 0.97409,-5.7853 0.97409,-5.7853 0,0 0.97879,3.8523 0.97409,5.7853 -0.0047,1.933 -0.97409,5.6166 -0.97409,5.6166 0,0 -0.96936,-3.6835 -0.97409,-5.6166 z"
             id="path5751" />
          <path
             d="m 75.207,815.07 c -0.0047,1.933 0.97409,5.7853 0.97409,5.7853 0,0 0.97879,-3.8523 0.97409,-5.7853 -0.0047,-1.933 -0.97409,-5.6166 -0.97409,-5.6166 0,0 -0.96936,3.6835 -0.97409,5.6166 z"
             id="path5753" />
          <path
             d="m 82.841,808.48 c 2.2923,-0.005 6.8605,0.97408 6.8605,0.97408 0,0 -4.5682,0.97879 -6.8605,0.97409 -2.2923,-0.005 -6.6604,-0.97409 -6.6604,-0.97409 0,0 4.3681,-0.96936 6.6604,-0.97408 z"
             id="path5755" />
          <path
             d="m 69.52,808.48 c -2.2925,-0.005 -6.8611,0.97408 -6.8611,0.97408 0,0 4.5686,0.97879 6.8611,0.97409 2.2925,-0.005 6.661,-0.97409 6.661,-0.97409 0,0 -4.3685,-0.96936 -6.661,-0.97408 z"
             id="path5757" />
        </g>
      </g>
    </g>
    <g
       transform="translate(483.83,220.91)"
       stroke="#000000"
       stroke-width="0.64488"
       id="g5827">
      <path
         d="m 72.919,862.36 c 0,0 -5.0176,4.8735 -7.2649,7.5524 -1.823,2.1732 -3.4341,4.5247 -5.0194,6.8821 -1.7584,2.6149 -3.5084,5.25 -4.9754,8.044 -1.579,3.0073 -2.9962,6.1199 -4.0948,9.34 -1.1542,3.3833 -3.4727,14.475 -3.4727,14.475"
         fill="none"
         id="path5765" />
      <path
         d="m 78.203,857.31 c 0,0 -2.8763,1.1455 -4.1828,1.9663 -0.71917,0.4518 -1.4681,0.92649 -1.9813,1.6088 -0.35904,0.47728 -0.69044,1.0532 -0.70447,1.6535 -0.0084,0.35995 0.07998,0.81165 0.37562,1.0106 0.50761,0.34167 1.2592,0.15436 1.8259,-0.0722 0.52285,-0.209 0.88743,-0.70602 1.2769,-1.1172 0.57184,-0.60378 1.0483,-1.2945 1.541,-1.9663 0.49106,-0.66959 1.0082,-1.3268 1.409,-2.0557 0.17936,-0.32625 0.44029,-1.0278 0.44029,-1.0278 z"
         fill="#287028"
         fill-rule="evenodd"
         id="path5767" />
      <path
         d="m 68.78,861.46 c -0.20683,-0.63938 -0.59854,-1.2016 -0.92462,-1.7876 -0.27852,-0.50048 -0.64078,-0.95399 -0.88059,-1.4747 -0.2496,-0.54198 -0.57238,-1.6982 -0.57238,-1.6982 0,0 -0.32358,1.3314 -0.39627,2.011 -0.08396,0.78504 -0.27159,1.6134 -0.04403,2.3685 0.19413,0.64418 0.66047,1.1929 1.1448,1.6535 0.51428,0.48912 1.8052,1.1172 1.8052,1.1172 0,0 0.08093,-1.5312 -0.13209,-2.1898 z"
         fill="#287028"
         fill-rule="evenodd"
         id="path5769" />
      <path
         d="m 71.07,865.67 c -0.15024,0.53278 0.55572,0.9781 0.96865,1.3407 0.4022,0.35314 0.90455,0.58865 1.409,0.7597 0.80328,0.27243 1.6641,0.35444 2.5097,0.4022 0.32272,0.0183 0.96865,-0.0447 0.96865,-0.0447 0,0 -0.97327,-0.76873 -1.453,-1.1619 -0.42982,-0.35229 -0.79289,-0.80208 -1.2769,-1.0725 -0.62206,-0.34761 -1.3156,-0.69385 -2.0254,-0.67033 -0.39497,0.0131 -0.992,0.0613 -1.1007,0.44689 z"
         fill="#287028"
         fill-rule="evenodd"
         id="path5771" />
      <path
         d="m 65.874,867.41 c 0.3645,-0.58594 -0.46352,-1.3283 -0.8806,-1.8769 -0.37538,-0.49379 -0.87716,-0.8941 -1.4089,-1.2066 -0.446,-0.26209 -0.96815,-0.35893 -1.453,-0.53626 -0.20526,-0.0751 -0.61642,-0.22345 -0.61642,-0.22345 0,0 0.30071,0.83198 0.52836,1.2066 0.38869,0.63961 0.84046,1.2614 1.409,1.7429 0.46408,0.39303 0.99997,0.73989 1.5851,0.89377 0.26994,0.071 0.68769,0.23932 0.83656,0 z"
         fill="#287028"
         fill-rule="evenodd"
         id="path5773" />
      <path
         d="m 67.327,869.73 c -0.123,0.15606 1.1007,1.6535 1.2769,1.6982 0.17612,0.0447 1.4968,0.73805 2.2895,0.98315 0.8866,0.27414 1.803,0.53668 2.7298,0.53627 0.53825,-2.4e-4 1.5851,-0.31282 1.5851,-0.31282 0,0 -1.423,-1.2814 -2.2015,-1.8322 -0.64218,-0.45437 -1.3238,-0.85417 -2.0254,-1.2066 -0.62533,-0.31409 -1.2499,-0.68289 -1.9373,-0.80439 -0.33287,-0.0588 -0.7114,-0.11056 -1.0127,0.0447 -0.33518,0.1727 -0.70448,0.89377 -0.70448,0.89377 z"
         fill="#287028"
         fill-rule="evenodd"
         id="path5775" />
      <path
         d="m 66.579,870.31 c -0.87928,0.32628 -0.43885,1.8652 -0.44029,2.8154 -9.97e-4,0.67839 0.14405,1.3534 0.3082,2.011 0.22574,0.90433 0.4787,1.8209 0.92462,2.6366 0.30915,0.56553 0.78571,1.0185 1.1888,1.5194 0.30313,0.37667 0.92462,1.1172 0.92462,1.1172 0,0 -0.13157,-1.3097 -0.17612,-1.9663 -0.0646,-0.95215 0.02233,-1.9186 -0.13209,-2.8601 -0.13806,-0.84167 -0.40503,-1.6606 -0.70448,-2.4579 -0.25488,-0.67862 -0.49052,-1.389 -0.92462,-1.9663 -0.25882,-0.34423 -0.56796,-0.99777 -0.96865,-0.84909 z"
         fill="#287028"
         fill-rule="evenodd"
         id="path5777" />
      <path
         d="m 58.697,866.29 c 0,0 -0.15248,2.3587 -0.04403,3.5304 0.10364,1.1198 0.2089,2.2798 0.66044,3.307 0.29065,0.66113 0.57954,1.8952 1.2769,1.7428 0.46999,-0.10271 0.28801,-0.94251 0.30821,-1.43 0.03296,-0.79566 -0.13748,-1.5912 -0.30821,-2.3685 -0.21109,-0.96104 -0.50771,-1.9064 -0.88059,-2.8154 -0.28008,-0.68277 -1.0127,-1.9663 -1.0127,-1.9663 z"
         fill="#287028"
         fill-rule="evenodd"
         id="path5779" />
      <path
         d="m 61.647,876.7 c -0.64931,0.22917 -0.53386,1.3144 -0.57238,2.011 -0.0342,0.61861 0.09261,1.2526 0.30821,1.8322 0.28627,0.76966 1.2769,2.1004 1.2769,2.1004 0,0 0.31218,-0.72833 0.35224,-1.1172 0.09051,-0.87863 -0.1014,-1.7688 -0.26418,-2.6366 -0.11122,-0.59297 -0.1423,-1.2491 -0.48432,-1.7429 -0.14522,-0.20966 -0.37792,-0.53106 -0.61642,-0.44689 z"
         fill="#287028"
         fill-rule="evenodd"
         id="path5781" />
      <path
         d="m 62.22,875.94 c -0.44529,0.46357 0.38494,1.2556 0.74851,1.7876 0.46152,0.6753 1.0932,1.2336 1.7612,1.6982 0.73657,0.5122 2.4216,1.1619 2.4216,1.1619 0,0 -0.96013,-1.7402 -1.5851,-2.5026 -0.42502,-0.51845 -0.89186,-1.024 -1.453,-1.3854 -0.57304,-0.36897 -1.4195,-1.2529 -1.8933,-0.7597 z"
         fill="#287028"
         fill-rule="evenodd"
         id="path5783" />
      <path
         d="m 55.043,875.54 c -0.1966,0.78831 -0.37113,1.6002 -0.35224,2.4132 0.02152,0.92583 0.29914,1.8296 0.52836,2.726 0.14341,0.56084 -0.04113,1.613 0.52836,1.6535 0.63514,0.0451 0.63542,-1.1297 0.83656,-1.7429 0.34462,-1.0505 0.60421,-2.1551 0.61642,-3.2623 0.01383,-1.2538 -0.38639,-2.4772 -0.61642,-3.7092 -0.10613,-0.56835 -0.33022,-1.6088 -0.33022,-1.6088 0,0 -0.91573,2.3472 -1.2108,3.5304 z"
         fill="#287028"
         fill-rule="evenodd"
         id="path5785" />
      <path
         d="m 52.445,876.08 c 0,0 -0.16776,2.6098 0.04403,3.8879 0.18474,1.1149 0.5068,2.2344 1.0567,3.2176 0.34423,0.61543 0.71484,1.8647 1.3649,1.6088 0.94457,-0.37179 0.02788,-2.062 -0.08805,-3.0835 -0.10969,-0.96643 -0.23705,-1.9487 -0.57239,-2.8601 -0.27132,-0.73737 -0.68551,-1.4214 -1.1448,-2.0557 -0.19062,-0.26326 -0.66044,-0.71502 -0.66044,-0.71502 z"
         fill="#287028"
         fill-rule="evenodd"
         id="path5787" />
      <path
         d="m 56.144,885.24 c 0.51688,-0.69769 1.2725,-1.2357 2.0694,-1.5641 0.72697,-0.29959 1.549,-0.31981 2.3336,-0.31282 0.2968,0.002 0.88059,0.13407 0.88059,0.13407 0,0 -0.94328,1.5604 -1.5851,2.1898 -0.52405,0.51387 -1.109,1.033 -1.8052,1.2513 -0.53287,0.16707 -1.1987,0.29759 -1.6731,0 -0.30708,-0.19263 -0.4654,-0.61726 -0.48432,-0.98315 -0.01315,-0.2542 0.11345,-0.51158 0.26418,-0.71502 z"
         fill="#287028"
         fill-rule="evenodd"
         id="path5789" />
      <path
         d="m 50.595,882.02 0.1763,3.7092 c 0.04053,0.85276 -0.08461,1.7691 0.26446,2.5459 0.24992,0.55618 0.65395,1.5058 1.2341,1.3418 0.54902,-0.15525 0.33039,-1.1206 0.35046,-1.6987 0.03025,-0.87162 -0.11058,-1.7536 -0.35046,-2.591 -0.15767,-0.55048 -0.44996,-1.054 -0.70522,-1.5654 -0.32662,-0.65437 -1.0012,-2.4054 -0.96967,-1.7417 z"
         fill="#287028"
         fill-rule="evenodd"
         stroke-linecap="round"
         id="path5791" />
      <path
         d="m 58.257,889.13 c 0,0 -1.8482,0.20625 -2.6858,0.58094 -0.57765,0.2584 -1.1073,0.65174 -1.541,1.1172 -0.35812,0.38432 -0.94476,0.82322 -0.83656,1.3407 0.06592,0.31524 0.4806,0.47618 0.79253,0.53626 0.54584,0.10514 1.1317,-0.10624 1.6291,-0.3575 0.62418,-0.3154 1.1387,-0.8417 1.5851,-1.3854 0.44637,-0.54365 1.0567,-1.8322 1.0567,-1.8322 z"
         fill="#287028"
         fill-rule="evenodd"
         id="path5793" />
      <path
         d="m 49.187,889.84 c 0,0 -0.57214,1.5904 -0.52836,2.4132 0.05182,0.97369 0.41757,1.9425 0.92462,2.7707 0.20814,0.33998 0.46338,0.9785 0.83656,0.84909 0.65805,-0.22819 0.30518,-1.3958 0.26418,-2.1004 -0.04996,-0.85837 -0.28512,-1.7112 -0.61642,-2.5026 -0.21659,-0.51736 -0.88059,-1.43 -0.88059,-1.43 z"
         fill="#287028"
         fill-rule="evenodd"
         id="path5795" />
      <path
         d="m 51.521,897.04 c 0.19939,0.69093 1.2297,0.84321 1.9373,0.89377 0.77828,0.0556 1.5702,-0.27369 2.2455,-0.67034 0.8086,-0.47494 2.0254,-1.9663 2.0254,-1.9663 0,0 -0.96666,-0.13064 -1.453,-0.13408 -0.76542,-0.005 -1.5492,-0.0185 -2.2895,0.17876 -0.70494,0.18782 -1.4318,0.45261 -1.9813,0.93846 -0.22409,0.19812 -0.56786,0.47025 -0.48433,0.75972 z"
         fill="#287028"
         fill-rule="evenodd"
         id="path5797" />
      <path
         d="m 65.874,867.41 c 0,0 0.37752,0.31935 0.48433,0.53627 0.143,0.29039 0.17651,0.95732 0.17651,0.95732"
         fill="none"
         id="path5799" />
      <path
         d="m 71.07,865.67 -1.0864,-0.38753 -1.071,-1.6235"
         fill="none"
         id="path5801" />
      <path
         d="m 67.327,869.73 c -0.08582,-0.38012 -0.29684,-0.68762 -0.79214,-0.83023"
         fill="#287028"
         fill-rule="evenodd"
         id="path5803" />
      <path
         d="m 66.579,870.31 -0.04364,-1.4112"
         fill="#287028"
         fill-rule="evenodd"
         id="path5805" />
      <path
         d="m 60.591,874.87 c 0.15291,0.44702 0.29784,0.90755 0.62183,1.0652"
         fill="#287028"
         fill-rule="evenodd"
         id="path5807" />
      <path
         d="m 61.647,876.7 -0.43488,-0.76708"
         fill="#287028"
         fill-rule="evenodd"
         id="path5809" />
      <path
         d="m 62.22,875.94 -1.0073,-0.008"
         fill="#287028"
         fill-rule="evenodd"
         id="path5811" />
      <path
         d="m 55.748,882.33 c 0.02197,0.74854 0.01035,1.5652 0.2578,1.8561"
         fill="#287028"
         fill-rule="evenodd"
         id="path5813" />
      <path
         d="m 54.911,884.79 0.34281,0.8268"
         fill="#287028"
         fill-rule="evenodd"
         id="path5815" />
      <path
         d="m 55.938,886.3 -1.0782,0.092"
         fill="#287028"
         fill-rule="evenodd"
         id="path5817" />
      <path
         d="m 52.269,889.62 c 0.0953,0.37881 0.07063,0.77284 0.60974,1.0954"
         fill="#287028"
         fill-rule="evenodd"
         id="path5819" />
      <path
         d="m 53.194,892.17 -0.99509,0.25435"
         fill="#287028"
         fill-rule="evenodd"
         id="path5821" />
      <path
         d="m 50.42,895.87 0.46496,0.5609"
         fill="#287028"
         fill-rule="evenodd"
         id="path5823" />
      <path
         d="m 51.521,897.04 -0.85353,0.21224"
         fill="#287028"
         fill-rule="evenodd"
         id="path5825" />
    </g>
  </g>
</svg>
